999
dxflib 3.26.4.0
  0
SECTION
  2
HEADER
  9
$ACADVER
  1
AC1015
  9
$HANDSEED
  5
FFFF
  9
$ANGBASE
 50
0.0
  9
$ANGDIR
 70
1
  9
$DIMADEC
 70
0
  9
$DIMASZ
 40
0.18
  9
$DIMATFIT
 70
0
  9
$DIMAUNIT
 70
0
  9
$DIMAZIN
 70
0
  9
$DIMBLK
  1
0
  9
$DIMBLK1
  1
0
  9
$DIMBLK2
  1
0
  9
$DIMDEC
 70
4
  9
$DIMDLI
 40
0.36
  9
$DIMDSEP
 70
0
  9
$DIMEXE
 40
0.18
  9
$DIMEXO
 40
0.0625
  9
$DIMGAP
 40
0.09
  9
$DIMLFAC
 40
0.0
  9
$DIMLUNIT
 70
2
  9
$DIMSCALE
 40
0.0
  9
$DIMTAD
 70
0
  9
$DIMTIH
 70
0
  9
$DIMTSZ
 40
0.0
  9
$DIMTXT
 40
0.18
  9
$DIMZIN
 70
0
  9
$DWGCODEPAGE
  3
ANSI_1252
  9
$INSUNITS
 70
0
  9
$LTSCALE
 40
1.0
  9
$MAXACTVP
 70
64
  9
$MEASUREMENT
 70
0
  9
$MIRRTEXT
 70
0
  9
$PDMODE
 70
0
  9
$PDSIZE
 40
0.0
  0
ENDSEC
  0
SECTION
  2
TABLES
  0
TABLE
  2
VPORT
  5
8
100
AcDbSymbolTable
 70
1
  0
VPORT
  5
30
100
AcDbSymbolTableRecord
100
AcDbViewportTableRecord
  2
*Active
 70
0
 10
0.0
 20
0.0
 11
1.0
 21
1.0
 12
286.3055555555554861
 22
148.5
 13
0.0
 23
0.0
 14
10.0
 24
10.0
 15
10.0
 25
10.0
 16
0.0
 26
0.0
 36
1.0
 17
0.0
 27
0.0
 37
0.0
 40
297.0
 41
1.92798353909465
 42
50.0
 43
0.0
 44
0.0
 50
0.0
 51
0.0
 71
0
 72
100
 73
1
 74
3
 75
1
 76
1
 77
0
 78
0
281
0
 65
1
110
0.0
120
0.0
130
0.0
111
1.0
121
0.0
131
0.0
112
0.0
122
1.0
132
0.0
 79
0
146
0.0
  0
ENDTAB
  0
TABLE
  2
LTYPE
  5
5
100
AcDbSymbolTable
 70
42
  0
LTYPE
  5
16
100
AcDbSymbolTableRecord
100
AcDbLinetypeTableRecord
  2
CONTINUOUS
 70
0
  3
Solid line
 72
65
 73
0
 40
0.0
  0
LTYPE
  5
31
100
AcDbSymbolTableRecord
100
AcDbLinetypeTableRecord
  2
DOTTED
 70
0
  3
Dotted .  .  .  .
 72
65
 73
2
 40
0.2
 49
0.1
 74
0
 49
-0.1
 74
0
  0
LTYPE
  5
32
100
AcDbSymbolTableRecord
100
AcDbLinetypeTableRecord
  2
HIDDENX2
 70
0
  3
Hidden (2x) ____ ____ ____ ____ ____ ____ ____ 
 72
65
 73
2
 40
19.0499999999999972
 49
12.6999999999999993
 74
0
 49
-6.3499999999999996
 74
0
  0
LTYPE
  5
33
100
AcDbSymbolTableRecord
100
AcDbLinetypeTableRecord
  2
DASHDOTX2
 70
0
  3
Dash dot (2x) ____  .  ____  .  ____  .  ___
 72
65
 73
4
 40
50.7999999999999972
 49
25.3999999999999986
 74
0
 49
-12.6999999999999993
 74
0
 49
0.0
 74
0
 49
-12.6999999999999993
 74
0
  0
LTYPE
  5
34
100
AcDbSymbolTableRecord
100
AcDbLinetypeTableRecord
  2
ACAD_ISO09W100
 70
0
  3
ISO long-dash double-short-dash ____ __ __ ____
 72
65
 73
6
 40
45.0
 49
24.0
 74
0
 49
-3.0
 74
0
 49
6.0
 74
0
 49
-3.0
 74
0
 49
6.0
 74
0
 49
-3.0
 74
0
  0
LTYPE
  5
35
100
AcDbSymbolTableRecord
100
AcDbLinetypeTableRecord
  2
DOT
 70
0
  3
Dot . . . . . . . . . . . . . . . . . . . . . . . .
 72
65
 73
2
 40
6.3499999999999996
 49
0.0
 74
0
 49
-6.3499999999999996
 74
0
  0
LTYPE
  5
36
100
AcDbSymbolTableRecord
100
AcDbLinetypeTableRecord
  2
DASHED
 70
0
  3
Dashed __ __ __ __ __
 72
65
 73
2
 40
0.75
 49
0.5
 74
0
 49
-0.25
 74
0
  0
LTYPE
  5
37
100
AcDbSymbolTableRecord
100
AcDbLinetypeTableRecord
  2
ACAD_ISO12W100
 70
0
  3
ISO dash double-dot __ . . __ . . __ . . __ . . 
 72
65
 73
6
 40
21.0
 49
12.0
 74
0
 49
-3.0
 74
0
 49
0.0
 74
0
 49
-3.0
 74
0
 49
0.0
 74
0
 49
-3.0
 74
0
  0
LTYPE
  5
38
100
AcDbSymbolTableRecord
100
AcDbLinetypeTableRecord
  2
ACAD_ISO15W100
 70
0
  3
ISO double-dash triple-dot __ __ . . . __ __ . .
 72
65
 73
10
 40
39.0
 49
12.0
 74
0
 49
-3.0
 74
0
 49
12.0
 74
0
 49
-3.0
 74
0
 49
0.0
 74
0
 49
-3.0
 74
0
 49
0.0
 74
0
 49
-3.0
 74
0
 49
0.0
 74
0
 49
-3.0
 74
0
  0
LTYPE
  5
39
100
AcDbSymbolTableRecord
100
AcDbLinetypeTableRecord
  2
ACAD_ISO07W100
 70
0
  3
ISO dot . . . . . . . . . . . . . . . . . . . . 
 72
65
 73
2
 40
3.0
 49
0.0
 74
0
 49
-3.0
 74
0
  0
LTYPE
  5
3A
100
AcDbSymbolTableRecord
100
AcDbLinetypeTableRecord
  2
ACAD_ISO02W100
 70
0
  3
ISO dash __ __ __ __ __ __ __ __ __ __ __ __ __
 72
65
 73
2
 40
15.0
 49
12.0
 74
0
 49
-3.0
 74
0
  0
LTYPE
  5
3B
100
AcDbSymbolTableRecord
100
AcDbLinetypeTableRecord
  2
CENTER
 70
0
  3
Center ____ _ ____ _ ____ _ ____ _ ____ _ ____
 72
65
 73
4
 40
50.8000000000000043
 49
31.75
 74
0
 49
-6.3499999999999996
 74
0
 49
6.3499999999999996
 74
0
 49
-6.3499999999999996
 74
0
  0
LTYPE
  5
3C
100
AcDbSymbolTableRecord
100
AcDbLinetypeTableRecord
  2
ACAD_ISO03W100
 70
0
  3
ISO dash space __    __    __    __    __    __
 72
65
 73
2
 40
30.0
 49
12.0
 74
0
 49
-18.0
 74
0
  0
LTYPE
  5
3D
100
AcDbSymbolTableRecord
100
AcDbLinetypeTableRecord
  2
ACAD_ISO13W100
 70
0
  3
ISO double-dash double-dot __ __ . . __ __ . . _
 72
65
 73
8
 40
36.0
 49
12.0
 74
0
 49
-3.0
 74
0
 49
12.0
 74
0
 49
-3.0
 74
0
 49
0.0
 74
0
 49
-3.0
 74
0
 49
0.0
 74
0
 49
-3.0
 74
0
  0
LTYPE
  5
3E
100
AcDbSymbolTableRecord
100
AcDbLinetypeTableRecord
  2
ACAD_ISO08W100
 70
0
  3
ISO long-dash short-dash ____ __ ____ __ ____ _
 72
65
 73
4
 40
36.0
 49
24.0
 74
0
 49
-3.0
 74
0
 49
6.0
 74
0
 49
-3.0
 74
0
  0
LTYPE
  5
3F
100
AcDbSymbolTableRecord
100
AcDbLinetypeTableRecord
  2
ACAD_ISO04W100
 70
0
  3
ISO long-dash dot ____ . ____ . ____ . ____ . _
 72
65
 73
4
 40
30.0
 49
24.0
 74
0
 49
-3.0
 74
0
 49
0.0
 74
0
 49
-3.0
 74
0
  0
LTYPE
  5
40
100
AcDbSymbolTableRecord
100
AcDbLinetypeTableRecord
  2
HIDDEN2
 70
0
  3
Hidden (.5x) _ _ _ _ _ _ _ _ _ _ _ _ _ _ _ _ _ 
 72
65
 73
2
 40
4.7624999999999993
 49
3.1749999999999998
 74
0
 49
-1.5874999999999999
 74
0
  0
LTYPE
  5
41
100
AcDbSymbolTableRecord
100
AcDbLinetypeTableRecord
  2
ACAD_ISO05W100
 70
0
  3
ISO long-dash double-dot ____ .. ____ .. ____ . 
 72
65
 73
6
 40
33.0
 49
24.0
 74
0
 49
-3.0
 74
0
 49
0.0
 74
0
 49
-3.0
 74
0
 49
0.0
 74
0
 49
-3.0
 74
0
  0
LTYPE
  5
15
100
AcDbSymbolTableRecord
100
AcDbLinetypeTableRecord
  2
BYLAYER
 70
0
  3

 72
65
 73
0
 40
0.0
  0
LTYPE
  5
42
100
AcDbSymbolTableRecord
100
AcDbLinetypeTableRecord
  2
DASHDOT2
 70
0
  3
Dash dot (.5x) _._._._._._._._._._._._._._._.
 72
65
 73
4
 40
12.6999999999999993
 49
6.3499999999999996
 74
0
 49
-3.1749999999999998
 74
0
 49
0.0
 74
0
 49
-3.1749999999999998
 74
0
  0
LTYPE
  5
43
100
AcDbSymbolTableRecord
100
AcDbLinetypeTableRecord
  2
ACAD_ISO10W100
 70
0
  3
ISO dash dot __ . __ . __ . __ . __ . __ . __ . 
 72
65
 73
4
 40
18.0
 49
12.0
 74
0
 49
-3.0
 74
0
 49
0.0
 74
0
 49
-3.0
 74
0
  0
LTYPE
  5
44
100
AcDbSymbolTableRecord
100
AcDbLinetypeTableRecord
  2
DASHDOT
 70
0
  3
Dash Dot ____ _ ____ _
 72
65
 73
4
 40
2.0
 49
1.25
 74
0
 49
-0.25
 74
0
 49
0.25
 74
0
 49
-0.25
 74
0
  0
LTYPE
  5
45
100
AcDbSymbolTableRecord
100
AcDbLinetypeTableRecord
  2
DIVIDEX2
 70
0
  3
Divide (2x) ________  .  .  ________  .  .  _
 72
65
 73
6
 40
63.5
 49
25.3999999999999986
 74
0
 49
-12.6999999999999993
 74
0
 49
0.0
 74
0
 49
-12.6999999999999993
 74
0
 49
0.0
 74
0
 49
-12.6999999999999993
 74
0
  0
LTYPE
  5
46
100
AcDbSymbolTableRecord
100
AcDbLinetypeTableRecord
  2
DASHEDX2
 70
0
  3
Dashed (2x) ____  ____  ____  ____  ____  ___
 72
65
 73
2
 40
38.0999999999999943
 49
25.3999999999999986
 74
0
 49
-12.6999999999999993
 74
0
  0
LTYPE
  5
47
100
AcDbSymbolTableRecord
100
AcDbLinetypeTableRecord
  2
BORDERX2
 70
0
  3
Border (2x) ____  ____  .  ____  ____  .  ___
 72
65
 73
6
 40
88.8999999999999915
 49
25.3999999999999986
 74
0
 49
-12.6999999999999993
 74
0
 49
25.3999999999999986
 74
0
 49
-12.6999999999999993
 74
0
 49
0.0
 74
0
 49
-12.6999999999999993
 74
0
  0
LTYPE
  5
48
100
AcDbSymbolTableRecord
100
AcDbLinetypeTableRecord
  2
DIVIDE2
 70
0
  3
Divide (.5x) __..__..__..__..__..__..__..__.._
 72
65
 73
6
 40
15.875
 49
6.3499999999999996
 74
0
 49
-3.1749999999999998
 74
0
 49
0.0
 74
0
 49
-3.1749999999999998
 74
0
 49
0.0
 74
0
 49
-3.1749999999999998
 74
0
  0
LTYPE
  5
49
100
AcDbSymbolTableRecord
100
AcDbLinetypeTableRecord
  2
BORDER2
 70
0
  3
Border (.5x) __.__.__.__.__.__.__.__.__.__.__.
 72
65
 73
6
 40
22.2249999999999979
 49
6.3499999999999996
 74
0
 49
-3.1749999999999998
 74
0
 49
6.3499999999999996
 74
0
 49
-3.1749999999999998
 74
0
 49
0.0
 74
0
 49
-3.1749999999999998
 74
0
  0
LTYPE
  5
4A
100
AcDbSymbolTableRecord
100
AcDbLinetypeTableRecord
  2
CENTER2
 70
0
  3
Center (.5x) ___ _ ___ _ ___ _ ___ _ ___ _ ___
 72
65
 73
4
 40
28.5750000000000028
 49
19.0500000000000007
 74
0
 49
-3.1749999999999998
 74
0
 49
3.1749999999999998
 74
0
 49
-3.1749999999999998
 74
0
  0
LTYPE
  5
14
100
AcDbSymbolTableRecord
100
AcDbLinetypeTableRecord
  2
BYBLOCK
 70
0
  3

 72
65
 73
0
 40
0.0
  0
LTYPE
  5
4B
100
AcDbSymbolTableRecord
100
AcDbLinetypeTableRecord
  2
CENTERX2
 70
0
  3
Center (2x) ________  __  ________  __  _____
 72
65
 73
4
 40
101.6000000000000085
 49
63.5
 74
0
 49
-12.6999999999999993
 74
0
 49
12.6999999999999993
 74
0
 49
-12.6999999999999993
 74
0
  0
LTYPE
  5
4C
100
AcDbSymbolTableRecord
100
AcDbLinetypeTableRecord
  2
HIDDEN
 70
0
  3
Hidden __ __ __ __ __ __ __ __ __ __ __ __ __ __
 72
65
 73
2
 40
9.5249999999999986
 49
6.3499999999999996
 74
0
 49
-3.1749999999999998
 74
0
  0
LTYPE
  5
4D
100
AcDbSymbolTableRecord
100
AcDbLinetypeTableRecord
  2
DASHED2
 70
0
  3
Dashed (.5x) _ _ _ _ _ _ _ _ _ _ _ _ _ _ _ _ _ 
 72
65
 73
2
 40
9.5249999999999986
 49
6.3499999999999996
 74
0
 49
-3.1749999999999998
 74
0
  0
LTYPE
  5
4E
100
AcDbSymbolTableRecord
100
AcDbLinetypeTableRecord
  2
DOT2
 70
0
  3
Dot (.5x) ........................................
 72
65
 73
2
 40
3.1749999999999998
 49
0.0
 74
0
 49
-3.1749999999999998
 74
0
  0
LTYPE
  5
4F
100
AcDbSymbolTableRecord
100
AcDbLinetypeTableRecord
  2
DOTX2
 70
0
  3
Dot (2x) .  .  .  .  .  .  .  .  .  .  .  .  .  .
 72
65
 73
2
 40
12.6999999999999993
 49
0.0
 74
0
 49
-12.6999999999999993
 74
0
  0
LTYPE
  5
50
100
AcDbSymbolTableRecord
100
AcDbLinetypeTableRecord
  2
ACAD_ISO14W100
 70
0
  3
ISO dash triple-dot __ . . . __ . . . __ . . . _
 72
65
 73
8
 40
24.0
 49
12.0
 74
0
 49
-3.0
 74
0
 49
0.0
 74
0
 49
-3.0
 74
0
 49
0.0
 74
0
 49
-3.0
 74
0
 49
0.0
 74
0
 49
-3.0
 74
0
  0
LTYPE
  5
51
100
AcDbSymbolTableRecord
100
AcDbLinetypeTableRecord
  2
PHANTOM
 70
0
  3
Phantom ______  __  __  ______  __  __  ______ 
 72
65
 73
6
 40
63.5000000000000071
 49
31.75
 74
0
 49
-6.3499999999999996
 74
0
 49
6.3499999999999996
 74
0
 49
-6.3499999999999996
 74
0
 49
6.3499999999999996
 74
0
 49
-6.3499999999999996
 74
0
  0
LTYPE
  5
52
100
AcDbSymbolTableRecord
100
AcDbLinetypeTableRecord
  2
PHANTOM2
 70
0
  3
Phantom (.5x) ___ _ _ ___ _ _ ___ _ _ ___ _ _
 72
65
 73
6
 40
31.7500000000000036
 49
15.875
 74
0
 49
-3.1749999999999998
 74
0
 49
3.1749999999999998
 74
0
 49
-3.1749999999999998
 74
0
 49
3.1749999999999998
 74
0
 49
-3.1749999999999998
 74
0
  0
LTYPE
  5
53
100
AcDbSymbolTableRecord
100
AcDbLinetypeTableRecord
  2
ACAD_ISO11W100
 70
0
  3
ISO double-dash dot __ __ . __ __ . __ __ . __ _
 72
65
 73
6
 40
33.0
 49
12.0
 74
0
 49
-3.0
 74
0
 49
12.0
 74
0
 49
-3.0
 74
0
 49
0.0
 74
0
 49
-3.0
 74
0
  0
LTYPE
  5
54
100
AcDbSymbolTableRecord
100
AcDbLinetypeTableRecord
  2
PHANTOMX2
 70
0
  3
Phantom (2x) ____________    ____    ____   _
 72
65
 73
6
 40
127.0000000000000142
 49
63.5
 74
0
 49
-12.6999999999999993
 74
0
 49
12.6999999999999993
 74
0
 49
-12.6999999999999993
 74
0
 49
12.6999999999999993
 74
0
 49
-12.6999999999999993
 74
0
  0
LTYPE
  5
55
100
AcDbSymbolTableRecord
100
AcDbLinetypeTableRecord
  2
ACAD_ISO06W100
 70
0
  3
ISO long-dash triple-dot ____ ... ____ ... ____
 72
65
 73
8
 40
36.0
 49
24.0
 74
0
 49
-3.0
 74
0
 49
0.0
 74
0
 49
-3.0
 74
0
 49
0.0
 74
0
 49
-3.0
 74
0
 49
0.0
 74
0
 49
-3.0
 74
0
  0
LTYPE
  5
56
100
AcDbSymbolTableRecord
100
AcDbLinetypeTableRecord
  2
BORDER
 70
0
  3
Border __ __ . __ __ . __ __ . __ __ . __ __ .
 72
65
 73
6
 40
44.4499999999999957
 49
12.6999999999999993
 74
0
 49
-6.3499999999999996
 74
0
 49
12.6999999999999993
 74
0
 49
-6.3499999999999996
 74
0
 49
0.0
 74
0
 49
-6.3499999999999996
 74
0
  0
LTYPE
  5
57
100
AcDbSymbolTableRecord
100
AcDbLinetypeTableRecord
  2
DIVIDE
 70
0
  3
Divide ____ . . ____ . . ____ . . ____ . . ____
 72
65
 73
6
 40
31.75
 49
12.6999999999999993
 74
0
 49
-6.3499999999999996
 74
0
 49
0.0
 74
0
 49
-6.3499999999999996
 74
0
 49
0.0
 74
0
 49
-6.3499999999999996
 74
0
  0
ENDTAB
  0
TABLE
  2
LAYER
  5
2
100
AcDbSymbolTable
 70
2
  0
LAYER
  5
10
100
AcDbSymbolTableRecord
100
AcDbLayerTableRecord
  2
0
 70
0
 62
7
420
16777215
  6
CONTINUOUS
370
25
390
F
  0
LAYER
  5
58
100
AcDbSymbolTableRecord
100
AcDbLayerTableRecord
  2
BLACK
 70
0
 62
7
420
16777215
  6
CONTINUOUS
370
5
390
F
  0
ENDTAB
  0
TABLE
  2
STYLE
  5
3
100
AcDbSymbolTable
 70
1
  0
STYLE
  5
59
100
AcDbSymbolTableRecord
100
AcDbTextStyleTableRecord
  2
Standard
 70
0
 40
0.0
 41
1.0
 50
0.0
 71
0
 42
2.5
  3

  4

1001
ACAD
1000
txt
1071
0
  0
ENDTAB
  0
TABLE
  2
VIEW
  5
6
100
AcDbSymbolTable
 70
0
  0
ENDTAB
  0
TABLE
  2
UCS
  5
7
100
AcDbSymbolTable
 70
0
  0
ENDTAB
  0
TABLE
  2
APPID
  5
9
100
AcDbSymbolTable
 70
1
  0
APPID
  5
12
100
AcDbSymbolTableRecord
100
AcDbRegAppTableRecord
  2
ACAD
 70
0
  0
APPID
  5
5A
100
AcDbSymbolTableRecord
100
AcDbRegAppTableRecord
  2
QCAD
 70
0
  0
ENDTAB
  0
TABLE
  2
DIMSTYLE
  5
A
100
AcDbSymbolTable
 70
1
100
AcDbDimStyleTable
 71
0
  0
DIMSTYLE
105
27
100
AcDbSymbolTableRecord
100
AcDbDimStyleTableRecord
  2
Standard
 41
0.18
 42
0.0625
 43
3.75
 44
0.18
 70
0
 73
0
 74
0
 77
0
 78
8
140
0.18
141
2.5
143
0.03937007874016
147
0.09
171
3
172
1
271
2
272
2
274
3
278
44
283
0
284
8
340
59
  0
ENDTAB
  0
TABLE
  2
BLOCK_RECORD
  5
1
100
AcDbSymbolTable
 70
1
  0
BLOCK_RECORD
  5
1F
100
AcDbSymbolTableRecord
100
AcDbBlockTableRecord
  2
*Model_Space
340
22
  0
BLOCK_RECORD
  5
1B
100
AcDbSymbolTableRecord
100
AcDbBlockTableRecord
  2
*Paper_Space
340
1E
  0
BLOCK_RECORD
  5
23
100
AcDbSymbolTableRecord
100
AcDbBlockTableRecord
  2
*Paper_Space0
340
26
  0
ENDTAB
  0
ENDSEC
  0
SECTION
  2
BLOCKS
  0
BLOCK
  5
20
100
AcDbEntity
  8
0
100
AcDbBlockBegin
  2
*Model_Space
 70
0
 10
0.0
 20
0.0
 30
0.0
  3
*Model_Space
  1

  0
ENDBLK
  5
21
100
AcDbEntity
  8
0
100
AcDbBlockEnd
  0
BLOCK
  5
1C
100
AcDbEntity
 67
1
  8
0
100
AcDbBlockBegin
  2
*Paper_Space
 70
0
 10
0.0
 20
0.0
 30
0.0
  3
*Paper_Space
  1

  0
ENDBLK
  5
1D
100
AcDbEntity
 67
1
  8
0
100
AcDbBlockEnd
  0
BLOCK
  5
24
100
AcDbEntity
  8
0
100
AcDbBlockBegin
  2
*Paper_Space0
 70
0
 10
0.0
 20
0.0
 30
0.0
  3
*Paper_Space0
  1

  0
ENDBLK
  5
25
100
AcDbEntity
  8
0
100
AcDbBlockEnd
  0
ENDSEC
  0
SECTION
  2
ENTITIES
  0
LINE
  5
5B
100
AcDbEntity
  8
BLACK
 62
256
370
-1
 48
1.0
  6
CONTINUOUS
100
AcDbLine
 10
7.9133858267716537
 20
-3.0620078740157481
 30
0.0
 11
8.4606299212598426
 21
-3.0620078740157481
 31
0.0
  0
LINE
  5
5C
100
AcDbEntity
  8
BLACK
 62
256
370
-1
 48
1.0
  6
CONTINUOUS
100
AcDbLine
 10
8.4606299212598426
 20
-3.0620078740157481
 30
0.0
 11
8.8740157480314963
 21
-3.0620078740157481
 31
0.0
  0
LINE
  5
5D
100
AcDbEntity
  8
BLACK
 62
256
370
-1
 48
1.0
  6
CONTINUOUS
100
AcDbLine
 10
8.8740157480314963
 20
-3.0620078740157481
 30
0.0
 11
8.8743924015748021
 21
-3.0620827952755905
 31
0.0
  0
LINE
  5
5E
100
AcDbEntity
  8
BLACK
 62
256
370
-1
 48
1.0
  6
CONTINUOUS
100
AcDbLine
 10
8.8743924015748021
 20
-3.0620827952755905
 30
0.0
 11
8.8749250787401568
 21
-3.0626154724409447
 31
0.0
  0
LINE
  5
5F
100
AcDbEntity
  8
BLACK
 62
256
370
-1
 48
1.0
  6
CONTINUOUS
100
AcDbLine
 10
8.8749250787401568
 20
-3.0626154724409447
 30
0.0
 11
8.875
 21
-3.0629921259842519
 31
0.0
  0
LINE
  5
60
100
AcDbEntity
  8
BLACK
 62
256
370
-1
 48
1.0
  6
CONTINUOUS
100
AcDbLine
 10
8.875
 20
-3.0629921259842519
 30
0.0
 11
8.875
 21
-3.0708661417322833
 31
0.0
  0
LINE
  5
61
100
AcDbEntity
  8
BLACK
 62
256
370
-1
 48
1.0
  6
CONTINUOUS
100
AcDbLine
 10
8.875
 20
-3.0708661417322833
 30
0.0
 11
8.875
 21
-3.8188976377952755
 31
0.0
  0
LINE
  5
62
100
AcDbEntity
  8
BLACK
 62
256
370
-1
 48
1.0
  6
CONTINUOUS
100
AcDbLine
 10
8.875
 20
-3.8188976377952755
 30
0.0
 11
8.875
 21
-3.8228346456692912
 31
0.0
  0
LINE
  5
63
100
AcDbEntity
  8
BLACK
 62
256
370
-1
 48
1.0
  6
CONTINUOUS
100
AcDbLine
 10
8.875
 20
-3.8228346456692912
 30
0.0
 11
8.875
 21
-3.8248031496062991
 31
0.0
  0
LINE
  5
64
100
AcDbEntity
  8
BLACK
 62
256
370
-1
 48
1.0
  6
CONTINUOUS
100
AcDbLine
 10
8.875
 20
-3.8248031496062991
 30
0.0
 11
8.875
 21
-3.8346456692913384
 31
0.0
  0
LINE
  5
65
100
AcDbEntity
  8
BLACK
 62
256
370
-1
 48
1.0
  6
CONTINUOUS
100
AcDbLine
 10
8.875
 20
-3.8346456692913384
 30
0.0
 11
8.8749250787401568
 21
-3.8350223228346456
 31
0.0
  0
LINE
  5
66
100
AcDbEntity
  8
BLACK
 62
256
370
-1
 48
1.0
  6
CONTINUOUS
100
AcDbLine
 10
8.8749250787401568
 20
-3.8350223228346456
 30
0.0
 11
8.8743924015748021
 21
-3.8355549999999998
 31
0.0
  0
LINE
  5
67
100
AcDbEntity
  8
BLACK
 62
256
370
-1
 48
1.0
  6
CONTINUOUS
100
AcDbLine
 10
8.8743924015748021
 20
-3.8355549999999998
 30
0.0
 11
8.8740157480314963
 21
-3.8356299212598426
 31
0.0
  0
LINE
  5
68
100
AcDbEntity
  8
BLACK
 62
256
370
-1
 48
1.0
  6
CONTINUOUS
100
AcDbLine
 10
8.8740157480314963
 20
-3.8356299212598426
 30
0.0
 11
4.9447519685039367
 21
-3.8356299212598426
 31
0.0
  0
LINE
  5
69
100
AcDbEntity
  8
BLACK
 62
256
370
-1
 48
1.0
  6
CONTINUOUS
100
AcDbLine
 10
4.9447519685039367
 20
-3.8356299212598426
 30
0.0
 11
4.94437531496063
 21
-3.8355549999999998
 31
0.0
  0
LINE
  5
6A
100
AcDbEntity
  8
BLACK
 62
256
370
-1
 48
1.0
  6
CONTINUOUS
100
AcDbLine
 10
4.94437531496063
 20
-3.8355549999999998
 30
0.0
 11
4.9438426377952753
 21
-3.8350223228346456
 31
0.0
  0
LINE
  5
6B
100
AcDbEntity
  8
BLACK
 62
256
370
-1
 48
1.0
  6
CONTINUOUS
100
AcDbLine
 10
4.9438426377952753
 20
-3.8350223228346456
 30
0.0
 11
4.943767716535433
 21
-3.8346456692913384
 31
0.0
  0
LINE
  5
6C
100
AcDbEntity
  8
BLACK
 62
256
370
-1
 48
1.0
  6
CONTINUOUS
100
AcDbLine
 10
4.943767716535433
 20
-3.8346456692913384
 30
0.0
 11
4.943767716535433
 21
-3.8248031496062991
 31
0.0
  0
LINE
  5
6D
100
AcDbEntity
  8
BLACK
 62
256
370
-1
 48
1.0
  6
CONTINUOUS
100
AcDbLine
 10
4.943767716535433
 20
-3.8248031496062991
 30
0.0
 11
4.943767716535433
 21
-3.0629921259842519
 31
0.0
  0
LINE
  5
6E
100
AcDbEntity
  8
BLACK
 62
256
370
-1
 48
1.0
  6
CONTINUOUS
100
AcDbLine
 10
4.943767716535433
 20
-3.0629921259842519
 30
0.0
 11
4.9438426377952753
 21
-3.0626154724409447
 31
0.0
  0
LINE
  5
6F
100
AcDbEntity
  8
BLACK
 62
256
370
-1
 48
1.0
  6
CONTINUOUS
100
AcDbLine
 10
4.9438426377952753
 20
-3.0626154724409447
 30
0.0
 11
4.94437531496063
 21
-3.0620827952755905
 31
0.0
  0
LINE
  5
70
100
AcDbEntity
  8
BLACK
 62
256
370
-1
 48
1.0
  6
CONTINUOUS
100
AcDbLine
 10
4.94437531496063
 20
-3.0620827952755905
 30
0.0
 11
4.9447519685039367
 21
-3.0620078740157481
 31
0.0
  0
LINE
  5
71
100
AcDbEntity
  8
BLACK
 62
256
370
-1
 48
1.0
  6
CONTINUOUS
100
AcDbLine
 10
4.9447519685039367
 20
-3.0620078740157481
 30
0.0
 11
7.9133858267716537
 21
-3.0620078740157481
 31
0.0
  0
LINE
  5
72
100
AcDbEntity
  8
BLACK
 62
256
370
-1
 48
1.0
  6
CONTINUOUS
100
AcDbLine
 10
4.9457362204724404
 20
-3.063976377952756
 30
0.0
 11
4.9457362204724404
 21
-3.8248031496062991
 31
0.0
  0
LINE
  5
73
100
AcDbEntity
  8
BLACK
 62
256
370
-1
 48
1.0
  6
CONTINUOUS
100
AcDbLine
 10
4.9457362204724404
 20
-3.8248031496062991
 30
0.0
 11
4.9457362204724404
 21
-3.8336614173228347
 31
0.0
  0
LINE
  5
74
100
AcDbEntity
  8
BLACK
 62
256
370
-1
 48
1.0
  6
CONTINUOUS
100
AcDbLine
 10
4.9457362204724404
 20
-3.8336614173228347
 30
0.0
 11
8.8730314960629926
 21
-3.8336614173228347
 31
0.0
  0
LINE
  5
75
100
AcDbEntity
  8
BLACK
 62
256
370
-1
 48
1.0
  6
CONTINUOUS
100
AcDbLine
 10
8.8730314960629926
 20
-3.8336614173228347
 30
0.0
 11
8.8730314960629926
 21
-3.8248031496062991
 31
0.0
  0
LINE
  5
76
100
AcDbEntity
  8
BLACK
 62
256
370
-1
 48
1.0
  6
CONTINUOUS
100
AcDbLine
 10
8.8730314960629926
 20
-3.8248031496062991
 30
0.0
 11
8.8730314960629926
 21
-3.8228346456692912
 31
0.0
  0
LINE
  5
77
100
AcDbEntity
  8
BLACK
 62
256
370
-1
 48
1.0
  6
CONTINUOUS
100
AcDbLine
 10
8.8730314960629926
 20
-3.8228346456692912
 30
0.0
 11
8.8730314960629926
 21
-3.8188976377952755
 31
0.0
  0
LINE
  5
78
100
AcDbEntity
  8
BLACK
 62
256
370
-1
 48
1.0
  6
CONTINUOUS
100
AcDbLine
 10
8.8730314960629926
 20
-3.8188976377952755
 30
0.0
 11
8.8730314960629926
 21
-3.0708661417322833
 31
0.0
  0
LINE
  5
79
100
AcDbEntity
  8
BLACK
 62
256
370
-1
 48
1.0
  6
CONTINUOUS
100
AcDbLine
 10
8.8730314960629926
 20
-3.0708661417322833
 30
0.0
 11
8.8730314960629926
 21
-3.063976377952756
 31
0.0
  0
LINE
  5
7A
100
AcDbEntity
  8
BLACK
 62
256
370
-1
 48
1.0
  6
CONTINUOUS
100
AcDbLine
 10
8.8730314960629926
 20
-3.063976377952756
 30
0.0
 11
8.4606299212598426
 21
-3.063976377952756
 31
0.0
  0
LINE
  5
7B
100
AcDbEntity
  8
BLACK
 62
256
370
-1
 48
1.0
  6
CONTINUOUS
100
AcDbLine
 10
8.4606299212598426
 20
-3.063976377952756
 30
0.0
 11
7.9133858267716537
 21
-3.063976377952756
 31
0.0
  0
LINE
  5
7C
100
AcDbEntity
  8
BLACK
 62
256
370
-1
 48
1.0
  6
CONTINUOUS
100
AcDbLine
 10
7.9133858267716537
 20
-3.063976377952756
 30
0.0
 11
4.9457362204724404
 21
-3.063976377952756
 31
0.0
  0
LINE
  5
7D
100
AcDbEntity
  8
BLACK
 62
256
370
-1
 48
1.0
  6
CONTINUOUS
100
AcDbLine
 10
5.1128713385826758
 20
-3.0783045275590544
 30
0.0
 11
5.1146727165354324
 21
-3.0803834251968496
 31
0.0
  0
LINE
  5
7E
100
AcDbEntity
  8
BLACK
 62
256
370
-1
 48
1.0
  6
CONTINUOUS
100
AcDbLine
 10
5.1146727165354324
 20
-3.0803834251968496
 30
0.0
 11
5.1150642125984245
 21
-3.0831061811023615
 31
0.0
  0
LINE
  5
7F
100
AcDbEntity
  8
BLACK
 62
256
370
-1
 48
1.0
  6
CONTINUOUS
100
AcDbLine
 10
5.1150642125984245
 20
-3.0831061811023615
 30
0.0
 11
5.1142911417322825
 21
-3.0851236614173221
 31
0.0
  0
LINE
  5
80
100
AcDbEntity
  8
BLACK
 62
256
370
-1
 48
1.0
  6
CONTINUOUS
100
AcDbLine
 10
5.1142911417322825
 20
-3.0851236614173221
 30
0.0
 11
5.1123870866141727
 21
-3.0879731889763771
 31
0.0
  0
LINE
  5
81
100
AcDbEntity
  8
BLACK
 62
256
370
-1
 48
1.0
  6
CONTINUOUS
100
AcDbLine
 10
5.1123870866141727
 20
-3.0879731889763771
 30
0.0
 11
5.112387047244094
 21
-3.0879732283464558
 31
0.0
  0
LINE
  5
82
100
AcDbEntity
  8
BLACK
 62
256
370
-1
 48
1.0
  6
CONTINUOUS
100
AcDbLine
 10
5.112387047244094
 20
-3.0879732283464558
 30
0.0
 11
5.1119291338582666
 21
-3.0902754724409442
 31
0.0
  0
LINE
  5
83
100
AcDbEntity
  8
BLACK
 62
256
370
-1
 48
1.0
  6
CONTINUOUS
100
AcDbLine
 10
5.1119291338582666
 20
-3.0902754724409442
 30
0.0
 11
5.1119291338582666
 21
-3.1312008661417314
 31
0.0
  0
LINE
  5
84
100
AcDbEntity
  8
BLACK
 62
256
370
-1
 48
1.0
  6
CONTINUOUS
100
AcDbLine
 10
5.1119291338582666
 20
-3.1312008661417314
 30
0.0
 11
5.112387047244094
 21
-3.1335031102362199
 31
0.0
  0
LINE
  5
85
100
AcDbEntity
  8
BLACK
 62
256
370
-1
 48
1.0
  6
CONTINUOUS
100
AcDbLine
 10
5.112387047244094
 20
-3.1335031102362199
 30
0.0
 11
5.1123870866141727
 21
-3.1335031496062986
 31
0.0
  0
LINE
  5
86
100
AcDbEntity
  8
BLACK
 62
256
370
-1
 48
1.0
  6
CONTINUOUS
100
AcDbLine
 10
5.1123870866141727
 20
-3.1335031496062986
 30
0.0
 11
5.1141317716535424
 21
-3.1361142519685035
 31
0.0
  0
LINE
  5
87
100
AcDbEntity
  8
BLACK
 62
256
370
-1
 48
1.0
  6
CONTINUOUS
100
AcDbLine
 10
5.1141317716535424
 20
-3.1361142519685035
 30
0.0
 11
5.1167428740157472
 21
-3.1378589370078735
 31
0.0
  0
LINE
  5
88
100
AcDbEntity
  8
BLACK
 62
256
370
-1
 48
1.0
  6
CONTINUOUS
100
AcDbLine
 10
5.1167428740157472
 20
-3.1378589370078735
 30
0.0
 11
5.116742913385826
 21
-3.1378589763779519
 31
0.0
  0
LINE
  5
89
100
AcDbEntity
  8
BLACK
 62
256
370
-1
 48
1.0
  6
CONTINUOUS
100
AcDbLine
 10
5.116742913385826
 20
-3.1378589763779519
 30
0.0
 11
5.119045157480314
 21
-3.1383168897637788
 31
0.0
  0
LINE
  5
8A
100
AcDbEntity
  8
BLACK
 62
256
370
-1
 48
1.0
  6
CONTINUOUS
100
AcDbLine
 10
5.119045157480314
 20
-3.1383168897637788
 30
0.0
 11
5.1190452755905502
 21
-3.1383169291338575
 31
0.0
  0
LINE
  5
8B
100
AcDbEntity
  8
BLACK
 62
256
370
-1
 48
1.0
  6
CONTINUOUS
100
AcDbLine
 10
5.1190452755905502
 20
-3.1383169291338575
 30
0.0
 11
5.1190453543307077
 21
-3.1383169291338575
 31
0.0
  0
LINE
  5
8C
100
AcDbEntity
  8
BLACK
 62
256
370
-1
 48
1.0
  6
CONTINUOUS
100
AcDbLine
 10
5.1190453543307077
 20
-3.1383169291338575
 30
0.0
 11
5.1599704724409436
 21
-3.1383169291338575
 31
0.0
  0
LINE
  5
8D
100
AcDbEntity
  8
BLACK
 62
256
370
-1
 48
1.0
  6
CONTINUOUS
100
AcDbLine
 10
5.1599704724409436
 20
-3.1383169291338575
 30
0.0
 11
5.1599705118110224
 21
-3.1383168897637788
 31
0.0
  0
LINE
  5
8E
100
AcDbEntity
  8
BLACK
 62
256
370
-1
 48
1.0
  6
CONTINUOUS
100
AcDbLine
 10
5.1599705118110224
 20
-3.1383168897637788
 30
0.0
 11
5.1605538582677157
 21
-3.1382008661417315
 31
0.0
  0
LINE
  5
8F
100
AcDbEntity
  8
BLACK
 62
256
370
-1
 48
1.0
  6
CONTINUOUS
100
AcDbLine
 10
5.1605538582677157
 20
-3.1382008661417315
 30
0.0
 11
5.16227279527559
 21
-3.1378589763779519
 31
0.0
  0
LINE
  5
90
100
AcDbEntity
  8
BLACK
 62
256
370
-1
 48
1.0
  6
CONTINUOUS
100
AcDbLine
 10
5.16227279527559
 20
-3.1378589763779519
 30
0.0
 11
5.16227279527559
 21
-3.1378589370078735
 31
0.0
  0
LINE
  5
91
100
AcDbEntity
  8
BLACK
 62
256
370
-1
 48
1.0
  6
CONTINUOUS
100
AcDbLine
 10
5.16227279527559
 20
-3.1378589370078735
 30
0.0
 11
5.1622728740157475
 21
-3.1378589370078735
 31
0.0
  0
LINE
  5
92
100
AcDbEntity
  8
BLACK
 62
256
370
-1
 48
1.0
  6
CONTINUOUS
100
AcDbLine
 10
5.1622728740157475
 20
-3.1378589370078735
 30
0.0
 11
5.1648839370078727
 21
-3.1361142519685035
 31
0.0
  0
LINE
  5
93
100
AcDbEntity
  8
BLACK
 62
256
370
-1
 48
1.0
  6
CONTINUOUS
100
AcDbLine
 10
5.1648839370078727
 20
-3.1361142519685035
 30
0.0
 11
5.1666286220472433
 21
-3.1335031889763774
 31
0.0
  0
LINE
  5
94
100
AcDbEntity
  8
BLACK
 62
256
370
-1
 48
1.0
  6
CONTINUOUS
100
AcDbLine
 10
5.1666286220472433
 20
-3.1335031889763774
 30
0.0
 11
5.1666286220472433
 21
-3.1335031102362199
 31
0.0
  0
LINE
  5
95
100
AcDbEntity
  8
BLACK
 62
256
370
-1
 48
1.0
  6
CONTINUOUS
100
AcDbLine
 10
5.1666286220472433
 20
-3.1335031102362199
 30
0.0
 11
5.166628661417322
 21
-3.1335031102362199
 31
0.0
  0
LINE
  5
96
100
AcDbEntity
  8
BLACK
 62
256
370
-1
 48
1.0
  6
CONTINUOUS
100
AcDbLine
 10
5.166628661417322
 20
-3.1335031102362199
 30
0.0
 11
5.1670865748031485
 21
-3.1312008661417314
 31
0.0
  0
LINE
  5
97
100
AcDbEntity
  8
BLACK
 62
256
370
-1
 48
1.0
  6
CONTINUOUS
100
AcDbLine
 10
5.1670865748031485
 20
-3.1312008661417314
 30
0.0
 11
5.1670866141732272
 21
-3.1312007874015739
 31
0.0
  0
LINE
  5
98
100
AcDbEntity
  8
BLACK
 62
256
370
-1
 48
1.0
  6
CONTINUOUS
100
AcDbLine
 10
5.1670866141732272
 20
-3.1312007874015739
 30
0.0
 11
5.1670866141732272
 21
-3.0902755511811018
 31
0.0
  0
LINE
  5
99
100
AcDbEntity
  8
BLACK
 62
256
370
-1
 48
1.0
  6
CONTINUOUS
100
AcDbLine
 10
5.1670866141732272
 20
-3.0902755511811018
 30
0.0
 11
5.1670865748031485
 21
-3.0902754724409442
 31
0.0
  0
LINE
  5
9A
100
AcDbEntity
  8
BLACK
 62
256
370
-1
 48
1.0
  6
CONTINUOUS
100
AcDbLine
 10
5.1670865748031485
 20
-3.0902754724409442
 30
0.0
 11
5.166628661417322
 21
-3.0879732283464558
 31
0.0
  0
LINE
  5
9B
100
AcDbEntity
  8
BLACK
 62
256
370
-1
 48
1.0
  6
CONTINUOUS
100
AcDbLine
 10
5.166628661417322
 20
-3.0879732283464558
 30
0.0
 11
5.1666286220472433
 21
-3.0879731889763771
 31
0.0
  0
LINE
  5
9C
100
AcDbEntity
  8
BLACK
 62
256
370
-1
 48
1.0
  6
CONTINUOUS
100
AcDbLine
 10
5.1666286220472433
 20
-3.0879731889763771
 30
0.0
 11
5.1647246062992114
 21
-3.0851236614173221
 31
0.0
  0
LINE
  5
9D
100
AcDbEntity
  8
BLACK
 62
256
370
-1
 48
1.0
  6
CONTINUOUS
100
AcDbLine
 10
5.1647246062992114
 20
-3.0851236614173221
 30
0.0
 11
5.1639026377952746
 21
-3.0824985826771645
 31
0.0
  0
LINE
  5
9E
100
AcDbEntity
  8
BLACK
 62
256
370
-1
 48
1.0
  6
CONTINUOUS
100
AcDbLine
 10
5.1639026377952746
 20
-3.0824985826771645
 30
0.0
 11
5.1646303543307077
 21
-3.0798458267716526
 31
0.0
  0
LINE
  5
9F
100
AcDbEntity
  8
BLACK
 62
256
370
-1
 48
1.0
  6
CONTINUOUS
100
AcDbLine
 10
5.1646303543307077
 20
-3.0798458267716526
 30
0.0
 11
5.1666767716535427
 21
-3.078007598425196
 31
0.0
  0
LINE
  5
A0
100
AcDbEntity
  8
BLACK
 62
256
370
-1
 48
1.0
  6
CONTINUOUS
100
AcDbLine
 10
5.1666767716535427
 20
-3.078007598425196
 30
0.0
 11
5.1687837401574797
 21
-3.0775295275590544
 31
0.0
  0
LINE
  5
A1
100
AcDbEntity
  8
BLACK
 62
256
370
-1
 48
1.0
  6
CONTINUOUS
100
AcDbLine
 10
5.1687837401574797
 20
-3.0775295275590544
 30
0.0
 11
5.1902320078740152
 21
-3.0775295275590544
 31
0.0
  0
LINE
  5
A2
100
AcDbEntity
  8
BLACK
 62
256
370
-1
 48
1.0
  6
CONTINUOUS
100
AcDbLine
 10
5.1902320078740152
 20
-3.0775295275590544
 30
0.0
 11
5.1928713385826759
 21
-3.0783045275590544
 31
0.0
  0
LINE
  5
A3
100
AcDbEntity
  8
BLACK
 62
256
370
-1
 48
1.0
  6
CONTINUOUS
100
AcDbLine
 10
5.1928713385826759
 20
-3.0783045275590544
 30
0.0
 11
5.1946727165354325
 21
-3.0803834251968496
 31
0.0
  0
LINE
  5
A4
100
AcDbEntity
  8
BLACK
 62
256
370
-1
 48
1.0
  6
CONTINUOUS
100
AcDbLine
 10
5.1946727165354325
 20
-3.0803834251968496
 30
0.0
 11
5.1950642125984245
 21
-3.0831061811023615
 31
0.0
  0
LINE
  5
A5
100
AcDbEntity
  8
BLACK
 62
256
370
-1
 48
1.0
  6
CONTINUOUS
100
AcDbLine
 10
5.1950642125984245
 20
-3.0831061811023615
 30
0.0
 11
5.1942911417322826
 21
-3.0851236614173221
 31
0.0
  0
LINE
  5
A6
100
AcDbEntity
  8
BLACK
 62
256
370
-1
 48
1.0
  6
CONTINUOUS
100
AcDbLine
 10
5.1942911417322826
 20
-3.0851236614173221
 30
0.0
 11
5.1923870866141719
 21
-3.0879731889763771
 31
0.0
  0
LINE
  5
A7
100
AcDbEntity
  8
BLACK
 62
256
370
-1
 48
1.0
  6
CONTINUOUS
100
AcDbLine
 10
5.1923870866141719
 20
-3.0879731889763771
 30
0.0
 11
5.1923870472440932
 21
-3.0879732283464558
 31
0.0
  0
LINE
  5
A8
100
AcDbEntity
  8
BLACK
 62
256
370
-1
 48
1.0
  6
CONTINUOUS
100
AcDbLine
 10
5.1923870472440932
 20
-3.0879732283464558
 30
0.0
 11
5.1919291338582667
 21
-3.0902754724409442
 31
0.0
  0
LINE
  5
A9
100
AcDbEntity
  8
BLACK
 62
256
370
-1
 48
1.0
  6
CONTINUOUS
100
AcDbLine
 10
5.1919291338582667
 20
-3.0902754724409442
 30
0.0
 11
5.1919291338582667
 21
-3.1312008661417314
 31
0.0
  0
LINE
  5
AA
100
AcDbEntity
  8
BLACK
 62
256
370
-1
 48
1.0
  6
CONTINUOUS
100
AcDbLine
 10
5.1919291338582667
 20
-3.1312008661417314
 30
0.0
 11
5.1923870472440932
 21
-3.1335031102362199
 31
0.0
  0
LINE
  5
AB
100
AcDbEntity
  8
BLACK
 62
256
370
-1
 48
1.0
  6
CONTINUOUS
100
AcDbLine
 10
5.1923870472440932
 20
-3.1335031102362199
 30
0.0
 11
5.1923870866141719
 21
-3.1335031496062986
 31
0.0
  0
LINE
  5
AC
100
AcDbEntity
  8
BLACK
 62
256
370
-1
 48
1.0
  6
CONTINUOUS
100
AcDbLine
 10
5.1923870866141719
 20
-3.1335031496062986
 30
0.0
 11
5.1941317716535425
 21
-3.1361142519685035
 31
0.0
  0
LINE
  5
AD
100
AcDbEntity
  8
BLACK
 62
256
370
-1
 48
1.0
  6
CONTINUOUS
100
AcDbLine
 10
5.1941317716535425
 20
-3.1361142519685035
 30
0.0
 11
5.1967428740157473
 21
-3.1378589370078735
 31
0.0
  0
LINE
  5
AE
100
AcDbEntity
  8
BLACK
 62
256
370
-1
 48
1.0
  6
CONTINUOUS
100
AcDbLine
 10
5.1967428740157473
 20
-3.1378589370078735
 30
0.0
 11
5.1967429133858261
 21
-3.1378589763779519
 31
0.0
  0
LINE
  5
AF
100
AcDbEntity
  8
BLACK
 62
256
370
-1
 48
1.0
  6
CONTINUOUS
100
AcDbLine
 10
5.1967429133858261
 20
-3.1378589763779519
 30
0.0
 11
5.199045157480314
 21
-3.1383168897637788
 31
0.0
  0
LINE
  5
B0
100
AcDbEntity
  8
BLACK
 62
256
370
-1
 48
1.0
  6
CONTINUOUS
100
AcDbLine
 10
5.199045157480314
 20
-3.1383168897637788
 30
0.0
 11
5.1990452755905503
 21
-3.1383169291338575
 31
0.0
  0
LINE
  5
B1
100
AcDbEntity
  8
BLACK
 62
256
370
-1
 48
1.0
  6
CONTINUOUS
100
AcDbLine
 10
5.1990452755905503
 20
-3.1383169291338575
 30
0.0
 11
5.1990453543307078
 21
-3.1383169291338575
 31
0.0
  0
LINE
  5
B2
100
AcDbEntity
  8
BLACK
 62
256
370
-1
 48
1.0
  6
CONTINUOUS
100
AcDbLine
 10
5.1990453543307078
 20
-3.1383169291338575
 30
0.0
 11
5.2399704724409437
 21
-3.1383169291338575
 31
0.0
  0
LINE
  5
B3
100
AcDbEntity
  8
BLACK
 62
256
370
-1
 48
1.0
  6
CONTINUOUS
100
AcDbLine
 10
5.2399704724409437
 20
-3.1383169291338575
 30
0.0
 11
5.2399705118110225
 21
-3.1383168897637788
 31
0.0
  0
LINE
  5
B4
100
AcDbEntity
  8
BLACK
 62
256
370
-1
 48
1.0
  6
CONTINUOUS
100
AcDbLine
 10
5.2399705118110225
 20
-3.1383168897637788
 30
0.0
 11
5.2405538582677158
 21
-3.1382008661417315
 31
0.0
  0
LINE
  5
B5
100
AcDbEntity
  8
BLACK
 62
256
370
-1
 48
1.0
  6
CONTINUOUS
100
AcDbLine
 10
5.2405538582677158
 20
-3.1382008661417315
 30
0.0
 11
5.2422727952755901
 21
-3.1378589763779519
 31
0.0
  0
LINE
  5
B6
100
AcDbEntity
  8
BLACK
 62
256
370
-1
 48
1.0
  6
CONTINUOUS
100
AcDbLine
 10
5.2422727952755901
 20
-3.1378589763779519
 30
0.0
 11
5.2422727952755901
 21
-3.1378589370078735
 31
0.0
  0
LINE
  5
B7
100
AcDbEntity
  8
BLACK
 62
256
370
-1
 48
1.0
  6
CONTINUOUS
100
AcDbLine
 10
5.2422727952755901
 20
-3.1378589370078735
 30
0.0
 11
5.2422728740157467
 21
-3.1378589370078735
 31
0.0
  0
LINE
  5
B8
100
AcDbEntity
  8
BLACK
 62
256
370
-1
 48
1.0
  6
CONTINUOUS
100
AcDbLine
 10
5.2422728740157467
 20
-3.1378589370078735
 30
0.0
 11
5.2448839370078728
 21
-3.1361142519685035
 31
0.0
  0
LINE
  5
B9
100
AcDbEntity
  8
BLACK
 62
256
370
-1
 48
1.0
  6
CONTINUOUS
100
AcDbLine
 10
5.2448839370078728
 20
-3.1361142519685035
 30
0.0
 11
5.2466286220472433
 21
-3.1335031889763774
 31
0.0
  0
LINE
  5
BA
100
AcDbEntity
  8
BLACK
 62
256
370
-1
 48
1.0
  6
CONTINUOUS
100
AcDbLine
 10
5.2466286220472433
 20
-3.1335031889763774
 30
0.0
 11
5.2466286220472433
 21
-3.1335031102362199
 31
0.0
  0
LINE
  5
BB
100
AcDbEntity
  8
BLACK
 62
256
370
-1
 48
1.0
  6
CONTINUOUS
100
AcDbLine
 10
5.2466286220472433
 20
-3.1335031102362199
 30
0.0
 11
5.2466286614173221
 21
-3.1335031102362199
 31
0.0
  0
LINE
  5
BC
100
AcDbEntity
  8
BLACK
 62
256
370
-1
 48
1.0
  6
CONTINUOUS
100
AcDbLine
 10
5.2466286614173221
 20
-3.1335031102362199
 30
0.0
 11
5.2470865748031486
 21
-3.1312008661417314
 31
0.0
  0
LINE
  5
BD
100
AcDbEntity
  8
BLACK
 62
256
370
-1
 48
1.0
  6
CONTINUOUS
100
AcDbLine
 10
5.2470865748031486
 20
-3.1312008661417314
 30
0.0
 11
5.2470866141732273
 21
-3.1312007874015739
 31
0.0
  0
LINE
  5
BE
100
AcDbEntity
  8
BLACK
 62
256
370
-1
 48
1.0
  6
CONTINUOUS
100
AcDbLine
 10
5.2470866141732273
 20
-3.1312007874015739
 30
0.0
 11
5.2470866141732273
 21
-3.0902755511811018
 31
0.0
  0
LINE
  5
BF
100
AcDbEntity
  8
BLACK
 62
256
370
-1
 48
1.0
  6
CONTINUOUS
100
AcDbLine
 10
5.2470866141732273
 20
-3.0902755511811018
 30
0.0
 11
5.2470865748031486
 21
-3.0902754724409442
 31
0.0
  0
LINE
  5
C0
100
AcDbEntity
  8
BLACK
 62
256
370
-1
 48
1.0
  6
CONTINUOUS
100
AcDbLine
 10
5.2470865748031486
 20
-3.0902754724409442
 30
0.0
 11
5.2466286614173221
 21
-3.0879732283464558
 31
0.0
  0
LINE
  5
C1
100
AcDbEntity
  8
BLACK
 62
256
370
-1
 48
1.0
  6
CONTINUOUS
100
AcDbLine
 10
5.2466286614173221
 20
-3.0879732283464558
 30
0.0
 11
5.2466286220472433
 21
-3.0879731889763771
 31
0.0
  0
LINE
  5
C2
100
AcDbEntity
  8
BLACK
 62
256
370
-1
 48
1.0
  6
CONTINUOUS
100
AcDbLine
 10
5.2466286220472433
 20
-3.0879731889763771
 30
0.0
 11
5.2447246062992114
 21
-3.0851236614173221
 31
0.0
  0
LINE
  5
C3
100
AcDbEntity
  8
BLACK
 62
256
370
-1
 48
1.0
  6
CONTINUOUS
100
AcDbLine
 10
5.2447246062992114
 20
-3.0851236614173221
 30
0.0
 11
5.2439026377952747
 21
-3.0824985826771645
 31
0.0
  0
LINE
  5
C4
100
AcDbEntity
  8
BLACK
 62
256
370
-1
 48
1.0
  6
CONTINUOUS
100
AcDbLine
 10
5.2439026377952747
 20
-3.0824985826771645
 30
0.0
 11
5.2446303543307078
 21
-3.0798458267716526
 31
0.0
  0
LINE
  5
C5
100
AcDbEntity
  8
BLACK
 62
256
370
-1
 48
1.0
  6
CONTINUOUS
100
AcDbLine
 10
5.2446303543307078
 20
-3.0798458267716526
 30
0.0
 11
5.2466767716535427
 21
-3.078007598425196
 31
0.0
  0
LINE
  5
C6
100
AcDbEntity
  8
BLACK
 62
256
370
-1
 48
1.0
  6
CONTINUOUS
100
AcDbLine
 10
5.2466767716535427
 20
-3.078007598425196
 30
0.0
 11
5.2487837401574797
 21
-3.0775295275590544
 31
0.0
  0
LINE
  5
C7
100
AcDbEntity
  8
BLACK
 62
256
370
-1
 48
1.0
  6
CONTINUOUS
100
AcDbLine
 10
5.2487837401574797
 20
-3.0775295275590544
 30
0.0
 11
5.2702320078740152
 21
-3.0775295275590544
 31
0.0
  0
LINE
  5
C8
100
AcDbEntity
  8
BLACK
 62
256
370
-1
 48
1.0
  6
CONTINUOUS
100
AcDbLine
 10
5.2702320078740152
 20
-3.0775295275590544
 30
0.0
 11
5.272871338582676
 21
-3.0783045275590544
 31
0.0
  0
LINE
  5
C9
100
AcDbEntity
  8
BLACK
 62
256
370
-1
 48
1.0
  6
CONTINUOUS
100
AcDbLine
 10
5.272871338582676
 20
-3.0783045275590544
 30
0.0
 11
5.2746727165354326
 21
-3.0803834251968496
 31
0.0
  0
LINE
  5
CA
100
AcDbEntity
  8
BLACK
 62
256
370
-1
 48
1.0
  6
CONTINUOUS
100
AcDbLine
 10
5.2746727165354326
 20
-3.0803834251968496
 30
0.0
 11
5.2750642125984246
 21
-3.0831061811023615
 31
0.0
  0
LINE
  5
CB
100
AcDbEntity
  8
BLACK
 62
256
370
-1
 48
1.0
  6
CONTINUOUS
100
AcDbLine
 10
5.2750642125984246
 20
-3.0831061811023615
 30
0.0
 11
5.2742911417322826
 21
-3.0851236614173221
 31
0.0
  0
LINE
  5
CC
100
AcDbEntity
  8
BLACK
 62
256
370
-1
 48
1.0
  6
CONTINUOUS
100
AcDbLine
 10
5.2742911417322826
 20
-3.0851236614173221
 30
0.0
 11
5.272387086614172
 21
-3.0879731889763771
 31
0.0
  0
LINE
  5
CD
100
AcDbEntity
  8
BLACK
 62
256
370
-1
 48
1.0
  6
CONTINUOUS
100
AcDbLine
 10
5.272387086614172
 20
-3.0879731889763771
 30
0.0
 11
5.2723870472440932
 21
-3.0879732283464558
 31
0.0
  0
LINE
  5
CE
100
AcDbEntity
  8
BLACK
 62
256
370
-1
 48
1.0
  6
CONTINUOUS
100
AcDbLine
 10
5.2723870472440932
 20
-3.0879732283464558
 30
0.0
 11
5.2719291338582668
 21
-3.0902754724409442
 31
0.0
  0
LINE
  5
CF
100
AcDbEntity
  8
BLACK
 62
256
370
-1
 48
1.0
  6
CONTINUOUS
100
AcDbLine
 10
5.2719291338582668
 20
-3.0902754724409442
 30
0.0
 11
5.2719291338582668
 21
-3.1312008661417314
 31
0.0
  0
LINE
  5
D0
100
AcDbEntity
  8
BLACK
 62
256
370
-1
 48
1.0
  6
CONTINUOUS
100
AcDbLine
 10
5.2719291338582668
 20
-3.1312008661417314
 30
0.0
 11
5.2723870472440932
 21
-3.1335031102362199
 31
0.0
  0
LINE
  5
D1
100
AcDbEntity
  8
BLACK
 62
256
370
-1
 48
1.0
  6
CONTINUOUS
100
AcDbLine
 10
5.2723870472440932
 20
-3.1335031102362199
 30
0.0
 11
5.272387086614172
 21
-3.1335031496062986
 31
0.0
  0
LINE
  5
D2
100
AcDbEntity
  8
BLACK
 62
256
370
-1
 48
1.0
  6
CONTINUOUS
100
AcDbLine
 10
5.272387086614172
 20
-3.1335031496062986
 30
0.0
 11
5.2741317716535425
 21
-3.1361142519685035
 31
0.0
  0
LINE
  5
D3
100
AcDbEntity
  8
BLACK
 62
256
370
-1
 48
1.0
  6
CONTINUOUS
100
AcDbLine
 10
5.2741317716535425
 20
-3.1361142519685035
 30
0.0
 11
5.2767428740157474
 21
-3.1378589370078735
 31
0.0
  0
LINE
  5
D4
100
AcDbEntity
  8
BLACK
 62
256
370
-1
 48
1.0
  6
CONTINUOUS
100
AcDbLine
 10
5.2767428740157474
 20
-3.1378589370078735
 30
0.0
 11
5.2767429133858261
 21
-3.1378589763779519
 31
0.0
  0
LINE
  5
D5
100
AcDbEntity
  8
BLACK
 62
256
370
-1
 48
1.0
  6
CONTINUOUS
100
AcDbLine
 10
5.2767429133858261
 20
-3.1378589763779519
 30
0.0
 11
5.2790451574803141
 21
-3.1383168897637788
 31
0.0
  0
LINE
  5
D6
100
AcDbEntity
  8
BLACK
 62
256
370
-1
 48
1.0
  6
CONTINUOUS
100
AcDbLine
 10
5.2790451574803141
 20
-3.1383168897637788
 30
0.0
 11
5.2790452755905504
 21
-3.1383169291338575
 31
0.0
  0
LINE
  5
D7
100
AcDbEntity
  8
BLACK
 62
256
370
-1
 48
1.0
  6
CONTINUOUS
100
AcDbLine
 10
5.2790452755905504
 20
-3.1383169291338575
 30
0.0
 11
5.2790453543307079
 21
-3.1383169291338575
 31
0.0
  0
LINE
  5
D8
100
AcDbEntity
  8
BLACK
 62
256
370
-1
 48
1.0
  6
CONTINUOUS
100
AcDbLine
 10
5.2790453543307079
 20
-3.1383169291338575
 30
0.0
 11
5.3199704724409438
 21
-3.1383169291338575
 31
0.0
  0
LINE
  5
D9
100
AcDbEntity
  8
BLACK
 62
256
370
-1
 48
1.0
  6
CONTINUOUS
100
AcDbLine
 10
5.3199704724409438
 20
-3.1383169291338575
 30
0.0
 11
5.3199705118110225
 21
-3.1383168897637788
 31
0.0
  0
LINE
  5
DA
100
AcDbEntity
  8
BLACK
 62
256
370
-1
 48
1.0
  6
CONTINUOUS
100
AcDbLine
 10
5.3199705118110225
 20
-3.1383168897637788
 30
0.0
 11
5.3205538582677159
 21
-3.1382008661417315
 31
0.0
  0
LINE
  5
DB
100
AcDbEntity
  8
BLACK
 62
256
370
-1
 48
1.0
  6
CONTINUOUS
100
AcDbLine
 10
5.3205538582677159
 20
-3.1382008661417315
 30
0.0
 11
5.3222727952755893
 21
-3.1378589763779519
 31
0.0
  0
LINE
  5
DC
100
AcDbEntity
  8
BLACK
 62
256
370
-1
 48
1.0
  6
CONTINUOUS
100
AcDbLine
 10
5.3222727952755893
 20
-3.1378589763779519
 30
0.0
 11
5.3222727952755893
 21
-3.1378589370078735
 31
0.0
  0
LINE
  5
DD
100
AcDbEntity
  8
BLACK
 62
256
370
-1
 48
1.0
  6
CONTINUOUS
100
AcDbLine
 10
5.3222727952755893
 20
-3.1378589370078735
 30
0.0
 11
5.3222728740157468
 21
-3.1378589370078735
 31
0.0
  0
LINE
  5
DE
100
AcDbEntity
  8
BLACK
 62
256
370
-1
 48
1.0
  6
CONTINUOUS
100
AcDbLine
 10
5.3222728740157468
 20
-3.1378589370078735
 30
0.0
 11
5.3248839370078729
 21
-3.1361142519685035
 31
0.0
  0
LINE
  5
DF
100
AcDbEntity
  8
BLACK
 62
256
370
-1
 48
1.0
  6
CONTINUOUS
100
AcDbLine
 10
5.3248839370078729
 20
-3.1361142519685035
 30
0.0
 11
5.3266286220472434
 21
-3.1335031889763774
 31
0.0
  0
LINE
  5
E0
100
AcDbEntity
  8
BLACK
 62
256
370
-1
 48
1.0
  6
CONTINUOUS
100
AcDbLine
 10
5.3266286220472434
 20
-3.1335031889763774
 30
0.0
 11
5.3266286220472434
 21
-3.1335031102362199
 31
0.0
  0
LINE
  5
E1
100
AcDbEntity
  8
BLACK
 62
256
370
-1
 48
1.0
  6
CONTINUOUS
100
AcDbLine
 10
5.3266286220472434
 20
-3.1335031102362199
 30
0.0
 11
5.3266286614173222
 21
-3.1335031102362199
 31
0.0
  0
LINE
  5
E2
100
AcDbEntity
  8
BLACK
 62
256
370
-1
 48
1.0
  6
CONTINUOUS
100
AcDbLine
 10
5.3266286614173222
 20
-3.1335031102362199
 30
0.0
 11
5.3270865748031486
 21
-3.1312008661417314
 31
0.0
  0
LINE
  5
E3
100
AcDbEntity
  8
BLACK
 62
256
370
-1
 48
1.0
  6
CONTINUOUS
100
AcDbLine
 10
5.3270865748031486
 20
-3.1312008661417314
 30
0.0
 11
5.3270866141732274
 21
-3.1312007874015739
 31
0.0
  0
LINE
  5
E4
100
AcDbEntity
  8
BLACK
 62
256
370
-1
 48
1.0
  6
CONTINUOUS
100
AcDbLine
 10
5.3270866141732274
 20
-3.1312007874015739
 30
0.0
 11
5.3270866141732274
 21
-3.0902755511811018
 31
0.0
  0
LINE
  5
E5
100
AcDbEntity
  8
BLACK
 62
256
370
-1
 48
1.0
  6
CONTINUOUS
100
AcDbLine
 10
5.3270866141732274
 20
-3.0902755511811018
 30
0.0
 11
5.3270865748031486
 21
-3.0902754724409442
 31
0.0
  0
LINE
  5
E6
100
AcDbEntity
  8
BLACK
 62
256
370
-1
 48
1.0
  6
CONTINUOUS
100
AcDbLine
 10
5.3270865748031486
 20
-3.0902754724409442
 30
0.0
 11
5.3266286614173222
 21
-3.0879732283464558
 31
0.0
  0
LINE
  5
E7
100
AcDbEntity
  8
BLACK
 62
256
370
-1
 48
1.0
  6
CONTINUOUS
100
AcDbLine
 10
5.3266286614173222
 20
-3.0879732283464558
 30
0.0
 11
5.3266286220472434
 21
-3.0879731889763771
 31
0.0
  0
LINE
  5
E8
100
AcDbEntity
  8
BLACK
 62
256
370
-1
 48
1.0
  6
CONTINUOUS
100
AcDbLine
 10
5.3266286220472434
 20
-3.0879731889763771
 30
0.0
 11
5.3247246062992115
 21
-3.0851236614173221
 31
0.0
  0
LINE
  5
E9
100
AcDbEntity
  8
BLACK
 62
256
370
-1
 48
1.0
  6
CONTINUOUS
100
AcDbLine
 10
5.3247246062992115
 20
-3.0851236614173221
 30
0.0
 11
5.3239026377952747
 21
-3.0824985826771645
 31
0.0
  0
LINE
  5
EA
100
AcDbEntity
  8
BLACK
 62
256
370
-1
 48
1.0
  6
CONTINUOUS
100
AcDbLine
 10
5.3239026377952747
 20
-3.0824985826771645
 30
0.0
 11
5.3246303543307079
 21
-3.0798458267716526
 31
0.0
  0
LINE
  5
EB
100
AcDbEntity
  8
BLACK
 62
256
370
-1
 48
1.0
  6
CONTINUOUS
100
AcDbLine
 10
5.3246303543307079
 20
-3.0798458267716526
 30
0.0
 11
5.3266767716535428
 21
-3.078007598425196
 31
0.0
  0
LINE
  5
EC
100
AcDbEntity
  8
BLACK
 62
256
370
-1
 48
1.0
  6
CONTINUOUS
100
AcDbLine
 10
5.3266767716535428
 20
-3.078007598425196
 30
0.0
 11
5.3287837401574798
 21
-3.0775295275590544
 31
0.0
  0
LINE
  5
ED
100
AcDbEntity
  8
BLACK
 62
256
370
-1
 48
1.0
  6
CONTINUOUS
100
AcDbLine
 10
5.3287837401574798
 20
-3.0775295275590544
 30
0.0
 11
5.3425003937007869
 21
-3.0775295275590544
 31
0.0
  0
LINE
  5
EE
100
AcDbEntity
  8
BLACK
 62
256
370
-1
 48
1.0
  6
CONTINUOUS
100
AcDbLine
 10
5.3425003937007869
 20
-3.0775295275590544
 30
0.0
 11
5.3451397244094476
 21
-3.0783045275590544
 31
0.0
  0
LINE
  5
EF
100
AcDbEntity
  8
BLACK
 62
256
370
-1
 48
1.0
  6
CONTINUOUS
100
AcDbLine
 10
5.3451397244094476
 20
-3.0783045275590544
 30
0.0
 11
5.3469411023622042
 21
-3.0803834251968496
 31
0.0
  0
LINE
  5
F0
100
AcDbEntity
  8
BLACK
 62
256
370
-1
 48
1.0
  6
CONTINUOUS
100
AcDbLine
 10
5.3469411023622042
 20
-3.0803834251968496
 30
0.0
 11
5.3473325984251963
 21
-3.0831061811023615
 31
0.0
  0
LINE
  5
F1
100
AcDbEntity
  8
BLACK
 62
256
370
-1
 48
1.0
  6
CONTINUOUS
100
AcDbLine
 10
5.3473325984251963
 20
-3.0831061811023615
 30
0.0
 11
5.3472012598425191
 21
-3.0835849212598418
 31
0.0
  0
LINE
  5
F2
100
AcDbEntity
  8
BLACK
 62
256
370
-1
 48
1.0
  6
CONTINUOUS
100
AcDbLine
 10
5.3472012598425191
 20
-3.0835849212598418
 30
0.0
 11
5.3466535433070854
 21
-3.0863384645669285
 31
0.0
  0
LINE
  5
F3
100
AcDbEntity
  8
BLACK
 62
256
370
-1
 48
1.0
  6
CONTINUOUS
100
AcDbLine
 10
5.3466535433070854
 20
-3.0863384645669285
 30
0.0
 11
5.3466535433070854
 21
-3.1351378740157472
 31
0.0
  0
LINE
  5
F4
100
AcDbEntity
  8
BLACK
 62
256
370
-1
 48
1.0
  6
CONTINUOUS
100
AcDbLine
 10
5.3466535433070854
 20
-3.1351378740157472
 30
0.0
 11
5.3471114566929128
 21
-3.1374401181102356
 31
0.0
  0
LINE
  5
F5
100
AcDbEntity
  8
BLACK
 62
256
370
-1
 48
1.0
  6
CONTINUOUS
100
AcDbLine
 10
5.3471114566929128
 20
-3.1374401181102356
 30
0.0
 11
5.3471114960629915
 21
-3.1374401574803144
 31
0.0
  0
LINE
  5
F6
100
AcDbEntity
  8
BLACK
 62
256
370
-1
 48
1.0
  6
CONTINUOUS
100
AcDbLine
 10
5.3471114960629915
 20
-3.1374401574803144
 30
0.0
 11
5.3488561811023612
 21
-3.1400512598425192
 31
0.0
  0
LINE
  5
F7
100
AcDbEntity
  8
BLACK
 62
256
370
-1
 48
1.0
  6
CONTINUOUS
100
AcDbLine
 10
5.3488561811023612
 20
-3.1400512598425192
 30
0.0
 11
5.351467283464566
 21
-3.1417959448818893
 31
0.0
  0
LINE
  5
F8
100
AcDbEntity
  8
BLACK
 62
256
370
-1
 48
1.0
  6
CONTINUOUS
100
AcDbLine
 10
5.351467283464566
 20
-3.1417959448818893
 30
0.0
 11
5.3514673228346448
 21
-3.1417959842519676
 31
0.0
  0
LINE
  5
F9
100
AcDbEntity
  8
BLACK
 62
256
370
-1
 48
1.0
  6
CONTINUOUS
100
AcDbLine
 10
5.3514673228346448
 20
-3.1417959842519676
 30
0.0
 11
5.3537695669291328
 21
-3.1422538976377945
 31
0.0
  0
LINE
  5
FA
100
AcDbEntity
  8
BLACK
 62
256
370
-1
 48
1.0
  6
CONTINUOUS
100
AcDbLine
 10
5.3537695669291328
 20
-3.1422538976377945
 30
0.0
 11
5.353769685039369
 21
-3.1422539370078733
 31
0.0
  0
LINE
  5
FB
100
AcDbEntity
  8
BLACK
 62
256
370
-1
 48
1.0
  6
CONTINUOUS
100
AcDbLine
 10
5.353769685039369
 20
-3.1422539370078733
 30
0.0
 11
5.3537697637795265
 21
-3.1422539370078733
 31
0.0
  0
LINE
  5
FC
100
AcDbEntity
  8
BLACK
 62
256
370
-1
 48
1.0
  6
CONTINUOUS
100
AcDbLine
 10
5.3537697637795265
 20
-3.1422539370078733
 30
0.0
 11
5.4025688976377948
 21
-3.1422539370078733
 31
0.0
  0
LINE
  5
FD
100
AcDbEntity
  8
BLACK
 62
256
370
-1
 48
1.0
  6
CONTINUOUS
100
AcDbLine
 10
5.4025688976377948
 20
-3.1422539370078733
 30
0.0
 11
5.4025689370078736
 21
-3.1422538976377945
 31
0.0
  0
LINE
  5
FE
100
AcDbEntity
  8
BLACK
 62
256
370
-1
 48
1.0
  6
CONTINUOUS
100
AcDbLine
 10
5.4025689370078736
 20
-3.1422538976377945
 30
0.0
 11
5.403152283464566
 21
-3.1421378740157473
 31
0.0
  0
LINE
  5
FF
100
AcDbEntity
  8
BLACK
 62
256
370
-1
 48
1.0
  6
CONTINUOUS
100
AcDbLine
 10
5.403152283464566
 20
-3.1421378740157473
 30
0.0
 11
5.4048712204724403
 21
-3.1417959842519676
 31
0.0
  0
LINE
  5
100
100
AcDbEntity
  8
BLACK
 62
256
370
-1
 48
1.0
  6
CONTINUOUS
100
AcDbLine
 10
5.4048712204724403
 20
-3.1417959842519676
 30
0.0
 11
5.4048712204724403
 21
-3.1417959448818893
 31
0.0
  0
LINE
  5
101
100
AcDbEntity
  8
BLACK
 62
256
370
-1
 48
1.0
  6
CONTINUOUS
100
AcDbLine
 10
5.4048712204724403
 20
-3.1417959448818893
 30
0.0
 11
5.4048712992125978
 21
-3.1417959448818893
 31
0.0
  0
LINE
  5
102
100
AcDbEntity
  8
BLACK
 62
256
370
-1
 48
1.0
  6
CONTINUOUS
100
AcDbLine
 10
5.4048712992125978
 20
-3.1417959448818893
 30
0.0
 11
5.4074823622047239
 21
-3.1400512598425192
 31
0.0
  0
LINE
  5
103
100
AcDbEntity
  8
BLACK
 62
256
370
-1
 48
1.0
  6
CONTINUOUS
100
AcDbLine
 10
5.4074823622047239
 20
-3.1400512598425192
 30
0.0
 11
5.4091490551181094
 21
-3.1375568503936999
 31
0.0
  0
LINE
  5
104
100
AcDbEntity
  8
BLACK
 62
256
370
-1
 48
1.0
  6
CONTINUOUS
100
AcDbLine
 10
5.4091490551181094
 20
-3.1375568503936999
 30
0.0
 11
5.4112596850393695
 21
-3.1357929527559048
 31
0.0
  0
LINE
  5
105
100
AcDbEntity
  8
BLACK
 62
256
370
-1
 48
1.0
  6
CONTINUOUS
100
AcDbLine
 10
5.4112596850393695
 20
-3.1357929527559048
 30
0.0
 11
5.4139890157480304
 21
-3.1354501574803142
 31
0.0
  0
LINE
  5
106
100
AcDbEntity
  8
BLACK
 62
256
370
-1
 48
1.0
  6
CONTINUOUS
100
AcDbLine
 10
5.4139890157480304
 20
-3.1354501574803142
 30
0.0
 11
5.4164704330708648
 21
-3.1366373228346451
 31
0.0
  0
LINE
  5
107
100
AcDbEntity
  8
BLACK
 62
256
370
-1
 48
1.0
  6
CONTINUOUS
100
AcDbLine
 10
5.4164704330708648
 20
-3.1366373228346451
 30
0.0
 11
5.4177822440944876
 21
-3.1385631102362197
 31
0.0
  0
LINE
  5
108
100
AcDbEntity
  8
BLACK
 62
256
370
-1
 48
1.0
  6
CONTINUOUS
100
AcDbLine
 10
5.4177822440944876
 20
-3.1385631102362197
 30
0.0
 11
5.4197695275590538
 21
-3.143891259842519
 31
0.0
  0
LINE
  5
109
100
AcDbEntity
  8
BLACK
 62
256
370
-1
 48
1.0
  6
CONTINUOUS
100
AcDbLine
 10
5.4197695275590538
 20
-3.143891259842519
 30
0.0
 11
5.4197696456692901
 21
-3.1438914566929128
 31
0.0
  0
LINE
  5
10A
100
AcDbEntity
  8
BLACK
 62
256
370
-1
 48
1.0
  6
CONTINUOUS
100
AcDbLine
 10
5.4197696456692901
 20
-3.1438914566929128
 30
0.0
 11
5.4231617716535423
 21
-3.1484227165354324
 31
0.0
  0
LINE
  5
10B
100
AcDbEntity
  8
BLACK
 62
256
370
-1
 48
1.0
  6
CONTINUOUS
100
AcDbLine
 10
5.4231617716535423
 20
-3.1484227165354324
 30
0.0
 11
5.4231618897637786
 21
-3.1484228346456686
 31
0.0
  0
LINE
  5
10C
100
AcDbEntity
  8
BLACK
 62
256
370
-1
 48
1.0
  6
CONTINUOUS
100
AcDbLine
 10
5.4231618897637786
 20
-3.1484228346456686
 30
0.0
 11
5.4276931496062986
 21
-3.1518149606299204
 31
0.0
  0
LINE
  5
10D
100
AcDbEntity
  8
BLACK
 62
256
370
-1
 48
1.0
  6
CONTINUOUS
100
AcDbLine
 10
5.4276931496062986
 20
-3.1518149606299204
 30
0.0
 11
5.4276934251968498
 21
-3.1518151181102354
 31
0.0
  0
LINE
  5
10E
100
AcDbEntity
  8
BLACK
 62
256
370
-1
 48
1.0
  6
CONTINUOUS
100
AcDbLine
 10
5.4276934251968498
 20
-3.1518151181102354
 30
0.0
 11
5.4329968503936996
 21
-3.1537931496062983
 31
0.0
  0
LINE
  5
10F
100
AcDbEntity
  8
BLACK
 62
256
370
-1
 48
1.0
  6
CONTINUOUS
100
AcDbLine
 10
5.4329968503936996
 20
-3.1537931496062983
 30
0.0
 11
5.4329971259842509
 21
-3.1537932283464558
 31
0.0
  0
LINE
  5
110
100
AcDbEntity
  8
BLACK
 62
256
370
-1
 48
1.0
  6
CONTINUOUS
100
AcDbLine
 10
5.4329971259842509
 20
-3.1537932283464558
 30
0.0
 11
5.4353407480314955
 21
-3.1540452362204716
 31
0.0
  0
LINE
  5
111
100
AcDbEntity
  8
BLACK
 62
256
370
-1
 48
1.0
  6
CONTINUOUS
100
AcDbLine
 10
5.4353407480314955
 20
-3.1540452362204716
 30
0.0
 11
5.4353414173228334
 21
-3.1540452755905504
 31
0.0
  0
LINE
  5
112
100
AcDbEntity
  8
BLACK
 62
256
370
-1
 48
1.0
  6
CONTINUOUS
100
AcDbLine
 10
5.4353414173228334
 20
-3.1540452755905504
 30
0.0
 11
5.4510039370078731
 21
-3.1540452755905504
 31
0.0
  0
LINE
  5
113
100
AcDbEntity
  8
BLACK
 62
256
370
-1
 48
1.0
  6
CONTINUOUS
100
AcDbLine
 10
5.4510039370078731
 20
-3.1540452755905504
 30
0.0
 11
5.4510039370078731
 21
-3.1343602362204717
 31
0.0
  0
LINE
  5
114
100
AcDbEntity
  8
BLACK
 62
256
370
-1
 48
1.0
  6
CONTINUOUS
100
AcDbLine
 10
5.4510039370078731
 20
-3.1343602362204717
 30
0.0
 11
5.4372244094488176
 21
-3.1343602362204717
 31
0.0
  0
LINE
  5
115
100
AcDbEntity
  8
BLACK
 62
256
370
-1
 48
1.0
  6
CONTINUOUS
100
AcDbLine
 10
5.4372244094488176
 20
-3.1343602362204717
 30
0.0
 11
5.4372244094488176
 21
-3.0871161417322828
 31
0.0
  0
LINE
  5
116
100
AcDbEntity
  8
BLACK
 62
256
370
-1
 48
1.0
  6
CONTINUOUS
100
AcDbLine
 10
5.4372244094488176
 20
-3.0871161417322828
 30
0.0
 11
5.4844685039370074
 21
-3.0871161417322828
 31
0.0
  0
LINE
  5
117
100
AcDbEntity
  8
BLACK
 62
256
370
-1
 48
1.0
  6
CONTINUOUS
100
AcDbLine
 10
5.4844685039370074
 20
-3.0871161417322828
 30
0.0
 11
5.4844685039370074
 21
-3.1008956692913379
 31
0.0
  0
LINE
  5
118
100
AcDbEntity
  8
BLACK
 62
256
370
-1
 48
1.0
  6
CONTINUOUS
100
AcDbLine
 10
5.4844685039370074
 20
-3.1008956692913379
 30
0.0
 11
5.5041535433070861
 21
-3.1008956692913379
 31
0.0
  0
LINE
  5
119
100
AcDbEntity
  8
BLACK
 62
256
370
-1
 48
1.0
  6
CONTINUOUS
100
AcDbLine
 10
5.5041535433070861
 20
-3.1008956692913379
 30
0.0
 11
5.5041535433070861
 21
-3.0852331496062986
 31
0.0
  0
LINE
  5
11A
100
AcDbEntity
  8
BLACK
 62
256
370
-1
 48
1.0
  6
CONTINUOUS
100
AcDbLine
 10
5.5041535433070861
 20
-3.0852331496062986
 30
0.0
 11
5.5041535039370073
 21
-3.0852324803149598
 31
0.0
  0
LINE
  5
11B
100
AcDbEntity
  8
BLACK
 62
256
370
-1
 48
1.0
  6
CONTINUOUS
100
AcDbLine
 10
5.5041535039370073
 20
-3.0852324803149598
 30
0.0
 11
5.5039062992125976
 21
-3.0829333070866136
 31
0.0
  0
LINE
  5
11C
100
AcDbEntity
  8
BLACK
 62
256
370
-1
 48
1.0
  6
CONTINUOUS
100
AcDbLine
 10
5.5039062992125976
 20
-3.0829333070866136
 30
0.0
 11
5.5043946850393688
 21
-3.0802262204724404
 31
0.0
  0
LINE
  5
11D
100
AcDbEntity
  8
BLACK
 62
256
370
-1
 48
1.0
  6
CONTINUOUS
100
AcDbLine
 10
5.5043946850393688
 20
-3.0802262204724404
 30
0.0
 11
5.5062690944881885
 21
-3.078212952755905
 31
0.0
  0
LINE
  5
11E
100
AcDbEntity
  8
BLACK
 62
256
370
-1
 48
1.0
  6
CONTINUOUS
100
AcDbLine
 10
5.5062690944881885
 20
-3.078212952755905
 30
0.0
 11
5.5087601968503925
 21
-3.0775295275590544
 31
0.0
  0
LINE
  5
11F
100
AcDbEntity
  8
BLACK
 62
256
370
-1
 48
1.0
  6
CONTINUOUS
100
AcDbLine
 10
5.5087601968503925
 20
-3.0775295275590544
 30
0.0
 11
5.8302320078740149
 21
-3.0775295275590544
 31
0.0
  0
LINE
  5
120
100
AcDbEntity
  8
BLACK
 62
256
370
-1
 48
1.0
  6
CONTINUOUS
100
AcDbLine
 10
5.8302320078740149
 20
-3.0775295275590544
 30
0.0
 11
5.8328713385826765
 21
-3.0783045275590544
 31
0.0
  0
LINE
  5
121
100
AcDbEntity
  8
BLACK
 62
256
370
-1
 48
1.0
  6
CONTINUOUS
100
AcDbLine
 10
5.8328713385826765
 20
-3.0783045275590544
 30
0.0
 11
5.8346727165354322
 21
-3.0803834251968496
 31
0.0
  0
LINE
  5
122
100
AcDbEntity
  8
BLACK
 62
256
370
-1
 48
1.0
  6
CONTINUOUS
100
AcDbLine
 10
5.8346727165354322
 20
-3.0803834251968496
 30
0.0
 11
5.8350642125984242
 21
-3.0831061811023615
 31
0.0
  0
LINE
  5
123
100
AcDbEntity
  8
BLACK
 62
256
370
-1
 48
1.0
  6
CONTINUOUS
100
AcDbLine
 10
5.8350642125984242
 20
-3.0831061811023615
 30
0.0
 11
5.8342911417322822
 21
-3.0851236614173221
 31
0.0
  0
LINE
  5
124
100
AcDbEntity
  8
BLACK
 62
256
370
-1
 48
1.0
  6
CONTINUOUS
100
AcDbLine
 10
5.8342911417322822
 20
-3.0851236614173221
 30
0.0
 11
5.8323870866141725
 21
-3.0879731889763771
 31
0.0
  0
LINE
  5
125
100
AcDbEntity
  8
BLACK
 62
256
370
-1
 48
1.0
  6
CONTINUOUS
100
AcDbLine
 10
5.8323870866141725
 20
-3.0879731889763771
 30
0.0
 11
5.8323870472440937
 21
-3.0879732283464558
 31
0.0
  0
LINE
  5
126
100
AcDbEntity
  8
BLACK
 62
256
370
-1
 48
1.0
  6
CONTINUOUS
100
AcDbLine
 10
5.8323870472440937
 20
-3.0879732283464558
 30
0.0
 11
5.8319291338582664
 21
-3.0902754724409442
 31
0.0
  0
LINE
  5
127
100
AcDbEntity
  8
BLACK
 62
256
370
-1
 48
1.0
  6
CONTINUOUS
100
AcDbLine
 10
5.8319291338582664
 20
-3.0902754724409442
 30
0.0
 11
5.8319291338582664
 21
-3.1312008661417314
 31
0.0
  0
LINE
  5
128
100
AcDbEntity
  8
BLACK
 62
256
370
-1
 48
1.0
  6
CONTINUOUS
100
AcDbLine
 10
5.8319291338582664
 20
-3.1312008661417314
 30
0.0
 11
5.8323870472440937
 21
-3.1335031102362199
 31
0.0
  0
LINE
  5
129
100
AcDbEntity
  8
BLACK
 62
256
370
-1
 48
1.0
  6
CONTINUOUS
100
AcDbLine
 10
5.8323870472440937
 20
-3.1335031102362199
 30
0.0
 11
5.8323870866141725
 21
-3.1335031496062986
 31
0.0
  0
LINE
  5
12A
100
AcDbEntity
  8
BLACK
 62
256
370
-1
 48
1.0
  6
CONTINUOUS
100
AcDbLine
 10
5.8323870866141725
 20
-3.1335031496062986
 30
0.0
 11
5.8341317716535421
 21
-3.1361142519685035
 31
0.0
  0
LINE
  5
12B
100
AcDbEntity
  8
BLACK
 62
256
370
-1
 48
1.0
  6
CONTINUOUS
100
AcDbLine
 10
5.8341317716535421
 20
-3.1361142519685035
 30
0.0
 11
5.836742874015747
 21
-3.1378589370078735
 31
0.0
  0
LINE
  5
12C
100
AcDbEntity
  8
BLACK
 62
256
370
-1
 48
1.0
  6
CONTINUOUS
100
AcDbLine
 10
5.836742874015747
 20
-3.1378589370078735
 30
0.0
 11
5.8367429133858257
 21
-3.1378589763779519
 31
0.0
  0
LINE
  5
12D
100
AcDbEntity
  8
BLACK
 62
256
370
-1
 48
1.0
  6
CONTINUOUS
100
AcDbLine
 10
5.8367429133858257
 20
-3.1378589763779519
 30
0.0
 11
5.8390451574803137
 21
-3.1383168897637788
 31
0.0
  0
LINE
  5
12E
100
AcDbEntity
  8
BLACK
 62
256
370
-1
 48
1.0
  6
CONTINUOUS
100
AcDbLine
 10
5.8390451574803137
 20
-3.1383168897637788
 30
0.0
 11
5.83904527559055
 21
-3.1383169291338575
 31
0.0
  0
LINE
  5
12F
100
AcDbEntity
  8
BLACK
 62
256
370
-1
 48
1.0
  6
CONTINUOUS
100
AcDbLine
 10
5.83904527559055
 20
-3.1383169291338575
 30
0.0
 11
5.8390453543307075
 21
-3.1383169291338575
 31
0.0
  0
LINE
  5
130
100
AcDbEntity
  8
BLACK
 62
256
370
-1
 48
1.0
  6
CONTINUOUS
100
AcDbLine
 10
5.8390453543307075
 20
-3.1383169291338575
 30
0.0
 11
5.8799704724409443
 21
-3.1383169291338575
 31
0.0
  0
LINE
  5
131
100
AcDbEntity
  8
BLACK
 62
256
370
-1
 48
1.0
  6
CONTINUOUS
100
AcDbLine
 10
5.8799704724409443
 20
-3.1383169291338575
 30
0.0
 11
5.879970511811023
 21
-3.1383168897637788
 31
0.0
  0
LINE
  5
132
100
AcDbEntity
  8
BLACK
 62
256
370
-1
 48
1.0
  6
CONTINUOUS
100
AcDbLine
 10
5.879970511811023
 20
-3.1383168897637788
 30
0.0
 11
5.8805538582677155
 21
-3.1382008661417315
 31
0.0
  0
LINE
  5
133
100
AcDbEntity
  8
BLACK
 62
256
370
-1
 48
1.0
  6
CONTINUOUS
100
AcDbLine
 10
5.8805538582677155
 20
-3.1382008661417315
 30
0.0
 11
5.8822727952755898
 21
-3.1378589763779519
 31
0.0
  0
LINE
  5
134
100
AcDbEntity
  8
BLACK
 62
256
370
-1
 48
1.0
  6
CONTINUOUS
100
AcDbLine
 10
5.8822727952755898
 20
-3.1378589763779519
 30
0.0
 11
5.8822727952755898
 21
-3.1378589370078735
 31
0.0
  0
LINE
  5
135
100
AcDbEntity
  8
BLACK
 62
256
370
-1
 48
1.0
  6
CONTINUOUS
100
AcDbLine
 10
5.8822727952755898
 20
-3.1378589370078735
 30
0.0
 11
5.8822728740157473
 21
-3.1378589370078735
 31
0.0
  0
LINE
  5
136
100
AcDbEntity
  8
BLACK
 62
256
370
-1
 48
1.0
  6
CONTINUOUS
100
AcDbLine
 10
5.8822728740157473
 20
-3.1378589370078735
 30
0.0
 11
5.8848839370078734
 21
-3.1361142519685035
 31
0.0
  0
LINE
  5
137
100
AcDbEntity
  8
BLACK
 62
256
370
-1
 48
1.0
  6
CONTINUOUS
100
AcDbLine
 10
5.8848839370078734
 20
-3.1361142519685035
 30
0.0
 11
5.886628622047243
 21
-3.1335031889763774
 31
0.0
  0
LINE
  5
138
100
AcDbEntity
  8
BLACK
 62
256
370
-1
 48
1.0
  6
CONTINUOUS
100
AcDbLine
 10
5.886628622047243
 20
-3.1335031889763774
 30
0.0
 11
5.886628622047243
 21
-3.1335031102362199
 31
0.0
  0
LINE
  5
139
100
AcDbEntity
  8
BLACK
 62
256
370
-1
 48
1.0
  6
CONTINUOUS
100
AcDbLine
 10
5.886628622047243
 20
-3.1335031102362199
 30
0.0
 11
5.8866286614173218
 21
-3.1335031102362199
 31
0.0
  0
LINE
  5
13A
100
AcDbEntity
  8
BLACK
 62
256
370
-1
 48
1.0
  6
CONTINUOUS
100
AcDbLine
 10
5.8866286614173218
 20
-3.1335031102362199
 30
0.0
 11
5.8870865748031491
 21
-3.1312008661417314
 31
0.0
  0
LINE
  5
13B
100
AcDbEntity
  8
BLACK
 62
256
370
-1
 48
1.0
  6
CONTINUOUS
100
AcDbLine
 10
5.8870865748031491
 20
-3.1312008661417314
 30
0.0
 11
5.8870866141732279
 21
-3.1312007874015739
 31
0.0
  0
LINE
  5
13C
100
AcDbEntity
  8
BLACK
 62
256
370
-1
 48
1.0
  6
CONTINUOUS
100
AcDbLine
 10
5.8870866141732279
 20
-3.1312007874015739
 30
0.0
 11
5.8870866141732279
 21
-3.0902755511811018
 31
0.0
  0
LINE
  5
13D
100
AcDbEntity
  8
BLACK
 62
256
370
-1
 48
1.0
  6
CONTINUOUS
100
AcDbLine
 10
5.8870866141732279
 20
-3.0902755511811018
 30
0.0
 11
5.8870865748031491
 21
-3.0902754724409442
 31
0.0
  0
LINE
  5
13E
100
AcDbEntity
  8
BLACK
 62
256
370
-1
 48
1.0
  6
CONTINUOUS
100
AcDbLine
 10
5.8870865748031491
 20
-3.0902754724409442
 30
0.0
 11
5.8866286614173218
 21
-3.0879732283464558
 31
0.0
  0
LINE
  5
13F
100
AcDbEntity
  8
BLACK
 62
256
370
-1
 48
1.0
  6
CONTINUOUS
100
AcDbLine
 10
5.8866286614173218
 20
-3.0879732283464558
 30
0.0
 11
5.886628622047243
 21
-3.0879731889763771
 31
0.0
  0
LINE
  5
140
100
AcDbEntity
  8
BLACK
 62
256
370
-1
 48
1.0
  6
CONTINUOUS
100
AcDbLine
 10
5.886628622047243
 20
-3.0879731889763771
 30
0.0
 11
5.884724606299212
 21
-3.0851236614173221
 31
0.0
  0
LINE
  5
141
100
AcDbEntity
  8
BLACK
 62
256
370
-1
 48
1.0
  6
CONTINUOUS
100
AcDbLine
 10
5.884724606299212
 20
-3.0851236614173221
 30
0.0
 11
5.8839026377952743
 21
-3.0824985826771645
 31
0.0
  0
LINE
  5
142
100
AcDbEntity
  8
BLACK
 62
256
370
-1
 48
1.0
  6
CONTINUOUS
100
AcDbLine
 10
5.8839026377952743
 20
-3.0824985826771645
 30
0.0
 11
5.8846303543307075
 21
-3.0798458267716526
 31
0.0
  0
LINE
  5
143
100
AcDbEntity
  8
BLACK
 62
256
370
-1
 48
1.0
  6
CONTINUOUS
100
AcDbLine
 10
5.8846303543307075
 20
-3.0798458267716526
 30
0.0
 11
5.8866767716535424
 21
-3.078007598425196
 31
0.0
  0
LINE
  5
144
100
AcDbEntity
  8
BLACK
 62
256
370
-1
 48
1.0
  6
CONTINUOUS
100
AcDbLine
 10
5.8866767716535424
 20
-3.078007598425196
 30
0.0
 11
5.8887837401574794
 21
-3.0775295275590544
 31
0.0
  0
LINE
  5
145
100
AcDbEntity
  8
BLACK
 62
256
370
-1
 48
1.0
  6
CONTINUOUS
100
AcDbLine
 10
5.8887837401574794
 20
-3.0775295275590544
 30
0.0
 11
5.9025003937007865
 21
-3.0775295275590544
 31
0.0
  0
LINE
  5
146
100
AcDbEntity
  8
BLACK
 62
256
370
-1
 48
1.0
  6
CONTINUOUS
100
AcDbLine
 10
5.9025003937007865
 20
-3.0775295275590544
 30
0.0
 11
5.9051397244094481
 21
-3.0783045275590544
 31
0.0
  0
LINE
  5
147
100
AcDbEntity
  8
BLACK
 62
256
370
-1
 48
1.0
  6
CONTINUOUS
100
AcDbLine
 10
5.9051397244094481
 20
-3.0783045275590544
 30
0.0
 11
5.9069411023622038
 21
-3.0803834251968496
 31
0.0
  0
LINE
  5
148
100
AcDbEntity
  8
BLACK
 62
256
370
-1
 48
1.0
  6
CONTINUOUS
100
AcDbLine
 10
5.9069411023622038
 20
-3.0803834251968496
 30
0.0
 11
5.9073325984251959
 21
-3.0831061811023615
 31
0.0
  0
LINE
  5
149
100
AcDbEntity
  8
BLACK
 62
256
370
-1
 48
1.0
  6
CONTINUOUS
100
AcDbLine
 10
5.9073325984251959
 20
-3.0831061811023615
 30
0.0
 11
5.9072012598425188
 21
-3.0835849212598418
 31
0.0
  0
LINE
  5
14A
100
AcDbEntity
  8
BLACK
 62
256
370
-1
 48
1.0
  6
CONTINUOUS
100
AcDbLine
 10
5.9072012598425188
 20
-3.0835849212598418
 30
0.0
 11
5.9066535433070859
 21
-3.0863384645669285
 31
0.0
  0
LINE
  5
14B
100
AcDbEntity
  8
BLACK
 62
256
370
-1
 48
1.0
  6
CONTINUOUS
100
AcDbLine
 10
5.9066535433070859
 20
-3.0863384645669285
 30
0.0
 11
5.9066535433070859
 21
-3.1351378740157472
 31
0.0
  0
LINE
  5
14C
100
AcDbEntity
  8
BLACK
 62
256
370
-1
 48
1.0
  6
CONTINUOUS
100
AcDbLine
 10
5.9066535433070859
 20
-3.1351378740157472
 30
0.0
 11
5.9071114566929124
 21
-3.1374401181102356
 31
0.0
  0
LINE
  5
14D
100
AcDbEntity
  8
BLACK
 62
256
370
-1
 48
1.0
  6
CONTINUOUS
100
AcDbLine
 10
5.9071114566929124
 20
-3.1374401181102356
 30
0.0
 11
5.9071114960629911
 21
-3.1374401574803144
 31
0.0
  0
LINE
  5
14E
100
AcDbEntity
  8
BLACK
 62
256
370
-1
 48
1.0
  6
CONTINUOUS
100
AcDbLine
 10
5.9071114960629911
 20
-3.1374401574803144
 30
0.0
 11
5.9088561811023617
 21
-3.1400512598425192
 31
0.0
  0
LINE
  5
14F
100
AcDbEntity
  8
BLACK
 62
256
370
-1
 48
1.0
  6
CONTINUOUS
100
AcDbLine
 10
5.9088561811023617
 20
-3.1400512598425192
 30
0.0
 11
5.9114672834645656
 21
-3.1417959448818893
 31
0.0
  0
LINE
  5
150
100
AcDbEntity
  8
BLACK
 62
256
370
-1
 48
1.0
  6
CONTINUOUS
100
AcDbLine
 10
5.9114672834645656
 20
-3.1417959448818893
 30
0.0
 11
5.9114673228346444
 21
-3.1417959842519676
 31
0.0
  0
LINE
  5
151
100
AcDbEntity
  8
BLACK
 62
256
370
-1
 48
1.0
  6
CONTINUOUS
100
AcDbLine
 10
5.9114673228346444
 20
-3.1417959842519676
 30
0.0
 11
5.9137695669291332
 21
-3.1422538976377945
 31
0.0
  0
LINE
  5
152
100
AcDbEntity
  8
BLACK
 62
256
370
-1
 48
1.0
  6
CONTINUOUS
100
AcDbLine
 10
5.9137695669291332
 20
-3.1422538976377945
 30
0.0
 11
5.9137696850393695
 21
-3.1422539370078733
 31
0.0
  0
LINE
  5
153
100
AcDbEntity
  8
BLACK
 62
256
370
-1
 48
1.0
  6
CONTINUOUS
100
AcDbLine
 10
5.9137696850393695
 20
-3.1422539370078733
 30
0.0
 11
5.913769763779527
 21
-3.1422539370078733
 31
0.0
  0
LINE
  5
154
100
AcDbEntity
  8
BLACK
 62
256
370
-1
 48
1.0
  6
CONTINUOUS
100
AcDbLine
 10
5.913769763779527
 20
-3.1422539370078733
 30
0.0
 11
5.9625688976377944
 21
-3.1422539370078733
 31
0.0
  0
LINE
  5
155
100
AcDbEntity
  8
BLACK
 62
256
370
-1
 48
1.0
  6
CONTINUOUS
100
AcDbLine
 10
5.9625688976377944
 20
-3.1422539370078733
 30
0.0
 11
5.9625689370078732
 21
-3.1422538976377945
 31
0.0
  0
LINE
  5
156
100
AcDbEntity
  8
BLACK
 62
256
370
-1
 48
1.0
  6
CONTINUOUS
100
AcDbLine
 10
5.9625689370078732
 20
-3.1422538976377945
 30
0.0
 11
5.9631522834645656
 21
-3.1421378740157473
 31
0.0
  0
LINE
  5
157
100
AcDbEntity
  8
BLACK
 62
256
370
-1
 48
1.0
  6
CONTINUOUS
100
AcDbLine
 10
5.9631522834645656
 20
-3.1421378740157473
 30
0.0
 11
5.9648712204724399
 21
-3.1417959842519676
 31
0.0
  0
LINE
  5
158
100
AcDbEntity
  8
BLACK
 62
256
370
-1
 48
1.0
  6
CONTINUOUS
100
AcDbLine
 10
5.9648712204724399
 20
-3.1417959842519676
 30
0.0
 11
5.9648712204724399
 21
-3.1417959448818893
 31
0.0
  0
LINE
  5
159
100
AcDbEntity
  8
BLACK
 62
256
370
-1
 48
1.0
  6
CONTINUOUS
100
AcDbLine
 10
5.9648712204724399
 20
-3.1417959448818893
 30
0.0
 11
5.9648712992125974
 21
-3.1417959448818893
 31
0.0
  0
LINE
  5
15A
100
AcDbEntity
  8
BLACK
 62
256
370
-1
 48
1.0
  6
CONTINUOUS
100
AcDbLine
 10
5.9648712992125974
 20
-3.1417959448818893
 30
0.0
 11
5.9674823622047235
 21
-3.1400512598425192
 31
0.0
  0
LINE
  5
15B
100
AcDbEntity
  8
BLACK
 62
256
370
-1
 48
1.0
  6
CONTINUOUS
100
AcDbLine
 10
5.9674823622047235
 20
-3.1400512598425192
 30
0.0
 11
5.969149055118109
 21
-3.1375568503936999
 31
0.0
  0
LINE
  5
15C
100
AcDbEntity
  8
BLACK
 62
256
370
-1
 48
1.0
  6
CONTINUOUS
100
AcDbLine
 10
5.969149055118109
 20
-3.1375568503936999
 30
0.0
 11
5.9712596850393691
 21
-3.1357929527559048
 31
0.0
  0
LINE
  5
15D
100
AcDbEntity
  8
BLACK
 62
256
370
-1
 48
1.0
  6
CONTINUOUS
100
AcDbLine
 10
5.9712596850393691
 20
-3.1357929527559048
 30
0.0
 11
5.9739890157480309
 21
-3.1354501574803142
 31
0.0
  0
LINE
  5
15E
100
AcDbEntity
  8
BLACK
 62
256
370
-1
 48
1.0
  6
CONTINUOUS
100
AcDbLine
 10
5.9739890157480309
 20
-3.1354501574803142
 30
0.0
 11
5.9764704330708653
 21
-3.1366373228346451
 31
0.0
  0
LINE
  5
15F
100
AcDbEntity
  8
BLACK
 62
256
370
-1
 48
1.0
  6
CONTINUOUS
100
AcDbLine
 10
5.9764704330708653
 20
-3.1366373228346451
 30
0.0
 11
5.9777822440944872
 21
-3.1385631102362197
 31
0.0
  0
LINE
  5
160
100
AcDbEntity
  8
BLACK
 62
256
370
-1
 48
1.0
  6
CONTINUOUS
100
AcDbLine
 10
5.9777822440944872
 20
-3.1385631102362197
 30
0.0
 11
5.9797695275590543
 21
-3.143891259842519
 31
0.0
  0
LINE
  5
161
100
AcDbEntity
  8
BLACK
 62
256
370
-1
 48
1.0
  6
CONTINUOUS
100
AcDbLine
 10
5.9797695275590543
 20
-3.143891259842519
 30
0.0
 11
5.9797696456692906
 21
-3.1438914566929128
 31
0.0
  0
LINE
  5
162
100
AcDbEntity
  8
BLACK
 62
256
370
-1
 48
1.0
  6
CONTINUOUS
100
AcDbLine
 10
5.9797696456692906
 20
-3.1438914566929128
 30
0.0
 11
5.9831617716535428
 21
-3.1484227165354324
 31
0.0
  0
LINE
  5
163
100
AcDbEntity
  8
BLACK
 62
256
370
-1
 48
1.0
  6
CONTINUOUS
100
AcDbLine
 10
6.0110039370078727
 20
-3.1540452755905504
 30
0.0
 11
6.0110039370078727
 21
-3.1343602362204717
 31
0.0
  0
LINE
  5
164
100
AcDbEntity
  8
BLACK
 62
256
370
-1
 48
1.0
  6
CONTINUOUS
100
AcDbLine
 10
6.0110039370078727
 20
-3.1343602362204717
 30
0.0
 11
5.9972244094488181
 21
-3.1343602362204717
 31
0.0
  0
LINE
  5
165
100
AcDbEntity
  8
BLACK
 62
256
370
-1
 48
1.0
  6
CONTINUOUS
100
AcDbLine
 10
5.9972244094488181
 20
-3.1343602362204717
 30
0.0
 11
5.9972244094488181
 21
-3.0871161417322828
 31
0.0
  0
LINE
  5
166
100
AcDbEntity
  8
BLACK
 62
256
370
-1
 48
1.0
  6
CONTINUOUS
100
AcDbLine
 10
5.9972244094488181
 20
-3.0871161417322828
 30
0.0
 11
6.044468503937007
 21
-3.0871161417322828
 31
0.0
  0
LINE
  5
167
100
AcDbEntity
  8
BLACK
 62
256
370
-1
 48
1.0
  6
CONTINUOUS
100
AcDbLine
 10
6.044468503937007
 20
-3.0871161417322828
 30
0.0
 11
6.044468503937007
 21
-3.1008956692913379
 31
0.0
  0
LINE
  5
168
100
AcDbEntity
  8
BLACK
 62
256
370
-1
 48
1.0
  6
CONTINUOUS
100
AcDbLine
 10
6.044468503937007
 20
-3.1008956692913379
 30
0.0
 11
6.0641535433070857
 21
-3.1008956692913379
 31
0.0
  0
LINE
  5
169
100
AcDbEntity
  8
BLACK
 62
256
370
-1
 48
1.0
  6
CONTINUOUS
100
AcDbLine
 10
6.0641535433070857
 20
-3.1205807086614166
 30
0.0
 11
6.044468503937007
 21
-3.1205807086614166
 31
0.0
  0
LINE
  5
16A
100
AcDbEntity
  8
BLACK
 62
256
370
-1
 48
1.0
  6
CONTINUOUS
100
AcDbLine
 10
6.044468503937007
 20
-3.1205807086614166
 30
0.0
 11
6.044468503937007
 21
-3.1343602362204717
 31
0.0
  0
LINE
  5
16B
100
AcDbEntity
  8
BLACK
 62
256
370
-1
 48
1.0
  6
CONTINUOUS
100
AcDbLine
 10
6.044468503937007
 20
-3.1343602362204717
 30
0.0
 11
6.0306889763779514
 21
-3.1343602362204717
 31
0.0
  0
LINE
  5
16C
100
AcDbEntity
  8
BLACK
 62
256
370
-1
 48
1.0
  6
CONTINUOUS
100
AcDbLine
 10
6.0306889763779514
 20
-3.1343602362204717
 30
0.0
 11
6.0306889763779514
 21
-3.1540452755905504
 31
0.0
  0
LINE
  5
16D
100
AcDbEntity
  8
BLACK
 62
256
370
-1
 48
1.0
  6
CONTINUOUS
100
AcDbLine
 10
4.9629409448818889
 20
-3.0775295275590544
 30
0.0
 11
5.1102320078740151
 21
-3.0775295275590544
 31
0.0
  0
LINE
  5
16E
100
AcDbEntity
  8
BLACK
 62
256
370
-1
 48
1.0
  6
CONTINUOUS
100
AcDbLine
 10
5.1102320078740151
 20
-3.0775295275590544
 30
0.0
 11
5.1128713385826758
 21
-3.0783045275590544
 31
0.0
  0
LINE
  5
16F
100
AcDbEntity
  8
BLACK
 62
256
370
-1
 48
1.0
  6
CONTINUOUS
100
AcDbLine
 10
5.4844685039370074
 20
-3.1343602362204717
 30
0.0
 11
5.4706889763779518
 21
-3.1343602362204717
 31
0.0
  0
LINE
  5
170
100
AcDbEntity
  8
BLACK
 62
256
370
-1
 48
1.0
  6
CONTINUOUS
100
AcDbLine
 10
5.4706889763779518
 20
-3.1343602362204717
 30
0.0
 11
5.4706889763779518
 21
-3.1540452755905504
 31
0.0
  0
LINE
  5
171
100
AcDbEntity
  8
BLACK
 62
256
370
-1
 48
1.0
  6
CONTINUOUS
100
AcDbLine
 10
5.4706889763779518
 20
-3.1540452755905504
 30
0.0
 11
5.4863514960629916
 21
-3.1540452755905504
 31
0.0
  0
LINE
  5
172
100
AcDbEntity
  8
BLACK
 62
256
370
-1
 48
1.0
  6
CONTINUOUS
100
AcDbLine
 10
5.4863514960629916
 20
-3.1540452755905504
 30
0.0
 11
5.4863521259842507
 21
-3.1540452362204716
 31
0.0
  0
LINE
  5
173
100
AcDbEntity
  8
BLACK
 62
256
370
-1
 48
1.0
  6
CONTINUOUS
100
AcDbLine
 10
5.4863521259842507
 20
-3.1540452362204716
 30
0.0
 11
5.4886957480314953
 21
-3.1537932283464558
 31
0.0
  0
LINE
  5
174
100
AcDbEntity
  8
BLACK
 62
256
370
-1
 48
1.0
  6
CONTINUOUS
100
AcDbLine
 10
5.4886957480314953
 20
-3.1537932283464558
 30
0.0
 11
5.4886960236220466
 21
-3.1537931496062983
 31
0.0
  0
LINE
  5
175
100
AcDbEntity
  8
BLACK
 62
256
370
-1
 48
1.0
  6
CONTINUOUS
100
AcDbLine
 10
5.4886960236220466
 20
-3.1537931496062983
 30
0.0
 11
5.4939994488188963
 21
-3.1518151181102354
 31
0.0
  0
LINE
  5
176
100
AcDbEntity
  8
BLACK
 62
256
370
-1
 48
1.0
  6
CONTINUOUS
100
AcDbLine
 10
5.4939994488188963
 20
-3.1518151181102354
 30
0.0
 11
5.4939997244094476
 21
-3.1518149606299204
 31
0.0
  0
LINE
  5
177
100
AcDbEntity
  8
BLACK
 62
256
370
-1
 48
1.0
  6
CONTINUOUS
100
AcDbLine
 10
5.4939997244094476
 20
-3.1518149606299204
 30
0.0
 11
5.4985309842519676
 21
-3.1484228346456686
 31
0.0
  0
LINE
  5
178
100
AcDbEntity
  8
BLACK
 62
256
370
-1
 48
1.0
  6
CONTINUOUS
100
AcDbLine
 10
5.4985309842519676
 20
-3.1484228346456686
 30
0.0
 11
5.4985311023622039
 21
-3.1484227165354324
 31
0.0
  0
LINE
  5
179
100
AcDbEntity
  8
BLACK
 62
256
370
-1
 48
1.0
  6
CONTINUOUS
100
AcDbLine
 10
5.4985311023622039
 20
-3.1484227165354324
 30
0.0
 11
5.5019232283464561
 21
-3.1438914566929128
 31
0.0
  0
LINE
  5
17A
100
AcDbEntity
  8
BLACK
 62
256
370
-1
 48
1.0
  6
CONTINUOUS
100
AcDbLine
 10
5.5019232283464561
 20
-3.1438914566929128
 30
0.0
 11
5.5019233858267711
 21
-3.1438911811023615
 31
0.0
  0
LINE
  5
17B
100
AcDbEntity
  8
BLACK
 62
256
370
-1
 48
1.0
  6
CONTINUOUS
100
AcDbLine
 10
5.5019233858267711
 20
-3.1438911811023615
 30
0.0
 11
5.503901417322834
 21
-3.1385877559055113
 31
0.0
  0
LINE
  5
17C
100
AcDbEntity
  8
BLACK
 62
256
370
-1
 48
1.0
  6
CONTINUOUS
100
AcDbLine
 10
5.503901417322834
 20
-3.1385877559055113
 30
0.0
 11
5.5039014960629915
 21
-3.13858748031496
 31
0.0
  0
LINE
  5
17D
100
AcDbEntity
  8
BLACK
 62
256
370
-1
 48
1.0
  6
CONTINUOUS
100
AcDbLine
 10
5.5039014960629915
 20
-3.13858748031496
 30
0.0
 11
5.5041535039370073
 21
-3.1362438582677159
 31
0.0
  0
LINE
  5
17E
100
AcDbEntity
  8
BLACK
 62
256
370
-1
 48
1.0
  6
CONTINUOUS
100
AcDbLine
 10
5.5041535039370073
 20
-3.1362438582677159
 30
0.0
 11
5.5041535433070861
 21
-3.1362431889763771
 31
0.0
  0
LINE
  5
17F
100
AcDbEntity
  8
BLACK
 62
256
370
-1
 48
1.0
  6
CONTINUOUS
100
AcDbLine
 10
5.5041535433070861
 20
-3.1362431889763771
 30
0.0
 11
5.5041535433070861
 21
-3.1205807086614166
 31
0.0
  0
LINE
  5
180
100
AcDbEntity
  8
BLACK
 62
256
370
-1
 48
1.0
  6
CONTINUOUS
100
AcDbLine
 10
5.5041535433070861
 20
-3.1205807086614166
 30
0.0
 11
5.4844685039370074
 21
-3.1205807086614166
 31
0.0
  0
LINE
  5
181
100
AcDbEntity
  8
BLACK
 62
256
370
-1
 48
1.0
  6
CONTINUOUS
100
AcDbLine
 10
5.4844685039370074
 20
-3.1205807086614166
 30
0.0
 11
5.4844685039370074
 21
-3.1343602362204717
 31
0.0
  0
LINE
  5
182
100
AcDbEntity
  8
BLACK
 62
256
370
-1
 48
1.0
  6
CONTINUOUS
100
AcDbLine
 10
6.7738011417322825
 20
-3.0783045275590544
 30
0.0
 11
6.7756025196850382
 21
-3.0803834251968496
 31
0.0
  0
LINE
  5
183
100
AcDbEntity
  8
BLACK
 62
256
370
-1
 48
1.0
  6
CONTINUOUS
100
AcDbLine
 10
6.7756025196850382
 20
-3.0803834251968496
 30
0.0
 11
6.7759940157480303
 21
-3.0831061811023615
 31
0.0
  0
LINE
  5
184
100
AcDbEntity
  8
BLACK
 62
256
370
-1
 48
1.0
  6
CONTINUOUS
100
AcDbLine
 10
6.7759940157480303
 20
-3.0831061811023615
 30
0.0
 11
6.7758626771653532
 21
-3.0835849212598418
 31
0.0
  0
LINE
  5
185
100
AcDbEntity
  8
BLACK
 62
256
370
-1
 48
1.0
  6
CONTINUOUS
100
AcDbLine
 10
6.7758626771653532
 20
-3.0835849212598418
 30
0.0
 11
6.7753149606299203
 21
-3.0863384645669285
 31
0.0
  0
LINE
  5
186
100
AcDbEntity
  8
BLACK
 62
256
370
-1
 48
1.0
  6
CONTINUOUS
100
AcDbLine
 10
6.7753149606299203
 20
-3.0863384645669285
 30
0.0
 11
6.7753149606299203
 21
-3.1351378740157472
 31
0.0
  0
LINE
  5
187
100
AcDbEntity
  8
BLACK
 62
256
370
-1
 48
1.0
  6
CONTINUOUS
100
AcDbLine
 10
6.7753149606299203
 20
-3.1351378740157472
 30
0.0
 11
6.7757728740157468
 21
-3.1374401181102356
 31
0.0
  0
LINE
  5
188
100
AcDbEntity
  8
BLACK
 62
256
370
-1
 48
1.0
  6
CONTINUOUS
100
AcDbLine
 10
6.7757728740157468
 20
-3.1374401181102356
 30
0.0
 11
6.7757729133858255
 21
-3.1374401574803144
 31
0.0
  0
LINE
  5
189
100
AcDbEntity
  8
BLACK
 62
256
370
-1
 48
1.0
  6
CONTINUOUS
100
AcDbLine
 10
6.7757729133858255
 20
-3.1374401574803144
 30
0.0
 11
6.7775175984251961
 21
-3.1400512598425192
 31
0.0
  0
LINE
  5
18A
100
AcDbEntity
  8
BLACK
 62
256
370
-1
 48
1.0
  6
CONTINUOUS
100
AcDbLine
 10
6.7775175984251961
 20
-3.1400512598425192
 30
0.0
 11
6.7801287007874009
 21
-3.1417959448818893
 31
0.0
  0
LINE
  5
18B
100
AcDbEntity
  8
BLACK
 62
256
370
-1
 48
1.0
  6
CONTINUOUS
100
AcDbLine
 10
6.7801287007874009
 20
-3.1417959448818893
 30
0.0
 11
6.7801287401574797
 21
-3.1417959842519676
 31
0.0
  0
LINE
  5
18C
100
AcDbEntity
  8
BLACK
 62
256
370
-1
 48
1.0
  6
CONTINUOUS
100
AcDbLine
 10
6.7801287401574797
 20
-3.1417959842519676
 30
0.0
 11
6.7824309842519677
 21
-3.1422538976377945
 31
0.0
  0
LINE
  5
18D
100
AcDbEntity
  8
BLACK
 62
256
370
-1
 48
1.0
  6
CONTINUOUS
100
AcDbLine
 10
6.7824309842519677
 20
-3.1422538976377945
 30
0.0
 11
6.7824311023622039
 21
-3.1422539370078733
 31
0.0
  0
LINE
  5
18E
100
AcDbEntity
  8
BLACK
 62
256
370
-1
 48
1.0
  6
CONTINUOUS
100
AcDbLine
 10
6.7824311023622039
 20
-3.1422539370078733
 30
0.0
 11
6.7824311811023614
 21
-3.1422539370078733
 31
0.0
  0
LINE
  5
18F
100
AcDbEntity
  8
BLACK
 62
256
370
-1
 48
1.0
  6
CONTINUOUS
100
AcDbLine
 10
6.7824311811023614
 20
-3.1422539370078733
 30
0.0
 11
6.8312303149606288
 21
-3.1422539370078733
 31
0.0
  0
LINE
  5
190
100
AcDbEntity
  8
BLACK
 62
256
370
-1
 48
1.0
  6
CONTINUOUS
100
AcDbLine
 10
6.8312303149606288
 20
-3.1422539370078733
 30
0.0
 11
6.8312303543307076
 21
-3.1422538976377945
 31
0.0
  0
LINE
  5
191
100
AcDbEntity
  8
BLACK
 62
256
370
-1
 48
1.0
  6
CONTINUOUS
100
AcDbLine
 10
6.8312303543307076
 20
-3.1422538976377945
 30
0.0
 11
6.8318137007874009
 21
-3.1421378740157473
 31
0.0
  0
LINE
  5
192
100
AcDbEntity
  8
BLACK
 62
256
370
-1
 48
1.0
  6
CONTINUOUS
100
AcDbLine
 10
6.8318137007874009
 20
-3.1421378740157473
 30
0.0
 11
6.8335326377952743
 21
-3.1417959842519676
 31
0.0
  0
LINE
  5
193
100
AcDbEntity
  8
BLACK
 62
256
370
-1
 48
1.0
  6
CONTINUOUS
100
AcDbLine
 10
6.8335326377952743
 20
-3.1417959842519676
 30
0.0
 11
6.8335326377952743
 21
-3.1417959448818893
 31
0.0
  0
LINE
  5
194
100
AcDbEntity
  8
BLACK
 62
256
370
-1
 48
1.0
  6
CONTINUOUS
100
AcDbLine
 10
6.8335326377952743
 20
-3.1417959448818893
 30
0.0
 11
6.8335327165354318
 21
-3.1417959448818893
 31
0.0
  0
LINE
  5
195
100
AcDbEntity
  8
BLACK
 62
256
370
-1
 48
1.0
  6
CONTINUOUS
100
AcDbLine
 10
6.8335327165354318
 20
-3.1417959448818893
 30
0.0
 11
6.8361437795275579
 21
-3.1400512598425192
 31
0.0
  0
LINE
  5
196
100
AcDbEntity
  8
BLACK
 62
256
370
-1
 48
1.0
  6
CONTINUOUS
100
AcDbLine
 10
6.8361437795275579
 20
-3.1400512598425192
 30
0.0
 11
6.8378104724409443
 21
-3.1375568503936999
 31
0.0
  0
LINE
  5
197
100
AcDbEntity
  8
BLACK
 62
256
370
-1
 48
1.0
  6
CONTINUOUS
100
AcDbLine
 10
6.8378104724409443
 20
-3.1375568503936999
 30
0.0
 11
6.8399211023622035
 21
-3.1357929527559048
 31
0.0
  0
LINE
  5
198
100
AcDbEntity
  8
BLACK
 62
256
370
-1
 48
1.0
  6
CONTINUOUS
100
AcDbLine
 10
6.8399211023622035
 20
-3.1357929527559048
 30
0.0
 11
6.8426504330708653
 21
-3.1354501574803142
 31
0.0
  0
LINE
  5
199
100
AcDbEntity
  8
BLACK
 62
256
370
-1
 48
1.0
  6
CONTINUOUS
100
AcDbLine
 10
6.8426504330708653
 20
-3.1354501574803142
 30
0.0
 11
6.8451318503936998
 21
-3.1366373228346451
 31
0.0
  0
LINE
  5
19A
100
AcDbEntity
  8
BLACK
 62
256
370
-1
 48
1.0
  6
CONTINUOUS
100
AcDbLine
 10
6.8451318503936998
 20
-3.1366373228346451
 30
0.0
 11
6.8464436614173216
 21
-3.1385631102362197
 31
0.0
  0
LINE
  5
19B
100
AcDbEntity
  8
BLACK
 62
256
370
-1
 48
1.0
  6
CONTINUOUS
100
AcDbLine
 10
6.8464436614173216
 20
-3.1385631102362197
 30
0.0
 11
6.8484309448818887
 21
-3.143891259842519
 31
0.0
  0
LINE
  5
19C
100
AcDbEntity
  8
BLACK
 62
256
370
-1
 48
1.0
  6
CONTINUOUS
100
AcDbLine
 10
6.8484309448818887
 20
-3.143891259842519
 30
0.0
 11
6.848431062992125
 21
-3.1438914566929128
 31
0.0
  0
LINE
  5
19D
100
AcDbEntity
  8
BLACK
 62
256
370
-1
 48
1.0
  6
CONTINUOUS
100
AcDbLine
 10
6.848431062992125
 20
-3.1438914566929128
 30
0.0
 11
6.8518231889763772
 21
-3.1484227165354324
 31
0.0
  0
LINE
  5
19E
100
AcDbEntity
  8
BLACK
 62
256
370
-1
 48
1.0
  6
CONTINUOUS
100
AcDbLine
 10
6.8518231889763772
 20
-3.1484227165354324
 30
0.0
 11
6.8518233070866135
 21
-3.1484228346456686
 31
0.0
  0
LINE
  5
19F
100
AcDbEntity
  8
BLACK
 62
256
370
-1
 48
1.0
  6
CONTINUOUS
100
AcDbLine
 10
6.8518233070866135
 20
-3.1484228346456686
 30
0.0
 11
6.8563545669291326
 21
-3.1518149606299204
 31
0.0
  0
LINE
  5
1A0
100
AcDbEntity
  8
BLACK
 62
256
370
-1
 48
1.0
  6
CONTINUOUS
100
AcDbLine
 10
6.8563545669291326
 20
-3.1518149606299204
 30
0.0
 11
6.8563548425196839
 21
-3.1518151181102354
 31
0.0
  0
LINE
  5
1A1
100
AcDbEntity
  8
BLACK
 62
256
370
-1
 48
1.0
  6
CONTINUOUS
100
AcDbLine
 10
6.8563548425196839
 20
-3.1518151181102354
 30
0.0
 11
6.8616582677165345
 21
-3.1537931496062983
 31
0.0
  0
LINE
  5
1A2
100
AcDbEntity
  8
BLACK
 62
256
370
-1
 48
1.0
  6
CONTINUOUS
100
AcDbLine
 10
6.8616582677165345
 20
-3.1537931496062983
 30
0.0
 11
6.8616585433070858
 21
-3.1537932283464558
 31
0.0
  0
LINE
  5
1A3
100
AcDbEntity
  8
BLACK
 62
256
370
-1
 48
1.0
  6
CONTINUOUS
100
AcDbLine
 10
6.8616585433070858
 20
-3.1537932283464558
 30
0.0
 11
6.8640021653543295
 21
-3.1540452362204716
 31
0.0
  0
LINE
  5
1A4
100
AcDbEntity
  8
BLACK
 62
256
370
-1
 48
1.0
  6
CONTINUOUS
100
AcDbLine
 10
6.8640021653543295
 20
-3.1540452362204716
 30
0.0
 11
6.8640028346456683
 21
-3.1540452755905504
 31
0.0
  0
LINE
  5
1A5
100
AcDbEntity
  8
BLACK
 62
256
370
-1
 48
1.0
  6
CONTINUOUS
100
AcDbLine
 10
6.8640028346456683
 20
-3.1540452755905504
 30
0.0
 11
6.879665354330708
 21
-3.1540452755905504
 31
0.0
  0
LINE
  5
1A6
100
AcDbEntity
  8
BLACK
 62
256
370
-1
 48
1.0
  6
CONTINUOUS
100
AcDbLine
 10
6.879665354330708
 20
-3.1540452755905504
 30
0.0
 11
6.879665354330708
 21
-3.1343602362204717
 31
0.0
  0
LINE
  5
1A7
100
AcDbEntity
  8
BLACK
 62
256
370
-1
 48
1.0
  6
CONTINUOUS
100
AcDbLine
 10
6.879665354330708
 20
-3.1343602362204717
 30
0.0
 11
6.8658858267716525
 21
-3.1343602362204717
 31
0.0
  0
LINE
  5
1A8
100
AcDbEntity
  8
BLACK
 62
256
370
-1
 48
1.0
  6
CONTINUOUS
100
AcDbLine
 10
6.8658858267716525
 20
-3.1343602362204717
 30
0.0
 11
6.8658858267716525
 21
-3.0871161417322828
 31
0.0
  0
LINE
  5
1A9
100
AcDbEntity
  8
BLACK
 62
256
370
-1
 48
1.0
  6
CONTINUOUS
100
AcDbLine
 10
6.8658858267716525
 20
-3.0871161417322828
 30
0.0
 11
6.9131299212598414
 21
-3.0871161417322828
 31
0.0
  0
LINE
  5
1AA
100
AcDbEntity
  8
BLACK
 62
256
370
-1
 48
1.0
  6
CONTINUOUS
100
AcDbLine
 10
6.9131299212598414
 20
-3.0871161417322828
 30
0.0
 11
6.9131299212598414
 21
-3.0998169291338575
 31
0.0
  0
LINE
  5
1AB
100
AcDbEntity
  8
BLACK
 62
256
370
-1
 48
1.0
  6
CONTINUOUS
100
AcDbLine
 10
6.9131299212598414
 20
-3.0998169291338575
 30
0.0
 11
6.9255078740157474
 21
-3.0998169291338575
 31
0.0
  0
LINE
  5
1AC
100
AcDbEntity
  8
BLACK
 62
256
370
-1
 48
1.0
  6
CONTINUOUS
100
AcDbLine
 10
6.9255078740157474
 20
-3.0998169291338575
 30
0.0
 11
6.926467952755905
 21
-3.0999114960629917
 31
0.0
  0
LINE
  5
1AD
100
AcDbEntity
  8
BLACK
 62
256
370
-1
 48
1.0
  6
CONTINUOUS
100
AcDbLine
 10
6.926467952755905
 20
-3.0999114960629917
 30
0.0
 11
6.9264679921259837
 21
-3.0999114960629917
 31
0.0
  0
LINE
  5
1AE
100
AcDbEntity
  8
BLACK
 62
256
370
-1
 48
1.0
  6
CONTINUOUS
100
AcDbLine
 10
6.9264679921259837
 20
-3.0999114960629917
 30
0.0
 11
6.9266856299212591
 21
-3.1000016535433064
 31
0.0
  0
LINE
  5
1AF
100
AcDbEntity
  8
BLACK
 62
256
370
-1
 48
1.0
  6
CONTINUOUS
100
AcDbLine
 10
6.9266856299212591
 20
-3.1000016535433064
 30
0.0
 11
6.9282419685039365
 21
-3.1006462992125976
 31
0.0
  0
LINE
  5
1B0
100
AcDbEntity
  8
BLACK
 62
256
370
-1
 48
1.0
  6
CONTINUOUS
100
AcDbLine
 10
6.9282419685039365
 20
-3.1006462992125976
 30
0.0
 11
6.9282421653543294
 21
-3.1006464960629914
 31
0.0
  0
LINE
  5
1B1
100
AcDbEntity
  8
BLACK
 62
256
370
-1
 48
1.0
  6
CONTINUOUS
100
AcDbLine
 10
6.9282421653543294
 20
-3.1006464960629914
 30
0.0
 11
6.9285457874015739
 21
-3.1008956692913379
 31
0.0
  0
LINE
  5
1B2
100
AcDbEntity
  8
BLACK
 62
256
370
-1
 48
1.0
  6
CONTINUOUS
100
AcDbLine
 10
6.9285457874015739
 20
-3.1008956692913379
 30
0.0
 11
6.9328149606299201
 21
-3.1008956692913379
 31
0.0
  0
LINE
  5
1B3
100
AcDbEntity
  8
BLACK
 62
256
370
-1
 48
1.0
  6
CONTINUOUS
100
AcDbLine
 10
6.9328149606299201
 20
-3.1008956692913379
 30
0.0
 11
6.9328149606299201
 21
-3.0852331496062986
 31
0.0
  0
LINE
  5
1B4
100
AcDbEntity
  8
BLACK
 62
256
370
-1
 48
1.0
  6
CONTINUOUS
100
AcDbLine
 10
6.9328149606299201
 20
-3.0852331496062986
 30
0.0
 11
6.9328149212598413
 21
-3.0852324803149598
 31
0.0
  0
LINE
  5
1B5
100
AcDbEntity
  8
BLACK
 62
256
370
-1
 48
1.0
  6
CONTINUOUS
100
AcDbLine
 10
6.9328149212598413
 20
-3.0852324803149598
 30
0.0
 11
6.9325677165354325
 21
-3.0829333070866136
 31
0.0
  0
LINE
  5
1B6
100
AcDbEntity
  8
BLACK
 62
256
370
-1
 48
1.0
  6
CONTINUOUS
100
AcDbLine
 10
6.9325677165354325
 20
-3.0829333070866136
 30
0.0
 11
6.9330561023622037
 21
-3.0802262204724404
 31
0.0
  0
LINE
  5
1B7
100
AcDbEntity
  8
BLACK
 62
256
370
-1
 48
1.0
  6
CONTINUOUS
100
AcDbLine
 10
6.9330561023622037
 20
-3.0802262204724404
 30
0.0
 11
6.9349305118110225
 21
-3.078212952755905
 31
0.0
  0
LINE
  5
1B8
100
AcDbEntity
  8
BLACK
 62
256
370
-1
 48
1.0
  6
CONTINUOUS
100
AcDbLine
 10
6.9349305118110225
 20
-3.078212952755905
 30
0.0
 11
6.9374216141732274
 21
-3.0775295275590544
 31
0.0
  0
LINE
  5
1B9
100
AcDbEntity
  8
BLACK
 62
256
370
-1
 48
1.0
  6
CONTINUOUS
100
AcDbLine
 10
6.9374216141732274
 20
-3.0775295275590544
 30
0.0
 11
7.3536595275590546
 21
-3.0775295275590544
 31
0.0
  0
LINE
  5
1BA
100
AcDbEntity
  8
BLACK
 62
256
370
-1
 48
1.0
  6
CONTINUOUS
100
AcDbLine
 10
7.3536595275590546
 20
-3.0775295275590544
 30
0.0
 11
7.3562988582677153
 21
-3.0783045275590544
 31
0.0
  0
LINE
  5
1BB
100
AcDbEntity
  8
BLACK
 62
256
370
-1
 48
1.0
  6
CONTINUOUS
100
AcDbLine
 10
7.3562988582677153
 20
-3.0783045275590544
 30
0.0
 11
7.3581002362204719
 21
-3.0803834251968496
 31
0.0
  0
LINE
  5
1BC
100
AcDbEntity
  8
BLACK
 62
256
370
-1
 48
1.0
  6
CONTINUOUS
100
AcDbLine
 10
7.3581002362204719
 20
-3.0803834251968496
 30
0.0
 11
7.358491732283464
 21
-3.0831061811023615
 31
0.0
  0
LINE
  5
1BD
100
AcDbEntity
  8
BLACK
 62
256
370
-1
 48
1.0
  6
CONTINUOUS
100
AcDbLine
 10
7.358491732283464
 20
-3.0831061811023615
 30
0.0
 11
7.357718661417322
 21
-3.0851236614173221
 31
0.0
  0
LINE
  5
1BE
100
AcDbEntity
  8
BLACK
 62
256
370
-1
 48
1.0
  6
CONTINUOUS
100
AcDbLine
 10
7.357718661417322
 20
-3.0851236614173221
 30
0.0
 11
7.3558146062992114
 21
-3.0879731889763771
 31
0.0
  0
LINE
  5
1BF
100
AcDbEntity
  8
BLACK
 62
256
370
-1
 48
1.0
  6
CONTINUOUS
100
AcDbLine
 10
7.3558146062992114
 20
-3.0879731889763771
 30
0.0
 11
7.3558145669291326
 21
-3.0879732283464558
 31
0.0
  0
LINE
  5
1C0
100
AcDbEntity
  8
BLACK
 62
256
370
-1
 48
1.0
  6
CONTINUOUS
100
AcDbLine
 10
7.3558145669291326
 20
-3.0879732283464558
 30
0.0
 11
7.3553566535433061
 21
-3.0902754724409442
 31
0.0
  0
LINE
  5
1C1
100
AcDbEntity
  8
BLACK
 62
256
370
-1
 48
1.0
  6
CONTINUOUS
100
AcDbLine
 10
7.3553566535433061
 20
-3.0902754724409442
 30
0.0
 11
7.3553566535433061
 21
-3.1312008661417314
 31
0.0
  0
LINE
  5
1C2
100
AcDbEntity
  8
BLACK
 62
256
370
-1
 48
1.0
  6
CONTINUOUS
100
AcDbLine
 10
7.3553566535433061
 20
-3.1312008661417314
 30
0.0
 11
7.3558145669291326
 21
-3.1335031102362199
 31
0.0
  0
LINE
  5
1C3
100
AcDbEntity
  8
BLACK
 62
256
370
-1
 48
1.0
  6
CONTINUOUS
100
AcDbLine
 10
7.3558145669291326
 20
-3.1335031102362199
 30
0.0
 11
7.3558146062992114
 21
-3.1335031496062986
 31
0.0
  0
LINE
  5
1C4
100
AcDbEntity
  8
BLACK
 62
256
370
-1
 48
1.0
  6
CONTINUOUS
100
AcDbLine
 10
7.3558146062992114
 20
-3.1335031496062986
 30
0.0
 11
7.3575592913385819
 21
-3.1361142519685035
 31
0.0
  0
LINE
  5
1C5
100
AcDbEntity
  8
BLACK
 62
256
370
-1
 48
1.0
  6
CONTINUOUS
100
AcDbLine
 10
7.3575592913385819
 20
-3.1361142519685035
 30
0.0
 11
7.3601703937007867
 21
-3.1378589370078735
 31
0.0
  0
LINE
  5
1C6
100
AcDbEntity
  8
BLACK
 62
256
370
-1
 48
1.0
  6
CONTINUOUS
100
AcDbLine
 10
7.3601703937007867
 20
-3.1378589370078735
 30
0.0
 11
7.3601704330708655
 21
-3.1378589763779519
 31
0.0
  0
LINE
  5
1C7
100
AcDbEntity
  8
BLACK
 62
256
370
-1
 48
1.0
  6
CONTINUOUS
100
AcDbLine
 10
7.3601704330708655
 20
-3.1378589763779519
 30
0.0
 11
7.3624726771653535
 21
-3.1383168897637788
 31
0.0
  0
LINE
  5
1C8
100
AcDbEntity
  8
BLACK
 62
256
370
-1
 48
1.0
  6
CONTINUOUS
100
AcDbLine
 10
7.3624726771653535
 20
-3.1383168897637788
 30
0.0
 11
7.3624727952755897
 21
-3.1383169291338575
 31
0.0
  0
LINE
  5
1C9
100
AcDbEntity
  8
BLACK
 62
256
370
-1
 48
1.0
  6
CONTINUOUS
100
AcDbLine
 10
7.3624727952755897
 20
-3.1383169291338575
 30
0.0
 11
7.3624728740157472
 21
-3.1383169291338575
 31
0.0
  0
LINE
  5
1CA
100
AcDbEntity
  8
BLACK
 62
256
370
-1
 48
1.0
  6
CONTINUOUS
100
AcDbLine
 10
7.3624728740157472
 20
-3.1383169291338575
 30
0.0
 11
7.4033979921259832
 21
-3.1383169291338575
 31
0.0
  0
LINE
  5
1CB
100
AcDbEntity
  8
BLACK
 62
256
370
-1
 48
1.0
  6
CONTINUOUS
100
AcDbLine
 10
7.4033979921259832
 20
-3.1383169291338575
 30
0.0
 11
7.4033980314960619
 21
-3.1383168897637788
 31
0.0
  0
LINE
  5
1CC
100
AcDbEntity
  8
BLACK
 62
256
370
-1
 48
1.0
  6
CONTINUOUS
100
AcDbLine
 10
7.4033980314960619
 20
-3.1383168897637788
 30
0.0
 11
7.4039813779527552
 21
-3.1382008661417315
 31
0.0
  0
LINE
  5
1CD
100
AcDbEntity
  8
BLACK
 62
256
370
-1
 48
1.0
  6
CONTINUOUS
100
AcDbLine
 10
7.4039813779527552
 20
-3.1382008661417315
 30
0.0
 11
7.4057003149606286
 21
-3.1378589763779519
 31
0.0
  0
LINE
  5
1CE
100
AcDbEntity
  8
BLACK
 62
256
370
-1
 48
1.0
  6
CONTINUOUS
100
AcDbLine
 10
7.4057003149606286
 20
-3.1378589763779519
 30
0.0
 11
7.4057003149606286
 21
-3.1378589370078735
 31
0.0
  0
LINE
  5
1CF
100
AcDbEntity
  8
BLACK
 62
256
370
-1
 48
1.0
  6
CONTINUOUS
100
AcDbLine
 10
7.4057003149606286
 20
-3.1378589370078735
 30
0.0
 11
7.4057003937007861
 21
-3.1378589370078735
 31
0.0
  0
LINE
  5
1D0
100
AcDbEntity
  8
BLACK
 62
256
370
-1
 48
1.0
  6
CONTINUOUS
100
AcDbLine
 10
7.4057003937007861
 20
-3.1378589370078735
 30
0.0
 11
7.4083114566929122
 21
-3.1361142519685035
 31
0.0
  0
LINE
  5
1D1
100
AcDbEntity
  8
BLACK
 62
256
370
-1
 48
1.0
  6
CONTINUOUS
100
AcDbLine
 10
7.4083114566929122
 20
-3.1361142519685035
 30
0.0
 11
7.4100561417322828
 21
-3.1335031889763774
 31
0.0
  0
LINE
  5
1D2
100
AcDbEntity
  8
BLACK
 62
256
370
-1
 48
1.0
  6
CONTINUOUS
100
AcDbLine
 10
7.4100561417322828
 20
-3.1335031889763774
 30
0.0
 11
7.4100561417322828
 21
-3.1335031102362199
 31
0.0
  0
LINE
  5
1D3
100
AcDbEntity
  8
BLACK
 62
256
370
-1
 48
1.0
  6
CONTINUOUS
100
AcDbLine
 10
7.4100561417322828
 20
-3.1335031102362199
 30
0.0
 11
7.4100561811023615
 21
-3.1335031102362199
 31
0.0
  0
LINE
  5
1D4
100
AcDbEntity
  8
BLACK
 62
256
370
-1
 48
1.0
  6
CONTINUOUS
100
AcDbLine
 10
7.4100561811023615
 20
-3.1335031102362199
 30
0.0
 11
7.410514094488188
 21
-3.1312008661417314
 31
0.0
  0
LINE
  5
1D5
100
AcDbEntity
  8
BLACK
 62
256
370
-1
 48
1.0
  6
CONTINUOUS
100
AcDbLine
 10
7.410514094488188
 20
-3.1312008661417314
 30
0.0
 11
7.4105141338582667
 21
-3.1312007874015739
 31
0.0
  0
LINE
  5
1D6
100
AcDbEntity
  8
BLACK
 62
256
370
-1
 48
1.0
  6
CONTINUOUS
100
AcDbLine
 10
7.4105141338582667
 20
-3.1312007874015739
 30
0.0
 11
7.4105141338582667
 21
-3.0902755511811018
 31
0.0
  0
LINE
  5
1D7
100
AcDbEntity
  8
BLACK
 62
256
370
-1
 48
1.0
  6
CONTINUOUS
100
AcDbLine
 10
7.4105141338582667
 20
-3.0902755511811018
 30
0.0
 11
7.410514094488188
 21
-3.0902754724409442
 31
0.0
  0
LINE
  5
1D8
100
AcDbEntity
  8
BLACK
 62
256
370
-1
 48
1.0
  6
CONTINUOUS
100
AcDbLine
 10
7.410514094488188
 20
-3.0902754724409442
 30
0.0
 11
7.4100561811023615
 21
-3.0879732283464558
 31
0.0
  0
LINE
  5
1D9
100
AcDbEntity
  8
BLACK
 62
256
370
-1
 48
1.0
  6
CONTINUOUS
100
AcDbLine
 10
7.4100561811023615
 20
-3.0879732283464558
 30
0.0
 11
7.4100561417322828
 21
-3.0879731889763771
 31
0.0
  0
LINE
  5
1DA
100
AcDbEntity
  8
BLACK
 62
256
370
-1
 48
1.0
  6
CONTINUOUS
100
AcDbLine
 10
7.4100561417322828
 20
-3.0879731889763771
 30
0.0
 11
7.4081521259842509
 21
-3.0851236614173221
 31
0.0
  0
LINE
  5
1DB
100
AcDbEntity
  8
BLACK
 62
256
370
-1
 48
1.0
  6
CONTINUOUS
100
AcDbLine
 10
7.4081521259842509
 20
-3.0851236614173221
 30
0.0
 11
7.4080325196850385
 21
-3.0847417322834638
 31
0.0
  0
LINE
  5
1DC
100
AcDbEntity
  8
BLACK
 62
256
370
-1
 48
1.0
  6
CONTINUOUS
100
AcDbLine
 10
7.4080325196850385
 20
-3.0847417322834638
 30
0.0
 11
7.4077705511811018
 21
-3.0844394094488181
 31
0.0
  0
LINE
  5
1DD
100
AcDbEntity
  8
BLACK
 62
256
370
-1
 48
1.0
  6
CONTINUOUS
100
AcDbLine
 10
7.4077705511811018
 20
-3.0844394094488181
 30
0.0
 11
7.4076284645669279
 21
-3.0834512992125975
 31
0.0
  0
LINE
  5
1DE
100
AcDbEntity
  8
BLACK
 62
256
370
-1
 48
1.0
  6
CONTINUOUS
100
AcDbLine
 10
7.4076284645669279
 20
-3.0834512992125975
 30
0.0
 11
7.4073301574803141
 21
-3.0824985826771645
 31
0.0
  0
LINE
  5
1DF
100
AcDbEntity
  8
BLACK
 62
256
370
-1
 48
1.0
  6
CONTINUOUS
100
AcDbLine
 10
7.4073301574803141
 20
-3.0824985826771645
 30
0.0
 11
7.4074359842519675
 21
-3.0821127165354323
 31
0.0
  0
LINE
  5
1E0
100
AcDbEntity
  8
BLACK
 62
256
370
-1
 48
1.0
  6
CONTINUOUS
100
AcDbLine
 10
7.4074359842519675
 20
-3.0821127165354323
 30
0.0
 11
7.4073790551181089
 21
-3.0817166535433063
 31
0.0
  0
LINE
  5
1E1
100
AcDbEntity
  8
BLACK
 62
256
370
-1
 48
1.0
  6
CONTINUOUS
100
AcDbLine
 10
7.4073790551181089
 20
-3.0817166535433063
 30
0.0
 11
7.4077937795275579
 21
-3.080808503937007
 31
0.0
  0
LINE
  5
1E2
100
AcDbEntity
  8
BLACK
 62
256
370
-1
 48
1.0
  6
CONTINUOUS
100
AcDbLine
 10
7.4077937795275579
 20
-3.080808503937007
 30
0.0
 11
7.4080578740157472
 21
-3.0798458267716526
 31
0.0
  0
LINE
  5
1E3
100
AcDbEntity
  8
BLACK
 62
256
370
-1
 48
1.0
  6
CONTINUOUS
100
AcDbLine
 10
7.4080578740157472
 20
-3.0798458267716526
 30
0.0
 11
7.4083555118110223
 21
-3.0795784251968499
 31
0.0
  0
LINE
  5
1E4
100
AcDbEntity
  8
BLACK
 62
256
370
-1
 48
1.0
  6
CONTINUOUS
100
AcDbLine
 10
7.4083555118110223
 20
-3.0795784251968499
 30
0.0
 11
7.4085217716535423
 21
-3.0792144488188971
 31
0.0
  0
LINE
  5
1E5
100
AcDbEntity
  8
BLACK
 62
256
370
-1
 48
1.0
  6
CONTINUOUS
100
AcDbLine
 10
7.4085217716535423
 20
-3.0792144488188971
 30
0.0
 11
7.4093616141732275
 21
-3.0786746850393696
 31
0.0
  0
LINE
  5
1E6
100
AcDbEntity
  8
BLACK
 62
256
370
-1
 48
1.0
  6
CONTINUOUS
100
AcDbLine
 10
7.4093616141732275
 20
-3.0786746850393696
 30
0.0
 11
7.4101042913385822
 21
-3.078007598425196
 31
0.0
  0
LINE
  5
1E7
100
AcDbEntity
  8
BLACK
 62
256
370
-1
 48
1.0
  6
CONTINUOUS
100
AcDbLine
 10
7.4101042913385822
 20
-3.078007598425196
 30
0.0
 11
7.410560866141731
 21
-3.0779039763779519
 31
0.0
  0
LINE
  5
1E8
100
AcDbEntity
  8
BLACK
 62
256
370
-1
 48
1.0
  6
CONTINUOUS
100
AcDbLine
 10
7.410560866141731
 20
-3.0779039763779519
 30
0.0
 11
7.4108358661417313
 21
-3.0777272834645664
 31
0.0
  0
LINE
  5
1E9
100
AcDbEntity
  8
BLACK
 62
256
370
-1
 48
1.0
  6
CONTINUOUS
100
AcDbLine
 10
7.4108358661417313
 20
-3.0777272834645664
 30
0.0
 11
7.4122112598425192
 21
-3.0775295275590544
 31
0.0
  0
LINE
  5
1EA
100
AcDbEntity
  8
BLACK
 62
256
370
-1
 48
1.0
  6
CONTINUOUS
100
AcDbLine
 10
7.4122112598425192
 20
-3.0775295275590544
 30
0.0
 11
7.4211803149606288
 21
-3.0775295275590544
 31
0.0
  0
LINE
  5
1EB
100
AcDbEntity
  8
BLACK
 62
256
370
-1
 48
1.0
  6
CONTINUOUS
100
AcDbLine
 10
7.4211803149606288
 20
-3.0775295275590544
 30
0.0
 11
7.4238196456692904
 21
-3.0783045275590544
 31
0.0
  0
LINE
  5
1EC
100
AcDbEntity
  8
BLACK
 62
256
370
-1
 48
1.0
  6
CONTINUOUS
100
AcDbLine
 10
7.4238196456692904
 20
-3.0783045275590544
 30
0.0
 11
7.4256210236220461
 21
-3.0803834251968496
 31
0.0
  0
LINE
  5
1ED
100
AcDbEntity
  8
BLACK
 62
256
370
-1
 48
1.0
  6
CONTINUOUS
100
AcDbLine
 10
7.4256210236220461
 20
-3.0803834251968496
 30
0.0
 11
7.4260125196850382
 21
-3.0831061811023615
 31
0.0
  0
LINE
  5
1EE
100
AcDbEntity
  8
BLACK
 62
256
370
-1
 48
1.0
  6
CONTINUOUS
100
AcDbLine
 10
7.4260125196850382
 20
-3.0831061811023615
 30
0.0
 11
7.4258811811023611
 21
-3.0835849212598418
 31
0.0
  0
LINE
  5
1EF
100
AcDbEntity
  8
BLACK
 62
256
370
-1
 48
1.0
  6
CONTINUOUS
100
AcDbLine
 10
7.4258811811023611
 20
-3.0835849212598418
 30
0.0
 11
7.4253334645669282
 21
-3.0863384645669285
 31
0.0
  0
LINE
  5
1F0
100
AcDbEntity
  8
BLACK
 62
256
370
-1
 48
1.0
  6
CONTINUOUS
100
AcDbLine
 10
7.4253334645669282
 20
-3.0863384645669285
 30
0.0
 11
7.4253334645669282
 21
-3.1351378740157472
 31
0.0
  0
LINE
  5
1F1
100
AcDbEntity
  8
BLACK
 62
256
370
-1
 48
1.0
  6
CONTINUOUS
100
AcDbLine
 10
7.4253334645669282
 20
-3.1351378740157472
 30
0.0
 11
7.4257913779527547
 21
-3.1374401181102356
 31
0.0
  0
LINE
  5
1F2
100
AcDbEntity
  8
BLACK
 62
256
370
-1
 48
1.0
  6
CONTINUOUS
100
AcDbLine
 10
7.4257913779527547
 20
-3.1374401181102356
 30
0.0
 11
7.4257914173228334
 21
-3.1374401574803144
 31
0.0
  0
LINE
  5
1F3
100
AcDbEntity
  8
BLACK
 62
256
370
-1
 48
1.0
  6
CONTINUOUS
100
AcDbLine
 10
7.4257914173228334
 20
-3.1374401574803144
 30
0.0
 11
7.427536102362204
 21
-3.1400512598425192
 31
0.0
  0
LINE
  5
1F4
100
AcDbEntity
  8
BLACK
 62
256
370
-1
 48
1.0
  6
CONTINUOUS
100
AcDbLine
 10
7.427536102362204
 20
-3.1400512598425192
 30
0.0
 11
7.4301472047244088
 21
-3.1417959448818893
 31
0.0
  0
LINE
  5
1F5
100
AcDbEntity
  8
BLACK
 62
256
370
-1
 48
1.0
  6
CONTINUOUS
100
AcDbLine
 10
7.4301472047244088
 20
-3.1417959448818893
 30
0.0
 11
7.4301472440944876
 21
-3.1417959842519676
 31
0.0
  0
LINE
  5
1F6
100
AcDbEntity
  8
BLACK
 62
256
370
-1
 48
1.0
  6
CONTINUOUS
100
AcDbLine
 10
7.4301472440944876
 20
-3.1417959842519676
 30
0.0
 11
7.4324494881889756
 21
-3.1422538976377945
 31
0.0
  0
LINE
  5
1F7
100
AcDbEntity
  8
BLACK
 62
256
370
-1
 48
1.0
  6
CONTINUOUS
100
AcDbLine
 10
7.4324494881889756
 20
-3.1422538976377945
 30
0.0
 11
7.4324496062992118
 21
-3.1422539370078733
 31
0.0
  0
LINE
  5
1F8
100
AcDbEntity
  8
BLACK
 62
256
370
-1
 48
1.0
  6
CONTINUOUS
100
AcDbLine
 10
7.4324496062992118
 20
-3.1422539370078733
 30
0.0
 11
7.4324496850393693
 21
-3.1422539370078733
 31
0.0
  0
LINE
  5
1F9
100
AcDbEntity
  8
BLACK
 62
256
370
-1
 48
1.0
  6
CONTINUOUS
100
AcDbLine
 10
7.4324496850393693
 20
-3.1422539370078733
 30
0.0
 11
7.4812488188976367
 21
-3.1422539370078733
 31
0.0
  0
LINE
  5
1FA
100
AcDbEntity
  8
BLACK
 62
256
370
-1
 48
1.0
  6
CONTINUOUS
100
AcDbLine
 10
7.4812488188976367
 20
-3.1422539370078733
 30
0.0
 11
7.4812488582677155
 21
-3.1422538976377945
 31
0.0
  0
LINE
  5
1FB
100
AcDbEntity
  8
BLACK
 62
256
370
-1
 48
1.0
  6
CONTINUOUS
100
AcDbLine
 10
7.4812488582677155
 20
-3.1422538976377945
 30
0.0
 11
7.4818322047244088
 21
-3.1421378740157473
 31
0.0
  0
LINE
  5
1FC
100
AcDbEntity
  8
BLACK
 62
256
370
-1
 48
1.0
  6
CONTINUOUS
100
AcDbLine
 10
7.4818322047244088
 20
-3.1421378740157473
 30
0.0
 11
7.4835511417322822
 21
-3.1417959842519676
 31
0.0
  0
LINE
  5
1FD
100
AcDbEntity
  8
BLACK
 62
256
370
-1
 48
1.0
  6
CONTINUOUS
100
AcDbLine
 10
7.4835511417322822
 20
-3.1417959842519676
 30
0.0
 11
7.4835511417322822
 21
-3.1417959448818893
 31
0.0
  0
LINE
  5
1FE
100
AcDbEntity
  8
BLACK
 62
256
370
-1
 48
1.0
  6
CONTINUOUS
100
AcDbLine
 10
7.4835511417322822
 20
-3.1417959448818893
 30
0.0
 11
7.4835512204724397
 21
-3.1417959448818893
 31
0.0
  0
LINE
  5
1FF
100
AcDbEntity
  8
BLACK
 62
256
370
-1
 48
1.0
  6
CONTINUOUS
100
AcDbLine
 10
7.4835512204724397
 20
-3.1417959448818893
 30
0.0
 11
7.4861622834645658
 21
-3.1400512598425192
 31
0.0
  0
LINE
  5
200
100
AcDbEntity
  8
BLACK
 62
256
370
-1
 48
1.0
  6
CONTINUOUS
100
AcDbLine
 10
7.4861622834645658
 20
-3.1400512598425192
 30
0.0
 11
7.4878289763779522
 21
-3.1375568503936999
 31
0.0
  0
LINE
  5
201
100
AcDbEntity
  8
BLACK
 62
256
370
-1
 48
1.0
  6
CONTINUOUS
100
AcDbLine
 10
7.4878289763779522
 20
-3.1375568503936999
 30
0.0
 11
7.4899396062992114
 21
-3.1357929527559048
 31
0.0
  0
LINE
  5
202
100
AcDbEntity
  8
BLACK
 62
256
370
-1
 48
1.0
  6
CONTINUOUS
100
AcDbLine
 10
7.4899396062992114
 20
-3.1357929527559048
 30
0.0
 11
7.4926689370078732
 21
-3.1354501574803142
 31
0.0
  0
LINE
  5
203
100
AcDbEntity
  8
BLACK
 62
256
370
-1
 48
1.0
  6
CONTINUOUS
100
AcDbLine
 10
7.4926689370078732
 20
-3.1354501574803142
 30
0.0
 11
7.4951503543307076
 21
-3.1366373228346451
 31
0.0
  0
LINE
  5
204
100
AcDbEntity
  8
BLACK
 62
256
370
-1
 48
1.0
  6
CONTINUOUS
100
AcDbLine
 10
7.4951503543307076
 20
-3.1366373228346451
 30
0.0
 11
7.4964621653543295
 21
-3.1385631102362197
 31
0.0
  0
LINE
  5
205
100
AcDbEntity
  8
BLACK
 62
256
370
-1
 48
1.0
  6
CONTINUOUS
100
AcDbLine
 10
7.4964621653543295
 20
-3.1385631102362197
 30
0.0
 11
7.4984494488188966
 21
-3.143891259842519
 31
0.0
  0
LINE
  5
206
100
AcDbEntity
  8
BLACK
 62
256
370
-1
 48
1.0
  6
CONTINUOUS
100
AcDbLine
 10
7.4984494488188966
 20
-3.143891259842519
 30
0.0
 11
7.4984495669291329
 21
-3.1438914566929128
 31
0.0
  0
LINE
  5
207
100
AcDbEntity
  8
BLACK
 62
256
370
-1
 48
1.0
  6
CONTINUOUS
100
AcDbLine
 10
7.4984495669291329
 20
-3.1438914566929128
 30
0.0
 11
7.5018416929133851
 21
-3.1484227165354324
 31
0.0
  0
LINE
  5
208
100
AcDbEntity
  8
BLACK
 62
256
370
-1
 48
1.0
  6
CONTINUOUS
100
AcDbLine
 10
7.5018416929133851
 20
-3.1484227165354324
 30
0.0
 11
7.5018418110236214
 21
-3.1484228346456686
 31
0.0
  0
LINE
  5
209
100
AcDbEntity
  8
BLACK
 62
256
370
-1
 48
1.0
  6
CONTINUOUS
100
AcDbLine
 10
7.5018418110236214
 20
-3.1484228346456686
 30
0.0
 11
7.5063730708661405
 21
-3.1518149606299204
 31
0.0
  0
LINE
  5
20A
100
AcDbEntity
  8
BLACK
 62
256
370
-1
 48
1.0
  6
CONTINUOUS
100
AcDbLine
 10
7.5063730708661405
 20
-3.1518149606299204
 30
0.0
 11
7.5063733464566917
 21
-3.1518151181102354
 31
0.0
  0
LINE
  5
20B
100
AcDbEntity
  8
BLACK
 62
256
370
-1
 48
1.0
  6
CONTINUOUS
100
AcDbLine
 10
7.5063733464566917
 20
-3.1518151181102354
 30
0.0
 11
7.5116767716535424
 21
-3.1537931496062983
 31
0.0
  0
LINE
  5
20C
100
AcDbEntity
  8
BLACK
 62
256
370
-1
 48
1.0
  6
CONTINUOUS
100
AcDbLine
 10
7.5116767716535424
 20
-3.1537931496062983
 30
0.0
 11
7.5116770472440937
 21
-3.1537932283464558
 31
0.0
  0
LINE
  5
20D
100
AcDbEntity
  8
BLACK
 62
256
370
-1
 48
1.0
  6
CONTINUOUS
100
AcDbLine
 10
7.5116770472440937
 20
-3.1537932283464558
 30
0.0
 11
7.5140206692913374
 21
-3.1540452362204716
 31
0.0
  0
LINE
  5
20E
100
AcDbEntity
  8
BLACK
 62
256
370
-1
 48
1.0
  6
CONTINUOUS
100
AcDbLine
 10
7.5140206692913374
 20
-3.1540452362204716
 30
0.0
 11
7.5140213385826762
 21
-3.1540452755905504
 31
0.0
  0
LINE
  5
20F
100
AcDbEntity
  8
BLACK
 62
256
370
-1
 48
1.0
  6
CONTINUOUS
100
AcDbLine
 10
7.5140213385826762
 20
-3.1540452755905504
 30
0.0
 11
7.5296838582677159
 21
-3.1540452755905504
 31
0.0
  0
LINE
  5
210
100
AcDbEntity
  8
BLACK
 62
256
370
-1
 48
1.0
  6
CONTINUOUS
100
AcDbLine
 10
7.5296838582677159
 20
-3.1540452755905504
 30
0.0
 11
7.5296838582677159
 21
-3.1343602362204717
 31
0.0
  0
LINE
  5
211
100
AcDbEntity
  8
BLACK
 62
256
370
-1
 48
1.0
  6
CONTINUOUS
100
AcDbLine
 10
7.5296838582677159
 20
-3.1343602362204717
 30
0.0
 11
7.5159043307086604
 21
-3.1343602362204717
 31
0.0
  0
LINE
  5
212
100
AcDbEntity
  8
BLACK
 62
256
370
-1
 48
1.0
  6
CONTINUOUS
100
AcDbLine
 10
7.5159043307086604
 20
-3.1343602362204717
 30
0.0
 11
7.5159043307086604
 21
-3.0871161417322828
 31
0.0
  0
LINE
  5
213
100
AcDbEntity
  8
BLACK
 62
256
370
-1
 48
1.0
  6
CONTINUOUS
100
AcDbLine
 10
7.5159043307086604
 20
-3.0871161417322828
 30
0.0
 11
7.5631484251968493
 21
-3.0871161417322828
 31
0.0
  0
LINE
  5
214
100
AcDbEntity
  8
BLACK
 62
256
370
-1
 48
1.0
  6
CONTINUOUS
100
AcDbLine
 10
7.5631484251968493
 20
-3.0871161417322828
 30
0.0
 11
7.5631484251968493
 21
-3.1008956692913379
 31
0.0
  0
LINE
  5
215
100
AcDbEntity
  8
BLACK
 62
256
370
-1
 48
1.0
  6
CONTINUOUS
100
AcDbLine
 10
7.5631484251968493
 20
-3.1008956692913379
 30
0.0
 11
7.582833464566928
 21
-3.1008956692913379
 31
0.0
  0
LINE
  5
216
100
AcDbEntity
  8
BLACK
 62
256
370
-1
 48
1.0
  6
CONTINUOUS
100
AcDbLine
 10
7.582833464566928
 20
-3.1008956692913379
 30
0.0
 11
7.582833464566928
 21
-3.0852331496062986
 31
0.0
  0
LINE
  5
217
100
AcDbEntity
  8
BLACK
 62
256
370
-1
 48
1.0
  6
CONTINUOUS
100
AcDbLine
 10
7.582833464566928
 20
-3.0852331496062986
 30
0.0
 11
7.5828334251968492
 21
-3.0852324803149598
 31
0.0
  0
LINE
  5
218
100
AcDbEntity
  8
BLACK
 62
256
370
-1
 48
1.0
  6
CONTINUOUS
100
AcDbLine
 10
7.5828334251968492
 20
-3.0852324803149598
 30
0.0
 11
7.5825862204724404
 21
-3.0829333070866136
 31
0.0
  0
LINE
  5
219
100
AcDbEntity
  8
BLACK
 62
256
370
-1
 48
1.0
  6
CONTINUOUS
100
AcDbLine
 10
7.5825862204724404
 20
-3.0829333070866136
 30
0.0
 11
7.5830746062992116
 21
-3.0802262204724404
 31
0.0
  0
LINE
  5
21A
100
AcDbEntity
  8
BLACK
 62
256
370
-1
 48
1.0
  6
CONTINUOUS
100
AcDbLine
 10
7.5830746062992116
 20
-3.0802262204724404
 30
0.0
 11
7.5849490157480304
 21
-3.078212952755905
 31
0.0
  0
LINE
  5
21B
100
AcDbEntity
  8
BLACK
 62
256
370
-1
 48
1.0
  6
CONTINUOUS
100
AcDbLine
 10
7.5849490157480304
 20
-3.078212952755905
 30
0.0
 11
7.5874401181102353
 21
-3.0775295275590544
 31
0.0
  0
LINE
  5
21C
100
AcDbEntity
  8
BLACK
 62
256
370
-1
 48
1.0
  6
CONTINUOUS
100
AcDbLine
 10
7.5874401181102353
 20
-3.0775295275590544
 30
0.0
 11
7.8836178346456682
 21
-3.0775295275590544
 31
0.0
  0
LINE
  5
21D
100
AcDbEntity
  8
BLACK
 62
256
370
-1
 48
1.0
  6
CONTINUOUS
100
AcDbLine
 10
7.8836178346456682
 20
-3.0775295275590544
 30
0.0
 11
7.8862571653543299
 21
-3.0783045275590544
 31
0.0
  0
LINE
  5
21E
100
AcDbEntity
  8
BLACK
 62
256
370
-1
 48
1.0
  6
CONTINUOUS
100
AcDbLine
 10
7.8862571653543299
 20
-3.0783045275590544
 30
0.0
 11
7.8880585433070856
 21
-3.0803834251968496
 31
0.0
  0
LINE
  5
21F
100
AcDbEntity
  8
BLACK
 62
256
370
-1
 48
1.0
  6
CONTINUOUS
100
AcDbLine
 10
7.8880585433070856
 20
-3.0803834251968496
 30
0.0
 11
7.8884500393700776
 21
-3.0831061811023615
 31
0.0
  0
LINE
  5
220
100
AcDbEntity
  8
BLACK
 62
256
370
-1
 48
1.0
  6
CONTINUOUS
100
AcDbLine
 10
7.8884500393700776
 20
-3.0831061811023615
 30
0.0
 11
7.8876769685039356
 21
-3.0851236614173221
 31
0.0
  0
LINE
  5
221
100
AcDbEntity
  8
BLACK
 62
256
370
-1
 48
1.0
  6
CONTINUOUS
100
AcDbLine
 10
7.8876769685039356
 20
-3.0851236614173221
 30
0.0
 11
7.8857729133858259
 21
-3.0879731889763771
 31
0.0
  0
LINE
  5
222
100
AcDbEntity
  8
BLACK
 62
256
370
-1
 48
1.0
  6
CONTINUOUS
100
AcDbLine
 10
7.8857729133858259
 20
-3.0879731889763771
 30
0.0
 11
7.8857728740157471
 21
-3.0879732283464558
 31
0.0
  0
LINE
  5
223
100
AcDbEntity
  8
BLACK
 62
256
370
-1
 48
1.0
  6
CONTINUOUS
100
AcDbLine
 10
7.8857728740157471
 20
-3.0879732283464558
 30
0.0
 11
7.8853149606299207
 21
-3.0902754724409442
 31
0.0
  0
LINE
  5
224
100
AcDbEntity
  8
BLACK
 62
256
370
-1
 48
1.0
  6
CONTINUOUS
100
AcDbLine
 10
7.8853149606299207
 20
-3.0902754724409442
 30
0.0
 11
7.8853149606299207
 21
-3.1312008661417314
 31
0.0
  0
LINE
  5
225
100
AcDbEntity
  8
BLACK
 62
256
370
-1
 48
1.0
  6
CONTINUOUS
100
AcDbLine
 10
7.8853149606299207
 20
-3.1312008661417314
 30
0.0
 11
7.8857728740157471
 21
-3.1335031102362199
 31
0.0
  0
LINE
  5
226
100
AcDbEntity
  8
BLACK
 62
256
370
-1
 48
1.0
  6
CONTINUOUS
100
AcDbLine
 10
7.8857728740157471
 20
-3.1335031102362199
 30
0.0
 11
7.8857729133858259
 21
-3.1335031496062986
 31
0.0
  0
LINE
  5
227
100
AcDbEntity
  8
BLACK
 62
256
370
-1
 48
1.0
  6
CONTINUOUS
100
AcDbLine
 10
7.8857729133858259
 20
-3.1335031496062986
 30
0.0
 11
7.8875175984251955
 21
-3.1361142519685035
 31
0.0
  0
LINE
  5
228
100
AcDbEntity
  8
BLACK
 62
256
370
-1
 48
1.0
  6
CONTINUOUS
100
AcDbLine
 10
7.8875175984251955
 20
-3.1361142519685035
 30
0.0
 11
7.8901287007874004
 21
-3.1378589370078735
 31
0.0
  0
LINE
  5
229
100
AcDbEntity
  8
BLACK
 62
256
370
-1
 48
1.0
  6
CONTINUOUS
100
AcDbLine
 10
7.8901287007874004
 20
-3.1378589370078735
 30
0.0
 11
7.8901287401574791
 21
-3.1378589763779519
 31
0.0
  0
LINE
  5
22A
100
AcDbEntity
  8
BLACK
 62
256
370
-1
 48
1.0
  6
CONTINUOUS
100
AcDbLine
 10
7.8901287401574791
 20
-3.1378589763779519
 30
0.0
 11
7.892430984251968
 21
-3.1383168897637788
 31
0.0
  0
LINE
  5
22B
100
AcDbEntity
  8
BLACK
 62
256
370
-1
 48
1.0
  6
CONTINUOUS
100
AcDbLine
 10
7.892430984251968
 20
-3.1383168897637788
 30
0.0
 11
7.8924311023622034
 21
-3.1383169291338575
 31
0.0
  0
LINE
  5
22C
100
AcDbEntity
  8
BLACK
 62
256
370
-1
 48
1.0
  6
CONTINUOUS
100
AcDbLine
 10
7.8924311023622034
 20
-3.1383169291338575
 30
0.0
 11
7.8924311811023609
 21
-3.1383169291338575
 31
0.0
  0
LINE
  5
22D
100
AcDbEntity
  8
BLACK
 62
256
370
-1
 48
1.0
  6
CONTINUOUS
100
AcDbLine
 10
7.8924311811023609
 20
-3.1383169291338575
 30
0.0
 11
7.9333562992125977
 21
-3.1383169291338575
 31
0.0
  0
LINE
  5
22E
100
AcDbEntity
  8
BLACK
 62
256
370
-1
 48
1.0
  6
CONTINUOUS
100
AcDbLine
 10
7.9333562992125977
 20
-3.1383169291338575
 30
0.0
 11
7.9333563385826764
 21
-3.1383168897637788
 31
0.0
  0
LINE
  5
22F
100
AcDbEntity
  8
BLACK
 62
256
370
-1
 48
1.0
  6
CONTINUOUS
100
AcDbLine
 10
7.9333563385826764
 20
-3.1383168897637788
 30
0.0
 11
7.9339396850393689
 21
-3.1382008661417315
 31
0.0
  0
LINE
  5
230
100
AcDbEntity
  8
BLACK
 62
256
370
-1
 48
1.0
  6
CONTINUOUS
100
AcDbLine
 10
7.9339396850393689
 20
-3.1382008661417315
 30
0.0
 11
7.9356586220472431
 21
-3.1378589763779519
 31
0.0
  0
LINE
  5
231
100
AcDbEntity
  8
BLACK
 62
256
370
-1
 48
1.0
  6
CONTINUOUS
100
AcDbLine
 10
7.9356586220472431
 20
-3.1378589763779519
 30
0.0
 11
7.9356586220472431
 21
-3.1378589370078735
 31
0.0
  0
LINE
  5
232
100
AcDbEntity
  8
BLACK
 62
256
370
-1
 48
1.0
  6
CONTINUOUS
100
AcDbLine
 10
7.9356586220472431
 20
-3.1378589370078735
 30
0.0
 11
7.9356587007874007
 21
-3.1378589370078735
 31
0.0
  0
LINE
  5
233
100
AcDbEntity
  8
BLACK
 62
256
370
-1
 48
1.0
  6
CONTINUOUS
100
AcDbLine
 10
7.9356587007874007
 20
-3.1378589370078735
 30
0.0
 11
7.9382697637795268
 21
-3.1361142519685035
 31
0.0
  0
LINE
  5
234
100
AcDbEntity
  8
BLACK
 62
256
370
-1
 48
1.0
  6
CONTINUOUS
100
AcDbLine
 10
7.9382697637795268
 20
-3.1361142519685035
 30
0.0
 11
7.9400144488188964
 21
-3.1335031889763774
 31
0.0
  0
LINE
  5
235
100
AcDbEntity
  8
BLACK
 62
256
370
-1
 48
1.0
  6
CONTINUOUS
100
AcDbLine
 10
7.9400144488188964
 20
-3.1335031889763774
 30
0.0
 11
7.9400144488188964
 21
-3.1335031102362199
 31
0.0
  0
LINE
  5
236
100
AcDbEntity
  8
BLACK
 62
256
370
-1
 48
1.0
  6
CONTINUOUS
100
AcDbLine
 10
7.9400144488188964
 20
-3.1335031102362199
 30
0.0
 11
7.9400144881889752
 21
-3.1335031102362199
 31
0.0
  0
LINE
  5
237
100
AcDbEntity
  8
BLACK
 62
256
370
-1
 48
1.0
  6
CONTINUOUS
100
AcDbLine
 10
7.9400144881889752
 20
-3.1335031102362199
 30
0.0
 11
7.9404724015748025
 21
-3.1312008661417314
 31
0.0
  0
LINE
  5
238
100
AcDbEntity
  8
BLACK
 62
256
370
-1
 48
1.0
  6
CONTINUOUS
100
AcDbLine
 10
7.9404724015748025
 20
-3.1312008661417314
 30
0.0
 11
7.9404724409448812
 21
-3.1312007874015739
 31
0.0
  0
LINE
  5
239
100
AcDbEntity
  8
BLACK
 62
256
370
-1
 48
1.0
  6
CONTINUOUS
100
AcDbLine
 10
7.9404724409448812
 20
-3.1312007874015739
 30
0.0
 11
7.9404724409448812
 21
-3.0902755511811018
 31
0.0
  0
LINE
  5
23A
100
AcDbEntity
  8
BLACK
 62
256
370
-1
 48
1.0
  6
CONTINUOUS
100
AcDbLine
 10
7.9404724409448812
 20
-3.0902755511811018
 30
0.0
 11
7.9404724015748025
 21
-3.0902754724409442
 31
0.0
  0
LINE
  5
23B
100
AcDbEntity
  8
BLACK
 62
256
370
-1
 48
1.0
  6
CONTINUOUS
100
AcDbLine
 10
7.9404724015748025
 20
-3.0902754724409442
 30
0.0
 11
7.9400144881889752
 21
-3.0879732283464558
 31
0.0
  0
LINE
  5
23C
100
AcDbEntity
  8
BLACK
 62
256
370
-1
 48
1.0
  6
CONTINUOUS
100
AcDbLine
 10
7.9400144881889752
 20
-3.0879732283464558
 30
0.0
 11
7.9400144488188964
 21
-3.0879731889763771
 31
0.0
  0
LINE
  5
23D
100
AcDbEntity
  8
BLACK
 62
256
370
-1
 48
1.0
  6
CONTINUOUS
100
AcDbLine
 10
7.9400144488188964
 20
-3.0879731889763771
 30
0.0
 11
7.9381104330708654
 21
-3.0851236614173221
 31
0.0
  0
LINE
  5
23E
100
AcDbEntity
  8
BLACK
 62
256
370
-1
 48
1.0
  6
CONTINUOUS
100
AcDbLine
 10
7.9381104330708654
 20
-3.0851236614173221
 30
0.0
 11
7.9372884645669286
 21
-3.0824985826771645
 31
0.0
  0
LINE
  5
23F
100
AcDbEntity
  8
BLACK
 62
256
370
-1
 48
1.0
  6
CONTINUOUS
100
AcDbLine
 10
7.9372884645669286
 20
-3.0824985826771645
 30
0.0
 11
7.9380161811023608
 21
-3.0798458267716526
 31
0.0
  0
LINE
  5
240
100
AcDbEntity
  8
BLACK
 62
256
370
-1
 48
1.0
  6
CONTINUOUS
100
AcDbLine
 10
7.9380161811023608
 20
-3.0798458267716526
 30
0.0
 11
7.9400625984251958
 21
-3.078007598425196
 31
0.0
  0
LINE
  5
241
100
AcDbEntity
  8
BLACK
 62
256
370
-1
 48
1.0
  6
CONTINUOUS
100
AcDbLine
 10
7.9400625984251958
 20
-3.078007598425196
 30
0.0
 11
7.9421695669291328
 21
-3.0775295275590544
 31
0.0
  0
LINE
  5
242
100
AcDbEntity
  8
BLACK
 62
256
370
-1
 48
1.0
  6
CONTINUOUS
100
AcDbLine
 10
7.9421695669291328
 20
-3.0775295275590544
 30
0.0
 11
7.9520133858267705
 21
-3.0775295275590544
 31
0.0
  0
LINE
  5
243
100
AcDbEntity
  8
BLACK
 62
256
370
-1
 48
1.0
  6
CONTINUOUS
100
AcDbLine
 10
7.9520133858267705
 20
-3.0775295275590544
 30
0.0
 11
7.9546527165354322
 21
-3.0783045275590544
 31
0.0
  0
LINE
  5
244
100
AcDbEntity
  8
BLACK
 62
256
370
-1
 48
1.0
  6
CONTINUOUS
100
AcDbLine
 10
7.9546527165354322
 20
-3.0783045275590544
 30
0.0
 11
7.9564540944881879
 21
-3.0803834251968496
 31
0.0
  0
LINE
  5
245
100
AcDbEntity
  8
BLACK
 62
256
370
-1
 48
1.0
  6
CONTINUOUS
100
AcDbLine
 10
7.9564540944881879
 20
-3.0803834251968496
 30
0.0
 11
7.9568455905511799
 21
-3.0831061811023615
 31
0.0
  0
LINE
  5
246
100
AcDbEntity
  8
BLACK
 62
256
370
-1
 48
1.0
  6
CONTINUOUS
100
AcDbLine
 10
7.9568455905511799
 20
-3.0831061811023615
 30
0.0
 11
7.9567142519685028
 21
-3.0835849212598418
 31
0.0
  0
LINE
  5
247
100
AcDbEntity
  8
BLACK
 62
256
370
-1
 48
1.0
  6
CONTINUOUS
100
AcDbLine
 10
7.9567142519685028
 20
-3.0835849212598418
 30
0.0
 11
7.95616653543307
 21
-3.0863384645669285
 31
0.0
  0
LINE
  5
248
100
AcDbEntity
  8
BLACK
 62
256
370
-1
 48
1.0
  6
CONTINUOUS
100
AcDbLine
 10
7.95616653543307
 20
-3.0863384645669285
 30
0.0
 11
7.95616653543307
 21
-3.1351378740157472
 31
0.0
  0
LINE
  5
249
100
AcDbEntity
  8
BLACK
 62
256
370
-1
 48
1.0
  6
CONTINUOUS
100
AcDbLine
 10
7.95616653543307
 20
-3.1351378740157472
 30
0.0
 11
7.9566244488188964
 21
-3.1374401181102356
 31
0.0
  0
LINE
  5
24A
100
AcDbEntity
  8
BLACK
 62
256
370
-1
 48
1.0
  6
CONTINUOUS
100
AcDbLine
 10
7.9566244488188964
 20
-3.1374401181102356
 30
0.0
 11
7.9566244881889752
 21
-3.1374401574803144
 31
0.0
  0
LINE
  5
24B
100
AcDbEntity
  8
BLACK
 62
256
370
-1
 48
1.0
  6
CONTINUOUS
100
AcDbLine
 10
7.9566244881889752
 20
-3.1374401574803144
 30
0.0
 11
7.9583691732283457
 21
-3.1400512598425192
 31
0.0
  0
LINE
  5
24C
100
AcDbEntity
  8
BLACK
 62
256
370
-1
 48
1.0
  6
CONTINUOUS
100
AcDbLine
 10
7.9583691732283457
 20
-3.1400512598425192
 30
0.0
 11
7.9609802755905505
 21
-3.1417959448818893
 31
0.0
  0
LINE
  5
24D
100
AcDbEntity
  8
BLACK
 62
256
370
-1
 48
1.0
  6
CONTINUOUS
100
AcDbLine
 10
7.9609802755905505
 20
-3.1417959448818893
 30
0.0
 11
7.9609803149606293
 21
-3.1417959842519676
 31
0.0
  0
LINE
  5
24E
100
AcDbEntity
  8
BLACK
 62
256
370
-1
 48
1.0
  6
CONTINUOUS
100
AcDbLine
 10
7.9609803149606293
 20
-3.1417959842519676
 30
0.0
 11
7.9632825590551173
 21
-3.1422538976377945
 31
0.0
  0
LINE
  5
24F
100
AcDbEntity
  8
BLACK
 62
256
370
-1
 48
1.0
  6
CONTINUOUS
100
AcDbLine
 10
7.9632825590551173
 20
-3.1422538976377945
 30
0.0
 11
7.9632826771653535
 21
-3.1422539370078733
 31
0.0
  0
LINE
  5
250
100
AcDbEntity
  8
BLACK
 62
256
370
-1
 48
1.0
  6
CONTINUOUS
100
AcDbLine
 10
7.9632826771653535
 20
-3.1422539370078733
 30
0.0
 11
7.963282755905511
 21
-3.1422539370078733
 31
0.0
  0
LINE
  5
251
100
AcDbEntity
  8
BLACK
 62
256
370
-1
 48
1.0
  6
CONTINUOUS
100
AcDbLine
 10
7.963282755905511
 20
-3.1422539370078733
 30
0.0
 11
8.0120818897637776
 21
-3.1422539370078733
 31
0.0
  0
LINE
  5
252
100
AcDbEntity
  8
BLACK
 62
256
370
-1
 48
1.0
  6
CONTINUOUS
100
AcDbLine
 10
8.0120818897637776
 20
-3.1422539370078733
 30
0.0
 11
8.0120819291338563
 21
-3.1422538976377945
 31
0.0
  0
LINE
  5
253
100
AcDbEntity
  8
BLACK
 62
256
370
-1
 48
1.0
  6
CONTINUOUS
100
AcDbLine
 10
8.0120819291338563
 20
-3.1422538976377945
 30
0.0
 11
8.0126652755905496
 21
-3.1421378740157473
 31
0.0
  0
LINE
  5
254
100
AcDbEntity
  8
BLACK
 62
256
370
-1
 48
1.0
  6
CONTINUOUS
100
AcDbLine
 10
8.0126652755905496
 20
-3.1421378740157473
 30
0.0
 11
8.0143842125984257
 21
-3.1417959842519676
 31
0.0
  0
LINE
  5
255
100
AcDbEntity
  8
BLACK
 62
256
370
-1
 48
1.0
  6
CONTINUOUS
100
AcDbLine
 10
8.0143842125984257
 20
-3.1417959842519676
 30
0.0
 11
8.0143842125984257
 21
-3.1417959448818893
 31
0.0
  0
LINE
  5
256
100
AcDbEntity
  8
BLACK
 62
256
370
-1
 48
1.0
  6
CONTINUOUS
100
AcDbLine
 10
8.0143842125984257
 20
-3.1417959448818893
 30
0.0
 11
8.0143842913385832
 21
-3.1417959448818893
 31
0.0
  0
LINE
  5
257
100
AcDbEntity
  8
BLACK
 62
256
370
-1
 48
1.0
  6
CONTINUOUS
100
AcDbLine
 10
8.0143842913385832
 20
-3.1417959448818893
 30
0.0
 11
8.0169953543307066
 21
-3.1400512598425192
 31
0.0
  0
LINE
  5
258
100
AcDbEntity
  8
BLACK
 62
256
370
-1
 48
1.0
  6
CONTINUOUS
100
AcDbLine
 10
8.0169953543307066
 20
-3.1400512598425192
 30
0.0
 11
8.0186620472440922
 21
-3.1375568503936999
 31
0.0
  0
LINE
  5
259
100
AcDbEntity
  8
BLACK
 62
256
370
-1
 48
1.0
  6
CONTINUOUS
100
AcDbLine
 10
8.0186620472440922
 20
-3.1375568503936999
 30
0.0
 11
8.020772677165354
 21
-3.1357929527559048
 31
0.0
  0
LINE
  5
25A
100
AcDbEntity
  8
BLACK
 62
256
370
-1
 48
1.0
  6
CONTINUOUS
100
AcDbLine
 10
8.020772677165354
 20
-3.1357929527559048
 30
0.0
 11
8.0235020078740149
 21
-3.1354501574803142
 31
0.0
  0
LINE
  5
25B
100
AcDbEntity
  8
BLACK
 62
256
370
-1
 48
1.0
  6
CONTINUOUS
100
AcDbLine
 10
8.0235020078740149
 20
-3.1354501574803142
 30
0.0
 11
8.0259834251968485
 21
-3.1366373228346451
 31
0.0
  0
LINE
  5
25C
100
AcDbEntity
  8
BLACK
 62
256
370
-1
 48
1.0
  6
CONTINUOUS
100
AcDbLine
 10
8.0259834251968485
 20
-3.1366373228346451
 30
0.0
 11
8.0272952362204713
 21
-3.1385631102362197
 31
0.0
  0
LINE
  5
25D
100
AcDbEntity
  8
BLACK
 62
256
370
-1
 48
1.0
  6
CONTINUOUS
100
AcDbLine
 10
8.0272952362204713
 20
-3.1385631102362197
 30
0.0
 11
8.0292825196850401
 21
-3.143891259842519
 31
0.0
  0
LINE
  5
25E
100
AcDbEntity
  8
BLACK
 62
256
370
-1
 48
1.0
  6
CONTINUOUS
100
AcDbLine
 10
8.0292825196850401
 20
-3.143891259842519
 30
0.0
 11
8.0292826377952764
 21
-3.1438914566929128
 31
0.0
  0
LINE
  5
25F
100
AcDbEntity
  8
BLACK
 62
256
370
-1
 48
1.0
  6
CONTINUOUS
100
AcDbLine
 10
8.0292826377952764
 20
-3.1438914566929128
 30
0.0
 11
8.0296981102362182
 21
-3.1444464566929127
 31
0.0
  0
LINE
  5
260
100
AcDbEntity
  8
BLACK
 62
256
370
-1
 48
1.0
  6
CONTINUOUS
100
AcDbLine
 10
8.0296981102362182
 20
-3.1444464566929127
 30
0.0
 11
8.0306594094488162
 21
-3.1470237795275584
 31
0.0
  0
LINE
  5
261
100
AcDbEntity
  8
BLACK
 62
256
370
-1
 48
1.0
  6
CONTINUOUS
100
AcDbLine
 10
8.1100967322834627
 20
-3.1466772834645664
 30
0.0
 11
8.1110207874015749
 21
-3.1444464566929127
 31
0.0
  0
LINE
  5
262
100
AcDbEntity
  8
BLACK
 62
256
370
-1
 48
1.0
  6
CONTINUOUS
100
AcDbLine
 10
8.1110207874015749
 20
-3.1444464566929127
 30
0.0
 11
8.1114362204724415
 21
-3.1438914566929128
 31
0.0
  0
LINE
  5
263
100
AcDbEntity
  8
BLACK
 62
256
370
-1
 48
1.0
  6
CONTINUOUS
100
AcDbLine
 10
8.1114362204724415
 20
-3.1438914566929128
 30
0.0
 11
8.1114363779527565
 21
-3.1438911811023615
 31
0.0
  0
LINE
  5
264
100
AcDbEntity
  8
BLACK
 62
256
370
-1
 48
1.0
  6
CONTINUOUS
100
AcDbLine
 10
8.1114363779527565
 20
-3.1438911811023615
 30
0.0
 11
8.1134144094488185
 21
-3.1385877559055113
 31
0.0
  0
LINE
  5
265
100
AcDbEntity
  8
BLACK
 62
256
370
-1
 48
1.0
  6
CONTINUOUS
100
AcDbLine
 10
8.1134144094488185
 20
-3.1385877559055113
 30
0.0
 11
8.113414488188976
 21
-3.13858748031496
 31
0.0
  0
LINE
  5
266
100
AcDbEntity
  8
BLACK
 62
256
370
-1
 48
1.0
  6
CONTINUOUS
100
AcDbLine
 10
8.113414488188976
 20
-3.13858748031496
 30
0.0
 11
8.1136664960629901
 21
-3.1362438582677159
 31
0.0
  0
LINE
  5
267
100
AcDbEntity
  8
BLACK
 62
256
370
-1
 48
1.0
  6
CONTINUOUS
100
AcDbLine
 10
8.1136664960629901
 20
-3.1362438582677159
 30
0.0
 11
8.1136665354330688
 21
-3.1362431889763771
 31
0.0
  0
LINE
  5
268
100
AcDbEntity
  8
BLACK
 62
256
370
-1
 48
1.0
  6
CONTINUOUS
100
AcDbLine
 10
8.1136665354330688
 20
-3.1362431889763771
 30
0.0
 11
8.1136665354330688
 21
-3.1205807086614166
 31
0.0
  0
LINE
  5
269
100
AcDbEntity
  8
BLACK
 62
256
370
-1
 48
1.0
  6
CONTINUOUS
100
AcDbLine
 10
8.1136665354330688
 20
-3.1205807086614166
 30
0.0
 11
8.093981496062991
 21
-3.1205807086614166
 31
0.0
  0
LINE
  5
26A
100
AcDbEntity
  8
BLACK
 62
256
370
-1
 48
1.0
  6
CONTINUOUS
100
AcDbLine
 10
8.093981496062991
 20
-3.1205807086614166
 30
0.0
 11
8.093981496062991
 21
-3.1343602362204717
 31
0.0
  0
LINE
  5
26B
100
AcDbEntity
  8
BLACK
 62
256
370
-1
 48
1.0
  6
CONTINUOUS
100
AcDbLine
 10
8.093981496062991
 20
-3.1343602362204717
 30
0.0
 11
8.0467374015748021
 21
-3.1343602362204717
 31
0.0
  0
LINE
  5
26C
100
AcDbEntity
  8
BLACK
 62
256
370
-1
 48
1.0
  6
CONTINUOUS
100
AcDbLine
 10
8.0467374015748021
 20
-3.1343602362204717
 30
0.0
 11
8.0467374015748021
 21
-3.0871161417322828
 31
0.0
  0
LINE
  5
26D
100
AcDbEntity
  8
BLACK
 62
256
370
-1
 48
1.0
  6
CONTINUOUS
100
AcDbLine
 10
8.0467374015748021
 20
-3.0871161417322828
 30
0.0
 11
8.093981496062991
 21
-3.0871161417322828
 31
0.0
  0
LINE
  5
26E
100
AcDbEntity
  8
BLACK
 62
256
370
-1
 48
1.0
  6
CONTINUOUS
100
AcDbLine
 10
8.093981496062991
 20
-3.0871161417322828
 30
0.0
 11
8.093981496062991
 21
-3.1008956692913379
 31
0.0
  0
LINE
  5
26F
100
AcDbEntity
  8
BLACK
 62
256
370
-1
 48
1.0
  6
CONTINUOUS
100
AcDbLine
 10
8.093981496062991
 20
-3.1008956692913379
 30
0.0
 11
8.1136665354330688
 21
-3.1008956692913379
 31
0.0
  0
LINE
  5
270
100
AcDbEntity
  8
BLACK
 62
256
370
-1
 48
1.0
  6
CONTINUOUS
100
AcDbLine
 10
8.1136665354330688
 20
-3.1008956692913379
 30
0.0
 11
8.1136665354330688
 21
-3.0852331496062986
 31
0.0
  0
LINE
  5
271
100
AcDbEntity
  8
BLACK
 62
256
370
-1
 48
1.0
  6
CONTINUOUS
100
AcDbLine
 10
8.1136665354330688
 20
-3.0852331496062986
 30
0.0
 11
8.1136664960629901
 21
-3.0852324803149598
 31
0.0
  0
LINE
  5
272
100
AcDbEntity
  8
BLACK
 62
256
370
-1
 48
1.0
  6
CONTINUOUS
100
AcDbLine
 10
8.1136664960629901
 20
-3.0852324803149598
 30
0.0
 11
8.1134192913385803
 21
-3.0829333070866136
 31
0.0
  0
LINE
  5
273
100
AcDbEntity
  8
BLACK
 62
256
370
-1
 48
1.0
  6
CONTINUOUS
100
AcDbLine
 10
8.1134192913385803
 20
-3.0829333070866136
 30
0.0
 11
8.1139076771653542
 21
-3.0802262204724404
 31
0.0
  0
LINE
  5
274
100
AcDbEntity
  8
BLACK
 62
256
370
-1
 48
1.0
  6
CONTINUOUS
100
AcDbLine
 10
8.1139076771653542
 20
-3.0802262204724404
 30
0.0
 11
8.1157820866141712
 21
-3.078212952755905
 31
0.0
  0
LINE
  5
275
100
AcDbEntity
  8
BLACK
 62
256
370
-1
 48
1.0
  6
CONTINUOUS
100
AcDbLine
 10
8.1157820866141712
 20
-3.078212952755905
 30
0.0
 11
8.118273188976378
 21
-3.0775295275590544
 31
0.0
  0
LINE
  5
276
100
AcDbEntity
  8
BLACK
 62
256
370
-1
 48
1.0
  6
CONTINUOUS
100
AcDbLine
 10
8.118273188976378
 20
-3.0775295275590544
 30
0.0
 11
8.4190509055118099
 21
-3.0775295275590544
 31
0.0
  0
LINE
  5
277
100
AcDbEntity
  8
BLACK
 62
256
370
-1
 48
1.0
  6
CONTINUOUS
100
AcDbLine
 10
8.4190509055118099
 20
-3.0775295275590544
 30
0.0
 11
8.4216902362204706
 21
-3.0783045275590544
 31
0.0
  0
LINE
  5
278
100
AcDbEntity
  8
BLACK
 62
256
370
-1
 48
1.0
  6
CONTINUOUS
100
AcDbLine
 10
8.4216902362204706
 20
-3.0783045275590544
 30
0.0
 11
8.4234916141732263
 21
-3.0803834251968496
 31
0.0
  0
LINE
  5
279
100
AcDbEntity
  8
BLACK
 62
256
370
-1
 48
1.0
  6
CONTINUOUS
100
AcDbLine
 10
8.4234916141732263
 20
-3.0803834251968496
 30
0.0
 11
8.4238831102362184
 21
-3.0831061811023615
 31
0.0
  0
LINE
  5
27A
100
AcDbEntity
  8
BLACK
 62
256
370
-1
 48
1.0
  6
CONTINUOUS
100
AcDbLine
 10
8.4238831102362184
 20
-3.0831061811023615
 30
0.0
 11
8.4231100393700764
 21
-3.0851236614173221
 31
0.0
  0
LINE
  5
27B
100
AcDbEntity
  8
BLACK
 62
256
370
-1
 48
1.0
  6
CONTINUOUS
100
AcDbLine
 10
8.4231100393700764
 20
-3.0851236614173221
 30
0.0
 11
8.4212059842519693
 21
-3.0879731889763771
 31
0.0
  0
LINE
  5
27C
100
AcDbEntity
  8
BLACK
 62
256
370
-1
 48
1.0
  6
CONTINUOUS
100
AcDbLine
 10
8.4212059842519693
 20
-3.0879731889763771
 30
0.0
 11
8.4212059448818906
 21
-3.0879732283464558
 31
0.0
  0
LINE
  5
27D
100
AcDbEntity
  8
BLACK
 62
256
370
-1
 48
1.0
  6
CONTINUOUS
100
AcDbLine
 10
8.4212059448818906
 20
-3.0879732283464558
 30
0.0
 11
8.4207480314960605
 21
-3.0902754724409442
 31
0.0
  0
LINE
  5
27E
100
AcDbEntity
  8
BLACK
 62
256
370
-1
 48
1.0
  6
CONTINUOUS
100
AcDbLine
 10
8.4207480314960605
 20
-3.0902754724409442
 30
0.0
 11
8.4207480314960605
 21
-3.1312008661417314
 31
0.0
  0
LINE
  5
27F
100
AcDbEntity
  8
BLACK
 62
256
370
-1
 48
1.0
  6
CONTINUOUS
100
AcDbLine
 10
8.4207480314960605
 20
-3.1312008661417314
 30
0.0
 11
8.4212059448818906
 21
-3.1335031102362199
 31
0.0
  0
LINE
  5
280
100
AcDbEntity
  8
BLACK
 62
256
370
-1
 48
1.0
  6
CONTINUOUS
100
AcDbLine
 10
8.4212059448818906
 20
-3.1335031102362199
 30
0.0
 11
8.4212059842519693
 21
-3.1335031496062986
 31
0.0
  0
LINE
  5
281
100
AcDbEntity
  8
BLACK
 62
256
370
-1
 48
1.0
  6
CONTINUOUS
100
AcDbLine
 10
8.4212059842519693
 20
-3.1335031496062986
 30
0.0
 11
8.422950669291339
 21
-3.1361142519685035
 31
0.0
  0
LINE
  5
282
100
AcDbEntity
  8
BLACK
 62
256
370
-1
 48
1.0
  6
CONTINUOUS
100
AcDbLine
 10
8.422950669291339
 20
-3.1361142519685035
 30
0.0
 11
8.4255617716535411
 21
-3.1378589370078735
 31
0.0
  0
LINE
  5
283
100
AcDbEntity
  8
BLACK
 62
256
370
-1
 48
1.0
  6
CONTINUOUS
100
AcDbLine
 10
8.4255617716535411
 20
-3.1378589370078735
 30
0.0
 11
8.4255618110236199
 21
-3.1378589763779519
 31
0.0
  0
LINE
  5
284
100
AcDbEntity
  8
BLACK
 62
256
370
-1
 48
1.0
  6
CONTINUOUS
100
AcDbLine
 10
8.4255618110236199
 20
-3.1378589763779519
 30
0.0
 11
8.4278640551181105
 21
-3.1383168897637788
 31
0.0
  0
LINE
  5
285
100
AcDbEntity
  8
BLACK
 62
256
370
-1
 48
1.0
  6
CONTINUOUS
100
AcDbLine
 10
8.4278640551181105
 20
-3.1383168897637788
 30
0.0
 11
8.4278641732283468
 21
-3.1383169291338575
 31
0.0
  0
LINE
  5
286
100
AcDbEntity
  8
BLACK
 62
256
370
-1
 48
1.0
  6
CONTINUOUS
100
AcDbLine
 10
8.4278641732283468
 20
-3.1383169291338575
 30
0.0
 11
8.4278642519685043
 21
-3.1383169291338575
 31
0.0
  0
LINE
  5
287
100
AcDbEntity
  8
BLACK
 62
256
370
-1
 48
1.0
  6
CONTINUOUS
100
AcDbLine
 10
8.4278642519685043
 20
-3.1383169291338575
 30
0.0
 11
8.4687893700787384
 21
-3.1383169291338575
 31
0.0
  0
LINE
  5
288
100
AcDbEntity
  8
BLACK
 62
256
370
-1
 48
1.0
  6
CONTINUOUS
100
AcDbLine
 10
8.4687893700787384
 20
-3.1383169291338575
 30
0.0
 11
8.4687894094488172
 21
-3.1383168897637788
 31
0.0
  0
LINE
  5
289
100
AcDbEntity
  8
BLACK
 62
256
370
-1
 48
1.0
  6
CONTINUOUS
100
AcDbLine
 10
8.4687894094488172
 20
-3.1383168897637788
 30
0.0
 11
8.4693727559055105
 21
-3.1382008661417315
 31
0.0
  0
LINE
  5
28A
100
AcDbEntity
  8
BLACK
 62
256
370
-1
 48
1.0
  6
CONTINUOUS
100
AcDbLine
 10
8.4693727559055105
 20
-3.1382008661417315
 30
0.0
 11
8.4710916929133866
 21
-3.1378589763779519
 31
0.0
  0
LINE
  5
28B
100
AcDbEntity
  8
BLACK
 62
256
370
-1
 48
1.0
  6
CONTINUOUS
100
AcDbLine
 10
8.4710916929133866
 20
-3.1378589763779519
 30
0.0
 11
8.4710916929133866
 21
-3.1378589370078735
 31
0.0
  0
LINE
  5
28C
100
AcDbEntity
  8
BLACK
 62
256
370
-1
 48
1.0
  6
CONTINUOUS
100
AcDbLine
 10
8.4710916929133866
 20
-3.1378589370078735
 30
0.0
 11
8.4710917716535441
 21
-3.1378589370078735
 31
0.0
  0
LINE
  5
28D
100
AcDbEntity
  8
BLACK
 62
256
370
-1
 48
1.0
  6
CONTINUOUS
100
AcDbLine
 10
8.4710917716535441
 20
-3.1378589370078735
 30
0.0
 11
8.4737028346456675
 21
-3.1361142519685035
 31
0.0
  0
LINE
  5
28E
100
AcDbEntity
  8
BLACK
 62
256
370
-1
 48
1.0
  6
CONTINUOUS
100
AcDbLine
 10
8.4737028346456675
 20
-3.1361142519685035
 30
0.0
 11
8.4754475196850372
 21
-3.1335031889763774
 31
0.0
  0
LINE
  5
28F
100
AcDbEntity
  8
BLACK
 62
256
370
-1
 48
1.0
  6
CONTINUOUS
100
AcDbLine
 10
8.4754475196850372
 20
-3.1335031889763774
 30
0.0
 11
8.4754475196850372
 21
-3.1335031102362199
 31
0.0
  0
LINE
  5
290
100
AcDbEntity
  8
BLACK
 62
256
370
-1
 48
1.0
  6
CONTINUOUS
100
AcDbLine
 10
8.4754475196850372
 20
-3.1335031102362199
 30
0.0
 11
8.4754475590551159
 21
-3.1335031102362199
 31
0.0
  0
LINE
  5
291
100
AcDbEntity
  8
BLACK
 62
256
370
-1
 48
1.0
  6
CONTINUOUS
100
AcDbLine
 10
8.4754475590551159
 20
-3.1335031102362199
 30
0.0
 11
8.4759054724409424
 21
-3.1312008661417314
 31
0.0
  0
LINE
  5
292
100
AcDbEntity
  8
BLACK
 62
256
370
-1
 48
1.0
  6
CONTINUOUS
100
AcDbLine
 10
8.4759054724409424
 20
-3.1312008661417314
 30
0.0
 11
8.4759055118110211
 21
-3.1312007874015739
 31
0.0
  0
LINE
  5
293
100
AcDbEntity
  8
BLACK
 62
256
370
-1
 48
1.0
  6
CONTINUOUS
100
AcDbLine
 10
8.4759055118110211
 20
-3.1312007874015739
 30
0.0
 11
8.4759055118110211
 21
-3.0902755511811018
 31
0.0
  0
LINE
  5
294
100
AcDbEntity
  8
BLACK
 62
256
370
-1
 48
1.0
  6
CONTINUOUS
100
AcDbLine
 10
8.4759055118110211
 20
-3.0902755511811018
 30
0.0
 11
8.4759054724409424
 21
-3.0902754724409442
 31
0.0
  0
LINE
  5
295
100
AcDbEntity
  8
BLACK
 62
256
370
-1
 48
1.0
  6
CONTINUOUS
100
AcDbLine
 10
8.4759054724409424
 20
-3.0902754724409442
 30
0.0
 11
8.4754475590551159
 21
-3.0879732283464558
 31
0.0
  0
LINE
  5
296
100
AcDbEntity
  8
BLACK
 62
256
370
-1
 48
1.0
  6
CONTINUOUS
100
AcDbLine
 10
8.4754475590551159
 20
-3.0879732283464558
 30
0.0
 11
8.4754475196850372
 21
-3.0879731889763771
 31
0.0
  0
LINE
  5
297
100
AcDbEntity
  8
BLACK
 62
256
370
-1
 48
1.0
  6
CONTINUOUS
100
AcDbLine
 10
8.4754475196850372
 20
-3.0879731889763771
 30
0.0
 11
8.4735435039370053
 21
-3.0851236614173221
 31
0.0
  0
LINE
  5
298
100
AcDbEntity
  8
BLACK
 62
256
370
-1
 48
1.0
  6
CONTINUOUS
100
AcDbLine
 10
8.4735435039370053
 20
-3.0851236614173221
 30
0.0
 11
8.4734238976377938
 21
-3.0847417322834638
 31
0.0
  0
LINE
  5
299
100
AcDbEntity
  8
BLACK
 62
256
370
-1
 48
1.0
  6
CONTINUOUS
100
AcDbLine
 10
8.4734238976377938
 20
-3.0847417322834638
 30
0.0
 11
8.4731619291338589
 21
-3.0844394094488181
 31
0.0
  0
LINE
  5
29A
100
AcDbEntity
  8
BLACK
 62
256
370
-1
 48
1.0
  6
CONTINUOUS
100
AcDbLine
 10
8.4731619291338589
 20
-3.0844394094488181
 30
0.0
 11
8.4730198425196832
 21
-3.0834512992125975
 31
0.0
  0
LINE
  5
29B
100
AcDbEntity
  8
BLACK
 62
256
370
-1
 48
1.0
  6
CONTINUOUS
100
AcDbLine
 10
8.4730198425196832
 20
-3.0834512992125975
 30
0.0
 11
8.4727215354330703
 21
-3.0824985826771645
 31
0.0
  0
LINE
  5
29C
100
AcDbEntity
  8
BLACK
 62
256
370
-1
 48
1.0
  6
CONTINUOUS
100
AcDbLine
 10
8.4727215354330703
 20
-3.0824985826771645
 30
0.0
 11
8.4728273622047219
 21
-3.0821127165354323
 31
0.0
  0
LINE
  5
29D
100
AcDbEntity
  8
BLACK
 62
256
370
-1
 48
1.0
  6
CONTINUOUS
100
AcDbLine
 10
8.4728273622047219
 20
-3.0821127165354323
 30
0.0
 11
8.4727704330708669
 21
-3.0817166535433063
 31
0.0
  0
LINE
  5
29E
100
AcDbEntity
  8
BLACK
 62
256
370
-1
 48
1.0
  6
CONTINUOUS
100
AcDbLine
 10
8.4727704330708669
 20
-3.0817166535433063
 30
0.0
 11
8.4731851574803123
 21
-3.080808503937007
 31
0.0
  0
LINE
  5
29F
100
AcDbEntity
  8
BLACK
 62
256
370
-1
 48
1.0
  6
CONTINUOUS
100
AcDbLine
 10
8.4731851574803123
 20
-3.080808503937007
 30
0.0
 11
8.4734492519685034
 21
-3.0798458267716526
 31
0.0
  0
LINE
  5
2A0
100
AcDbEntity
  8
BLACK
 62
256
370
-1
 48
1.0
  6
CONTINUOUS
100
AcDbLine
 10
8.4734492519685034
 20
-3.0798458267716526
 30
0.0
 11
8.4737468897637775
 21
-3.0795784251968499
 31
0.0
  0
LINE
  5
2A1
100
AcDbEntity
  8
BLACK
 62
256
370
-1
 48
1.0
  6
CONTINUOUS
100
AcDbLine
 10
8.4737468897637775
 20
-3.0795784251968499
 30
0.0
 11
8.4739131496062967
 21
-3.0792144488188971
 31
0.0
  0
LINE
  5
2A2
100
AcDbEntity
  8
BLACK
 62
256
370
-1
 48
1.0
  6
CONTINUOUS
100
AcDbLine
 10
8.4739131496062967
 20
-3.0792144488188971
 30
0.0
 11
8.4747529921259819
 21
-3.0786746850393696
 31
0.0
  0
LINE
  5
2A3
100
AcDbEntity
  8
BLACK
 62
256
370
-1
 48
1.0
  6
CONTINUOUS
100
AcDbLine
 10
8.4747529921259819
 20
-3.0786746850393696
 30
0.0
 11
8.4754956692913375
 21
-3.078007598425196
 31
0.0
  0
LINE
  5
2A4
100
AcDbEntity
  8
BLACK
 62
256
370
-1
 48
1.0
  6
CONTINUOUS
100
AcDbLine
 10
8.4754956692913375
 20
-3.078007598425196
 30
0.0
 11
8.4759522440944863
 21
-3.0779039763779519
 31
0.0
  0
LINE
  5
2A5
100
AcDbEntity
  8
BLACK
 62
256
370
-1
 48
1.0
  6
CONTINUOUS
100
AcDbLine
 10
8.4759522440944863
 20
-3.0779039763779519
 30
0.0
 11
8.4762272440944884
 21
-3.0777272834645664
 31
0.0
  0
LINE
  5
2A6
100
AcDbEntity
  8
BLACK
 62
256
370
-1
 48
1.0
  6
CONTINUOUS
100
AcDbLine
 10
8.4762272440944884
 20
-3.0777272834645664
 30
0.0
 11
8.4776026377952753
 21
-3.0775295275590544
 31
0.0
  0
LINE
  5
2A7
100
AcDbEntity
  8
BLACK
 62
256
370
-1
 48
1.0
  6
CONTINUOUS
100
AcDbLine
 10
8.4776026377952753
 20
-3.0775295275590544
 30
0.0
 11
8.4870178740157485
 21
-3.0775295275590544
 31
0.0
  0
LINE
  5
2A8
100
AcDbEntity
  8
BLACK
 62
256
370
-1
 48
1.0
  6
CONTINUOUS
100
AcDbLine
 10
8.4870178740157485
 20
-3.0775295275590544
 30
0.0
 11
8.4896572047244092
 21
-3.0783045275590544
 31
0.0
  0
LINE
  5
2A9
100
AcDbEntity
  8
BLACK
 62
256
370
-1
 48
1.0
  6
CONTINUOUS
100
AcDbLine
 10
8.4896572047244092
 20
-3.0783045275590544
 30
0.0
 11
8.4914585826771649
 21
-3.0803834251968496
 31
0.0
  0
LINE
  5
2AA
100
AcDbEntity
  8
BLACK
 62
256
370
-1
 48
1.0
  6
CONTINUOUS
100
AcDbLine
 10
8.4914585826771649
 20
-3.0803834251968496
 30
0.0
 11
8.491850078740157
 21
-3.0831061811023615
 31
0.0
  0
LINE
  5
2AB
100
AcDbEntity
  8
BLACK
 62
256
370
-1
 48
1.0
  6
CONTINUOUS
100
AcDbLine
 10
8.491850078740157
 20
-3.0831061811023615
 30
0.0
 11
8.4917187401574807
 21
-3.0835849212598418
 31
0.0
  0
LINE
  5
2AC
100
AcDbEntity
  8
BLACK
 62
256
370
-1
 48
1.0
  6
CONTINUOUS
100
AcDbLine
 10
8.4917187401574807
 20
-3.0835849212598418
 30
0.0
 11
8.4911710236220479
 21
-3.0863384645669285
 31
0.0
  0
LINE
  5
2AD
100
AcDbEntity
  8
BLACK
 62
256
370
-1
 48
1.0
  6
CONTINUOUS
100
AcDbLine
 10
8.4911710236220479
 20
-3.0863384645669285
 30
0.0
 11
8.4911710236220479
 21
-3.1351378740157472
 31
0.0
  0
LINE
  5
2AE
100
AcDbEntity
  8
BLACK
 62
256
370
-1
 48
1.0
  6
CONTINUOUS
100
AcDbLine
 10
8.4911710236220479
 20
-3.1351378740157472
 30
0.0
 11
8.4916289370078744
 21
-3.1374401181102356
 31
0.0
  0
LINE
  5
2AF
100
AcDbEntity
  8
BLACK
 62
256
370
-1
 48
1.0
  6
CONTINUOUS
100
AcDbLine
 10
8.4916289370078744
 20
-3.1374401181102356
 30
0.0
 11
8.4916289763779531
 21
-3.1374401574803144
 31
0.0
  0
LINE
  5
2B0
100
AcDbEntity
  8
BLACK
 62
256
370
-1
 48
1.0
  6
CONTINUOUS
100
AcDbLine
 10
8.4916289763779531
 20
-3.1374401574803144
 30
0.0
 11
8.4933736614173228
 21
-3.1400512598425192
 31
0.0
  0
LINE
  5
2B1
100
AcDbEntity
  8
BLACK
 62
256
370
-1
 48
1.0
  6
CONTINUOUS
100
AcDbLine
 10
8.4933736614173228
 20
-3.1400512598425192
 30
0.0
 11
8.4959847637795249
 21
-3.1417959448818893
 31
0.0
  0
LINE
  5
2B2
100
AcDbEntity
  8
BLACK
 62
256
370
-1
 48
1.0
  6
CONTINUOUS
100
AcDbLine
 10
8.4959847637795249
 20
-3.1417959448818893
 30
0.0
 11
8.4959848031496037
 21
-3.1417959842519676
 31
0.0
  0
LINE
  5
2B3
100
AcDbEntity
  8
BLACK
 62
256
370
-1
 48
1.0
  6
CONTINUOUS
100
AcDbLine
 10
8.4959848031496037
 20
-3.1417959842519676
 30
0.0
 11
8.4982870472440943
 21
-3.1422538976377945
 31
0.0
  0
LINE
  5
2B4
100
AcDbEntity
  8
BLACK
 62
256
370
-1
 48
1.0
  6
CONTINUOUS
100
AcDbLine
 10
8.4982870472440943
 20
-3.1422538976377945
 30
0.0
 11
8.4982871653543306
 21
-3.1422539370078733
 31
0.0
  0
LINE
  5
2B5
100
AcDbEntity
  8
BLACK
 62
256
370
-1
 48
1.0
  6
CONTINUOUS
100
AcDbLine
 10
8.4982871653543306
 20
-3.1422539370078733
 30
0.0
 11
8.4982872440944881
 21
-3.1422539370078733
 31
0.0
  0
LINE
  5
2B6
100
AcDbEntity
  8
BLACK
 62
256
370
-1
 48
1.0
  6
CONTINUOUS
100
AcDbLine
 10
8.4982872440944881
 20
-3.1422539370078733
 30
0.0
 11
8.5470863779527555
 21
-3.1422539370078733
 31
0.0
  0
LINE
  5
2B7
100
AcDbEntity
  8
BLACK
 62
256
370
-1
 48
1.0
  6
CONTINUOUS
100
AcDbLine
 10
8.5470863779527555
 20
-3.1422539370078733
 30
0.0
 11
8.5470864173228343
 21
-3.1422538976377945
 31
0.0
  0
LINE
  5
2B8
100
AcDbEntity
  8
BLACK
 62
256
370
-1
 48
1.0
  6
CONTINUOUS
100
AcDbLine
 10
8.5470864173228343
 20
-3.1422538976377945
 30
0.0
 11
8.5476697637795276
 21
-3.1421378740157473
 31
0.0
  0
LINE
  5
2B9
100
AcDbEntity
  8
BLACK
 62
256
370
-1
 48
1.0
  6
CONTINUOUS
100
AcDbLine
 10
8.5476697637795276
 20
-3.1421378740157473
 30
0.0
 11
8.5493887007874001
 21
-3.1417959842519676
 31
0.0
  0
LINE
  5
2BA
100
AcDbEntity
  8
BLACK
 62
256
370
-1
 48
1.0
  6
CONTINUOUS
100
AcDbLine
 10
8.5493887007874001
 20
-3.1417959842519676
 30
0.0
 11
8.5493887007874001
 21
-3.1417959448818893
 31
0.0
  0
LINE
  5
2BB
100
AcDbEntity
  8
BLACK
 62
256
370
-1
 48
1.0
  6
CONTINUOUS
100
AcDbLine
 10
8.5493887007874001
 20
-3.1417959448818893
 30
0.0
 11
8.5493887795275576
 21
-3.1417959448818893
 31
0.0
  0
LINE
  5
2BC
100
AcDbEntity
  8
BLACK
 62
256
370
-1
 48
1.0
  6
CONTINUOUS
100
AcDbLine
 10
8.5493887795275576
 20
-3.1417959448818893
 30
0.0
 11
8.5519998425196846
 21
-3.1400512598425192
 31
0.0
  0
LINE
  5
2BD
100
AcDbEntity
  8
BLACK
 62
256
370
-1
 48
1.0
  6
CONTINUOUS
100
AcDbLine
 10
8.5519998425196846
 20
-3.1400512598425192
 30
0.0
 11
8.5536665354330701
 21
-3.1375568503936999
 31
0.0
  0
LINE
  5
2BE
100
AcDbEntity
  8
BLACK
 62
256
370
-1
 48
1.0
  6
CONTINUOUS
100
AcDbLine
 10
8.5536665354330701
 20
-3.1375568503936999
 30
0.0
 11
8.5557771653543284
 21
-3.1357929527559048
 31
0.0
  0
LINE
  5
2BF
100
AcDbEntity
  8
BLACK
 62
256
370
-1
 48
1.0
  6
CONTINUOUS
100
AcDbLine
 10
8.595521417322832
 20
-3.1540452755905504
 30
0.0
 11
8.595521417322832
 21
-3.1343602362204717
 31
0.0
  0
LINE
  5
2C0
100
AcDbEntity
  8
BLACK
 62
256
370
-1
 48
1.0
  6
CONTINUOUS
100
AcDbLine
 10
8.595521417322832
 20
-3.1343602362204717
 30
0.0
 11
8.5817418897637801
 21
-3.1343602362204717
 31
0.0
  0
LINE
  5
2C1
100
AcDbEntity
  8
BLACK
 62
256
370
-1
 48
1.0
  6
CONTINUOUS
100
AcDbLine
 10
8.5817418897637801
 20
-3.1343602362204717
 30
0.0
 11
8.5817418897637801
 21
-3.0871161417322828
 31
0.0
  0
LINE
  5
2C2
100
AcDbEntity
  8
BLACK
 62
256
370
-1
 48
1.0
  6
CONTINUOUS
100
AcDbLine
 10
8.5817418897637801
 20
-3.0871161417322828
 30
0.0
 11
8.6289859842519689
 21
-3.0871161417322828
 31
0.0
  0
LINE
  5
2C3
100
AcDbEntity
  8
BLACK
 62
256
370
-1
 48
1.0
  6
CONTINUOUS
100
AcDbLine
 10
8.6289859842519689
 20
-3.0871161417322828
 30
0.0
 11
8.6289859842519689
 21
-3.1008956692913379
 31
0.0
  0
LINE
  5
2C4
100
AcDbEntity
  8
BLACK
 62
256
370
-1
 48
1.0
  6
CONTINUOUS
100
AcDbLine
 10
8.6289859842519689
 20
-3.1008956692913379
 30
0.0
 11
8.6486710236220468
 21
-3.1008956692913379
 31
0.0
  0
LINE
  5
2C5
100
AcDbEntity
  8
BLACK
 62
256
370
-1
 48
1.0
  6
CONTINUOUS
100
AcDbLine
 10
6.7086549606299206
 20
-3.1466508267716526
 30
0.0
 11
6.7073366535433063
 21
-3.1442365354330701
 31
0.0
  0
LINE
  5
2C6
100
AcDbEntity
  8
BLACK
 62
256
370
-1
 48
1.0
  6
CONTINUOUS
100
AcDbLine
 10
6.7073366535433063
 20
-3.1442365354330701
 30
0.0
 11
6.7075328740157474
 21
-3.141492755905511
 31
0.0
  0
LINE
  5
2C7
100
AcDbEntity
  8
BLACK
 62
256
370
-1
 48
1.0
  6
CONTINUOUS
100
AcDbLine
 10
6.7075328740157474
 20
-3.141492755905511
 30
0.0
 11
6.7091813779527554
 21
-3.1392906692913378
 31
0.0
  0
LINE
  5
2C8
100
AcDbEntity
  8
BLACK
 62
256
370
-1
 48
1.0
  6
CONTINUOUS
100
AcDbLine
 10
6.7091813779527554
 20
-3.1392906692913378
 30
0.0
 11
6.7117587007874002
 21
-3.1383293700787394
 31
0.0
  0
LINE
  5
2C9
100
AcDbEntity
  8
BLACK
 62
256
370
-1
 48
1.0
  6
CONTINUOUS
100
AcDbLine
 10
6.7117587007874002
 20
-3.1383293700787394
 30
0.0
 11
6.7121069685039361
 21
-3.1383169291338575
 31
0.0
  0
LINE
  5
2CA
100
AcDbEntity
  8
BLACK
 62
256
370
-1
 48
1.0
  6
CONTINUOUS
100
AcDbLine
 10
6.7121069685039361
 20
-3.1383169291338575
 30
0.0
 11
6.7499704724409444
 21
-3.1383169291338575
 31
0.0
  0
LINE
  5
2CB
100
AcDbEntity
  8
BLACK
 62
256
370
-1
 48
1.0
  6
CONTINUOUS
100
AcDbLine
 10
6.7499704724409444
 20
-3.1383169291338575
 30
0.0
 11
6.7499705118110223
 21
-3.1383168897637788
 31
0.0
  0
LINE
  5
2CC
100
AcDbEntity
  8
BLACK
 62
256
370
-1
 48
1.0
  6
CONTINUOUS
100
AcDbLine
 10
6.7499705118110223
 20
-3.1383168897637788
 30
0.0
 11
6.7505538582677156
 21
-3.1382008661417315
 31
0.0
  0
LINE
  5
2CD
100
AcDbEntity
  8
BLACK
 62
256
370
-1
 48
1.0
  6
CONTINUOUS
100
AcDbLine
 10
6.7505538582677156
 20
-3.1382008661417315
 30
0.0
 11
6.7522727952755899
 21
-3.1378589763779519
 31
0.0
  0
LINE
  5
2CE
100
AcDbEntity
  8
BLACK
 62
256
370
-1
 48
1.0
  6
CONTINUOUS
100
AcDbLine
 10
6.7522727952755899
 20
-3.1378589763779519
 30
0.0
 11
6.7522727952755899
 21
-3.1378589370078735
 31
0.0
  0
LINE
  5
2CF
100
AcDbEntity
  8
BLACK
 62
256
370
-1
 48
1.0
  6
CONTINUOUS
100
AcDbLine
 10
6.7522727952755899
 20
-3.1378589370078735
 30
0.0
 11
6.7522728740157474
 21
-3.1378589370078735
 31
0.0
  0
LINE
  5
2D0
100
AcDbEntity
  8
BLACK
 62
256
370
-1
 48
1.0
  6
CONTINUOUS
100
AcDbLine
 10
6.7522728740157474
 20
-3.1378589370078735
 30
0.0
 11
6.7548839370078735
 21
-3.1361142519685035
 31
0.0
  0
LINE
  5
2D1
100
AcDbEntity
  8
BLACK
 62
256
370
-1
 48
1.0
  6
CONTINUOUS
100
AcDbLine
 10
6.7548839370078735
 20
-3.1361142519685035
 30
0.0
 11
6.7566286220472431
 21
-3.1335031889763774
 31
0.0
  0
LINE
  5
2D2
100
AcDbEntity
  8
BLACK
 62
256
370
-1
 48
1.0
  6
CONTINUOUS
100
AcDbLine
 10
6.7566286220472431
 20
-3.1335031889763774
 30
0.0
 11
6.7566286220472431
 21
-3.1335031102362199
 31
0.0
  0
LINE
  5
2D3
100
AcDbEntity
  8
BLACK
 62
256
370
-1
 48
1.0
  6
CONTINUOUS
100
AcDbLine
 10
6.7566286220472431
 20
-3.1335031102362199
 30
0.0
 11
6.7566286614173219
 21
-3.1335031102362199
 31
0.0
  0
LINE
  5
2D4
100
AcDbEntity
  8
BLACK
 62
256
370
-1
 48
1.0
  6
CONTINUOUS
100
AcDbLine
 10
6.7566286614173219
 20
-3.1335031102362199
 30
0.0
 11
6.7570865748031483
 21
-3.1312008661417314
 31
0.0
  0
LINE
  5
2D5
100
AcDbEntity
  8
BLACK
 62
256
370
-1
 48
1.0
  6
CONTINUOUS
100
AcDbLine
 10
6.7570865748031483
 20
-3.1312008661417314
 30
0.0
 11
6.7570866141732271
 21
-3.1312007874015739
 31
0.0
  0
LINE
  5
2D6
100
AcDbEntity
  8
BLACK
 62
256
370
-1
 48
1.0
  6
CONTINUOUS
100
AcDbLine
 10
6.7570866141732271
 20
-3.1312007874015739
 30
0.0
 11
6.7570866141732271
 21
-3.0902755511811018
 31
0.0
  0
LINE
  5
2D7
100
AcDbEntity
  8
BLACK
 62
256
370
-1
 48
1.0
  6
CONTINUOUS
100
AcDbLine
 10
6.7570866141732271
 20
-3.0902755511811018
 30
0.0
 11
6.7570865748031483
 21
-3.0902754724409442
 31
0.0
  0
LINE
  5
2D8
100
AcDbEntity
  8
BLACK
 62
256
370
-1
 48
1.0
  6
CONTINUOUS
100
AcDbLine
 10
6.7570865748031483
 20
-3.0902754724409442
 30
0.0
 11
6.7566286614173219
 21
-3.0879732283464558
 31
0.0
  0
LINE
  5
2D9
100
AcDbEntity
  8
BLACK
 62
256
370
-1
 48
1.0
  6
CONTINUOUS
100
AcDbLine
 10
6.7566286614173219
 20
-3.0879732283464558
 30
0.0
 11
6.7566286220472431
 21
-3.0879731889763771
 31
0.0
  0
LINE
  5
2DA
100
AcDbEntity
  8
BLACK
 62
256
370
-1
 48
1.0
  6
CONTINUOUS
100
AcDbLine
 10
6.7566286220472431
 20
-3.0879731889763771
 30
0.0
 11
6.7547246062992112
 21
-3.0851236614173221
 31
0.0
  0
LINE
  5
2DB
100
AcDbEntity
  8
BLACK
 62
256
370
-1
 48
1.0
  6
CONTINUOUS
100
AcDbLine
 10
6.7547246062992112
 20
-3.0851236614173221
 30
0.0
 11
6.7539026377952744
 21
-3.0824985826771645
 31
0.0
  0
LINE
  5
2DC
100
AcDbEntity
  8
BLACK
 62
256
370
-1
 48
1.0
  6
CONTINUOUS
100
AcDbLine
 10
6.7539026377952744
 20
-3.0824985826771645
 30
0.0
 11
6.7546303543307076
 21
-3.0798458267716526
 31
0.0
  0
LINE
  5
2DD
100
AcDbEntity
  8
BLACK
 62
256
370
-1
 48
1.0
  6
CONTINUOUS
100
AcDbLine
 10
6.7546303543307076
 20
-3.0798458267716526
 30
0.0
 11
6.7566767716535425
 21
-3.078007598425196
 31
0.0
  0
LINE
  5
2DE
100
AcDbEntity
  8
BLACK
 62
256
370
-1
 48
1.0
  6
CONTINUOUS
100
AcDbLine
 10
6.7566767716535425
 20
-3.078007598425196
 30
0.0
 11
6.7587837401574795
 21
-3.0775295275590544
 31
0.0
  0
LINE
  5
2DF
100
AcDbEntity
  8
BLACK
 62
256
370
-1
 48
1.0
  6
CONTINUOUS
100
AcDbLine
 10
6.7587837401574795
 20
-3.0775295275590544
 30
0.0
 11
6.7711618110236209
 21
-3.0775295275590544
 31
0.0
  0
LINE
  5
2E0
100
AcDbEntity
  8
BLACK
 62
256
370
-1
 48
1.0
  6
CONTINUOUS
100
AcDbLine
 10
6.7711618110236209
 20
-3.0775295275590544
 30
0.0
 11
6.7738011417322825
 21
-3.0783045275590544
 31
0.0
  0
LINE
  5
2E1
100
AcDbEntity
  8
BLACK
 62
256
370
-1
 48
1.0
  6
CONTINUOUS
100
AcDbLine
 10
6.9131299212598414
 20
-3.1343602362204717
 30
0.0
 11
6.8993503937007867
 21
-3.1343602362204717
 31
0.0
  0
LINE
  5
2E2
100
AcDbEntity
  8
BLACK
 62
256
370
-1
 48
1.0
  6
CONTINUOUS
100
AcDbLine
 10
6.8993503937007867
 20
-3.1343602362204717
 30
0.0
 11
6.8993503937007867
 21
-3.1540452755905504
 31
0.0
  0
LINE
  5
2E3
100
AcDbEntity
  8
BLACK
 62
256
370
-1
 48
1.0
  6
CONTINUOUS
100
AcDbLine
 10
6.8993503937007867
 20
-3.1540452755905504
 30
0.0
 11
6.9150129133858256
 21
-3.1540452755905504
 31
0.0
  0
LINE
  5
2E4
100
AcDbEntity
  8
BLACK
 62
256
370
-1
 48
1.0
  6
CONTINUOUS
100
AcDbLine
 10
6.9150129133858256
 20
-3.1540452755905504
 30
0.0
 11
6.9150135433070856
 21
-3.1540452362204716
 31
0.0
  0
LINE
  5
2E5
100
AcDbEntity
  8
BLACK
 62
256
370
-1
 48
1.0
  6
CONTINUOUS
100
AcDbLine
 10
6.9150135433070856
 20
-3.1540452362204716
 30
0.0
 11
6.9173571653543302
 21
-3.1537932283464558
 31
0.0
  0
LINE
  5
2E6
100
AcDbEntity
  8
BLACK
 62
256
370
-1
 48
1.0
  6
CONTINUOUS
100
AcDbLine
 10
6.9173571653543302
 20
-3.1537932283464558
 30
0.0
 11
6.9173574409448806
 21
-3.1537931496062983
 31
0.0
  0
LINE
  5
2E7
100
AcDbEntity
  8
BLACK
 62
256
370
-1
 48
1.0
  6
CONTINUOUS
100
AcDbLine
 10
6.9173574409448806
 20
-3.1537931496062983
 30
0.0
 11
6.9226608661417313
 21
-3.1518151181102354
 31
0.0
  0
LINE
  5
2E8
100
AcDbEntity
  8
BLACK
 62
256
370
-1
 48
1.0
  6
CONTINUOUS
100
AcDbLine
 10
6.9226608661417313
 20
-3.1518151181102354
 30
0.0
 11
6.9226611417322825
 21
-3.1518149606299204
 31
0.0
  0
LINE
  5
2E9
100
AcDbEntity
  8
BLACK
 62
256
370
-1
 48
1.0
  6
CONTINUOUS
100
AcDbLine
 10
6.9226611417322825
 20
-3.1518149606299204
 30
0.0
 11
6.9271924015748025
 21
-3.1484228346456686
 31
0.0
  0
LINE
  5
2EA
100
AcDbEntity
  8
BLACK
 62
256
370
-1
 48
1.0
  6
CONTINUOUS
100
AcDbLine
 10
6.9271924015748025
 20
-3.1484228346456686
 30
0.0
 11
6.9271925196850388
 21
-3.1484227165354324
 31
0.0
  0
LINE
  5
2EB
100
AcDbEntity
  8
BLACK
 62
256
370
-1
 48
1.0
  6
CONTINUOUS
100
AcDbLine
 10
6.9271925196850388
 20
-3.1484227165354324
 30
0.0
 11
6.9305846456692901
 21
-3.1438914566929128
 31
0.0
  0
LINE
  5
2EC
100
AcDbEntity
  8
BLACK
 62
256
370
-1
 48
1.0
  6
CONTINUOUS
100
AcDbLine
 10
6.9305846456692901
 20
-3.1438914566929128
 30
0.0
 11
6.9305848031496051
 21
-3.1438911811023615
 31
0.0
  0
LINE
  5
2ED
100
AcDbEntity
  8
BLACK
 62
256
370
-1
 48
1.0
  6
CONTINUOUS
100
AcDbLine
 10
6.9305848031496051
 20
-3.1438911811023615
 30
0.0
 11
6.932562834645668
 21
-3.1385877559055113
 31
0.0
  0
LINE
  5
2EE
100
AcDbEntity
  8
BLACK
 62
256
370
-1
 48
1.0
  6
CONTINUOUS
100
AcDbLine
 10
6.932562834645668
 20
-3.1385877559055113
 30
0.0
 11
6.9325629133858255
 21
-3.13858748031496
 31
0.0
  0
LINE
  5
2EF
100
AcDbEntity
  8
BLACK
 62
256
370
-1
 48
1.0
  6
CONTINUOUS
100
AcDbLine
 10
6.9325629133858255
 20
-3.13858748031496
 30
0.0
 11
6.9328149212598413
 21
-3.1362438582677159
 31
0.0
  0
LINE
  5
2F0
100
AcDbEntity
  8
BLACK
 62
256
370
-1
 48
1.0
  6
CONTINUOUS
100
AcDbLine
 10
6.9328149212598413
 20
-3.1362438582677159
 30
0.0
 11
6.9328149606299201
 21
-3.1362431889763771
 31
0.0
  0
LINE
  5
2F1
100
AcDbEntity
  8
BLACK
 62
256
370
-1
 48
1.0
  6
CONTINUOUS
100
AcDbLine
 10
6.9328149606299201
 20
-3.1362431889763771
 30
0.0
 11
6.9328149606299201
 21
-3.1205807086614166
 31
0.0
  0
LINE
  5
2F2
100
AcDbEntity
  8
BLACK
 62
256
370
-1
 48
1.0
  6
CONTINUOUS
100
AcDbLine
 10
6.9328149606299201
 20
-3.1205807086614166
 30
0.0
 11
6.9131299212598414
 21
-3.1205807086614166
 31
0.0
  0
LINE
  5
2F3
100
AcDbEntity
  8
BLACK
 62
256
370
-1
 48
1.0
  6
CONTINUOUS
100
AcDbLine
 10
6.9131299212598414
 20
-3.1205807086614166
 30
0.0
 11
6.9131299212598414
 21
-3.1343602362204717
 31
0.0
  0
LINE
  5
2F4
100
AcDbEntity
  8
BLACK
 62
256
370
-1
 48
1.0
  6
CONTINUOUS
100
AcDbLine
 10
7.5631484251968493
 20
-3.1343602362204717
 30
0.0
 11
7.5493688976377946
 21
-3.1343602362204717
 31
0.0
  0
LINE
  5
2F5
100
AcDbEntity
  8
BLACK
 62
256
370
-1
 48
1.0
  6
CONTINUOUS
100
AcDbLine
 10
7.5493688976377946
 20
-3.1343602362204717
 30
0.0
 11
7.5493688976377946
 21
-3.1540452755905504
 31
0.0
  0
LINE
  5
2F6
100
AcDbEntity
  8
BLACK
 62
256
370
-1
 48
1.0
  6
CONTINUOUS
100
AcDbLine
 10
7.5493688976377946
 20
-3.1540452755905504
 30
0.0
 11
7.5650314173228335
 21
-3.1540452755905504
 31
0.0
  0
LINE
  5
2F7
100
AcDbEntity
  8
BLACK
 62
256
370
-1
 48
1.0
  6
CONTINUOUS
100
AcDbLine
 10
7.5650314173228335
 20
-3.1540452755905504
 30
0.0
 11
7.5650320472440935
 21
-3.1540452362204716
 31
0.0
  0
LINE
  5
2F8
100
AcDbEntity
  8
BLACK
 62
256
370
-1
 48
1.0
  6
CONTINUOUS
100
AcDbLine
 10
7.5650320472440935
 20
-3.1540452362204716
 30
0.0
 11
7.5673756692913372
 21
-3.1537932283464558
 31
0.0
  0
LINE
  5
2F9
100
AcDbEntity
  8
BLACK
 62
256
370
-1
 48
1.0
  6
CONTINUOUS
100
AcDbLine
 10
7.5673756692913372
 20
-3.1537932283464558
 30
0.0
 11
7.5673759448818885
 21
-3.1537931496062983
 31
0.0
  0
LINE
  5
2FA
100
AcDbEntity
  8
BLACK
 62
256
370
-1
 48
1.0
  6
CONTINUOUS
100
AcDbLine
 10
7.5673759448818885
 20
-3.1537931496062983
 30
0.0
 11
7.5726793700787391
 21
-3.1518151181102354
 31
0.0
  0
LINE
  5
2FB
100
AcDbEntity
  8
BLACK
 62
256
370
-1
 48
1.0
  6
CONTINUOUS
100
AcDbLine
 10
7.5726793700787391
 20
-3.1518151181102354
 30
0.0
 11
7.5726796456692904
 21
-3.1518149606299204
 31
0.0
  0
LINE
  5
2FC
100
AcDbEntity
  8
BLACK
 62
256
370
-1
 48
1.0
  6
CONTINUOUS
100
AcDbLine
 10
7.5726796456692904
 20
-3.1518149606299204
 30
0.0
 11
7.5772109055118104
 21
-3.1484228346456686
 31
0.0
  0
LINE
  5
2FD
100
AcDbEntity
  8
BLACK
 62
256
370
-1
 48
1.0
  6
CONTINUOUS
100
AcDbLine
 10
7.5772109055118104
 20
-3.1484228346456686
 30
0.0
 11
7.5772110236220467
 21
-3.1484227165354324
 31
0.0
  0
LINE
  5
2FE
100
AcDbEntity
  8
BLACK
 62
256
370
-1
 48
1.0
  6
CONTINUOUS
100
AcDbLine
 10
7.5772110236220467
 20
-3.1484227165354324
 30
0.0
 11
7.580603149606298
 21
-3.1438914566929128
 31
0.0
  0
LINE
  5
2FF
100
AcDbEntity
  8
BLACK
 62
256
370
-1
 48
1.0
  6
CONTINUOUS
100
AcDbLine
 10
7.580603149606298
 20
-3.1438914566929128
 30
0.0
 11
7.580603307086613
 21
-3.1438911811023615
 31
0.0
  0
LINE
  5
300
100
AcDbEntity
  8
BLACK
 62
256
370
-1
 48
1.0
  6
CONTINUOUS
100
AcDbLine
 10
7.580603307086613
 20
-3.1438911811023615
 30
0.0
 11
7.5825813385826759
 21
-3.1385877559055113
 31
0.0
  0
LINE
  5
301
100
AcDbEntity
  8
BLACK
 62
256
370
-1
 48
1.0
  6
CONTINUOUS
100
AcDbLine
 10
7.5825813385826759
 20
-3.1385877559055113
 30
0.0
 11
7.5825814173228334
 21
-3.13858748031496
 31
0.0
  0
LINE
  5
302
100
AcDbEntity
  8
BLACK
 62
256
370
-1
 48
1.0
  6
CONTINUOUS
100
AcDbLine
 10
7.5825814173228334
 20
-3.13858748031496
 30
0.0
 11
7.5828334251968492
 21
-3.1362438582677159
 31
0.0
  0
LINE
  5
303
100
AcDbEntity
  8
BLACK
 62
256
370
-1
 48
1.0
  6
CONTINUOUS
100
AcDbLine
 10
7.5828334251968492
 20
-3.1362438582677159
 30
0.0
 11
7.582833464566928
 21
-3.1362431889763771
 31
0.0
  0
LINE
  5
304
100
AcDbEntity
  8
BLACK
 62
256
370
-1
 48
1.0
  6
CONTINUOUS
100
AcDbLine
 10
7.582833464566928
 20
-3.1362431889763771
 30
0.0
 11
7.582833464566928
 21
-3.1205807086614166
 31
0.0
  0
LINE
  5
305
100
AcDbEntity
  8
BLACK
 62
256
370
-1
 48
1.0
  6
CONTINUOUS
100
AcDbLine
 10
7.582833464566928
 20
-3.1205807086614166
 30
0.0
 11
7.5631484251968493
 21
-3.1205807086614166
 31
0.0
  0
LINE
  5
306
100
AcDbEntity
  8
BLACK
 62
256
370
-1
 48
1.0
  6
CONTINUOUS
100
AcDbLine
 10
7.5631484251968493
 20
-3.1205807086614166
 30
0.0
 11
7.5631484251968493
 21
-3.1343602362204717
 31
0.0
  0
LINE
  5
307
100
AcDbEntity
  8
BLACK
 62
256
370
-1
 48
1.0
  6
CONTINUOUS
100
AcDbLine
 10
8.6289859842519689
 20
-3.1343602362204717
 30
0.0
 11
8.6152064566929134
 21
-3.1343602362204717
 31
0.0
  0
LINE
  5
308
100
AcDbEntity
  8
BLACK
 62
256
370
-1
 48
1.0
  6
CONTINUOUS
100
AcDbLine
 10
8.6152064566929134
 20
-3.1343602362204717
 30
0.0
 11
8.6152064566929134
 21
-3.1540452755905504
 31
0.0
  0
LINE
  5
309
100
AcDbEntity
  8
BLACK
 62
256
370
-1
 48
1.0
  6
CONTINUOUS
100
AcDbLine
 10
8.6486710236220468
 20
-3.1205807086614166
 30
0.0
 11
8.6289859842519689
 21
-3.1205807086614166
 31
0.0
  0
LINE
  5
30A
100
AcDbEntity
  8
BLACK
 62
256
370
-1
 48
1.0
  6
CONTINUOUS
100
AcDbLine
 10
8.6289859842519689
 20
-3.1205807086614166
 30
0.0
 11
8.6289859842519689
 21
-3.1343602362204717
 31
0.0
  0
LINE
  5
30B
100
AcDbEntity
  8
BLACK
 62
256
370
-1
 48
1.0
  6
CONTINUOUS
100
AcDbLine
 10
5.4017913385826759
 20
-3.1343602362204717
 30
0.0
 11
5.354547244094487
 21
-3.1343602362204717
 31
0.0
  0
LINE
  5
30C
100
AcDbEntity
  8
BLACK
 62
256
370
-1
 48
1.0
  6
CONTINUOUS
100
AcDbLine
 10
5.354547244094487
 20
-3.1343602362204717
 30
0.0
 11
5.354547244094487
 21
-3.0871161417322828
 31
0.0
  0
LINE
  5
30D
100
AcDbEntity
  8
BLACK
 62
256
370
-1
 48
1.0
  6
CONTINUOUS
100
AcDbLine
 10
5.354547244094487
 20
-3.0871161417322828
 30
0.0
 11
5.4017913385826759
 21
-3.0871161417322828
 31
0.0
  0
LINE
  5
30E
100
AcDbEntity
  8
BLACK
 62
256
370
-1
 48
1.0
  6
CONTINUOUS
100
AcDbLine
 10
5.4017913385826759
 20
-3.0871161417322828
 30
0.0
 11
5.4017913385826759
 21
-3.1343602362204717
 31
0.0
  0
LINE
  5
30F
100
AcDbEntity
  8
BLACK
 62
256
370
-1
 48
1.0
  6
CONTINUOUS
100
AcDbLine
 10
5.9617913385826764
 20
-3.1343602362204717
 30
0.0
 11
5.9145472440944875
 21
-3.1343602362204717
 31
0.0
  0
LINE
  5
310
100
AcDbEntity
  8
BLACK
 62
256
370
-1
 48
1.0
  6
CONTINUOUS
100
AcDbLine
 10
5.9145472440944875
 20
-3.1343602362204717
 30
0.0
 11
5.9145472440944875
 21
-3.0871161417322828
 31
0.0
  0
LINE
  5
311
100
AcDbEntity
  8
BLACK
 62
256
370
-1
 48
1.0
  6
CONTINUOUS
100
AcDbLine
 10
5.9145472440944875
 20
-3.0871161417322828
 30
0.0
 11
5.9617913385826764
 21
-3.0871161417322828
 31
0.0
  0
LINE
  5
312
100
AcDbEntity
  8
BLACK
 62
256
370
-1
 48
1.0
  6
CONTINUOUS
100
AcDbLine
 10
5.9617913385826764
 20
-3.0871161417322828
 30
0.0
 11
5.9617913385826764
 21
-3.1343602362204717
 31
0.0
  0
LINE
  5
313
100
AcDbEntity
  8
BLACK
 62
256
370
-1
 48
1.0
  6
CONTINUOUS
100
AcDbLine
 10
6.8304527559055108
 20
-3.1343602362204717
 30
0.0
 11
6.7832086614173219
 21
-3.1343602362204717
 31
0.0
  0
LINE
  5
314
100
AcDbEntity
  8
BLACK
 62
256
370
-1
 48
1.0
  6
CONTINUOUS
100
AcDbLine
 10
6.7832086614173219
 20
-3.1343602362204717
 30
0.0
 11
6.7832086614173219
 21
-3.0871161417322828
 31
0.0
  0
LINE
  5
315
100
AcDbEntity
  8
BLACK
 62
256
370
-1
 48
1.0
  6
CONTINUOUS
100
AcDbLine
 10
6.7832086614173219
 20
-3.0871161417322828
 30
0.0
 11
6.8304527559055108
 21
-3.0871161417322828
 31
0.0
  0
LINE
  5
316
100
AcDbEntity
  8
BLACK
 62
256
370
-1
 48
1.0
  6
CONTINUOUS
100
AcDbLine
 10
6.8304527559055108
 20
-3.0871161417322828
 30
0.0
 11
6.8304527559055108
 21
-3.1343602362204717
 31
0.0
  0
LINE
  5
317
100
AcDbEntity
  8
BLACK
 62
256
370
-1
 48
1.0
  6
CONTINUOUS
100
AcDbLine
 10
7.4804712598425187
 20
-3.1343602362204717
 30
0.0
 11
7.4332271653543298
 21
-3.1343602362204717
 31
0.0
  0
LINE
  5
318
100
AcDbEntity
  8
BLACK
 62
256
370
-1
 48
1.0
  6
CONTINUOUS
100
AcDbLine
 10
7.4332271653543298
 20
-3.1343602362204717
 30
0.0
 11
7.4332271653543298
 21
-3.0871161417322828
 31
0.0
  0
LINE
  5
319
100
AcDbEntity
  8
BLACK
 62
256
370
-1
 48
1.0
  6
CONTINUOUS
100
AcDbLine
 10
7.4332271653543298
 20
-3.0871161417322828
 30
0.0
 11
7.4804712598425187
 21
-3.0871161417322828
 31
0.0
  0
LINE
  5
31A
100
AcDbEntity
  8
BLACK
 62
256
370
-1
 48
1.0
  6
CONTINUOUS
100
AcDbLine
 10
7.4804712598425187
 20
-3.0871161417322828
 30
0.0
 11
7.4804712598425187
 21
-3.1343602362204717
 31
0.0
  0
LINE
  5
31B
100
AcDbEntity
  8
BLACK
 62
256
370
-1
 48
1.0
  6
CONTINUOUS
100
AcDbLine
 10
8.0113043307086613
 20
-3.1343602362204717
 30
0.0
 11
7.9640602362204715
 21
-3.1343602362204717
 31
0.0
  0
LINE
  5
31C
100
AcDbEntity
  8
BLACK
 62
256
370
-1
 48
1.0
  6
CONTINUOUS
100
AcDbLine
 10
7.9640602362204715
 20
-3.1343602362204717
 30
0.0
 11
7.9640602362204715
 21
-3.0871161417322828
 31
0.0
  0
LINE
  5
31D
100
AcDbEntity
  8
BLACK
 62
256
370
-1
 48
1.0
  6
CONTINUOUS
100
AcDbLine
 10
7.9640602362204715
 20
-3.0871161417322828
 30
0.0
 11
8.0113043307086613
 21
-3.0871161417322828
 31
0.0
  0
LINE
  5
31E
100
AcDbEntity
  8
BLACK
 62
256
370
-1
 48
1.0
  6
CONTINUOUS
100
AcDbLine
 10
8.0113043307086613
 20
-3.0871161417322828
 30
0.0
 11
8.0113043307086613
 21
-3.1343602362204717
 31
0.0
  0
LINE
  5
31F
100
AcDbEntity
  8
BLACK
 62
256
370
-1
 48
1.0
  6
CONTINUOUS
100
AcDbLine
 10
8.5463088188976357
 20
-3.1343602362204717
 30
0.0
 11
8.4990647244094468
 21
-3.1343602362204717
 31
0.0
  0
LINE
  5
320
100
AcDbEntity
  8
BLACK
 62
256
370
-1
 48
1.0
  6
CONTINUOUS
100
AcDbLine
 10
8.4990647244094468
 20
-3.1343602362204717
 30
0.0
 11
8.4990647244094468
 21
-3.0871161417322828
 31
0.0
  0
LINE
  5
321
100
AcDbEntity
  8
BLACK
 62
256
370
-1
 48
1.0
  6
CONTINUOUS
100
AcDbLine
 10
8.4990647244094468
 20
-3.0871161417322828
 30
0.0
 11
8.5463088188976357
 21
-3.0871161417322828
 31
0.0
  0
LINE
  5
322
100
AcDbEntity
  8
BLACK
 62
256
370
-1
 48
1.0
  6
CONTINUOUS
100
AcDbLine
 10
8.5463088188976357
 20
-3.0871161417322828
 30
0.0
 11
8.5463088188976357
 21
-3.1343602362204717
 31
0.0
  0
LINE
  5
323
100
AcDbEntity
  8
BLACK
 62
256
370
-1
 48
1.0
  6
CONTINUOUS
100
AcDbLine
 10
5.1591929133858256
 20
-3.1304232283464559
 30
0.0
 11
5.1198228346456682
 21
-3.1304232283464559
 31
0.0
  0
LINE
  5
324
100
AcDbEntity
  8
BLACK
 62
256
370
-1
 48
1.0
  6
CONTINUOUS
100
AcDbLine
 10
5.1198228346456682
 20
-3.1304232283464559
 30
0.0
 11
5.1198228346456682
 21
-3.0910531496062985
 31
0.0
  0
LINE
  5
325
100
AcDbEntity
  8
BLACK
 62
256
370
-1
 48
1.0
  6
CONTINUOUS
100
AcDbLine
 10
5.1198228346456682
 20
-3.0910531496062985
 30
0.0
 11
5.1591929133858256
 21
-3.0910531496062985
 31
0.0
  0
LINE
  5
326
100
AcDbEntity
  8
BLACK
 62
256
370
-1
 48
1.0
  6
CONTINUOUS
100
AcDbLine
 10
5.1591929133858256
 20
-3.0910531496062985
 30
0.0
 11
5.1591929133858256
 21
-3.1304232283464559
 31
0.0
  0
LINE
  5
327
100
AcDbEntity
  8
BLACK
 62
256
370
-1
 48
1.0
  6
CONTINUOUS
100
AcDbLine
 10
5.2391929133858257
 20
-3.1304232283464559
 30
0.0
 11
5.1998228346456683
 21
-3.1304232283464559
 31
0.0
  0
LINE
  5
328
100
AcDbEntity
  8
BLACK
 62
256
370
-1
 48
1.0
  6
CONTINUOUS
100
AcDbLine
 10
5.1998228346456683
 20
-3.1304232283464559
 30
0.0
 11
5.1998228346456683
 21
-3.0910531496062985
 31
0.0
  0
LINE
  5
329
100
AcDbEntity
  8
BLACK
 62
256
370
-1
 48
1.0
  6
CONTINUOUS
100
AcDbLine
 10
5.1998228346456683
 20
-3.0910531496062985
 30
0.0
 11
5.2391929133858257
 21
-3.0910531496062985
 31
0.0
  0
LINE
  5
32A
100
AcDbEntity
  8
BLACK
 62
256
370
-1
 48
1.0
  6
CONTINUOUS
100
AcDbLine
 10
5.2391929133858257
 20
-3.0910531496062985
 30
0.0
 11
5.2391929133858257
 21
-3.1304232283464559
 31
0.0
  0
LINE
  5
32B
100
AcDbEntity
  8
BLACK
 62
256
370
-1
 48
1.0
  6
CONTINUOUS
100
AcDbLine
 10
5.3191929133858258
 20
-3.1304232283464559
 30
0.0
 11
5.2798228346456684
 21
-3.1304232283464559
 31
0.0
  0
LINE
  5
32C
100
AcDbEntity
  8
BLACK
 62
256
370
-1
 48
1.0
  6
CONTINUOUS
100
AcDbLine
 10
5.2798228346456684
 20
-3.1304232283464559
 30
0.0
 11
5.2798228346456684
 21
-3.0910531496062985
 31
0.0
  0
LINE
  5
32D
100
AcDbEntity
  8
BLACK
 62
256
370
-1
 48
1.0
  6
CONTINUOUS
100
AcDbLine
 10
5.2798228346456684
 20
-3.0910531496062985
 30
0.0
 11
5.3191929133858258
 21
-3.0910531496062985
 31
0.0
  0
LINE
  5
32E
100
AcDbEntity
  8
BLACK
 62
256
370
-1
 48
1.0
  6
CONTINUOUS
100
AcDbLine
 10
5.3191929133858258
 20
-3.0910531496062985
 30
0.0
 11
5.3191929133858258
 21
-3.1304232283464559
 31
0.0
  0
LINE
  5
32F
100
AcDbEntity
  8
BLACK
 62
256
370
-1
 48
1.0
  6
CONTINUOUS
100
AcDbLine
 10
5.8791929133858263
 20
-3.1304232283464559
 30
0.0
 11
5.839822834645668
 21
-3.1304232283464559
 31
0.0
  0
LINE
  5
330
100
AcDbEntity
  8
BLACK
 62
256
370
-1
 48
1.0
  6
CONTINUOUS
100
AcDbLine
 10
5.839822834645668
 20
-3.1304232283464559
 30
0.0
 11
5.839822834645668
 21
-3.0910531496062985
 31
0.0
  0
LINE
  5
331
100
AcDbEntity
  8
BLACK
 62
256
370
-1
 48
1.0
  6
CONTINUOUS
100
AcDbLine
 10
5.839822834645668
 20
-3.0910531496062985
 30
0.0
 11
5.8791929133858263
 21
-3.0910531496062985
 31
0.0
  0
LINE
  5
332
100
AcDbEntity
  8
BLACK
 62
256
370
-1
 48
1.0
  6
CONTINUOUS
100
AcDbLine
 10
5.8791929133858263
 20
-3.0910531496062985
 30
0.0
 11
5.8791929133858263
 21
-3.1304232283464559
 31
0.0
  0
LINE
  5
333
100
AcDbEntity
  8
BLACK
 62
256
370
-1
 48
1.0
  6
CONTINUOUS
100
AcDbLine
 10
6.733645196850393
 20
-3.0785417322834641
 30
0.0
 11
6.7361374015748021
 21
-3.0799805905511803
 31
0.0
  0
LINE
  5
334
100
AcDbEntity
  8
BLACK
 62
256
370
-1
 48
1.0
  6
CONTINUOUS
100
AcDbLine
 10
6.7361374015748021
 20
-3.0799805905511803
 30
0.0
 11
6.7381722834645661
 21
-3.0820154724409443
 31
0.0
  0
LINE
  5
335
100
AcDbEntity
  8
BLACK
 62
256
370
-1
 48
1.0
  6
CONTINUOUS
100
AcDbLine
 10
6.7381722834645661
 20
-3.0820154724409443
 30
0.0
 11
6.7396111417322828
 21
-3.0845076771653535
 31
0.0
  0
LINE
  5
336
100
AcDbEntity
  8
BLACK
 62
256
370
-1
 48
1.0
  6
CONTINUOUS
100
AcDbLine
 10
6.7396111417322828
 20
-3.0845076771653535
 30
0.0
 11
6.7403559842519671
 21
-3.0872873622047239
 31
0.0
  0
LINE
  5
337
100
AcDbEntity
  8
BLACK
 62
256
370
-1
 48
1.0
  6
CONTINUOUS
100
AcDbLine
 10
6.7403559842519671
 20
-3.0872873622047239
 30
0.0
 11
6.7403559842519671
 21
-3.0901650787401569
 31
0.0
  0
LINE
  5
338
100
AcDbEntity
  8
BLACK
 62
256
370
-1
 48
1.0
  6
CONTINUOUS
100
AcDbLine
 10
6.7403559842519671
 20
-3.0901650787401569
 30
0.0
 11
6.7401180314960625
 21
-3.0910531496062985
 31
0.0
  0
LINE
  5
339
100
AcDbEntity
  8
BLACK
 62
256
370
-1
 48
1.0
  6
CONTINUOUS
100
AcDbLine
 10
6.7401180314960625
 20
-3.0910531496062985
 30
0.0
 11
6.7491929133858255
 21
-3.0910531496062985
 31
0.0
  0
LINE
  5
33A
100
AcDbEntity
  8
BLACK
 62
256
370
-1
 48
1.0
  6
CONTINUOUS
100
AcDbLine
 10
6.7491929133858255
 20
-3.0910531496062985
 30
0.0
 11
6.7491929133858255
 21
-3.1304232283464559
 31
0.0
  0
LINE
  5
33B
100
AcDbEntity
  8
BLACK
 62
256
370
-1
 48
1.0
  6
CONTINUOUS
100
AcDbLine
 10
6.7491929133858255
 20
-3.1304232283464559
 30
0.0
 11
6.7098228346456681
 21
-3.1304232283464559
 31
0.0
  0
LINE
  5
33C
100
AcDbEntity
  8
BLACK
 62
256
370
-1
 48
1.0
  6
CONTINUOUS
100
AcDbLine
 10
6.7098228346456681
 20
-3.1304232283464559
 30
0.0
 11
6.7098228346456681
 21
-3.0910531496062985
 31
0.0
  0
LINE
  5
33D
100
AcDbEntity
  8
BLACK
 62
256
370
-1
 48
1.0
  6
CONTINUOUS
100
AcDbLine
 10
6.7098228346456681
 20
-3.0910531496062985
 30
0.0
 11
6.7187352755905501
 21
-3.0910531496062985
 31
0.0
  0
LINE
  5
33E
100
AcDbEntity
  8
BLACK
 62
256
370
-1
 48
1.0
  6
CONTINUOUS
100
AcDbLine
 10
6.7187352755905501
 20
-3.0910531496062985
 30
0.0
 11
6.7184973228346445
 21
-3.0901650787401569
 31
0.0
  0
LINE
  5
33F
100
AcDbEntity
  8
BLACK
 62
256
370
-1
 48
1.0
  6
CONTINUOUS
100
AcDbLine
 10
6.7184973228346445
 20
-3.0901650787401569
 30
0.0
 11
6.7184973228346445
 21
-3.0872873622047239
 31
0.0
  0
LINE
  5
340
100
AcDbEntity
  8
BLACK
 62
256
370
-1
 48
1.0
  6
CONTINUOUS
100
AcDbLine
 10
6.7184973228346445
 20
-3.0872873622047239
 30
0.0
 11
6.7192421653543297
 21
-3.0845076771653535
 31
0.0
  0
LINE
  5
341
100
AcDbEntity
  8
BLACK
 62
256
370
-1
 48
1.0
  6
CONTINUOUS
100
AcDbLine
 10
6.7192421653543297
 20
-3.0845076771653535
 30
0.0
 11
6.7206810236220464
 21
-3.0820154724409443
 31
0.0
  0
LINE
  5
342
100
AcDbEntity
  8
BLACK
 62
256
370
-1
 48
1.0
  6
CONTINUOUS
100
AcDbLine
 10
6.7206810236220464
 20
-3.0820154724409443
 30
0.0
 11
6.7227159055118104
 21
-3.0799805905511803
 31
0.0
  0
LINE
  5
343
100
AcDbEntity
  8
BLACK
 62
256
370
-1
 48
1.0
  6
CONTINUOUS
100
AcDbLine
 10
6.7227159055118104
 20
-3.0799805905511803
 30
0.0
 11
6.7252081102362196
 21
-3.0785417322834641
 31
0.0
  0
LINE
  5
344
100
AcDbEntity
  8
BLACK
 62
256
370
-1
 48
1.0
  6
CONTINUOUS
100
AcDbLine
 10
6.7252081102362196
 20
-3.0785417322834641
 30
0.0
 11
6.72798779527559
 21
-3.0777968897637789
 31
0.0
  0
LINE
  5
345
100
AcDbEntity
  8
BLACK
 62
256
370
-1
 48
1.0
  6
CONTINUOUS
100
AcDbLine
 10
6.72798779527559
 20
-3.0777968897637789
 30
0.0
 11
6.7308655118110226
 21
-3.0777968897637789
 31
0.0
  0
LINE
  5
346
100
AcDbEntity
  8
BLACK
 62
256
370
-1
 48
1.0
  6
CONTINUOUS
100
AcDbLine
 10
6.7308655118110226
 20
-3.0777968897637789
 30
0.0
 11
6.733645196850393
 21
-3.0785417322834641
 31
0.0
  0
LINE
  5
347
100
AcDbEntity
  8
BLACK
 62
256
370
-1
 48
1.0
  6
CONTINUOUS
100
AcDbLine
 10
7.3876563779527551
 20
-3.0792977952755898
 30
0.0
 11
7.3901485826771642
 21
-3.0807366535433065
 31
0.0
  0
LINE
  5
348
100
AcDbEntity
  8
BLACK
 62
256
370
-1
 48
1.0
  6
CONTINUOUS
100
AcDbLine
 10
7.3901485826771642
 20
-3.0807366535433065
 30
0.0
 11
7.3921834645669282
 21
-3.08277153543307
 31
0.0
  0
LINE
  5
349
100
AcDbEntity
  8
BLACK
 62
256
370
-1
 48
1.0
  6
CONTINUOUS
100
AcDbLine
 10
7.3921834645669282
 20
-3.08277153543307
 30
0.0
 11
7.3936223228346449
 21
-3.0852637401574796
 31
0.0
  0
LINE
  5
34A
100
AcDbEntity
  8
BLACK
 62
256
370
-1
 48
1.0
  6
CONTINUOUS
100
AcDbLine
 10
7.3936223228346449
 20
-3.0852637401574796
 30
0.0
 11
7.3943671653543301
 21
-3.0880434251968496
 31
0.0
  0
LINE
  5
34B
100
AcDbEntity
  8
BLACK
 62
256
370
-1
 48
1.0
  6
CONTINUOUS
100
AcDbLine
 10
7.3943671653543301
 20
-3.0880434251968496
 30
0.0
 11
7.3943671653543301
 21
-3.0909211417322826
 31
0.0
  0
LINE
  5
34C
100
AcDbEntity
  8
BLACK
 62
256
370
-1
 48
1.0
  6
CONTINUOUS
100
AcDbLine
 10
7.3943671653543301
 20
-3.0909211417322826
 30
0.0
 11
7.3943318110236209
 21
-3.0910531496062985
 31
0.0
  0
LINE
  5
34D
100
AcDbEntity
  8
BLACK
 62
256
370
-1
 48
1.0
  6
CONTINUOUS
100
AcDbLine
 10
7.3943318110236209
 20
-3.0910531496062985
 30
0.0
 11
7.4026204330708651
 21
-3.0910531496062985
 31
0.0
  0
LINE
  5
34E
100
AcDbEntity
  8
BLACK
 62
256
370
-1
 48
1.0
  6
CONTINUOUS
100
AcDbLine
 10
7.4026204330708651
 20
-3.0910531496062985
 30
0.0
 11
7.4026204330708651
 21
-3.1304232283464559
 31
0.0
  0
LINE
  5
34F
100
AcDbEntity
  8
BLACK
 62
256
370
-1
 48
1.0
  6
CONTINUOUS
100
AcDbLine
 10
7.4026204330708651
 20
-3.1304232283464559
 30
0.0
 11
7.3632503543307077
 21
-3.1304232283464559
 31
0.0
  0
LINE
  5
350
100
AcDbEntity
  8
BLACK
 62
256
370
-1
 48
1.0
  6
CONTINUOUS
100
AcDbLine
 10
7.3632503543307077
 20
-3.1304232283464559
 30
0.0
 11
7.3632503543307077
 21
-3.0910531496062985
 31
0.0
  0
LINE
  5
351
100
AcDbEntity
  8
BLACK
 62
256
370
-1
 48
1.0
  6
CONTINUOUS
100
AcDbLine
 10
7.3632503543307077
 20
-3.0910531496062985
 30
0.0
 11
7.3725438582677159
 21
-3.0910531496062985
 31
0.0
  0
LINE
  5
352
100
AcDbEntity
  8
BLACK
 62
256
370
-1
 48
1.0
  6
CONTINUOUS
100
AcDbLine
 10
7.3725438582677159
 20
-3.0910531496062985
 30
0.0
 11
7.3725085039370066
 21
-3.0909211417322826
 31
0.0
  0
LINE
  5
353
100
AcDbEntity
  8
BLACK
 62
256
370
-1
 48
1.0
  6
CONTINUOUS
100
AcDbLine
 10
7.3725085039370066
 20
-3.0909211417322826
 30
0.0
 11
7.3725085039370066
 21
-3.0880434251968496
 31
0.0
  0
LINE
  5
354
100
AcDbEntity
  8
BLACK
 62
256
370
-1
 48
1.0
  6
CONTINUOUS
100
AcDbLine
 10
7.3725085039370066
 20
-3.0880434251968496
 30
0.0
 11
7.3732533464566918
 21
-3.0852637401574796
 31
0.0
  0
LINE
  5
355
100
AcDbEntity
  8
BLACK
 62
256
370
-1
 48
1.0
  6
CONTINUOUS
100
AcDbLine
 10
7.3732533464566918
 20
-3.0852637401574796
 30
0.0
 11
7.3746922047244086
 21
-3.08277153543307
 31
0.0
  0
LINE
  5
356
100
AcDbEntity
  8
BLACK
 62
256
370
-1
 48
1.0
  6
CONTINUOUS
100
AcDbLine
 10
7.3746922047244086
 20
-3.08277153543307
 30
0.0
 11
7.3767270866141725
 21
-3.0807366535433065
 31
0.0
  0
LINE
  5
357
100
AcDbEntity
  8
BLACK
 62
256
370
-1
 48
1.0
  6
CONTINUOUS
100
AcDbLine
 10
7.3767270866141725
 20
-3.0807366535433065
 30
0.0
 11
7.3792192913385817
 21
-3.0792977952755898
 31
0.0
  0
LINE
  5
358
100
AcDbEntity
  8
BLACK
 62
256
370
-1
 48
1.0
  6
CONTINUOUS
100
AcDbLine
 10
7.3792192913385817
 20
-3.0792977952755898
 30
0.0
 11
7.3819989763779521
 21
-3.078552952755905
 31
0.0
  0
LINE
  5
359
100
AcDbEntity
  8
BLACK
 62
256
370
-1
 48
1.0
  6
CONTINUOUS
100
AcDbLine
 10
7.3819989763779521
 20
-3.078552952755905
 30
0.0
 11
7.3848766929133847
 21
-3.078552952755905
 31
0.0
  0
LINE
  5
35A
100
AcDbEntity
  8
BLACK
 62
256
370
-1
 48
1.0
  6
CONTINUOUS
100
AcDbLine
 10
7.3848766929133847
 20
-3.078552952755905
 30
0.0
 11
7.3876563779527551
 21
-3.0792977952755898
 31
0.0
  0
LINE
  5
35B
100
AcDbEntity
  8
BLACK
 62
256
370
-1
 48
1.0
  6
CONTINUOUS
100
AcDbLine
 10
7.9167874409448808
 20
-3.0785208267716531
 30
0.0
 11
7.91927964566929
 21
-3.0799596850393693
 31
0.0
  0
LINE
  5
35C
100
AcDbEntity
  8
BLACK
 62
256
370
-1
 48
1.0
  6
CONTINUOUS
100
AcDbLine
 10
7.91927964566929
 20
-3.0799596850393693
 30
0.0
 11
7.921314527559054
 21
-3.0819945669291333
 31
0.0
  0
LINE
  5
35D
100
AcDbEntity
  8
BLACK
 62
256
370
-1
 48
1.0
  6
CONTINUOUS
100
AcDbLine
 10
7.921314527559054
 20
-3.0819945669291333
 30
0.0
 11
7.9227533858267707
 21
-3.0844867716535425
 31
0.0
  0
LINE
  5
35E
100
AcDbEntity
  8
BLACK
 62
256
370
-1
 48
1.0
  6
CONTINUOUS
100
AcDbLine
 10
7.9227533858267707
 20
-3.0844867716535425
 30
0.0
 11
7.9234982283464559
 21
-3.0872664566929129
 31
0.0
  0
LINE
  5
35F
100
AcDbEntity
  8
BLACK
 62
256
370
-1
 48
1.0
  6
CONTINUOUS
100
AcDbLine
 10
7.9234982283464559
 20
-3.0872664566929129
 30
0.0
 11
7.9234982283464559
 21
-3.0901441732283459
 31
0.0
  0
LINE
  5
360
100
AcDbEntity
  8
BLACK
 62
256
370
-1
 48
1.0
  6
CONTINUOUS
100
AcDbLine
 10
7.9234982283464559
 20
-3.0901441732283459
 30
0.0
 11
7.9232546456692905
 21
-3.0910531496062985
 31
0.0
  0
LINE
  5
361
100
AcDbEntity
  8
BLACK
 62
256
370
-1
 48
1.0
  6
CONTINUOUS
100
AcDbLine
 10
7.9232546456692905
 20
-3.0910531496062985
 30
0.0
 11
7.9325787401574797
 21
-3.0910531496062985
 31
0.0
  0
LINE
  5
362
100
AcDbEntity
  8
BLACK
 62
256
370
-1
 48
1.0
  6
CONTINUOUS
100
AcDbLine
 10
7.9325787401574797
 20
-3.0910531496062985
 30
0.0
 11
7.9325787401574797
 21
-3.1304232283464559
 31
0.0
  0
LINE
  5
363
100
AcDbEntity
  8
BLACK
 62
256
370
-1
 48
1.0
  6
CONTINUOUS
100
AcDbLine
 10
7.9325787401574797
 20
-3.1304232283464559
 30
0.0
 11
7.8932086614173222
 21
-3.1304232283464559
 31
0.0
  0
LINE
  5
364
100
AcDbEntity
  8
BLACK
 62
256
370
-1
 48
1.0
  6
CONTINUOUS
100
AcDbLine
 10
7.8932086614173222
 20
-3.1304232283464559
 30
0.0
 11
7.8932086614173222
 21
-3.0910531496062985
 31
0.0
  0
LINE
  5
365
100
AcDbEntity
  8
BLACK
 62
256
370
-1
 48
1.0
  6
CONTINUOUS
100
AcDbLine
 10
7.8932086614173222
 20
-3.0910531496062985
 30
0.0
 11
7.9018831496062987
 21
-3.0910531496062985
 31
0.0
  0
LINE
  5
366
100
AcDbEntity
  8
BLACK
 62
256
370
-1
 48
1.0
  6
CONTINUOUS
100
AcDbLine
 10
7.9018831496062987
 20
-3.0910531496062985
 30
0.0
 11
7.9016395669291333
 21
-3.0901441732283459
 31
0.0
  0
LINE
  5
367
100
AcDbEntity
  8
BLACK
 62
256
370
-1
 48
1.0
  6
CONTINUOUS
100
AcDbLine
 10
7.9016395669291333
 20
-3.0901441732283459
 30
0.0
 11
7.9016395669291333
 21
-3.0872664566929129
 31
0.0
  0
LINE
  5
368
100
AcDbEntity
  8
BLACK
 62
256
370
-1
 48
1.0
  6
CONTINUOUS
100
AcDbLine
 10
7.9016395669291333
 20
-3.0872664566929129
 30
0.0
 11
7.9023844094488176
 21
-3.0844867716535425
 31
0.0
  0
LINE
  5
369
100
AcDbEntity
  8
BLACK
 62
256
370
-1
 48
1.0
  6
CONTINUOUS
100
AcDbLine
 10
7.9023844094488176
 20
-3.0844867716535425
 30
0.0
 11
7.9038232677165343
 21
-3.0819945669291333
 31
0.0
  0
LINE
  5
36A
100
AcDbEntity
  8
BLACK
 62
256
370
-1
 48
1.0
  6
CONTINUOUS
100
AcDbLine
 10
7.9038232677165343
 20
-3.0819945669291333
 30
0.0
 11
7.9058581496062983
 21
-3.0799596850393693
 31
0.0
  0
LINE
  5
36B
100
AcDbEntity
  8
BLACK
 62
256
370
-1
 48
1.0
  6
CONTINUOUS
100
AcDbLine
 10
7.9058581496062983
 20
-3.0799596850393693
 30
0.0
 11
7.9083503543307074
 21
-3.0785208267716531
 31
0.0
  0
LINE
  5
36C
100
AcDbEntity
  8
BLACK
 62
256
370
-1
 48
1.0
  6
CONTINUOUS
100
AcDbLine
 10
7.9083503543307074
 20
-3.0785208267716531
 30
0.0
 11
7.9111300393700779
 21
-3.0777759842519679
 31
0.0
  0
LINE
  5
36D
100
AcDbEntity
  8
BLACK
 62
256
370
-1
 48
1.0
  6
CONTINUOUS
100
AcDbLine
 10
7.9111300393700779
 20
-3.0777759842519679
 30
0.0
 11
7.9140077559055104
 21
-3.0777759842519679
 31
0.0
  0
LINE
  5
36E
100
AcDbEntity
  8
BLACK
 62
256
370
-1
 48
1.0
  6
CONTINUOUS
100
AcDbLine
 10
7.9140077559055104
 20
-3.0777759842519679
 30
0.0
 11
7.9167874409448808
 21
-3.0785208267716531
 31
0.0
  0
LINE
  5
36F
100
AcDbEntity
  8
BLACK
 62
256
370
-1
 48
1.0
  6
CONTINUOUS
100
AcDbLine
 10
8.4537264173228337
 20
-3.0805537007874011
 30
0.0
 11
8.456218622047242
 21
-3.0819925590551174
 31
0.0
  0
LINE
  5
370
100
AcDbEntity
  8
BLACK
 62
256
370
-1
 48
1.0
  6
CONTINUOUS
100
AcDbLine
 10
8.456218622047242
 20
-3.0819925590551174
 30
0.0
 11
8.4582535039370086
 21
-3.0840274409448813
 31
0.0
  0
LINE
  5
371
100
AcDbEntity
  8
BLACK
 62
256
370
-1
 48
1.0
  6
CONTINUOUS
100
AcDbLine
 10
8.4582535039370086
 20
-3.0840274409448813
 30
0.0
 11
8.4596923622047235
 21
-3.0865196456692905
 31
0.0
  0
LINE
  5
372
100
AcDbEntity
  8
BLACK
 62
256
370
-1
 48
1.0
  6
CONTINUOUS
100
AcDbLine
 10
8.4596923622047235
 20
-3.0865196456692905
 30
0.0
 11
8.460437204724407
 21
-3.0892993307086609
 31
0.0
  0
LINE
  5
373
100
AcDbEntity
  8
BLACK
 62
256
370
-1
 48
1.0
  6
CONTINUOUS
100
AcDbLine
 10
8.460437204724407
 20
-3.0892993307086609
 30
0.0
 11
8.460437204724407
 21
-3.0910531496062985
 31
0.0
  0
LINE
  5
374
100
AcDbEntity
  8
BLACK
 62
256
370
-1
 48
1.0
  6
CONTINUOUS
100
AcDbLine
 10
8.460437204724407
 20
-3.0910531496062985
 30
0.0
 11
8.4680118110236222
 21
-3.0910531496062985
 31
0.0
  0
LINE
  5
375
100
AcDbEntity
  8
BLACK
 62
256
370
-1
 48
1.0
  6
CONTINUOUS
100
AcDbLine
 10
8.4680118110236222
 20
-3.0910531496062985
 30
0.0
 11
8.4680118110236222
 21
-3.1304232283464559
 31
0.0
  0
LINE
  5
376
100
AcDbEntity
  8
BLACK
 62
256
370
-1
 48
1.0
  6
CONTINUOUS
100
AcDbLine
 10
8.4680118110236222
 20
-3.1304232283464559
 30
0.0
 11
8.428641732283463
 21
-3.1304232283464559
 31
0.0
  0
LINE
  5
377
100
AcDbEntity
  8
BLACK
 62
256
370
-1
 48
1.0
  6
CONTINUOUS
100
AcDbLine
 10
8.428641732283463
 20
-3.1304232283464559
 30
0.0
 11
8.428641732283463
 21
-3.0910531496062985
 31
0.0
  0
LINE
  5
378
100
AcDbEntity
  8
BLACK
 62
256
370
-1
 48
1.0
  6
CONTINUOUS
100
AcDbLine
 10
8.428641732283463
 20
-3.0910531496062985
 30
0.0
 11
8.4385785433070843
 21
-3.0910531496062985
 31
0.0
  0
LINE
  5
379
100
AcDbEntity
  8
BLACK
 62
256
370
-1
 48
1.0
  6
CONTINUOUS
100
AcDbLine
 10
8.4385785433070843
 20
-3.0910531496062985
 30
0.0
 11
8.4385785433070843
 21
-3.0892993307086609
 31
0.0
  0
LINE
  5
37A
100
AcDbEntity
  8
BLACK
 62
256
370
-1
 48
1.0
  6
CONTINUOUS
100
AcDbLine
 10
8.4385785433070843
 20
-3.0892993307086609
 30
0.0
 11
8.4393233858267713
 21
-3.0865196456692905
 31
0.0
  0
LINE
  5
37B
100
AcDbEntity
  8
BLACK
 62
256
370
-1
 48
1.0
  6
CONTINUOUS
100
AcDbLine
 10
8.4393233858267713
 20
-3.0865196456692905
 30
0.0
 11
8.4407622440944863
 21
-3.0840274409448813
 31
0.0
  0
LINE
  5
37C
100
AcDbEntity
  8
BLACK
 62
256
370
-1
 48
1.0
  6
CONTINUOUS
100
AcDbLine
 10
8.4407622440944863
 20
-3.0840274409448813
 30
0.0
 11
8.4427971259842494
 21
-3.0819925590551174
 31
0.0
  0
LINE
  5
37D
100
AcDbEntity
  8
BLACK
 62
256
370
-1
 48
1.0
  6
CONTINUOUS
100
AcDbLine
 10
8.4427971259842494
 20
-3.0819925590551174
 30
0.0
 11
8.4452893307086612
 21
-3.0805537007874011
 31
0.0
  0
LINE
  5
37E
100
AcDbEntity
  8
BLACK
 62
256
370
-1
 48
1.0
  6
CONTINUOUS
100
AcDbLine
 10
8.4452893307086612
 20
-3.0805537007874011
 30
0.0
 11
8.4480690157480289
 21
-3.0798088582677159
 31
0.0
  0
LINE
  5
37F
100
AcDbEntity
  8
BLACK
 62
256
370
-1
 48
1.0
  6
CONTINUOUS
100
AcDbLine
 10
8.4480690157480289
 20
-3.0798088582677159
 30
0.0
 11
8.4509467322834624
 21
-3.0798088582677159
 31
0.0
  0
LINE
  5
380
100
AcDbEntity
  8
BLACK
 62
256
370
-1
 48
1.0
  6
CONTINUOUS
100
AcDbLine
 10
8.4509467322834624
 20
-3.0798088582677159
 30
0.0
 11
8.4537264173228337
 21
-3.0805537007874011
 31
0.0
  0
CIRCLE
  5
381
100
AcDbEntity
  8
BLACK
 62
256
370
-1
 48
1.0
  6
BYLAYER
100
AcDbCircle
 10
6.0215078740157475
 20
-3.1087381889763774
 30
0.0
 40
0.0059055118110236
  0
CIRCLE
  5
382
100
AcDbEntity
  8
BLACK
 62
256
370
-1
 48
1.0
  6
BYLAYER
100
AcDbCircle
 10
8.0715078740157473
 20
-3.1087381889763774
 30
0.0
 40
0.0059055118110236
  0
CIRCLE
  5
383
100
AcDbEntity
  8
BLACK
 62
256
370
-1
 48
1.0
  6
BYLAYER
100
AcDbCircle
 10
8.6055078740157462
 20
-3.1047381889763774
 30
0.0
 40
0.0059055118110236
  0
CIRCLE
  5
384
100
AcDbEntity
  8
BLACK
 62
256
370
-1
 48
1.0
  6
BYLAYER
100
AcDbCircle
 10
7.5395078740157473
 20
-3.1047381889763774
 30
0.0
 40
0.0059055118110236
  0
CIRCLE
  5
385
100
AcDbEntity
  8
BLACK
 62
256
370
-1
 48
1.0
  6
BYLAYER
100
AcDbCircle
 10
6.9555078740157468
 20
-3.1347381889763772
 30
0.0
 40
0.0059055118110236
  0
CIRCLE
  5
386
100
AcDbEntity
  8
BLACK
 62
256
370
-1
 48
1.0
  6
BYLAYER
100
AcDbCircle
 10
5.4621670078740152
 20
-3.1070775984251964
 30
0.0
 40
0.0059055118110236
  0
CIRCLE
  5
387
100
AcDbEntity
  8
BLACK
 62
256
370
-1
 48
1.0
  6
BYLAYER
100
AcDbCircle
 10
8.5215078740157466
 20
-3.1047381889763774
 30
0.0
 40
0.0059055118110236
  0
CIRCLE
  5
388
100
AcDbEntity
  8
BLACK
 62
256
370
-1
 48
1.0
  6
BYLAYER
100
AcDbCircle
 10
7.9875078740157468
 20
-3.1047381889763774
 30
0.0
 40
0.0059055118110236
  0
CIRCLE
  5
389
100
AcDbEntity
  8
BLACK
 62
256
370
-1
 48
1.0
  6
BYLAYER
100
AcDbCircle
 10
7.4575078740157474
 20
-3.1067381889763772
 30
0.0
 40
0.0059055118110236
  0
CIRCLE
  5
38A
100
AcDbEntity
  8
BLACK
 62
256
370
-1
 48
1.0
  6
BYLAYER
100
AcDbCircle
 10
6.8035078740157475
 20
-3.1027381889763772
 30
0.0
 40
0.0059055118110236
  0
CIRCLE
  5
38B
100
AcDbEntity
  8
BLACK
 62
256
370
-1
 48
1.0
  6
BYLAYER
100
AcDbCircle
 10
5.937507874015747
 20
-3.1067381889763772
 30
0.0
 40
0.0059055118110236
  0
CIRCLE
  5
38C
100
AcDbEntity
  8
BLACK
 62
256
370
-1
 48
1.0
  6
BYLAYER
100
AcDbCircle
 10
5.3775078740157474
 20
-3.1087381889763774
 30
0.0
 40
0.0059055118110236
  0
CIRCLE
  5
38D
100
AcDbEntity
  8
BLACK
 62
256
370
-1
 48
1.0
  6
BYLAYER
100
AcDbCircle
 10
5.8595078740157467
 20
-3.1107381889763772
 30
0.0
 40
0.0059055118110236
  0
CIRCLE
  5
38E
100
AcDbEntity
  8
BLACK
 62
256
370
-1
 48
1.0
  6
BYLAYER
100
AcDbCircle
 10
8.4495078740157474
 20
-3.0907381889763772
 30
0.0
 40
0.0059055118110236
  0
CIRCLE
  5
38F
100
AcDbEntity
  8
BLACK
 62
256
370
-1
 48
1.0
  6
BYLAYER
100
AcDbCircle
 10
5.2995078740157471
 20
-3.1107381889763772
 30
0.0
 40
0.0059055118110236
  0
CIRCLE
  5
390
100
AcDbEntity
  8
BLACK
 62
256
370
-1
 48
1.0
  6
BYLAYER
100
AcDbCircle
 10
7.9125688976377946
 20
-3.0887053149606292
 30
0.0
 40
0.0059055118110236
  0
CIRCLE
  5
391
100
AcDbEntity
  8
BLACK
 62
256
370
-1
 48
1.0
  6
BYLAYER
100
AcDbCircle
 10
5.219507874015747
 20
-3.1107381889763772
 30
0.0
 40
0.0059055118110236
  0
CIRCLE
  5
392
100
AcDbEntity
  8
BLACK
 62
256
370
-1
 48
1.0
  6
BYLAYER
100
AcDbCircle
 10
5.1395078740157469
 20
-3.1087381889763774
 30
0.0
 40
0.0059055118110236
  0
CIRCLE
  5
393
100
AcDbEntity
  8
BLACK
 62
256
370
-1
 48
1.0
  6
BYLAYER
100
AcDbCircle
 10
6.7294266535433058
 20
-3.0887262204724402
 30
0.0
 40
0.0059055118110236
  0
CIRCLE
  5
394
100
AcDbEntity
  8
BLACK
 62
256
370
-1
 48
1.0
  6
BYLAYER
100
AcDbCircle
 10
7.3834378346456679
 20
-3.0894822834645663
 30
0.0
 40
0.0059055118110236
  0
LINE
  5
395
100
AcDbEntity
  8
0
 62
256
370
-1
 48
1.0
  6
BYLAYER
100
AcDbLine
 10
4.943767716535433
 20
-3.0629921259842483
 30
0.0
 11
8.8730314960629926
 21
-3.063976377952756
 31
0.0
  0
ENDSEC
  0
SECTION
  2
OBJECTS
  0
DICTIONARY
  5
C
100
AcDbDictionary
280
0
281
1
  3
ACAD_GROUP
350
D
  3
ACAD_LAYOUT
350
1A
  3
ACAD_MLINESTYLE
350
17
  3
ACAD_PLOTSETTINGS
350
19
  3
ACAD_PLOTSTYLENAME
350
E
  3
AcDbVariableDictionary
350
396
  3
QCAD_OBJECTS
350
397
  0
DICTIONARY
  5
D
100
AcDbDictionary
280
0
281
1
  0
ACDBDICTIONARYWDFLT
  5
E
100
AcDbDictionary
281
1
  3
Normal
350
F
100
AcDbDictionaryWithDefault
340
F
  0
ACDBPLACEHOLDER
  5
F
  0
DICTIONARY
  5
17
100
AcDbDictionary
280
0
281
1
  3
Standard
350
18
  0
MLINESTYLE
  5
18
100
AcDbMlineStyle
  2
STANDARD
 70
0
  3

 62
256
 51
90.0
 52
90.0
 71
2
 49
0.5
 62
256
  6
BYLAYER
 49
-0.5
 62
256
  6
BYLAYER
  0
DICTIONARY
  5
19
100
AcDbDictionary
280
0
281
1
  0
DICTIONARY
  5
1A
100
AcDbDictionary
281
1
  3
Layout1
350
1E
  3
Layout2
350
26
  3
Model
350
22
  0
LAYOUT
  5
1E
100
AcDbPlotSettings
  1

  2
none_device
  4

  6

 40
0.0
 41
0.0
 42
0.0
 43
0.0
 44
0.0
 45
0.0
 46
0.0
 47
0.0
 48
0.0
 49
0.0
140
0.0
141
0.0
142
1.0
143
1.0
 70
688
 72
0
 73
0
 74
5
  7

 75
16
147
1.0
148
0.0
149
0.0
100
AcDbLayout
  1
Layout1
 70
1
 71
1
 10
0.0
 20
0.0
 11
420.0
 21
297.0
 12
0.0
 22
0.0
 32
0.0
 14
100000000000000000000.0
 24
100000000000000000000.0
 34
100000000000000000000.0
 15
-100000000000000000000.0
 25
-100000000000000000000.0
 35
-100000000000000000000.0
146
0.0
 13
0.0
 23
0.0
 33
0.0
 16
1.0
 26
0.0
 36
0.0
 17
0.0
 27
1.0
 37
0.0
 76
0
330
1B
  0
LAYOUT
  5
22
100
AcDbPlotSettings
  1

  2
none_device
  4

  6

 40
0.0
 41
0.0
 42
0.0
 43
0.0
 44
0.0
 45
0.0
 46
0.0
 47
0.0
 48
0.0
 49
0.0
140
0.0
141
0.0
142
1.0
143
1.0
 70
1712
 72
0
 73
0
 74
0
  7

 75
0
147
1.0
148
0.0
149
0.0
100
AcDbLayout
  1
Model
 70
1
 71
0
 10
0.0
 20
0.0
 11
12.0
 21
9.0
 12
0.0
 22
0.0
 32
0.0
 14
0.0
 24
0.0
 34
0.0
 15
0.0
 25
0.0
 35
0.0
146
0.0
 13
0.0
 23
0.0
 33
0.0
 16
1.0
 26
0.0
 36
0.0
 17
0.0
 27
1.0
 37
0.0
 76
0
330
1F
  0
LAYOUT
  5
26
100
AcDbPlotSettings
  1

  2
none_device
  4

  6

 40
0.0
 41
0.0
 42
0.0
 43
0.0
 44
0.0
 45
0.0
 46
0.0
 47
0.0
 48
0.0
 49
0.0
140
0.0
141
0.0
142
1.0
143
1.0
 70
688
 72
0
 73
0
 74
5
  7

 75
16
147
1.0
148
0.0
149
0.0
100
AcDbLayout
  1
Layout2
 70
1
 71
2
 10
0.0
 20
0.0
 11
12.0
 21
9.0
 12
0.0
 22
0.0
 32
0.0
 14
0.0
 24
0.0
 34
0.0
 15
0.0
 25
0.0
 35
0.0
146
0.0
 13
0.0
 23
0.0
 33
0.0
 16
1.0
 26
0.0
 36
0.0
 17
0.0
 27
1.0
 37
0.0
 76
0
330
23
  0
DICTIONARY
  5
396
100
AcDbDictionary
281
1
  3
DIMASSOC
350
399
  3
HIDETEXT
350
398
  0
DICTIONARYVAR
  5
398
100
DictionaryVariables
280
0
  1
2
  0
DICTIONARYVAR
  5
399
100
DictionaryVariables
280
0
  1
1
  0
DICTIONARY
  5
397
100
AcDbDictionary
281
1
  3
ColorSettings/BackgroundColor
350
39A
  3
ColorSettings/ColorMode
350
39B
  3
Grid/DisplayGrid00
350
39C
  3
Grid/DisplayGrid01
350
39D
  3
Grid/DisplayGrid02
350
39E
  3
Grid/DisplayGrid03
350
39F
  3
Grid/GridSpacingX00
350
3A0
  3
Grid/GridSpacingX01
350
3A1
  3
Grid/GridSpacingX02
350
3A2
  3
Grid/GridSpacingX03
350
3A3
  3
Grid/GridSpacingY00
350
3A4
  3
Grid/GridSpacingY01
350
3A5
  3
Grid/GridSpacingY02
350
3A6
  3
Grid/GridSpacingY03
350
3A7
  3
Grid/IsometricGrid00
350
3A8
  3
Grid/IsometricGrid01
350
3A9
  3
Grid/IsometricGrid02
350
3AA
  3
Grid/IsometricGrid03
350
3AB
  3
Grid/IsometricProjection00
350
3AC
  3
Grid/IsometricProjection01
350
3AD
  3
Grid/IsometricProjection02
350
3AE
  3
Grid/IsometricProjection03
350
3AF
  3
Grid/MetaGridSpacingX00
350
3B0
  3
Grid/MetaGridSpacingX01
350
3B1
  3
Grid/MetaGridSpacingX02
350
3B2
  3
Grid/MetaGridSpacingX03
350
3B3
  3
Grid/MetaGridSpacingY00
350
3B4
  3
Grid/MetaGridSpacingY01
350
3B5
  3
Grid/MetaGridSpacingY02
350
3B6
  3
Grid/MetaGridSpacingY03
350
3B7
  3
MultiPageSettings/Columns
350
3B8
  3
MultiPageSettings/GlueMarginsBottom
350
3B9
  3
MultiPageSettings/GlueMarginsLeft
350
3BA
  3
MultiPageSettings/GlueMarginsRight
350
3BB
  3
MultiPageSettings/GlueMarginsTop
350
3BC
  3
MultiPageSettings/PrintCropMarks
350
3BD
  3
MultiPageSettings/Rows
350
3BE
  3
PageSettings/OffsetX
350
3BF
  3
PageSettings/OffsetY
350
3C0
  3
PageSettings/PageOrientation
350
3C1
  3
PageSettings/PaperHeight
350
3C2
  3
PageSettings/PaperWidth
350
3C3
  3
PageSettings/Scale
350
3C4
  3
PageSettings/ShowPaperBorders
350
3C5
  3
PageTagSettings/EnablePageTags
350
3C6
  3
PageTagSettings/TagAlignment
350
3C7
  3
PageTagSettings/TagFont
350
3C8
  3
PageTagSettings/TagPosition
350
3C9
  3
QCADVersion
350
3CA
  3
UnitSettings/PaperUnit
350
3CB
  3
ViewportCenter
350
3CC
  3
ViewportHeight
350
3CD
  3
ViewportWidth
350
3CE
  0
XRECORD
  5
39A
330
397
100
AcDbXrecord
280
1
1000
Bia\U+0142y
  0
XRECORD
  5
39B
330
397
100
AcDbXrecord
280
1
1000
FullColor
  0
XRECORD
  5
39C
330
397
100
AcDbXrecord
280
1
290
1
  0
XRECORD
  5
39D
330
397
100
AcDbXrecord
280
1
290
1
  0
XRECORD
  5
39E
330
397
100
AcDbXrecord
280
1
290
1
  0
XRECORD
  5
39F
330
397
100
AcDbXrecord
280
1
290
1
  0
XRECORD
  5
3A0
330
397
100
AcDbXrecord
280
1
1000
auto
  0
XRECORD
  5
3A1
330
397
100
AcDbXrecord
280
1
1000
auto
  0
XRECORD
  5
3A2
330
397
100
AcDbXrecord
280
1
1000
auto
  0
XRECORD
  5
3A3
330
397
100
AcDbXrecord
280
1
1000
auto
  0
XRECORD
  5
3A4
330
397
100
AcDbXrecord
280
1
1000
auto
  0
XRECORD
  5
3A5
330
397
100
AcDbXrecord
280
1
1000
auto
  0
XRECORD
  5
3A6
330
397
100
AcDbXrecord
280
1
1000
auto
  0
XRECORD
  5
3A7
330
397
100
AcDbXrecord
280
1
1000
auto
  0
XRECORD
  5
3A8
330
397
100
AcDbXrecord
280
1
290
0
  0
XRECORD
  5
3A9
330
397
100
AcDbXrecord
280
1
290
0
  0
XRECORD
  5
3AA
330
397
100
AcDbXrecord
280
1
290
0
  0
XRECORD
  5
3AB
330
397
100
AcDbXrecord
280
1
290
0
  0
XRECORD
  5
3AC
330
397
100
AcDbXrecord
280
1
 90
65537
  0
XRECORD
  5
3AD
330
397
100
AcDbXrecord
280
1
 90
65537
  0
XRECORD
  5
3AE
330
397
100
AcDbXrecord
280
1
 90
65537
  0
XRECORD
  5
3AF
330
397
100
AcDbXrecord
280
1
 90
65537
  0
XRECORD
  5
3B0
330
397
100
AcDbXrecord
280
1
1000
auto
  0
XRECORD
  5
3B1
330
397
100
AcDbXrecord
280
1
1000
auto
  0
XRECORD
  5
3B2
330
397
100
AcDbXrecord
280
1
1000
auto
  0
XRECORD
  5
3B3
330
397
100
AcDbXrecord
280
1
1000
auto
  0
XRECORD
  5
3B4
330
397
100
AcDbXrecord
280
1
1000
auto
  0
XRECORD
  5
3B5
330
397
100
AcDbXrecord
280
1
1000
auto
  0
XRECORD
  5
3B6
330
397
100
AcDbXrecord
280
1
1000
auto
  0
XRECORD
  5
3B7
330
397
100
AcDbXrecord
280
1
1000
auto
  0
XRECORD
  5
3B8
330
397
100
AcDbXrecord
280
1
 90
1
  0
XRECORD
  5
3B9
330
397
100
AcDbXrecord
280
1
 40
10.0
  0
XRECORD
  5
3BA
330
397
100
AcDbXrecord
280
1
 40
10.0
  0
XRECORD
  5
3BB
330
397
100
AcDbXrecord
280
1
 40
10.0
  0
XRECORD
  5
3BC
330
397
100
AcDbXrecord
280
1
 40
10.0
  0
XRECORD
  5
3BD
330
397
100
AcDbXrecord
280
1
290
0
  0
XRECORD
  5
3BE
330
397
100
AcDbXrecord
280
1
 90
1
  0
XRECORD
  5
3BF
330
397
100
AcDbXrecord
280
1
 40
0.0
  0
XRECORD
  5
3C0
330
397
100
AcDbXrecord
280
1
 40
0.0
  0
XRECORD
  5
3C1
330
397
100
AcDbXrecord
280
1
1000
Portrait
  0
XRECORD
  5
3C2
330
397
100
AcDbXrecord
280
1
 40
297.0
  0
XRECORD
  5
3C3
330
397
100
AcDbXrecord
280
1
 40
210.0
  0
XRECORD
  5
3C4
330
397
100
AcDbXrecord
280
1
1000
1:1
  0
XRECORD
  5
3C5
330
397
100
AcDbXrecord
280
1
290
1
  0
XRECORD
  5
3C6
330
397
100
AcDbXrecord
280
1
290
0
  0
XRECORD
  5
3C7
330
397
100
AcDbXrecord
280
1
1000
Inside
  0
XRECORD
  5
3C8
330
397
100
AcDbXrecord
280
1
1000
Arial,10,-1,5,50,0,0,0,0,0
  0
XRECORD
  5
3C9
330
397
100
AcDbXrecord
280
1
1000
TopLeft
  0
XRECORD
  5
3CA
330
397
100
AcDbXrecord
280
1
1000
3.32.2
  0
XRECORD
  5
3CB
330
397
100
AcDbXrecord
280
1
 90
4
  0
XRECORD
  5
3CD
330
397
100
AcDbXrecord
280
1
 40
3.8577557441130561
  0
XRECORD
  5
3CE
330
397
100
AcDbXrecord
280
1
 40
5.6727642605741186
  0
ENDSEC
  0
EOF
