%TF.GenerationSoftware,KiCad,Pcbnew,8.0.3*%
%TF.CreationDate,2024-06-20T21:51:27+02:00*%
%TF.ProjectId,KIA-OBD2-DISPLAY,4b49412d-4f42-4443-922d-444953504c41,rev?*%
%TF.SameCoordinates,Original*%
%TF.FileFunction,Copper,L3,Inr*%
%TF.FilePolarity,Positive*%
%FSLAX46Y46*%
G04 Gerber Fmt 4.6, Leading zero omitted, Abs format (unit mm)*
G04 Created by KiCad (PCBNEW 8.0.3) date 2024-06-20 21:51:27*
%MOMM*%
%LPD*%
G01*
G04 APERTURE LIST*
%TA.AperFunction,ComponentPad*%
%ADD10C,1.524000*%
%TD*%
%TA.AperFunction,ComponentPad*%
%ADD11R,1.000000X1.000000*%
%TD*%
%TA.AperFunction,ComponentPad*%
%ADD12C,0.700000*%
%TD*%
%TA.AperFunction,ComponentPad*%
%ADD13O,0.900000X2.400000*%
%TD*%
%TA.AperFunction,ComponentPad*%
%ADD14O,0.900000X1.700000*%
%TD*%
%TA.AperFunction,ViaPad*%
%ADD15C,0.560000*%
%TD*%
%TA.AperFunction,Conductor*%
%ADD16C,0.250000*%
%TD*%
%TA.AperFunction,Conductor*%
%ADD17C,0.254000*%
%TD*%
G04 APERTURE END LIST*
D10*
%TO.N,+3.3V*%
%TO.C,U8*%
X126873000Y-95504000D03*
%TO.N,GND*%
X126873000Y-92964000D03*
%TO.N,+12V*%
X126873000Y-90424000D03*
%TO.N,unconnected-(U8-SHDN-Pad4)*%
X126873000Y-87884000D03*
%TO.N,unconnected-(U8-PG-Pad5)*%
X126873000Y-85344000D03*
%TD*%
D11*
%TO.N,/OBD2 CAN H*%
%TO.C,J14*%
X131191000Y-86233000D03*
%TD*%
%TO.N,Net-(J12-Pin_1)*%
%TO.C,J12*%
X129159000Y-86233000D03*
%TD*%
D10*
%TO.N,GND*%
%TO.C,U2*%
X161701490Y-79977439D03*
%TO.N,+3.3V*%
X161701490Y-82517439D03*
%TO.N,/SCLK*%
X161701490Y-85057439D03*
%TO.N,/MOSI*%
X161701490Y-87597439D03*
%TO.N,/REST*%
X161701490Y-90137439D03*
%TO.N,/DC*%
X161701490Y-92677439D03*
%TO.N,/CSD2*%
X161701490Y-95217439D03*
%TD*%
D11*
%TO.N,/CAN LISTEN H*%
%TO.C,J15*%
X133223000Y-84201000D03*
%TD*%
%TO.N,/CAN LISTEN L*%
%TO.C,J16*%
X133223000Y-86233000D03*
%TD*%
D12*
%TO.N,GND*%
%TO.C,J10*%
X211135000Y-87037000D03*
%TO.N,Net-(D10-A)*%
X210285000Y-87037000D03*
%TO.N,Net-(J10-CC1)*%
X209435000Y-87037000D03*
%TO.N,Net-(D13-A1)*%
X208585000Y-87037000D03*
%TO.N,Net-(D12-A2)*%
X207735000Y-87037000D03*
%TO.N,unconnected-(J10-SBU1-PadA8)*%
X206885000Y-87037000D03*
%TO.N,Net-(D10-A)*%
X206035000Y-87037000D03*
%TO.N,GND*%
X205185000Y-87037000D03*
X205185000Y-85687000D03*
%TO.N,Net-(D10-A)*%
X206035000Y-85687000D03*
%TO.N,Net-(J10-CC2)*%
X206885000Y-85687000D03*
%TO.N,Net-(D13-A1)*%
X207735000Y-85687000D03*
%TO.N,Net-(D12-A2)*%
X208585000Y-85687000D03*
%TO.N,unconnected-(J10-SBU2-PadB8)*%
X209435000Y-85687000D03*
%TO.N,Net-(D10-A)*%
X210285000Y-85687000D03*
%TO.N,GND*%
X211135000Y-85687000D03*
D13*
X212485000Y-86057000D03*
D14*
X212485000Y-82677000D03*
D13*
X203835000Y-86057000D03*
D14*
X203835000Y-82677000D03*
%TD*%
D10*
%TO.N,GND*%
%TO.C,U1*%
X157080000Y-95220000D03*
%TO.N,+3.3V*%
X157080000Y-92680000D03*
%TO.N,/SCLK*%
X157080000Y-90140000D03*
%TO.N,/MOSI*%
X157080000Y-87600000D03*
%TO.N,/REST*%
X157080000Y-85060000D03*
%TO.N,/DC*%
X157080000Y-82520000D03*
%TO.N,/CSD1*%
X157080000Y-79980000D03*
%TD*%
D11*
%TO.N,GND*%
%TO.C,J17*%
X129159000Y-84201000D03*
%TD*%
%TO.N,/ING12V+*%
%TO.C,J18*%
X127127000Y-83058000D03*
%TD*%
%TO.N,/OBD2 CAN L*%
%TO.C,J13*%
X131191000Y-84201000D03*
%TD*%
D15*
%TO.N,/REST*%
X172364400Y-84531200D03*
X184277000Y-84498814D03*
X201227549Y-94696938D03*
%TO.N,/SCLK*%
X202438000Y-86560613D03*
X172770800Y-96113600D03*
X184556400Y-96113600D03*
X214325200Y-84886800D03*
X146025881Y-88104908D03*
X154736800Y-93980000D03*
%TO.N,/CSD1*%
X215011000Y-92100400D03*
X163068000Y-94742000D03*
%TO.N,/MOSI*%
X183997528Y-96770000D03*
X214325200Y-85699600D03*
X154838400Y-96570800D03*
X146050000Y-89814400D03*
X194818000Y-96770000D03*
X172215183Y-96770000D03*
%TO.N,/DC*%
X218389200Y-92329000D03*
X163576000Y-93726000D03*
%TO.N,/MISO*%
X146558000Y-88646000D03*
X201803000Y-85508914D03*
X220014800Y-81432400D03*
X171551600Y-95504000D03*
X183337200Y-95504000D03*
%TO.N,+3.3V*%
X185882339Y-83858028D03*
X187833000Y-84836000D03*
X169418000Y-94869000D03*
X180086000Y-81330800D03*
X212344000Y-94615000D03*
X193548000Y-85090000D03*
X170688000Y-90932000D03*
X155782861Y-92925238D03*
X152958800Y-78943200D03*
X205028800Y-78943200D03*
X222188721Y-79519508D03*
X203708000Y-95250000D03*
X174532757Y-83844188D03*
X165004899Y-80682131D03*
X199517000Y-93726000D03*
X144576800Y-95046800D03*
X222504000Y-82931000D03*
X206629000Y-93726000D03*
X144263950Y-91079540D03*
X221589600Y-81381600D03*
X189230000Y-93980000D03*
X177292000Y-85090000D03*
X224536000Y-95148400D03*
X204597000Y-89408000D03*
X168960800Y-81381600D03*
X218592400Y-78841600D03*
X170561000Y-93726000D03*
X221107000Y-95123000D03*
X216005981Y-94873577D03*
X191516000Y-78841600D03*
X176682400Y-79603600D03*
X211074000Y-88900000D03*
X200025000Y-82550000D03*
X153162000Y-91948000D03*
X222504000Y-91948000D03*
X181864000Y-90932000D03*
X138751542Y-78901021D03*
X218567000Y-82550000D03*
%TO.N,GND*%
X209397600Y-91744800D03*
X220167200Y-89306400D03*
X207264000Y-89408000D03*
X217170000Y-88290400D03*
X219202000Y-86309200D03*
X209931000Y-82804000D03*
X127101600Y-81178400D03*
X178198908Y-85201735D03*
X219202000Y-88239600D03*
X217220800Y-86309200D03*
X212598000Y-91694000D03*
X220167200Y-87274400D03*
X221132400Y-88290400D03*
X221183200Y-86309200D03*
X167716200Y-94970600D03*
X218186000Y-85293200D03*
X198120000Y-93726000D03*
X220167200Y-85293200D03*
X141884400Y-88798400D03*
X218186000Y-87274400D03*
X218186000Y-89306400D03*
X168402000Y-94234000D03*
X219202000Y-95504000D03*
X205867000Y-82804000D03*
%TO.N,/CSD2*%
X215900000Y-92329000D03*
%TO.N,Net-(U9-EN{slash}CHIP_PU)*%
X217598621Y-80776177D03*
X203515908Y-93423472D03*
%TO.N,/INTCAN2*%
X213461600Y-83159600D03*
X185928000Y-88392000D03*
%TO.N,/CSCAN2*%
X184277000Y-85217000D03*
X220014800Y-92329000D03*
%TO.N,/CSCAN*%
X219202000Y-92329000D03*
X173173220Y-85157933D03*
%TO.N,/INTCAN*%
X174548800Y-88442800D03*
X216789000Y-80899000D03*
%TO.N,Net-(D14-A)*%
X207518000Y-95123000D03*
X216789000Y-82550000D03*
%TO.N,/CSSDCARD*%
X215011000Y-91300685D03*
X196673396Y-85115312D03*
%TO.N,/CSCAP*%
X150944945Y-91335159D03*
X216027000Y-93980000D03*
%TO.N,/INTCAP*%
X219202000Y-81432400D03*
X140868400Y-86614000D03*
%TO.N,/INTING*%
X210905640Y-79632043D03*
X127127000Y-79375000D03*
%TO.N,Net-(JP2-B)*%
X185420000Y-82804000D03*
X178396303Y-81533403D03*
X173088506Y-83991888D03*
%TO.N,+12V*%
X131191000Y-94107000D03*
X202946000Y-89408000D03*
%TO.N,/OBD2 CAN H*%
X172466000Y-83693000D03*
%TO.N,/CAN LISTEN L*%
X164465000Y-80010000D03*
X154178000Y-82677000D03*
X184023000Y-83820000D03*
%TO.N,/CAN LISTEN H*%
X163512500Y-80073500D03*
X154178000Y-81915000D03*
X183235600Y-83820000D03*
%TO.N,/OBD2 CAN L*%
X173101000Y-83312000D03*
%TO.N,Net-(D1-K)*%
X216458800Y-78841600D03*
X149860000Y-90170000D03*
%TO.N,Net-(D2-K)*%
X202895200Y-78841600D03*
X151003000Y-87884000D03*
%TO.N,Net-(D3-K)*%
X149860000Y-86207600D03*
X189433200Y-78892400D03*
%TO.N,Net-(D4-K)*%
X172821600Y-78790800D03*
X151638000Y-80645000D03*
%TO.N,Net-(D5-K)*%
X150825200Y-78892400D03*
%TO.N,Net-(D6-K)*%
X136601200Y-78943200D03*
X136271000Y-86817200D03*
%TO.N,Net-(D7-K)*%
X136674194Y-87945918D03*
%TO.N,Net-(D8-K)*%
X137404555Y-89043756D03*
%TO.N,Net-(J9-Pin_1)*%
X148844000Y-78994000D03*
X139573000Y-88011000D03*
%TO.N,Net-(J5-Pin_1)*%
X141351000Y-91186000D03*
X214630000Y-78486000D03*
%TO.N,Net-(J8-Pin_1)*%
X140034074Y-88581026D03*
X134620000Y-78994000D03*
%TO.N,Net-(J4-Pin_1)*%
X200991750Y-78434365D03*
X142113000Y-91186000D03*
%TO.N,Net-(J7-Pin_1)*%
X132588000Y-78994000D03*
X139573000Y-89109971D03*
%TO.N,Net-(J6-Pin_1)*%
X139065000Y-89662000D03*
X130556000Y-78943200D03*
%TO.N,Net-(J2-Pin_1)*%
X170939937Y-78434896D03*
X143459200Y-91744800D03*
%TO.N,Net-(J3-Pin_1)*%
X142875000Y-91186000D03*
X187551821Y-78454100D03*
%TO.N,Net-(D12-A2)*%
X212598000Y-90271600D03*
X214325200Y-86512400D03*
%TD*%
D16*
%TO.N,/REST*%
X183822630Y-84502970D02*
X183489600Y-84836000D01*
X172364400Y-94615000D02*
X172364400Y-84531200D01*
X184093830Y-84498814D02*
X184277000Y-84498814D01*
D17*
X201145611Y-94615000D02*
X201227549Y-94696938D01*
D16*
X171831000Y-94615000D02*
X170180000Y-94615000D01*
X183489600Y-84836000D02*
X183489600Y-94462600D01*
X184277000Y-84498814D02*
X184272844Y-84502970D01*
D17*
X172847000Y-94615000D02*
X171831000Y-94615000D01*
D16*
X172364400Y-84531200D02*
X172364400Y-84632800D01*
X165702439Y-90137439D02*
X161701490Y-90137439D01*
X170180000Y-94615000D02*
X165702439Y-90137439D01*
X184089674Y-84502970D02*
X184093830Y-84498814D01*
X184272844Y-84502970D02*
X183822630Y-84502970D01*
X157080000Y-85515949D02*
X157080000Y-85060000D01*
X183642000Y-94615000D02*
X172847000Y-94615000D01*
D17*
X200406000Y-94615000D02*
X201145611Y-94615000D01*
X184658000Y-94615000D02*
X183642000Y-94615000D01*
D16*
X161701490Y-90137439D02*
X157080000Y-85515949D01*
X200406000Y-94615000D02*
X184658000Y-94615000D01*
%TO.N,/SCLK*%
X154736800Y-93980000D02*
X154228800Y-93980000D01*
X195373711Y-96116689D02*
X193195489Y-96116689D01*
X193195489Y-96116689D02*
X193192400Y-96113600D01*
D17*
X202336400Y-85852000D02*
X202336400Y-87014408D01*
D16*
X165202299Y-96113600D02*
X163068699Y-93980000D01*
D17*
X145948435Y-88104908D02*
X145939241Y-88095714D01*
D16*
X202336400Y-84734400D02*
X202742800Y-84328000D01*
X202336400Y-86662213D02*
X202336400Y-95453200D01*
X163068699Y-93980000D02*
X154736800Y-93980000D01*
X193192400Y-96113600D02*
X165202299Y-96113600D01*
X202438000Y-86560613D02*
X202336400Y-86662213D01*
X201672911Y-96116689D02*
X195379889Y-96116689D01*
X213766400Y-84328000D02*
X214325200Y-84886800D01*
X202742800Y-84328000D02*
X213766400Y-84328000D01*
X195376800Y-96113600D02*
X195373711Y-96116689D01*
X202336400Y-95453200D02*
X201672911Y-96116689D01*
X202438000Y-86560613D02*
X202336400Y-86459013D01*
D17*
X146025881Y-88104908D02*
X146025881Y-89002881D01*
X146025881Y-89002881D02*
X151003000Y-93980000D01*
X151003000Y-93980000D02*
X154736800Y-93980000D01*
D16*
X202336400Y-86459013D02*
X202336400Y-85852000D01*
D17*
X146025881Y-88104908D02*
X145948435Y-88104908D01*
D16*
X202336400Y-85852000D02*
X202336400Y-84734400D01*
X195379889Y-96116689D02*
X195376800Y-96113600D01*
%TO.N,/MOSI*%
X153314400Y-96575000D02*
X152810600Y-96575000D01*
X154834200Y-96575000D02*
X153314400Y-96575000D01*
X213512400Y-94640400D02*
X213512400Y-86512400D01*
X194818000Y-96770000D02*
X194822000Y-96774000D01*
X194822000Y-96774000D02*
X155041600Y-96774000D01*
X194822000Y-96774000D02*
X211378800Y-96774000D01*
X154838400Y-96570800D02*
X154834200Y-96575000D01*
X213512400Y-86512400D02*
X214325200Y-85699600D01*
X211378800Y-96774000D02*
X213512400Y-94640400D01*
X155041600Y-96774000D02*
X154838400Y-96570800D01*
X152810600Y-96575000D02*
X146050000Y-89814400D01*
%TO.N,/MISO*%
X218592400Y-83820000D02*
X220014800Y-82397600D01*
X163271200Y-92557600D02*
X166217600Y-95504000D01*
X201879200Y-95148400D02*
X201879200Y-85863469D01*
X163271200Y-92100400D02*
X163271200Y-92557600D01*
X201879200Y-85863469D02*
X201874899Y-85859168D01*
X201874899Y-85859168D02*
X201879200Y-85854867D01*
X146565200Y-88638800D02*
X153053200Y-88638800D01*
X201879200Y-85854867D02*
X201879200Y-84480400D01*
X201523600Y-95504000D02*
X201879200Y-95148400D01*
X201879200Y-84480400D02*
X202539600Y-83820000D01*
X220014800Y-82397600D02*
X220014800Y-81432400D01*
X202539600Y-83820000D02*
X218592400Y-83820000D01*
X155803600Y-91389200D02*
X162560000Y-91389200D01*
X153053200Y-88638800D02*
X155803600Y-91389200D01*
X166217600Y-95504000D02*
X201523600Y-95504000D01*
X162560000Y-91389200D02*
X163271200Y-92100400D01*
%TO.N,/INTCAN2*%
X187248800Y-82397600D02*
X187248800Y-87833200D01*
X213461600Y-81534000D02*
X213106000Y-81178400D01*
X187248800Y-87833200D02*
X186690000Y-88392000D01*
X188468000Y-81178400D02*
X187248800Y-82397600D01*
X213461600Y-83159600D02*
X213461600Y-81534000D01*
X186690000Y-88392000D02*
X185928000Y-88392000D01*
X213106000Y-81178400D02*
X188468000Y-81178400D01*
%TO.N,/INTCAN*%
X216807710Y-80917710D02*
X216789000Y-80899000D01*
X216807710Y-80880290D02*
X216807710Y-80257310D01*
X175260000Y-87731600D02*
X174548800Y-88442800D01*
X216807710Y-80933055D02*
X216807710Y-80917710D01*
X212191600Y-79857600D02*
X211378800Y-80670400D01*
X216789000Y-80899000D02*
X216807710Y-80880290D01*
X175260000Y-83515200D02*
X175260000Y-87731600D01*
X178104800Y-80670400D02*
X175260000Y-83515200D01*
X216807710Y-80257310D02*
X216408000Y-79857600D01*
X211378800Y-80670400D02*
X178104800Y-80670400D01*
X216408000Y-79857600D02*
X212191600Y-79857600D01*
%TO.N,/INTCAP*%
X211226400Y-80162400D02*
X210464400Y-80162400D01*
X140868400Y-80619600D02*
X141427200Y-80060800D01*
X219202000Y-81432400D02*
X217170000Y-79400400D01*
X217170000Y-79400400D02*
X216357200Y-79400400D01*
D17*
X167436800Y-80772000D02*
X177241200Y-80772000D01*
D16*
X155702000Y-78994000D02*
X165658800Y-78994000D01*
X216357200Y-79400400D02*
X215493600Y-79400400D01*
X154635200Y-80060800D02*
X155702000Y-78994000D01*
X211988400Y-79400400D02*
X211429600Y-79959200D01*
D17*
X177850800Y-80162400D02*
X210464400Y-80162400D01*
D16*
X215493600Y-79400400D02*
X211988400Y-79400400D01*
X211429600Y-79959200D02*
X211226400Y-80162400D01*
X140868400Y-86614000D02*
X140868400Y-80619600D01*
X141427200Y-80060800D02*
X154635200Y-80060800D01*
D17*
X177241200Y-80772000D02*
X177850800Y-80162400D01*
X165658800Y-78994000D02*
X167436800Y-80772000D01*
%TO.N,/INTING*%
X127127000Y-79375000D02*
X127304800Y-79552800D01*
X127304800Y-79552800D02*
X127762000Y-79552800D01*
D16*
X167728900Y-80175100D02*
X166028800Y-78475000D01*
X177596800Y-79654400D02*
X177076100Y-80175100D01*
X155397200Y-78475000D02*
X155397200Y-78536800D01*
X154381200Y-79552800D02*
X127762000Y-79552800D01*
X155397200Y-78536800D02*
X154381200Y-79552800D01*
X177076100Y-80175100D02*
X167728900Y-80175100D01*
X166028800Y-78475000D02*
X155397200Y-78475000D01*
X210883283Y-79654400D02*
X177596800Y-79654400D01*
X210905640Y-79632043D02*
X210883283Y-79654400D01*
D17*
%TO.N,/CAN LISTEN L*%
X163449000Y-82677000D02*
X162306000Y-83820000D01*
X155321000Y-83820000D02*
X154178000Y-82677000D01*
X164465000Y-80010000D02*
X163449000Y-81026000D01*
X162306000Y-83820000D02*
X155321000Y-83820000D01*
X163449000Y-81026000D02*
X163449000Y-82677000D01*
%TO.N,/CAN LISTEN H*%
X163512500Y-80073500D02*
X162306000Y-81280000D01*
X162306000Y-81280000D02*
X154940000Y-81280000D01*
X154305000Y-81915000D02*
X154178000Y-81915000D01*
X154940000Y-81280000D02*
X154305000Y-81915000D01*
%TD*%
%TA.AperFunction,Conductor*%
%TO.N,/SCLK*%
G36*
X154628275Y-93725384D02*
G01*
X154633839Y-93731337D01*
X154735913Y-93975487D01*
X154735942Y-93984442D01*
X154735913Y-93984513D01*
X154633839Y-94228662D01*
X154627486Y-94234973D01*
X154619342Y-94235248D01*
X154236798Y-94107667D01*
X154230034Y-94101799D01*
X154228800Y-94096568D01*
X154228800Y-93863431D01*
X154232227Y-93855158D01*
X154236795Y-93852333D01*
X154619343Y-93724751D01*
X154628275Y-93725384D01*
G37*
%TD.AperFunction*%
%TD*%
%TA.AperFunction,Conductor*%
%TO.N,/SCLK*%
G36*
X155288413Y-93852524D02*
G01*
X155295377Y-93858153D01*
X155296800Y-93863745D01*
X155296800Y-94096254D01*
X155293373Y-94104527D01*
X155288413Y-94107475D01*
X154854012Y-94235715D01*
X154845107Y-94234771D01*
X154839904Y-94229007D01*
X154737685Y-93984511D01*
X154737657Y-93975558D01*
X154839905Y-93730990D01*
X154846257Y-93724681D01*
X154854012Y-93724284D01*
X155288413Y-93852524D01*
G37*
%TD.AperFunction*%
%TD*%
%TA.AperFunction,Conductor*%
%TO.N,/INTCAN2*%
G36*
X186479613Y-88264524D02*
G01*
X186486577Y-88270153D01*
X186488000Y-88275745D01*
X186488000Y-88508254D01*
X186484573Y-88516527D01*
X186479613Y-88519475D01*
X186045212Y-88647715D01*
X186036307Y-88646771D01*
X186031104Y-88641007D01*
X185928885Y-88396511D01*
X185928857Y-88387558D01*
X186031105Y-88142990D01*
X186037457Y-88136681D01*
X186045212Y-88136284D01*
X186479613Y-88264524D01*
G37*
%TD.AperFunction*%
%TD*%
%TA.AperFunction,Conductor*%
%TO.N,/CAN LISTEN H*%
G36*
X154537152Y-81508266D02*
G01*
X154540116Y-81510419D01*
X154707286Y-81677589D01*
X154710713Y-81685862D01*
X154708188Y-81693122D01*
X154384115Y-82102719D01*
X154376295Y-82107080D01*
X154367680Y-82104634D01*
X154366696Y-82103762D01*
X154178973Y-81917375D01*
X154176393Y-81913514D01*
X154082974Y-81685862D01*
X154075636Y-81667979D01*
X154075665Y-81659026D01*
X154082018Y-81652715D01*
X154082817Y-81652421D01*
X154528228Y-81507566D01*
X154537152Y-81508266D01*
G37*
%TD.AperFunction*%
%TD*%
%TA.AperFunction,Conductor*%
%TO.N,/SCLK*%
G36*
X154628517Y-93725212D02*
G01*
X154633678Y-93730953D01*
X154735913Y-93975487D01*
X154735942Y-93984442D01*
X154735913Y-93984513D01*
X154633678Y-94229046D01*
X154627325Y-94235357D01*
X154619616Y-94235768D01*
X154185233Y-94109452D01*
X154178246Y-94103851D01*
X154176800Y-94098217D01*
X154176800Y-93861782D01*
X154180227Y-93853509D01*
X154185230Y-93850548D01*
X154619617Y-93724231D01*
X154628517Y-93725212D01*
G37*
%TD.AperFunction*%
%TD*%
%TA.AperFunction,Conductor*%
%TO.N,/INTCAP*%
G36*
X218902087Y-80952210D02*
G01*
X219299936Y-81168700D01*
X219305565Y-81175663D01*
X219305168Y-81183418D01*
X219204563Y-81428581D01*
X219198252Y-81434934D01*
X219198181Y-81434963D01*
X218953018Y-81535568D01*
X218944063Y-81535539D01*
X218938300Y-81530337D01*
X218721810Y-81132488D01*
X218720867Y-81123585D01*
X218723813Y-81118627D01*
X218888226Y-80954214D01*
X218896498Y-80950788D01*
X218902087Y-80952210D01*
G37*
%TD.AperFunction*%
%TD*%
%TA.AperFunction,Conductor*%
%TO.N,/MISO*%
G36*
X220263807Y-81535504D02*
G01*
X220270118Y-81541857D01*
X220270515Y-81549612D01*
X220142276Y-81984013D01*
X220136647Y-81990977D01*
X220131055Y-81992400D01*
X219898545Y-81992400D01*
X219890272Y-81988973D01*
X219887324Y-81984013D01*
X219759084Y-81549612D01*
X219760028Y-81540707D01*
X219765790Y-81535505D01*
X220010288Y-81433285D01*
X220019242Y-81433257D01*
X220263807Y-81535504D01*
G37*
%TD.AperFunction*%
%TD*%
%TA.AperFunction,Conductor*%
%TO.N,/CAN LISTEN L*%
G36*
X154435975Y-82573844D02*
G01*
X154441716Y-82579005D01*
X154494165Y-82674465D01*
X154659553Y-82975480D01*
X154660534Y-82984380D01*
X154657572Y-82989386D01*
X154490386Y-83156572D01*
X154482113Y-83159999D01*
X154476480Y-83158553D01*
X154290941Y-83056612D01*
X154080005Y-82940716D01*
X154074404Y-82933729D01*
X154074814Y-82926021D01*
X154175436Y-82680817D01*
X154181746Y-82674465D01*
X154427021Y-82573815D01*
X154435975Y-82573844D01*
G37*
%TD.AperFunction*%
%TD*%
%TA.AperFunction,Conductor*%
%TO.N,/INTCAN*%
G36*
X174862574Y-87964615D02*
G01*
X175026984Y-88129025D01*
X175030411Y-88137298D01*
X175028988Y-88142890D01*
X174812500Y-88540736D01*
X174805536Y-88546365D01*
X174797781Y-88545968D01*
X174552618Y-88445363D01*
X174546265Y-88439052D01*
X174546236Y-88438981D01*
X174445631Y-88193818D01*
X174445660Y-88184863D01*
X174450860Y-88179101D01*
X174848711Y-87962610D01*
X174857614Y-87961667D01*
X174862574Y-87964615D01*
G37*
%TD.AperFunction*%
%TD*%
%TA.AperFunction,Conductor*%
%TO.N,/MOSI*%
G36*
X155044641Y-96381012D02*
G01*
X155310780Y-96645568D01*
X155314232Y-96653831D01*
X155314232Y-96886055D01*
X155310805Y-96894328D01*
X155302532Y-96897755D01*
X155301353Y-96897695D01*
X154848883Y-96851861D01*
X154840997Y-96847618D01*
X154838362Y-96840263D01*
X154837417Y-96575685D01*
X154840812Y-96567404D01*
X155028143Y-96381014D01*
X155036422Y-96377610D01*
X155044641Y-96381012D01*
G37*
%TD.AperFunction*%
%TD*%
%TA.AperFunction,Conductor*%
%TO.N,/MOSI*%
G36*
X154730036Y-96316066D02*
G01*
X154735332Y-96321880D01*
X154837513Y-96566287D01*
X154837542Y-96575242D01*
X154837513Y-96575313D01*
X154735262Y-96819885D01*
X154728909Y-96826196D01*
X154721245Y-96826620D01*
X154287713Y-96702428D01*
X154280703Y-96696855D01*
X154279235Y-96691180D01*
X154279235Y-96458663D01*
X154282662Y-96450390D01*
X154287519Y-96447472D01*
X154721125Y-96315202D01*
X154730036Y-96316066D01*
G37*
%TD.AperFunction*%
%TD*%
%TA.AperFunction,Conductor*%
%TO.N,+3.3V*%
G36*
X155060959Y-78170185D02*
G01*
X155106714Y-78222989D01*
X155116658Y-78292147D01*
X155101308Y-78336499D01*
X155093882Y-78349360D01*
X155093881Y-78349363D01*
X155091343Y-78358836D01*
X155059250Y-78414421D01*
X154282692Y-79190981D01*
X154221369Y-79224466D01*
X154195011Y-79227300D01*
X151393440Y-79227300D01*
X151326401Y-79207615D01*
X151280646Y-79154811D01*
X151270702Y-79085653D01*
X151280645Y-79051789D01*
X151290977Y-79029164D01*
X151310641Y-78892400D01*
X151290977Y-78755635D01*
X151287695Y-78748449D01*
X151233579Y-78629952D01*
X151233579Y-78629951D01*
X151143096Y-78525528D01*
X151143093Y-78525526D01*
X151143091Y-78525524D01*
X151026861Y-78450827D01*
X151026856Y-78450825D01*
X150894287Y-78411900D01*
X150894285Y-78411900D01*
X150756115Y-78411900D01*
X150756112Y-78411900D01*
X150623543Y-78450825D01*
X150623538Y-78450827D01*
X150507308Y-78525524D01*
X150507306Y-78525526D01*
X150507304Y-78525527D01*
X150507304Y-78525528D01*
X150460839Y-78579152D01*
X150416821Y-78629951D01*
X150416820Y-78629952D01*
X150359422Y-78755634D01*
X150339759Y-78892400D01*
X150359422Y-79029164D01*
X150369755Y-79051789D01*
X150379698Y-79120947D01*
X150350673Y-79184503D01*
X150291894Y-79222277D01*
X150256960Y-79227300D01*
X149439001Y-79227300D01*
X149371962Y-79207615D01*
X149326207Y-79154811D01*
X149316263Y-79085653D01*
X149317809Y-79074899D01*
X149329441Y-78994000D01*
X149309777Y-78857235D01*
X149307784Y-78852872D01*
X149260096Y-78748449D01*
X149252379Y-78731551D01*
X149161896Y-78627128D01*
X149161893Y-78627126D01*
X149161891Y-78627124D01*
X149045661Y-78552427D01*
X149045656Y-78552425D01*
X148913087Y-78513500D01*
X148913085Y-78513500D01*
X148774915Y-78513500D01*
X148774912Y-78513500D01*
X148642343Y-78552425D01*
X148642338Y-78552427D01*
X148526108Y-78627124D01*
X148526106Y-78627126D01*
X148526104Y-78627127D01*
X148526104Y-78627128D01*
X148479639Y-78680752D01*
X148435621Y-78731551D01*
X148435620Y-78731552D01*
X148378222Y-78857234D01*
X148358559Y-78993999D01*
X148358559Y-78994000D01*
X148367360Y-79055215D01*
X148371737Y-79085653D01*
X148361793Y-79154811D01*
X148316039Y-79207615D01*
X148248999Y-79227300D01*
X137188897Y-79227300D01*
X137121858Y-79207615D01*
X137076103Y-79154811D01*
X137066159Y-79085653D01*
X137067705Y-79074899D01*
X137086641Y-78943200D01*
X137066977Y-78806435D01*
X137064846Y-78801769D01*
X137017157Y-78697345D01*
X137009579Y-78680751D01*
X136919096Y-78576328D01*
X136919093Y-78576326D01*
X136919091Y-78576324D01*
X136802861Y-78501627D01*
X136802856Y-78501625D01*
X136670287Y-78462700D01*
X136670285Y-78462700D01*
X136532115Y-78462700D01*
X136532112Y-78462700D01*
X136399543Y-78501625D01*
X136399538Y-78501627D01*
X136283308Y-78576324D01*
X136283306Y-78576326D01*
X136283304Y-78576327D01*
X136283304Y-78576328D01*
X136236839Y-78629952D01*
X136192821Y-78680751D01*
X136192820Y-78680752D01*
X136135422Y-78806434D01*
X136115759Y-78943199D01*
X136115759Y-78943200D01*
X136131864Y-79055215D01*
X136136241Y-79085653D01*
X136126297Y-79154811D01*
X136080543Y-79207615D01*
X136013503Y-79227300D01*
X135215001Y-79227300D01*
X135147962Y-79207615D01*
X135102207Y-79154811D01*
X135092263Y-79085653D01*
X135093809Y-79074899D01*
X135105441Y-78994000D01*
X135085777Y-78857235D01*
X135083784Y-78852872D01*
X135036096Y-78748449D01*
X135028379Y-78731551D01*
X134937896Y-78627128D01*
X134937893Y-78627126D01*
X134937891Y-78627124D01*
X134821661Y-78552427D01*
X134821656Y-78552425D01*
X134689087Y-78513500D01*
X134689085Y-78513500D01*
X134550915Y-78513500D01*
X134550912Y-78513500D01*
X134418343Y-78552425D01*
X134418338Y-78552427D01*
X134302108Y-78627124D01*
X134302106Y-78627126D01*
X134302104Y-78627127D01*
X134302104Y-78627128D01*
X134255639Y-78680752D01*
X134211621Y-78731551D01*
X134211620Y-78731552D01*
X134154222Y-78857234D01*
X134134559Y-78993999D01*
X134134559Y-78994000D01*
X134143360Y-79055215D01*
X134147737Y-79085653D01*
X134137793Y-79154811D01*
X134092039Y-79207615D01*
X134024999Y-79227300D01*
X133183001Y-79227300D01*
X133115962Y-79207615D01*
X133070207Y-79154811D01*
X133060263Y-79085653D01*
X133061809Y-79074899D01*
X133073441Y-78994000D01*
X133053777Y-78857235D01*
X133051784Y-78852872D01*
X133004096Y-78748449D01*
X132996379Y-78731551D01*
X132905896Y-78627128D01*
X132905893Y-78627126D01*
X132905891Y-78627124D01*
X132789661Y-78552427D01*
X132789656Y-78552425D01*
X132657087Y-78513500D01*
X132657085Y-78513500D01*
X132518915Y-78513500D01*
X132518912Y-78513500D01*
X132386343Y-78552425D01*
X132386338Y-78552427D01*
X132270108Y-78627124D01*
X132270106Y-78627126D01*
X132270104Y-78627127D01*
X132270104Y-78627128D01*
X132223639Y-78680752D01*
X132179621Y-78731551D01*
X132179620Y-78731552D01*
X132122222Y-78857234D01*
X132102559Y-78993999D01*
X132102559Y-78994000D01*
X132111360Y-79055215D01*
X132115737Y-79085653D01*
X132105793Y-79154811D01*
X132060039Y-79207615D01*
X131992999Y-79227300D01*
X131143697Y-79227300D01*
X131076658Y-79207615D01*
X131030903Y-79154811D01*
X131020959Y-79085653D01*
X131022505Y-79074899D01*
X131041441Y-78943200D01*
X131021777Y-78806435D01*
X131019646Y-78801769D01*
X130971957Y-78697345D01*
X130964379Y-78680751D01*
X130873896Y-78576328D01*
X130873893Y-78576326D01*
X130873891Y-78576324D01*
X130757661Y-78501627D01*
X130757656Y-78501625D01*
X130625087Y-78462700D01*
X130625085Y-78462700D01*
X130486915Y-78462700D01*
X130486912Y-78462700D01*
X130354343Y-78501625D01*
X130354338Y-78501627D01*
X130238108Y-78576324D01*
X130238106Y-78576326D01*
X130238104Y-78576327D01*
X130238104Y-78576328D01*
X130191639Y-78629952D01*
X130147621Y-78680751D01*
X130147620Y-78680752D01*
X130090222Y-78806434D01*
X130070559Y-78943199D01*
X130070559Y-78943200D01*
X130086664Y-79055215D01*
X130091041Y-79085653D01*
X130081097Y-79154811D01*
X130035343Y-79207615D01*
X129968303Y-79227300D01*
X127828432Y-79227300D01*
X127812244Y-79226239D01*
X127805118Y-79225300D01*
X127805116Y-79225300D01*
X127805113Y-79225300D01*
X127666560Y-79225300D01*
X127599521Y-79205615D01*
X127553766Y-79152812D01*
X127543697Y-79130765D01*
X127535379Y-79112551D01*
X127444896Y-79008128D01*
X127444893Y-79008126D01*
X127444891Y-79008124D01*
X127328661Y-78933427D01*
X127328656Y-78933425D01*
X127196087Y-78894500D01*
X127196085Y-78894500D01*
X127057915Y-78894500D01*
X127057912Y-78894500D01*
X126925343Y-78933425D01*
X126925338Y-78933427D01*
X126809108Y-79008124D01*
X126809106Y-79008126D01*
X126809104Y-79008127D01*
X126809104Y-79008128D01*
X126768303Y-79055215D01*
X126718621Y-79112551D01*
X126718620Y-79112552D01*
X126661222Y-79238234D01*
X126641559Y-79375000D01*
X126661222Y-79511765D01*
X126706033Y-79609885D01*
X126718621Y-79637449D01*
X126809104Y-79741872D01*
X126809106Y-79741873D01*
X126809108Y-79741875D01*
X126925338Y-79816572D01*
X126925343Y-79816574D01*
X127057912Y-79855499D01*
X127057914Y-79855500D01*
X127057915Y-79855500D01*
X127152806Y-79855500D01*
X127184897Y-79859724D01*
X127261684Y-79880300D01*
X127261686Y-79880300D01*
X127805113Y-79880300D01*
X127805116Y-79880300D01*
X127805118Y-79880299D01*
X127812244Y-79879361D01*
X127828432Y-79878300D01*
X140850012Y-79878300D01*
X140917051Y-79897985D01*
X140962806Y-79950789D01*
X140972750Y-80019947D01*
X140943725Y-80083503D01*
X140937698Y-80089975D01*
X140845277Y-80182396D01*
X140607937Y-80419735D01*
X140607935Y-80419738D01*
X140565083Y-80493959D01*
X140551470Y-80544759D01*
X140551470Y-80544762D01*
X140542900Y-80576747D01*
X140542900Y-80576750D01*
X140542900Y-86209653D01*
X140523215Y-86276692D01*
X140512613Y-86290855D01*
X140460023Y-86351546D01*
X140460020Y-86351552D01*
X140402622Y-86477234D01*
X140382959Y-86614000D01*
X140402622Y-86750765D01*
X140440099Y-86832827D01*
X140460021Y-86876449D01*
X140550504Y-86980872D01*
X140550506Y-86980873D01*
X140550508Y-86980875D01*
X140666738Y-87055572D01*
X140666743Y-87055574D01*
X140799312Y-87094499D01*
X140799314Y-87094500D01*
X140799315Y-87094500D01*
X140937486Y-87094500D01*
X140937486Y-87094499D01*
X141055200Y-87059936D01*
X141070056Y-87055574D01*
X141070057Y-87055573D01*
X141070059Y-87055573D01*
X141186296Y-86980872D01*
X141276779Y-86876449D01*
X141334177Y-86750765D01*
X141353841Y-86614000D01*
X141334177Y-86477235D01*
X141330895Y-86470049D01*
X141276779Y-86351552D01*
X141276776Y-86351546D01*
X141224187Y-86290855D01*
X141195162Y-86227299D01*
X141193900Y-86209653D01*
X141193900Y-86207600D01*
X149374559Y-86207600D01*
X149394222Y-86344365D01*
X149451392Y-86469547D01*
X149451621Y-86470049D01*
X149542104Y-86574472D01*
X149542106Y-86574473D01*
X149542108Y-86574475D01*
X149658338Y-86649172D01*
X149658343Y-86649174D01*
X149749961Y-86676075D01*
X149785721Y-86686575D01*
X149790912Y-86688099D01*
X149790914Y-86688100D01*
X149790915Y-86688100D01*
X149929086Y-86688100D01*
X149929086Y-86688099D01*
X150061659Y-86649173D01*
X150061672Y-86649165D01*
X150128169Y-86606429D01*
X150177896Y-86574472D01*
X150268379Y-86470049D01*
X150325777Y-86344365D01*
X150345441Y-86207600D01*
X150325777Y-86070835D01*
X150323784Y-86066472D01*
X150276096Y-85962049D01*
X150268379Y-85945151D01*
X150177896Y-85840728D01*
X150177893Y-85840726D01*
X150177891Y-85840724D01*
X150061661Y-85766027D01*
X150061656Y-85766025D01*
X149929087Y-85727100D01*
X149929085Y-85727100D01*
X149790915Y-85727100D01*
X149790912Y-85727100D01*
X149658343Y-85766025D01*
X149658338Y-85766027D01*
X149542108Y-85840724D01*
X149542106Y-85840726D01*
X149542104Y-85840727D01*
X149542104Y-85840728D01*
X149459498Y-85936061D01*
X149451622Y-85945150D01*
X149451620Y-85945152D01*
X149394222Y-86070834D01*
X149374559Y-86207600D01*
X141193900Y-86207600D01*
X141193900Y-80805788D01*
X141213585Y-80738749D01*
X141230219Y-80718107D01*
X141525707Y-80422619D01*
X141587030Y-80389134D01*
X141613388Y-80386300D01*
X151046651Y-80386300D01*
X151113690Y-80405985D01*
X151159445Y-80458789D01*
X151169388Y-80527946D01*
X151166971Y-80544762D01*
X151152559Y-80645000D01*
X151172222Y-80781765D01*
X151185813Y-80811524D01*
X151229621Y-80907449D01*
X151320104Y-81011872D01*
X151320106Y-81011873D01*
X151320108Y-81011875D01*
X151436338Y-81086572D01*
X151436343Y-81086574D01*
X151518967Y-81110834D01*
X151568356Y-81125336D01*
X151568912Y-81125499D01*
X151568914Y-81125500D01*
X151568915Y-81125500D01*
X151707086Y-81125500D01*
X151707086Y-81125499D01*
X151839659Y-81086573D01*
X151854274Y-81077181D01*
X151914266Y-81038626D01*
X151955896Y-81011872D01*
X152046379Y-80907449D01*
X152103777Y-80781765D01*
X152123441Y-80645000D01*
X152106611Y-80527946D01*
X152116555Y-80458789D01*
X152162309Y-80405985D01*
X152229349Y-80386300D01*
X154678051Y-80386300D01*
X154678053Y-80386300D01*
X154760839Y-80364118D01*
X154835062Y-80321265D01*
X155800508Y-79355819D01*
X155861831Y-79322334D01*
X155888189Y-79319500D01*
X156134795Y-79319500D01*
X156201834Y-79339185D01*
X156247589Y-79391989D01*
X156257533Y-79461147D01*
X156244153Y-79501953D01*
X156186466Y-79609877D01*
X156186465Y-79609880D01*
X156186464Y-79609882D01*
X156186463Y-79609885D01*
X156178102Y-79637448D01*
X156131426Y-79791318D01*
X156112843Y-79980000D01*
X156131426Y-80168681D01*
X156145312Y-80214457D01*
X156186463Y-80350115D01*
X156186464Y-80350118D01*
X156186465Y-80350119D01*
X156186466Y-80350122D01*
X156275834Y-80517318D01*
X156275838Y-80517325D01*
X156396116Y-80663883D01*
X156479905Y-80732647D01*
X156519239Y-80790393D01*
X156521110Y-80860237D01*
X156484922Y-80920006D01*
X156422166Y-80950721D01*
X156401240Y-80952500D01*
X154983116Y-80952500D01*
X154896884Y-80952500D01*
X154842558Y-80967057D01*
X154813589Y-80974819D01*
X154738912Y-81017933D01*
X154456117Y-81300727D01*
X154406786Y-81330966D01*
X154019237Y-81457004D01*
X154011867Y-81459557D01*
X154011053Y-81459857D01*
X154005087Y-81462813D01*
X154004623Y-81461877D01*
X153984365Y-81471070D01*
X153976339Y-81473427D01*
X153860106Y-81548126D01*
X153860104Y-81548127D01*
X153860104Y-81548128D01*
X153780502Y-81639994D01*
X153769621Y-81652551D01*
X153769620Y-81652552D01*
X153712222Y-81778234D01*
X153692559Y-81915000D01*
X153712222Y-82051765D01*
X153769620Y-82177447D01*
X153769623Y-82177453D01*
X153801983Y-82214798D01*
X153831008Y-82278354D01*
X153821064Y-82347512D01*
X153801983Y-82377202D01*
X153769623Y-82414546D01*
X153769620Y-82414552D01*
X153712223Y-82540233D01*
X153692559Y-82677000D01*
X153712222Y-82813765D01*
X153750892Y-82898439D01*
X153769621Y-82939449D01*
X153860104Y-83043872D01*
X153860106Y-83043873D01*
X153860108Y-83043875D01*
X153976503Y-83118678D01*
X153984015Y-83122451D01*
X154162247Y-83220379D01*
X154191985Y-83236717D01*
X154191985Y-83236718D01*
X154354713Y-83326126D01*
X154359779Y-83328909D01*
X154387750Y-83349905D01*
X155058935Y-84021090D01*
X155119910Y-84082065D01*
X155194590Y-84125181D01*
X155277884Y-84147500D01*
X156328130Y-84147500D01*
X156395169Y-84167185D01*
X156440924Y-84219989D01*
X156450868Y-84289147D01*
X156421843Y-84352703D01*
X156406796Y-84367353D01*
X156396114Y-84376119D01*
X156275838Y-84522674D01*
X156275834Y-84522681D01*
X156186466Y-84689877D01*
X156186465Y-84689880D01*
X156186464Y-84689882D01*
X156186463Y-84689885D01*
X156168701Y-84748440D01*
X156131426Y-84871318D01*
X156112843Y-85060000D01*
X156131426Y-85248681D01*
X156145289Y-85294381D01*
X156186463Y-85430115D01*
X156186464Y-85430118D01*
X156186465Y-85430119D01*
X156186466Y-85430122D01*
X156275834Y-85597318D01*
X156275838Y-85597325D01*
X156396116Y-85743883D01*
X156542674Y-85864161D01*
X156542681Y-85864165D01*
X156709877Y-85953533D01*
X156709878Y-85953533D01*
X156709885Y-85953537D01*
X156891317Y-86008573D01*
X156891316Y-86008573D01*
X156964246Y-86015756D01*
X157080000Y-86027157D01*
X157080000Y-86027156D01*
X157086063Y-86027754D01*
X157085936Y-86029041D01*
X157146558Y-86046842D01*
X157167200Y-86063476D01*
X157632551Y-86528827D01*
X157666036Y-86590150D01*
X157661052Y-86659842D01*
X157619180Y-86715775D01*
X157553716Y-86740192D01*
X157486417Y-86725866D01*
X157450122Y-86706466D01*
X157450119Y-86706465D01*
X157450118Y-86706464D01*
X157450115Y-86706463D01*
X157268683Y-86651427D01*
X157268681Y-86651426D01*
X157268683Y-86651426D01*
X157080000Y-86632843D01*
X156891318Y-86651426D01*
X156810062Y-86676075D01*
X156709885Y-86706463D01*
X156709882Y-86706464D01*
X156709880Y-86706465D01*
X156709877Y-86706466D01*
X156542681Y-86795834D01*
X156542674Y-86795838D01*
X156396116Y-86916116D01*
X156275838Y-87062674D01*
X156275834Y-87062681D01*
X156186466Y-87229877D01*
X156186465Y-87229880D01*
X156186465Y-87229881D01*
X156186463Y-87229885D01*
X156177700Y-87258773D01*
X156131426Y-87411318D01*
X156112843Y-87600000D01*
X156131426Y-87788681D01*
X156147740Y-87842460D01*
X156186463Y-87970115D01*
X156186464Y-87970118D01*
X156186465Y-87970119D01*
X156186466Y-87970122D01*
X156275834Y-88137318D01*
X156275838Y-88137325D01*
X156396116Y-88283883D01*
X156542674Y-88404161D01*
X156542681Y-88404165D01*
X156709877Y-88493533D01*
X156709878Y-88493533D01*
X156709885Y-88493537D01*
X156891317Y-88548573D01*
X156891316Y-88548573D01*
X156908233Y-88550239D01*
X157080000Y-88567157D01*
X157268683Y-88548573D01*
X157450115Y-88493537D01*
X157617324Y-88404162D01*
X157763883Y-88283883D01*
X157884162Y-88137324D01*
X157973537Y-87970115D01*
X158028573Y-87788683D01*
X158047157Y-87600000D01*
X158028573Y-87411317D01*
X157973537Y-87229885D01*
X157972165Y-87227319D01*
X157954133Y-87193583D01*
X157939891Y-87125180D01*
X157964891Y-87059936D01*
X158021196Y-87018565D01*
X158090929Y-87014203D01*
X158151172Y-87047448D01*
X160770083Y-89666359D01*
X160803568Y-89727682D01*
X160801063Y-89790034D01*
X160752916Y-89948756D01*
X160734333Y-90137439D01*
X160752916Y-90326120D01*
X160754463Y-90331219D01*
X160807953Y-90507554D01*
X160807954Y-90507557D01*
X160807955Y-90507558D01*
X160807956Y-90507561D01*
X160897324Y-90674757D01*
X160897328Y-90674764D01*
X161017606Y-90821322D01*
X161045053Y-90843847D01*
X161084387Y-90901593D01*
X161086258Y-90971437D01*
X161050070Y-91031206D01*
X160987314Y-91061921D01*
X160966388Y-91063700D01*
X157818223Y-91063700D01*
X157751184Y-91044015D01*
X157705429Y-90991211D01*
X157695485Y-90922053D01*
X157724510Y-90858497D01*
X157739557Y-90843847D01*
X157763883Y-90823883D01*
X157884162Y-90677324D01*
X157973537Y-90510115D01*
X158028573Y-90328683D01*
X158047157Y-90140000D01*
X158028573Y-89951317D01*
X157973537Y-89769885D01*
X157972168Y-89767324D01*
X157884165Y-89602681D01*
X157884161Y-89602674D01*
X157763883Y-89456116D01*
X157617325Y-89335838D01*
X157617318Y-89335834D01*
X157450122Y-89246466D01*
X157450119Y-89246465D01*
X157450118Y-89246464D01*
X157450115Y-89246463D01*
X157268683Y-89191427D01*
X157268681Y-89191426D01*
X157268683Y-89191426D01*
X157080000Y-89172843D01*
X156891318Y-89191426D01*
X156795715Y-89220427D01*
X156709885Y-89246463D01*
X156709882Y-89246464D01*
X156709880Y-89246465D01*
X156709877Y-89246466D01*
X156542681Y-89335834D01*
X156542674Y-89335838D01*
X156396116Y-89456116D01*
X156275838Y-89602674D01*
X156275834Y-89602681D01*
X156186466Y-89769877D01*
X156186465Y-89769880D01*
X156186464Y-89769882D01*
X156186463Y-89769885D01*
X156176380Y-89803124D01*
X156131426Y-89951318D01*
X156112843Y-90140000D01*
X156131426Y-90328681D01*
X156131427Y-90328683D01*
X156186463Y-90510115D01*
X156186464Y-90510118D01*
X156186465Y-90510119D01*
X156186466Y-90510122D01*
X156275834Y-90677318D01*
X156275838Y-90677325D01*
X156396114Y-90823880D01*
X156396115Y-90823881D01*
X156396117Y-90823883D01*
X156420443Y-90843847D01*
X156459777Y-90901593D01*
X156461646Y-90971438D01*
X156425459Y-91031206D01*
X156362703Y-91061922D01*
X156341777Y-91063700D01*
X155989789Y-91063700D01*
X155922750Y-91044015D01*
X155902108Y-91027381D01*
X153253064Y-88378337D01*
X153253062Y-88378335D01*
X153215806Y-88356825D01*
X153178840Y-88335482D01*
X153115747Y-88318577D01*
X153096053Y-88313300D01*
X153096052Y-88313300D01*
X151528128Y-88313300D01*
X151461089Y-88293615D01*
X151415334Y-88240811D01*
X151405390Y-88171653D01*
X151415334Y-88137788D01*
X151415546Y-88137325D01*
X151468777Y-88020765D01*
X151488441Y-87884000D01*
X151468777Y-87747235D01*
X151464574Y-87738032D01*
X151423006Y-87647011D01*
X151411379Y-87621551D01*
X151320896Y-87517128D01*
X151320893Y-87517126D01*
X151320891Y-87517124D01*
X151204661Y-87442427D01*
X151204656Y-87442425D01*
X151072087Y-87403500D01*
X151072085Y-87403500D01*
X150933915Y-87403500D01*
X150933912Y-87403500D01*
X150801343Y-87442425D01*
X150801338Y-87442427D01*
X150685108Y-87517124D01*
X150685106Y-87517126D01*
X150685104Y-87517127D01*
X150685104Y-87517128D01*
X150616091Y-87596773D01*
X150594621Y-87621551D01*
X150594620Y-87621552D01*
X150537222Y-87747234D01*
X150517559Y-87884000D01*
X150537222Y-88020765D01*
X150570515Y-88093665D01*
X150590454Y-88137325D01*
X150590666Y-88137788D01*
X150600610Y-88206946D01*
X150571585Y-88270502D01*
X150512808Y-88308277D01*
X150477872Y-88313300D01*
X146961582Y-88313300D01*
X146894543Y-88293615D01*
X146880378Y-88283012D01*
X146875891Y-88279123D01*
X146759661Y-88204427D01*
X146759656Y-88204425D01*
X146627087Y-88165500D01*
X146618308Y-88164238D01*
X146618505Y-88162864D01*
X146560442Y-88145815D01*
X146514687Y-88093011D01*
X146504743Y-88059147D01*
X146491658Y-87968142D01*
X146462959Y-87905301D01*
X146434260Y-87842459D01*
X146343777Y-87738036D01*
X146343774Y-87738034D01*
X146343772Y-87738032D01*
X146227542Y-87663335D01*
X146227537Y-87663333D01*
X146094968Y-87624408D01*
X146094966Y-87624408D01*
X145956796Y-87624408D01*
X145956793Y-87624408D01*
X145824224Y-87663333D01*
X145824219Y-87663335D01*
X145707989Y-87738032D01*
X145707987Y-87738034D01*
X145707985Y-87738035D01*
X145707985Y-87738036D01*
X145668437Y-87783677D01*
X145617502Y-87842459D01*
X145617501Y-87842460D01*
X145560103Y-87968142D01*
X145540440Y-88104908D01*
X145560103Y-88241673D01*
X145617501Y-88367355D01*
X145617504Y-88367361D01*
X145668093Y-88425742D01*
X145697119Y-88489297D01*
X145698381Y-88506945D01*
X145698381Y-88959765D01*
X145698381Y-89045997D01*
X145720700Y-89129291D01*
X145745844Y-89172843D01*
X145763815Y-89203969D01*
X145763817Y-89203972D01*
X145790873Y-89231028D01*
X145824358Y-89292351D01*
X145819374Y-89362043D01*
X145777502Y-89417976D01*
X145770232Y-89423024D01*
X145732106Y-89447526D01*
X145732104Y-89447527D01*
X145732104Y-89447528D01*
X145660239Y-89530465D01*
X145641621Y-89551951D01*
X145641620Y-89551952D01*
X145584222Y-89677634D01*
X145564559Y-89814400D01*
X145584222Y-89951165D01*
X145641620Y-90076847D01*
X145641621Y-90076849D01*
X145732104Y-90181272D01*
X145732106Y-90181273D01*
X145732108Y-90181275D01*
X145848338Y-90255972D01*
X145848343Y-90255974D01*
X145980912Y-90294899D01*
X145980914Y-90294900D01*
X145980915Y-90294900D01*
X146018811Y-90294900D01*
X146085850Y-90314585D01*
X146106492Y-90331219D01*
X152613092Y-96837819D01*
X152646577Y-96899142D01*
X152641593Y-96968834D01*
X152599721Y-97024767D01*
X152534257Y-97049184D01*
X152525411Y-97049500D01*
X126071200Y-97049500D01*
X126004161Y-97029815D01*
X125958406Y-96977011D01*
X125947200Y-96925500D01*
X125947200Y-96634567D01*
X125966885Y-96567528D01*
X126019689Y-96521773D01*
X126088847Y-96511829D01*
X126142324Y-96532993D01*
X126239582Y-96601094D01*
X126239592Y-96601100D01*
X126439715Y-96694419D01*
X126439729Y-96694424D01*
X126653013Y-96751573D01*
X126653023Y-96751575D01*
X126872999Y-96770821D01*
X126873001Y-96770821D01*
X127092976Y-96751575D01*
X127092986Y-96751573D01*
X127306270Y-96694424D01*
X127306284Y-96694419D01*
X127506407Y-96601100D01*
X127506417Y-96601094D01*
X127571188Y-96555741D01*
X126900447Y-95885000D01*
X126923160Y-95885000D01*
X127020061Y-95859036D01*
X127106940Y-95808876D01*
X127177876Y-95737940D01*
X127228036Y-95651061D01*
X127254000Y-95554160D01*
X127254000Y-95531447D01*
X127924741Y-96202188D01*
X127970094Y-96137417D01*
X127970100Y-96137407D01*
X128063419Y-95937284D01*
X128063424Y-95937270D01*
X128120573Y-95723986D01*
X128120575Y-95723976D01*
X128139821Y-95504000D01*
X128139821Y-95503999D01*
X128120575Y-95284023D01*
X128120573Y-95284013D01*
X128063424Y-95070729D01*
X128063420Y-95070720D01*
X127970096Y-94870586D01*
X127924741Y-94805811D01*
X127924740Y-94805810D01*
X127254000Y-95476551D01*
X127254000Y-95453840D01*
X127228036Y-95356939D01*
X127177876Y-95270060D01*
X127106940Y-95199124D01*
X127020061Y-95148964D01*
X126923160Y-95123000D01*
X126900447Y-95123000D01*
X127571188Y-94452258D01*
X127506411Y-94406901D01*
X127506405Y-94406898D01*
X127306284Y-94313580D01*
X127306270Y-94313575D01*
X127092986Y-94256426D01*
X127092976Y-94256424D01*
X126873001Y-94237179D01*
X126872999Y-94237179D01*
X126653023Y-94256424D01*
X126653013Y-94256426D01*
X126439729Y-94313575D01*
X126439720Y-94313579D01*
X126239591Y-94406900D01*
X126142322Y-94475008D01*
X126076116Y-94497335D01*
X126008349Y-94480323D01*
X125960537Y-94429375D01*
X125947200Y-94373432D01*
X125947200Y-94107000D01*
X130705559Y-94107000D01*
X130725222Y-94243765D01*
X130772310Y-94346872D01*
X130782621Y-94369449D01*
X130873104Y-94473872D01*
X130873106Y-94473873D01*
X130873108Y-94473875D01*
X130989338Y-94548572D01*
X130989343Y-94548574D01*
X131121912Y-94587499D01*
X131121914Y-94587500D01*
X131121915Y-94587500D01*
X131260086Y-94587500D01*
X131260086Y-94587499D01*
X131392659Y-94548573D01*
X131412043Y-94536116D01*
X131472387Y-94497335D01*
X131508896Y-94473872D01*
X131599379Y-94369449D01*
X131656777Y-94243765D01*
X131676441Y-94107000D01*
X131656777Y-93970235D01*
X131644169Y-93942628D01*
X131624702Y-93900000D01*
X131599379Y-93844551D01*
X131508896Y-93740128D01*
X131508893Y-93740126D01*
X131508891Y-93740124D01*
X131392661Y-93665427D01*
X131392656Y-93665425D01*
X131260087Y-93626500D01*
X131260085Y-93626500D01*
X131121915Y-93626500D01*
X131121912Y-93626500D01*
X130989343Y-93665425D01*
X130989338Y-93665427D01*
X130873108Y-93740124D01*
X130873106Y-93740126D01*
X130873104Y-93740127D01*
X130873104Y-93740128D01*
X130827787Y-93792427D01*
X130782621Y-93844551D01*
X130782620Y-93844552D01*
X130725222Y-93970234D01*
X130705559Y-94107000D01*
X125947200Y-94107000D01*
X125947200Y-93699663D01*
X125966885Y-93632624D01*
X126019689Y-93586869D01*
X126088847Y-93576925D01*
X126152403Y-93605950D01*
X126167054Y-93620999D01*
X126189117Y-93647884D01*
X126335674Y-93768161D01*
X126335681Y-93768165D01*
X126502877Y-93857533D01*
X126502878Y-93857533D01*
X126502885Y-93857537D01*
X126684317Y-93912573D01*
X126684316Y-93912573D01*
X126701233Y-93914239D01*
X126873000Y-93931157D01*
X127061683Y-93912573D01*
X127243115Y-93857537D01*
X127410324Y-93768162D01*
X127556883Y-93647883D01*
X127677162Y-93501324D01*
X127766537Y-93334115D01*
X127821573Y-93152683D01*
X127840157Y-92964000D01*
X127821573Y-92775317D01*
X127766537Y-92593885D01*
X127765235Y-92591449D01*
X127677165Y-92426681D01*
X127677161Y-92426674D01*
X127556883Y-92280116D01*
X127410325Y-92159838D01*
X127410318Y-92159834D01*
X127243122Y-92070466D01*
X127243119Y-92070465D01*
X127243118Y-92070464D01*
X127243115Y-92070463D01*
X127061683Y-92015427D01*
X127061681Y-92015426D01*
X127061683Y-92015426D01*
X126873000Y-91996843D01*
X126684318Y-92015426D01*
X126577194Y-92047921D01*
X126502885Y-92070463D01*
X126502882Y-92070464D01*
X126502880Y-92070465D01*
X126502877Y-92070466D01*
X126335681Y-92159834D01*
X126335674Y-92159838D01*
X126189116Y-92280116D01*
X126167053Y-92307001D01*
X126109307Y-92346335D01*
X126039462Y-92348206D01*
X125979694Y-92312018D01*
X125948978Y-92249262D01*
X125947200Y-92228336D01*
X125947200Y-91159663D01*
X125966885Y-91092624D01*
X126019689Y-91046869D01*
X126088847Y-91036925D01*
X126152403Y-91065950D01*
X126167054Y-91080999D01*
X126189117Y-91107884D01*
X126335674Y-91228161D01*
X126335681Y-91228165D01*
X126502877Y-91317533D01*
X126502878Y-91317533D01*
X126502885Y-91317537D01*
X126684317Y-91372573D01*
X126684316Y-91372573D01*
X126701233Y-91374239D01*
X126873000Y-91391157D01*
X127061683Y-91372573D01*
X127243115Y-91317537D01*
X127410324Y-91228162D01*
X127461698Y-91186000D01*
X140865559Y-91186000D01*
X140885222Y-91322765D01*
X140934904Y-91431551D01*
X140942621Y-91448449D01*
X141033104Y-91552872D01*
X141033106Y-91552873D01*
X141033108Y-91552875D01*
X141149338Y-91627572D01*
X141149343Y-91627574D01*
X141281912Y-91666499D01*
X141281914Y-91666500D01*
X141281915Y-91666500D01*
X141420086Y-91666500D01*
X141420086Y-91666499D01*
X141552656Y-91627574D01*
X141552657Y-91627574D01*
X141552659Y-91627573D01*
X141664961Y-91555400D01*
X141732000Y-91535716D01*
X141799036Y-91555399D01*
X141864711Y-91597606D01*
X141911342Y-91627574D01*
X142043912Y-91666499D01*
X142043914Y-91666500D01*
X142043915Y-91666500D01*
X142182086Y-91666500D01*
X142182086Y-91666499D01*
X142314656Y-91627574D01*
X142314657Y-91627574D01*
X142314659Y-91627573D01*
X142426961Y-91555400D01*
X142494000Y-91535716D01*
X142561036Y-91555399D01*
X142626711Y-91597606D01*
X142673342Y-91627574D01*
X142805912Y-91666499D01*
X142805914Y-91666500D01*
X142855054Y-91666500D01*
X142922093Y-91686185D01*
X142967848Y-91738989D01*
X142977792Y-91772853D01*
X142993422Y-91881565D01*
X143044717Y-91993884D01*
X143050821Y-92007249D01*
X143141304Y-92111672D01*
X143141306Y-92111673D01*
X143141308Y-92111675D01*
X143257538Y-92186372D01*
X143257543Y-92186374D01*
X143390112Y-92225299D01*
X143390114Y-92225300D01*
X143390115Y-92225300D01*
X143528286Y-92225300D01*
X143528286Y-92225299D01*
X143660859Y-92186373D01*
X143679336Y-92174499D01*
X143732841Y-92140113D01*
X143777096Y-92111672D01*
X143867579Y-92007249D01*
X143924977Y-91881565D01*
X143944641Y-91744800D01*
X143924977Y-91608035D01*
X143920215Y-91597608D01*
X143867579Y-91482352D01*
X143867579Y-91482351D01*
X143777096Y-91377928D01*
X143777093Y-91377926D01*
X143777091Y-91377924D01*
X143660861Y-91303227D01*
X143660856Y-91303225D01*
X143528287Y-91264300D01*
X143528285Y-91264300D01*
X143479145Y-91264300D01*
X143412106Y-91244615D01*
X143366351Y-91191811D01*
X143356407Y-91157946D01*
X143352207Y-91128737D01*
X143340777Y-91049235D01*
X143339696Y-91046869D01*
X143300629Y-90961324D01*
X143283379Y-90923551D01*
X143192896Y-90819128D01*
X143192893Y-90819126D01*
X143192891Y-90819124D01*
X143076661Y-90744427D01*
X143076656Y-90744425D01*
X142944087Y-90705500D01*
X142944085Y-90705500D01*
X142805915Y-90705500D01*
X142805912Y-90705500D01*
X142673343Y-90744425D01*
X142561039Y-90816599D01*
X142494000Y-90836283D01*
X142426961Y-90816599D01*
X142326598Y-90752100D01*
X142314659Y-90744427D01*
X142314657Y-90744426D01*
X142314655Y-90744425D01*
X142314656Y-90744425D01*
X142182087Y-90705500D01*
X142182085Y-90705500D01*
X142043915Y-90705500D01*
X142043912Y-90705500D01*
X141911343Y-90744425D01*
X141799039Y-90816599D01*
X141732000Y-90836283D01*
X141664961Y-90816599D01*
X141564598Y-90752100D01*
X141552659Y-90744427D01*
X141552657Y-90744426D01*
X141552655Y-90744425D01*
X141552656Y-90744425D01*
X141420087Y-90705500D01*
X141420085Y-90705500D01*
X141281915Y-90705500D01*
X141281912Y-90705500D01*
X141149343Y-90744425D01*
X141149338Y-90744427D01*
X141033108Y-90819124D01*
X141033106Y-90819126D01*
X141033104Y-90819127D01*
X141033104Y-90819128D01*
X140998458Y-90859112D01*
X140942621Y-90923551D01*
X140942620Y-90923552D01*
X140885222Y-91049234D01*
X140865559Y-91186000D01*
X127461698Y-91186000D01*
X127556883Y-91107883D01*
X127677162Y-90961324D01*
X127766537Y-90794115D01*
X127821573Y-90612683D01*
X127840157Y-90424000D01*
X127821573Y-90235317D01*
X127766537Y-90053885D01*
X127766533Y-90053877D01*
X127677165Y-89886681D01*
X127677161Y-89886674D01*
X127556883Y-89740116D01*
X127461699Y-89662000D01*
X138579559Y-89662000D01*
X138599222Y-89798765D01*
X138648904Y-89907551D01*
X138656621Y-89924449D01*
X138747104Y-90028872D01*
X138747106Y-90028873D01*
X138747108Y-90028875D01*
X138863338Y-90103572D01*
X138863343Y-90103574D01*
X138995912Y-90142499D01*
X138995914Y-90142500D01*
X138995915Y-90142500D01*
X139134086Y-90142500D01*
X139134086Y-90142499D01*
X139266659Y-90103573D01*
X139308243Y-90076849D01*
X139376107Y-90033235D01*
X139382896Y-90028872D01*
X139473379Y-89924449D01*
X139530777Y-89798765D01*
X139545798Y-89694291D01*
X139574823Y-89630736D01*
X139633601Y-89592962D01*
X139633602Y-89592962D01*
X139774656Y-89551545D01*
X139774657Y-89551544D01*
X139774659Y-89551544D01*
X139785208Y-89544765D01*
X139877690Y-89485330D01*
X139890896Y-89476843D01*
X139981379Y-89372420D01*
X140038777Y-89246736D01*
X140052401Y-89151977D01*
X140081426Y-89088423D01*
X140140202Y-89050649D01*
X140235733Y-89022599D01*
X140240699Y-89019408D01*
X140312590Y-88973206D01*
X140351970Y-88947898D01*
X140442453Y-88843475D01*
X140463038Y-88798400D01*
X141398959Y-88798400D01*
X141418622Y-88935165D01*
X141468215Y-89043756D01*
X141476021Y-89060849D01*
X141566504Y-89165272D01*
X141566506Y-89165273D01*
X141566508Y-89165275D01*
X141682738Y-89239972D01*
X141682743Y-89239974D01*
X141815312Y-89278899D01*
X141815314Y-89278900D01*
X141815315Y-89278900D01*
X141953486Y-89278900D01*
X141953486Y-89278899D01*
X142086059Y-89239973D01*
X142090667Y-89237012D01*
X142165583Y-89188866D01*
X142202296Y-89165272D01*
X142292779Y-89060849D01*
X142350177Y-88935165D01*
X142369841Y-88798400D01*
X142352648Y-88678826D01*
X142350177Y-88661634D01*
X142307030Y-88567156D01*
X142292779Y-88535951D01*
X142202296Y-88431528D01*
X142202293Y-88431526D01*
X142202291Y-88431524D01*
X142086061Y-88356827D01*
X142086056Y-88356825D01*
X141953487Y-88317900D01*
X141953485Y-88317900D01*
X141815315Y-88317900D01*
X141815312Y-88317900D01*
X141682743Y-88356825D01*
X141682738Y-88356827D01*
X141566508Y-88431524D01*
X141566506Y-88431526D01*
X141566504Y-88431527D01*
X141566504Y-88431528D01*
X141541230Y-88460696D01*
X141476021Y-88535951D01*
X141476020Y-88535952D01*
X141418622Y-88661634D01*
X141398959Y-88798400D01*
X140463038Y-88798400D01*
X140499851Y-88717791D01*
X140519515Y-88581026D01*
X140499851Y-88444261D01*
X140494034Y-88431524D01*
X140442453Y-88318578D01*
X140442453Y-88318577D01*
X140351970Y-88214154D01*
X140351967Y-88214152D01*
X140351965Y-88214150D01*
X140235735Y-88139453D01*
X140235732Y-88139452D01*
X140146371Y-88113213D01*
X140087593Y-88075438D01*
X140058568Y-88011883D01*
X140038777Y-87874234D01*
X140003973Y-87798025D01*
X139981379Y-87748551D01*
X139890896Y-87644128D01*
X139890893Y-87644126D01*
X139890891Y-87644124D01*
X139774661Y-87569427D01*
X139774656Y-87569425D01*
X139642087Y-87530500D01*
X139642085Y-87530500D01*
X139503915Y-87530500D01*
X139503912Y-87530500D01*
X139371343Y-87569425D01*
X139371338Y-87569427D01*
X139255108Y-87644124D01*
X139255106Y-87644126D01*
X139255104Y-87644127D01*
X139255104Y-87644128D01*
X139194516Y-87714050D01*
X139164621Y-87748551D01*
X139164620Y-87748552D01*
X139107222Y-87874234D01*
X139087559Y-88011000D01*
X139107222Y-88147765D01*
X139156302Y-88255234D01*
X139164621Y-88273449D01*
X139255104Y-88377872D01*
X139371341Y-88452573D01*
X139376937Y-88456169D01*
X139422692Y-88508973D01*
X139432636Y-88578132D01*
X139403611Y-88641688D01*
X139376938Y-88664800D01*
X139255106Y-88743097D01*
X139255104Y-88743098D01*
X139255104Y-88743099D01*
X139197418Y-88809672D01*
X139164621Y-88847522D01*
X139164620Y-88847523D01*
X139107222Y-88973205D01*
X139092201Y-89077679D01*
X139063175Y-89141235D01*
X139004398Y-89179008D01*
X138863341Y-89220426D01*
X138863338Y-89220427D01*
X138747108Y-89295124D01*
X138747106Y-89295126D01*
X138747104Y-89295127D01*
X138747104Y-89295128D01*
X138656621Y-89399551D01*
X138656620Y-89399552D01*
X138599222Y-89525234D01*
X138579559Y-89662000D01*
X127461699Y-89662000D01*
X127410325Y-89619838D01*
X127410318Y-89619834D01*
X127243122Y-89530466D01*
X127243119Y-89530465D01*
X127243118Y-89530464D01*
X127243115Y-89530463D01*
X127061683Y-89475427D01*
X127061681Y-89475426D01*
X127061683Y-89475426D01*
X126873000Y-89456843D01*
X126684318Y-89475426D01*
X126577194Y-89507921D01*
X126502885Y-89530463D01*
X126502882Y-89530464D01*
X126502880Y-89530465D01*
X126502877Y-89530466D01*
X126335681Y-89619834D01*
X126335674Y-89619838D01*
X126189116Y-89740116D01*
X126167053Y-89767001D01*
X126109307Y-89806335D01*
X126039462Y-89808206D01*
X125979694Y-89772018D01*
X125948978Y-89709262D01*
X125947200Y-89688336D01*
X125947200Y-89043756D01*
X136919114Y-89043756D01*
X136938777Y-89180521D01*
X136983706Y-89278900D01*
X136996176Y-89306205D01*
X137086659Y-89410628D01*
X137086661Y-89410629D01*
X137086663Y-89410631D01*
X137202893Y-89485328D01*
X137202898Y-89485330D01*
X137335467Y-89524255D01*
X137335469Y-89524256D01*
X137335470Y-89524256D01*
X137473641Y-89524256D01*
X137473641Y-89524255D01*
X137606214Y-89485329D01*
X137619419Y-89476843D01*
X137722446Y-89410631D01*
X137722445Y-89410631D01*
X137722451Y-89410628D01*
X137812934Y-89306205D01*
X137870332Y-89180521D01*
X137889996Y-89043756D01*
X137870332Y-88906991D01*
X137860002Y-88884372D01*
X137840942Y-88842635D01*
X137812934Y-88781307D01*
X137722451Y-88676884D01*
X137722448Y-88676882D01*
X137722446Y-88676880D01*
X137606216Y-88602183D01*
X137606211Y-88602181D01*
X137473642Y-88563256D01*
X137473640Y-88563256D01*
X137335470Y-88563256D01*
X137335467Y-88563256D01*
X137202898Y-88602181D01*
X137202893Y-88602183D01*
X137086663Y-88676880D01*
X137086661Y-88676882D01*
X137086659Y-88676883D01*
X137086659Y-88676884D01*
X137015616Y-88758872D01*
X136996176Y-88781307D01*
X136996175Y-88781308D01*
X136938777Y-88906990D01*
X136919114Y-89043756D01*
X125947200Y-89043756D01*
X125947200Y-88619663D01*
X125966885Y-88552624D01*
X126019689Y-88506869D01*
X126088847Y-88496925D01*
X126152403Y-88525950D01*
X126167054Y-88540999D01*
X126189117Y-88567884D01*
X126335674Y-88688161D01*
X126335681Y-88688165D01*
X126502877Y-88777533D01*
X126502878Y-88777533D01*
X126502885Y-88777537D01*
X126684317Y-88832573D01*
X126684316Y-88832573D01*
X126694470Y-88833573D01*
X126873000Y-88851157D01*
X127061683Y-88832573D01*
X127243115Y-88777537D01*
X127410324Y-88688162D01*
X127556883Y-88567883D01*
X127677162Y-88421324D01*
X127766537Y-88254115D01*
X127821573Y-88072683D01*
X127834058Y-87945918D01*
X136188753Y-87945918D01*
X136208416Y-88082683D01*
X136253021Y-88180352D01*
X136265815Y-88208367D01*
X136356298Y-88312790D01*
X136356300Y-88312791D01*
X136356302Y-88312793D01*
X136472532Y-88387490D01*
X136472537Y-88387492D01*
X136605106Y-88426417D01*
X136605108Y-88426418D01*
X136605109Y-88426418D01*
X136743280Y-88426418D01*
X136743280Y-88426417D01*
X136875853Y-88387491D01*
X136890821Y-88377872D01*
X136942363Y-88344747D01*
X136992090Y-88312790D01*
X137082573Y-88208367D01*
X137139971Y-88082683D01*
X137159635Y-87945918D01*
X137142442Y-87826344D01*
X137139971Y-87809152D01*
X137105966Y-87734692D01*
X137082573Y-87683469D01*
X136992090Y-87579046D01*
X136992087Y-87579044D01*
X136992085Y-87579042D01*
X136875855Y-87504345D01*
X136875850Y-87504343D01*
X136743281Y-87465418D01*
X136743279Y-87465418D01*
X136605109Y-87465418D01*
X136596690Y-87467890D01*
X136526821Y-87467889D01*
X136498532Y-87449708D01*
X136496233Y-87465710D01*
X136450482Y-87518517D01*
X136450476Y-87518520D01*
X136356300Y-87579044D01*
X136356298Y-87579045D01*
X136356298Y-87579046D01*
X136316992Y-87624408D01*
X136265815Y-87683469D01*
X136265814Y-87683470D01*
X136208416Y-87809152D01*
X136188753Y-87945918D01*
X127834058Y-87945918D01*
X127840157Y-87884000D01*
X127821573Y-87695317D01*
X127766537Y-87513885D01*
X127723037Y-87432502D01*
X127677165Y-87346681D01*
X127677161Y-87346674D01*
X127556883Y-87200116D01*
X127410325Y-87079838D01*
X127410318Y-87079834D01*
X127243122Y-86990466D01*
X127243119Y-86990465D01*
X127243118Y-86990464D01*
X127243115Y-86990463D01*
X127061683Y-86935427D01*
X127061681Y-86935426D01*
X127061683Y-86935426D01*
X126873000Y-86916843D01*
X126684318Y-86935426D01*
X126577194Y-86967921D01*
X126502885Y-86990463D01*
X126502882Y-86990464D01*
X126502880Y-86990465D01*
X126502877Y-86990466D01*
X126335681Y-87079834D01*
X126335674Y-87079838D01*
X126189116Y-87200116D01*
X126167053Y-87227001D01*
X126109307Y-87266335D01*
X126039462Y-87268206D01*
X125979694Y-87232018D01*
X125948978Y-87169262D01*
X125947200Y-87148336D01*
X125947200Y-86079663D01*
X125966885Y-86012624D01*
X126019689Y-85966869D01*
X126088847Y-85956925D01*
X126152403Y-85985950D01*
X126167054Y-86000999D01*
X126189117Y-86027884D01*
X126335674Y-86148161D01*
X126335681Y-86148165D01*
X126502877Y-86237533D01*
X126502878Y-86237533D01*
X126502885Y-86237537D01*
X126684317Y-86292573D01*
X126684316Y-86292573D01*
X126701233Y-86294239D01*
X126873000Y-86311157D01*
X127061683Y-86292573D01*
X127243115Y-86237537D01*
X127410324Y-86148162D01*
X127556883Y-86027883D01*
X127677162Y-85881324D01*
X127766537Y-85714115D01*
X127766800Y-85713247D01*
X128458500Y-85713247D01*
X128458500Y-86752752D01*
X128470131Y-86811229D01*
X128470132Y-86811230D01*
X128514447Y-86877552D01*
X128580769Y-86921867D01*
X128580770Y-86921868D01*
X128639247Y-86933499D01*
X128639250Y-86933500D01*
X128639252Y-86933500D01*
X129678750Y-86933500D01*
X129678751Y-86933499D01*
X129694071Y-86930452D01*
X129737229Y-86921868D01*
X129737229Y-86921867D01*
X129737231Y-86921867D01*
X129803552Y-86877552D01*
X129847867Y-86811231D01*
X129847867Y-86811229D01*
X129847868Y-86811229D01*
X129858182Y-86759375D01*
X129859500Y-86752748D01*
X129859500Y-85713252D01*
X129859500Y-85713249D01*
X129859499Y-85713247D01*
X130490500Y-85713247D01*
X130490500Y-86752752D01*
X130502131Y-86811229D01*
X130502132Y-86811230D01*
X130546447Y-86877552D01*
X130612769Y-86921867D01*
X130612770Y-86921868D01*
X130671247Y-86933499D01*
X130671250Y-86933500D01*
X130671252Y-86933500D01*
X131710750Y-86933500D01*
X131710751Y-86933499D01*
X131726071Y-86930452D01*
X131769229Y-86921868D01*
X131769229Y-86921867D01*
X131769231Y-86921867D01*
X131835552Y-86877552D01*
X131879867Y-86811231D01*
X131879867Y-86811229D01*
X131879868Y-86811229D01*
X131890182Y-86759375D01*
X131891500Y-86752748D01*
X131891500Y-85713252D01*
X131891500Y-85713249D01*
X131891499Y-85713247D01*
X132522500Y-85713247D01*
X132522500Y-86752752D01*
X132534131Y-86811229D01*
X132534132Y-86811230D01*
X132578447Y-86877552D01*
X132644769Y-86921867D01*
X132644770Y-86921868D01*
X132703247Y-86933499D01*
X132703250Y-86933500D01*
X132703252Y-86933500D01*
X133742750Y-86933500D01*
X133742751Y-86933499D01*
X133758071Y-86930452D01*
X133801229Y-86921868D01*
X133801229Y-86921867D01*
X133801231Y-86921867D01*
X133867552Y-86877552D01*
X133907879Y-86817200D01*
X135785559Y-86817200D01*
X135805222Y-86953965D01*
X135862620Y-87079647D01*
X135862621Y-87079649D01*
X135953104Y-87184072D01*
X135953106Y-87184073D01*
X135953108Y-87184075D01*
X136069338Y-87258772D01*
X136069343Y-87258774D01*
X136172220Y-87288980D01*
X136193489Y-87295226D01*
X136201912Y-87297699D01*
X136201914Y-87297700D01*
X136201915Y-87297700D01*
X136340084Y-87297700D01*
X136340085Y-87297700D01*
X136348497Y-87295229D01*
X136418364Y-87295226D01*
X136446660Y-87313409D01*
X136448963Y-87297399D01*
X136494716Y-87244597D01*
X136588896Y-87184072D01*
X136679379Y-87079649D01*
X136736777Y-86953965D01*
X136756441Y-86817200D01*
X136736777Y-86680435D01*
X136734784Y-86676072D01*
X136706437Y-86614000D01*
X136679379Y-86554751D01*
X136588896Y-86450328D01*
X136588893Y-86450326D01*
X136588891Y-86450324D01*
X136472661Y-86375627D01*
X136472656Y-86375625D01*
X136340087Y-86336700D01*
X136340085Y-86336700D01*
X136201915Y-86336700D01*
X136201912Y-86336700D01*
X136069343Y-86375625D01*
X136069338Y-86375627D01*
X135953108Y-86450324D01*
X135953106Y-86450326D01*
X135953104Y-86450327D01*
X135953104Y-86450328D01*
X135909482Y-86500671D01*
X135862621Y-86554751D01*
X135862620Y-86554752D01*
X135805222Y-86680434D01*
X135785559Y-86817200D01*
X133907879Y-86817200D01*
X133911867Y-86811231D01*
X133911867Y-86811229D01*
X133911868Y-86811229D01*
X133922182Y-86759375D01*
X133923500Y-86752748D01*
X133923500Y-85713252D01*
X133923500Y-85713249D01*
X133923499Y-85713247D01*
X133911868Y-85654770D01*
X133911867Y-85654769D01*
X133867552Y-85588447D01*
X133801230Y-85544132D01*
X133801229Y-85544131D01*
X133742752Y-85532500D01*
X133742748Y-85532500D01*
X132703252Y-85532500D01*
X132703247Y-85532500D01*
X132644770Y-85544131D01*
X132644769Y-85544132D01*
X132578447Y-85588447D01*
X132534132Y-85654769D01*
X132534131Y-85654770D01*
X132522500Y-85713247D01*
X131891499Y-85713247D01*
X131879868Y-85654770D01*
X131879867Y-85654769D01*
X131835552Y-85588447D01*
X131769230Y-85544132D01*
X131769229Y-85544131D01*
X131710752Y-85532500D01*
X131710748Y-85532500D01*
X130671252Y-85532500D01*
X130671247Y-85532500D01*
X130612770Y-85544131D01*
X130612769Y-85544132D01*
X130546447Y-85588447D01*
X130502132Y-85654769D01*
X130502131Y-85654770D01*
X130490500Y-85713247D01*
X129859499Y-85713247D01*
X129847868Y-85654770D01*
X129847867Y-85654769D01*
X129803552Y-85588447D01*
X129737230Y-85544132D01*
X129737229Y-85544131D01*
X129678752Y-85532500D01*
X129678748Y-85532500D01*
X128639252Y-85532500D01*
X128639247Y-85532500D01*
X128580770Y-85544131D01*
X128580769Y-85544132D01*
X128514447Y-85588447D01*
X128470132Y-85654769D01*
X128470131Y-85654770D01*
X128458500Y-85713247D01*
X127766800Y-85713247D01*
X127821573Y-85532683D01*
X127840157Y-85344000D01*
X127821573Y-85155317D01*
X127766537Y-84973885D01*
X127764902Y-84970826D01*
X127677165Y-84806681D01*
X127677161Y-84806674D01*
X127556883Y-84660116D01*
X127410325Y-84539838D01*
X127410318Y-84539834D01*
X127243122Y-84450466D01*
X127243119Y-84450465D01*
X127243118Y-84450464D01*
X127243115Y-84450463D01*
X127061683Y-84395427D01*
X127061681Y-84395426D01*
X127061683Y-84395426D01*
X126873000Y-84376843D01*
X126684318Y-84395426D01*
X126577194Y-84427921D01*
X126502885Y-84450463D01*
X126502882Y-84450464D01*
X126502880Y-84450465D01*
X126502877Y-84450466D01*
X126335681Y-84539834D01*
X126335674Y-84539838D01*
X126189116Y-84660116D01*
X126167053Y-84687001D01*
X126109307Y-84726335D01*
X126039462Y-84728206D01*
X125979694Y-84692018D01*
X125948978Y-84629262D01*
X125947200Y-84608336D01*
X125947200Y-82538247D01*
X126426500Y-82538247D01*
X126426500Y-83577752D01*
X126438131Y-83636229D01*
X126438132Y-83636230D01*
X126482447Y-83702552D01*
X126548769Y-83746867D01*
X126548770Y-83746868D01*
X126607247Y-83758499D01*
X126607250Y-83758500D01*
X126607252Y-83758500D01*
X127646750Y-83758500D01*
X127646751Y-83758499D01*
X127661568Y-83755552D01*
X127705229Y-83746868D01*
X127705229Y-83746867D01*
X127705231Y-83746867D01*
X127771552Y-83702552D01*
X127785788Y-83681247D01*
X128458500Y-83681247D01*
X128458500Y-84720752D01*
X128470131Y-84779229D01*
X128470132Y-84779230D01*
X128514447Y-84845552D01*
X128580769Y-84889867D01*
X128580770Y-84889868D01*
X128639247Y-84901499D01*
X128639250Y-84901500D01*
X128639252Y-84901500D01*
X129678750Y-84901500D01*
X129678751Y-84901499D01*
X129694745Y-84898318D01*
X129737229Y-84889868D01*
X129737229Y-84889867D01*
X129737231Y-84889867D01*
X129803552Y-84845552D01*
X129847867Y-84779231D01*
X129847867Y-84779229D01*
X129847868Y-84779229D01*
X129857553Y-84730535D01*
X129859500Y-84720748D01*
X129859500Y-83681252D01*
X129859500Y-83681249D01*
X129859499Y-83681247D01*
X130490500Y-83681247D01*
X130490500Y-84720752D01*
X130502131Y-84779229D01*
X130502132Y-84779230D01*
X130546447Y-84845552D01*
X130612769Y-84889867D01*
X130612770Y-84889868D01*
X130671247Y-84901499D01*
X130671250Y-84901500D01*
X130671252Y-84901500D01*
X131710750Y-84901500D01*
X131710751Y-84901499D01*
X131726745Y-84898318D01*
X131769229Y-84889868D01*
X131769229Y-84889867D01*
X131769231Y-84889867D01*
X131835552Y-84845552D01*
X131879867Y-84779231D01*
X131879867Y-84779229D01*
X131879868Y-84779229D01*
X131889553Y-84730535D01*
X131891500Y-84720748D01*
X131891500Y-83681252D01*
X131891500Y-83681249D01*
X131891499Y-83681247D01*
X132522500Y-83681247D01*
X132522500Y-84720752D01*
X132534131Y-84779229D01*
X132534132Y-84779230D01*
X132578447Y-84845552D01*
X132644769Y-84889867D01*
X132644770Y-84889868D01*
X132703247Y-84901499D01*
X132703250Y-84901500D01*
X132703252Y-84901500D01*
X133742750Y-84901500D01*
X133742751Y-84901499D01*
X133758745Y-84898318D01*
X133801229Y-84889868D01*
X133801229Y-84889867D01*
X133801231Y-84889867D01*
X133867552Y-84845552D01*
X133911867Y-84779231D01*
X133911867Y-84779229D01*
X133911868Y-84779229D01*
X133921553Y-84730535D01*
X133923500Y-84720748D01*
X133923500Y-83681252D01*
X133923500Y-83681249D01*
X133923499Y-83681247D01*
X133911868Y-83622770D01*
X133911867Y-83622769D01*
X133867552Y-83556447D01*
X133801230Y-83512132D01*
X133801229Y-83512131D01*
X133742752Y-83500500D01*
X133742748Y-83500500D01*
X132703252Y-83500500D01*
X132703247Y-83500500D01*
X132644770Y-83512131D01*
X132644769Y-83512132D01*
X132578447Y-83556447D01*
X132534132Y-83622769D01*
X132534131Y-83622770D01*
X132522500Y-83681247D01*
X131891499Y-83681247D01*
X131879868Y-83622770D01*
X131879867Y-83622769D01*
X131835552Y-83556447D01*
X131769230Y-83512132D01*
X131769229Y-83512131D01*
X131710752Y-83500500D01*
X131710748Y-83500500D01*
X130671252Y-83500500D01*
X130671247Y-83500500D01*
X130612770Y-83512131D01*
X130612769Y-83512132D01*
X130546447Y-83556447D01*
X130502132Y-83622769D01*
X130502131Y-83622770D01*
X130490500Y-83681247D01*
X129859499Y-83681247D01*
X129847868Y-83622770D01*
X129847867Y-83622769D01*
X129803552Y-83556447D01*
X129737230Y-83512132D01*
X129737229Y-83512131D01*
X129678752Y-83500500D01*
X129678748Y-83500500D01*
X128639252Y-83500500D01*
X128639247Y-83500500D01*
X128580770Y-83512131D01*
X128580769Y-83512132D01*
X128514447Y-83556447D01*
X128470132Y-83622769D01*
X128470131Y-83622770D01*
X128458500Y-83681247D01*
X127785788Y-83681247D01*
X127815867Y-83636231D01*
X127815867Y-83636229D01*
X127815868Y-83636229D01*
X127827499Y-83577752D01*
X127827500Y-83577750D01*
X127827500Y-82538249D01*
X127827499Y-82538247D01*
X127815868Y-82479770D01*
X127815867Y-82479769D01*
X127771552Y-82413447D01*
X127705230Y-82369132D01*
X127705229Y-82369131D01*
X127646752Y-82357500D01*
X127646748Y-82357500D01*
X126607252Y-82357500D01*
X126607247Y-82357500D01*
X126548770Y-82369131D01*
X126548769Y-82369132D01*
X126482447Y-82413447D01*
X126438132Y-82479769D01*
X126438131Y-82479770D01*
X126426500Y-82538247D01*
X125947200Y-82538247D01*
X125947200Y-81178400D01*
X126616159Y-81178400D01*
X126635822Y-81315165D01*
X126689362Y-81432400D01*
X126693221Y-81440849D01*
X126783704Y-81545272D01*
X126783706Y-81545273D01*
X126783708Y-81545275D01*
X126899938Y-81619972D01*
X126899943Y-81619974D01*
X127002820Y-81650180D01*
X127032392Y-81658864D01*
X127032512Y-81658899D01*
X127032514Y-81658900D01*
X127032515Y-81658900D01*
X127170686Y-81658900D01*
X127170686Y-81658899D01*
X127303259Y-81619973D01*
X127321789Y-81608065D01*
X127419491Y-81545275D01*
X127419490Y-81545275D01*
X127419496Y-81545272D01*
X127509979Y-81440849D01*
X127567377Y-81315165D01*
X127587041Y-81178400D01*
X127567377Y-81041635D01*
X127566002Y-81038625D01*
X127524230Y-80947157D01*
X127509979Y-80915951D01*
X127419496Y-80811528D01*
X127419493Y-80811526D01*
X127419491Y-80811524D01*
X127303261Y-80736827D01*
X127303256Y-80736825D01*
X127170687Y-80697900D01*
X127170685Y-80697900D01*
X127032515Y-80697900D01*
X127032512Y-80697900D01*
X126899943Y-80736825D01*
X126899938Y-80736827D01*
X126783708Y-80811524D01*
X126783706Y-80811526D01*
X126783704Y-80811527D01*
X126783704Y-80811528D01*
X126707909Y-80899000D01*
X126693221Y-80915951D01*
X126693220Y-80915952D01*
X126635822Y-81041634D01*
X126616159Y-81178400D01*
X125947200Y-81178400D01*
X125947200Y-78274500D01*
X125966885Y-78207461D01*
X126019689Y-78161706D01*
X126071200Y-78150500D01*
X154993920Y-78150500D01*
X155060959Y-78170185D01*
G37*
%TD.AperFunction*%
%TA.AperFunction,Conductor*%
G36*
X224992539Y-78170185D02*
G01*
X225038294Y-78222989D01*
X225049500Y-78274500D01*
X225049500Y-80576000D01*
X225029815Y-80643039D01*
X224977011Y-80688794D01*
X224925500Y-80700000D01*
X224800000Y-80700000D01*
X224800000Y-93900000D01*
X224925500Y-93900000D01*
X224992539Y-93919685D01*
X225038294Y-93972489D01*
X225049500Y-94024000D01*
X225049500Y-96925500D01*
X225029815Y-96992539D01*
X224977011Y-97038294D01*
X224925500Y-97049500D01*
X211862989Y-97049500D01*
X211795950Y-97029815D01*
X211750195Y-96977011D01*
X211740251Y-96907853D01*
X211769276Y-96844297D01*
X211775308Y-96837819D01*
X212754091Y-95859036D01*
X213109127Y-95504000D01*
X218716559Y-95504000D01*
X218736222Y-95640765D01*
X218789451Y-95757318D01*
X218793621Y-95766449D01*
X218884104Y-95870872D01*
X218884106Y-95870873D01*
X218884108Y-95870875D01*
X219000338Y-95945572D01*
X219000343Y-95945574D01*
X219132912Y-95984499D01*
X219132914Y-95984500D01*
X219132915Y-95984500D01*
X219271086Y-95984500D01*
X219271086Y-95984499D01*
X219403659Y-95945573D01*
X219519896Y-95870872D01*
X219610379Y-95766449D01*
X219667777Y-95640765D01*
X219687441Y-95504000D01*
X219667777Y-95367235D01*
X219610379Y-95241551D01*
X219519896Y-95137128D01*
X219519893Y-95137126D01*
X219519891Y-95137124D01*
X219403661Y-95062427D01*
X219403656Y-95062425D01*
X219271087Y-95023500D01*
X219271085Y-95023500D01*
X219132915Y-95023500D01*
X219132912Y-95023500D01*
X219000343Y-95062425D01*
X219000338Y-95062427D01*
X218884108Y-95137124D01*
X218884106Y-95137126D01*
X218884104Y-95137127D01*
X218884104Y-95137128D01*
X218850665Y-95175719D01*
X218793621Y-95241551D01*
X218793620Y-95241552D01*
X218736222Y-95367234D01*
X218716559Y-95504000D01*
X213109127Y-95504000D01*
X213772865Y-94840262D01*
X213815718Y-94766039D01*
X213837900Y-94683253D01*
X213837900Y-94597547D01*
X213837900Y-93980000D01*
X215541559Y-93980000D01*
X215561222Y-94116765D01*
X215606090Y-94215011D01*
X215618621Y-94242449D01*
X215709104Y-94346872D01*
X215709106Y-94346873D01*
X215709108Y-94346875D01*
X215825338Y-94421572D01*
X215825343Y-94421574D01*
X215957912Y-94460499D01*
X215957914Y-94460500D01*
X215957915Y-94460500D01*
X216096086Y-94460500D01*
X216096086Y-94460499D01*
X216228659Y-94421573D01*
X216344896Y-94346872D01*
X216435379Y-94242449D01*
X216492777Y-94116765D01*
X216512441Y-93980000D01*
X216492777Y-93843235D01*
X216468622Y-93790344D01*
X216451796Y-93753500D01*
X216435379Y-93717551D01*
X216344896Y-93613128D01*
X216344893Y-93613126D01*
X216344891Y-93613124D01*
X216228661Y-93538427D01*
X216228656Y-93538425D01*
X216096087Y-93499500D01*
X216096085Y-93499500D01*
X215957915Y-93499500D01*
X215957912Y-93499500D01*
X215825343Y-93538425D01*
X215825338Y-93538427D01*
X215709108Y-93613124D01*
X215709106Y-93613126D01*
X215709104Y-93613127D01*
X215709104Y-93613128D01*
X215663787Y-93665427D01*
X215618621Y-93717551D01*
X215618620Y-93717552D01*
X215561222Y-93843234D01*
X215541559Y-93980000D01*
X213837900Y-93980000D01*
X213837900Y-91300685D01*
X214525559Y-91300685D01*
X214545222Y-91437450D01*
X214602620Y-91563132D01*
X214602621Y-91563134D01*
X214651323Y-91619339D01*
X214680348Y-91682895D01*
X214670404Y-91752054D01*
X214651324Y-91781744D01*
X214602621Y-91837951D01*
X214602620Y-91837952D01*
X214545222Y-91963634D01*
X214525559Y-92100400D01*
X214545222Y-92237165D01*
X214595079Y-92346335D01*
X214602621Y-92362849D01*
X214693104Y-92467272D01*
X214693106Y-92467273D01*
X214693108Y-92467275D01*
X214809338Y-92541972D01*
X214809343Y-92541974D01*
X214941912Y-92580899D01*
X214941914Y-92580900D01*
X214941915Y-92580900D01*
X215080086Y-92580900D01*
X215080086Y-92580899D01*
X215182964Y-92550692D01*
X215212656Y-92541974D01*
X215212657Y-92541974D01*
X215212659Y-92541973D01*
X215290470Y-92491966D01*
X215357508Y-92472282D01*
X215424548Y-92491966D01*
X215470303Y-92544770D01*
X215491621Y-92591449D01*
X215582104Y-92695872D01*
X215582106Y-92695873D01*
X215582108Y-92695875D01*
X215698338Y-92770572D01*
X215698343Y-92770574D01*
X215830912Y-92809499D01*
X215830914Y-92809500D01*
X215830915Y-92809500D01*
X215969086Y-92809500D01*
X215969086Y-92809499D01*
X216085499Y-92775318D01*
X216101656Y-92770574D01*
X216101657Y-92770573D01*
X216101659Y-92770573D01*
X216217896Y-92695872D01*
X216308379Y-92591449D01*
X216365777Y-92465765D01*
X216385441Y-92329000D01*
X217903759Y-92329000D01*
X217923422Y-92465765D01*
X217959503Y-92544770D01*
X217980821Y-92591449D01*
X218071304Y-92695872D01*
X218071306Y-92695873D01*
X218071308Y-92695875D01*
X218187538Y-92770572D01*
X218187543Y-92770574D01*
X218320112Y-92809499D01*
X218320114Y-92809500D01*
X218320115Y-92809500D01*
X218458286Y-92809500D01*
X218458286Y-92809499D01*
X218574699Y-92775318D01*
X218590856Y-92770574D01*
X218590857Y-92770573D01*
X218590859Y-92770573D01*
X218611257Y-92757464D01*
X218707095Y-92695873D01*
X218713801Y-92690063D01*
X218716125Y-92692746D01*
X218760591Y-92664131D01*
X218830461Y-92664087D01*
X218875089Y-92692728D01*
X218877399Y-92690063D01*
X218884104Y-92695873D01*
X219000338Y-92770572D01*
X219000343Y-92770574D01*
X219132912Y-92809499D01*
X219132914Y-92809500D01*
X219132915Y-92809500D01*
X219271086Y-92809500D01*
X219271086Y-92809499D01*
X219387499Y-92775318D01*
X219403656Y-92770574D01*
X219403657Y-92770573D01*
X219403659Y-92770573D01*
X219424057Y-92757464D01*
X219519895Y-92695873D01*
X219526601Y-92690063D01*
X219528925Y-92692746D01*
X219573391Y-92664131D01*
X219643261Y-92664087D01*
X219687889Y-92692728D01*
X219690199Y-92690063D01*
X219696904Y-92695873D01*
X219813138Y-92770572D01*
X219813143Y-92770574D01*
X219945712Y-92809499D01*
X219945714Y-92809500D01*
X219945715Y-92809500D01*
X220083886Y-92809500D01*
X220083886Y-92809499D01*
X220200299Y-92775318D01*
X220216456Y-92770574D01*
X220216457Y-92770573D01*
X220216459Y-92770573D01*
X220332696Y-92695872D01*
X220423179Y-92591449D01*
X220480577Y-92465765D01*
X220500241Y-92329000D01*
X220480577Y-92192235D01*
X220477900Y-92186374D01*
X220443786Y-92111675D01*
X220423179Y-92066551D01*
X220332696Y-91962128D01*
X220332693Y-91962126D01*
X220332691Y-91962124D01*
X220216461Y-91887427D01*
X220216456Y-91887425D01*
X220083887Y-91848500D01*
X220083885Y-91848500D01*
X219945715Y-91848500D01*
X219945712Y-91848500D01*
X219813143Y-91887425D01*
X219813138Y-91887427D01*
X219696908Y-91962124D01*
X219690204Y-91967934D01*
X219687888Y-91965262D01*
X219643311Y-91993898D01*
X219573441Y-91993884D01*
X219528908Y-91965264D01*
X219526596Y-91967934D01*
X219519891Y-91962124D01*
X219403661Y-91887427D01*
X219403656Y-91887425D01*
X219271087Y-91848500D01*
X219271085Y-91848500D01*
X219132915Y-91848500D01*
X219132912Y-91848500D01*
X219000343Y-91887425D01*
X219000338Y-91887427D01*
X218884108Y-91962124D01*
X218877404Y-91967934D01*
X218875088Y-91965262D01*
X218830511Y-91993898D01*
X218760641Y-91993884D01*
X218716108Y-91965264D01*
X218713796Y-91967934D01*
X218707091Y-91962124D01*
X218590861Y-91887427D01*
X218590856Y-91887425D01*
X218458287Y-91848500D01*
X218458285Y-91848500D01*
X218320115Y-91848500D01*
X218320112Y-91848500D01*
X218187543Y-91887425D01*
X218187538Y-91887427D01*
X218071308Y-91962124D01*
X218071306Y-91962126D01*
X218071304Y-91962127D01*
X218071304Y-91962128D01*
X218025121Y-92015426D01*
X217980821Y-92066551D01*
X217980820Y-92066552D01*
X217923422Y-92192234D01*
X217903759Y-92329000D01*
X216385441Y-92329000D01*
X216365777Y-92192235D01*
X216363100Y-92186374D01*
X216328986Y-92111675D01*
X216308379Y-92066551D01*
X216217896Y-91962128D01*
X216217893Y-91962126D01*
X216217891Y-91962124D01*
X216101661Y-91887427D01*
X216101656Y-91887425D01*
X215969087Y-91848500D01*
X215969085Y-91848500D01*
X215830915Y-91848500D01*
X215830912Y-91848500D01*
X215698343Y-91887425D01*
X215620529Y-91937433D01*
X215553489Y-91957117D01*
X215486450Y-91937432D01*
X215440696Y-91884629D01*
X215419379Y-91837951D01*
X215370675Y-91781744D01*
X215341651Y-91718189D01*
X215351595Y-91649031D01*
X215370674Y-91619342D01*
X215419379Y-91563134D01*
X215476777Y-91437450D01*
X215496441Y-91300685D01*
X215476777Y-91163920D01*
X215460709Y-91128737D01*
X215435123Y-91072710D01*
X215419379Y-91038236D01*
X215328896Y-90933813D01*
X215328893Y-90933811D01*
X215328891Y-90933809D01*
X215212661Y-90859112D01*
X215212656Y-90859110D01*
X215080087Y-90820185D01*
X215080085Y-90820185D01*
X214941915Y-90820185D01*
X214941912Y-90820185D01*
X214809343Y-90859110D01*
X214809338Y-90859112D01*
X214693108Y-90933809D01*
X214693106Y-90933811D01*
X214602621Y-91038236D01*
X214602620Y-91038237D01*
X214545222Y-91163919D01*
X214525559Y-91300685D01*
X213837900Y-91300685D01*
X213837900Y-89306400D01*
X217700559Y-89306400D01*
X217720222Y-89443165D01*
X217769904Y-89551951D01*
X217777621Y-89568849D01*
X217868104Y-89673272D01*
X217868106Y-89673273D01*
X217868108Y-89673275D01*
X217984338Y-89747972D01*
X217984343Y-89747974D01*
X218116912Y-89786899D01*
X218116914Y-89786900D01*
X218116915Y-89786900D01*
X218255086Y-89786900D01*
X218255086Y-89786899D01*
X218387659Y-89747973D01*
X218390120Y-89746392D01*
X218497107Y-89677635D01*
X218503896Y-89673272D01*
X218594379Y-89568849D01*
X218651777Y-89443165D01*
X218671441Y-89306400D01*
X219681759Y-89306400D01*
X219701422Y-89443165D01*
X219751104Y-89551951D01*
X219758821Y-89568849D01*
X219849304Y-89673272D01*
X219849306Y-89673273D01*
X219849308Y-89673275D01*
X219965538Y-89747972D01*
X219965543Y-89747974D01*
X220098112Y-89786899D01*
X220098114Y-89786900D01*
X220098115Y-89786900D01*
X220236286Y-89786900D01*
X220236286Y-89786899D01*
X220368859Y-89747973D01*
X220371320Y-89746392D01*
X220478307Y-89677635D01*
X220485096Y-89673272D01*
X220575579Y-89568849D01*
X220632977Y-89443165D01*
X220652641Y-89306400D01*
X220632977Y-89169635D01*
X220630984Y-89165272D01*
X220595889Y-89088423D01*
X220575579Y-89043951D01*
X220485096Y-88939528D01*
X220485093Y-88939526D01*
X220485091Y-88939524D01*
X220368861Y-88864827D01*
X220368856Y-88864825D01*
X220236287Y-88825900D01*
X220236285Y-88825900D01*
X220098115Y-88825900D01*
X220098112Y-88825900D01*
X219965543Y-88864825D01*
X219965538Y-88864827D01*
X219849308Y-88939524D01*
X219849306Y-88939526D01*
X219849304Y-88939527D01*
X219849304Y-88939528D01*
X219777323Y-89022599D01*
X219758821Y-89043951D01*
X219758820Y-89043952D01*
X219701422Y-89169634D01*
X219681759Y-89306400D01*
X218671441Y-89306400D01*
X218651777Y-89169635D01*
X218649784Y-89165272D01*
X218614689Y-89088423D01*
X218594379Y-89043951D01*
X218503896Y-88939528D01*
X218503893Y-88939526D01*
X218503891Y-88939524D01*
X218387661Y-88864827D01*
X218387656Y-88864825D01*
X218255087Y-88825900D01*
X218255085Y-88825900D01*
X218116915Y-88825900D01*
X218116912Y-88825900D01*
X217984343Y-88864825D01*
X217984338Y-88864827D01*
X217868108Y-88939524D01*
X217868106Y-88939526D01*
X217868104Y-88939527D01*
X217868104Y-88939528D01*
X217796123Y-89022599D01*
X217777621Y-89043951D01*
X217777620Y-89043952D01*
X217720222Y-89169634D01*
X217700559Y-89306400D01*
X213837900Y-89306400D01*
X213837900Y-88290400D01*
X216684559Y-88290400D01*
X216704222Y-88427165D01*
X216750622Y-88528765D01*
X216761621Y-88552849D01*
X216852104Y-88657272D01*
X216852106Y-88657273D01*
X216852108Y-88657275D01*
X216968338Y-88731972D01*
X216968343Y-88731974D01*
X217100912Y-88770899D01*
X217100914Y-88770900D01*
X217100915Y-88770900D01*
X217239086Y-88770900D01*
X217239086Y-88770899D01*
X217371659Y-88731973D01*
X217390136Y-88720099D01*
X217457385Y-88676880D01*
X217487896Y-88657272D01*
X217578379Y-88552849D01*
X217635777Y-88427165D01*
X217655441Y-88290400D01*
X217648137Y-88239600D01*
X218716559Y-88239600D01*
X218736222Y-88376365D01*
X218787797Y-88489297D01*
X218793621Y-88502049D01*
X218884104Y-88606472D01*
X218884106Y-88606473D01*
X218884108Y-88606475D01*
X219000338Y-88681172D01*
X219000343Y-88681174D01*
X219082320Y-88705244D01*
X219125051Y-88717791D01*
X219132912Y-88720099D01*
X219132914Y-88720100D01*
X219132915Y-88720100D01*
X219271086Y-88720100D01*
X219271086Y-88720099D01*
X219403659Y-88681173D01*
X219422883Y-88668819D01*
X219519891Y-88606475D01*
X219519890Y-88606475D01*
X219519896Y-88606472D01*
X219610379Y-88502049D01*
X219667777Y-88376365D01*
X219680137Y-88290400D01*
X220646959Y-88290400D01*
X220666622Y-88427165D01*
X220713022Y-88528765D01*
X220724021Y-88552849D01*
X220814504Y-88657272D01*
X220814506Y-88657273D01*
X220814508Y-88657275D01*
X220930738Y-88731972D01*
X220930743Y-88731974D01*
X221063312Y-88770899D01*
X221063314Y-88770900D01*
X221063315Y-88770900D01*
X221201486Y-88770900D01*
X221201486Y-88770899D01*
X221334059Y-88731973D01*
X221352536Y-88720099D01*
X221419785Y-88676880D01*
X221450296Y-88657272D01*
X221540779Y-88552849D01*
X221598177Y-88427165D01*
X221617841Y-88290400D01*
X221599883Y-88165500D01*
X221598177Y-88153634D01*
X221562688Y-88075926D01*
X221540779Y-88027951D01*
X221450296Y-87923528D01*
X221450293Y-87923526D01*
X221450291Y-87923524D01*
X221334061Y-87848827D01*
X221334056Y-87848825D01*
X221201487Y-87809900D01*
X221201485Y-87809900D01*
X221063315Y-87809900D01*
X221063312Y-87809900D01*
X220930743Y-87848825D01*
X220930738Y-87848827D01*
X220814508Y-87923524D01*
X220814506Y-87923526D01*
X220814504Y-87923527D01*
X220814504Y-87923528D01*
X220746275Y-88002269D01*
X220724021Y-88027951D01*
X220724020Y-88027952D01*
X220666622Y-88153634D01*
X220646959Y-88290400D01*
X219680137Y-88290400D01*
X219687441Y-88239600D01*
X219667777Y-88102835D01*
X219663589Y-88093665D01*
X219635913Y-88033062D01*
X219610379Y-87977151D01*
X219519896Y-87872728D01*
X219519893Y-87872726D01*
X219519891Y-87872724D01*
X219403661Y-87798027D01*
X219403656Y-87798025D01*
X219271087Y-87759100D01*
X219271085Y-87759100D01*
X219132915Y-87759100D01*
X219132912Y-87759100D01*
X219000343Y-87798025D01*
X219000338Y-87798027D01*
X218884108Y-87872724D01*
X218884106Y-87872726D01*
X218884104Y-87872727D01*
X218884104Y-87872728D01*
X218809495Y-87958831D01*
X218793621Y-87977151D01*
X218793620Y-87977152D01*
X218736222Y-88102834D01*
X218716559Y-88239600D01*
X217648137Y-88239600D01*
X217637483Y-88165500D01*
X217635777Y-88153634D01*
X217600288Y-88075926D01*
X217578379Y-88027951D01*
X217487896Y-87923528D01*
X217487893Y-87923526D01*
X217487891Y-87923524D01*
X217371661Y-87848827D01*
X217371656Y-87848825D01*
X217239087Y-87809900D01*
X217239085Y-87809900D01*
X217100915Y-87809900D01*
X217100912Y-87809900D01*
X216968343Y-87848825D01*
X216968338Y-87848827D01*
X216852108Y-87923524D01*
X216852106Y-87923526D01*
X216852104Y-87923527D01*
X216852104Y-87923528D01*
X216783875Y-88002269D01*
X216761621Y-88027951D01*
X216761620Y-88027952D01*
X216704222Y-88153634D01*
X216684559Y-88290400D01*
X213837900Y-88290400D01*
X213837900Y-87274400D01*
X217700559Y-87274400D01*
X217720222Y-87411165D01*
X217777620Y-87536847D01*
X217777621Y-87536849D01*
X217868104Y-87641272D01*
X217868106Y-87641273D01*
X217868108Y-87641275D01*
X217984338Y-87715972D01*
X217984343Y-87715974D01*
X218116912Y-87754899D01*
X218116914Y-87754900D01*
X218116915Y-87754900D01*
X218255086Y-87754900D01*
X218255086Y-87754899D01*
X218387659Y-87715973D01*
X218390652Y-87714050D01*
X218503891Y-87641275D01*
X218503890Y-87641275D01*
X218503896Y-87641272D01*
X218594379Y-87536849D01*
X218651777Y-87411165D01*
X218671441Y-87274400D01*
X219681759Y-87274400D01*
X219701422Y-87411165D01*
X219758820Y-87536847D01*
X219758821Y-87536849D01*
X219849304Y-87641272D01*
X219849306Y-87641273D01*
X219849308Y-87641275D01*
X219965538Y-87715972D01*
X219965543Y-87715974D01*
X220098112Y-87754899D01*
X220098114Y-87754900D01*
X220098115Y-87754900D01*
X220236286Y-87754900D01*
X220236286Y-87754899D01*
X220368859Y-87715973D01*
X220371852Y-87714050D01*
X220485091Y-87641275D01*
X220485090Y-87641275D01*
X220485096Y-87641272D01*
X220575579Y-87536849D01*
X220632977Y-87411165D01*
X220652641Y-87274400D01*
X220632977Y-87137635D01*
X220627863Y-87126438D01*
X220597493Y-87059936D01*
X220575579Y-87011951D01*
X220485096Y-86907528D01*
X220485093Y-86907526D01*
X220485091Y-86907524D01*
X220368861Y-86832827D01*
X220368856Y-86832825D01*
X220236287Y-86793900D01*
X220236285Y-86793900D01*
X220098115Y-86793900D01*
X220098112Y-86793900D01*
X219965543Y-86832825D01*
X219965538Y-86832827D01*
X219849308Y-86907524D01*
X219849306Y-86907526D01*
X219849304Y-86907527D01*
X219849304Y-86907528D01*
X219777439Y-86990465D01*
X219758821Y-87011951D01*
X219758820Y-87011952D01*
X219701422Y-87137634D01*
X219681759Y-87274400D01*
X218671441Y-87274400D01*
X218651777Y-87137635D01*
X218646663Y-87126438D01*
X218616293Y-87059936D01*
X218594379Y-87011951D01*
X218503896Y-86907528D01*
X218503893Y-86907526D01*
X218503891Y-86907524D01*
X218387661Y-86832827D01*
X218387656Y-86832825D01*
X218255087Y-86793900D01*
X218255085Y-86793900D01*
X218116915Y-86793900D01*
X218116912Y-86793900D01*
X217984343Y-86832825D01*
X217984338Y-86832827D01*
X217868108Y-86907524D01*
X217868106Y-86907526D01*
X217868104Y-86907527D01*
X217868104Y-86907528D01*
X217796239Y-86990465D01*
X217777621Y-87011951D01*
X217777620Y-87011952D01*
X217720222Y-87137634D01*
X217700559Y-87274400D01*
X213837900Y-87274400D01*
X213837900Y-86997491D01*
X213857585Y-86930452D01*
X213910389Y-86884697D01*
X213979547Y-86874753D01*
X214028937Y-86893175D01*
X214064636Y-86916117D01*
X214123542Y-86953974D01*
X214215161Y-86980875D01*
X214247815Y-86990463D01*
X214256112Y-86992899D01*
X214256114Y-86992900D01*
X214256115Y-86992900D01*
X214394286Y-86992900D01*
X214394286Y-86992899D01*
X214526859Y-86953973D01*
X214526872Y-86953965D01*
X214621461Y-86893176D01*
X214643096Y-86879272D01*
X214733579Y-86774849D01*
X214790977Y-86649165D01*
X214810641Y-86512400D01*
X214790977Y-86375635D01*
X214790973Y-86375627D01*
X214760637Y-86309200D01*
X216735359Y-86309200D01*
X216755022Y-86445965D01*
X216804704Y-86554751D01*
X216812421Y-86571649D01*
X216902904Y-86676072D01*
X216902906Y-86676073D01*
X216902908Y-86676075D01*
X217019138Y-86750772D01*
X217019143Y-86750774D01*
X217151712Y-86789699D01*
X217151714Y-86789700D01*
X217151715Y-86789700D01*
X217289886Y-86789700D01*
X217289886Y-86789699D01*
X217422459Y-86750773D01*
X217422472Y-86750765D01*
X217519980Y-86688100D01*
X217538696Y-86676072D01*
X217629179Y-86571649D01*
X217686577Y-86445965D01*
X217706241Y-86309200D01*
X218716559Y-86309200D01*
X218736222Y-86445965D01*
X218785904Y-86554751D01*
X218793621Y-86571649D01*
X218884104Y-86676072D01*
X218884106Y-86676073D01*
X218884108Y-86676075D01*
X219000338Y-86750772D01*
X219000343Y-86750774D01*
X219132912Y-86789699D01*
X219132914Y-86789700D01*
X219132915Y-86789700D01*
X219271086Y-86789700D01*
X219271086Y-86789699D01*
X219403659Y-86750773D01*
X219403672Y-86750765D01*
X219501180Y-86688100D01*
X219519896Y-86676072D01*
X219610379Y-86571649D01*
X219667777Y-86445965D01*
X219687441Y-86309200D01*
X220697759Y-86309200D01*
X220717422Y-86445965D01*
X220767104Y-86554751D01*
X220774821Y-86571649D01*
X220865304Y-86676072D01*
X220865306Y-86676073D01*
X220865308Y-86676075D01*
X220981538Y-86750772D01*
X220981543Y-86750774D01*
X221114112Y-86789699D01*
X221114114Y-86789700D01*
X221114115Y-86789700D01*
X221252286Y-86789700D01*
X221252286Y-86789699D01*
X221384859Y-86750773D01*
X221384872Y-86750765D01*
X221482380Y-86688100D01*
X221501096Y-86676072D01*
X221591579Y-86571649D01*
X221648977Y-86445965D01*
X221668641Y-86309200D01*
X221648977Y-86172435D01*
X221646888Y-86167861D01*
X221599217Y-86063476D01*
X221591579Y-86046751D01*
X221501096Y-85942328D01*
X221501093Y-85942326D01*
X221501091Y-85942324D01*
X221384861Y-85867627D01*
X221384856Y-85867625D01*
X221252287Y-85828700D01*
X221252285Y-85828700D01*
X221114115Y-85828700D01*
X221114112Y-85828700D01*
X220981543Y-85867625D01*
X220981538Y-85867627D01*
X220865308Y-85942324D01*
X220865306Y-85942326D01*
X220865304Y-85942327D01*
X220865304Y-85942328D01*
X220804392Y-86012624D01*
X220774821Y-86046751D01*
X220774820Y-86046752D01*
X220717422Y-86172434D01*
X220697759Y-86309200D01*
X219687441Y-86309200D01*
X219667777Y-86172435D01*
X219665688Y-86167861D01*
X219618017Y-86063476D01*
X219610379Y-86046751D01*
X219519896Y-85942328D01*
X219519893Y-85942326D01*
X219519891Y-85942324D01*
X219403661Y-85867627D01*
X219403656Y-85867625D01*
X219271087Y-85828700D01*
X219271085Y-85828700D01*
X219132915Y-85828700D01*
X219132912Y-85828700D01*
X219000343Y-85867625D01*
X219000338Y-85867627D01*
X218884108Y-85942324D01*
X218884106Y-85942326D01*
X218884104Y-85942327D01*
X218884104Y-85942328D01*
X218823192Y-86012624D01*
X218793621Y-86046751D01*
X218793620Y-86046752D01*
X218736222Y-86172434D01*
X218716559Y-86309200D01*
X217706241Y-86309200D01*
X217686577Y-86172435D01*
X217684488Y-86167861D01*
X217636817Y-86063476D01*
X217629179Y-86046751D01*
X217538696Y-85942328D01*
X217538693Y-85942326D01*
X217538691Y-85942324D01*
X217422461Y-85867627D01*
X217422456Y-85867625D01*
X217289887Y-85828700D01*
X217289885Y-85828700D01*
X217151715Y-85828700D01*
X217151712Y-85828700D01*
X217019143Y-85867625D01*
X217019138Y-85867627D01*
X216902908Y-85942324D01*
X216902906Y-85942326D01*
X216902904Y-85942327D01*
X216902904Y-85942328D01*
X216841992Y-86012624D01*
X216812421Y-86046751D01*
X216812420Y-86046752D01*
X216755022Y-86172434D01*
X216735359Y-86309200D01*
X214760637Y-86309200D01*
X214733579Y-86249952D01*
X214733579Y-86249951D01*
X214679206Y-86187201D01*
X214650182Y-86123647D01*
X214660125Y-86054489D01*
X214679205Y-86024799D01*
X214733579Y-85962049D01*
X214790977Y-85836365D01*
X214810641Y-85699600D01*
X214793448Y-85580026D01*
X214790977Y-85562834D01*
X214752895Y-85479447D01*
X214733579Y-85437151D01*
X214679206Y-85374401D01*
X214650182Y-85310847D01*
X214652719Y-85293200D01*
X217700559Y-85293200D01*
X217720222Y-85429965D01*
X217771053Y-85541267D01*
X217777621Y-85555649D01*
X217868104Y-85660072D01*
X217868106Y-85660073D01*
X217868108Y-85660075D01*
X217984338Y-85734772D01*
X217984343Y-85734774D01*
X218087220Y-85764980D01*
X218108952Y-85771362D01*
X218116912Y-85773699D01*
X218116914Y-85773700D01*
X218116915Y-85773700D01*
X218255086Y-85773700D01*
X218255086Y-85773699D01*
X218387659Y-85734773D01*
X218399599Y-85727100D01*
X218503891Y-85660075D01*
X218503890Y-85660075D01*
X218503896Y-85660072D01*
X218594379Y-85555649D01*
X218651777Y-85429965D01*
X218671441Y-85293200D01*
X219681759Y-85293200D01*
X219701422Y-85429965D01*
X219752253Y-85541267D01*
X219758821Y-85555649D01*
X219849304Y-85660072D01*
X219849306Y-85660073D01*
X219849308Y-85660075D01*
X219965538Y-85734772D01*
X219965543Y-85734774D01*
X220068420Y-85764980D01*
X220090152Y-85771362D01*
X220098112Y-85773699D01*
X220098114Y-85773700D01*
X220098115Y-85773700D01*
X220236286Y-85773700D01*
X220236286Y-85773699D01*
X220368859Y-85734773D01*
X220380799Y-85727100D01*
X220485091Y-85660075D01*
X220485090Y-85660075D01*
X220485096Y-85660072D01*
X220575579Y-85555649D01*
X220632977Y-85429965D01*
X220652641Y-85293200D01*
X220635313Y-85172684D01*
X220632977Y-85156434D01*
X220591206Y-85064969D01*
X220575579Y-85030751D01*
X220485096Y-84926328D01*
X220485093Y-84926326D01*
X220485091Y-84926324D01*
X220368861Y-84851627D01*
X220368856Y-84851625D01*
X220236287Y-84812700D01*
X220236285Y-84812700D01*
X220098115Y-84812700D01*
X220098112Y-84812700D01*
X219965543Y-84851625D01*
X219965538Y-84851627D01*
X219849308Y-84926324D01*
X219849306Y-84926326D01*
X219849304Y-84926327D01*
X219849304Y-84926328D01*
X219786442Y-84998875D01*
X219758821Y-85030751D01*
X219758820Y-85030752D01*
X219701422Y-85156434D01*
X219681759Y-85293200D01*
X218671441Y-85293200D01*
X218654113Y-85172684D01*
X218651777Y-85156434D01*
X218610006Y-85064969D01*
X218594379Y-85030751D01*
X218503896Y-84926328D01*
X218503893Y-84926326D01*
X218503891Y-84926324D01*
X218387661Y-84851627D01*
X218387656Y-84851625D01*
X218255087Y-84812700D01*
X218255085Y-84812700D01*
X218116915Y-84812700D01*
X218116912Y-84812700D01*
X217984343Y-84851625D01*
X217984338Y-84851627D01*
X217868108Y-84926324D01*
X217868106Y-84926326D01*
X217868104Y-84926327D01*
X217868104Y-84926328D01*
X217805242Y-84998875D01*
X217777621Y-85030751D01*
X217777620Y-85030752D01*
X217720222Y-85156434D01*
X217700559Y-85293200D01*
X214652719Y-85293200D01*
X214660125Y-85241689D01*
X214679205Y-85211999D01*
X214733579Y-85149249D01*
X214790977Y-85023565D01*
X214810641Y-84886800D01*
X214790977Y-84750035D01*
X214786789Y-84740865D01*
X214738962Y-84636138D01*
X214733579Y-84624351D01*
X214643096Y-84519928D01*
X214643093Y-84519926D01*
X214643091Y-84519924D01*
X214526861Y-84445227D01*
X214526856Y-84445225D01*
X214394287Y-84406300D01*
X214394285Y-84406300D01*
X214356388Y-84406300D01*
X214289349Y-84386615D01*
X214268707Y-84369981D01*
X214255907Y-84357181D01*
X214222422Y-84295858D01*
X214227406Y-84226166D01*
X214269278Y-84170233D01*
X214334742Y-84145816D01*
X214343588Y-84145500D01*
X218635251Y-84145500D01*
X218635253Y-84145500D01*
X218718039Y-84123318D01*
X218792262Y-84080465D01*
X220275265Y-82597462D01*
X220308305Y-82540235D01*
X220318118Y-82523238D01*
X220340300Y-82440453D01*
X220340300Y-82056955D01*
X220345374Y-82021847D01*
X220356938Y-81982674D01*
X220467606Y-81607795D01*
X220467607Y-81607785D01*
X220468590Y-81603002D01*
X220477267Y-81576413D01*
X220480577Y-81569165D01*
X220487130Y-81523585D01*
X220500241Y-81432400D01*
X220480577Y-81295635D01*
X220470484Y-81273535D01*
X220445200Y-81218170D01*
X220423179Y-81169951D01*
X220332696Y-81065528D01*
X220332693Y-81065526D01*
X220332691Y-81065524D01*
X220216461Y-80990827D01*
X220216456Y-80990825D01*
X220083887Y-80951900D01*
X220083885Y-80951900D01*
X219945715Y-80951900D01*
X219945712Y-80951900D01*
X219813143Y-80990825D01*
X219813138Y-80990827D01*
X219696908Y-81065524D01*
X219690204Y-81071334D01*
X219687888Y-81068662D01*
X219643311Y-81097298D01*
X219573441Y-81097284D01*
X219528908Y-81068664D01*
X219526596Y-81071334D01*
X219519894Y-81065526D01*
X219403662Y-80990829D01*
X219403659Y-80990827D01*
X219403655Y-80990825D01*
X219403492Y-80990751D01*
X219395733Y-80986874D01*
X219018946Y-80781844D01*
X218990533Y-80760606D01*
X217369864Y-79139937D01*
X217369862Y-79139935D01*
X217322432Y-79112551D01*
X217295640Y-79097082D01*
X217231756Y-79079965D01*
X217212853Y-79074900D01*
X217212852Y-79074900D01*
X217053801Y-79074900D01*
X216986762Y-79055215D01*
X216941007Y-79002411D01*
X216931063Y-78933253D01*
X216933548Y-78915968D01*
X216944241Y-78841600D01*
X216924577Y-78704835D01*
X216921156Y-78697345D01*
X216889088Y-78627126D01*
X216867179Y-78579151D01*
X216776696Y-78474728D01*
X216776693Y-78474726D01*
X216776691Y-78474724D01*
X216660461Y-78400027D01*
X216660456Y-78400025D01*
X216638154Y-78393477D01*
X216579375Y-78355703D01*
X216550350Y-78292147D01*
X216560293Y-78222989D01*
X216606048Y-78170185D01*
X216673088Y-78150500D01*
X224925500Y-78150500D01*
X224992539Y-78170185D01*
G37*
%TD.AperFunction*%
%TA.AperFunction,Conductor*%
G36*
X203336231Y-84673185D02*
G01*
X203381986Y-84725989D01*
X203391930Y-84795147D01*
X203362905Y-84858703D01*
X203356873Y-84865181D01*
X203329726Y-84892327D01*
X203329723Y-84892331D01*
X203258538Y-84998866D01*
X203258533Y-84998875D01*
X203209499Y-85117255D01*
X203209497Y-85117261D01*
X203184500Y-85242928D01*
X203184500Y-85242931D01*
X203184500Y-86871069D01*
X203184500Y-86871071D01*
X203184499Y-86871071D01*
X203209497Y-86996738D01*
X203209499Y-86996744D01*
X203258533Y-87115124D01*
X203258538Y-87115133D01*
X203329723Y-87221668D01*
X203329726Y-87221672D01*
X203420327Y-87312273D01*
X203420331Y-87312276D01*
X203526866Y-87383461D01*
X203526872Y-87383464D01*
X203526873Y-87383465D01*
X203645256Y-87432501D01*
X203645260Y-87432501D01*
X203645261Y-87432502D01*
X203770928Y-87457500D01*
X203770931Y-87457500D01*
X203899071Y-87457500D01*
X203999593Y-87437504D01*
X204024744Y-87432501D01*
X204143127Y-87383465D01*
X204249669Y-87312276D01*
X204340276Y-87221669D01*
X204387201Y-87151440D01*
X204411460Y-87115135D01*
X204411461Y-87115132D01*
X204411465Y-87115127D01*
X204411467Y-87115120D01*
X204412933Y-87112379D01*
X204414086Y-87111204D01*
X204414850Y-87110062D01*
X204415066Y-87110206D01*
X204461890Y-87062529D01*
X204530026Y-87047061D01*
X204595708Y-87070885D01*
X204638083Y-87126438D01*
X204645236Y-87154632D01*
X204645237Y-87154637D01*
X204648670Y-87180708D01*
X204648671Y-87180712D01*
X204704137Y-87314622D01*
X204704138Y-87314624D01*
X204704139Y-87314625D01*
X204792379Y-87429621D01*
X204907375Y-87517861D01*
X204907376Y-87517861D01*
X204907377Y-87517862D01*
X204908966Y-87518520D01*
X205041291Y-87573330D01*
X205168280Y-87590048D01*
X205184999Y-87592250D01*
X205185000Y-87592250D01*
X205185001Y-87592250D01*
X205199977Y-87590278D01*
X205328709Y-87573330D01*
X205462625Y-87517861D01*
X205534513Y-87462698D01*
X205599682Y-87437504D01*
X205668127Y-87451542D01*
X205685487Y-87462699D01*
X205757373Y-87517860D01*
X205757374Y-87517860D01*
X205757375Y-87517861D01*
X205891291Y-87573330D01*
X206018280Y-87590048D01*
X206034999Y-87592250D01*
X206035000Y-87592250D01*
X206035001Y-87592250D01*
X206049977Y-87590278D01*
X206178709Y-87573330D01*
X206312625Y-87517861D01*
X206384513Y-87462698D01*
X206449682Y-87437504D01*
X206518127Y-87451542D01*
X206535487Y-87462699D01*
X206607373Y-87517860D01*
X206607374Y-87517860D01*
X206607375Y-87517861D01*
X206741291Y-87573330D01*
X206868280Y-87590048D01*
X206884999Y-87592250D01*
X206885000Y-87592250D01*
X206885001Y-87592250D01*
X206899977Y-87590278D01*
X207028709Y-87573330D01*
X207162625Y-87517861D01*
X207234513Y-87462698D01*
X207299682Y-87437504D01*
X207368127Y-87451542D01*
X207385487Y-87462699D01*
X207457373Y-87517860D01*
X207457374Y-87517860D01*
X207457375Y-87517861D01*
X207591291Y-87573330D01*
X207718280Y-87590048D01*
X207734999Y-87592250D01*
X207735000Y-87592250D01*
X207735001Y-87592250D01*
X207749977Y-87590278D01*
X207878709Y-87573330D01*
X208012625Y-87517861D01*
X208084513Y-87462698D01*
X208149682Y-87437504D01*
X208218127Y-87451542D01*
X208235487Y-87462699D01*
X208307373Y-87517860D01*
X208307374Y-87517860D01*
X208307375Y-87517861D01*
X208441291Y-87573330D01*
X208568280Y-87590048D01*
X208584999Y-87592250D01*
X208585000Y-87592250D01*
X208585001Y-87592250D01*
X208599977Y-87590278D01*
X208728709Y-87573330D01*
X208862625Y-87517861D01*
X208934513Y-87462698D01*
X208999682Y-87437504D01*
X209068127Y-87451542D01*
X209085487Y-87462699D01*
X209157373Y-87517860D01*
X209157374Y-87517860D01*
X209157375Y-87517861D01*
X209291291Y-87573330D01*
X209418280Y-87590048D01*
X209434999Y-87592250D01*
X209435000Y-87592250D01*
X209435001Y-87592250D01*
X209449977Y-87590278D01*
X209578709Y-87573330D01*
X209712625Y-87517861D01*
X209784513Y-87462698D01*
X209849682Y-87437504D01*
X209918127Y-87451542D01*
X209935487Y-87462699D01*
X210007373Y-87517860D01*
X210007374Y-87517860D01*
X210007375Y-87517861D01*
X210141291Y-87573330D01*
X210268280Y-87590048D01*
X210284999Y-87592250D01*
X210285000Y-87592250D01*
X210285001Y-87592250D01*
X210299977Y-87590278D01*
X210428709Y-87573330D01*
X210562625Y-87517861D01*
X210634513Y-87462698D01*
X210699682Y-87437504D01*
X210768127Y-87451542D01*
X210785487Y-87462699D01*
X210857373Y-87517860D01*
X210857374Y-87517860D01*
X210857375Y-87517861D01*
X210991291Y-87573330D01*
X211118280Y-87590048D01*
X211134999Y-87592250D01*
X211135000Y-87592250D01*
X211135001Y-87592250D01*
X211149977Y-87590278D01*
X211278709Y-87573330D01*
X211412625Y-87517861D01*
X211527621Y-87429621D01*
X211615861Y-87314625D01*
X211671330Y-87180709D01*
X211674762Y-87154635D01*
X211703027Y-87090740D01*
X211761351Y-87052268D01*
X211831216Y-87051435D01*
X211890440Y-87088506D01*
X211907060Y-87112369D01*
X211908533Y-87115125D01*
X211979723Y-87221668D01*
X211979726Y-87221672D01*
X212070327Y-87312273D01*
X212070331Y-87312276D01*
X212176866Y-87383461D01*
X212176872Y-87383464D01*
X212176873Y-87383465D01*
X212295256Y-87432501D01*
X212295260Y-87432501D01*
X212295261Y-87432502D01*
X212420928Y-87457500D01*
X212420931Y-87457500D01*
X212549071Y-87457500D01*
X212649593Y-87437504D01*
X212674744Y-87432501D01*
X212793127Y-87383465D01*
X212899669Y-87312276D01*
X212916719Y-87295226D01*
X212975219Y-87236727D01*
X213036542Y-87203242D01*
X213106234Y-87208226D01*
X213162167Y-87250098D01*
X213186584Y-87315562D01*
X213186900Y-87324408D01*
X213186900Y-89885026D01*
X213167215Y-89952065D01*
X213114411Y-89997820D01*
X213045253Y-90007764D01*
X212981697Y-89978739D01*
X212969188Y-89966229D01*
X212915898Y-89904730D01*
X212915891Y-89904724D01*
X212799661Y-89830027D01*
X212799656Y-89830025D01*
X212667087Y-89791100D01*
X212667085Y-89791100D01*
X212528915Y-89791100D01*
X212528912Y-89791100D01*
X212396343Y-89830025D01*
X212396338Y-89830027D01*
X212280108Y-89904724D01*
X212280106Y-89904726D01*
X212280104Y-89904727D01*
X212280104Y-89904728D01*
X212239734Y-89951318D01*
X212189621Y-90009151D01*
X212189620Y-90009152D01*
X212132222Y-90134834D01*
X212112559Y-90271600D01*
X212132222Y-90408365D01*
X212178694Y-90510122D01*
X212189621Y-90534049D01*
X212280104Y-90638472D01*
X212280106Y-90638473D01*
X212280108Y-90638475D01*
X212396338Y-90713172D01*
X212396343Y-90713174D01*
X212528912Y-90752099D01*
X212528914Y-90752100D01*
X212528915Y-90752100D01*
X212667086Y-90752100D01*
X212667086Y-90752099D01*
X212799659Y-90713173D01*
X212811599Y-90705500D01*
X212897180Y-90650500D01*
X212915896Y-90638472D01*
X212969188Y-90576968D01*
X213027965Y-90539196D01*
X213097835Y-90539196D01*
X213156613Y-90576970D01*
X213185638Y-90640526D01*
X213186900Y-90658173D01*
X213186900Y-91307426D01*
X213167215Y-91374465D01*
X213114411Y-91420220D01*
X213045253Y-91430164D01*
X212981697Y-91401139D01*
X212969188Y-91388629D01*
X212915898Y-91327130D01*
X212915891Y-91327124D01*
X212799661Y-91252427D01*
X212799656Y-91252425D01*
X212667087Y-91213500D01*
X212667085Y-91213500D01*
X212528915Y-91213500D01*
X212528912Y-91213500D01*
X212396343Y-91252425D01*
X212396338Y-91252427D01*
X212280108Y-91327124D01*
X212280106Y-91327126D01*
X212280104Y-91327127D01*
X212280104Y-91327128D01*
X212224623Y-91391157D01*
X212189621Y-91431551D01*
X212189620Y-91431552D01*
X212132222Y-91557234D01*
X212112559Y-91694000D01*
X212132222Y-91830765D01*
X212189620Y-91956447D01*
X212189621Y-91956449D01*
X212280104Y-92060872D01*
X212280106Y-92060873D01*
X212280108Y-92060875D01*
X212396338Y-92135572D01*
X212396343Y-92135574D01*
X212528912Y-92174499D01*
X212528914Y-92174500D01*
X212528915Y-92174500D01*
X212667086Y-92174500D01*
X212667086Y-92174499D01*
X212799659Y-92135573D01*
X212915896Y-92060872D01*
X212969188Y-91999368D01*
X213027965Y-91961596D01*
X213097835Y-91961596D01*
X213156613Y-91999370D01*
X213185638Y-92062926D01*
X213186900Y-92080573D01*
X213186900Y-94454211D01*
X213167215Y-94521250D01*
X213150581Y-94541892D01*
X211280292Y-96412181D01*
X211218969Y-96445666D01*
X211192611Y-96448500D01*
X202100789Y-96448500D01*
X202033750Y-96428815D01*
X201987995Y-96376011D01*
X201978051Y-96306853D01*
X202007076Y-96243297D01*
X202013108Y-96236819D01*
X202304355Y-95945572D01*
X202596865Y-95653062D01*
X202639718Y-95578839D01*
X202661900Y-95496053D01*
X202661900Y-95410347D01*
X202661900Y-95123000D01*
X207032559Y-95123000D01*
X207052222Y-95259765D01*
X207096601Y-95356939D01*
X207109621Y-95385449D01*
X207200104Y-95489872D01*
X207200106Y-95489873D01*
X207200108Y-95489875D01*
X207316338Y-95564572D01*
X207316343Y-95564574D01*
X207448912Y-95603499D01*
X207448914Y-95603500D01*
X207448915Y-95603500D01*
X207587086Y-95603500D01*
X207587086Y-95603499D01*
X207719659Y-95564573D01*
X207835896Y-95489872D01*
X207926379Y-95385449D01*
X207983777Y-95259765D01*
X208003441Y-95123000D01*
X207983777Y-94986235D01*
X207976636Y-94970599D01*
X207941670Y-94894033D01*
X207926379Y-94860551D01*
X207835896Y-94756128D01*
X207835893Y-94756126D01*
X207835891Y-94756124D01*
X207719661Y-94681427D01*
X207719656Y-94681425D01*
X207587087Y-94642500D01*
X207587085Y-94642500D01*
X207448915Y-94642500D01*
X207448912Y-94642500D01*
X207316343Y-94681425D01*
X207316338Y-94681427D01*
X207200108Y-94756124D01*
X207200106Y-94756126D01*
X207200104Y-94756127D01*
X207200104Y-94756128D01*
X207149212Y-94814861D01*
X207109621Y-94860551D01*
X207109620Y-94860552D01*
X207052222Y-94986234D01*
X207032559Y-95123000D01*
X202661900Y-95123000D01*
X202661900Y-93423472D01*
X203030467Y-93423472D01*
X203050130Y-93560237D01*
X203107528Y-93685919D01*
X203107529Y-93685921D01*
X203198012Y-93790344D01*
X203198014Y-93790345D01*
X203198016Y-93790347D01*
X203314246Y-93865044D01*
X203314251Y-93865046D01*
X203446820Y-93903971D01*
X203446822Y-93903972D01*
X203446823Y-93903972D01*
X203584994Y-93903972D01*
X203584994Y-93903971D01*
X203717567Y-93865045D01*
X203729255Y-93857534D01*
X203822143Y-93797838D01*
X203833804Y-93790344D01*
X203924287Y-93685921D01*
X203981685Y-93560237D01*
X204001349Y-93423472D01*
X203981685Y-93286707D01*
X203963710Y-93247348D01*
X203948829Y-93214763D01*
X203924287Y-93161023D01*
X203833804Y-93056600D01*
X203833801Y-93056598D01*
X203833799Y-93056596D01*
X203717569Y-92981899D01*
X203717564Y-92981897D01*
X203584995Y-92942972D01*
X203584993Y-92942972D01*
X203446823Y-92942972D01*
X203446820Y-92942972D01*
X203314251Y-92981897D01*
X203314246Y-92981899D01*
X203198016Y-93056596D01*
X203198014Y-93056598D01*
X203198012Y-93056599D01*
X203198012Y-93056600D01*
X203150259Y-93111710D01*
X203107529Y-93161023D01*
X203107528Y-93161024D01*
X203050130Y-93286706D01*
X203030467Y-93423472D01*
X202661900Y-93423472D01*
X202661900Y-91744800D01*
X208912159Y-91744800D01*
X208931822Y-91881565D01*
X208983117Y-91993884D01*
X208989221Y-92007249D01*
X209079704Y-92111672D01*
X209079706Y-92111673D01*
X209079708Y-92111675D01*
X209195938Y-92186372D01*
X209195943Y-92186374D01*
X209328512Y-92225299D01*
X209328514Y-92225300D01*
X209328515Y-92225300D01*
X209466686Y-92225300D01*
X209466686Y-92225299D01*
X209599259Y-92186373D01*
X209617736Y-92174499D01*
X209671241Y-92140113D01*
X209715496Y-92111672D01*
X209805979Y-92007249D01*
X209863377Y-91881565D01*
X209883041Y-91744800D01*
X209863377Y-91608035D01*
X209858615Y-91597608D01*
X209805979Y-91482352D01*
X209805979Y-91482351D01*
X209715496Y-91377928D01*
X209715493Y-91377926D01*
X209715491Y-91377924D01*
X209599261Y-91303227D01*
X209599256Y-91303225D01*
X209466687Y-91264300D01*
X209466685Y-91264300D01*
X209328515Y-91264300D01*
X209328512Y-91264300D01*
X209195943Y-91303225D01*
X209195938Y-91303227D01*
X209079708Y-91377924D01*
X209079706Y-91377926D01*
X209079704Y-91377927D01*
X209079704Y-91377928D01*
X209033239Y-91431552D01*
X208989221Y-91482351D01*
X208989220Y-91482352D01*
X208931822Y-91608034D01*
X208912159Y-91744800D01*
X202661900Y-91744800D01*
X202661900Y-89991010D01*
X202681585Y-89923971D01*
X202734389Y-89878216D01*
X202803547Y-89868272D01*
X202820825Y-89872030D01*
X202876915Y-89888500D01*
X203015086Y-89888500D01*
X203015086Y-89888499D01*
X203147659Y-89849573D01*
X203178077Y-89830025D01*
X203226718Y-89798765D01*
X203263896Y-89774872D01*
X203354379Y-89670449D01*
X203411777Y-89544765D01*
X203431441Y-89408000D01*
X206778559Y-89408000D01*
X206798222Y-89544765D01*
X206851762Y-89662000D01*
X206855621Y-89670449D01*
X206946104Y-89774872D01*
X206946106Y-89774873D01*
X206946108Y-89774875D01*
X207062338Y-89849572D01*
X207062343Y-89849574D01*
X207194912Y-89888499D01*
X207194914Y-89888500D01*
X207194915Y-89888500D01*
X207333086Y-89888500D01*
X207333086Y-89888499D01*
X207465659Y-89849573D01*
X207496077Y-89830025D01*
X207544718Y-89798765D01*
X207581896Y-89774872D01*
X207672379Y-89670449D01*
X207729777Y-89544765D01*
X207749441Y-89408000D01*
X207729777Y-89271235D01*
X207728811Y-89269120D01*
X207683377Y-89169634D01*
X207672379Y-89145551D01*
X207581896Y-89041128D01*
X207581893Y-89041126D01*
X207581891Y-89041124D01*
X207465661Y-88966427D01*
X207465656Y-88966425D01*
X207333087Y-88927500D01*
X207333085Y-88927500D01*
X207194915Y-88927500D01*
X207194912Y-88927500D01*
X207062343Y-88966425D01*
X207062338Y-88966427D01*
X206946108Y-89041124D01*
X206946106Y-89041126D01*
X206946104Y-89041127D01*
X206946104Y-89041128D01*
X206910539Y-89082172D01*
X206855621Y-89145551D01*
X206855620Y-89145552D01*
X206798222Y-89271234D01*
X206778559Y-89408000D01*
X203431441Y-89408000D01*
X203411777Y-89271235D01*
X203410811Y-89269120D01*
X203365377Y-89169634D01*
X203354379Y-89145551D01*
X203263896Y-89041128D01*
X203263893Y-89041126D01*
X203263891Y-89041124D01*
X203147661Y-88966427D01*
X203147656Y-88966425D01*
X203015087Y-88927500D01*
X203015085Y-88927500D01*
X202876915Y-88927500D01*
X202876912Y-88927500D01*
X202820834Y-88943966D01*
X202750965Y-88943966D01*
X202692187Y-88906191D01*
X202663162Y-88842635D01*
X202661900Y-88824989D01*
X202661900Y-87080843D01*
X202662961Y-87064656D01*
X202663900Y-87057524D01*
X202663900Y-87054316D01*
X202664665Y-87051707D01*
X202664961Y-87049466D01*
X202665310Y-87049512D01*
X202683585Y-86987277D01*
X202720859Y-86950001D01*
X202755896Y-86927485D01*
X202846379Y-86823062D01*
X202903777Y-86697378D01*
X202923441Y-86560613D01*
X202903777Y-86423848D01*
X202846379Y-86298164D01*
X202755896Y-86193741D01*
X202720858Y-86171223D01*
X202675105Y-86118419D01*
X202663900Y-86066909D01*
X202663900Y-85808885D01*
X202662961Y-85801754D01*
X202661900Y-85785567D01*
X202661900Y-84920589D01*
X202681585Y-84853550D01*
X202698219Y-84832908D01*
X202841308Y-84689819D01*
X202902631Y-84656334D01*
X202928989Y-84653500D01*
X203269192Y-84653500D01*
X203336231Y-84673185D01*
G37*
%TD.AperFunction*%
%TA.AperFunction,Conductor*%
G36*
X169036243Y-93942628D02*
G01*
X169072416Y-93967743D01*
X169919534Y-94814861D01*
X169919535Y-94814862D01*
X169980138Y-94875465D01*
X169980140Y-94875466D01*
X169980144Y-94875469D01*
X170054355Y-94918314D01*
X170054362Y-94918318D01*
X170115597Y-94934725D01*
X170175257Y-94971090D01*
X170205786Y-95033937D01*
X170197491Y-95103312D01*
X170153006Y-95157190D01*
X170086454Y-95178465D01*
X170083503Y-95178500D01*
X168314853Y-95178500D01*
X168247814Y-95158815D01*
X168202059Y-95106011D01*
X168192115Y-95036853D01*
X168194353Y-95021288D01*
X168201641Y-94970600D01*
X168184844Y-94853778D01*
X168194787Y-94784622D01*
X168240542Y-94731818D01*
X168307581Y-94712133D01*
X168325228Y-94713395D01*
X168332914Y-94714500D01*
X168332915Y-94714500D01*
X168471086Y-94714500D01*
X168471086Y-94714499D01*
X168603659Y-94675573D01*
X168719896Y-94600872D01*
X168810379Y-94496449D01*
X168867777Y-94370765D01*
X168887441Y-94234000D01*
X168867777Y-94097235D01*
X168867776Y-94097233D01*
X168865759Y-94090363D01*
X168865757Y-94020493D01*
X168903529Y-93961714D01*
X168967084Y-93932687D01*
X169036243Y-93942628D01*
G37*
%TD.AperFunction*%
%TA.AperFunction,Conductor*%
G36*
X165536822Y-79339185D02*
G01*
X165557464Y-79355819D01*
X167235710Y-81034065D01*
X167310390Y-81077181D01*
X167393684Y-81099500D01*
X167479916Y-81099500D01*
X176916012Y-81099500D01*
X176983051Y-81119185D01*
X177028806Y-81171989D01*
X177038750Y-81241147D01*
X177009725Y-81304703D01*
X177003693Y-81311181D01*
X174999537Y-83315335D01*
X174999533Y-83315341D01*
X174956682Y-83389560D01*
X174956682Y-83389561D01*
X174951891Y-83407445D01*
X174950259Y-83413535D01*
X174950258Y-83413537D01*
X174934500Y-83472347D01*
X174934500Y-87545410D01*
X174914815Y-87612449D01*
X174898181Y-87633090D01*
X174817222Y-87714050D01*
X174760268Y-87771004D01*
X174731855Y-87792241D01*
X174355048Y-87997282D01*
X174347311Y-88001149D01*
X174347141Y-88001226D01*
X174230905Y-88075926D01*
X174140421Y-88180351D01*
X174140420Y-88180352D01*
X174083022Y-88306034D01*
X174063359Y-88442800D01*
X174083022Y-88579565D01*
X174132619Y-88688165D01*
X174140421Y-88705249D01*
X174230904Y-88809672D01*
X174230906Y-88809673D01*
X174230908Y-88809675D01*
X174347138Y-88884372D01*
X174347143Y-88884374D01*
X174479712Y-88923299D01*
X174479714Y-88923300D01*
X174479715Y-88923300D01*
X174617886Y-88923300D01*
X174617886Y-88923299D01*
X174750459Y-88884373D01*
X174768936Y-88872499D01*
X174866691Y-88809675D01*
X174866690Y-88809675D01*
X174866696Y-88809672D01*
X174957179Y-88705249D01*
X174973816Y-88668816D01*
X174991359Y-88640935D01*
X174993006Y-88638959D01*
X175199356Y-88259742D01*
X175220589Y-88231336D01*
X175449652Y-88002272D01*
X175449657Y-88002269D01*
X175459860Y-87992065D01*
X175459862Y-87992065D01*
X175520465Y-87931462D01*
X175547865Y-87884002D01*
X175547867Y-87884001D01*
X175563317Y-87857241D01*
X175565572Y-87848827D01*
X175585501Y-87774453D01*
X175585501Y-87688747D01*
X175585501Y-87681152D01*
X175585500Y-87681134D01*
X175585500Y-85201735D01*
X177713467Y-85201735D01*
X177733130Y-85338500D01*
X177774970Y-85430115D01*
X177790529Y-85464184D01*
X177881012Y-85568607D01*
X177881014Y-85568608D01*
X177881016Y-85568610D01*
X177997246Y-85643307D01*
X177997251Y-85643309D01*
X178129820Y-85682234D01*
X178129822Y-85682235D01*
X178129823Y-85682235D01*
X178267994Y-85682235D01*
X178267994Y-85682234D01*
X178392492Y-85645679D01*
X178400564Y-85643309D01*
X178400565Y-85643308D01*
X178400567Y-85643308D01*
X178408155Y-85638432D01*
X178485932Y-85588447D01*
X178516804Y-85568607D01*
X178607287Y-85464184D01*
X178664685Y-85338500D01*
X178684349Y-85201735D01*
X178664685Y-85064970D01*
X178662415Y-85060000D01*
X178623088Y-84973885D01*
X178607287Y-84939286D01*
X178516804Y-84834863D01*
X178516801Y-84834861D01*
X178516799Y-84834859D01*
X178400569Y-84760162D01*
X178400564Y-84760160D01*
X178267995Y-84721235D01*
X178267993Y-84721235D01*
X178129823Y-84721235D01*
X178129820Y-84721235D01*
X177997251Y-84760160D01*
X177997246Y-84760162D01*
X177881016Y-84834859D01*
X177881014Y-84834861D01*
X177881012Y-84834862D01*
X177881012Y-84834863D01*
X177849424Y-84871318D01*
X177790529Y-84939286D01*
X177790528Y-84939287D01*
X177733130Y-85064969D01*
X177713467Y-85201735D01*
X175585500Y-85201735D01*
X175585500Y-83701388D01*
X175605185Y-83634349D01*
X175621819Y-83613707D01*
X176431526Y-82804000D01*
X184934559Y-82804000D01*
X184954222Y-82940765D01*
X185001310Y-83043872D01*
X185011621Y-83066449D01*
X185102104Y-83170872D01*
X185102106Y-83170873D01*
X185102108Y-83170875D01*
X185218338Y-83245572D01*
X185218343Y-83245574D01*
X185350912Y-83284499D01*
X185350914Y-83284500D01*
X185350915Y-83284500D01*
X185489086Y-83284500D01*
X185489086Y-83284499D01*
X185621659Y-83245573D01*
X185631573Y-83239202D01*
X185731107Y-83175235D01*
X185737896Y-83170872D01*
X185828379Y-83066449D01*
X185885777Y-82940765D01*
X185905441Y-82804000D01*
X185885777Y-82667235D01*
X185828379Y-82541551D01*
X185737896Y-82437128D01*
X185737893Y-82437126D01*
X185737891Y-82437124D01*
X185621661Y-82362427D01*
X185621656Y-82362425D01*
X185489087Y-82323500D01*
X185489085Y-82323500D01*
X185350915Y-82323500D01*
X185350912Y-82323500D01*
X185218343Y-82362425D01*
X185218338Y-82362427D01*
X185102108Y-82437124D01*
X185102106Y-82437126D01*
X185102104Y-82437127D01*
X185102104Y-82437128D01*
X185011621Y-82541551D01*
X185011620Y-82541552D01*
X184954222Y-82667234D01*
X184934559Y-82804000D01*
X176431526Y-82804000D01*
X176660018Y-82575508D01*
X177709459Y-81526066D01*
X177770780Y-81492583D01*
X177840472Y-81497567D01*
X177896405Y-81539439D01*
X177919876Y-81596101D01*
X177930525Y-81670168D01*
X177986620Y-81792997D01*
X177987924Y-81795852D01*
X178078407Y-81900275D01*
X178078409Y-81900276D01*
X178078411Y-81900278D01*
X178194641Y-81974975D01*
X178194646Y-81974977D01*
X178327215Y-82013902D01*
X178327217Y-82013903D01*
X178327218Y-82013903D01*
X178465389Y-82013903D01*
X178465389Y-82013902D01*
X178597962Y-81974976D01*
X178607456Y-81968875D01*
X178694554Y-81912900D01*
X178714199Y-81900275D01*
X178804682Y-81795852D01*
X178862080Y-81670168D01*
X178881744Y-81533403D01*
X178862080Y-81396638D01*
X178854253Y-81379500D01*
X178827887Y-81321765D01*
X178804682Y-81270954D01*
X178744154Y-81201101D01*
X178715130Y-81137548D01*
X178725073Y-81068389D01*
X178770828Y-81015585D01*
X178837867Y-80995900D01*
X187890811Y-80995900D01*
X187957850Y-81015585D01*
X188003605Y-81068389D01*
X188013549Y-81137547D01*
X187984524Y-81201103D01*
X187978492Y-81207581D01*
X186988337Y-82197735D01*
X186988335Y-82197738D01*
X186945482Y-82271960D01*
X186929578Y-82331317D01*
X186923300Y-82354745D01*
X186923300Y-87647011D01*
X186903615Y-87714050D01*
X186886981Y-87734692D01*
X186602602Y-88019070D01*
X186541279Y-88052555D01*
X186479813Y-88050315D01*
X186103396Y-87939192D01*
X186093620Y-87938034D01*
X186073284Y-87933873D01*
X185997087Y-87911500D01*
X185997085Y-87911500D01*
X185858915Y-87911500D01*
X185858912Y-87911500D01*
X185726343Y-87950425D01*
X185726338Y-87950427D01*
X185610108Y-88025124D01*
X185610106Y-88025126D01*
X185610104Y-88025127D01*
X185610104Y-88025128D01*
X185566510Y-88075438D01*
X185519621Y-88129551D01*
X185519620Y-88129552D01*
X185462222Y-88255234D01*
X185442559Y-88392000D01*
X185462222Y-88528765D01*
X185508214Y-88629471D01*
X185519621Y-88654449D01*
X185610104Y-88758872D01*
X185610106Y-88758873D01*
X185610108Y-88758875D01*
X185726338Y-88833572D01*
X185726343Y-88833574D01*
X185858912Y-88872499D01*
X185858914Y-88872500D01*
X185858915Y-88872500D01*
X185997085Y-88872500D01*
X186074385Y-88849801D01*
X186098089Y-88845288D01*
X186103396Y-88844806D01*
X186517445Y-88722573D01*
X186552553Y-88717500D01*
X186732851Y-88717500D01*
X186732853Y-88717500D01*
X186815639Y-88695318D01*
X186889862Y-88652465D01*
X187438455Y-88103869D01*
X187438460Y-88103866D01*
X187448660Y-88093665D01*
X187448662Y-88093665D01*
X187509265Y-88033062D01*
X187552118Y-87958838D01*
X187557382Y-87939193D01*
X187574301Y-87876052D01*
X187574301Y-87790347D01*
X187574301Y-87782752D01*
X187574300Y-87782734D01*
X187574300Y-85115312D01*
X196187955Y-85115312D01*
X196207618Y-85252077D01*
X196262454Y-85372149D01*
X196265017Y-85377761D01*
X196355500Y-85482184D01*
X196355502Y-85482185D01*
X196355504Y-85482187D01*
X196471734Y-85556884D01*
X196471739Y-85556886D01*
X196563647Y-85583872D01*
X196603851Y-85595677D01*
X196604308Y-85595811D01*
X196604310Y-85595812D01*
X196604311Y-85595812D01*
X196742482Y-85595812D01*
X196742482Y-85595811D01*
X196854791Y-85562835D01*
X196875052Y-85556886D01*
X196875053Y-85556885D01*
X196875055Y-85556885D01*
X196876979Y-85555649D01*
X196991287Y-85482187D01*
X196991286Y-85482187D01*
X196991292Y-85482184D01*
X197081775Y-85377761D01*
X197139173Y-85252077D01*
X197158837Y-85115312D01*
X197139173Y-84978547D01*
X197137040Y-84973877D01*
X197103986Y-84901499D01*
X197081775Y-84852863D01*
X196991292Y-84748440D01*
X196991289Y-84748438D01*
X196991287Y-84748436D01*
X196875057Y-84673739D01*
X196875052Y-84673737D01*
X196742483Y-84634812D01*
X196742481Y-84634812D01*
X196604311Y-84634812D01*
X196604308Y-84634812D01*
X196471739Y-84673737D01*
X196471734Y-84673739D01*
X196355504Y-84748436D01*
X196355502Y-84748438D01*
X196355500Y-84748439D01*
X196355500Y-84748440D01*
X196286316Y-84828283D01*
X196265017Y-84852863D01*
X196265016Y-84852864D01*
X196207618Y-84978546D01*
X196187955Y-85115312D01*
X187574300Y-85115312D01*
X187574300Y-82583789D01*
X187593985Y-82516750D01*
X187610619Y-82496108D01*
X188566508Y-81540219D01*
X188627831Y-81506734D01*
X188654189Y-81503900D01*
X203412384Y-81503900D01*
X203479423Y-81523585D01*
X203525178Y-81576389D01*
X203535122Y-81645547D01*
X203506097Y-81709103D01*
X203481275Y-81731002D01*
X203420331Y-81771723D01*
X203420327Y-81771726D01*
X203329726Y-81862327D01*
X203329723Y-81862331D01*
X203258538Y-81968866D01*
X203258533Y-81968875D01*
X203209499Y-82087255D01*
X203209497Y-82087261D01*
X203184500Y-82212928D01*
X203184500Y-82212931D01*
X203184500Y-83141069D01*
X203184500Y-83141071D01*
X203184499Y-83141071D01*
X203209497Y-83266738D01*
X203209499Y-83266744D01*
X203229627Y-83315338D01*
X203232821Y-83323047D01*
X203240290Y-83392516D01*
X203209015Y-83454995D01*
X203148927Y-83490648D01*
X203118260Y-83494500D01*
X202590065Y-83494500D01*
X202590049Y-83494499D01*
X202582453Y-83494499D01*
X202496747Y-83494499D01*
X202420915Y-83514819D01*
X202419049Y-83515318D01*
X202413960Y-83516682D01*
X202413959Y-83516682D01*
X202339744Y-83559530D01*
X202339736Y-83559536D01*
X201618737Y-84280535D01*
X201618735Y-84280538D01*
X201575880Y-84354763D01*
X201561376Y-84408898D01*
X201553700Y-84437545D01*
X201553700Y-85030248D01*
X201534015Y-85097287D01*
X201496742Y-85134562D01*
X201485105Y-85142040D01*
X201394621Y-85246465D01*
X201394620Y-85246466D01*
X201337222Y-85372148D01*
X201317559Y-85508914D01*
X201337222Y-85645679D01*
X201380973Y-85741478D01*
X201394621Y-85771363D01*
X201485104Y-85875786D01*
X201496738Y-85883262D01*
X201542492Y-85936061D01*
X201553700Y-85987578D01*
X201553700Y-94126274D01*
X201534015Y-94193313D01*
X201481211Y-94239068D01*
X201412053Y-94249012D01*
X201394766Y-94245251D01*
X201296636Y-94216438D01*
X201296634Y-94216438D01*
X201158464Y-94216438D01*
X201158461Y-94216438D01*
X201025894Y-94255363D01*
X201025891Y-94255364D01*
X201025890Y-94255365D01*
X201006516Y-94267815D01*
X200939480Y-94287500D01*
X200362884Y-94287500D01*
X200362881Y-94287500D01*
X200355756Y-94288439D01*
X200339568Y-94289500D01*
X198539039Y-94289500D01*
X198472000Y-94269815D01*
X198426245Y-94217011D01*
X198416301Y-94147853D01*
X198445326Y-94084297D01*
X198528379Y-93988449D01*
X198585777Y-93862765D01*
X198605441Y-93726000D01*
X198585777Y-93589235D01*
X198584696Y-93586869D01*
X198545629Y-93501324D01*
X198528379Y-93463551D01*
X198437896Y-93359128D01*
X198437893Y-93359126D01*
X198437891Y-93359124D01*
X198321661Y-93284427D01*
X198321656Y-93284425D01*
X198189087Y-93245500D01*
X198189085Y-93245500D01*
X198050915Y-93245500D01*
X198050912Y-93245500D01*
X197918343Y-93284425D01*
X197918338Y-93284427D01*
X197802108Y-93359124D01*
X197802106Y-93359126D01*
X197802104Y-93359127D01*
X197802104Y-93359128D01*
X197723972Y-93449297D01*
X197711621Y-93463551D01*
X197711620Y-93463552D01*
X197654222Y-93589234D01*
X197634559Y-93726000D01*
X197654222Y-93862765D01*
X197702165Y-93967743D01*
X197711621Y-93988449D01*
X197794674Y-94084297D01*
X197823699Y-94147853D01*
X197813755Y-94217011D01*
X197768000Y-94269815D01*
X197700961Y-94289500D01*
X184724432Y-94289500D01*
X184708244Y-94288439D01*
X184701118Y-94287500D01*
X184701116Y-94287500D01*
X184701113Y-94287500D01*
X183939100Y-94287500D01*
X183872061Y-94267815D01*
X183826306Y-94215011D01*
X183815100Y-94163500D01*
X183815100Y-85718415D01*
X183834785Y-85651376D01*
X183887589Y-85605621D01*
X183956747Y-85595677D01*
X184006140Y-85614100D01*
X184075342Y-85658574D01*
X184207912Y-85697499D01*
X184207914Y-85697500D01*
X184207915Y-85697500D01*
X184346086Y-85697500D01*
X184346086Y-85697499D01*
X184473544Y-85660075D01*
X184478656Y-85658574D01*
X184478657Y-85658573D01*
X184478659Y-85658573D01*
X184484579Y-85654769D01*
X184570569Y-85599506D01*
X184594896Y-85583872D01*
X184685379Y-85479449D01*
X184742777Y-85353765D01*
X184762441Y-85217000D01*
X184742777Y-85080235D01*
X184735805Y-85064969D01*
X184705617Y-84998866D01*
X184685379Y-84954551D01*
X184671998Y-84939109D01*
X184642974Y-84875554D01*
X184652917Y-84806396D01*
X184671999Y-84776704D01*
X184685379Y-84761263D01*
X184742777Y-84635579D01*
X184762441Y-84498814D01*
X184744800Y-84376117D01*
X184742777Y-84362048D01*
X184705551Y-84280535D01*
X184685379Y-84236365D01*
X184594896Y-84131942D01*
X184594893Y-84131940D01*
X184594891Y-84131938D01*
X184540441Y-84096945D01*
X184494686Y-84044141D01*
X184484742Y-83974983D01*
X184488508Y-83957678D01*
X184488774Y-83956771D01*
X184488777Y-83956765D01*
X184508441Y-83820000D01*
X184488777Y-83683235D01*
X184487871Y-83681252D01*
X184440604Y-83577752D01*
X184431379Y-83557551D01*
X184340896Y-83453128D01*
X184340893Y-83453126D01*
X184340891Y-83453124D01*
X184224661Y-83378427D01*
X184224656Y-83378425D01*
X184092087Y-83339500D01*
X184092085Y-83339500D01*
X183953915Y-83339500D01*
X183953912Y-83339500D01*
X183821343Y-83378425D01*
X183821338Y-83378427D01*
X183697643Y-83457922D01*
X183695858Y-83455145D01*
X183646897Y-83477481D01*
X183577743Y-83467510D01*
X183561502Y-83457072D01*
X183560957Y-83457922D01*
X183437261Y-83378427D01*
X183437256Y-83378425D01*
X183304687Y-83339500D01*
X183304685Y-83339500D01*
X183166515Y-83339500D01*
X183166512Y-83339500D01*
X183033943Y-83378425D01*
X183033938Y-83378427D01*
X182917708Y-83453124D01*
X182917706Y-83453126D01*
X182917704Y-83453127D01*
X182917704Y-83453128D01*
X182864248Y-83514820D01*
X182827221Y-83557551D01*
X182827220Y-83557552D01*
X182769822Y-83683234D01*
X182750159Y-83820000D01*
X182769822Y-83956765D01*
X182826314Y-84080464D01*
X182827221Y-84082449D01*
X182917704Y-84186872D01*
X182917706Y-84186873D01*
X182917708Y-84186875D01*
X183033938Y-84261572D01*
X183033943Y-84261574D01*
X183166512Y-84300499D01*
X183166514Y-84300500D01*
X183265411Y-84300500D01*
X183332450Y-84320185D01*
X183378205Y-84372989D01*
X183388149Y-84442147D01*
X183359124Y-84505703D01*
X183353092Y-84512181D01*
X183229137Y-84636135D01*
X183229133Y-84636141D01*
X183186281Y-84710362D01*
X183186280Y-84710362D01*
X183178109Y-84740863D01*
X183164100Y-84793145D01*
X183164100Y-94165500D01*
X183144415Y-94232539D01*
X183091611Y-94278294D01*
X183040100Y-94289500D01*
X172913432Y-94289500D01*
X172897244Y-94288439D01*
X172890118Y-94287500D01*
X172890116Y-94287500D01*
X172890113Y-94287500D01*
X172813900Y-94287500D01*
X172746861Y-94267815D01*
X172701106Y-94215011D01*
X172689900Y-94163500D01*
X172689900Y-85645582D01*
X172709585Y-85578543D01*
X172762389Y-85532788D01*
X172831547Y-85522844D01*
X172880938Y-85541266D01*
X172905243Y-85556886D01*
X172971562Y-85599507D01*
X173104132Y-85638432D01*
X173104134Y-85638433D01*
X173104135Y-85638433D01*
X173242306Y-85638433D01*
X173242306Y-85638432D01*
X173374879Y-85599506D01*
X173378275Y-85597324D01*
X173461041Y-85544133D01*
X173491116Y-85524805D01*
X173581599Y-85420382D01*
X173638997Y-85294698D01*
X173658661Y-85157933D01*
X173638997Y-85021168D01*
X173628815Y-84998873D01*
X173593064Y-84920589D01*
X173581599Y-84895484D01*
X173491116Y-84791061D01*
X173491113Y-84791059D01*
X173491111Y-84791057D01*
X173374881Y-84716360D01*
X173374878Y-84716359D01*
X173255988Y-84681450D01*
X173197210Y-84643676D01*
X173168185Y-84580120D01*
X173178129Y-84510962D01*
X173223884Y-84458158D01*
X173255986Y-84443496D01*
X173290165Y-84433461D01*
X173406402Y-84358760D01*
X173496885Y-84254337D01*
X173554283Y-84128653D01*
X173573947Y-83991888D01*
X173554283Y-83855123D01*
X173542702Y-83829765D01*
X173528069Y-83797724D01*
X173496885Y-83729439D01*
X173496883Y-83729437D01*
X173495199Y-83726815D01*
X173494320Y-83723824D01*
X173493201Y-83721372D01*
X173493553Y-83721210D01*
X173475516Y-83659775D01*
X173495202Y-83592736D01*
X173505801Y-83578577D01*
X173509379Y-83574449D01*
X173566777Y-83448765D01*
X173586441Y-83312000D01*
X173566777Y-83175235D01*
X173564784Y-83170872D01*
X173517096Y-83066449D01*
X173509379Y-83049551D01*
X173418896Y-82945128D01*
X173418893Y-82945126D01*
X173418891Y-82945124D01*
X173302661Y-82870427D01*
X173302656Y-82870425D01*
X173170087Y-82831500D01*
X173170085Y-82831500D01*
X173031915Y-82831500D01*
X173031912Y-82831500D01*
X172899343Y-82870425D01*
X172899338Y-82870427D01*
X172783108Y-82945124D01*
X172783106Y-82945126D01*
X172692621Y-83049551D01*
X172692618Y-83049554D01*
X172651309Y-83140011D01*
X172605555Y-83192815D01*
X172538515Y-83212500D01*
X172396912Y-83212500D01*
X172264343Y-83251425D01*
X172264338Y-83251427D01*
X172148108Y-83326124D01*
X172148106Y-83326126D01*
X172148104Y-83326127D01*
X172148104Y-83326128D01*
X172072365Y-83413535D01*
X172057621Y-83430551D01*
X172057620Y-83430552D01*
X172000222Y-83556234D01*
X171980559Y-83693000D01*
X172000222Y-83829765D01*
X172057620Y-83955447D01*
X172057621Y-83955449D01*
X172076187Y-83976875D01*
X172105212Y-84040431D01*
X172095268Y-84109589D01*
X172053040Y-84158323D01*
X172053209Y-84158518D01*
X172051859Y-84159687D01*
X172049516Y-84162392D01*
X172046505Y-84164326D01*
X171956021Y-84268751D01*
X171956020Y-84268752D01*
X171898622Y-84394434D01*
X171878959Y-84531200D01*
X171898622Y-84667965D01*
X171954837Y-84791057D01*
X171956021Y-84793649D01*
X172007331Y-84852864D01*
X172008613Y-84854343D01*
X172037638Y-84917899D01*
X172038900Y-84935546D01*
X172038900Y-94163500D01*
X172019215Y-94230539D01*
X171966411Y-94276294D01*
X171914900Y-94287500D01*
X171787884Y-94287500D01*
X171787881Y-94287500D01*
X171780756Y-94288439D01*
X171764568Y-94289500D01*
X170366189Y-94289500D01*
X170299150Y-94269815D01*
X170278508Y-94253181D01*
X165902303Y-89876976D01*
X165902301Y-89876974D01*
X165854843Y-89849574D01*
X165828079Y-89834121D01*
X165786685Y-89823030D01*
X165745292Y-89811939D01*
X165745291Y-89811939D01*
X162693197Y-89811939D01*
X162626158Y-89792254D01*
X162583839Y-89746392D01*
X162505655Y-89600120D01*
X162505651Y-89600113D01*
X162385373Y-89453555D01*
X162238815Y-89333277D01*
X162238808Y-89333273D01*
X162071612Y-89243905D01*
X162071609Y-89243904D01*
X162071608Y-89243903D01*
X162071605Y-89243902D01*
X161890173Y-89188866D01*
X161890171Y-89188865D01*
X161890173Y-89188865D01*
X161701490Y-89170282D01*
X161512807Y-89188865D01*
X161354085Y-89237012D01*
X161284218Y-89237635D01*
X161230410Y-89206032D01*
X159621817Y-87597439D01*
X160734333Y-87597439D01*
X160752916Y-87786120D01*
X160756528Y-87798027D01*
X160807953Y-87967554D01*
X160807954Y-87967557D01*
X160807955Y-87967558D01*
X160807956Y-87967561D01*
X160897324Y-88134757D01*
X160897328Y-88134764D01*
X161017606Y-88281322D01*
X161164164Y-88401600D01*
X161164171Y-88401604D01*
X161331367Y-88490972D01*
X161331368Y-88490972D01*
X161331375Y-88490976D01*
X161512807Y-88546012D01*
X161512806Y-88546012D01*
X161529723Y-88547678D01*
X161701490Y-88564596D01*
X161890173Y-88546012D01*
X162071605Y-88490976D01*
X162238814Y-88401601D01*
X162385373Y-88281322D01*
X162505652Y-88134763D01*
X162595027Y-87967554D01*
X162650063Y-87786122D01*
X162668647Y-87597439D01*
X162650063Y-87408756D01*
X162595027Y-87227324D01*
X162595023Y-87227316D01*
X162505655Y-87060120D01*
X162505651Y-87060113D01*
X162385373Y-86913555D01*
X162238815Y-86793277D01*
X162238808Y-86793273D01*
X162071612Y-86703905D01*
X162071609Y-86703904D01*
X162071608Y-86703903D01*
X162071605Y-86703902D01*
X161890173Y-86648866D01*
X161890171Y-86648865D01*
X161890173Y-86648865D01*
X161701490Y-86630282D01*
X161512808Y-86648865D01*
X161413408Y-86679018D01*
X161331375Y-86703902D01*
X161331372Y-86703903D01*
X161331370Y-86703904D01*
X161331367Y-86703905D01*
X161164171Y-86793273D01*
X161164164Y-86793277D01*
X161017606Y-86913555D01*
X160897328Y-87060113D01*
X160897324Y-87060120D01*
X160807956Y-87227316D01*
X160807955Y-87227319D01*
X160807954Y-87227321D01*
X160807953Y-87227324D01*
X160795552Y-87268206D01*
X160752916Y-87408757D01*
X160734333Y-87597439D01*
X159621817Y-87597439D01*
X157845326Y-85820948D01*
X157811841Y-85759625D01*
X157816825Y-85689933D01*
X157837154Y-85654602D01*
X157850424Y-85638433D01*
X157884162Y-85597324D01*
X157885043Y-85595677D01*
X157945705Y-85482185D01*
X157973537Y-85430115D01*
X158028573Y-85248683D01*
X158047157Y-85060000D01*
X158028573Y-84871317D01*
X157973537Y-84689885D01*
X157972168Y-84687324D01*
X157884165Y-84522681D01*
X157884161Y-84522674D01*
X157763885Y-84376119D01*
X157760071Y-84372989D01*
X157753203Y-84367352D01*
X157713870Y-84309607D01*
X157712001Y-84239762D01*
X157748188Y-84179994D01*
X157810944Y-84149278D01*
X157831870Y-84147500D01*
X160946500Y-84147500D01*
X161013539Y-84167185D01*
X161059294Y-84219989D01*
X161069238Y-84289147D01*
X161040213Y-84352703D01*
X161025164Y-84367354D01*
X161017605Y-84373556D01*
X160897328Y-84520113D01*
X160897324Y-84520120D01*
X160807956Y-84687316D01*
X160807955Y-84687319D01*
X160807954Y-84687321D01*
X160807953Y-84687324D01*
X160795552Y-84728206D01*
X160752916Y-84868757D01*
X160734333Y-85057439D01*
X160752916Y-85246120D01*
X160754723Y-85252077D01*
X160807953Y-85427554D01*
X160807954Y-85427557D01*
X160807955Y-85427558D01*
X160807956Y-85427561D01*
X160897324Y-85594757D01*
X160897328Y-85594764D01*
X161017606Y-85741322D01*
X161164164Y-85861600D01*
X161164171Y-85861604D01*
X161331367Y-85950972D01*
X161331368Y-85950972D01*
X161331375Y-85950976D01*
X161512807Y-86006012D01*
X161512806Y-86006012D01*
X161529723Y-86007678D01*
X161701490Y-86024596D01*
X161890173Y-86006012D01*
X162071605Y-85950976D01*
X162238814Y-85861601D01*
X162385373Y-85741322D01*
X162505652Y-85594763D01*
X162595027Y-85427554D01*
X162650063Y-85246122D01*
X162668647Y-85057439D01*
X162650063Y-84868756D01*
X162595027Y-84687324D01*
X162595023Y-84687316D01*
X162505655Y-84520120D01*
X162505651Y-84520113D01*
X162385372Y-84373554D01*
X162355406Y-84348961D01*
X162316072Y-84291215D01*
X162314203Y-84221370D01*
X162350391Y-84161602D01*
X162401976Y-84133335D01*
X162432410Y-84125181D01*
X162507090Y-84082065D01*
X163711065Y-82878090D01*
X163754181Y-82803410D01*
X163776500Y-82720116D01*
X163776500Y-82633884D01*
X163776500Y-81213017D01*
X163796185Y-81145978D01*
X163812819Y-81125336D01*
X164411336Y-80526819D01*
X164472659Y-80493334D01*
X164499017Y-80490500D01*
X164534086Y-80490500D01*
X164534086Y-80490499D01*
X164666659Y-80451573D01*
X164679223Y-80443499D01*
X164782891Y-80376875D01*
X164782890Y-80376875D01*
X164782896Y-80376872D01*
X164873379Y-80272449D01*
X164930777Y-80146765D01*
X164950441Y-80010000D01*
X164930777Y-79873235D01*
X164924607Y-79859725D01*
X164873379Y-79747552D01*
X164873379Y-79747551D01*
X164782896Y-79643128D01*
X164782893Y-79643126D01*
X164782891Y-79643124D01*
X164666661Y-79568427D01*
X164666656Y-79568425D01*
X164646397Y-79562477D01*
X164587619Y-79524703D01*
X164558593Y-79461148D01*
X164568536Y-79391989D01*
X164614291Y-79339185D01*
X164681330Y-79319500D01*
X165469783Y-79319500D01*
X165536822Y-79339185D01*
G37*
%TD.AperFunction*%
%TA.AperFunction,Conductor*%
G36*
X152934050Y-88983985D02*
G01*
X152954692Y-89000619D01*
X155603738Y-91649665D01*
X155677961Y-91692518D01*
X155760747Y-91714700D01*
X155846453Y-91714700D01*
X155977091Y-91714700D01*
X156044130Y-91734385D01*
X156089885Y-91787189D01*
X156099829Y-91856347D01*
X156078666Y-91909823D01*
X155982901Y-92046589D01*
X155982900Y-92046591D01*
X155889579Y-92246720D01*
X155889575Y-92246729D01*
X155832426Y-92460013D01*
X155832424Y-92460023D01*
X155813179Y-92679999D01*
X155813179Y-92680000D01*
X155832424Y-92899976D01*
X155832426Y-92899986D01*
X155889575Y-93113270D01*
X155889580Y-93113284D01*
X155982899Y-93313407D01*
X155982900Y-93313409D01*
X156085108Y-93459376D01*
X156107435Y-93525582D01*
X156090425Y-93593350D01*
X156039477Y-93641163D01*
X155983533Y-93654500D01*
X155361357Y-93654500D01*
X155326249Y-93649426D01*
X155321022Y-93647883D01*
X155248590Y-93626500D01*
X154912196Y-93527192D01*
X154902420Y-93526034D01*
X154882084Y-93521873D01*
X154805887Y-93499500D01*
X154805885Y-93499500D01*
X154667715Y-93499500D01*
X154591352Y-93521920D01*
X154567161Y-93526476D01*
X154562243Y-93526903D01*
X154562234Y-93526905D01*
X154147292Y-93647568D01*
X154112668Y-93652500D01*
X151190017Y-93652500D01*
X151122978Y-93632815D01*
X151102336Y-93616181D01*
X148821314Y-91335159D01*
X150459504Y-91335159D01*
X150479167Y-91471924D01*
X150518128Y-91557235D01*
X150536566Y-91597608D01*
X150627049Y-91702031D01*
X150627051Y-91702032D01*
X150627053Y-91702034D01*
X150743283Y-91776731D01*
X150743288Y-91776733D01*
X150875857Y-91815658D01*
X150875859Y-91815659D01*
X150875860Y-91815659D01*
X151014031Y-91815659D01*
X151014031Y-91815658D01*
X151146604Y-91776732D01*
X151147977Y-91775850D01*
X151237699Y-91718189D01*
X151262841Y-91702031D01*
X151353324Y-91597608D01*
X151410722Y-91471924D01*
X151430386Y-91335159D01*
X151410722Y-91198394D01*
X151353324Y-91072710D01*
X151262841Y-90968287D01*
X151262838Y-90968285D01*
X151262836Y-90968283D01*
X151146606Y-90893586D01*
X151146601Y-90893584D01*
X151014032Y-90854659D01*
X151014030Y-90854659D01*
X150875860Y-90854659D01*
X150875857Y-90854659D01*
X150743288Y-90893584D01*
X150743283Y-90893586D01*
X150627053Y-90968283D01*
X150627051Y-90968285D01*
X150627049Y-90968286D01*
X150627049Y-90968287D01*
X150570510Y-91033537D01*
X150536566Y-91072710D01*
X150536565Y-91072711D01*
X150479167Y-91198393D01*
X150459504Y-91335159D01*
X148821314Y-91335159D01*
X147656155Y-90170000D01*
X149374559Y-90170000D01*
X149394222Y-90306765D01*
X149440622Y-90408365D01*
X149451621Y-90432449D01*
X149542104Y-90536872D01*
X149542106Y-90536873D01*
X149542108Y-90536875D01*
X149658338Y-90611572D01*
X149658343Y-90611574D01*
X149790912Y-90650499D01*
X149790914Y-90650500D01*
X149790915Y-90650500D01*
X149929086Y-90650500D01*
X149929086Y-90650499D01*
X150057879Y-90612683D01*
X150061656Y-90611574D01*
X150061657Y-90611573D01*
X150061659Y-90611573D01*
X150177896Y-90536872D01*
X150268379Y-90432449D01*
X150325777Y-90306765D01*
X150345441Y-90170000D01*
X150325777Y-90033235D01*
X150323784Y-90028872D01*
X150276096Y-89924449D01*
X150268379Y-89907551D01*
X150177896Y-89803128D01*
X150177893Y-89803126D01*
X150177891Y-89803124D01*
X150061661Y-89728427D01*
X150061656Y-89728425D01*
X149929087Y-89689500D01*
X149929085Y-89689500D01*
X149790915Y-89689500D01*
X149790912Y-89689500D01*
X149658343Y-89728425D01*
X149658338Y-89728427D01*
X149542108Y-89803124D01*
X149542106Y-89803126D01*
X149542104Y-89803127D01*
X149542104Y-89803128D01*
X149482398Y-89872033D01*
X149451621Y-89907551D01*
X149451620Y-89907552D01*
X149394222Y-90033234D01*
X149374559Y-90170000D01*
X147656155Y-90170000D01*
X146755275Y-89269120D01*
X146721790Y-89207797D01*
X146726774Y-89138105D01*
X146768646Y-89082172D01*
X146775899Y-89077136D01*
X146875896Y-89012872D01*
X146880902Y-89007095D01*
X146939682Y-88969322D01*
X146974613Y-88964300D01*
X152867011Y-88964300D01*
X152934050Y-88983985D01*
G37*
%TD.AperFunction*%
%TA.AperFunction,Conductor*%
G36*
X216288850Y-80202785D02*
G01*
X216309492Y-80219419D01*
X216445891Y-80355818D01*
X216479376Y-80417141D01*
X216482210Y-80443499D01*
X216482210Y-80473061D01*
X216462525Y-80540100D01*
X216451923Y-80554264D01*
X216380621Y-80636550D01*
X216380620Y-80636552D01*
X216323222Y-80762234D01*
X216303559Y-80899000D01*
X216323222Y-81035765D01*
X216380620Y-81161447D01*
X216380621Y-81161449D01*
X216471104Y-81265872D01*
X216471106Y-81265873D01*
X216471108Y-81265875D01*
X216587338Y-81340572D01*
X216587343Y-81340574D01*
X216719912Y-81379499D01*
X216719914Y-81379500D01*
X216719915Y-81379500D01*
X216858086Y-81379500D01*
X216858086Y-81379499D01*
X216990659Y-81340573D01*
X217000676Y-81334136D01*
X217094972Y-81273535D01*
X217106896Y-81265872D01*
X217167069Y-81196428D01*
X217225845Y-81158654D01*
X217295715Y-81158654D01*
X217327819Y-81173314D01*
X217396962Y-81217750D01*
X217396965Y-81217751D01*
X217396964Y-81217751D01*
X217529533Y-81256676D01*
X217529535Y-81256677D01*
X217529536Y-81256677D01*
X217667707Y-81256677D01*
X217667707Y-81256676D01*
X217800280Y-81217750D01*
X217816104Y-81207581D01*
X217879978Y-81166531D01*
X217916517Y-81143049D01*
X218007000Y-81038626D01*
X218009084Y-81034063D01*
X218039685Y-80967057D01*
X218085440Y-80914253D01*
X218152479Y-80894568D01*
X218219518Y-80914253D01*
X218240160Y-80930887D01*
X218530205Y-81220932D01*
X218551443Y-81249345D01*
X218757793Y-81628560D01*
X218761785Y-81633625D01*
X218777187Y-81658864D01*
X218785648Y-81677390D01*
X218793621Y-81694849D01*
X218884104Y-81799272D01*
X218884106Y-81799273D01*
X218884108Y-81799275D01*
X219000338Y-81873972D01*
X219000343Y-81873974D01*
X219132912Y-81912899D01*
X219132914Y-81912900D01*
X219132915Y-81912900D01*
X219271086Y-81912900D01*
X219271086Y-81912899D01*
X219403659Y-81873973D01*
X219463657Y-81835414D01*
X219530691Y-81815731D01*
X219597731Y-81835415D01*
X219643487Y-81888218D01*
X219649619Y-81904622D01*
X219681880Y-82013903D01*
X219684226Y-82021847D01*
X219689300Y-82056956D01*
X219689300Y-82211411D01*
X219669615Y-82278450D01*
X219652981Y-82299092D01*
X218493892Y-83458181D01*
X218432569Y-83491666D01*
X218406211Y-83494500D01*
X214029840Y-83494500D01*
X213962801Y-83474815D01*
X213917046Y-83422011D01*
X213907102Y-83352853D01*
X213917045Y-83318989D01*
X213927377Y-83296364D01*
X213931636Y-83266744D01*
X213947041Y-83159600D01*
X213927377Y-83022835D01*
X213869979Y-82897151D01*
X213869977Y-82897149D01*
X213869976Y-82897146D01*
X213817387Y-82836455D01*
X213788362Y-82772899D01*
X213787100Y-82755253D01*
X213787100Y-82550000D01*
X216303559Y-82550000D01*
X216323222Y-82686765D01*
X216375622Y-82801503D01*
X216380621Y-82812449D01*
X216471104Y-82916872D01*
X216471106Y-82916873D01*
X216471108Y-82916875D01*
X216587338Y-82991572D01*
X216587343Y-82991574D01*
X216719912Y-83030499D01*
X216719914Y-83030500D01*
X216719915Y-83030500D01*
X216858086Y-83030500D01*
X216858086Y-83030499D01*
X216990659Y-82991573D01*
X217106896Y-82916872D01*
X217197379Y-82812449D01*
X217254777Y-82686765D01*
X217274441Y-82550000D01*
X217254966Y-82414549D01*
X217254777Y-82413234D01*
X217210295Y-82315834D01*
X217197379Y-82287551D01*
X217106896Y-82183128D01*
X217106893Y-82183126D01*
X217106891Y-82183124D01*
X216990661Y-82108427D01*
X216990656Y-82108425D01*
X216858087Y-82069500D01*
X216858085Y-82069500D01*
X216719915Y-82069500D01*
X216719912Y-82069500D01*
X216587343Y-82108425D01*
X216587338Y-82108427D01*
X216471108Y-82183124D01*
X216471106Y-82183126D01*
X216471104Y-82183127D01*
X216471104Y-82183128D01*
X216445282Y-82212928D01*
X216380621Y-82287551D01*
X216380620Y-82287552D01*
X216323222Y-82413234D01*
X216303559Y-82550000D01*
X213787100Y-82550000D01*
X213787100Y-81491149D01*
X213787100Y-81491147D01*
X213764918Y-81408362D01*
X213725781Y-81340574D01*
X213722069Y-81334144D01*
X213722063Y-81334136D01*
X213305864Y-80917937D01*
X213305862Y-80917935D01*
X213268750Y-80896508D01*
X213231640Y-80875082D01*
X213176239Y-80860238D01*
X213148853Y-80852900D01*
X213148852Y-80852900D01*
X211955989Y-80852900D01*
X211888950Y-80833215D01*
X211843195Y-80780411D01*
X211833251Y-80711253D01*
X211862276Y-80647697D01*
X211868308Y-80641219D01*
X212290107Y-80219419D01*
X212351430Y-80185934D01*
X212377788Y-80183100D01*
X216221811Y-80183100D01*
X216288850Y-80202785D01*
G37*
%TD.AperFunction*%
%TA.AperFunction,Conductor*%
G36*
X163040833Y-81110834D02*
G01*
X163096767Y-81152705D01*
X163121184Y-81218170D01*
X163121500Y-81227016D01*
X163121500Y-82017186D01*
X163101815Y-82084225D01*
X163049011Y-82129980D01*
X162979853Y-82139924D01*
X162916297Y-82110899D01*
X162885118Y-82069591D01*
X162798586Y-81884025D01*
X162753231Y-81819250D01*
X162753230Y-81819249D01*
X162082490Y-82489989D01*
X162082490Y-82467279D01*
X162056526Y-82370378D01*
X162006366Y-82283499D01*
X161935430Y-82212563D01*
X161848551Y-82162403D01*
X161751650Y-82136439D01*
X161728937Y-82136439D01*
X162221557Y-81643819D01*
X162282880Y-81610334D01*
X162309238Y-81607500D01*
X162349114Y-81607500D01*
X162349116Y-81607500D01*
X162432410Y-81585181D01*
X162507090Y-81542065D01*
X162909819Y-81139334D01*
X162971142Y-81105850D01*
X163040833Y-81110834D01*
G37*
%TD.AperFunction*%
%TA.AperFunction,Conductor*%
G36*
X170419321Y-78170185D02*
G01*
X170465076Y-78222989D01*
X170475020Y-78292147D01*
X170454496Y-78434895D01*
X170474159Y-78571661D01*
X170531557Y-78697343D01*
X170531558Y-78697345D01*
X170622041Y-78801768D01*
X170622043Y-78801769D01*
X170622045Y-78801771D01*
X170738275Y-78876468D01*
X170738280Y-78876470D01*
X170841157Y-78906676D01*
X170869040Y-78914864D01*
X170870849Y-78915395D01*
X170870851Y-78915396D01*
X170870852Y-78915396D01*
X171009023Y-78915396D01*
X171009023Y-78915395D01*
X171141596Y-78876469D01*
X171142423Y-78875938D01*
X171250571Y-78806435D01*
X171257833Y-78801768D01*
X171348316Y-78697345D01*
X171405714Y-78571661D01*
X171425378Y-78434896D01*
X171408475Y-78317335D01*
X171404854Y-78292147D01*
X171414798Y-78222988D01*
X171460553Y-78170184D01*
X171527592Y-78150500D01*
X172506861Y-78150500D01*
X172573900Y-78170185D01*
X172619655Y-78222989D01*
X172629599Y-78292147D01*
X172600574Y-78355703D01*
X172573900Y-78378816D01*
X172503705Y-78423927D01*
X172503704Y-78423927D01*
X172503704Y-78423928D01*
X172426089Y-78513500D01*
X172413221Y-78528351D01*
X172413220Y-78528352D01*
X172355822Y-78654034D01*
X172336159Y-78790800D01*
X172355822Y-78927565D01*
X172402222Y-79029165D01*
X172413221Y-79053249D01*
X172503704Y-79157672D01*
X172503706Y-79157673D01*
X172503708Y-79157675D01*
X172619938Y-79232372D01*
X172619943Y-79232374D01*
X172701807Y-79256411D01*
X172731641Y-79265171D01*
X172752512Y-79271299D01*
X172752514Y-79271300D01*
X172752515Y-79271300D01*
X172890686Y-79271300D01*
X172890686Y-79271299D01*
X173023259Y-79232373D01*
X173064843Y-79205649D01*
X173089769Y-79189629D01*
X173139496Y-79157672D01*
X173229979Y-79053249D01*
X173287377Y-78927565D01*
X173307041Y-78790800D01*
X173287377Y-78654035D01*
X173273096Y-78622765D01*
X173251888Y-78576326D01*
X173229979Y-78528351D01*
X173139496Y-78423928D01*
X173069299Y-78378815D01*
X173023545Y-78326012D01*
X173013601Y-78256853D01*
X173042626Y-78193297D01*
X173101404Y-78155523D01*
X173136339Y-78150500D01*
X186969386Y-78150500D01*
X187036425Y-78170185D01*
X187082180Y-78222989D01*
X187092124Y-78292147D01*
X187088363Y-78309434D01*
X187086044Y-78317330D01*
X187066380Y-78454100D01*
X187086043Y-78590865D01*
X187127094Y-78680752D01*
X187143442Y-78716549D01*
X187233925Y-78820972D01*
X187233927Y-78820973D01*
X187233929Y-78820975D01*
X187350159Y-78895672D01*
X187350164Y-78895674D01*
X187453041Y-78925880D01*
X187478734Y-78933425D01*
X187482733Y-78934599D01*
X187482735Y-78934600D01*
X187482736Y-78934600D01*
X187620907Y-78934600D01*
X187620907Y-78934599D01*
X187753480Y-78895673D01*
X187755306Y-78894500D01*
X187869712Y-78820975D01*
X187869711Y-78820975D01*
X187869717Y-78820972D01*
X187960200Y-78716549D01*
X188017598Y-78590865D01*
X188037262Y-78454100D01*
X188017598Y-78317335D01*
X188017597Y-78317334D01*
X188017597Y-78317330D01*
X188015279Y-78309434D01*
X188015279Y-78239564D01*
X188053054Y-78180787D01*
X188116610Y-78151762D01*
X188134256Y-78150500D01*
X200404019Y-78150500D01*
X200471058Y-78170185D01*
X200516813Y-78222989D01*
X200526757Y-78292147D01*
X200506309Y-78434365D01*
X200525972Y-78571130D01*
X200552836Y-78629952D01*
X200583371Y-78696814D01*
X200673854Y-78801237D01*
X200673856Y-78801238D01*
X200673858Y-78801240D01*
X200790088Y-78875937D01*
X200790093Y-78875939D01*
X200922662Y-78914864D01*
X200922664Y-78914865D01*
X200922665Y-78914865D01*
X201060836Y-78914865D01*
X201060836Y-78914864D01*
X201163714Y-78884657D01*
X201193406Y-78875939D01*
X201193407Y-78875938D01*
X201193409Y-78875938D01*
X201203121Y-78869697D01*
X201278938Y-78820972D01*
X201309646Y-78801237D01*
X201400129Y-78696814D01*
X201457527Y-78571130D01*
X201477191Y-78434365D01*
X201457527Y-78297600D01*
X201457526Y-78297599D01*
X201456743Y-78292147D01*
X201466687Y-78222989D01*
X201512442Y-78170185D01*
X201579481Y-78150500D01*
X202680912Y-78150500D01*
X202747951Y-78170185D01*
X202793706Y-78222989D01*
X202803650Y-78292147D01*
X202774625Y-78355703D01*
X202715847Y-78393477D01*
X202715846Y-78393477D01*
X202693543Y-78400025D01*
X202693538Y-78400027D01*
X202577308Y-78474724D01*
X202577306Y-78474726D01*
X202577304Y-78474727D01*
X202577304Y-78474728D01*
X202493771Y-78571130D01*
X202486821Y-78579151D01*
X202486820Y-78579152D01*
X202429422Y-78704834D01*
X202409759Y-78841600D01*
X202429422Y-78978365D01*
X202486820Y-79104047D01*
X202486823Y-79104053D01*
X202503846Y-79123698D01*
X202532871Y-79187254D01*
X202522927Y-79256412D01*
X202477172Y-79309216D01*
X202410133Y-79328900D01*
X189955040Y-79328900D01*
X189888001Y-79309215D01*
X189842246Y-79256411D01*
X189832302Y-79187253D01*
X189842246Y-79153388D01*
X189848390Y-79139936D01*
X189898977Y-79029165D01*
X189918641Y-78892400D01*
X189898977Y-78755635D01*
X189895695Y-78748449D01*
X189841579Y-78629952D01*
X189841579Y-78629951D01*
X189751096Y-78525528D01*
X189751093Y-78525526D01*
X189751091Y-78525524D01*
X189634861Y-78450827D01*
X189634856Y-78450825D01*
X189502287Y-78411900D01*
X189502285Y-78411900D01*
X189364115Y-78411900D01*
X189364112Y-78411900D01*
X189231543Y-78450825D01*
X189231538Y-78450827D01*
X189115308Y-78525524D01*
X189115306Y-78525526D01*
X189115304Y-78525527D01*
X189115304Y-78525528D01*
X189068839Y-78579152D01*
X189024821Y-78629951D01*
X189024820Y-78629952D01*
X188967422Y-78755634D01*
X188947759Y-78892400D01*
X188967422Y-79029165D01*
X189009338Y-79120947D01*
X189018010Y-79139936D01*
X189024154Y-79153388D01*
X189034098Y-79222546D01*
X189005073Y-79286102D01*
X188946295Y-79323877D01*
X188911360Y-79328900D01*
X177553947Y-79328900D01*
X177471159Y-79351082D01*
X177396938Y-79393935D01*
X177396935Y-79393937D01*
X176977592Y-79813281D01*
X176916269Y-79846766D01*
X176889911Y-79849600D01*
X167915089Y-79849600D01*
X167848050Y-79829915D01*
X167827408Y-79813281D01*
X166376308Y-78362181D01*
X166342823Y-78300858D01*
X166347807Y-78231166D01*
X166389679Y-78175233D01*
X166455143Y-78150816D01*
X166463989Y-78150500D01*
X170352282Y-78150500D01*
X170419321Y-78170185D01*
G37*
%TD.AperFunction*%
%TA.AperFunction,Conductor*%
G36*
X214129073Y-78170185D02*
G01*
X214174828Y-78222989D01*
X214184772Y-78292147D01*
X214174829Y-78326011D01*
X214164222Y-78349235D01*
X214144559Y-78486000D01*
X214164222Y-78622765D01*
X214213904Y-78731551D01*
X214221621Y-78748449D01*
X214312104Y-78852872D01*
X214312106Y-78852873D01*
X214317086Y-78857189D01*
X214354859Y-78915968D01*
X214354857Y-78985838D01*
X214317081Y-79044615D01*
X214253525Y-79073638D01*
X214235881Y-79074900D01*
X212038865Y-79074900D01*
X212038849Y-79074899D01*
X212031253Y-79074899D01*
X211945548Y-79074899D01*
X211905415Y-79085653D01*
X211862760Y-79097082D01*
X211862755Y-79097085D01*
X211788544Y-79139930D01*
X211788536Y-79139936D01*
X211743970Y-79184503D01*
X211727935Y-79200538D01*
X211727933Y-79200540D01*
X211672062Y-79256411D01*
X211517069Y-79411403D01*
X211455746Y-79444887D01*
X211386054Y-79439903D01*
X211330121Y-79398031D01*
X211316593Y-79375230D01*
X211314020Y-79369596D01*
X211314019Y-79369595D01*
X211314019Y-79369594D01*
X211223536Y-79265171D01*
X211223533Y-79265169D01*
X211223531Y-79265167D01*
X211107301Y-79190470D01*
X211107296Y-79190468D01*
X210974727Y-79151543D01*
X210974725Y-79151543D01*
X210836555Y-79151543D01*
X210836552Y-79151543D01*
X210703983Y-79190468D01*
X210703978Y-79190470D01*
X210587746Y-79265168D01*
X210582434Y-79271299D01*
X210569607Y-79286102D01*
X210510831Y-79323876D01*
X210475894Y-79328900D01*
X203380267Y-79328900D01*
X203313228Y-79309215D01*
X203267473Y-79256411D01*
X203257529Y-79187253D01*
X203286554Y-79123698D01*
X203303576Y-79104053D01*
X203303576Y-79104051D01*
X203303579Y-79104049D01*
X203360977Y-78978365D01*
X203380641Y-78841600D01*
X203360977Y-78704835D01*
X203357556Y-78697345D01*
X203325488Y-78627126D01*
X203303579Y-78579151D01*
X203213096Y-78474728D01*
X203213093Y-78474726D01*
X203213091Y-78474724D01*
X203096861Y-78400027D01*
X203096856Y-78400025D01*
X203074554Y-78393477D01*
X203015775Y-78355703D01*
X202986750Y-78292147D01*
X202996693Y-78222989D01*
X203042448Y-78170185D01*
X203109488Y-78150500D01*
X214062034Y-78150500D01*
X214129073Y-78170185D01*
G37*
%TD.AperFunction*%
%TD*%
M02*
