%TF.GenerationSoftware,KiCad,Pcbnew,8.0.3*%
%TF.CreationDate,2024-06-20T21:51:27+02:00*%
%TF.ProjectId,KIA-OBD2-DISPLAY,4b49412d-4f42-4443-922d-444953504c41,rev?*%
%TF.SameCoordinates,Original*%
%TF.FileFunction,Copper,L4,Bot*%
%TF.FilePolarity,Positive*%
%FSLAX46Y46*%
G04 Gerber Fmt 4.6, Leading zero omitted, Abs format (unit mm)*
G04 Created by KiCad (PCBNEW 8.0.3) date 2024-06-20 21:51:27*
%MOMM*%
%LPD*%
G01*
G04 APERTURE LIST*
%TA.AperFunction,ComponentPad*%
%ADD10C,1.524000*%
%TD*%
%TA.AperFunction,ComponentPad*%
%ADD11R,1.000000X1.000000*%
%TD*%
%TA.AperFunction,ComponentPad*%
%ADD12C,0.700000*%
%TD*%
%TA.AperFunction,ComponentPad*%
%ADD13O,0.900000X2.400000*%
%TD*%
%TA.AperFunction,ComponentPad*%
%ADD14O,0.900000X1.700000*%
%TD*%
%TA.AperFunction,SMDPad,CuDef*%
%ADD15R,1.000000X1.000000*%
%TD*%
%TA.AperFunction,SMDPad,CuDef*%
%ADD16R,1.200000X1.200000*%
%TD*%
%TA.AperFunction,ViaPad*%
%ADD17C,0.560000*%
%TD*%
%TA.AperFunction,Conductor*%
%ADD18C,0.250000*%
%TD*%
%TA.AperFunction,Conductor*%
%ADD19C,0.254000*%
%TD*%
G04 APERTURE END LIST*
D10*
%TO.P,U8,1,VOUT*%
%TO.N,+3.3V*%
X126873000Y-95504000D03*
%TO.P,U8,2,GND*%
%TO.N,GND*%
X126873000Y-92964000D03*
%TO.P,U8,3,VIN*%
%TO.N,+12V*%
X126873000Y-90424000D03*
%TO.P,U8,4,SHDN*%
%TO.N,unconnected-(U8-SHDN-Pad4)*%
X126873000Y-87884000D03*
%TO.P,U8,5,PG*%
%TO.N,unconnected-(U8-PG-Pad5)*%
X126873000Y-85344000D03*
%TD*%
D11*
%TO.P,J14,1,Pin_1*%
%TO.N,/OBD2 CAN H*%
X131191000Y-86233000D03*
%TD*%
%TO.P,J12,1,Pin_1*%
%TO.N,Net-(J12-Pin_1)*%
X129159000Y-86233000D03*
%TD*%
D10*
%TO.P,U2,1,GND*%
%TO.N,GND*%
X161701490Y-79977439D03*
%TO.P,U2,2,+5V*%
%TO.N,+3.3V*%
X161701490Y-82517439D03*
%TO.P,U2,3,SCLK*%
%TO.N,/SCLK*%
X161701490Y-85057439D03*
%TO.P,U2,4,MOSI*%
%TO.N,/MOSI*%
X161701490Y-87597439D03*
%TO.P,U2,5,RES*%
%TO.N,/REST*%
X161701490Y-90137439D03*
%TO.P,U2,6,DC*%
%TO.N,/DC*%
X161701490Y-92677439D03*
%TO.P,U2,7,CS*%
%TO.N,/CSD2*%
X161701490Y-95217439D03*
%TD*%
D11*
%TO.P,J15,1,Pin_1*%
%TO.N,/CAN LISTEN H*%
X133223000Y-84201000D03*
%TD*%
%TO.P,J16,1,Pin_1*%
%TO.N,/CAN LISTEN L*%
X133223000Y-86233000D03*
%TD*%
D12*
%TO.P,J10,A1,GND*%
%TO.N,GND*%
X211135000Y-87037000D03*
%TO.P,J10,A4,VBUS*%
%TO.N,Net-(D10-A)*%
X210285000Y-87037000D03*
%TO.P,J10,A5,CC1*%
%TO.N,Net-(J10-CC1)*%
X209435000Y-87037000D03*
%TO.P,J10,A6,D+*%
%TO.N,Net-(D13-A1)*%
X208585000Y-87037000D03*
%TO.P,J10,A7,D-*%
%TO.N,Net-(D12-A2)*%
X207735000Y-87037000D03*
%TO.P,J10,A8,SBU1*%
%TO.N,unconnected-(J10-SBU1-PadA8)*%
X206885000Y-87037000D03*
%TO.P,J10,A9,VBUS*%
%TO.N,Net-(D10-A)*%
X206035000Y-87037000D03*
%TO.P,J10,A12,GND*%
%TO.N,GND*%
X205185000Y-87037000D03*
%TO.P,J10,B1,GND*%
X205185000Y-85687000D03*
%TO.P,J10,B4,VBUS*%
%TO.N,Net-(D10-A)*%
X206035000Y-85687000D03*
%TO.P,J10,B5,CC2*%
%TO.N,Net-(J10-CC2)*%
X206885000Y-85687000D03*
%TO.P,J10,B6,D+*%
%TO.N,Net-(D13-A1)*%
X207735000Y-85687000D03*
%TO.P,J10,B7,D-*%
%TO.N,Net-(D12-A2)*%
X208585000Y-85687000D03*
%TO.P,J10,B8,SBU2*%
%TO.N,unconnected-(J10-SBU2-PadB8)*%
X209435000Y-85687000D03*
%TO.P,J10,B9,VBUS*%
%TO.N,Net-(D10-A)*%
X210285000Y-85687000D03*
%TO.P,J10,B12,GND*%
%TO.N,GND*%
X211135000Y-85687000D03*
D13*
%TO.P,J10,S1,SHIELD*%
X212485000Y-86057000D03*
D14*
X212485000Y-82677000D03*
D13*
X203835000Y-86057000D03*
D14*
X203835000Y-82677000D03*
%TD*%
D10*
%TO.P,U1,1,GND*%
%TO.N,GND*%
X157080000Y-95220000D03*
%TO.P,U1,2,+5V*%
%TO.N,+3.3V*%
X157080000Y-92680000D03*
%TO.P,U1,3,SCLK*%
%TO.N,/SCLK*%
X157080000Y-90140000D03*
%TO.P,U1,4,MOSI*%
%TO.N,/MOSI*%
X157080000Y-87600000D03*
%TO.P,U1,5,RES*%
%TO.N,/REST*%
X157080000Y-85060000D03*
%TO.P,U1,6,DC*%
%TO.N,/DC*%
X157080000Y-82520000D03*
%TO.P,U1,7,CS*%
%TO.N,/CSD1*%
X157080000Y-79980000D03*
%TD*%
D15*
%TO.P,J8,1,Pin_1*%
%TO.N,Net-(J8-Pin_1)*%
X134620000Y-78994000D03*
%TD*%
D16*
%TO.P,D5,1,K*%
%TO.N,Net-(D5-K)*%
X150842000Y-78994000D03*
%TO.P,D5,2,A*%
%TO.N,+3.3V*%
X152942000Y-78994000D03*
%TD*%
%TO.P,D3,1,K*%
%TO.N,Net-(D3-K)*%
X189416470Y-78994000D03*
%TO.P,D3,2,A*%
%TO.N,+3.3V*%
X191516470Y-78994000D03*
%TD*%
%TO.P,D6,1,K*%
%TO.N,Net-(D6-K)*%
X136618000Y-78994000D03*
%TO.P,D6,2,A*%
%TO.N,+3.3V*%
X138718000Y-78994000D03*
%TD*%
D11*
%TO.P,J17,1,Pin_1*%
%TO.N,GND*%
X129159000Y-84201000D03*
%TD*%
D15*
%TO.P,J7,1,Pin_1*%
%TO.N,Net-(J7-Pin_1)*%
X132588000Y-78994000D03*
%TD*%
%TO.P,J4,1,Pin_1*%
%TO.N,Net-(J4-Pin_1)*%
X201000000Y-78994000D03*
%TD*%
%TO.P,J9,1,Pin_1*%
%TO.N,Net-(J9-Pin_1)*%
X148844000Y-78994000D03*
%TD*%
%TO.P,J3,1,Pin_1*%
%TO.N,Net-(J3-Pin_1)*%
X187539059Y-78994000D03*
%TD*%
D11*
%TO.P,J18,1,Pin_1*%
%TO.N,/ING12V+*%
X127127000Y-83058000D03*
%TD*%
D15*
%TO.P,J6,1,Pin_1*%
%TO.N,Net-(J6-Pin_1)*%
X130556000Y-78994000D03*
%TD*%
%TO.P,J2,1,Pin_1*%
%TO.N,Net-(J2-Pin_1)*%
X170942000Y-78994000D03*
%TD*%
%TO.P,J5,1,Pin_1*%
%TO.N,Net-(J5-Pin_1)*%
X214600000Y-78994000D03*
%TD*%
D16*
%TO.P,D4,1,K*%
%TO.N,Net-(D4-K)*%
X172906000Y-78994000D03*
%TO.P,D4,2,A*%
%TO.N,+3.3V*%
X175006000Y-78994000D03*
%TD*%
%TO.P,D2,1,K*%
%TO.N,Net-(D2-K)*%
X202899630Y-78994000D03*
%TO.P,D2,2,A*%
%TO.N,+3.3V*%
X204999630Y-78994000D03*
%TD*%
%TO.P,D8,1,K*%
%TO.N,Net-(D8-K)*%
X134366000Y-89052400D03*
%TO.P,D8,2,A*%
%TO.N,+3.3V*%
X134366000Y-91152400D03*
%TD*%
%TO.P,D7,1,K*%
%TO.N,Net-(D7-K)*%
X132588000Y-88154800D03*
%TO.P,D7,2,A*%
%TO.N,+3.3V*%
X132588000Y-90254800D03*
%TD*%
%TO.P,D1,1,K*%
%TO.N,Net-(D1-K)*%
X216488744Y-78994000D03*
%TO.P,D1,2,A*%
%TO.N,+3.3V*%
X218588744Y-78994000D03*
%TD*%
D11*
%TO.P,J13,1,Pin_1*%
%TO.N,/OBD2 CAN L*%
X131191000Y-84201000D03*
%TD*%
D17*
%TO.N,/REST*%
X172364400Y-84531200D03*
X184277000Y-84498814D03*
X201227549Y-94696938D03*
%TO.N,/SCLK*%
X202438000Y-86560613D03*
X172770800Y-96113600D03*
X184556400Y-96113600D03*
X214325200Y-84886800D03*
X146025881Y-88104908D03*
X154736800Y-93980000D03*
%TO.N,/CSD1*%
X215011000Y-92100400D03*
X163068000Y-94742000D03*
%TO.N,/MOSI*%
X183997528Y-96770000D03*
X214325200Y-85699600D03*
X154838400Y-96570800D03*
X146050000Y-89814400D03*
X194818000Y-96770000D03*
X172215183Y-96770000D03*
%TO.N,/DC*%
X218389200Y-92329000D03*
X163576000Y-93726000D03*
%TO.N,/MISO*%
X146558000Y-88646000D03*
X201803000Y-85508914D03*
X220014800Y-81432400D03*
X171551600Y-95504000D03*
X183337200Y-95504000D03*
%TO.N,+3.3V*%
X185882339Y-83858028D03*
X187833000Y-84836000D03*
X169418000Y-94869000D03*
X180086000Y-81330800D03*
X212344000Y-94615000D03*
X193548000Y-85090000D03*
X170688000Y-90932000D03*
X155782861Y-92925238D03*
X152958800Y-78943200D03*
X205028800Y-78943200D03*
X222188721Y-79519508D03*
X203708000Y-95250000D03*
X174532757Y-83844188D03*
X165004899Y-80682131D03*
X199517000Y-93726000D03*
X144576800Y-95046800D03*
X222504000Y-82931000D03*
X206629000Y-93726000D03*
X144263950Y-91079540D03*
X221589600Y-81381600D03*
X189230000Y-93980000D03*
X177292000Y-85090000D03*
X224536000Y-95148400D03*
X204597000Y-89408000D03*
X168960800Y-81381600D03*
X218592400Y-78841600D03*
X170561000Y-93726000D03*
X221107000Y-95123000D03*
X216005981Y-94873577D03*
X191516000Y-78841600D03*
X176682400Y-79603600D03*
X211074000Y-88900000D03*
X200025000Y-82550000D03*
X153162000Y-91948000D03*
X222504000Y-91948000D03*
X181864000Y-90932000D03*
X138751542Y-78901021D03*
X218567000Y-82550000D03*
%TO.N,GND*%
X209397600Y-91744800D03*
X220167200Y-89306400D03*
X207264000Y-89408000D03*
X217170000Y-88290400D03*
X219202000Y-86309200D03*
X209931000Y-82804000D03*
X127101600Y-81178400D03*
X178198908Y-85201735D03*
X219202000Y-88239600D03*
X217220800Y-86309200D03*
X212598000Y-91694000D03*
X220167200Y-87274400D03*
X221132400Y-88290400D03*
X221183200Y-86309200D03*
X167716200Y-94970600D03*
X218186000Y-85293200D03*
X198120000Y-93726000D03*
X220167200Y-85293200D03*
X141884400Y-88798400D03*
X218186000Y-87274400D03*
X218186000Y-89306400D03*
X168402000Y-94234000D03*
X219202000Y-95504000D03*
X205867000Y-82804000D03*
%TO.N,/CSD2*%
X215900000Y-92329000D03*
%TO.N,Net-(U9-EN{slash}CHIP_PU)*%
X217598621Y-80776177D03*
X203515908Y-93423472D03*
%TO.N,/INTCAN2*%
X213461600Y-83159600D03*
X185928000Y-88392000D03*
%TO.N,/CSCAN2*%
X184277000Y-85217000D03*
X220014800Y-92329000D03*
%TO.N,/CSCAN*%
X219202000Y-92329000D03*
X173173220Y-85157933D03*
%TO.N,/INTCAN*%
X174548800Y-88442800D03*
X216789000Y-80899000D03*
%TO.N,Net-(D14-A)*%
X207518000Y-95123000D03*
X216789000Y-82550000D03*
%TO.N,/CSSDCARD*%
X215011000Y-91300685D03*
X196673396Y-85115312D03*
%TO.N,/CSCAP*%
X150944945Y-91335159D03*
X216027000Y-93980000D03*
%TO.N,/INTCAP*%
X219202000Y-81432400D03*
X140868400Y-86614000D03*
%TO.N,/INTING*%
X210905640Y-79632043D03*
X127127000Y-79375000D03*
%TO.N,Net-(JP2-B)*%
X185420000Y-82804000D03*
X178396303Y-81533403D03*
X173088506Y-83991888D03*
%TO.N,+12V*%
X131191000Y-94107000D03*
X202946000Y-89408000D03*
%TO.N,/OBD2 CAN H*%
X172466000Y-83693000D03*
%TO.N,/CAN LISTEN L*%
X164465000Y-80010000D03*
X154178000Y-82677000D03*
X184023000Y-83820000D03*
%TO.N,/CAN LISTEN H*%
X163512500Y-80073500D03*
X154178000Y-81915000D03*
X183235600Y-83820000D03*
%TO.N,/OBD2 CAN L*%
X173101000Y-83312000D03*
%TO.N,Net-(D1-K)*%
X216458800Y-78841600D03*
X149860000Y-90170000D03*
%TO.N,Net-(D2-K)*%
X202895200Y-78841600D03*
X151003000Y-87884000D03*
%TO.N,Net-(D3-K)*%
X149860000Y-86207600D03*
X189433200Y-78892400D03*
%TO.N,Net-(D4-K)*%
X172821600Y-78790800D03*
X151638000Y-80645000D03*
%TO.N,Net-(D5-K)*%
X150825200Y-78892400D03*
%TO.N,Net-(D6-K)*%
X136601200Y-78943200D03*
X136271000Y-86817200D03*
%TO.N,Net-(D7-K)*%
X136674194Y-87945918D03*
%TO.N,Net-(D8-K)*%
X137404555Y-89043756D03*
%TO.N,Net-(J9-Pin_1)*%
X148844000Y-78994000D03*
X139573000Y-88011000D03*
%TO.N,Net-(J5-Pin_1)*%
X141351000Y-91186000D03*
X214630000Y-78486000D03*
%TO.N,Net-(J8-Pin_1)*%
X140034074Y-88581026D03*
X134620000Y-78994000D03*
%TO.N,Net-(J4-Pin_1)*%
X200991750Y-78434365D03*
X142113000Y-91186000D03*
%TO.N,Net-(J7-Pin_1)*%
X132588000Y-78994000D03*
X139573000Y-89109971D03*
%TO.N,Net-(J6-Pin_1)*%
X139065000Y-89662000D03*
X130556000Y-78943200D03*
%TO.N,Net-(J2-Pin_1)*%
X170939937Y-78434896D03*
X143459200Y-91744800D03*
%TO.N,Net-(J3-Pin_1)*%
X142875000Y-91186000D03*
X187551821Y-78454100D03*
%TO.N,Net-(D12-A2)*%
X212598000Y-90271600D03*
X214325200Y-86512400D03*
%TD*%
D18*
%TO.N,/SCLK*%
X157080000Y-90140000D02*
X161701490Y-85518510D01*
X161701490Y-85518510D02*
X161701490Y-85057439D01*
D19*
%TO.N,/CSD1*%
X155702000Y-93980000D02*
X155194000Y-93472000D01*
X155194000Y-81866000D02*
X157080000Y-79980000D01*
X163068000Y-94742000D02*
X162306000Y-93980000D01*
X162306000Y-93980000D02*
X155702000Y-93980000D01*
X155194000Y-93472000D02*
X155194000Y-81866000D01*
%TO.N,/DC*%
X161701490Y-92677439D02*
X160464051Y-91440000D01*
X163576000Y-93726000D02*
X162750051Y-93726000D01*
X156210000Y-91440000D02*
X155702000Y-90932000D01*
X155956000Y-83058000D02*
X156542000Y-83058000D01*
X156542000Y-83058000D02*
X157080000Y-82520000D01*
X155702000Y-90932000D02*
X155702000Y-83312000D01*
X155702000Y-83312000D02*
X155956000Y-83058000D01*
X160464051Y-91440000D02*
X156210000Y-91440000D01*
X162750051Y-93726000D02*
X161701490Y-92677439D01*
D18*
%TO.N,+3.3V*%
X176682400Y-79603600D02*
X175920400Y-78841600D01*
X175920400Y-78841600D02*
X174905700Y-78841600D01*
X174905700Y-78841600D02*
X174889325Y-78825225D01*
D19*
%TO.N,GND*%
X163068000Y-90322400D02*
X163068000Y-81343949D01*
X163068000Y-81343949D02*
X161701490Y-79977439D01*
X168402000Y-94234000D02*
X166979600Y-94234000D01*
X166979600Y-94234000D02*
X163068000Y-90322400D01*
D18*
%TO.N,Net-(U9-EN{slash}CHIP_PU)*%
X201803000Y-87503000D02*
X204089000Y-87503000D01*
X203515908Y-93423472D02*
X205930500Y-91008880D01*
X217196444Y-80374000D02*
X202963000Y-80374000D01*
X201041000Y-82296000D02*
X201041000Y-86741000D01*
X204089000Y-87503000D02*
X205930500Y-89344500D01*
X202963000Y-80374000D02*
X201041000Y-82296000D01*
X217598621Y-80776177D02*
X217196444Y-80374000D01*
X201041000Y-86741000D02*
X201803000Y-87503000D01*
X205930500Y-91008880D02*
X205930500Y-89344500D01*
%TO.N,Net-(D14-A)*%
X213995000Y-89916000D02*
X216154000Y-87757000D01*
X207518000Y-95123000D02*
X210820000Y-95123000D01*
X216154000Y-82804000D02*
X216408000Y-82550000D01*
X216154000Y-87757000D02*
X216154000Y-82804000D01*
X216408000Y-82550000D02*
X216789000Y-82550000D01*
X210820000Y-95123000D02*
X213995000Y-91948000D01*
X213995000Y-91948000D02*
X213995000Y-89916000D01*
%TO.N,Net-(JP2-B)*%
X173088506Y-83991888D02*
X173437112Y-83991888D01*
X173437112Y-83991888D02*
X175895597Y-81533403D01*
X178815403Y-81533403D02*
X179968954Y-82686954D01*
X178396303Y-81533403D02*
X178815403Y-81533403D01*
D19*
X185302954Y-82686954D02*
X185420000Y-82804000D01*
D18*
X175895597Y-81533403D02*
X178396303Y-81533403D01*
D19*
X179968954Y-82686954D02*
X185302954Y-82686954D01*
%TO.N,+12V*%
X156009000Y-96573000D02*
X169164000Y-96573000D01*
X202946000Y-89408000D02*
X202946000Y-91948000D01*
X155448000Y-96012000D02*
X133096000Y-96012000D01*
X155448000Y-96012000D02*
X156009000Y-96573000D01*
X171069000Y-94869000D02*
X169365000Y-96573000D01*
X202946000Y-91948000D02*
X200025000Y-94869000D01*
X200025000Y-94869000D02*
X171069000Y-94869000D01*
X169365000Y-96573000D02*
X169164000Y-96573000D01*
X133096000Y-96012000D02*
X131191000Y-94107000D01*
%TO.N,/OBD2 CAN H*%
X131572000Y-86233000D02*
X131191000Y-86233000D01*
X172466000Y-83185000D02*
X172339000Y-83058000D01*
X168275000Y-78994000D02*
X155956000Y-78994000D01*
X132207000Y-83058000D02*
X132207000Y-85598000D01*
X172466000Y-83693000D02*
X172466000Y-83185000D01*
X155956000Y-78994000D02*
X153162000Y-81788000D01*
X132207000Y-85598000D02*
X131572000Y-86233000D01*
X172339000Y-83058000D02*
X168275000Y-78994000D01*
X133477000Y-81788000D02*
X132207000Y-83058000D01*
X153162000Y-81788000D02*
X133477000Y-81788000D01*
%TO.N,/CAN LISTEN L*%
X135128000Y-86233000D02*
X133223000Y-86233000D01*
X164465000Y-80010000D02*
X165277800Y-80010000D01*
X137160000Y-82804000D02*
X154051000Y-82804000D01*
X136144000Y-85217000D02*
X135128000Y-86233000D01*
X136144000Y-85217000D02*
X136144000Y-83820000D01*
X183496000Y-84347000D02*
X184023000Y-83820000D01*
X180956000Y-84347000D02*
X183496000Y-84347000D01*
X171500800Y-86233000D02*
X179070000Y-86233000D01*
X165277800Y-80010000D02*
X171500800Y-86233000D01*
X136144000Y-83820000D02*
X137160000Y-82804000D01*
X179070000Y-86233000D02*
X180956000Y-84347000D01*
X154051000Y-82804000D02*
X154178000Y-82677000D01*
%TO.N,/CAN LISTEN H*%
X178417199Y-85728735D02*
X177980617Y-85728735D01*
X133223000Y-84201000D02*
X134874000Y-84201000D01*
X171704000Y-85725000D02*
X165462000Y-79483000D01*
X153797000Y-82296000D02*
X154178000Y-81915000D01*
X177980617Y-85728735D02*
X177976882Y-85725000D01*
X178420934Y-85725000D02*
X178417199Y-85728735D01*
X183235600Y-83820000D02*
X180721000Y-83820000D01*
X165462000Y-79483000D02*
X164103000Y-79483000D01*
X136779000Y-82296000D02*
X152781000Y-82296000D01*
X152781000Y-82296000D02*
X153797000Y-82296000D01*
X134874000Y-84201000D02*
X136779000Y-82296000D01*
X178816000Y-85725000D02*
X178420934Y-85725000D01*
X177976882Y-85725000D02*
X171704000Y-85725000D01*
X164103000Y-79483000D02*
X163512500Y-80073500D01*
X180721000Y-83820000D02*
X178816000Y-85725000D01*
%TO.N,/OBD2 CAN L*%
X131191000Y-84201000D02*
X131191000Y-83058000D01*
X168520000Y-78477000D02*
X169799000Y-79756000D01*
X152781000Y-81280000D02*
X155584000Y-78477000D01*
X173101000Y-83058000D02*
X173101000Y-83312000D01*
X131191000Y-83058000D02*
X132969000Y-81280000D01*
X170053000Y-80010000D02*
X173101000Y-83058000D01*
X155584000Y-78477000D02*
X160029000Y-78477000D01*
X132969000Y-81280000D02*
X152781000Y-81280000D01*
X169799000Y-79756000D02*
X170053000Y-80010000D01*
X160029000Y-78477000D02*
X168520000Y-78477000D01*
%TO.N,Net-(D7-K)*%
X136465312Y-88154800D02*
X132588000Y-88154800D01*
X136674194Y-87945918D02*
X136465312Y-88154800D01*
%TO.N,Net-(D8-K)*%
X137395911Y-89052400D02*
X134366000Y-89052400D01*
X137404555Y-89043756D02*
X137395911Y-89052400D01*
D18*
%TO.N,Net-(J5-Pin_1)*%
X214630000Y-78964000D02*
X214600000Y-78994000D01*
X214630000Y-78486000D02*
X214630000Y-78964000D01*
D19*
%TO.N,Net-(J4-Pin_1)*%
X200991750Y-78434365D02*
X200991750Y-78985750D01*
X200991750Y-78985750D02*
X201000000Y-78994000D01*
%TO.N,Net-(J2-Pin_1)*%
X170942000Y-78436959D02*
X170942000Y-78994000D01*
X170939937Y-78434896D02*
X170942000Y-78436959D01*
D18*
%TO.N,Net-(J3-Pin_1)*%
X187551821Y-78454100D02*
X187551821Y-78981238D01*
X187551821Y-78981238D02*
X187539059Y-78994000D01*
%TO.N,Net-(D12-A2)*%
X208127600Y-88239600D02*
X212191600Y-88239600D01*
X207700000Y-87000000D02*
X207700000Y-87812000D01*
X212598000Y-90271600D02*
X212598000Y-88646000D01*
X207735000Y-86698325D02*
X208074117Y-86359208D01*
X208468528Y-86359208D02*
X208585000Y-86242736D01*
X212598000Y-87833200D02*
X213918800Y-86512400D01*
X208074117Y-86359208D02*
X208468528Y-86359208D01*
X212191600Y-88239600D02*
X212598000Y-87833200D01*
X207735000Y-87037000D02*
X207735000Y-86698325D01*
X213918800Y-86512400D02*
X214274400Y-86512400D01*
X212598000Y-88646000D02*
X212191600Y-88239600D01*
X207700000Y-87812000D02*
X208127600Y-88239600D01*
X208585000Y-86242736D02*
X208585000Y-85687000D01*
%TD*%
%TA.AperFunction,Conductor*%
%TO.N,+3.3V*%
G36*
X129879432Y-78170185D02*
G01*
X129925187Y-78222989D01*
X129935131Y-78292147D01*
X129915495Y-78343391D01*
X129867132Y-78415769D01*
X129867131Y-78415770D01*
X129855500Y-78474247D01*
X129855500Y-79513752D01*
X129867131Y-79572229D01*
X129867132Y-79572230D01*
X129911447Y-79638552D01*
X129977769Y-79682867D01*
X129977770Y-79682868D01*
X130036247Y-79694499D01*
X130036250Y-79694500D01*
X130036252Y-79694500D01*
X131075750Y-79694500D01*
X131075751Y-79694499D01*
X131090568Y-79691552D01*
X131134229Y-79682868D01*
X131134229Y-79682867D01*
X131134231Y-79682867D01*
X131200552Y-79638552D01*
X131244867Y-79572231D01*
X131244867Y-79572229D01*
X131244868Y-79572229D01*
X131256499Y-79513752D01*
X131256500Y-79513750D01*
X131256500Y-78474249D01*
X131256499Y-78474247D01*
X131244868Y-78415770D01*
X131244867Y-78415769D01*
X131196505Y-78343391D01*
X131175627Y-78276714D01*
X131194111Y-78209334D01*
X131246090Y-78162643D01*
X131299607Y-78150500D01*
X131844393Y-78150500D01*
X131911432Y-78170185D01*
X131957187Y-78222989D01*
X131967131Y-78292147D01*
X131947495Y-78343391D01*
X131899132Y-78415769D01*
X131899131Y-78415770D01*
X131887500Y-78474247D01*
X131887500Y-79513752D01*
X131899131Y-79572229D01*
X131899132Y-79572230D01*
X131943447Y-79638552D01*
X132009769Y-79682867D01*
X132009770Y-79682868D01*
X132068247Y-79694499D01*
X132068250Y-79694500D01*
X132068252Y-79694500D01*
X133107750Y-79694500D01*
X133107751Y-79694499D01*
X133122568Y-79691552D01*
X133166229Y-79682868D01*
X133166229Y-79682867D01*
X133166231Y-79682867D01*
X133232552Y-79638552D01*
X133276867Y-79572231D01*
X133276867Y-79572229D01*
X133276868Y-79572229D01*
X133288499Y-79513752D01*
X133288500Y-79513750D01*
X133288500Y-78474249D01*
X133288499Y-78474247D01*
X133276868Y-78415770D01*
X133276867Y-78415769D01*
X133228505Y-78343391D01*
X133207627Y-78276714D01*
X133226111Y-78209334D01*
X133278090Y-78162643D01*
X133331607Y-78150500D01*
X133876393Y-78150500D01*
X133943432Y-78170185D01*
X133989187Y-78222989D01*
X133999131Y-78292147D01*
X133979495Y-78343391D01*
X133931132Y-78415769D01*
X133931131Y-78415770D01*
X133919500Y-78474247D01*
X133919500Y-79513752D01*
X133931131Y-79572229D01*
X133931132Y-79572230D01*
X133975447Y-79638552D01*
X134041769Y-79682867D01*
X134041770Y-79682868D01*
X134100247Y-79694499D01*
X134100250Y-79694500D01*
X134100252Y-79694500D01*
X135139750Y-79694500D01*
X135139751Y-79694499D01*
X135154568Y-79691552D01*
X135198229Y-79682868D01*
X135198229Y-79682867D01*
X135198231Y-79682867D01*
X135264552Y-79638552D01*
X135308867Y-79572231D01*
X135308867Y-79572229D01*
X135308868Y-79572229D01*
X135320499Y-79513752D01*
X135320500Y-79513750D01*
X135320500Y-78474249D01*
X135320499Y-78474247D01*
X135308868Y-78415770D01*
X135308867Y-78415769D01*
X135260505Y-78343391D01*
X135239627Y-78276714D01*
X135258111Y-78209334D01*
X135310090Y-78162643D01*
X135363607Y-78150500D01*
X135712010Y-78150500D01*
X135779049Y-78170185D01*
X135824804Y-78222989D01*
X135834748Y-78292147D01*
X135831412Y-78304307D01*
X135817500Y-78374247D01*
X135817500Y-79613752D01*
X135829131Y-79672229D01*
X135829132Y-79672230D01*
X135873447Y-79738552D01*
X135939769Y-79782867D01*
X135939770Y-79782868D01*
X135998247Y-79794499D01*
X135998250Y-79794500D01*
X135998252Y-79794500D01*
X137237750Y-79794500D01*
X137237751Y-79794499D01*
X137253750Y-79791317D01*
X137296229Y-79782868D01*
X137296229Y-79782867D01*
X137296231Y-79782867D01*
X137362552Y-79738552D01*
X137404886Y-79675194D01*
X137458496Y-79630391D01*
X137527821Y-79621684D01*
X137590849Y-79651838D01*
X137624169Y-79700753D01*
X137674646Y-79836088D01*
X137674649Y-79836093D01*
X137760809Y-79951187D01*
X137760812Y-79951190D01*
X137875906Y-80037350D01*
X137875913Y-80037354D01*
X138010620Y-80087596D01*
X138010627Y-80087598D01*
X138070155Y-80093999D01*
X138070172Y-80094000D01*
X138468000Y-80094000D01*
X138968000Y-80094000D01*
X139365828Y-80094000D01*
X139365844Y-80093999D01*
X139425372Y-80087598D01*
X139425379Y-80087596D01*
X139560086Y-80037354D01*
X139560093Y-80037350D01*
X139675187Y-79951190D01*
X139675190Y-79951187D01*
X139761350Y-79836093D01*
X139761354Y-79836086D01*
X139811596Y-79701379D01*
X139811598Y-79701372D01*
X139817999Y-79641844D01*
X139818000Y-79641827D01*
X139818000Y-79244000D01*
X138968000Y-79244000D01*
X138968000Y-80094000D01*
X138468000Y-80094000D01*
X138468000Y-78868000D01*
X138487685Y-78800961D01*
X138540489Y-78755206D01*
X138592000Y-78744000D01*
X139818000Y-78744000D01*
X139818000Y-78346172D01*
X139817999Y-78346155D01*
X139811720Y-78287756D01*
X139824125Y-78218996D01*
X139871735Y-78167859D01*
X139935009Y-78150500D01*
X148100393Y-78150500D01*
X148167432Y-78170185D01*
X148213187Y-78222989D01*
X148223131Y-78292147D01*
X148203495Y-78343391D01*
X148155132Y-78415769D01*
X148155131Y-78415770D01*
X148143500Y-78474247D01*
X148143500Y-79513752D01*
X148155131Y-79572229D01*
X148155132Y-79572230D01*
X148199447Y-79638552D01*
X148265769Y-79682867D01*
X148265770Y-79682868D01*
X148324247Y-79694499D01*
X148324250Y-79694500D01*
X148324252Y-79694500D01*
X149363750Y-79694500D01*
X149363751Y-79694499D01*
X149378568Y-79691552D01*
X149422229Y-79682868D01*
X149422229Y-79682867D01*
X149422231Y-79682867D01*
X149488552Y-79638552D01*
X149532867Y-79572231D01*
X149532867Y-79572229D01*
X149532868Y-79572229D01*
X149544499Y-79513752D01*
X149544500Y-79513750D01*
X149544500Y-78474249D01*
X149544499Y-78474247D01*
X149532868Y-78415770D01*
X149532867Y-78415769D01*
X149484505Y-78343391D01*
X149463627Y-78276714D01*
X149482111Y-78209334D01*
X149534090Y-78162643D01*
X149587607Y-78150500D01*
X149936010Y-78150500D01*
X150003049Y-78170185D01*
X150048804Y-78222989D01*
X150058748Y-78292147D01*
X150055412Y-78304307D01*
X150041500Y-78374247D01*
X150041500Y-79613752D01*
X150053131Y-79672229D01*
X150053132Y-79672230D01*
X150097447Y-79738552D01*
X150163769Y-79782867D01*
X150163770Y-79782868D01*
X150222247Y-79794499D01*
X150222250Y-79794500D01*
X150222252Y-79794500D01*
X151461750Y-79794500D01*
X151461751Y-79794499D01*
X151477750Y-79791317D01*
X151520229Y-79782868D01*
X151520229Y-79782867D01*
X151520231Y-79782867D01*
X151586552Y-79738552D01*
X151628886Y-79675194D01*
X151682496Y-79630391D01*
X151751821Y-79621684D01*
X151814849Y-79651838D01*
X151848169Y-79700753D01*
X151898646Y-79836088D01*
X151898649Y-79836093D01*
X151984809Y-79951187D01*
X151984812Y-79951190D01*
X152099906Y-80037350D01*
X152099913Y-80037354D01*
X152234620Y-80087596D01*
X152234627Y-80087598D01*
X152294155Y-80093999D01*
X152294172Y-80094000D01*
X152692000Y-80094000D01*
X152692000Y-78868000D01*
X152711685Y-78800961D01*
X152764489Y-78755206D01*
X152816000Y-78744000D01*
X154042000Y-78744000D01*
X154042000Y-78346172D01*
X154041999Y-78346155D01*
X154035720Y-78287756D01*
X154048125Y-78218996D01*
X154095735Y-78167859D01*
X154159009Y-78150500D01*
X155147983Y-78150500D01*
X155215022Y-78170185D01*
X155260777Y-78222989D01*
X155270721Y-78292147D01*
X155241696Y-78355703D01*
X155235664Y-78362181D01*
X154253681Y-79344164D01*
X154192358Y-79377649D01*
X154122666Y-79372665D01*
X154066733Y-79330793D01*
X154042316Y-79265329D01*
X154042000Y-79256483D01*
X154042000Y-79244000D01*
X153192000Y-79244000D01*
X153192000Y-80094000D01*
X153204483Y-80094000D01*
X153271522Y-80113685D01*
X153317277Y-80166489D01*
X153327221Y-80235647D01*
X153298196Y-80299203D01*
X153292164Y-80305681D01*
X152681664Y-80916181D01*
X152620341Y-80949666D01*
X152593983Y-80952500D01*
X152218753Y-80952500D01*
X152151714Y-80932815D01*
X152105959Y-80880011D01*
X152096015Y-80810853D01*
X152101995Y-80790484D01*
X152101279Y-80790274D01*
X152103775Y-80781769D01*
X152103777Y-80781765D01*
X152123441Y-80645000D01*
X152103777Y-80508235D01*
X152095677Y-80490499D01*
X152052109Y-80395099D01*
X152046379Y-80382551D01*
X151955896Y-80278128D01*
X151955893Y-80278126D01*
X151955891Y-80278124D01*
X151839661Y-80203427D01*
X151839656Y-80203425D01*
X151707087Y-80164500D01*
X151707085Y-80164500D01*
X151568915Y-80164500D01*
X151568912Y-80164500D01*
X151436343Y-80203425D01*
X151436338Y-80203427D01*
X151320108Y-80278124D01*
X151320106Y-80278126D01*
X151320104Y-80278127D01*
X151320104Y-80278128D01*
X151257721Y-80350122D01*
X151229621Y-80382551D01*
X151229620Y-80382552D01*
X151172222Y-80508234D01*
X151152559Y-80645000D01*
X151172223Y-80781766D01*
X151174721Y-80790274D01*
X151172063Y-80791054D01*
X151179985Y-80846145D01*
X151150961Y-80909702D01*
X151092183Y-80947477D01*
X151057247Y-80952500D01*
X133012116Y-80952500D01*
X132925884Y-80952500D01*
X132870354Y-80967379D01*
X132842589Y-80974819D01*
X132767911Y-81017934D01*
X132767908Y-81017936D01*
X130928936Y-82856908D01*
X130928934Y-82856911D01*
X130885819Y-82931589D01*
X130882191Y-82945128D01*
X130865727Y-83006575D01*
X130863500Y-83014885D01*
X130863500Y-83376500D01*
X130843815Y-83443539D01*
X130791011Y-83489294D01*
X130739500Y-83500500D01*
X130671247Y-83500500D01*
X130612770Y-83512131D01*
X130612769Y-83512132D01*
X130546447Y-83556447D01*
X130502132Y-83622769D01*
X130502131Y-83622770D01*
X130490500Y-83681247D01*
X130490500Y-84720752D01*
X130502131Y-84779229D01*
X130502132Y-84779230D01*
X130546447Y-84845552D01*
X130612769Y-84889867D01*
X130612770Y-84889868D01*
X130671247Y-84901499D01*
X130671250Y-84901500D01*
X130671252Y-84901500D01*
X131710747Y-84901500D01*
X131710748Y-84901500D01*
X131731308Y-84897410D01*
X131800897Y-84903636D01*
X131856075Y-84946497D01*
X131879322Y-85012386D01*
X131879500Y-85019027D01*
X131879500Y-85410981D01*
X131859815Y-85478020D01*
X131843168Y-85498675D01*
X131839839Y-85502003D01*
X131778511Y-85535479D01*
X131727985Y-85535927D01*
X131710754Y-85532500D01*
X131710748Y-85532500D01*
X130671252Y-85532500D01*
X130671247Y-85532500D01*
X130612770Y-85544131D01*
X130612769Y-85544132D01*
X130546447Y-85588447D01*
X130502132Y-85654769D01*
X130502131Y-85654770D01*
X130490500Y-85713247D01*
X130490500Y-86752752D01*
X130502131Y-86811229D01*
X130502132Y-86811230D01*
X130546447Y-86877552D01*
X130612769Y-86921867D01*
X130612770Y-86921868D01*
X130671247Y-86933499D01*
X130671250Y-86933500D01*
X130671252Y-86933500D01*
X131710750Y-86933500D01*
X131710751Y-86933499D01*
X131725568Y-86930552D01*
X131769229Y-86921868D01*
X131769229Y-86921867D01*
X131769231Y-86921867D01*
X131835552Y-86877552D01*
X131879867Y-86811231D01*
X131879867Y-86811229D01*
X131879868Y-86811229D01*
X131890182Y-86759375D01*
X131891500Y-86752748D01*
X131891500Y-86428017D01*
X131911185Y-86360978D01*
X131927819Y-86340336D01*
X132310819Y-85957336D01*
X132372142Y-85923851D01*
X132441834Y-85928835D01*
X132497767Y-85970707D01*
X132522184Y-86036171D01*
X132522500Y-86045017D01*
X132522500Y-86752752D01*
X132534131Y-86811229D01*
X132534132Y-86811230D01*
X132578447Y-86877552D01*
X132644769Y-86921867D01*
X132644770Y-86921868D01*
X132703247Y-86933499D01*
X132703250Y-86933500D01*
X132703252Y-86933500D01*
X133742750Y-86933500D01*
X133742751Y-86933499D01*
X133757568Y-86930552D01*
X133801229Y-86921868D01*
X133801229Y-86921867D01*
X133801231Y-86921867D01*
X133867552Y-86877552D01*
X133907879Y-86817200D01*
X135785559Y-86817200D01*
X135805222Y-86953965D01*
X135862620Y-87079647D01*
X135862621Y-87079649D01*
X135953104Y-87184072D01*
X135953106Y-87184073D01*
X135953108Y-87184075D01*
X136069338Y-87258772D01*
X136069343Y-87258774D01*
X136172220Y-87288980D01*
X136193489Y-87295226D01*
X136201912Y-87297699D01*
X136201914Y-87297700D01*
X136201915Y-87297700D01*
X136340084Y-87297700D01*
X136340085Y-87297700D01*
X136348497Y-87295229D01*
X136418364Y-87295226D01*
X136446660Y-87313409D01*
X136448963Y-87297399D01*
X136494716Y-87244597D01*
X136588896Y-87184072D01*
X136679379Y-87079649D01*
X136736777Y-86953965D01*
X136756441Y-86817200D01*
X136737660Y-86686575D01*
X136736777Y-86680434D01*
X136706437Y-86614000D01*
X140382959Y-86614000D01*
X140402622Y-86750765D01*
X140440099Y-86832827D01*
X140460021Y-86876449D01*
X140550504Y-86980872D01*
X140550506Y-86980873D01*
X140550508Y-86980875D01*
X140666738Y-87055572D01*
X140666743Y-87055574D01*
X140799312Y-87094499D01*
X140799314Y-87094500D01*
X140799315Y-87094500D01*
X140937486Y-87094500D01*
X140937486Y-87094499D01*
X141045875Y-87062674D01*
X141070056Y-87055574D01*
X141070057Y-87055573D01*
X141070059Y-87055573D01*
X141186296Y-86980872D01*
X141276779Y-86876449D01*
X141334177Y-86750765D01*
X141353841Y-86614000D01*
X141334177Y-86477235D01*
X141330895Y-86470049D01*
X141299334Y-86400940D01*
X141276779Y-86351551D01*
X141186296Y-86247128D01*
X141186293Y-86247126D01*
X141186291Y-86247124D01*
X141124791Y-86207600D01*
X149374559Y-86207600D01*
X149394222Y-86344365D01*
X149443462Y-86452184D01*
X149451621Y-86470049D01*
X149542104Y-86574472D01*
X149542106Y-86574473D01*
X149542108Y-86574475D01*
X149658338Y-86649172D01*
X149658343Y-86649174D01*
X149749961Y-86676075D01*
X149785721Y-86686575D01*
X149790912Y-86688099D01*
X149790914Y-86688100D01*
X149790915Y-86688100D01*
X149929086Y-86688100D01*
X149929086Y-86688099D01*
X150061659Y-86649173D01*
X150061672Y-86649165D01*
X150167475Y-86581169D01*
X150177896Y-86574472D01*
X150268379Y-86470049D01*
X150325777Y-86344365D01*
X150345441Y-86207600D01*
X150325777Y-86070835D01*
X150323784Y-86066472D01*
X150276096Y-85962049D01*
X150268379Y-85945151D01*
X150177896Y-85840728D01*
X150177893Y-85840726D01*
X150177891Y-85840724D01*
X150061661Y-85766027D01*
X150061656Y-85766025D01*
X149929087Y-85727100D01*
X149929085Y-85727100D01*
X149790915Y-85727100D01*
X149790912Y-85727100D01*
X149658343Y-85766025D01*
X149658338Y-85766027D01*
X149542108Y-85840724D01*
X149542106Y-85840726D01*
X149542104Y-85840727D01*
X149542104Y-85840728D01*
X149454071Y-85942324D01*
X149451622Y-85945150D01*
X149451620Y-85945152D01*
X149394222Y-86070834D01*
X149374559Y-86207600D01*
X141124791Y-86207600D01*
X141070061Y-86172427D01*
X141070056Y-86172425D01*
X140937487Y-86133500D01*
X140937485Y-86133500D01*
X140799315Y-86133500D01*
X140799312Y-86133500D01*
X140666743Y-86172425D01*
X140666738Y-86172427D01*
X140550508Y-86247124D01*
X140550506Y-86247126D01*
X140550504Y-86247127D01*
X140550504Y-86247128D01*
X140495023Y-86311157D01*
X140460021Y-86351551D01*
X140460020Y-86351552D01*
X140402622Y-86477234D01*
X140382959Y-86614000D01*
X136706437Y-86614000D01*
X136705205Y-86611302D01*
X136679379Y-86554751D01*
X136588896Y-86450328D01*
X136588893Y-86450326D01*
X136588891Y-86450324D01*
X136472661Y-86375627D01*
X136472656Y-86375625D01*
X136340087Y-86336700D01*
X136340085Y-86336700D01*
X136201915Y-86336700D01*
X136201912Y-86336700D01*
X136069343Y-86375625D01*
X136069338Y-86375627D01*
X135953108Y-86450324D01*
X135953106Y-86450326D01*
X135953104Y-86450327D01*
X135953104Y-86450328D01*
X135891061Y-86521930D01*
X135862621Y-86554751D01*
X135862620Y-86554752D01*
X135805222Y-86680434D01*
X135785559Y-86817200D01*
X133907879Y-86817200D01*
X133911867Y-86811231D01*
X133911867Y-86811229D01*
X133911868Y-86811229D01*
X133922182Y-86759375D01*
X133923500Y-86752748D01*
X133923500Y-86684500D01*
X133943185Y-86617461D01*
X133995989Y-86571706D01*
X134047500Y-86560500D01*
X135171114Y-86560500D01*
X135171116Y-86560500D01*
X135254410Y-86538181D01*
X135329090Y-86495065D01*
X136406065Y-85418090D01*
X136449181Y-85343410D01*
X136471500Y-85260116D01*
X136471500Y-85173884D01*
X136471500Y-84007017D01*
X136491185Y-83939978D01*
X136507819Y-83919336D01*
X137259336Y-83167819D01*
X137320659Y-83134334D01*
X137347017Y-83131500D01*
X153617104Y-83131500D01*
X153647276Y-83135227D01*
X153653534Y-83136797D01*
X153653535Y-83136797D01*
X153653543Y-83136799D01*
X154155609Y-83161643D01*
X154160399Y-83161824D01*
X154160935Y-83161838D01*
X154170791Y-83160029D01*
X154173481Y-83159536D01*
X154195859Y-83157500D01*
X154247086Y-83157500D01*
X154247086Y-83157499D01*
X154379659Y-83118573D01*
X154495896Y-83043872D01*
X154586379Y-82939449D01*
X154591267Y-82928746D01*
X154629706Y-82844577D01*
X154675460Y-82791773D01*
X154742500Y-82772088D01*
X154809539Y-82791772D01*
X154855294Y-82844576D01*
X154866500Y-82896088D01*
X154866500Y-93375500D01*
X154846815Y-93442539D01*
X154794011Y-93488294D01*
X154742500Y-93499500D01*
X154667712Y-93499500D01*
X154535143Y-93538425D01*
X154535138Y-93538427D01*
X154418908Y-93613124D01*
X154418906Y-93613126D01*
X154418904Y-93613127D01*
X154418904Y-93613128D01*
X154373587Y-93665427D01*
X154328421Y-93717551D01*
X154328420Y-93717552D01*
X154271022Y-93843234D01*
X154251359Y-93980000D01*
X154271022Y-94116765D01*
X154316542Y-94216438D01*
X154328421Y-94242449D01*
X154418904Y-94346872D01*
X154418906Y-94346873D01*
X154418908Y-94346875D01*
X154535138Y-94421572D01*
X154535143Y-94421574D01*
X154667712Y-94460499D01*
X154667714Y-94460500D01*
X154667715Y-94460500D01*
X154805886Y-94460500D01*
X154805886Y-94460499D01*
X154938459Y-94421573D01*
X155054696Y-94346872D01*
X155145179Y-94242449D01*
X155182635Y-94160431D01*
X155228388Y-94107630D01*
X155295427Y-94087945D01*
X155362467Y-94107629D01*
X155383109Y-94124264D01*
X155500910Y-94242065D01*
X155575589Y-94285181D01*
X155658884Y-94307500D01*
X156328130Y-94307500D01*
X156395169Y-94327185D01*
X156440924Y-94379989D01*
X156450868Y-94449147D01*
X156421843Y-94512703D01*
X156406796Y-94527353D01*
X156396114Y-94536119D01*
X156275838Y-94682674D01*
X156275834Y-94682681D01*
X156186466Y-94849877D01*
X156186465Y-94849880D01*
X156186464Y-94849882D01*
X156186463Y-94849885D01*
X156173071Y-94894033D01*
X156131426Y-95031318D01*
X156112843Y-95220000D01*
X156131426Y-95408681D01*
X156144294Y-95451100D01*
X156186463Y-95590115D01*
X156186464Y-95590118D01*
X156186465Y-95590119D01*
X156186466Y-95590122D01*
X156275834Y-95757318D01*
X156275838Y-95757325D01*
X156396116Y-95903883D01*
X156544485Y-96025647D01*
X156583819Y-96083393D01*
X156585690Y-96153238D01*
X156549502Y-96213006D01*
X156486746Y-96243722D01*
X156465820Y-96245500D01*
X156196017Y-96245500D01*
X156128978Y-96225815D01*
X156108336Y-96209181D01*
X155649091Y-95749936D01*
X155649090Y-95749935D01*
X155574410Y-95706819D01*
X155574411Y-95706819D01*
X155546645Y-95699379D01*
X155491116Y-95684500D01*
X155491114Y-95684500D01*
X133283017Y-95684500D01*
X133215978Y-95664815D01*
X133195336Y-95648181D01*
X131863903Y-94316748D01*
X131842907Y-94288778D01*
X131824548Y-94255364D01*
X131687270Y-94005509D01*
X131687270Y-94005508D01*
X131640115Y-93919685D01*
X131634821Y-93910049D01*
X131631148Y-93905418D01*
X131615517Y-93879890D01*
X131599379Y-93844551D01*
X131508896Y-93740128D01*
X131508893Y-93740126D01*
X131508891Y-93740124D01*
X131392661Y-93665427D01*
X131392656Y-93665425D01*
X131260087Y-93626500D01*
X131260085Y-93626500D01*
X131121915Y-93626500D01*
X131121912Y-93626500D01*
X130989343Y-93665425D01*
X130989338Y-93665427D01*
X130873108Y-93740124D01*
X130873106Y-93740126D01*
X130873104Y-93740127D01*
X130873104Y-93740128D01*
X130827787Y-93792427D01*
X130782621Y-93844551D01*
X130782620Y-93844552D01*
X130725222Y-93970234D01*
X130705559Y-94107000D01*
X130725222Y-94243765D01*
X130782620Y-94369447D01*
X130782621Y-94369449D01*
X130873104Y-94473872D01*
X130873106Y-94473873D01*
X130873108Y-94473875D01*
X130989503Y-94548678D01*
X130997015Y-94552451D01*
X131175247Y-94650379D01*
X131204985Y-94666717D01*
X131204985Y-94666718D01*
X131367713Y-94756126D01*
X131372779Y-94758909D01*
X131400750Y-94779905D01*
X132894910Y-96274065D01*
X132969590Y-96317181D01*
X133052884Y-96339500D01*
X133139116Y-96339500D01*
X154243111Y-96339500D01*
X154310150Y-96359185D01*
X154355905Y-96411989D01*
X154365849Y-96481147D01*
X154352959Y-96570799D01*
X154372622Y-96707565D01*
X154401136Y-96770000D01*
X154430021Y-96833249D01*
X154431595Y-96835065D01*
X154439595Y-96844298D01*
X154468619Y-96907854D01*
X154458675Y-96977013D01*
X154412919Y-97029816D01*
X154345881Y-97049500D01*
X126071200Y-97049500D01*
X126004161Y-97029815D01*
X125958406Y-96977011D01*
X125947200Y-96925500D01*
X125947200Y-96634567D01*
X125966885Y-96567528D01*
X126019689Y-96521773D01*
X126088847Y-96511829D01*
X126142324Y-96532993D01*
X126239582Y-96601094D01*
X126239592Y-96601100D01*
X126439715Y-96694419D01*
X126439729Y-96694424D01*
X126653013Y-96751573D01*
X126653023Y-96751575D01*
X126872999Y-96770821D01*
X126873001Y-96770821D01*
X127092976Y-96751575D01*
X127092986Y-96751573D01*
X127306270Y-96694424D01*
X127306284Y-96694419D01*
X127506407Y-96601100D01*
X127506417Y-96601094D01*
X127571188Y-96555741D01*
X126900447Y-95885000D01*
X126923160Y-95885000D01*
X127020061Y-95859036D01*
X127106940Y-95808876D01*
X127177876Y-95737940D01*
X127228036Y-95651061D01*
X127254000Y-95554160D01*
X127254000Y-95531447D01*
X127924741Y-96202188D01*
X127970094Y-96137417D01*
X127970100Y-96137407D01*
X128063419Y-95937284D01*
X128063424Y-95937270D01*
X128120573Y-95723986D01*
X128120575Y-95723976D01*
X128139821Y-95504000D01*
X128139821Y-95503999D01*
X128120575Y-95284023D01*
X128120573Y-95284013D01*
X128063424Y-95070729D01*
X128063420Y-95070720D01*
X127970096Y-94870586D01*
X127924741Y-94805811D01*
X127924740Y-94805810D01*
X127254000Y-95476551D01*
X127254000Y-95453840D01*
X127228036Y-95356939D01*
X127177876Y-95270060D01*
X127106940Y-95199124D01*
X127020061Y-95148964D01*
X126923160Y-95123000D01*
X126900447Y-95123000D01*
X127571188Y-94452258D01*
X127506411Y-94406901D01*
X127506405Y-94406898D01*
X127306284Y-94313580D01*
X127306270Y-94313575D01*
X127092986Y-94256426D01*
X127092976Y-94256424D01*
X126873001Y-94237179D01*
X126872999Y-94237179D01*
X126653023Y-94256424D01*
X126653013Y-94256426D01*
X126439729Y-94313575D01*
X126439720Y-94313579D01*
X126239591Y-94406900D01*
X126142322Y-94475008D01*
X126076116Y-94497335D01*
X126008349Y-94480323D01*
X125960537Y-94429375D01*
X125947200Y-94373432D01*
X125947200Y-93699663D01*
X125966885Y-93632624D01*
X126019689Y-93586869D01*
X126088847Y-93576925D01*
X126152403Y-93605950D01*
X126167054Y-93620999D01*
X126189117Y-93647884D01*
X126335674Y-93768161D01*
X126335681Y-93768165D01*
X126502877Y-93857533D01*
X126502878Y-93857533D01*
X126502885Y-93857537D01*
X126684317Y-93912573D01*
X126684316Y-93912573D01*
X126701233Y-93914239D01*
X126873000Y-93931157D01*
X127061683Y-93912573D01*
X127243115Y-93857537D01*
X127410324Y-93768162D01*
X127556883Y-93647883D01*
X127677162Y-93501324D01*
X127766537Y-93334115D01*
X127821573Y-93152683D01*
X127840157Y-92964000D01*
X127821573Y-92775317D01*
X127766537Y-92593885D01*
X127765235Y-92591449D01*
X127677165Y-92426681D01*
X127677161Y-92426674D01*
X127556883Y-92280116D01*
X127410325Y-92159838D01*
X127410318Y-92159834D01*
X127243122Y-92070466D01*
X127243119Y-92070465D01*
X127243118Y-92070464D01*
X127243115Y-92070463D01*
X127061683Y-92015427D01*
X127061681Y-92015426D01*
X127061683Y-92015426D01*
X126873000Y-91996843D01*
X126684318Y-92015426D01*
X126577194Y-92047921D01*
X126502885Y-92070463D01*
X126502882Y-92070464D01*
X126502880Y-92070465D01*
X126502877Y-92070466D01*
X126335681Y-92159834D01*
X126335674Y-92159838D01*
X126189116Y-92280116D01*
X126167053Y-92307001D01*
X126109307Y-92346335D01*
X126039462Y-92348206D01*
X125979694Y-92312018D01*
X125948978Y-92249262D01*
X125947200Y-92228336D01*
X125947200Y-91159663D01*
X125966885Y-91092624D01*
X126019689Y-91046869D01*
X126088847Y-91036925D01*
X126152403Y-91065950D01*
X126167051Y-91080996D01*
X126171168Y-91086012D01*
X126189117Y-91107884D01*
X126335674Y-91228161D01*
X126335681Y-91228165D01*
X126502877Y-91317533D01*
X126502878Y-91317533D01*
X126502885Y-91317537D01*
X126684317Y-91372573D01*
X126684316Y-91372573D01*
X126701233Y-91374239D01*
X126873000Y-91391157D01*
X127061683Y-91372573D01*
X127243115Y-91317537D01*
X127410324Y-91228162D01*
X127556883Y-91107883D01*
X127677162Y-90961324D01*
X127708527Y-90902644D01*
X131488000Y-90902644D01*
X131494401Y-90962172D01*
X131494403Y-90962179D01*
X131544645Y-91096886D01*
X131544649Y-91096893D01*
X131630809Y-91211987D01*
X131630812Y-91211990D01*
X131745906Y-91298150D01*
X131745913Y-91298154D01*
X131880620Y-91348396D01*
X131880627Y-91348398D01*
X131940155Y-91354799D01*
X131940172Y-91354800D01*
X132338000Y-91354800D01*
X132338000Y-90504800D01*
X131488000Y-90504800D01*
X131488000Y-90902644D01*
X127708527Y-90902644D01*
X127766537Y-90794115D01*
X127821573Y-90612683D01*
X127840157Y-90424000D01*
X127821573Y-90235317D01*
X127766537Y-90053885D01*
X127766533Y-90053877D01*
X127677165Y-89886681D01*
X127677161Y-89886674D01*
X127556883Y-89740116D01*
X127410325Y-89619838D01*
X127410318Y-89619834D01*
X127386223Y-89606955D01*
X131488000Y-89606955D01*
X131488000Y-90004800D01*
X132714000Y-90004800D01*
X132781039Y-90024485D01*
X132826794Y-90077289D01*
X132838000Y-90128800D01*
X132838000Y-91354800D01*
X133142000Y-91354800D01*
X133209039Y-91374485D01*
X133254794Y-91427289D01*
X133266000Y-91478800D01*
X133266000Y-91800244D01*
X133272401Y-91859772D01*
X133272403Y-91859779D01*
X133322645Y-91994486D01*
X133322649Y-91994493D01*
X133408809Y-92109587D01*
X133408812Y-92109590D01*
X133523906Y-92195750D01*
X133523913Y-92195754D01*
X133658620Y-92245996D01*
X133658627Y-92245998D01*
X133718155Y-92252399D01*
X133718172Y-92252400D01*
X134116000Y-92252400D01*
X134616000Y-92252400D01*
X135013828Y-92252400D01*
X135013844Y-92252399D01*
X135073372Y-92245998D01*
X135073379Y-92245996D01*
X135208086Y-92195754D01*
X135208093Y-92195750D01*
X135323187Y-92109590D01*
X135323190Y-92109587D01*
X135409350Y-91994493D01*
X135409354Y-91994486D01*
X135459596Y-91859779D01*
X135459598Y-91859772D01*
X135465999Y-91800244D01*
X135466000Y-91800227D01*
X135466000Y-91402400D01*
X134616000Y-91402400D01*
X134616000Y-92252400D01*
X134116000Y-92252400D01*
X134116000Y-91186000D01*
X140865559Y-91186000D01*
X140885222Y-91322765D01*
X140934904Y-91431551D01*
X140942621Y-91448449D01*
X141033104Y-91552872D01*
X141033106Y-91552873D01*
X141033108Y-91552875D01*
X141149338Y-91627572D01*
X141149343Y-91627574D01*
X141281912Y-91666499D01*
X141281914Y-91666500D01*
X141281915Y-91666500D01*
X141420086Y-91666500D01*
X141420086Y-91666499D01*
X141552656Y-91627574D01*
X141552657Y-91627574D01*
X141552659Y-91627573D01*
X141664961Y-91555400D01*
X141732000Y-91535716D01*
X141799036Y-91555399D01*
X141864711Y-91597606D01*
X141911342Y-91627574D01*
X142043912Y-91666499D01*
X142043914Y-91666500D01*
X142043915Y-91666500D01*
X142182086Y-91666500D01*
X142182086Y-91666499D01*
X142314656Y-91627574D01*
X142314657Y-91627574D01*
X142314659Y-91627573D01*
X142426961Y-91555400D01*
X142494000Y-91535716D01*
X142561036Y-91555399D01*
X142626711Y-91597606D01*
X142673342Y-91627574D01*
X142805912Y-91666499D01*
X142805914Y-91666500D01*
X142855054Y-91666500D01*
X142922093Y-91686185D01*
X142967848Y-91738989D01*
X142977792Y-91772853D01*
X142993422Y-91881565D01*
X143046069Y-91996843D01*
X143050821Y-92007249D01*
X143141304Y-92111672D01*
X143141306Y-92111673D01*
X143141308Y-92111675D01*
X143257538Y-92186372D01*
X143257543Y-92186374D01*
X143390112Y-92225299D01*
X143390114Y-92225300D01*
X143390115Y-92225300D01*
X143528286Y-92225300D01*
X143528286Y-92225299D01*
X143660859Y-92186373D01*
X143679336Y-92174499D01*
X143777091Y-92111675D01*
X143777090Y-92111675D01*
X143777096Y-92111672D01*
X143867579Y-92007249D01*
X143924977Y-91881565D01*
X143944641Y-91744800D01*
X143924977Y-91608035D01*
X143920215Y-91597608D01*
X143867579Y-91482352D01*
X143867579Y-91482351D01*
X143777096Y-91377928D01*
X143777093Y-91377926D01*
X143777091Y-91377924D01*
X143710548Y-91335159D01*
X150459504Y-91335159D01*
X150479167Y-91471924D01*
X150518128Y-91557235D01*
X150536566Y-91597608D01*
X150627049Y-91702031D01*
X150627051Y-91702032D01*
X150627053Y-91702034D01*
X150743283Y-91776731D01*
X150743288Y-91776733D01*
X150846165Y-91806939D01*
X150867393Y-91813173D01*
X150875857Y-91815658D01*
X150875859Y-91815659D01*
X150875860Y-91815659D01*
X151014031Y-91815659D01*
X151014031Y-91815658D01*
X151146604Y-91776732D01*
X151147193Y-91776354D01*
X151250002Y-91710282D01*
X151262841Y-91702031D01*
X151353324Y-91597608D01*
X151410722Y-91471924D01*
X151430386Y-91335159D01*
X151410722Y-91198394D01*
X151407021Y-91190291D01*
X151364365Y-91096886D01*
X151353324Y-91072710D01*
X151262841Y-90968287D01*
X151262838Y-90968285D01*
X151262836Y-90968283D01*
X151146606Y-90893586D01*
X151146601Y-90893584D01*
X151014032Y-90854659D01*
X151014030Y-90854659D01*
X150875860Y-90854659D01*
X150875857Y-90854659D01*
X150743288Y-90893584D01*
X150743283Y-90893586D01*
X150627053Y-90968283D01*
X150627051Y-90968285D01*
X150536566Y-91072710D01*
X150536565Y-91072711D01*
X150479167Y-91198393D01*
X150459504Y-91335159D01*
X143710548Y-91335159D01*
X143660861Y-91303227D01*
X143660856Y-91303225D01*
X143528287Y-91264300D01*
X143528285Y-91264300D01*
X143479145Y-91264300D01*
X143412106Y-91244615D01*
X143366351Y-91191811D01*
X143356407Y-91157946D01*
X143353465Y-91137486D01*
X143340777Y-91049235D01*
X143339696Y-91046869D01*
X143301020Y-90962179D01*
X143283379Y-90923551D01*
X143192896Y-90819128D01*
X143192893Y-90819126D01*
X143192891Y-90819124D01*
X143076661Y-90744427D01*
X143076656Y-90744425D01*
X142944087Y-90705500D01*
X142944085Y-90705500D01*
X142805915Y-90705500D01*
X142805912Y-90705500D01*
X142673343Y-90744425D01*
X142561039Y-90816599D01*
X142494000Y-90836283D01*
X142426961Y-90816599D01*
X142326598Y-90752100D01*
X142314659Y-90744427D01*
X142314657Y-90744426D01*
X142314655Y-90744425D01*
X142314656Y-90744425D01*
X142182087Y-90705500D01*
X142182085Y-90705500D01*
X142043915Y-90705500D01*
X142043912Y-90705500D01*
X141911343Y-90744425D01*
X141799039Y-90816599D01*
X141732000Y-90836283D01*
X141664961Y-90816599D01*
X141564598Y-90752100D01*
X141552659Y-90744427D01*
X141552657Y-90744426D01*
X141552655Y-90744425D01*
X141552656Y-90744425D01*
X141420087Y-90705500D01*
X141420085Y-90705500D01*
X141281915Y-90705500D01*
X141281912Y-90705500D01*
X141149343Y-90744425D01*
X141149338Y-90744427D01*
X141033108Y-90819124D01*
X141033106Y-90819126D01*
X141033104Y-90819127D01*
X141033104Y-90819128D01*
X140968588Y-90893584D01*
X140942621Y-90923551D01*
X140942620Y-90923552D01*
X140885222Y-91049234D01*
X140865559Y-91186000D01*
X134116000Y-91186000D01*
X134116000Y-91026400D01*
X134135685Y-90959361D01*
X134188489Y-90913606D01*
X134240000Y-90902400D01*
X135466000Y-90902400D01*
X135466000Y-90504572D01*
X135465999Y-90504555D01*
X135459598Y-90445027D01*
X135459596Y-90445020D01*
X135409354Y-90310313D01*
X135409350Y-90310306D01*
X135323190Y-90195212D01*
X135323187Y-90195209D01*
X135208093Y-90109049D01*
X135208088Y-90109046D01*
X135072753Y-90058569D01*
X135016820Y-90016697D01*
X134992403Y-89951233D01*
X135007255Y-89882960D01*
X135047194Y-89839286D01*
X135110552Y-89796952D01*
X135154867Y-89730631D01*
X135154867Y-89730629D01*
X135154868Y-89730629D01*
X135164510Y-89682150D01*
X135166500Y-89672148D01*
X135166500Y-89662000D01*
X138579559Y-89662000D01*
X138599222Y-89798765D01*
X138648904Y-89907551D01*
X138656621Y-89924449D01*
X138747104Y-90028872D01*
X138747106Y-90028873D01*
X138747108Y-90028875D01*
X138863338Y-90103572D01*
X138863343Y-90103574D01*
X138995912Y-90142499D01*
X138995914Y-90142500D01*
X138995915Y-90142500D01*
X139134086Y-90142500D01*
X139134086Y-90142499D01*
X139236964Y-90112292D01*
X139266656Y-90103574D01*
X139266657Y-90103573D01*
X139266659Y-90103573D01*
X139273578Y-90099127D01*
X139376107Y-90033235D01*
X139382896Y-90028872D01*
X139473379Y-89924449D01*
X139523637Y-89814400D01*
X145564559Y-89814400D01*
X145584222Y-89951165D01*
X145633273Y-90058569D01*
X145641621Y-90076849D01*
X145732104Y-90181272D01*
X145732106Y-90181273D01*
X145732108Y-90181275D01*
X145848338Y-90255972D01*
X145848343Y-90255974D01*
X145980912Y-90294899D01*
X145980914Y-90294900D01*
X145980915Y-90294900D01*
X146119086Y-90294900D01*
X146119086Y-90294899D01*
X146251659Y-90255973D01*
X146283801Y-90235317D01*
X146346205Y-90195212D01*
X146367896Y-90181272D01*
X146377663Y-90170000D01*
X149374559Y-90170000D01*
X149394222Y-90306765D01*
X149440622Y-90408365D01*
X149451621Y-90432449D01*
X149542104Y-90536872D01*
X149542106Y-90536873D01*
X149542108Y-90536875D01*
X149658338Y-90611572D01*
X149658343Y-90611574D01*
X149790912Y-90650499D01*
X149790914Y-90650500D01*
X149790915Y-90650500D01*
X149929086Y-90650500D01*
X149929086Y-90650499D01*
X150057879Y-90612683D01*
X150061656Y-90611574D01*
X150061657Y-90611573D01*
X150061659Y-90611573D01*
X150177896Y-90536872D01*
X150268379Y-90432449D01*
X150325777Y-90306765D01*
X150345441Y-90170000D01*
X150325777Y-90033235D01*
X150325271Y-90032128D01*
X150276096Y-89924449D01*
X150268379Y-89907551D01*
X150177896Y-89803128D01*
X150177893Y-89803126D01*
X150177891Y-89803124D01*
X150061661Y-89728427D01*
X150061656Y-89728425D01*
X149929087Y-89689500D01*
X149929085Y-89689500D01*
X149790915Y-89689500D01*
X149790912Y-89689500D01*
X149658343Y-89728425D01*
X149658338Y-89728427D01*
X149542108Y-89803124D01*
X149542106Y-89803126D01*
X149542104Y-89803127D01*
X149542104Y-89803128D01*
X149501860Y-89849572D01*
X149451621Y-89907551D01*
X149451620Y-89907552D01*
X149394222Y-90033234D01*
X149374559Y-90170000D01*
X146377663Y-90170000D01*
X146458379Y-90076849D01*
X146515777Y-89951165D01*
X146535441Y-89814400D01*
X146515777Y-89677635D01*
X146513784Y-89673272D01*
X146485568Y-89611486D01*
X146458379Y-89551951D01*
X146367896Y-89447528D01*
X146367893Y-89447526D01*
X146367891Y-89447524D01*
X146251661Y-89372827D01*
X146251656Y-89372825D01*
X146119087Y-89333900D01*
X146119085Y-89333900D01*
X145980915Y-89333900D01*
X145980912Y-89333900D01*
X145848343Y-89372825D01*
X145848338Y-89372827D01*
X145732108Y-89447524D01*
X145732106Y-89447526D01*
X145732104Y-89447527D01*
X145732104Y-89447528D01*
X145660239Y-89530465D01*
X145641621Y-89551951D01*
X145641620Y-89551952D01*
X145584222Y-89677634D01*
X145564559Y-89814400D01*
X139523637Y-89814400D01*
X139530777Y-89798765D01*
X139545798Y-89694291D01*
X139574823Y-89630736D01*
X139633601Y-89592962D01*
X139633602Y-89592962D01*
X139774656Y-89551545D01*
X139774657Y-89551544D01*
X139774659Y-89551544D01*
X139781066Y-89547427D01*
X139877690Y-89485330D01*
X139890896Y-89476843D01*
X139981379Y-89372420D01*
X140038777Y-89246736D01*
X140052401Y-89151977D01*
X140081426Y-89088423D01*
X140140202Y-89050649D01*
X140235733Y-89022599D01*
X140351970Y-88947898D01*
X140442453Y-88843475D01*
X140463038Y-88798400D01*
X141398959Y-88798400D01*
X141418622Y-88935165D01*
X141468215Y-89043756D01*
X141476021Y-89060849D01*
X141566504Y-89165272D01*
X141566506Y-89165273D01*
X141566508Y-89165275D01*
X141682738Y-89239972D01*
X141682743Y-89239974D01*
X141815312Y-89278899D01*
X141815314Y-89278900D01*
X141815315Y-89278900D01*
X141953486Y-89278900D01*
X141953486Y-89278899D01*
X142086059Y-89239973D01*
X142086682Y-89239573D01*
X142165583Y-89188866D01*
X142202296Y-89165272D01*
X142292779Y-89060849D01*
X142350177Y-88935165D01*
X142369841Y-88798400D01*
X142352648Y-88678826D01*
X142350177Y-88661634D01*
X142316569Y-88588043D01*
X142292779Y-88535951D01*
X142202296Y-88431528D01*
X142202293Y-88431526D01*
X142202291Y-88431524D01*
X142086061Y-88356827D01*
X142086056Y-88356825D01*
X141953487Y-88317900D01*
X141953485Y-88317900D01*
X141815315Y-88317900D01*
X141815312Y-88317900D01*
X141682743Y-88356825D01*
X141682738Y-88356827D01*
X141566508Y-88431524D01*
X141566506Y-88431526D01*
X141566504Y-88431527D01*
X141566504Y-88431528D01*
X141531625Y-88471781D01*
X141476021Y-88535951D01*
X141476020Y-88535952D01*
X141418622Y-88661634D01*
X141398959Y-88798400D01*
X140463038Y-88798400D01*
X140499851Y-88717791D01*
X140519515Y-88581026D01*
X140499851Y-88444261D01*
X140497659Y-88439462D01*
X140445648Y-88325573D01*
X140442453Y-88318577D01*
X140351970Y-88214154D01*
X140351967Y-88214152D01*
X140351965Y-88214150D01*
X140235735Y-88139453D01*
X140235732Y-88139452D01*
X140146371Y-88113213D01*
X140133448Y-88104908D01*
X145540440Y-88104908D01*
X145560103Y-88241673D01*
X145598420Y-88325574D01*
X145617502Y-88367357D01*
X145707985Y-88471780D01*
X145707987Y-88471781D01*
X145707989Y-88471783D01*
X145824219Y-88546480D01*
X145824224Y-88546482D01*
X145887636Y-88565101D01*
X145956796Y-88585408D01*
X145956800Y-88585408D01*
X145965573Y-88586670D01*
X145965375Y-88588043D01*
X146023439Y-88605093D01*
X146069194Y-88657897D01*
X146079138Y-88691761D01*
X146092222Y-88782765D01*
X146148955Y-88906990D01*
X146149621Y-88908449D01*
X146240104Y-89012872D01*
X146240106Y-89012873D01*
X146240108Y-89012875D01*
X146356338Y-89087572D01*
X146356343Y-89087574D01*
X146488912Y-89126499D01*
X146488914Y-89126500D01*
X146488915Y-89126500D01*
X146627086Y-89126500D01*
X146627086Y-89126499D01*
X146729964Y-89096292D01*
X146759656Y-89087574D01*
X146759657Y-89087573D01*
X146759659Y-89087573D01*
X146775055Y-89077679D01*
X146875891Y-89012875D01*
X146875890Y-89012875D01*
X146875896Y-89012872D01*
X146966379Y-88908449D01*
X147023777Y-88782765D01*
X147043441Y-88646000D01*
X147023777Y-88509235D01*
X147023657Y-88508973D01*
X146991911Y-88439459D01*
X146966379Y-88383551D01*
X146875896Y-88279128D01*
X146875893Y-88279126D01*
X146875891Y-88279124D01*
X146759661Y-88204427D01*
X146759656Y-88204425D01*
X146627087Y-88165500D01*
X146618308Y-88164238D01*
X146618505Y-88162864D01*
X146560442Y-88145815D01*
X146514687Y-88093011D01*
X146504743Y-88059147D01*
X146491658Y-87968142D01*
X146462959Y-87905301D01*
X146453231Y-87884000D01*
X150517559Y-87884000D01*
X150537222Y-88020765D01*
X150591426Y-88139453D01*
X150594621Y-88146449D01*
X150685104Y-88250872D01*
X150685106Y-88250873D01*
X150685108Y-88250875D01*
X150801338Y-88325572D01*
X150801343Y-88325574D01*
X150933912Y-88364499D01*
X150933914Y-88364500D01*
X150933915Y-88364500D01*
X151072086Y-88364500D01*
X151072086Y-88364499D01*
X151204659Y-88325573D01*
X151215544Y-88318578D01*
X151276935Y-88279124D01*
X151320896Y-88250872D01*
X151411379Y-88146449D01*
X151468777Y-88020765D01*
X151488441Y-87884000D01*
X151468777Y-87747235D01*
X151464574Y-87738032D01*
X151425362Y-87652169D01*
X151411379Y-87621551D01*
X151320896Y-87517128D01*
X151320893Y-87517126D01*
X151320891Y-87517124D01*
X151204661Y-87442427D01*
X151204656Y-87442425D01*
X151072087Y-87403500D01*
X151072085Y-87403500D01*
X150933915Y-87403500D01*
X150933912Y-87403500D01*
X150801343Y-87442425D01*
X150801338Y-87442427D01*
X150685108Y-87517124D01*
X150685106Y-87517126D01*
X150685104Y-87517127D01*
X150685104Y-87517128D01*
X150604175Y-87610525D01*
X150594621Y-87621551D01*
X150594620Y-87621552D01*
X150537222Y-87747234D01*
X150517559Y-87884000D01*
X146453231Y-87884000D01*
X146434260Y-87842459D01*
X146343777Y-87738036D01*
X146343774Y-87738034D01*
X146343772Y-87738032D01*
X146227542Y-87663335D01*
X146227537Y-87663333D01*
X146094968Y-87624408D01*
X146094966Y-87624408D01*
X145956796Y-87624408D01*
X145956793Y-87624408D01*
X145824224Y-87663333D01*
X145824219Y-87663335D01*
X145707989Y-87738032D01*
X145707987Y-87738034D01*
X145707985Y-87738035D01*
X145707985Y-87738036D01*
X145646363Y-87809152D01*
X145617502Y-87842459D01*
X145617501Y-87842460D01*
X145560103Y-87968142D01*
X145540440Y-88104908D01*
X140133448Y-88104908D01*
X140087593Y-88075438D01*
X140058568Y-88011883D01*
X140038777Y-87874234D01*
X139998536Y-87786120D01*
X139981379Y-87748551D01*
X139890896Y-87644128D01*
X139890893Y-87644126D01*
X139890891Y-87644124D01*
X139774661Y-87569427D01*
X139774656Y-87569425D01*
X139642087Y-87530500D01*
X139642085Y-87530500D01*
X139503915Y-87530500D01*
X139503912Y-87530500D01*
X139371343Y-87569425D01*
X139371338Y-87569427D01*
X139255108Y-87644124D01*
X139255106Y-87644126D01*
X139255104Y-87644127D01*
X139255104Y-87644128D01*
X139221015Y-87683469D01*
X139164621Y-87748551D01*
X139164620Y-87748552D01*
X139107222Y-87874234D01*
X139087559Y-88011000D01*
X139107222Y-88147765D01*
X139156302Y-88255234D01*
X139164621Y-88273449D01*
X139255104Y-88377872D01*
X139371341Y-88452573D01*
X139376937Y-88456169D01*
X139422692Y-88508973D01*
X139432636Y-88578132D01*
X139403611Y-88641688D01*
X139376938Y-88664800D01*
X139255106Y-88743097D01*
X139255104Y-88743098D01*
X139255104Y-88743099D01*
X139197418Y-88809672D01*
X139164621Y-88847522D01*
X139164620Y-88847523D01*
X139107222Y-88973205D01*
X139092201Y-89077679D01*
X139063175Y-89141235D01*
X139004398Y-89179008D01*
X138863341Y-89220426D01*
X138863338Y-89220427D01*
X138747108Y-89295124D01*
X138747106Y-89295126D01*
X138747104Y-89295127D01*
X138747104Y-89295128D01*
X138673649Y-89379900D01*
X138656621Y-89399551D01*
X138656620Y-89399552D01*
X138599222Y-89525234D01*
X138579559Y-89662000D01*
X135166500Y-89662000D01*
X135166500Y-89503900D01*
X135186185Y-89436861D01*
X135238989Y-89391106D01*
X135290500Y-89379900D01*
X136783816Y-89379900D01*
X136816444Y-89384270D01*
X136959696Y-89423340D01*
X137233419Y-89497996D01*
X137241486Y-89498824D01*
X137263745Y-89503195D01*
X137335470Y-89524256D01*
X137335471Y-89524256D01*
X137473641Y-89524256D01*
X137473641Y-89524255D01*
X137606214Y-89485329D01*
X137615554Y-89479327D01*
X137681632Y-89436861D01*
X137722451Y-89410628D01*
X137812934Y-89306205D01*
X137870332Y-89180521D01*
X137889996Y-89043756D01*
X137870542Y-88908449D01*
X137870332Y-88906990D01*
X137841324Y-88843473D01*
X137812934Y-88781307D01*
X137722451Y-88676884D01*
X137722448Y-88676882D01*
X137722446Y-88676880D01*
X137606216Y-88602183D01*
X137606211Y-88602181D01*
X137473642Y-88563256D01*
X137473640Y-88563256D01*
X137335470Y-88563256D01*
X137335468Y-88563256D01*
X137254696Y-88586972D01*
X137232795Y-88591308D01*
X137226205Y-88592004D01*
X137226204Y-88592004D01*
X136816965Y-88719304D01*
X136780134Y-88724900D01*
X136544905Y-88724900D01*
X136477866Y-88705215D01*
X136432111Y-88652411D01*
X136422167Y-88583253D01*
X136451192Y-88519697D01*
X136509970Y-88481923D01*
X136512768Y-88481137D01*
X136591722Y-88459981D01*
X136607502Y-88450869D01*
X136654967Y-88435111D01*
X136687989Y-88431215D01*
X136687994Y-88431213D01*
X136687998Y-88431213D01*
X136693036Y-88430190D01*
X136693111Y-88430561D01*
X136722150Y-88426418D01*
X136743280Y-88426418D01*
X136743280Y-88426417D01*
X136875853Y-88387491D01*
X136881983Y-88383552D01*
X136942363Y-88344747D01*
X136992090Y-88312790D01*
X137082573Y-88208367D01*
X137139971Y-88082683D01*
X137159635Y-87945918D01*
X137142142Y-87824254D01*
X137139971Y-87809152D01*
X137107491Y-87738032D01*
X137082573Y-87683469D01*
X136992090Y-87579046D01*
X136992087Y-87579044D01*
X136992085Y-87579042D01*
X136875855Y-87504345D01*
X136875850Y-87504343D01*
X136743281Y-87465418D01*
X136743279Y-87465418D01*
X136605109Y-87465418D01*
X136596690Y-87467890D01*
X136526821Y-87467889D01*
X136498532Y-87449708D01*
X136496233Y-87465710D01*
X136450482Y-87518517D01*
X136450476Y-87518520D01*
X136356300Y-87579044D01*
X136356291Y-87579052D01*
X136346971Y-87589807D01*
X136322986Y-87611141D01*
X136321506Y-87612147D01*
X136321498Y-87612153D01*
X136220201Y-87715062D01*
X136147733Y-87788683D01*
X136146154Y-87790287D01*
X136085097Y-87824254D01*
X136057784Y-87827300D01*
X133512500Y-87827300D01*
X133445461Y-87807615D01*
X133399706Y-87754811D01*
X133388500Y-87703300D01*
X133388500Y-87535049D01*
X133388499Y-87535047D01*
X133376868Y-87476570D01*
X133376867Y-87476569D01*
X133332552Y-87410247D01*
X133266230Y-87365932D01*
X133266229Y-87365931D01*
X133207752Y-87354300D01*
X133207748Y-87354300D01*
X131968252Y-87354300D01*
X131968247Y-87354300D01*
X131909770Y-87365931D01*
X131909769Y-87365932D01*
X131843447Y-87410247D01*
X131799132Y-87476569D01*
X131799131Y-87476570D01*
X131787500Y-87535047D01*
X131787500Y-88774552D01*
X131799131Y-88833029D01*
X131799132Y-88833030D01*
X131843447Y-88899352D01*
X131906803Y-88941685D01*
X131951608Y-88995297D01*
X131960315Y-89064622D01*
X131930160Y-89127650D01*
X131881246Y-89160969D01*
X131745912Y-89211446D01*
X131745906Y-89211449D01*
X131630812Y-89297609D01*
X131630809Y-89297612D01*
X131544649Y-89412706D01*
X131544645Y-89412713D01*
X131494403Y-89547420D01*
X131494401Y-89547427D01*
X131488000Y-89606955D01*
X127386223Y-89606955D01*
X127243122Y-89530466D01*
X127243119Y-89530465D01*
X127243118Y-89530464D01*
X127243115Y-89530463D01*
X127061683Y-89475427D01*
X127061681Y-89475426D01*
X127061683Y-89475426D01*
X126873000Y-89456843D01*
X126684318Y-89475426D01*
X126589032Y-89504331D01*
X126502885Y-89530463D01*
X126502882Y-89530464D01*
X126502880Y-89530465D01*
X126502877Y-89530466D01*
X126335681Y-89619834D01*
X126335674Y-89619838D01*
X126189116Y-89740116D01*
X126167053Y-89767001D01*
X126109307Y-89806335D01*
X126039462Y-89808206D01*
X125979694Y-89772018D01*
X125948978Y-89709262D01*
X125947200Y-89688336D01*
X125947200Y-88619663D01*
X125966885Y-88552624D01*
X126019689Y-88506869D01*
X126088847Y-88496925D01*
X126152403Y-88525950D01*
X126167051Y-88540996D01*
X126173270Y-88548573D01*
X126189117Y-88567884D01*
X126335674Y-88688161D01*
X126335681Y-88688165D01*
X126502877Y-88777533D01*
X126502878Y-88777533D01*
X126502885Y-88777537D01*
X126684317Y-88832573D01*
X126684316Y-88832573D01*
X126694470Y-88833573D01*
X126873000Y-88851157D01*
X127061683Y-88832573D01*
X127243115Y-88777537D01*
X127410324Y-88688162D01*
X127556883Y-88567883D01*
X127677162Y-88421324D01*
X127766537Y-88254115D01*
X127821573Y-88072683D01*
X127840157Y-87884000D01*
X127821573Y-87695317D01*
X127766537Y-87513885D01*
X127763582Y-87508356D01*
X127677165Y-87346681D01*
X127677161Y-87346674D01*
X127556883Y-87200116D01*
X127410325Y-87079838D01*
X127410318Y-87079834D01*
X127243122Y-86990466D01*
X127243119Y-86990465D01*
X127243118Y-86990464D01*
X127243115Y-86990463D01*
X127061683Y-86935427D01*
X127061681Y-86935426D01*
X127061683Y-86935426D01*
X126873000Y-86916843D01*
X126684318Y-86935426D01*
X126577194Y-86967921D01*
X126502885Y-86990463D01*
X126502882Y-86990464D01*
X126502880Y-86990465D01*
X126502877Y-86990466D01*
X126335681Y-87079834D01*
X126335674Y-87079838D01*
X126189116Y-87200116D01*
X126167053Y-87227001D01*
X126109307Y-87266335D01*
X126039462Y-87268206D01*
X125979694Y-87232018D01*
X125948978Y-87169262D01*
X125947200Y-87148336D01*
X125947200Y-86079663D01*
X125966885Y-86012624D01*
X126019689Y-85966869D01*
X126088847Y-85956925D01*
X126152403Y-85985950D01*
X126167054Y-86000999D01*
X126189117Y-86027884D01*
X126335674Y-86148161D01*
X126335681Y-86148165D01*
X126502877Y-86237533D01*
X126502878Y-86237533D01*
X126502885Y-86237537D01*
X126684317Y-86292573D01*
X126684316Y-86292573D01*
X126701233Y-86294239D01*
X126873000Y-86311157D01*
X127061683Y-86292573D01*
X127243115Y-86237537D01*
X127410324Y-86148162D01*
X127556883Y-86027883D01*
X127677162Y-85881324D01*
X127766537Y-85714115D01*
X127766800Y-85713247D01*
X128458500Y-85713247D01*
X128458500Y-86752752D01*
X128470131Y-86811229D01*
X128470132Y-86811230D01*
X128514447Y-86877552D01*
X128580769Y-86921867D01*
X128580770Y-86921868D01*
X128639247Y-86933499D01*
X128639250Y-86933500D01*
X128639252Y-86933500D01*
X129678750Y-86933500D01*
X129678751Y-86933499D01*
X129693568Y-86930552D01*
X129737229Y-86921868D01*
X129737229Y-86921867D01*
X129737231Y-86921867D01*
X129803552Y-86877552D01*
X129847867Y-86811231D01*
X129847867Y-86811229D01*
X129847868Y-86811229D01*
X129858182Y-86759375D01*
X129859500Y-86752748D01*
X129859500Y-85713252D01*
X129859500Y-85713249D01*
X129859499Y-85713247D01*
X129847868Y-85654770D01*
X129847867Y-85654769D01*
X129803552Y-85588447D01*
X129737230Y-85544132D01*
X129737229Y-85544131D01*
X129678752Y-85532500D01*
X129678748Y-85532500D01*
X128639252Y-85532500D01*
X128639247Y-85532500D01*
X128580770Y-85544131D01*
X128580769Y-85544132D01*
X128514447Y-85588447D01*
X128470132Y-85654769D01*
X128470131Y-85654770D01*
X128458500Y-85713247D01*
X127766800Y-85713247D01*
X127821573Y-85532683D01*
X127840157Y-85344000D01*
X127821573Y-85155317D01*
X127766537Y-84973885D01*
X127765942Y-84972772D01*
X127677165Y-84806681D01*
X127677161Y-84806674D01*
X127556883Y-84660116D01*
X127410325Y-84539838D01*
X127410318Y-84539834D01*
X127243122Y-84450466D01*
X127243119Y-84450465D01*
X127243118Y-84450464D01*
X127243115Y-84450463D01*
X127061683Y-84395427D01*
X127061681Y-84395426D01*
X127061683Y-84395426D01*
X126873000Y-84376843D01*
X126684318Y-84395426D01*
X126577194Y-84427921D01*
X126502885Y-84450463D01*
X126502882Y-84450464D01*
X126502880Y-84450465D01*
X126502877Y-84450466D01*
X126335681Y-84539834D01*
X126335674Y-84539838D01*
X126189116Y-84660116D01*
X126167053Y-84687001D01*
X126109307Y-84726335D01*
X126039462Y-84728206D01*
X125979694Y-84692018D01*
X125948978Y-84629262D01*
X125947200Y-84608336D01*
X125947200Y-82538247D01*
X126426500Y-82538247D01*
X126426500Y-83577752D01*
X126438131Y-83636229D01*
X126438132Y-83636230D01*
X126482447Y-83702552D01*
X126548769Y-83746867D01*
X126548770Y-83746868D01*
X126607247Y-83758499D01*
X126607250Y-83758500D01*
X126607252Y-83758500D01*
X127646750Y-83758500D01*
X127646751Y-83758499D01*
X127661568Y-83755552D01*
X127705229Y-83746868D01*
X127705229Y-83746867D01*
X127705231Y-83746867D01*
X127771552Y-83702552D01*
X127785788Y-83681247D01*
X128458500Y-83681247D01*
X128458500Y-84720752D01*
X128470131Y-84779229D01*
X128470132Y-84779230D01*
X128514447Y-84845552D01*
X128580769Y-84889867D01*
X128580770Y-84889868D01*
X128639247Y-84901499D01*
X128639250Y-84901500D01*
X128639252Y-84901500D01*
X129678750Y-84901500D01*
X129678751Y-84901499D01*
X129699310Y-84897410D01*
X129737229Y-84889868D01*
X129737229Y-84889867D01*
X129737231Y-84889867D01*
X129803552Y-84845552D01*
X129847867Y-84779231D01*
X129847867Y-84779229D01*
X129847868Y-84779229D01*
X129857554Y-84730533D01*
X129859500Y-84720748D01*
X129859500Y-83681252D01*
X129859500Y-83681249D01*
X129859499Y-83681247D01*
X129847868Y-83622770D01*
X129847867Y-83622769D01*
X129803552Y-83556447D01*
X129737230Y-83512132D01*
X129737229Y-83512131D01*
X129678752Y-83500500D01*
X129678748Y-83500500D01*
X128639252Y-83500500D01*
X128639247Y-83500500D01*
X128580770Y-83512131D01*
X128580769Y-83512132D01*
X128514447Y-83556447D01*
X128470132Y-83622769D01*
X128470131Y-83622770D01*
X128458500Y-83681247D01*
X127785788Y-83681247D01*
X127815867Y-83636231D01*
X127815867Y-83636229D01*
X127815868Y-83636229D01*
X127827499Y-83577752D01*
X127827500Y-83577750D01*
X127827500Y-82538249D01*
X127827499Y-82538247D01*
X127815868Y-82479770D01*
X127815867Y-82479769D01*
X127771552Y-82413447D01*
X127705230Y-82369132D01*
X127705229Y-82369131D01*
X127646752Y-82357500D01*
X127646748Y-82357500D01*
X126607252Y-82357500D01*
X126607247Y-82357500D01*
X126548770Y-82369131D01*
X126548769Y-82369132D01*
X126482447Y-82413447D01*
X126438132Y-82479769D01*
X126438131Y-82479770D01*
X126426500Y-82538247D01*
X125947200Y-82538247D01*
X125947200Y-81178400D01*
X126616159Y-81178400D01*
X126635822Y-81315165D01*
X126692287Y-81438803D01*
X126693221Y-81440849D01*
X126783704Y-81545272D01*
X126783706Y-81545273D01*
X126783708Y-81545275D01*
X126899938Y-81619972D01*
X126899943Y-81619974D01*
X127032512Y-81658899D01*
X127032514Y-81658900D01*
X127032515Y-81658900D01*
X127170686Y-81658900D01*
X127170686Y-81658899D01*
X127303259Y-81619973D01*
X127322668Y-81607500D01*
X127419491Y-81545275D01*
X127419490Y-81545275D01*
X127419496Y-81545272D01*
X127509979Y-81440849D01*
X127567377Y-81315165D01*
X127587041Y-81178400D01*
X127567377Y-81041635D01*
X127566002Y-81038625D01*
X127524230Y-80947156D01*
X127509979Y-80915951D01*
X127419496Y-80811528D01*
X127419493Y-80811526D01*
X127419491Y-80811524D01*
X127303261Y-80736827D01*
X127303256Y-80736825D01*
X127170687Y-80697900D01*
X127170685Y-80697900D01*
X127032515Y-80697900D01*
X127032512Y-80697900D01*
X126899943Y-80736825D01*
X126899938Y-80736827D01*
X126783708Y-80811524D01*
X126783706Y-80811526D01*
X126783704Y-80811527D01*
X126783704Y-80811528D01*
X126707910Y-80898999D01*
X126693221Y-80915951D01*
X126693220Y-80915952D01*
X126635822Y-81041634D01*
X126616159Y-81178400D01*
X125947200Y-81178400D01*
X125947200Y-79375000D01*
X126641559Y-79375000D01*
X126661222Y-79511765D01*
X126706033Y-79609885D01*
X126718621Y-79637449D01*
X126809104Y-79741872D01*
X126809106Y-79741873D01*
X126809108Y-79741875D01*
X126925338Y-79816572D01*
X126925343Y-79816574D01*
X127057912Y-79855499D01*
X127057914Y-79855500D01*
X127057915Y-79855500D01*
X127196086Y-79855500D01*
X127196086Y-79855499D01*
X127328659Y-79816573D01*
X127337252Y-79811051D01*
X127444891Y-79741875D01*
X127444890Y-79741875D01*
X127444896Y-79741872D01*
X127535379Y-79637449D01*
X127592777Y-79511765D01*
X127612441Y-79375000D01*
X127592777Y-79238235D01*
X127570963Y-79190470D01*
X127553186Y-79151543D01*
X127535379Y-79112551D01*
X127444896Y-79008128D01*
X127444893Y-79008126D01*
X127444891Y-79008124D01*
X127328661Y-78933427D01*
X127328656Y-78933425D01*
X127196087Y-78894500D01*
X127196085Y-78894500D01*
X127057915Y-78894500D01*
X127057912Y-78894500D01*
X126925343Y-78933425D01*
X126925338Y-78933427D01*
X126809108Y-79008124D01*
X126809106Y-79008126D01*
X126718621Y-79112551D01*
X126718620Y-79112552D01*
X126661222Y-79238234D01*
X126641559Y-79375000D01*
X125947200Y-79375000D01*
X125947200Y-78274500D01*
X125966885Y-78207461D01*
X126019689Y-78161706D01*
X126071200Y-78150500D01*
X129812393Y-78150500D01*
X129879432Y-78170185D01*
G37*
%TD.AperFunction*%
%TA.AperFunction,Conductor*%
G36*
X172067049Y-78170185D02*
G01*
X172112804Y-78222989D01*
X172122748Y-78292147D01*
X172119412Y-78304307D01*
X172105500Y-78374247D01*
X172105500Y-79613752D01*
X172117131Y-79672229D01*
X172117132Y-79672230D01*
X172161447Y-79738552D01*
X172227769Y-79782867D01*
X172227770Y-79782868D01*
X172286247Y-79794499D01*
X172286250Y-79794500D01*
X172286252Y-79794500D01*
X173525750Y-79794500D01*
X173525751Y-79794499D01*
X173541750Y-79791317D01*
X173584229Y-79782868D01*
X173584229Y-79782867D01*
X173584231Y-79782867D01*
X173650552Y-79738552D01*
X173692886Y-79675194D01*
X173746496Y-79630391D01*
X173815821Y-79621684D01*
X173878849Y-79651838D01*
X173912169Y-79700753D01*
X173962646Y-79836088D01*
X173962649Y-79836093D01*
X174048809Y-79951187D01*
X174048812Y-79951190D01*
X174163906Y-80037350D01*
X174163913Y-80037354D01*
X174298620Y-80087596D01*
X174298627Y-80087598D01*
X174358155Y-80093999D01*
X174358172Y-80094000D01*
X174756000Y-80094000D01*
X175256000Y-80094000D01*
X175653828Y-80094000D01*
X175653844Y-80093999D01*
X175713372Y-80087598D01*
X175713379Y-80087596D01*
X175848086Y-80037354D01*
X175848093Y-80037350D01*
X175963187Y-79951190D01*
X175963190Y-79951187D01*
X176049350Y-79836093D01*
X176049354Y-79836086D01*
X176099596Y-79701379D01*
X176099598Y-79701372D01*
X176105999Y-79641844D01*
X176106000Y-79641827D01*
X176106000Y-79244000D01*
X175256000Y-79244000D01*
X175256000Y-80094000D01*
X174756000Y-80094000D01*
X174756000Y-78868000D01*
X174775685Y-78800961D01*
X174828489Y-78755206D01*
X174880000Y-78744000D01*
X176106000Y-78744000D01*
X176106000Y-78346172D01*
X176105999Y-78346155D01*
X176099720Y-78287756D01*
X176112125Y-78218996D01*
X176159735Y-78167859D01*
X176223009Y-78150500D01*
X186795452Y-78150500D01*
X186862491Y-78170185D01*
X186908246Y-78222989D01*
X186918190Y-78292147D01*
X186898554Y-78343391D01*
X186850191Y-78415769D01*
X186850190Y-78415770D01*
X186838559Y-78474247D01*
X186838559Y-79513752D01*
X186850190Y-79572229D01*
X186850191Y-79572230D01*
X186894506Y-79638552D01*
X186960828Y-79682867D01*
X186960829Y-79682868D01*
X187019306Y-79694499D01*
X187019309Y-79694500D01*
X187019311Y-79694500D01*
X188058809Y-79694500D01*
X188058810Y-79694499D01*
X188073627Y-79691552D01*
X188117288Y-79682868D01*
X188117288Y-79682867D01*
X188117290Y-79682867D01*
X188183611Y-79638552D01*
X188227926Y-79572231D01*
X188227926Y-79572229D01*
X188227927Y-79572229D01*
X188239558Y-79513752D01*
X188239559Y-79513750D01*
X188239559Y-78474249D01*
X188239558Y-78474247D01*
X188227927Y-78415770D01*
X188227926Y-78415769D01*
X188179564Y-78343391D01*
X188158686Y-78276714D01*
X188177170Y-78209334D01*
X188229149Y-78162643D01*
X188282666Y-78150500D01*
X188510480Y-78150500D01*
X188577519Y-78170185D01*
X188623274Y-78222989D01*
X188633218Y-78292147D01*
X188629882Y-78304307D01*
X188615970Y-78374247D01*
X188615970Y-79613752D01*
X188627601Y-79672229D01*
X188627602Y-79672230D01*
X188671917Y-79738552D01*
X188738239Y-79782867D01*
X188738240Y-79782868D01*
X188796717Y-79794499D01*
X188796720Y-79794500D01*
X188796722Y-79794500D01*
X190036220Y-79794500D01*
X190036221Y-79794499D01*
X190052220Y-79791317D01*
X190094699Y-79782868D01*
X190094699Y-79782867D01*
X190094701Y-79782867D01*
X190161022Y-79738552D01*
X190203356Y-79675194D01*
X190256966Y-79630391D01*
X190326291Y-79621684D01*
X190389319Y-79651838D01*
X190422639Y-79700753D01*
X190473116Y-79836088D01*
X190473119Y-79836093D01*
X190559279Y-79951187D01*
X190559282Y-79951190D01*
X190674376Y-80037350D01*
X190674383Y-80037354D01*
X190809090Y-80087596D01*
X190809097Y-80087598D01*
X190868625Y-80093999D01*
X190868642Y-80094000D01*
X191266470Y-80094000D01*
X191766470Y-80094000D01*
X192164298Y-80094000D01*
X192164314Y-80093999D01*
X192223842Y-80087598D01*
X192223849Y-80087596D01*
X192358556Y-80037354D01*
X192358563Y-80037350D01*
X192473657Y-79951190D01*
X192473660Y-79951187D01*
X192559820Y-79836093D01*
X192559824Y-79836086D01*
X192610066Y-79701379D01*
X192610068Y-79701372D01*
X192616469Y-79641844D01*
X192616470Y-79641827D01*
X192616470Y-79244000D01*
X191766470Y-79244000D01*
X191766470Y-80094000D01*
X191266470Y-80094000D01*
X191266470Y-78868000D01*
X191286155Y-78800961D01*
X191338959Y-78755206D01*
X191390470Y-78744000D01*
X192616470Y-78744000D01*
X192616470Y-78346172D01*
X192616469Y-78346155D01*
X192610190Y-78287756D01*
X192622595Y-78218996D01*
X192670205Y-78167859D01*
X192733479Y-78150500D01*
X200256393Y-78150500D01*
X200323432Y-78170185D01*
X200369187Y-78222989D01*
X200379131Y-78292147D01*
X200359495Y-78343391D01*
X200311132Y-78415769D01*
X200311131Y-78415770D01*
X200299500Y-78474247D01*
X200299500Y-79513752D01*
X200311131Y-79572229D01*
X200311132Y-79572230D01*
X200355447Y-79638552D01*
X200421769Y-79682867D01*
X200421770Y-79682868D01*
X200480247Y-79694499D01*
X200480250Y-79694500D01*
X200480252Y-79694500D01*
X201519750Y-79694500D01*
X201519751Y-79694499D01*
X201534568Y-79691552D01*
X201578229Y-79682868D01*
X201578229Y-79682867D01*
X201578231Y-79682867D01*
X201644552Y-79638552D01*
X201688867Y-79572231D01*
X201688867Y-79572229D01*
X201688868Y-79572229D01*
X201700499Y-79513752D01*
X201700500Y-79513750D01*
X201700500Y-78474249D01*
X201700499Y-78474247D01*
X201688868Y-78415770D01*
X201688867Y-78415769D01*
X201640505Y-78343391D01*
X201619627Y-78276714D01*
X201638111Y-78209334D01*
X201690090Y-78162643D01*
X201743607Y-78150500D01*
X201993640Y-78150500D01*
X202060679Y-78170185D01*
X202106434Y-78222989D01*
X202116378Y-78292147D01*
X202113042Y-78304307D01*
X202099130Y-78374247D01*
X202099130Y-79613752D01*
X202110761Y-79672229D01*
X202110762Y-79672230D01*
X202155077Y-79738552D01*
X202221399Y-79782867D01*
X202221400Y-79782868D01*
X202279877Y-79794499D01*
X202279880Y-79794500D01*
X202279882Y-79794500D01*
X203519380Y-79794500D01*
X203519381Y-79794499D01*
X203535380Y-79791317D01*
X203577859Y-79782868D01*
X203577859Y-79782867D01*
X203577861Y-79782867D01*
X203644182Y-79738552D01*
X203686516Y-79675194D01*
X203740126Y-79630391D01*
X203809451Y-79621684D01*
X203872479Y-79651838D01*
X203905799Y-79700753D01*
X203956276Y-79836088D01*
X203956279Y-79836093D01*
X203966832Y-79850190D01*
X203991249Y-79915654D01*
X203976397Y-79983927D01*
X203926991Y-80033332D01*
X203867565Y-80048500D01*
X202920147Y-80048500D01*
X202837362Y-80070682D01*
X202837355Y-80070685D01*
X202779915Y-80103848D01*
X202763144Y-80113530D01*
X202763136Y-80113536D01*
X200780537Y-82096135D01*
X200780535Y-82096138D01*
X200737682Y-82170360D01*
X200737682Y-82170361D01*
X200737447Y-82171238D01*
X200737446Y-82171242D01*
X200737445Y-82171241D01*
X200715500Y-82253145D01*
X200715500Y-82253147D01*
X200715500Y-86698147D01*
X200715500Y-86783853D01*
X200722836Y-86811231D01*
X200737682Y-86866640D01*
X200759108Y-86903750D01*
X200780535Y-86940862D01*
X200780536Y-86940863D01*
X200780537Y-86940864D01*
X201538194Y-87698520D01*
X201538204Y-87698531D01*
X201542534Y-87702861D01*
X201542535Y-87702862D01*
X201603138Y-87763465D01*
X201603140Y-87763466D01*
X201603141Y-87763467D01*
X201618879Y-87772553D01*
X201634620Y-87781641D01*
X201677361Y-87806318D01*
X201760147Y-87828501D01*
X201760149Y-87828501D01*
X201853449Y-87828501D01*
X201853465Y-87828500D01*
X203902811Y-87828500D01*
X203969850Y-87848185D01*
X203990492Y-87864819D01*
X205568681Y-89443008D01*
X205602166Y-89504331D01*
X205605000Y-89530689D01*
X205605000Y-90822691D01*
X205585315Y-90889730D01*
X205568681Y-90910372D01*
X203572400Y-92906653D01*
X203511077Y-92940138D01*
X203484719Y-92942972D01*
X203446820Y-92942972D01*
X203314251Y-92981897D01*
X203314246Y-92981899D01*
X203198016Y-93056596D01*
X203198014Y-93056598D01*
X203198012Y-93056599D01*
X203198012Y-93056600D01*
X203173382Y-93085025D01*
X203107529Y-93161023D01*
X203107528Y-93161024D01*
X203050130Y-93286706D01*
X203030467Y-93423472D01*
X203050130Y-93560237D01*
X203107528Y-93685919D01*
X203107529Y-93685921D01*
X203198012Y-93790344D01*
X203198014Y-93790345D01*
X203198016Y-93790347D01*
X203314246Y-93865044D01*
X203314251Y-93865046D01*
X203446820Y-93903971D01*
X203446822Y-93903972D01*
X203446823Y-93903972D01*
X203584994Y-93903972D01*
X203584994Y-93903971D01*
X203717567Y-93865045D01*
X203729255Y-93857534D01*
X203784077Y-93822301D01*
X203833804Y-93790344D01*
X203924287Y-93685921D01*
X203981685Y-93560237D01*
X203999693Y-93434988D01*
X204028716Y-93371435D01*
X204034735Y-93364970D01*
X205654904Y-91744800D01*
X208912159Y-91744800D01*
X208931822Y-91881565D01*
X208984469Y-91996843D01*
X208989221Y-92007249D01*
X209079704Y-92111672D01*
X209079706Y-92111673D01*
X209079708Y-92111675D01*
X209195938Y-92186372D01*
X209195943Y-92186374D01*
X209328512Y-92225299D01*
X209328514Y-92225300D01*
X209328515Y-92225300D01*
X209466686Y-92225300D01*
X209466686Y-92225299D01*
X209599259Y-92186373D01*
X209617736Y-92174499D01*
X209715491Y-92111675D01*
X209715490Y-92111675D01*
X209715496Y-92111672D01*
X209805979Y-92007249D01*
X209863377Y-91881565D01*
X209883041Y-91744800D01*
X209875737Y-91694000D01*
X212112559Y-91694000D01*
X212132222Y-91830765D01*
X212189620Y-91956447D01*
X212189621Y-91956449D01*
X212280104Y-92060872D01*
X212280106Y-92060873D01*
X212280108Y-92060875D01*
X212396338Y-92135572D01*
X212396343Y-92135574D01*
X212528912Y-92174499D01*
X212528914Y-92174500D01*
X212528915Y-92174500D01*
X212667086Y-92174500D01*
X212667086Y-92174499D01*
X212799659Y-92135573D01*
X212840090Y-92109590D01*
X212894830Y-92074410D01*
X212915896Y-92060872D01*
X213006379Y-91956449D01*
X213063777Y-91830765D01*
X213083441Y-91694000D01*
X213063777Y-91557235D01*
X213062939Y-91555401D01*
X213014096Y-91448449D01*
X213006379Y-91431551D01*
X212915896Y-91327128D01*
X212915893Y-91327126D01*
X212915891Y-91327124D01*
X212799661Y-91252427D01*
X212799656Y-91252425D01*
X212667087Y-91213500D01*
X212667085Y-91213500D01*
X212528915Y-91213500D01*
X212528912Y-91213500D01*
X212396343Y-91252425D01*
X212396338Y-91252427D01*
X212280108Y-91327124D01*
X212280106Y-91327126D01*
X212280104Y-91327127D01*
X212280104Y-91327128D01*
X212214707Y-91402600D01*
X212189621Y-91431551D01*
X212189620Y-91431552D01*
X212132222Y-91557234D01*
X212112559Y-91694000D01*
X209875737Y-91694000D01*
X209863377Y-91608035D01*
X209858615Y-91597608D01*
X209805979Y-91482352D01*
X209805979Y-91482351D01*
X209715496Y-91377928D01*
X209715493Y-91377926D01*
X209715491Y-91377924D01*
X209599261Y-91303227D01*
X209599256Y-91303225D01*
X209466687Y-91264300D01*
X209466685Y-91264300D01*
X209328515Y-91264300D01*
X209328512Y-91264300D01*
X209195943Y-91303225D01*
X209195938Y-91303227D01*
X209079708Y-91377924D01*
X209079706Y-91377926D01*
X209079704Y-91377927D01*
X209079704Y-91377928D01*
X208998256Y-91471924D01*
X208989221Y-91482351D01*
X208989220Y-91482352D01*
X208931822Y-91608034D01*
X208912159Y-91744800D01*
X205654904Y-91744800D01*
X206120152Y-91279552D01*
X206120157Y-91279549D01*
X206130360Y-91269345D01*
X206130362Y-91269345D01*
X206190965Y-91208742D01*
X206216843Y-91163920D01*
X206233818Y-91134519D01*
X206256001Y-91051733D01*
X206256001Y-90966027D01*
X206256001Y-90958432D01*
X206256000Y-90958414D01*
X206256000Y-89408000D01*
X206778559Y-89408000D01*
X206798222Y-89544765D01*
X206853116Y-89664964D01*
X206855621Y-89670449D01*
X206946104Y-89774872D01*
X206946106Y-89774873D01*
X206946108Y-89774875D01*
X207062338Y-89849572D01*
X207062343Y-89849574D01*
X207142620Y-89873145D01*
X207176047Y-89882960D01*
X207194912Y-89888499D01*
X207194914Y-89888500D01*
X207194915Y-89888500D01*
X207333086Y-89888500D01*
X207333086Y-89888499D01*
X207465659Y-89849573D01*
X207478584Y-89841267D01*
X207554315Y-89792597D01*
X207581896Y-89774872D01*
X207672379Y-89670449D01*
X207729777Y-89544765D01*
X207749441Y-89408000D01*
X207729777Y-89271235D01*
X207723056Y-89256519D01*
X207683377Y-89169634D01*
X207672379Y-89145551D01*
X207581896Y-89041128D01*
X207581893Y-89041126D01*
X207581891Y-89041124D01*
X207465661Y-88966427D01*
X207465656Y-88966425D01*
X207333087Y-88927500D01*
X207333085Y-88927500D01*
X207194915Y-88927500D01*
X207194912Y-88927500D01*
X207062343Y-88966425D01*
X207062338Y-88966427D01*
X206946108Y-89041124D01*
X206946106Y-89041126D01*
X206946104Y-89041127D01*
X206946104Y-89041128D01*
X206905860Y-89087572D01*
X206855621Y-89145551D01*
X206855620Y-89145552D01*
X206798222Y-89271234D01*
X206778559Y-89408000D01*
X206256000Y-89408000D01*
X206256000Y-89301649D01*
X206255999Y-89301645D01*
X206254918Y-89297612D01*
X206243905Y-89256508D01*
X206233818Y-89218861D01*
X206190965Y-89144638D01*
X204761389Y-87715062D01*
X204727904Y-87653739D01*
X204732888Y-87584047D01*
X204774760Y-87528114D01*
X204840224Y-87503697D01*
X204899136Y-87516512D01*
X204899866Y-87514751D01*
X204948866Y-87535047D01*
X205041291Y-87573330D01*
X205166444Y-87589807D01*
X205184999Y-87592250D01*
X205185000Y-87592250D01*
X205185001Y-87592250D01*
X205203556Y-87589807D01*
X205328709Y-87573330D01*
X205462625Y-87517861D01*
X205534513Y-87462698D01*
X205599682Y-87437504D01*
X205668127Y-87451542D01*
X205685487Y-87462699D01*
X205757373Y-87517860D01*
X205757374Y-87517860D01*
X205757375Y-87517861D01*
X205891291Y-87573330D01*
X206016444Y-87589807D01*
X206034999Y-87592250D01*
X206035000Y-87592250D01*
X206035001Y-87592250D01*
X206053556Y-87589807D01*
X206178709Y-87573330D01*
X206312625Y-87517861D01*
X206384513Y-87462698D01*
X206449682Y-87437504D01*
X206518127Y-87451542D01*
X206535487Y-87462699D01*
X206607373Y-87517860D01*
X206607374Y-87517860D01*
X206607375Y-87517861D01*
X206741291Y-87573330D01*
X206866444Y-87589807D01*
X206884999Y-87592250D01*
X206885000Y-87592250D01*
X206885001Y-87592250D01*
X206903556Y-87589807D01*
X207028709Y-87573330D01*
X207162625Y-87517861D01*
X207175012Y-87508355D01*
X207240180Y-87483160D01*
X207308625Y-87497197D01*
X207358616Y-87546010D01*
X207374500Y-87606730D01*
X207374500Y-87769147D01*
X207374500Y-87854853D01*
X207381945Y-87882639D01*
X207396682Y-87937640D01*
X207414293Y-87968142D01*
X207439535Y-88011862D01*
X207439536Y-88011863D01*
X207439537Y-88011864D01*
X207862794Y-88435120D01*
X207862804Y-88435131D01*
X207867134Y-88439461D01*
X207867135Y-88439462D01*
X207927738Y-88500065D01*
X207927740Y-88500066D01*
X207927741Y-88500067D01*
X207957594Y-88517302D01*
X207957595Y-88517303D01*
X207966971Y-88522716D01*
X208001961Y-88542918D01*
X208084747Y-88565101D01*
X208084749Y-88565101D01*
X208178049Y-88565101D01*
X208178065Y-88565100D01*
X212005411Y-88565100D01*
X212072450Y-88584785D01*
X212093092Y-88601419D01*
X212236181Y-88744508D01*
X212269666Y-88805831D01*
X212272500Y-88832189D01*
X212272500Y-89647042D01*
X212267426Y-89682150D01*
X212145193Y-90096200D01*
X212144205Y-90101014D01*
X212135536Y-90127580D01*
X212132222Y-90134835D01*
X212112559Y-90271600D01*
X212132222Y-90408365D01*
X212178694Y-90510122D01*
X212189621Y-90534049D01*
X212280104Y-90638472D01*
X212280106Y-90638473D01*
X212280108Y-90638475D01*
X212396338Y-90713172D01*
X212396343Y-90713174D01*
X212528912Y-90752099D01*
X212528914Y-90752100D01*
X212528915Y-90752100D01*
X212667086Y-90752100D01*
X212667086Y-90752099D01*
X212799659Y-90713173D01*
X212811599Y-90705500D01*
X212897180Y-90650500D01*
X212915896Y-90638472D01*
X213006379Y-90534049D01*
X213063777Y-90408365D01*
X213083441Y-90271600D01*
X213063777Y-90134835D01*
X213060367Y-90127367D01*
X213051364Y-90099127D01*
X213050804Y-90096195D01*
X212928574Y-89682151D01*
X212923500Y-89647043D01*
X212923500Y-88603149D01*
X212923500Y-88603147D01*
X212901318Y-88520362D01*
X212900934Y-88519697D01*
X212858469Y-88446144D01*
X212858463Y-88446136D01*
X212739608Y-88327281D01*
X212706123Y-88265958D01*
X212711107Y-88196266D01*
X212739608Y-88151919D01*
X212858465Y-88033062D01*
X213128062Y-87763465D01*
X213939661Y-86951864D01*
X214000982Y-86918381D01*
X214070673Y-86923365D01*
X214094379Y-86935231D01*
X214123539Y-86953972D01*
X214123543Y-86953974D01*
X214215161Y-86980875D01*
X214247815Y-86990463D01*
X214256112Y-86992899D01*
X214256114Y-86992900D01*
X214256115Y-86992900D01*
X214394286Y-86992900D01*
X214394286Y-86992899D01*
X214526859Y-86953973D01*
X214526872Y-86953965D01*
X214621282Y-86893291D01*
X214643096Y-86879272D01*
X214733579Y-86774849D01*
X214790977Y-86649165D01*
X214810641Y-86512400D01*
X214790977Y-86375635D01*
X214790973Y-86375627D01*
X214760637Y-86309200D01*
X214733579Y-86249951D01*
X214679206Y-86187201D01*
X214650182Y-86123647D01*
X214660125Y-86054489D01*
X214679205Y-86024799D01*
X214733579Y-85962049D01*
X214790977Y-85836365D01*
X214810641Y-85699600D01*
X214790977Y-85562835D01*
X214788260Y-85556886D01*
X214752243Y-85478020D01*
X214733579Y-85437151D01*
X214679206Y-85374401D01*
X214650182Y-85310847D01*
X214660125Y-85241689D01*
X214679205Y-85211999D01*
X214733579Y-85149249D01*
X214790977Y-85023565D01*
X214810641Y-84886800D01*
X214790977Y-84750035D01*
X214777824Y-84721235D01*
X214757821Y-84677433D01*
X214733579Y-84624351D01*
X214643096Y-84519928D01*
X214643093Y-84519926D01*
X214643091Y-84519924D01*
X214526861Y-84445227D01*
X214526856Y-84445225D01*
X214394287Y-84406300D01*
X214394285Y-84406300D01*
X214256115Y-84406300D01*
X214256112Y-84406300D01*
X214123543Y-84445225D01*
X214123538Y-84445227D01*
X214007308Y-84519924D01*
X214007306Y-84519926D01*
X214007304Y-84519927D01*
X214007304Y-84519928D01*
X213930698Y-84608336D01*
X213916821Y-84624351D01*
X213916820Y-84624352D01*
X213859422Y-84750034D01*
X213839759Y-84886800D01*
X213859422Y-85023565D01*
X213916820Y-85149247D01*
X213916823Y-85149253D01*
X213971192Y-85211998D01*
X214000217Y-85275554D01*
X213990273Y-85344712D01*
X213971192Y-85374402D01*
X213916823Y-85437146D01*
X213916820Y-85437152D01*
X213859422Y-85562834D01*
X213839759Y-85699600D01*
X213859422Y-85836365D01*
X213916820Y-85962047D01*
X213916821Y-85962049D01*
X213933746Y-85981582D01*
X213937519Y-85985936D01*
X213966543Y-86049492D01*
X213956599Y-86118651D01*
X213910843Y-86171454D01*
X213875899Y-86186912D01*
X213793161Y-86209082D01*
X213793159Y-86209082D01*
X213793159Y-86209083D01*
X213718938Y-86251935D01*
X213718935Y-86251937D01*
X213347181Y-86623692D01*
X213285858Y-86657177D01*
X213216166Y-86652193D01*
X213160233Y-86610321D01*
X213135816Y-86544857D01*
X213135500Y-86536011D01*
X213135500Y-85242928D01*
X213110502Y-85117261D01*
X213110501Y-85117260D01*
X213110501Y-85117256D01*
X213061465Y-84998873D01*
X213061464Y-84998872D01*
X213061461Y-84998866D01*
X212990276Y-84892331D01*
X212990273Y-84892327D01*
X212899672Y-84801726D01*
X212899668Y-84801723D01*
X212793133Y-84730538D01*
X212793124Y-84730533D01*
X212674744Y-84681499D01*
X212674738Y-84681497D01*
X212549071Y-84656500D01*
X212549069Y-84656500D01*
X212420931Y-84656500D01*
X212420929Y-84656500D01*
X212295261Y-84681497D01*
X212295255Y-84681499D01*
X212176875Y-84730533D01*
X212176866Y-84730538D01*
X212070331Y-84801723D01*
X212070327Y-84801726D01*
X211979726Y-84892327D01*
X211979723Y-84892331D01*
X211908538Y-84998866D01*
X211908533Y-84998875D01*
X211859499Y-85117255D01*
X211859497Y-85117261D01*
X211834500Y-85242928D01*
X211834500Y-85329018D01*
X211814815Y-85396057D01*
X211762011Y-85441812D01*
X211692853Y-85451756D01*
X211629297Y-85422731D01*
X211612125Y-85404505D01*
X211557047Y-85332728D01*
X211527621Y-85294379D01*
X211412625Y-85206139D01*
X211412624Y-85206138D01*
X211412622Y-85206137D01*
X211278712Y-85150671D01*
X211278710Y-85150670D01*
X211278709Y-85150670D01*
X211206854Y-85141210D01*
X211135001Y-85131750D01*
X211134999Y-85131750D01*
X210991291Y-85150670D01*
X210991287Y-85150671D01*
X210857376Y-85206138D01*
X210857374Y-85206139D01*
X210785486Y-85261301D01*
X210720317Y-85286495D01*
X210651872Y-85272456D01*
X210634514Y-85261301D01*
X210562625Y-85206139D01*
X210562623Y-85206138D01*
X210428712Y-85150671D01*
X210428710Y-85150670D01*
X210428709Y-85150670D01*
X210356854Y-85141210D01*
X210285001Y-85131750D01*
X210284999Y-85131750D01*
X210141291Y-85150670D01*
X210141287Y-85150671D01*
X210007376Y-85206138D01*
X210007374Y-85206139D01*
X209935486Y-85261301D01*
X209870317Y-85286495D01*
X209801872Y-85272456D01*
X209784514Y-85261301D01*
X209712625Y-85206139D01*
X209712623Y-85206138D01*
X209578712Y-85150671D01*
X209578710Y-85150670D01*
X209578709Y-85150670D01*
X209506854Y-85141210D01*
X209435001Y-85131750D01*
X209434999Y-85131750D01*
X209291291Y-85150670D01*
X209291287Y-85150671D01*
X209157376Y-85206138D01*
X209157374Y-85206139D01*
X209085486Y-85261301D01*
X209020317Y-85286495D01*
X208951872Y-85272456D01*
X208934514Y-85261301D01*
X208862625Y-85206139D01*
X208862623Y-85206138D01*
X208728712Y-85150671D01*
X208728710Y-85150670D01*
X208728709Y-85150670D01*
X208656854Y-85141210D01*
X208585001Y-85131750D01*
X208584999Y-85131750D01*
X208441291Y-85150670D01*
X208441287Y-85150671D01*
X208307376Y-85206138D01*
X208307374Y-85206139D01*
X208235486Y-85261301D01*
X208170317Y-85286495D01*
X208101872Y-85272456D01*
X208084514Y-85261301D01*
X208012625Y-85206139D01*
X208012623Y-85206138D01*
X207878712Y-85150671D01*
X207878710Y-85150670D01*
X207878709Y-85150670D01*
X207806854Y-85141210D01*
X207735001Y-85131750D01*
X207734999Y-85131750D01*
X207591291Y-85150670D01*
X207591287Y-85150671D01*
X207457376Y-85206138D01*
X207457374Y-85206139D01*
X207385486Y-85261301D01*
X207320317Y-85286495D01*
X207251872Y-85272456D01*
X207234514Y-85261301D01*
X207162625Y-85206139D01*
X207162623Y-85206138D01*
X207028712Y-85150671D01*
X207028710Y-85150670D01*
X207028709Y-85150670D01*
X206956854Y-85141210D01*
X206885001Y-85131750D01*
X206884999Y-85131750D01*
X206741291Y-85150670D01*
X206741287Y-85150671D01*
X206607376Y-85206138D01*
X206607374Y-85206139D01*
X206535486Y-85261301D01*
X206470317Y-85286495D01*
X206401872Y-85272456D01*
X206384514Y-85261301D01*
X206312625Y-85206139D01*
X206312623Y-85206138D01*
X206178712Y-85150671D01*
X206178710Y-85150670D01*
X206178709Y-85150670D01*
X206106854Y-85141210D01*
X206035001Y-85131750D01*
X206034999Y-85131750D01*
X205891291Y-85150670D01*
X205891287Y-85150671D01*
X205757376Y-85206138D01*
X205757374Y-85206139D01*
X205685486Y-85261301D01*
X205620317Y-85286495D01*
X205551872Y-85272456D01*
X205534514Y-85261301D01*
X205462625Y-85206139D01*
X205462623Y-85206138D01*
X205328712Y-85150671D01*
X205328710Y-85150670D01*
X205328709Y-85150670D01*
X205256854Y-85141210D01*
X205185001Y-85131750D01*
X205184999Y-85131750D01*
X205041291Y-85150670D01*
X205041287Y-85150671D01*
X204907377Y-85206137D01*
X204859431Y-85242928D01*
X204792379Y-85294379D01*
X204792378Y-85294380D01*
X204792377Y-85294381D01*
X204707875Y-85404505D01*
X204651447Y-85445708D01*
X204581701Y-85449862D01*
X204520781Y-85415649D01*
X204488029Y-85353931D01*
X204485500Y-85329018D01*
X204485500Y-85242928D01*
X204460502Y-85117261D01*
X204460501Y-85117260D01*
X204460501Y-85117256D01*
X204411465Y-84998873D01*
X204411464Y-84998872D01*
X204411461Y-84998866D01*
X204340276Y-84892331D01*
X204340273Y-84892327D01*
X204249672Y-84801726D01*
X204249668Y-84801723D01*
X204143133Y-84730538D01*
X204143124Y-84730533D01*
X204024744Y-84681499D01*
X204024738Y-84681497D01*
X203899071Y-84656500D01*
X203899069Y-84656500D01*
X203770931Y-84656500D01*
X203770929Y-84656500D01*
X203645261Y-84681497D01*
X203645255Y-84681499D01*
X203526875Y-84730533D01*
X203526866Y-84730538D01*
X203420331Y-84801723D01*
X203420327Y-84801726D01*
X203329726Y-84892327D01*
X203329723Y-84892331D01*
X203258538Y-84998866D01*
X203258533Y-84998875D01*
X203209499Y-85117255D01*
X203209497Y-85117261D01*
X203184500Y-85242928D01*
X203184500Y-85242931D01*
X203184500Y-86871069D01*
X203184500Y-86871071D01*
X203184499Y-86871071D01*
X203209497Y-86996738D01*
X203209499Y-86996744D01*
X203213352Y-87006045D01*
X203220822Y-87075514D01*
X203189549Y-87137994D01*
X203129461Y-87173648D01*
X203098792Y-87177500D01*
X202789170Y-87177500D01*
X202722131Y-87157815D01*
X202676376Y-87105011D01*
X202666432Y-87035853D01*
X202695457Y-86972297D01*
X202722128Y-86949185D01*
X202755896Y-86927485D01*
X202846379Y-86823062D01*
X202903777Y-86697378D01*
X202923441Y-86560613D01*
X202906248Y-86441039D01*
X202903777Y-86423847D01*
X202863978Y-86336700D01*
X202846379Y-86298164D01*
X202755896Y-86193741D01*
X202755893Y-86193739D01*
X202755891Y-86193737D01*
X202639661Y-86119040D01*
X202639656Y-86119038D01*
X202507087Y-86080113D01*
X202507085Y-86080113D01*
X202368915Y-86080113D01*
X202368912Y-86080113D01*
X202236343Y-86119038D01*
X202236338Y-86119040D01*
X202120108Y-86193737D01*
X202120106Y-86193739D01*
X202120104Y-86193740D01*
X202120104Y-86193741D01*
X202073846Y-86247126D01*
X202029621Y-86298164D01*
X202029620Y-86298165D01*
X201972222Y-86423847D01*
X201952559Y-86560613D01*
X201972222Y-86697378D01*
X202024218Y-86811231D01*
X202029621Y-86823062D01*
X202120104Y-86927485D01*
X202153869Y-86949185D01*
X202199624Y-87001988D01*
X202209568Y-87071146D01*
X202180543Y-87134702D01*
X202121766Y-87172477D01*
X202086830Y-87177500D01*
X201989188Y-87177500D01*
X201922149Y-87157815D01*
X201901507Y-87141181D01*
X201402819Y-86642492D01*
X201369334Y-86581169D01*
X201366500Y-86554811D01*
X201366500Y-86026652D01*
X201386185Y-85959613D01*
X201438989Y-85913858D01*
X201508147Y-85903914D01*
X201557535Y-85922335D01*
X201601341Y-85950487D01*
X201694845Y-85977942D01*
X201733912Y-85989413D01*
X201733914Y-85989414D01*
X201733915Y-85989414D01*
X201872086Y-85989414D01*
X201872086Y-85989413D01*
X201994285Y-85953533D01*
X202004656Y-85950488D01*
X202004657Y-85950487D01*
X202004659Y-85950487D01*
X202012961Y-85945152D01*
X202079070Y-85902666D01*
X202120896Y-85875786D01*
X202211379Y-85771363D01*
X202268777Y-85645679D01*
X202288441Y-85508914D01*
X202268777Y-85372149D01*
X202260381Y-85353765D01*
X202233406Y-85294698D01*
X202211379Y-85246465D01*
X202120896Y-85142042D01*
X202120893Y-85142040D01*
X202120891Y-85142038D01*
X202004661Y-85067341D01*
X202004656Y-85067339D01*
X201872087Y-85028414D01*
X201872085Y-85028414D01*
X201733915Y-85028414D01*
X201733912Y-85028414D01*
X201601343Y-85067339D01*
X201581265Y-85080243D01*
X201557541Y-85095490D01*
X201557539Y-85095491D01*
X201490500Y-85115175D01*
X201423460Y-85095490D01*
X201377706Y-85042686D01*
X201366500Y-84991175D01*
X201366500Y-83141071D01*
X203184499Y-83141071D01*
X203209497Y-83266738D01*
X203209499Y-83266744D01*
X203258533Y-83385124D01*
X203258538Y-83385133D01*
X203329723Y-83491668D01*
X203329726Y-83491672D01*
X203420327Y-83582273D01*
X203420331Y-83582276D01*
X203526866Y-83653461D01*
X203526872Y-83653464D01*
X203526873Y-83653465D01*
X203645256Y-83702501D01*
X203645260Y-83702501D01*
X203645261Y-83702502D01*
X203770928Y-83727500D01*
X203770931Y-83727500D01*
X203899071Y-83727500D01*
X203997813Y-83707858D01*
X204024744Y-83702501D01*
X204143127Y-83653465D01*
X204249669Y-83582276D01*
X204340276Y-83491669D01*
X204411465Y-83385127D01*
X204460501Y-83266744D01*
X204475040Y-83193655D01*
X204485500Y-83141071D01*
X204485500Y-82804000D01*
X205381559Y-82804000D01*
X205401222Y-82940765D01*
X205448310Y-83043872D01*
X205458621Y-83066449D01*
X205549104Y-83170872D01*
X205549106Y-83170873D01*
X205549108Y-83170875D01*
X205665338Y-83245572D01*
X205665343Y-83245574D01*
X205797912Y-83284499D01*
X205797914Y-83284500D01*
X205797915Y-83284500D01*
X205936086Y-83284500D01*
X205936086Y-83284499D01*
X206068659Y-83245573D01*
X206069525Y-83245017D01*
X206184891Y-83170875D01*
X206184890Y-83170875D01*
X206184896Y-83170872D01*
X206275379Y-83066449D01*
X206332777Y-82940765D01*
X206352441Y-82804000D01*
X209445559Y-82804000D01*
X209465222Y-82940765D01*
X209512310Y-83043872D01*
X209522621Y-83066449D01*
X209613104Y-83170872D01*
X209613106Y-83170873D01*
X209613108Y-83170875D01*
X209729338Y-83245572D01*
X209729343Y-83245574D01*
X209861912Y-83284499D01*
X209861914Y-83284500D01*
X209861915Y-83284500D01*
X210000086Y-83284500D01*
X210000086Y-83284499D01*
X210132659Y-83245573D01*
X210133525Y-83245017D01*
X210248891Y-83170875D01*
X210248890Y-83170875D01*
X210248896Y-83170872D01*
X210274719Y-83141071D01*
X211834499Y-83141071D01*
X211859497Y-83266738D01*
X211859499Y-83266744D01*
X211908533Y-83385124D01*
X211908538Y-83385133D01*
X211979723Y-83491668D01*
X211979726Y-83491672D01*
X212070327Y-83582273D01*
X212070331Y-83582276D01*
X212176866Y-83653461D01*
X212176872Y-83653464D01*
X212176873Y-83653465D01*
X212295256Y-83702501D01*
X212295260Y-83702501D01*
X212295261Y-83702502D01*
X212420928Y-83727500D01*
X212420931Y-83727500D01*
X212549071Y-83727500D01*
X212647813Y-83707858D01*
X212674744Y-83702501D01*
X212793127Y-83653465D01*
X212899669Y-83582276D01*
X212962145Y-83519799D01*
X213023464Y-83486316D01*
X213093156Y-83491300D01*
X213136421Y-83521338D01*
X213137004Y-83520666D01*
X213143252Y-83526080D01*
X213143534Y-83526276D01*
X213143702Y-83526470D01*
X213143708Y-83526475D01*
X213259938Y-83601172D01*
X213259943Y-83601174D01*
X213333494Y-83622770D01*
X213379338Y-83636231D01*
X213392512Y-83640099D01*
X213392514Y-83640100D01*
X213392515Y-83640100D01*
X213530686Y-83640100D01*
X213530686Y-83640099D01*
X213663259Y-83601173D01*
X213692664Y-83582276D01*
X213779491Y-83526475D01*
X213779490Y-83526475D01*
X213779496Y-83526472D01*
X213869979Y-83422049D01*
X213927377Y-83296365D01*
X213947041Y-83159600D01*
X213927377Y-83022835D01*
X213924180Y-83015835D01*
X213898678Y-82959993D01*
X213869979Y-82897151D01*
X213779496Y-82792728D01*
X213779493Y-82792726D01*
X213779491Y-82792724D01*
X213663261Y-82718027D01*
X213663256Y-82718025D01*
X213530687Y-82679100D01*
X213530685Y-82679100D01*
X213392515Y-82679100D01*
X213392512Y-82679100D01*
X213294434Y-82707898D01*
X213224564Y-82707898D01*
X213165787Y-82670123D01*
X213136762Y-82606567D01*
X213135500Y-82588921D01*
X213135500Y-82212928D01*
X213110502Y-82087261D01*
X213110501Y-82087260D01*
X213110501Y-82087256D01*
X213068550Y-81985977D01*
X213061466Y-81968875D01*
X213061461Y-81968866D01*
X212990276Y-81862331D01*
X212990273Y-81862327D01*
X212899672Y-81771726D01*
X212899668Y-81771723D01*
X212793133Y-81700538D01*
X212793124Y-81700533D01*
X212674744Y-81651499D01*
X212674738Y-81651497D01*
X212549071Y-81626500D01*
X212549069Y-81626500D01*
X212420931Y-81626500D01*
X212420929Y-81626500D01*
X212295261Y-81651497D01*
X212295255Y-81651499D01*
X212176875Y-81700533D01*
X212176866Y-81700538D01*
X212070331Y-81771723D01*
X212070327Y-81771726D01*
X211979726Y-81862327D01*
X211979723Y-81862331D01*
X211908538Y-81968866D01*
X211908533Y-81968875D01*
X211859499Y-82087255D01*
X211859497Y-82087261D01*
X211834500Y-82212928D01*
X211834500Y-82212931D01*
X211834500Y-83141069D01*
X211834500Y-83141071D01*
X211834499Y-83141071D01*
X210274719Y-83141071D01*
X210339379Y-83066449D01*
X210396777Y-82940765D01*
X210416441Y-82804000D01*
X210396777Y-82667235D01*
X210339379Y-82541551D01*
X210248896Y-82437128D01*
X210248893Y-82437126D01*
X210248891Y-82437124D01*
X210132661Y-82362427D01*
X210132656Y-82362425D01*
X210000087Y-82323500D01*
X210000085Y-82323500D01*
X209861915Y-82323500D01*
X209861912Y-82323500D01*
X209729343Y-82362425D01*
X209729338Y-82362427D01*
X209613108Y-82437124D01*
X209613106Y-82437126D01*
X209613104Y-82437127D01*
X209613104Y-82437128D01*
X209550460Y-82509423D01*
X209522621Y-82541551D01*
X209522620Y-82541552D01*
X209465222Y-82667234D01*
X209445559Y-82804000D01*
X206352441Y-82804000D01*
X206332777Y-82667235D01*
X206275379Y-82541551D01*
X206184896Y-82437128D01*
X206184893Y-82437126D01*
X206184891Y-82437124D01*
X206068661Y-82362427D01*
X206068656Y-82362425D01*
X205936087Y-82323500D01*
X205936085Y-82323500D01*
X205797915Y-82323500D01*
X205797912Y-82323500D01*
X205665343Y-82362425D01*
X205665338Y-82362427D01*
X205549108Y-82437124D01*
X205549106Y-82437126D01*
X205549104Y-82437127D01*
X205549104Y-82437128D01*
X205486460Y-82509423D01*
X205458621Y-82541551D01*
X205458620Y-82541552D01*
X205401222Y-82667234D01*
X205381559Y-82804000D01*
X204485500Y-82804000D01*
X204485500Y-82212928D01*
X204460502Y-82087261D01*
X204460501Y-82087260D01*
X204460501Y-82087256D01*
X204418550Y-81985977D01*
X204411466Y-81968875D01*
X204411461Y-81968866D01*
X204340276Y-81862331D01*
X204340273Y-81862327D01*
X204249672Y-81771726D01*
X204249668Y-81771723D01*
X204143133Y-81700538D01*
X204143124Y-81700533D01*
X204024744Y-81651499D01*
X204024738Y-81651497D01*
X203899071Y-81626500D01*
X203899069Y-81626500D01*
X203770931Y-81626500D01*
X203770929Y-81626500D01*
X203645261Y-81651497D01*
X203645255Y-81651499D01*
X203526875Y-81700533D01*
X203526866Y-81700538D01*
X203420331Y-81771723D01*
X203420327Y-81771726D01*
X203329726Y-81862327D01*
X203329723Y-81862331D01*
X203258538Y-81968866D01*
X203258533Y-81968875D01*
X203209499Y-82087255D01*
X203209497Y-82087261D01*
X203184500Y-82212928D01*
X203184500Y-82212931D01*
X203184500Y-83141069D01*
X203184500Y-83141071D01*
X203184499Y-83141071D01*
X201366500Y-83141071D01*
X201366500Y-82482189D01*
X201386185Y-82415150D01*
X201402819Y-82394508D01*
X202364927Y-81432400D01*
X218716559Y-81432400D01*
X218736222Y-81569165D01*
X218793620Y-81694847D01*
X218793621Y-81694849D01*
X218884104Y-81799272D01*
X218884106Y-81799273D01*
X218884108Y-81799275D01*
X219000338Y-81873972D01*
X219000343Y-81873974D01*
X219132912Y-81912899D01*
X219132914Y-81912900D01*
X219132915Y-81912900D01*
X219271086Y-81912900D01*
X219271086Y-81912899D01*
X219403659Y-81873973D01*
X219403661Y-81873972D01*
X219519895Y-81799273D01*
X219526601Y-81793463D01*
X219528925Y-81796146D01*
X219573391Y-81767531D01*
X219643261Y-81767487D01*
X219687889Y-81796128D01*
X219690199Y-81793463D01*
X219696904Y-81799273D01*
X219813138Y-81873972D01*
X219813143Y-81873974D01*
X219945712Y-81912899D01*
X219945714Y-81912900D01*
X219945715Y-81912900D01*
X220083886Y-81912900D01*
X220083886Y-81912899D01*
X220216459Y-81873973D01*
X220234575Y-81862331D01*
X220301610Y-81819250D01*
X220332696Y-81799272D01*
X220423179Y-81694849D01*
X220480577Y-81569165D01*
X220500241Y-81432400D01*
X220480577Y-81295635D01*
X220468807Y-81269863D01*
X220448681Y-81225792D01*
X220423179Y-81169951D01*
X220332696Y-81065528D01*
X220332693Y-81065526D01*
X220332691Y-81065524D01*
X220216461Y-80990827D01*
X220216456Y-80990825D01*
X220083887Y-80951900D01*
X220083885Y-80951900D01*
X219945715Y-80951900D01*
X219945712Y-80951900D01*
X219813143Y-80990825D01*
X219813138Y-80990827D01*
X219696908Y-81065524D01*
X219690204Y-81071334D01*
X219687888Y-81068662D01*
X219643311Y-81097298D01*
X219573441Y-81097284D01*
X219528908Y-81068664D01*
X219526596Y-81071334D01*
X219519891Y-81065524D01*
X219403661Y-80990827D01*
X219403656Y-80990825D01*
X219271087Y-80951900D01*
X219271085Y-80951900D01*
X219132915Y-80951900D01*
X219132912Y-80951900D01*
X219000343Y-80990825D01*
X219000338Y-80990827D01*
X218884108Y-81065524D01*
X218884106Y-81065526D01*
X218884104Y-81065527D01*
X218884104Y-81065528D01*
X218816932Y-81143049D01*
X218793621Y-81169951D01*
X218793620Y-81169952D01*
X218736222Y-81295634D01*
X218716559Y-81432400D01*
X202364927Y-81432400D01*
X203061508Y-80735819D01*
X203122831Y-80702334D01*
X203149189Y-80699500D01*
X216189139Y-80699500D01*
X216256178Y-80719185D01*
X216301933Y-80771989D01*
X216311877Y-80841147D01*
X216303559Y-80898999D01*
X216323222Y-81035765D01*
X216380620Y-81161447D01*
X216380621Y-81161449D01*
X216471104Y-81265872D01*
X216471106Y-81265873D01*
X216471108Y-81265875D01*
X216587338Y-81340572D01*
X216587343Y-81340574D01*
X216719912Y-81379499D01*
X216719914Y-81379500D01*
X216719915Y-81379500D01*
X216858086Y-81379500D01*
X216858086Y-81379499D01*
X216990659Y-81340573D01*
X217011750Y-81327019D01*
X217095901Y-81272938D01*
X217106896Y-81265872D01*
X217167069Y-81196428D01*
X217225845Y-81158654D01*
X217295715Y-81158654D01*
X217327819Y-81173314D01*
X217396962Y-81217750D01*
X217396965Y-81217751D01*
X217396964Y-81217751D01*
X217529533Y-81256676D01*
X217529535Y-81256677D01*
X217529536Y-81256677D01*
X217667707Y-81256677D01*
X217667707Y-81256676D01*
X217800280Y-81217750D01*
X217800609Y-81217539D01*
X217879978Y-81166531D01*
X217916517Y-81143049D01*
X218007000Y-81038626D01*
X218064398Y-80912942D01*
X218084062Y-80776177D01*
X218066869Y-80656603D01*
X218064398Y-80639411D01*
X218035439Y-80576000D01*
X218007000Y-80513728D01*
X217916517Y-80409305D01*
X217916514Y-80409303D01*
X217916512Y-80409301D01*
X217800282Y-80334604D01*
X217800277Y-80334602D01*
X217667708Y-80295677D01*
X217667706Y-80295677D01*
X217629810Y-80295677D01*
X217562771Y-80275992D01*
X217542129Y-80259358D01*
X217396308Y-80113537D01*
X217396306Y-80113535D01*
X217351379Y-80087596D01*
X217322084Y-80070682D01*
X217280690Y-80059591D01*
X217239297Y-80048500D01*
X217239296Y-80048500D01*
X211436634Y-80048500D01*
X211369595Y-80028815D01*
X211323840Y-79976011D01*
X211313896Y-79906853D01*
X211323840Y-79872988D01*
X211371417Y-79768808D01*
X211380357Y-79706626D01*
X211391081Y-79632043D01*
X211372664Y-79503953D01*
X211371417Y-79495277D01*
X211323863Y-79391149D01*
X211314019Y-79369594D01*
X211223536Y-79265171D01*
X211223533Y-79265169D01*
X211223531Y-79265167D01*
X211107301Y-79190470D01*
X211107296Y-79190468D01*
X210974727Y-79151543D01*
X210974725Y-79151543D01*
X210836555Y-79151543D01*
X210836552Y-79151543D01*
X210703983Y-79190468D01*
X210703978Y-79190470D01*
X210587748Y-79265167D01*
X210587746Y-79265169D01*
X210497261Y-79369594D01*
X210497260Y-79369595D01*
X210439862Y-79495277D01*
X210420199Y-79632043D01*
X210439862Y-79768808D01*
X210487440Y-79872988D01*
X210497384Y-79942147D01*
X210468359Y-80005703D01*
X210409581Y-80043477D01*
X210374646Y-80048500D01*
X206131695Y-80048500D01*
X206064656Y-80028815D01*
X206018901Y-79976011D01*
X206008957Y-79906853D01*
X206032428Y-79850190D01*
X206042980Y-79836093D01*
X206042984Y-79836086D01*
X206093226Y-79701379D01*
X206093228Y-79701372D01*
X206099629Y-79641844D01*
X206099630Y-79641827D01*
X206099630Y-79244000D01*
X204873630Y-79244000D01*
X204806591Y-79224315D01*
X204760836Y-79171511D01*
X204749630Y-79120000D01*
X204749630Y-78868000D01*
X204769315Y-78800961D01*
X204822119Y-78755206D01*
X204873630Y-78744000D01*
X206099630Y-78744000D01*
X206099630Y-78346172D01*
X206099629Y-78346155D01*
X206093350Y-78287756D01*
X206105755Y-78218996D01*
X206153365Y-78167859D01*
X206216639Y-78150500D01*
X213856393Y-78150500D01*
X213923432Y-78170185D01*
X213969187Y-78222989D01*
X213979131Y-78292147D01*
X213959495Y-78343391D01*
X213911132Y-78415769D01*
X213911131Y-78415770D01*
X213899500Y-78474247D01*
X213899500Y-79513752D01*
X213911131Y-79572229D01*
X213911132Y-79572230D01*
X213955447Y-79638552D01*
X214021769Y-79682867D01*
X214021770Y-79682868D01*
X214080247Y-79694499D01*
X214080250Y-79694500D01*
X214080252Y-79694500D01*
X215119750Y-79694500D01*
X215119751Y-79694499D01*
X215134568Y-79691552D01*
X215178229Y-79682868D01*
X215178229Y-79682867D01*
X215178231Y-79682867D01*
X215244552Y-79638552D01*
X215288867Y-79572231D01*
X215288867Y-79572229D01*
X215288868Y-79572229D01*
X215300499Y-79513752D01*
X215300500Y-79513750D01*
X215300500Y-78474249D01*
X215300499Y-78474247D01*
X215288868Y-78415770D01*
X215288867Y-78415769D01*
X215240505Y-78343391D01*
X215219627Y-78276714D01*
X215238111Y-78209334D01*
X215290090Y-78162643D01*
X215343607Y-78150500D01*
X215582754Y-78150500D01*
X215649793Y-78170185D01*
X215695548Y-78222989D01*
X215705492Y-78292147D01*
X215702156Y-78304307D01*
X215688244Y-78374247D01*
X215688244Y-79613752D01*
X215699875Y-79672229D01*
X215699876Y-79672230D01*
X215744191Y-79738552D01*
X215810513Y-79782867D01*
X215810514Y-79782868D01*
X215868991Y-79794499D01*
X215868994Y-79794500D01*
X215868996Y-79794500D01*
X217108494Y-79794500D01*
X217108495Y-79794499D01*
X217124494Y-79791317D01*
X217166973Y-79782868D01*
X217166973Y-79782867D01*
X217166975Y-79782867D01*
X217233296Y-79738552D01*
X217275630Y-79675194D01*
X217329240Y-79630391D01*
X217398565Y-79621684D01*
X217461593Y-79651838D01*
X217494913Y-79700753D01*
X217545390Y-79836088D01*
X217545393Y-79836093D01*
X217631553Y-79951187D01*
X217631556Y-79951190D01*
X217746650Y-80037350D01*
X217746657Y-80037354D01*
X217881364Y-80087596D01*
X217881371Y-80087598D01*
X217940899Y-80093999D01*
X217940916Y-80094000D01*
X218338744Y-80094000D01*
X218838744Y-80094000D01*
X219236572Y-80094000D01*
X219236588Y-80093999D01*
X219296116Y-80087598D01*
X219296123Y-80087596D01*
X219430830Y-80037354D01*
X219430837Y-80037350D01*
X219545931Y-79951190D01*
X219545934Y-79951187D01*
X219632094Y-79836093D01*
X219632098Y-79836086D01*
X219682340Y-79701379D01*
X219682342Y-79701372D01*
X219688743Y-79641844D01*
X219688744Y-79641827D01*
X219688744Y-79244000D01*
X218838744Y-79244000D01*
X218838744Y-80094000D01*
X218338744Y-80094000D01*
X218338744Y-78868000D01*
X218358429Y-78800961D01*
X218411233Y-78755206D01*
X218462744Y-78744000D01*
X219688744Y-78744000D01*
X219688744Y-78346172D01*
X219688743Y-78346155D01*
X219682464Y-78287756D01*
X219694869Y-78218996D01*
X219742479Y-78167859D01*
X219805753Y-78150500D01*
X224925500Y-78150500D01*
X224992539Y-78170185D01*
X225038294Y-78222989D01*
X225049500Y-78274500D01*
X225049500Y-80576000D01*
X225029815Y-80643039D01*
X224977011Y-80688794D01*
X224925500Y-80700000D01*
X224800000Y-80700000D01*
X224800000Y-93900000D01*
X224925500Y-93900000D01*
X224992539Y-93919685D01*
X225038294Y-93972489D01*
X225049500Y-94024000D01*
X225049500Y-96925500D01*
X225029815Y-96992539D01*
X224977011Y-97038294D01*
X224925500Y-97049500D01*
X195406359Y-97049500D01*
X195339320Y-97029815D01*
X195293565Y-96977011D01*
X195283621Y-96907853D01*
X195292758Y-96844298D01*
X195303441Y-96770000D01*
X195283777Y-96633235D01*
X195274894Y-96613785D01*
X195253770Y-96567528D01*
X195226379Y-96507551D01*
X195135896Y-96403128D01*
X195135893Y-96403126D01*
X195135891Y-96403124D01*
X195019661Y-96328427D01*
X195019656Y-96328425D01*
X194887087Y-96289500D01*
X194887085Y-96289500D01*
X194748915Y-96289500D01*
X194748912Y-96289500D01*
X194616343Y-96328425D01*
X194616338Y-96328427D01*
X194500108Y-96403124D01*
X194500106Y-96403126D01*
X194500104Y-96403127D01*
X194500104Y-96403128D01*
X194432500Y-96481147D01*
X194409621Y-96507551D01*
X194409620Y-96507552D01*
X194352222Y-96633234D01*
X194332559Y-96770000D01*
X194352379Y-96907853D01*
X194342435Y-96977012D01*
X194296680Y-97029816D01*
X194229641Y-97049500D01*
X184585887Y-97049500D01*
X184518848Y-97029815D01*
X184473093Y-96977011D01*
X184463149Y-96907853D01*
X184472286Y-96844298D01*
X184482969Y-96770000D01*
X184478044Y-96735746D01*
X184487988Y-96666589D01*
X184533742Y-96613785D01*
X184600782Y-96594100D01*
X184625486Y-96594100D01*
X184625486Y-96594099D01*
X184758059Y-96555173D01*
X184760210Y-96553791D01*
X184832160Y-96507551D01*
X184874296Y-96480472D01*
X184964779Y-96376049D01*
X185022177Y-96250365D01*
X185041841Y-96113600D01*
X185022177Y-95976835D01*
X184964779Y-95851151D01*
X184874296Y-95746728D01*
X184874293Y-95746726D01*
X184874291Y-95746724D01*
X184758061Y-95672027D01*
X184758056Y-95672025D01*
X184625487Y-95633100D01*
X184625485Y-95633100D01*
X184487315Y-95633100D01*
X184487312Y-95633100D01*
X184354743Y-95672025D01*
X184354738Y-95672027D01*
X184238508Y-95746724D01*
X184238506Y-95746726D01*
X184238504Y-95746727D01*
X184238504Y-95746728D01*
X184148021Y-95851151D01*
X184148020Y-95851152D01*
X184090622Y-95976834D01*
X184083318Y-96027640D01*
X184070959Y-96113600D01*
X184074943Y-96141311D01*
X184075884Y-96147853D01*
X184065940Y-96217011D01*
X184020186Y-96269815D01*
X183953146Y-96289500D01*
X183928440Y-96289500D01*
X183795871Y-96328425D01*
X183795866Y-96328427D01*
X183679636Y-96403124D01*
X183679634Y-96403126D01*
X183679632Y-96403127D01*
X183679632Y-96403128D01*
X183612028Y-96481147D01*
X183589149Y-96507551D01*
X183589148Y-96507552D01*
X183531750Y-96633234D01*
X183512087Y-96770000D01*
X183531907Y-96907853D01*
X183521963Y-96977012D01*
X183476208Y-97029816D01*
X183409169Y-97049500D01*
X172803542Y-97049500D01*
X172736503Y-97029815D01*
X172690748Y-96977011D01*
X172680804Y-96907853D01*
X172689941Y-96844298D01*
X172700624Y-96770000D01*
X172695699Y-96735746D01*
X172705643Y-96666589D01*
X172751397Y-96613785D01*
X172818437Y-96594100D01*
X172839886Y-96594100D01*
X172839886Y-96594099D01*
X172972459Y-96555173D01*
X172974610Y-96553791D01*
X173046560Y-96507551D01*
X173088696Y-96480472D01*
X173179179Y-96376049D01*
X173236577Y-96250365D01*
X173256241Y-96113600D01*
X173236577Y-95976835D01*
X173179179Y-95851151D01*
X173088696Y-95746728D01*
X173088693Y-95746726D01*
X173088691Y-95746724D01*
X172972461Y-95672027D01*
X172972456Y-95672025D01*
X172839887Y-95633100D01*
X172839885Y-95633100D01*
X172701715Y-95633100D01*
X172701712Y-95633100D01*
X172569143Y-95672025D01*
X172569138Y-95672027D01*
X172452908Y-95746724D01*
X172452906Y-95746726D01*
X172452904Y-95746727D01*
X172452904Y-95746728D01*
X172362421Y-95851151D01*
X172362420Y-95851152D01*
X172305022Y-95976834D01*
X172297718Y-96027640D01*
X172285359Y-96113600D01*
X172289343Y-96141311D01*
X172290284Y-96147853D01*
X172280340Y-96217011D01*
X172234586Y-96269815D01*
X172167546Y-96289500D01*
X172146095Y-96289500D01*
X172013526Y-96328425D01*
X172013521Y-96328427D01*
X171897291Y-96403124D01*
X171897289Y-96403126D01*
X171897287Y-96403127D01*
X171897287Y-96403128D01*
X171829683Y-96481147D01*
X171806804Y-96507551D01*
X171806803Y-96507552D01*
X171749405Y-96633234D01*
X171729742Y-96770000D01*
X171749562Y-96907853D01*
X171739618Y-96977012D01*
X171693863Y-97029816D01*
X171626824Y-97049500D01*
X169651017Y-97049500D01*
X169583978Y-97029815D01*
X169538223Y-96977011D01*
X169528279Y-96907853D01*
X169557304Y-96844297D01*
X169563336Y-96837819D01*
X169889326Y-96511829D01*
X170869751Y-95531402D01*
X170931072Y-95497919D01*
X171000763Y-95502903D01*
X171056697Y-95544774D01*
X171080168Y-95601437D01*
X171085822Y-95640765D01*
X171139051Y-95757318D01*
X171143221Y-95766449D01*
X171233704Y-95870872D01*
X171233706Y-95870873D01*
X171233708Y-95870875D01*
X171349938Y-95945572D01*
X171349943Y-95945574D01*
X171482512Y-95984499D01*
X171482514Y-95984500D01*
X171482515Y-95984500D01*
X171620686Y-95984500D01*
X171620686Y-95984499D01*
X171753259Y-95945573D01*
X171869496Y-95870872D01*
X171959979Y-95766449D01*
X172017377Y-95640765D01*
X172037041Y-95504000D01*
X172017377Y-95367235D01*
X172017375Y-95367232D01*
X172014879Y-95358726D01*
X172017536Y-95357945D01*
X172009615Y-95302855D01*
X172038639Y-95239298D01*
X172097417Y-95201523D01*
X172132353Y-95196500D01*
X182756447Y-95196500D01*
X182823486Y-95216185D01*
X182869241Y-95268989D01*
X182879185Y-95338147D01*
X182873204Y-95358515D01*
X182873921Y-95358726D01*
X182871423Y-95367233D01*
X182851759Y-95504000D01*
X182871422Y-95640765D01*
X182924651Y-95757318D01*
X182928821Y-95766449D01*
X183019304Y-95870872D01*
X183019306Y-95870873D01*
X183019308Y-95870875D01*
X183135538Y-95945572D01*
X183135543Y-95945574D01*
X183268112Y-95984499D01*
X183268114Y-95984500D01*
X183268115Y-95984500D01*
X183406286Y-95984500D01*
X183406286Y-95984499D01*
X183538859Y-95945573D01*
X183655096Y-95870872D01*
X183745579Y-95766449D01*
X183802977Y-95640765D01*
X183822641Y-95504000D01*
X183802977Y-95367235D01*
X183802975Y-95367232D01*
X183800479Y-95358726D01*
X183803136Y-95357945D01*
X183795215Y-95302855D01*
X183824239Y-95239298D01*
X183883017Y-95201523D01*
X183917953Y-95196500D01*
X200068114Y-95196500D01*
X200068116Y-95196500D01*
X200151410Y-95174181D01*
X200226090Y-95131065D01*
X200560771Y-94796382D01*
X200622094Y-94762898D01*
X200691785Y-94767882D01*
X200747719Y-94809753D01*
X200761246Y-94832552D01*
X200778616Y-94870586D01*
X200819170Y-94959387D01*
X200909653Y-95063810D01*
X200909655Y-95063811D01*
X200909657Y-95063813D01*
X201025887Y-95138510D01*
X201025892Y-95138512D01*
X201158461Y-95177437D01*
X201158463Y-95177438D01*
X201158464Y-95177438D01*
X201296635Y-95177438D01*
X201296635Y-95177437D01*
X201429208Y-95138511D01*
X201431364Y-95137126D01*
X201453344Y-95123000D01*
X207032559Y-95123000D01*
X207052222Y-95259765D01*
X207108714Y-95383464D01*
X207109621Y-95385449D01*
X207200104Y-95489872D01*
X207200106Y-95489873D01*
X207200108Y-95489875D01*
X207316338Y-95564572D01*
X207316343Y-95564574D01*
X207448912Y-95603499D01*
X207448914Y-95603500D01*
X207448915Y-95603500D01*
X207587086Y-95603500D01*
X207587086Y-95603499D01*
X207719659Y-95564573D01*
X207813912Y-95504000D01*
X218716559Y-95504000D01*
X218736222Y-95640765D01*
X218789451Y-95757318D01*
X218793621Y-95766449D01*
X218884104Y-95870872D01*
X218884106Y-95870873D01*
X218884108Y-95870875D01*
X219000338Y-95945572D01*
X219000343Y-95945574D01*
X219132912Y-95984499D01*
X219132914Y-95984500D01*
X219132915Y-95984500D01*
X219271086Y-95984500D01*
X219271086Y-95984499D01*
X219403659Y-95945573D01*
X219519896Y-95870872D01*
X219610379Y-95766449D01*
X219667777Y-95640765D01*
X219687441Y-95504000D01*
X219667777Y-95367235D01*
X219667776Y-95367233D01*
X219624149Y-95271704D01*
X219610379Y-95241551D01*
X219519896Y-95137128D01*
X219519893Y-95137126D01*
X219519891Y-95137124D01*
X219403661Y-95062427D01*
X219403656Y-95062425D01*
X219271087Y-95023500D01*
X219271085Y-95023500D01*
X219132915Y-95023500D01*
X219132912Y-95023500D01*
X219000343Y-95062425D01*
X219000338Y-95062427D01*
X218884108Y-95137124D01*
X218884106Y-95137126D01*
X218884104Y-95137127D01*
X218884104Y-95137128D01*
X218826944Y-95203094D01*
X218793621Y-95241551D01*
X218793620Y-95241552D01*
X218736222Y-95367234D01*
X218716559Y-95504000D01*
X207813912Y-95504000D01*
X207835896Y-95489872D01*
X207835900Y-95489866D01*
X207842596Y-95484066D01*
X207843781Y-95485434D01*
X207893445Y-95453521D01*
X207928374Y-95448500D01*
X210862851Y-95448500D01*
X210862853Y-95448500D01*
X210945639Y-95426318D01*
X211019862Y-95383465D01*
X212423327Y-93980000D01*
X215541559Y-93980000D01*
X215561222Y-94116765D01*
X215606742Y-94216438D01*
X215618621Y-94242449D01*
X215709104Y-94346872D01*
X215709106Y-94346873D01*
X215709108Y-94346875D01*
X215825338Y-94421572D01*
X215825343Y-94421574D01*
X215957912Y-94460499D01*
X215957914Y-94460500D01*
X215957915Y-94460500D01*
X216096086Y-94460500D01*
X216096086Y-94460499D01*
X216228659Y-94421573D01*
X216344896Y-94346872D01*
X216435379Y-94242449D01*
X216492777Y-94116765D01*
X216512441Y-93980000D01*
X216492777Y-93843235D01*
X216468622Y-93790344D01*
X216451796Y-93753500D01*
X216435379Y-93717551D01*
X216344896Y-93613128D01*
X216344893Y-93613126D01*
X216344891Y-93613124D01*
X216228661Y-93538427D01*
X216228656Y-93538425D01*
X216096087Y-93499500D01*
X216096085Y-93499500D01*
X215957915Y-93499500D01*
X215957912Y-93499500D01*
X215825343Y-93538425D01*
X215825338Y-93538427D01*
X215709108Y-93613124D01*
X215709106Y-93613126D01*
X215709104Y-93613127D01*
X215709104Y-93613128D01*
X215663787Y-93665427D01*
X215618621Y-93717551D01*
X215618620Y-93717552D01*
X215561222Y-93843234D01*
X215541559Y-93980000D01*
X212423327Y-93980000D01*
X214255465Y-92147862D01*
X214298034Y-92074131D01*
X214348601Y-92025915D01*
X214417208Y-92012693D01*
X214482073Y-92038661D01*
X214522601Y-92095575D01*
X214528159Y-92118484D01*
X214545222Y-92237165D01*
X214588626Y-92332204D01*
X214602621Y-92362849D01*
X214693104Y-92467272D01*
X214693106Y-92467273D01*
X214693108Y-92467275D01*
X214809338Y-92541972D01*
X214809343Y-92541974D01*
X214941912Y-92580899D01*
X214941914Y-92580900D01*
X214941915Y-92580900D01*
X215080086Y-92580900D01*
X215080086Y-92580899D01*
X215182964Y-92550692D01*
X215212656Y-92541974D01*
X215212657Y-92541974D01*
X215212659Y-92541973D01*
X215290470Y-92491966D01*
X215357508Y-92472282D01*
X215424548Y-92491966D01*
X215470303Y-92544770D01*
X215491621Y-92591449D01*
X215582104Y-92695872D01*
X215582106Y-92695873D01*
X215582108Y-92695875D01*
X215698338Y-92770572D01*
X215698343Y-92770574D01*
X215830912Y-92809499D01*
X215830914Y-92809500D01*
X215830915Y-92809500D01*
X215969086Y-92809500D01*
X215969086Y-92809499D01*
X216085499Y-92775318D01*
X216101656Y-92770574D01*
X216101657Y-92770573D01*
X216101659Y-92770573D01*
X216217896Y-92695872D01*
X216308379Y-92591449D01*
X216365777Y-92465765D01*
X216385441Y-92329000D01*
X217903759Y-92329000D01*
X217923422Y-92465765D01*
X217959503Y-92544770D01*
X217980821Y-92591449D01*
X218071304Y-92695872D01*
X218071306Y-92695873D01*
X218071308Y-92695875D01*
X218187538Y-92770572D01*
X218187543Y-92770574D01*
X218320112Y-92809499D01*
X218320114Y-92809500D01*
X218320115Y-92809500D01*
X218458286Y-92809500D01*
X218458286Y-92809499D01*
X218574699Y-92775318D01*
X218590856Y-92770574D01*
X218590857Y-92770573D01*
X218590859Y-92770573D01*
X218700295Y-92700243D01*
X218707095Y-92695873D01*
X218713801Y-92690063D01*
X218716125Y-92692746D01*
X218760591Y-92664131D01*
X218830461Y-92664087D01*
X218875089Y-92692728D01*
X218877399Y-92690063D01*
X218884104Y-92695873D01*
X219000338Y-92770572D01*
X219000343Y-92770574D01*
X219132912Y-92809499D01*
X219132914Y-92809500D01*
X219132915Y-92809500D01*
X219271086Y-92809500D01*
X219271086Y-92809499D01*
X219387499Y-92775318D01*
X219403656Y-92770574D01*
X219403657Y-92770573D01*
X219403659Y-92770573D01*
X219513095Y-92700243D01*
X219519895Y-92695873D01*
X219526601Y-92690063D01*
X219528925Y-92692746D01*
X219573391Y-92664131D01*
X219643261Y-92664087D01*
X219687889Y-92692728D01*
X219690199Y-92690063D01*
X219696904Y-92695873D01*
X219813138Y-92770572D01*
X219813143Y-92770574D01*
X219945712Y-92809499D01*
X219945714Y-92809500D01*
X219945715Y-92809500D01*
X220083886Y-92809500D01*
X220083886Y-92809499D01*
X220200299Y-92775318D01*
X220216456Y-92770574D01*
X220216457Y-92770573D01*
X220216459Y-92770573D01*
X220332696Y-92695872D01*
X220423179Y-92591449D01*
X220480577Y-92465765D01*
X220500241Y-92329000D01*
X220480577Y-92192235D01*
X220477900Y-92186374D01*
X220443786Y-92111675D01*
X220423179Y-92066551D01*
X220332696Y-91962128D01*
X220332693Y-91962126D01*
X220332691Y-91962124D01*
X220216461Y-91887427D01*
X220216456Y-91887425D01*
X220083887Y-91848500D01*
X220083885Y-91848500D01*
X219945715Y-91848500D01*
X219945712Y-91848500D01*
X219813143Y-91887425D01*
X219813138Y-91887427D01*
X219696908Y-91962124D01*
X219690204Y-91967934D01*
X219687888Y-91965262D01*
X219643311Y-91993898D01*
X219573441Y-91993884D01*
X219528908Y-91965264D01*
X219526596Y-91967934D01*
X219519891Y-91962124D01*
X219403661Y-91887427D01*
X219403656Y-91887425D01*
X219271087Y-91848500D01*
X219271085Y-91848500D01*
X219132915Y-91848500D01*
X219132912Y-91848500D01*
X219000343Y-91887425D01*
X219000338Y-91887427D01*
X218884108Y-91962124D01*
X218877404Y-91967934D01*
X218875088Y-91965262D01*
X218830511Y-91993898D01*
X218760641Y-91993884D01*
X218716108Y-91965264D01*
X218713796Y-91967934D01*
X218707091Y-91962124D01*
X218590861Y-91887427D01*
X218590856Y-91887425D01*
X218458287Y-91848500D01*
X218458285Y-91848500D01*
X218320115Y-91848500D01*
X218320112Y-91848500D01*
X218187543Y-91887425D01*
X218187538Y-91887427D01*
X218071308Y-91962124D01*
X218071306Y-91962126D01*
X218071304Y-91962127D01*
X218071304Y-91962128D01*
X218030091Y-92009690D01*
X217980821Y-92066551D01*
X217980820Y-92066552D01*
X217923422Y-92192234D01*
X217903759Y-92329000D01*
X216385441Y-92329000D01*
X216365777Y-92192235D01*
X216363100Y-92186374D01*
X216328986Y-92111675D01*
X216308379Y-92066551D01*
X216217896Y-91962128D01*
X216217893Y-91962126D01*
X216217891Y-91962124D01*
X216101661Y-91887427D01*
X216101656Y-91887425D01*
X215969087Y-91848500D01*
X215969085Y-91848500D01*
X215830915Y-91848500D01*
X215830912Y-91848500D01*
X215698343Y-91887425D01*
X215620529Y-91937433D01*
X215553489Y-91957117D01*
X215486450Y-91937432D01*
X215440696Y-91884629D01*
X215419379Y-91837951D01*
X215370675Y-91781744D01*
X215341651Y-91718189D01*
X215351595Y-91649031D01*
X215370674Y-91619342D01*
X215419379Y-91563134D01*
X215476777Y-91437450D01*
X215496441Y-91300685D01*
X215476777Y-91163920D01*
X215464705Y-91137487D01*
X215442367Y-91088573D01*
X215419379Y-91038236D01*
X215328896Y-90933813D01*
X215328893Y-90933811D01*
X215328891Y-90933809D01*
X215212661Y-90859112D01*
X215212656Y-90859110D01*
X215080087Y-90820185D01*
X215080085Y-90820185D01*
X214941915Y-90820185D01*
X214941912Y-90820185D01*
X214809343Y-90859110D01*
X214809338Y-90859112D01*
X214693108Y-90933809D01*
X214693106Y-90933811D01*
X214693104Y-90933812D01*
X214693104Y-90933813D01*
X214663236Y-90968283D01*
X214602621Y-91038236D01*
X214602620Y-91038237D01*
X214557294Y-91137487D01*
X214511539Y-91190291D01*
X214444500Y-91209975D01*
X214377460Y-91190290D01*
X214331705Y-91137486D01*
X214320500Y-91085975D01*
X214320500Y-90102189D01*
X214340185Y-90035150D01*
X214356819Y-90014508D01*
X215064927Y-89306400D01*
X217700559Y-89306400D01*
X217720222Y-89443165D01*
X217769746Y-89551606D01*
X217777621Y-89568849D01*
X217868104Y-89673272D01*
X217868106Y-89673273D01*
X217868108Y-89673275D01*
X217984338Y-89747972D01*
X217984343Y-89747974D01*
X218116912Y-89786899D01*
X218116914Y-89786900D01*
X218116915Y-89786900D01*
X218255086Y-89786900D01*
X218255086Y-89786899D01*
X218387659Y-89747973D01*
X218399884Y-89740117D01*
X218490080Y-89682151D01*
X218503896Y-89673272D01*
X218594379Y-89568849D01*
X218651777Y-89443165D01*
X218671441Y-89306400D01*
X219681759Y-89306400D01*
X219701422Y-89443165D01*
X219750946Y-89551606D01*
X219758821Y-89568849D01*
X219849304Y-89673272D01*
X219849306Y-89673273D01*
X219849308Y-89673275D01*
X219965538Y-89747972D01*
X219965543Y-89747974D01*
X220098112Y-89786899D01*
X220098114Y-89786900D01*
X220098115Y-89786900D01*
X220236286Y-89786900D01*
X220236286Y-89786899D01*
X220368859Y-89747973D01*
X220381084Y-89740117D01*
X220471280Y-89682151D01*
X220485096Y-89673272D01*
X220575579Y-89568849D01*
X220632977Y-89443165D01*
X220652641Y-89306400D01*
X220632977Y-89169635D01*
X220630984Y-89165272D01*
X220595501Y-89087574D01*
X220575579Y-89043951D01*
X220485096Y-88939528D01*
X220485093Y-88939526D01*
X220485091Y-88939524D01*
X220368861Y-88864827D01*
X220368856Y-88864825D01*
X220236287Y-88825900D01*
X220236285Y-88825900D01*
X220098115Y-88825900D01*
X220098112Y-88825900D01*
X219965543Y-88864825D01*
X219965538Y-88864827D01*
X219849308Y-88939524D01*
X219849306Y-88939526D01*
X219849304Y-88939527D01*
X219849304Y-88939528D01*
X219777323Y-89022599D01*
X219758821Y-89043951D01*
X219758820Y-89043952D01*
X219701422Y-89169634D01*
X219681759Y-89306400D01*
X218671441Y-89306400D01*
X218651777Y-89169635D01*
X218649784Y-89165272D01*
X218614301Y-89087574D01*
X218594379Y-89043951D01*
X218503896Y-88939528D01*
X218503893Y-88939526D01*
X218503891Y-88939524D01*
X218387661Y-88864827D01*
X218387656Y-88864825D01*
X218255087Y-88825900D01*
X218255085Y-88825900D01*
X218116915Y-88825900D01*
X218116912Y-88825900D01*
X217984343Y-88864825D01*
X217984338Y-88864827D01*
X217868108Y-88939524D01*
X217868106Y-88939526D01*
X217868104Y-88939527D01*
X217868104Y-88939528D01*
X217796123Y-89022599D01*
X217777621Y-89043951D01*
X217777620Y-89043952D01*
X217720222Y-89169634D01*
X217700559Y-89306400D01*
X215064927Y-89306400D01*
X215376030Y-88995297D01*
X216080927Y-88290400D01*
X216684559Y-88290400D01*
X216704222Y-88427165D01*
X216750622Y-88528765D01*
X216761621Y-88552849D01*
X216852104Y-88657272D01*
X216852106Y-88657273D01*
X216852108Y-88657275D01*
X216968338Y-88731972D01*
X216968343Y-88731974D01*
X217100912Y-88770899D01*
X217100914Y-88770900D01*
X217100915Y-88770900D01*
X217239086Y-88770900D01*
X217239086Y-88770899D01*
X217371659Y-88731973D01*
X217390136Y-88720099D01*
X217457385Y-88676880D01*
X217487896Y-88657272D01*
X217578379Y-88552849D01*
X217635777Y-88427165D01*
X217655441Y-88290400D01*
X217648137Y-88239600D01*
X218716559Y-88239600D01*
X218736222Y-88376365D01*
X218788562Y-88490972D01*
X218793621Y-88502049D01*
X218884104Y-88606472D01*
X218884106Y-88606473D01*
X218884108Y-88606475D01*
X219000338Y-88681172D01*
X219000343Y-88681174D01*
X219082221Y-88705215D01*
X219125051Y-88717791D01*
X219132912Y-88720099D01*
X219132914Y-88720100D01*
X219132915Y-88720100D01*
X219271086Y-88720100D01*
X219271086Y-88720099D01*
X219403659Y-88681173D01*
X219423538Y-88668398D01*
X219519891Y-88606475D01*
X219519890Y-88606475D01*
X219519896Y-88606472D01*
X219610379Y-88502049D01*
X219667777Y-88376365D01*
X219680137Y-88290400D01*
X220646959Y-88290400D01*
X220666622Y-88427165D01*
X220713022Y-88528765D01*
X220724021Y-88552849D01*
X220814504Y-88657272D01*
X220814506Y-88657273D01*
X220814508Y-88657275D01*
X220930738Y-88731972D01*
X220930743Y-88731974D01*
X221063312Y-88770899D01*
X221063314Y-88770900D01*
X221063315Y-88770900D01*
X221201486Y-88770900D01*
X221201486Y-88770899D01*
X221334059Y-88731973D01*
X221352536Y-88720099D01*
X221419785Y-88676880D01*
X221450296Y-88657272D01*
X221540779Y-88552849D01*
X221598177Y-88427165D01*
X221617841Y-88290400D01*
X221599883Y-88165500D01*
X221598177Y-88153634D01*
X221562688Y-88075926D01*
X221540779Y-88027951D01*
X221450296Y-87923528D01*
X221450293Y-87923526D01*
X221450291Y-87923524D01*
X221334061Y-87848827D01*
X221334056Y-87848825D01*
X221201487Y-87809900D01*
X221201485Y-87809900D01*
X221063315Y-87809900D01*
X221063312Y-87809900D01*
X220930743Y-87848825D01*
X220930738Y-87848827D01*
X220814508Y-87923524D01*
X220814506Y-87923526D01*
X220814504Y-87923527D01*
X220814504Y-87923528D01*
X220738709Y-88011000D01*
X220724021Y-88027951D01*
X220724020Y-88027952D01*
X220666622Y-88153634D01*
X220646959Y-88290400D01*
X219680137Y-88290400D01*
X219687441Y-88239600D01*
X219667777Y-88102835D01*
X219662145Y-88090503D01*
X219632288Y-88025126D01*
X219610379Y-87977151D01*
X219519896Y-87872728D01*
X219519893Y-87872726D01*
X219519891Y-87872724D01*
X219403661Y-87798027D01*
X219403656Y-87798025D01*
X219271087Y-87759100D01*
X219271085Y-87759100D01*
X219132915Y-87759100D01*
X219132912Y-87759100D01*
X219000343Y-87798025D01*
X219000338Y-87798027D01*
X218884108Y-87872724D01*
X218884106Y-87872726D01*
X218884104Y-87872727D01*
X218884104Y-87872728D01*
X218811202Y-87956861D01*
X218793621Y-87977151D01*
X218793620Y-87977152D01*
X218736222Y-88102834D01*
X218716559Y-88239600D01*
X217648137Y-88239600D01*
X217637483Y-88165500D01*
X217635777Y-88153634D01*
X217600288Y-88075926D01*
X217578379Y-88027951D01*
X217487896Y-87923528D01*
X217487893Y-87923526D01*
X217487891Y-87923524D01*
X217371661Y-87848827D01*
X217371656Y-87848825D01*
X217239087Y-87809900D01*
X217239085Y-87809900D01*
X217100915Y-87809900D01*
X217100912Y-87809900D01*
X216968343Y-87848825D01*
X216968338Y-87848827D01*
X216852108Y-87923524D01*
X216852106Y-87923526D01*
X216852104Y-87923527D01*
X216852104Y-87923528D01*
X216776309Y-88011000D01*
X216761621Y-88027951D01*
X216761620Y-88027952D01*
X216704222Y-88153634D01*
X216684559Y-88290400D01*
X216080927Y-88290400D01*
X216414465Y-87956862D01*
X216457318Y-87882639D01*
X216479500Y-87799853D01*
X216479500Y-87714147D01*
X216479500Y-87274400D01*
X217700559Y-87274400D01*
X217720222Y-87411165D01*
X217776798Y-87535047D01*
X217777621Y-87536849D01*
X217868104Y-87641272D01*
X217868106Y-87641273D01*
X217868108Y-87641275D01*
X217984338Y-87715972D01*
X217984343Y-87715974D01*
X218116912Y-87754899D01*
X218116914Y-87754900D01*
X218116915Y-87754900D01*
X218255086Y-87754900D01*
X218255086Y-87754899D01*
X218387659Y-87715973D01*
X218390501Y-87714147D01*
X218503891Y-87641275D01*
X218503890Y-87641275D01*
X218503896Y-87641272D01*
X218594379Y-87536849D01*
X218651777Y-87411165D01*
X218671441Y-87274400D01*
X219681759Y-87274400D01*
X219701422Y-87411165D01*
X219757998Y-87535047D01*
X219758821Y-87536849D01*
X219849304Y-87641272D01*
X219849306Y-87641273D01*
X219849308Y-87641275D01*
X219965538Y-87715972D01*
X219965543Y-87715974D01*
X220098112Y-87754899D01*
X220098114Y-87754900D01*
X220098115Y-87754900D01*
X220236286Y-87754900D01*
X220236286Y-87754899D01*
X220368859Y-87715973D01*
X220371701Y-87714147D01*
X220485091Y-87641275D01*
X220485090Y-87641275D01*
X220485096Y-87641272D01*
X220575579Y-87536849D01*
X220632977Y-87411165D01*
X220652641Y-87274400D01*
X220632977Y-87137635D01*
X220623663Y-87117241D01*
X220595501Y-87055574D01*
X220575579Y-87011951D01*
X220485096Y-86907528D01*
X220485093Y-86907526D01*
X220485091Y-86907524D01*
X220368861Y-86832827D01*
X220368856Y-86832825D01*
X220236287Y-86793900D01*
X220236285Y-86793900D01*
X220098115Y-86793900D01*
X220098112Y-86793900D01*
X219965543Y-86832825D01*
X219965538Y-86832827D01*
X219849308Y-86907524D01*
X219849306Y-86907526D01*
X219849304Y-86907527D01*
X219849304Y-86907528D01*
X219777439Y-86990465D01*
X219758821Y-87011951D01*
X219758820Y-87011952D01*
X219701422Y-87137634D01*
X219681759Y-87274400D01*
X218671441Y-87274400D01*
X218651777Y-87137635D01*
X218642463Y-87117241D01*
X218614301Y-87055574D01*
X218594379Y-87011951D01*
X218503896Y-86907528D01*
X218503893Y-86907526D01*
X218503891Y-86907524D01*
X218387661Y-86832827D01*
X218387656Y-86832825D01*
X218255087Y-86793900D01*
X218255085Y-86793900D01*
X218116915Y-86793900D01*
X218116912Y-86793900D01*
X217984343Y-86832825D01*
X217984338Y-86832827D01*
X217868108Y-86907524D01*
X217868106Y-86907526D01*
X217868104Y-86907527D01*
X217868104Y-86907528D01*
X217796239Y-86990465D01*
X217777621Y-87011951D01*
X217777620Y-87011952D01*
X217720222Y-87137634D01*
X217700559Y-87274400D01*
X216479500Y-87274400D01*
X216479500Y-86309200D01*
X216735359Y-86309200D01*
X216755022Y-86445965D01*
X216800185Y-86544857D01*
X216812421Y-86571649D01*
X216902904Y-86676072D01*
X216902906Y-86676073D01*
X216902908Y-86676075D01*
X217019138Y-86750772D01*
X217019143Y-86750774D01*
X217101130Y-86774847D01*
X217131798Y-86783852D01*
X217151712Y-86789699D01*
X217151714Y-86789700D01*
X217151715Y-86789700D01*
X217289886Y-86789700D01*
X217289886Y-86789699D01*
X217422459Y-86750773D01*
X217422472Y-86750765D01*
X217519980Y-86688100D01*
X217538696Y-86676072D01*
X217629179Y-86571649D01*
X217686577Y-86445965D01*
X217706241Y-86309200D01*
X218716559Y-86309200D01*
X218736222Y-86445965D01*
X218781385Y-86544857D01*
X218793621Y-86571649D01*
X218884104Y-86676072D01*
X218884106Y-86676073D01*
X218884108Y-86676075D01*
X219000338Y-86750772D01*
X219000343Y-86750774D01*
X219082330Y-86774847D01*
X219112998Y-86783852D01*
X219132912Y-86789699D01*
X219132914Y-86789700D01*
X219132915Y-86789700D01*
X219271086Y-86789700D01*
X219271086Y-86789699D01*
X219403659Y-86750773D01*
X219403672Y-86750765D01*
X219501180Y-86688100D01*
X219519896Y-86676072D01*
X219610379Y-86571649D01*
X219667777Y-86445965D01*
X219687441Y-86309200D01*
X220697759Y-86309200D01*
X220717422Y-86445965D01*
X220762585Y-86544857D01*
X220774821Y-86571649D01*
X220865304Y-86676072D01*
X220865306Y-86676073D01*
X220865308Y-86676075D01*
X220981538Y-86750772D01*
X220981543Y-86750774D01*
X221063530Y-86774847D01*
X221094198Y-86783852D01*
X221114112Y-86789699D01*
X221114114Y-86789700D01*
X221114115Y-86789700D01*
X221252286Y-86789700D01*
X221252286Y-86789699D01*
X221384859Y-86750773D01*
X221384872Y-86750765D01*
X221482380Y-86688100D01*
X221501096Y-86676072D01*
X221591579Y-86571649D01*
X221648977Y-86445965D01*
X221668641Y-86309200D01*
X221648977Y-86172435D01*
X221648973Y-86172427D01*
X221598047Y-86060915D01*
X221591579Y-86046751D01*
X221501096Y-85942328D01*
X221501093Y-85942326D01*
X221501091Y-85942324D01*
X221384861Y-85867627D01*
X221384856Y-85867625D01*
X221252287Y-85828700D01*
X221252285Y-85828700D01*
X221114115Y-85828700D01*
X221114112Y-85828700D01*
X220981543Y-85867625D01*
X220981538Y-85867627D01*
X220865308Y-85942324D01*
X220865306Y-85942326D01*
X220865304Y-85942327D01*
X220865304Y-85942328D01*
X220804392Y-86012624D01*
X220774821Y-86046751D01*
X220774820Y-86046752D01*
X220717422Y-86172434D01*
X220697759Y-86309200D01*
X219687441Y-86309200D01*
X219667777Y-86172435D01*
X219667773Y-86172427D01*
X219616847Y-86060915D01*
X219610379Y-86046751D01*
X219519896Y-85942328D01*
X219519893Y-85942326D01*
X219519891Y-85942324D01*
X219403661Y-85867627D01*
X219403656Y-85867625D01*
X219271087Y-85828700D01*
X219271085Y-85828700D01*
X219132915Y-85828700D01*
X219132912Y-85828700D01*
X219000343Y-85867625D01*
X219000338Y-85867627D01*
X218884108Y-85942324D01*
X218884106Y-85942326D01*
X218884104Y-85942327D01*
X218884104Y-85942328D01*
X218823192Y-86012624D01*
X218793621Y-86046751D01*
X218793620Y-86046752D01*
X218736222Y-86172434D01*
X218716559Y-86309200D01*
X217706241Y-86309200D01*
X217686577Y-86172435D01*
X217686573Y-86172427D01*
X217635647Y-86060915D01*
X217629179Y-86046751D01*
X217538696Y-85942328D01*
X217538693Y-85942326D01*
X217538691Y-85942324D01*
X217422461Y-85867627D01*
X217422456Y-85867625D01*
X217289887Y-85828700D01*
X217289885Y-85828700D01*
X217151715Y-85828700D01*
X217151712Y-85828700D01*
X217019143Y-85867625D01*
X217019138Y-85867627D01*
X216902908Y-85942324D01*
X216902906Y-85942326D01*
X216902904Y-85942327D01*
X216902904Y-85942328D01*
X216841992Y-86012624D01*
X216812421Y-86046751D01*
X216812420Y-86046752D01*
X216755022Y-86172434D01*
X216735359Y-86309200D01*
X216479500Y-86309200D01*
X216479500Y-85293200D01*
X217700559Y-85293200D01*
X217720222Y-85429965D01*
X217769461Y-85537781D01*
X217777621Y-85555649D01*
X217868104Y-85660072D01*
X217868106Y-85660073D01*
X217868108Y-85660075D01*
X217984338Y-85734772D01*
X217984343Y-85734774D01*
X218087220Y-85764980D01*
X218108952Y-85771362D01*
X218116912Y-85773699D01*
X218116914Y-85773700D01*
X218116915Y-85773700D01*
X218255086Y-85773700D01*
X218255086Y-85773699D01*
X218387659Y-85734773D01*
X218399599Y-85727100D01*
X218503891Y-85660075D01*
X218503890Y-85660075D01*
X218503896Y-85660072D01*
X218594379Y-85555649D01*
X218651777Y-85429965D01*
X218671441Y-85293200D01*
X219681759Y-85293200D01*
X219701422Y-85429965D01*
X219750661Y-85537781D01*
X219758821Y-85555649D01*
X219849304Y-85660072D01*
X219849306Y-85660073D01*
X219849308Y-85660075D01*
X219965538Y-85734772D01*
X219965543Y-85734774D01*
X220068420Y-85764980D01*
X220090152Y-85771362D01*
X220098112Y-85773699D01*
X220098114Y-85773700D01*
X220098115Y-85773700D01*
X220236286Y-85773700D01*
X220236286Y-85773699D01*
X220368859Y-85734773D01*
X220380799Y-85727100D01*
X220485091Y-85660075D01*
X220485090Y-85660075D01*
X220485096Y-85660072D01*
X220575579Y-85555649D01*
X220632977Y-85429965D01*
X220652641Y-85293200D01*
X220635448Y-85173626D01*
X220632977Y-85156434D01*
X220599434Y-85082986D01*
X220575579Y-85030751D01*
X220485096Y-84926328D01*
X220485093Y-84926326D01*
X220485091Y-84926324D01*
X220368861Y-84851627D01*
X220368856Y-84851625D01*
X220236287Y-84812700D01*
X220236285Y-84812700D01*
X220098115Y-84812700D01*
X220098112Y-84812700D01*
X219965543Y-84851625D01*
X219965538Y-84851627D01*
X219849308Y-84926324D01*
X219849306Y-84926326D01*
X219849304Y-84926327D01*
X219849304Y-84926328D01*
X219786442Y-84998875D01*
X219758821Y-85030751D01*
X219758820Y-85030752D01*
X219701422Y-85156434D01*
X219681759Y-85293200D01*
X218671441Y-85293200D01*
X218654248Y-85173626D01*
X218651777Y-85156434D01*
X218618234Y-85082986D01*
X218594379Y-85030751D01*
X218503896Y-84926328D01*
X218503893Y-84926326D01*
X218503891Y-84926324D01*
X218387661Y-84851627D01*
X218387656Y-84851625D01*
X218255087Y-84812700D01*
X218255085Y-84812700D01*
X218116915Y-84812700D01*
X218116912Y-84812700D01*
X217984343Y-84851625D01*
X217984338Y-84851627D01*
X217868108Y-84926324D01*
X217868106Y-84926326D01*
X217868104Y-84926327D01*
X217868104Y-84926328D01*
X217805242Y-84998875D01*
X217777621Y-85030751D01*
X217777620Y-85030752D01*
X217720222Y-85156434D01*
X217700559Y-85293200D01*
X216479500Y-85293200D01*
X216479500Y-83125552D01*
X216499185Y-83058513D01*
X216551989Y-83012758D01*
X216621147Y-83002814D01*
X216638426Y-83006572D01*
X216719915Y-83030500D01*
X216858086Y-83030500D01*
X216858086Y-83030499D01*
X216988745Y-82992135D01*
X216990656Y-82991574D01*
X216990657Y-82991573D01*
X216990659Y-82991573D01*
X217106896Y-82916872D01*
X217197379Y-82812449D01*
X217254777Y-82686765D01*
X217274441Y-82550000D01*
X217254966Y-82414551D01*
X217254777Y-82413234D01*
X217213796Y-82323500D01*
X217197379Y-82287551D01*
X217106896Y-82183128D01*
X217106893Y-82183126D01*
X217106891Y-82183124D01*
X216990661Y-82108427D01*
X216990656Y-82108425D01*
X216858087Y-82069500D01*
X216858085Y-82069500D01*
X216719915Y-82069500D01*
X216719912Y-82069500D01*
X216587343Y-82108425D01*
X216587338Y-82108427D01*
X216471108Y-82183124D01*
X216464404Y-82188934D01*
X216463218Y-82187565D01*
X216413555Y-82219479D01*
X216378626Y-82224500D01*
X216365147Y-82224500D01*
X216282359Y-82246682D01*
X216208138Y-82289535D01*
X216208135Y-82289537D01*
X215893537Y-82604135D01*
X215893533Y-82604141D01*
X215850681Y-82678362D01*
X215850680Y-82678363D01*
X215840054Y-82718025D01*
X215828500Y-82761145D01*
X215828500Y-87570811D01*
X215808815Y-87637850D01*
X215792181Y-87658492D01*
X213734537Y-89716135D01*
X213734533Y-89716141D01*
X213691681Y-89790362D01*
X213691680Y-89790363D01*
X213681054Y-89830025D01*
X213669500Y-89873145D01*
X213669500Y-91761811D01*
X213649815Y-91828850D01*
X213633181Y-91849492D01*
X210721492Y-94761181D01*
X210660169Y-94794666D01*
X210633811Y-94797500D01*
X207928374Y-94797500D01*
X207861335Y-94777815D01*
X207842771Y-94761731D01*
X207842596Y-94761934D01*
X207835891Y-94756124D01*
X207719661Y-94681427D01*
X207719656Y-94681425D01*
X207587087Y-94642500D01*
X207587085Y-94642500D01*
X207448915Y-94642500D01*
X207448912Y-94642500D01*
X207316343Y-94681425D01*
X207316338Y-94681427D01*
X207200108Y-94756124D01*
X207200106Y-94756126D01*
X207200104Y-94756127D01*
X207200104Y-94756128D01*
X207153638Y-94809753D01*
X207109621Y-94860551D01*
X207109620Y-94860552D01*
X207052222Y-94986234D01*
X207032559Y-95123000D01*
X201453344Y-95123000D01*
X201545440Y-95063813D01*
X201545439Y-95063813D01*
X201545445Y-95063810D01*
X201635928Y-94959387D01*
X201693326Y-94833703D01*
X201712990Y-94696938D01*
X201693326Y-94560173D01*
X201689799Y-94552451D01*
X201656860Y-94480323D01*
X201635928Y-94434489D01*
X201545445Y-94330066D01*
X201545442Y-94330064D01*
X201545440Y-94330062D01*
X201429210Y-94255365D01*
X201429208Y-94255364D01*
X201376630Y-94239926D01*
X201317852Y-94202151D01*
X201288828Y-94138595D01*
X201298772Y-94069437D01*
X201323882Y-94033271D01*
X203208065Y-92149090D01*
X203251181Y-92074410D01*
X203273500Y-91991116D01*
X203273500Y-91904884D01*
X203273500Y-90032128D01*
X203278432Y-89997504D01*
X203299676Y-89924448D01*
X203399094Y-89582564D01*
X203399096Y-89582545D01*
X203399886Y-89578630D01*
X203408650Y-89551611D01*
X203411777Y-89544765D01*
X203431441Y-89408000D01*
X203411777Y-89271235D01*
X203405056Y-89256519D01*
X203365377Y-89169634D01*
X203354379Y-89145551D01*
X203263896Y-89041128D01*
X203263893Y-89041126D01*
X203263891Y-89041124D01*
X203147661Y-88966427D01*
X203147656Y-88966425D01*
X203015087Y-88927500D01*
X203015085Y-88927500D01*
X202876915Y-88927500D01*
X202876912Y-88927500D01*
X202744343Y-88966425D01*
X202744338Y-88966427D01*
X202628108Y-89041124D01*
X202628106Y-89041126D01*
X202628104Y-89041127D01*
X202628104Y-89041128D01*
X202587860Y-89087572D01*
X202537621Y-89145551D01*
X202537620Y-89145552D01*
X202480222Y-89271234D01*
X202460559Y-89407999D01*
X202480222Y-89544764D01*
X202480225Y-89544771D01*
X202483425Y-89551779D01*
X202492516Y-89580491D01*
X202492901Y-89582552D01*
X202519283Y-89673275D01*
X202600137Y-89951320D01*
X202613568Y-89997504D01*
X202618500Y-90032129D01*
X202618500Y-91760983D01*
X202598815Y-91828022D01*
X202582181Y-91848664D01*
X199925664Y-94505181D01*
X199864341Y-94538666D01*
X199837983Y-94541500D01*
X171112116Y-94541500D01*
X171025884Y-94541500D01*
X170970354Y-94556379D01*
X170942589Y-94563819D01*
X170867911Y-94606934D01*
X170867908Y-94606936D01*
X169265664Y-96209181D01*
X169204341Y-96242666D01*
X169177983Y-96245500D01*
X162312499Y-96245500D01*
X162245460Y-96225815D01*
X162199705Y-96173011D01*
X162189761Y-96103853D01*
X162218786Y-96040297D01*
X162234732Y-96026230D01*
X162234105Y-96025466D01*
X162385373Y-95901322D01*
X162410363Y-95870872D01*
X162505652Y-95754763D01*
X162595027Y-95587554D01*
X162650063Y-95406122D01*
X162663679Y-95267878D01*
X162689839Y-95203094D01*
X162746873Y-95162735D01*
X162816673Y-95159618D01*
X162854119Y-95175718D01*
X162866339Y-95183572D01*
X162866343Y-95183574D01*
X162998912Y-95222499D01*
X162998914Y-95222500D01*
X162998915Y-95222500D01*
X163137086Y-95222500D01*
X163137086Y-95222499D01*
X163269659Y-95183573D01*
X163279206Y-95177438D01*
X163385891Y-95108875D01*
X163385890Y-95108875D01*
X163385896Y-95108872D01*
X163476379Y-95004449D01*
X163533777Y-94878765D01*
X163553441Y-94742000D01*
X163534022Y-94606936D01*
X163533777Y-94605234D01*
X163488084Y-94505181D01*
X163476379Y-94479551D01*
X163417587Y-94411702D01*
X163388563Y-94348147D01*
X163398507Y-94278989D01*
X163444261Y-94226185D01*
X163511301Y-94206500D01*
X163645086Y-94206500D01*
X163645086Y-94206499D01*
X163777659Y-94167573D01*
X163788768Y-94160434D01*
X163870932Y-94107630D01*
X163893896Y-94092872D01*
X163984379Y-93988449D01*
X164041777Y-93862765D01*
X164061441Y-93726000D01*
X164041777Y-93589235D01*
X164040696Y-93586869D01*
X164001629Y-93501324D01*
X163984379Y-93463551D01*
X163893896Y-93359128D01*
X163893893Y-93359126D01*
X163893891Y-93359124D01*
X163777661Y-93284427D01*
X163777656Y-93284425D01*
X163645087Y-93245500D01*
X163645085Y-93245500D01*
X163506915Y-93245500D01*
X163506912Y-93245500D01*
X163374343Y-93284425D01*
X163374338Y-93284427D01*
X163258108Y-93359124D01*
X163251404Y-93364934D01*
X163249725Y-93362996D01*
X163202284Y-93393480D01*
X163167359Y-93398500D01*
X162937068Y-93398500D01*
X162870029Y-93378815D01*
X162849387Y-93362181D01*
X162633554Y-93146348D01*
X162600069Y-93085025D01*
X162602573Y-93022674D01*
X162650063Y-92866122D01*
X162668647Y-92677439D01*
X162650063Y-92488756D01*
X162595027Y-92307324D01*
X162595023Y-92307316D01*
X162505655Y-92140120D01*
X162505651Y-92140113D01*
X162385373Y-91993555D01*
X162238815Y-91873277D01*
X162238808Y-91873273D01*
X162071612Y-91783905D01*
X162071609Y-91783904D01*
X162071608Y-91783903D01*
X162071605Y-91783902D01*
X161890173Y-91728866D01*
X161890171Y-91728865D01*
X161890173Y-91728865D01*
X161701490Y-91710282D01*
X161512807Y-91728865D01*
X161356255Y-91776354D01*
X161286388Y-91776977D01*
X161232580Y-91745374D01*
X160665142Y-91177936D01*
X160665141Y-91177935D01*
X160590461Y-91134819D01*
X160590462Y-91134819D01*
X160562696Y-91127379D01*
X160507167Y-91112500D01*
X160507165Y-91112500D01*
X157758760Y-91112500D01*
X157691721Y-91092815D01*
X157645966Y-91040011D01*
X157636022Y-90970853D01*
X157665047Y-90907297D01*
X157680095Y-90892647D01*
X157763883Y-90823883D01*
X157861038Y-90705500D01*
X157884162Y-90677324D01*
X157973537Y-90510115D01*
X158028573Y-90328683D01*
X158047157Y-90140000D01*
X158028573Y-89951317D01*
X157980424Y-89792591D01*
X157979802Y-89722730D01*
X158011403Y-89668922D01*
X160624439Y-87055885D01*
X160685760Y-87022402D01*
X160755452Y-87027386D01*
X160811385Y-87069258D01*
X160835802Y-87134722D01*
X160821478Y-87202018D01*
X160807955Y-87227318D01*
X160807955Y-87227319D01*
X160807954Y-87227321D01*
X160807953Y-87227324D01*
X160795552Y-87268206D01*
X160752916Y-87408757D01*
X160734333Y-87597439D01*
X160752916Y-87786120D01*
X160759903Y-87809152D01*
X160807953Y-87967554D01*
X160807954Y-87967557D01*
X160807955Y-87967558D01*
X160807956Y-87967561D01*
X160897324Y-88134757D01*
X160897328Y-88134764D01*
X161017606Y-88281322D01*
X161164164Y-88401600D01*
X161164171Y-88401604D01*
X161331367Y-88490972D01*
X161331368Y-88490972D01*
X161331375Y-88490976D01*
X161512807Y-88546012D01*
X161512806Y-88546012D01*
X161529723Y-88547678D01*
X161701490Y-88564596D01*
X161890173Y-88546012D01*
X162071605Y-88490976D01*
X162238814Y-88401601D01*
X162385373Y-88281322D01*
X162505652Y-88134763D01*
X162507141Y-88131978D01*
X162508304Y-88130793D01*
X162509038Y-88129696D01*
X162509246Y-88129835D01*
X162556103Y-88082133D01*
X162624241Y-88066672D01*
X162689921Y-88090503D01*
X162732290Y-88146060D01*
X162740500Y-88190430D01*
X162740500Y-89544447D01*
X162720815Y-89611486D01*
X162668011Y-89657241D01*
X162598853Y-89667185D01*
X162535297Y-89638160D01*
X162507144Y-89602905D01*
X162505654Y-89600117D01*
X162505651Y-89600113D01*
X162385373Y-89453555D01*
X162238815Y-89333277D01*
X162238808Y-89333273D01*
X162071612Y-89243905D01*
X162071609Y-89243904D01*
X162071608Y-89243903D01*
X162071605Y-89243902D01*
X161890173Y-89188866D01*
X161890171Y-89188865D01*
X161890173Y-89188865D01*
X161701490Y-89170282D01*
X161512808Y-89188865D01*
X161413925Y-89218861D01*
X161331375Y-89243902D01*
X161331372Y-89243903D01*
X161331370Y-89243904D01*
X161331367Y-89243905D01*
X161164171Y-89333273D01*
X161164164Y-89333277D01*
X161017606Y-89453555D01*
X160897328Y-89600113D01*
X160897324Y-89600120D01*
X160807956Y-89767316D01*
X160807955Y-89767319D01*
X160807954Y-89767321D01*
X160807953Y-89767324D01*
X160785523Y-89841267D01*
X160752916Y-89948757D01*
X160734333Y-90137439D01*
X160752916Y-90326120D01*
X160764867Y-90365516D01*
X160807953Y-90507554D01*
X160807954Y-90507557D01*
X160807955Y-90507558D01*
X160807956Y-90507561D01*
X160897324Y-90674757D01*
X160897328Y-90674764D01*
X161017606Y-90821322D01*
X161164164Y-90941600D01*
X161164171Y-90941604D01*
X161331367Y-91030972D01*
X161331368Y-91030972D01*
X161331375Y-91030976D01*
X161512807Y-91086012D01*
X161512806Y-91086012D01*
X161529723Y-91087678D01*
X161701490Y-91104596D01*
X161890173Y-91086012D01*
X162071605Y-91030976D01*
X162238814Y-90941601D01*
X162385373Y-90821322D01*
X162505652Y-90674763D01*
X162586814Y-90522918D01*
X162635775Y-90473077D01*
X162703912Y-90457616D01*
X162769592Y-90481447D01*
X162803557Y-90519372D01*
X162805932Y-90523486D01*
X162805934Y-90523489D01*
X162805935Y-90523490D01*
X166778510Y-94496065D01*
X166853190Y-94539181D01*
X166936484Y-94561500D01*
X167022716Y-94561500D01*
X167181846Y-94561500D01*
X167248885Y-94581185D01*
X167294640Y-94633989D01*
X167304584Y-94703147D01*
X167294640Y-94737011D01*
X167250423Y-94833832D01*
X167250423Y-94833833D01*
X167230759Y-94970600D01*
X167250422Y-95107365D01*
X167294141Y-95203094D01*
X167307821Y-95233049D01*
X167398304Y-95337472D01*
X167398306Y-95337473D01*
X167398308Y-95337475D01*
X167514538Y-95412172D01*
X167514543Y-95412174D01*
X167647112Y-95451099D01*
X167647114Y-95451100D01*
X167647115Y-95451100D01*
X167785286Y-95451100D01*
X167785286Y-95451099D01*
X167917859Y-95412173D01*
X167959443Y-95385449D01*
X168003805Y-95356939D01*
X168034096Y-95337472D01*
X168124579Y-95233049D01*
X168181977Y-95107365D01*
X168201641Y-94970600D01*
X168184844Y-94853778D01*
X168194787Y-94784622D01*
X168240542Y-94731818D01*
X168307581Y-94712133D01*
X168325228Y-94713395D01*
X168332914Y-94714500D01*
X168332915Y-94714500D01*
X168471086Y-94714500D01*
X168471086Y-94714499D01*
X168603659Y-94675573D01*
X168617440Y-94666717D01*
X168713107Y-94605235D01*
X168719896Y-94600872D01*
X168810379Y-94496449D01*
X168867777Y-94370765D01*
X168887441Y-94234000D01*
X168869272Y-94107630D01*
X168867777Y-94097234D01*
X168825887Y-94005509D01*
X168810379Y-93971551D01*
X168719896Y-93867128D01*
X168719893Y-93867126D01*
X168719891Y-93867124D01*
X168603661Y-93792427D01*
X168603656Y-93792425D01*
X168471087Y-93753500D01*
X168471085Y-93753500D01*
X168332915Y-93753500D01*
X168256552Y-93775920D01*
X168232361Y-93780476D01*
X168227443Y-93780903D01*
X168227434Y-93780905D01*
X167812492Y-93901568D01*
X167777868Y-93906500D01*
X167166617Y-93906500D01*
X167099578Y-93886815D01*
X167078936Y-93870181D01*
X166934755Y-93726000D01*
X197634559Y-93726000D01*
X197654222Y-93862765D01*
X197698906Y-93960607D01*
X197711621Y-93988449D01*
X197802104Y-94092872D01*
X197802106Y-94092873D01*
X197802108Y-94092875D01*
X197918338Y-94167572D01*
X197918343Y-94167574D01*
X198050912Y-94206499D01*
X198050914Y-94206500D01*
X198050915Y-94206500D01*
X198189086Y-94206500D01*
X198189086Y-94206499D01*
X198321659Y-94167573D01*
X198332768Y-94160434D01*
X198414932Y-94107630D01*
X198437896Y-94092872D01*
X198528379Y-93988449D01*
X198585777Y-93862765D01*
X198605441Y-93726000D01*
X198585777Y-93589235D01*
X198584696Y-93586869D01*
X198545629Y-93501324D01*
X198528379Y-93463551D01*
X198437896Y-93359128D01*
X198437893Y-93359126D01*
X198437891Y-93359124D01*
X198321661Y-93284427D01*
X198321656Y-93284425D01*
X198189087Y-93245500D01*
X198189085Y-93245500D01*
X198050915Y-93245500D01*
X198050912Y-93245500D01*
X197918343Y-93284425D01*
X197918338Y-93284427D01*
X197802108Y-93359124D01*
X197802106Y-93359126D01*
X197802104Y-93359127D01*
X197802104Y-93359128D01*
X197736368Y-93434991D01*
X197711621Y-93463551D01*
X197711620Y-93463552D01*
X197654222Y-93589234D01*
X197634559Y-93726000D01*
X166934755Y-93726000D01*
X163431819Y-90223064D01*
X163398334Y-90161741D01*
X163395500Y-90135383D01*
X163395500Y-88442800D01*
X174063359Y-88442800D01*
X174083022Y-88579565D01*
X174132619Y-88688165D01*
X174140421Y-88705249D01*
X174230904Y-88809672D01*
X174230906Y-88809673D01*
X174230908Y-88809675D01*
X174347138Y-88884372D01*
X174347143Y-88884374D01*
X174479712Y-88923299D01*
X174479714Y-88923300D01*
X174479715Y-88923300D01*
X174617886Y-88923300D01*
X174617886Y-88923299D01*
X174750459Y-88884373D01*
X174768936Y-88872499D01*
X174866691Y-88809675D01*
X174866690Y-88809675D01*
X174866696Y-88809672D01*
X174957179Y-88705249D01*
X175014577Y-88579565D01*
X175034241Y-88442800D01*
X175026937Y-88392000D01*
X185442559Y-88392000D01*
X185462222Y-88528765D01*
X185508214Y-88629471D01*
X185519621Y-88654449D01*
X185610104Y-88758872D01*
X185610106Y-88758873D01*
X185610108Y-88758875D01*
X185726338Y-88833572D01*
X185726343Y-88833574D01*
X185858912Y-88872499D01*
X185858914Y-88872500D01*
X185858915Y-88872500D01*
X185997086Y-88872500D01*
X185997086Y-88872499D01*
X186129659Y-88833573D01*
X186130503Y-88833031D01*
X186227180Y-88770900D01*
X186245896Y-88758872D01*
X186336379Y-88654449D01*
X186393777Y-88528765D01*
X186413441Y-88392000D01*
X186393777Y-88255235D01*
X186393267Y-88254119D01*
X186352220Y-88164238D01*
X186336379Y-88129551D01*
X186245896Y-88025128D01*
X186245893Y-88025126D01*
X186245891Y-88025124D01*
X186129661Y-87950427D01*
X186129656Y-87950425D01*
X185997087Y-87911500D01*
X185997085Y-87911500D01*
X185858915Y-87911500D01*
X185858912Y-87911500D01*
X185726343Y-87950425D01*
X185726338Y-87950427D01*
X185610108Y-88025124D01*
X185610106Y-88025126D01*
X185610104Y-88025127D01*
X185610104Y-88025128D01*
X185566510Y-88075438D01*
X185519621Y-88129551D01*
X185519620Y-88129552D01*
X185462222Y-88255234D01*
X185442559Y-88392000D01*
X175026937Y-88392000D01*
X175014577Y-88306035D01*
X174999695Y-88273449D01*
X174969973Y-88208366D01*
X174957179Y-88180351D01*
X174866696Y-88075928D01*
X174866693Y-88075926D01*
X174866691Y-88075924D01*
X174750461Y-88001227D01*
X174750456Y-88001225D01*
X174617887Y-87962300D01*
X174617885Y-87962300D01*
X174479715Y-87962300D01*
X174479712Y-87962300D01*
X174347143Y-88001225D01*
X174347138Y-88001227D01*
X174230908Y-88075924D01*
X174230906Y-88075926D01*
X174230904Y-88075927D01*
X174230904Y-88075928D01*
X174163571Y-88153634D01*
X174140421Y-88180351D01*
X174140420Y-88180352D01*
X174083022Y-88306034D01*
X174063359Y-88442800D01*
X163395500Y-88442800D01*
X163395500Y-81300834D01*
X163387201Y-81269863D01*
X163373181Y-81217539D01*
X163330065Y-81142859D01*
X163269090Y-81081884D01*
X162633554Y-80446348D01*
X162600069Y-80385025D01*
X162602573Y-80322674D01*
X162650063Y-80166122D01*
X162668647Y-79977439D01*
X162650063Y-79788756D01*
X162595027Y-79607324D01*
X162585856Y-79590166D01*
X162539775Y-79503953D01*
X162525533Y-79435550D01*
X162550533Y-79370306D01*
X162606838Y-79328936D01*
X162649133Y-79321500D01*
X163501983Y-79321500D01*
X163569022Y-79341185D01*
X163614777Y-79393989D01*
X163624721Y-79463147D01*
X163595696Y-79526703D01*
X163589664Y-79533181D01*
X163566164Y-79556681D01*
X163504841Y-79590166D01*
X163478483Y-79593000D01*
X163443412Y-79593000D01*
X163310843Y-79631925D01*
X163310838Y-79631927D01*
X163194608Y-79706624D01*
X163194606Y-79706626D01*
X163104121Y-79811051D01*
X163104120Y-79811052D01*
X163046722Y-79936734D01*
X163027059Y-80073500D01*
X163046722Y-80210265D01*
X163103241Y-80334022D01*
X163104121Y-80335949D01*
X163194604Y-80440372D01*
X163194606Y-80440373D01*
X163194608Y-80440375D01*
X163310838Y-80515072D01*
X163310843Y-80515074D01*
X163443412Y-80553999D01*
X163443414Y-80554000D01*
X163443415Y-80554000D01*
X163581586Y-80554000D01*
X163581586Y-80553999D01*
X163684464Y-80523792D01*
X163714156Y-80515074D01*
X163714157Y-80515073D01*
X163714159Y-80515073D01*
X163714642Y-80514763D01*
X163812968Y-80451572D01*
X163830396Y-80440372D01*
X163920879Y-80335949D01*
X163920879Y-80335947D01*
X163922548Y-80334022D01*
X163981326Y-80296247D01*
X164051195Y-80296247D01*
X164109972Y-80334020D01*
X164147104Y-80376872D01*
X164147106Y-80376873D01*
X164147108Y-80376875D01*
X164263338Y-80451572D01*
X164263343Y-80451574D01*
X164395912Y-80490499D01*
X164395914Y-80490500D01*
X164395915Y-80490500D01*
X164534086Y-80490500D01*
X164534086Y-80490499D01*
X164666659Y-80451573D01*
X164674790Y-80446348D01*
X164767404Y-80386828D01*
X164782896Y-80376872D01*
X164782900Y-80376866D01*
X164789596Y-80371066D01*
X164791274Y-80373003D01*
X164838716Y-80342520D01*
X164873641Y-80337500D01*
X165090783Y-80337500D01*
X165157822Y-80357185D01*
X165178464Y-80373819D01*
X171299710Y-86495065D01*
X171374390Y-86538181D01*
X171457684Y-86560500D01*
X171457686Y-86560500D01*
X179113114Y-86560500D01*
X179113116Y-86560500D01*
X179196410Y-86538181D01*
X179271090Y-86495065D01*
X181055336Y-84710819D01*
X181116659Y-84677334D01*
X181143017Y-84674500D01*
X183539114Y-84674500D01*
X183539116Y-84674500D01*
X183622410Y-84652181D01*
X183659699Y-84630652D01*
X183727596Y-84614180D01*
X183793623Y-84637032D01*
X183834489Y-84686526D01*
X183862763Y-84748436D01*
X183868621Y-84761263D01*
X183882002Y-84776706D01*
X183911025Y-84840263D01*
X183901080Y-84909421D01*
X183882002Y-84939108D01*
X183868621Y-84954551D01*
X183868620Y-84954552D01*
X183811222Y-85080234D01*
X183791559Y-85217000D01*
X183811222Y-85353765D01*
X183853212Y-85445708D01*
X183868621Y-85479449D01*
X183959104Y-85583872D01*
X183959106Y-85583873D01*
X183959108Y-85583875D01*
X184075338Y-85658572D01*
X184075343Y-85658574D01*
X184207912Y-85697499D01*
X184207914Y-85697500D01*
X184207915Y-85697500D01*
X184346086Y-85697500D01*
X184346086Y-85697499D01*
X184473544Y-85660075D01*
X184478656Y-85658574D01*
X184478657Y-85658573D01*
X184478659Y-85658573D01*
X184484448Y-85654853D01*
X184573967Y-85597322D01*
X184594896Y-85583872D01*
X184685379Y-85479449D01*
X184742777Y-85353765D01*
X184762441Y-85217000D01*
X184747821Y-85115312D01*
X196187955Y-85115312D01*
X196207618Y-85252077D01*
X196262454Y-85372149D01*
X196265017Y-85377761D01*
X196355500Y-85482184D01*
X196355502Y-85482185D01*
X196355504Y-85482187D01*
X196471734Y-85556884D01*
X196471739Y-85556886D01*
X196563647Y-85583872D01*
X196600738Y-85594763D01*
X196604308Y-85595811D01*
X196604310Y-85595812D01*
X196604311Y-85595812D01*
X196742482Y-85595812D01*
X196742482Y-85595811D01*
X196854791Y-85562835D01*
X196875052Y-85556886D01*
X196875053Y-85556885D01*
X196875055Y-85556885D01*
X196876979Y-85555649D01*
X196960453Y-85502003D01*
X196991292Y-85482184D01*
X197081775Y-85377761D01*
X197139173Y-85252077D01*
X197158837Y-85115312D01*
X197139173Y-84978547D01*
X197137040Y-84973877D01*
X197099799Y-84892331D01*
X197081775Y-84852863D01*
X196991292Y-84748440D01*
X196991289Y-84748438D01*
X196991287Y-84748436D01*
X196875057Y-84673739D01*
X196875052Y-84673737D01*
X196742483Y-84634812D01*
X196742481Y-84634812D01*
X196604311Y-84634812D01*
X196604308Y-84634812D01*
X196471739Y-84673737D01*
X196471734Y-84673739D01*
X196355504Y-84748436D01*
X196355502Y-84748438D01*
X196355500Y-84748439D01*
X196355500Y-84748440D01*
X196280618Y-84834859D01*
X196265017Y-84852863D01*
X196265016Y-84852864D01*
X196207618Y-84978546D01*
X196187955Y-85115312D01*
X184747821Y-85115312D01*
X184745191Y-85097022D01*
X184742777Y-85080234D01*
X184705617Y-84998866D01*
X184685379Y-84954551D01*
X184671998Y-84939109D01*
X184642974Y-84875554D01*
X184652917Y-84806396D01*
X184671999Y-84776704D01*
X184685379Y-84761263D01*
X184742777Y-84635579D01*
X184762441Y-84498814D01*
X184744800Y-84376116D01*
X184742777Y-84362048D01*
X184712250Y-84295205D01*
X184685379Y-84236365D01*
X184594896Y-84131942D01*
X184594893Y-84131940D01*
X184594891Y-84131938D01*
X184540441Y-84096945D01*
X184494686Y-84044141D01*
X184484742Y-83974983D01*
X184488508Y-83957678D01*
X184488774Y-83956771D01*
X184488777Y-83956765D01*
X184508441Y-83820000D01*
X184488777Y-83683235D01*
X184487871Y-83681252D01*
X184451301Y-83601174D01*
X184431379Y-83557551D01*
X184340896Y-83453128D01*
X184340893Y-83453126D01*
X184340891Y-83453124D01*
X184224661Y-83378427D01*
X184224656Y-83378425D01*
X184092087Y-83339500D01*
X184092085Y-83339500D01*
X183953915Y-83339500D01*
X183953912Y-83339500D01*
X183821343Y-83378425D01*
X183821338Y-83378427D01*
X183697643Y-83457922D01*
X183695858Y-83455145D01*
X183646897Y-83477481D01*
X183577743Y-83467510D01*
X183561502Y-83457072D01*
X183560957Y-83457922D01*
X183437261Y-83378427D01*
X183437256Y-83378425D01*
X183304687Y-83339500D01*
X183304685Y-83339500D01*
X183166515Y-83339500D01*
X183166512Y-83339500D01*
X183033943Y-83378425D01*
X183033938Y-83378427D01*
X182917708Y-83453124D01*
X182911004Y-83458934D01*
X182909325Y-83456996D01*
X182861884Y-83487480D01*
X182826959Y-83492500D01*
X180764116Y-83492500D01*
X180677884Y-83492500D01*
X180628585Y-83505710D01*
X180594589Y-83514819D01*
X180519911Y-83557934D01*
X180519908Y-83557936D01*
X178883618Y-85194226D01*
X178822295Y-85227711D01*
X178752603Y-85222727D01*
X178696670Y-85180855D01*
X178673199Y-85124192D01*
X178664685Y-85064970D01*
X178662415Y-85060000D01*
X178623088Y-84973885D01*
X178607287Y-84939286D01*
X178516804Y-84834863D01*
X178516801Y-84834861D01*
X178516799Y-84834859D01*
X178400569Y-84760162D01*
X178400564Y-84760160D01*
X178267995Y-84721235D01*
X178267993Y-84721235D01*
X178129823Y-84721235D01*
X178129820Y-84721235D01*
X177997251Y-84760160D01*
X177997246Y-84760162D01*
X177881016Y-84834859D01*
X177881014Y-84834861D01*
X177881012Y-84834862D01*
X177881012Y-84834863D01*
X177849424Y-84871318D01*
X177790529Y-84939286D01*
X177790528Y-84939287D01*
X177733130Y-85064969D01*
X177713467Y-85201735D01*
X177721248Y-85255853D01*
X177711304Y-85325012D01*
X177665549Y-85377816D01*
X177598510Y-85397500D01*
X173767320Y-85397500D01*
X173700281Y-85377815D01*
X173654526Y-85325011D01*
X173644582Y-85255853D01*
X173645981Y-85246122D01*
X173658661Y-85157933D01*
X173638997Y-85021168D01*
X173638203Y-85019430D01*
X173608574Y-84954551D01*
X173581599Y-84895484D01*
X173491116Y-84791061D01*
X173491113Y-84791059D01*
X173491111Y-84791057D01*
X173374881Y-84716360D01*
X173374878Y-84716359D01*
X173255988Y-84681450D01*
X173197210Y-84643676D01*
X173168185Y-84580120D01*
X173178129Y-84510962D01*
X173223884Y-84458158D01*
X173255986Y-84443496D01*
X173290165Y-84433461D01*
X173332429Y-84406300D01*
X173379394Y-84376117D01*
X173406402Y-84358760D01*
X173406550Y-84358588D01*
X173406741Y-84358465D01*
X173413102Y-84352954D01*
X173413893Y-84353867D01*
X173465319Y-84320811D01*
X173474158Y-84318943D01*
X173479962Y-84317388D01*
X173479965Y-84317388D01*
X173562751Y-84295206D01*
X173636974Y-84252353D01*
X175994104Y-81895221D01*
X176055427Y-81861737D01*
X176081785Y-81858903D01*
X177985929Y-81858903D01*
X178052968Y-81878588D01*
X178071531Y-81894671D01*
X178071707Y-81894469D01*
X178078405Y-81900273D01*
X178078407Y-81900275D01*
X178078409Y-81900276D01*
X178078411Y-81900278D01*
X178194641Y-81974975D01*
X178194646Y-81974977D01*
X178327215Y-82013902D01*
X178327217Y-82013903D01*
X178327218Y-82013903D01*
X178465389Y-82013903D01*
X178465389Y-82013902D01*
X178597962Y-81974976D01*
X178634855Y-81951265D01*
X178701892Y-81931582D01*
X178768931Y-81951266D01*
X178789574Y-81967901D01*
X179691813Y-82870140D01*
X179702505Y-82882330D01*
X179706886Y-82888040D01*
X179706889Y-82888044D01*
X179767864Y-82949019D01*
X179842544Y-82992135D01*
X179925838Y-83014454D01*
X184910497Y-83014454D01*
X184977536Y-83034139D01*
X185004380Y-83060986D01*
X185005813Y-83059746D01*
X185011620Y-83066448D01*
X185011621Y-83066449D01*
X185102104Y-83170872D01*
X185102106Y-83170873D01*
X185102108Y-83170875D01*
X185218338Y-83245572D01*
X185218343Y-83245574D01*
X185350912Y-83284499D01*
X185350914Y-83284500D01*
X185350915Y-83284500D01*
X185489086Y-83284500D01*
X185489086Y-83284499D01*
X185621659Y-83245573D01*
X185622525Y-83245017D01*
X185737891Y-83170875D01*
X185737890Y-83170875D01*
X185737896Y-83170872D01*
X185828379Y-83066449D01*
X185885777Y-82940765D01*
X185905441Y-82804000D01*
X185885777Y-82667235D01*
X185828379Y-82541551D01*
X185737896Y-82437128D01*
X185737893Y-82437126D01*
X185737891Y-82437124D01*
X185621661Y-82362427D01*
X185621656Y-82362425D01*
X185489087Y-82323500D01*
X185489085Y-82323500D01*
X185350915Y-82323500D01*
X185350914Y-82323500D01*
X185245573Y-82354431D01*
X185210638Y-82359454D01*
X180153143Y-82359454D01*
X180086104Y-82339769D01*
X180065462Y-82323135D01*
X179015267Y-81272940D01*
X179015265Y-81272938D01*
X178976606Y-81250618D01*
X178941043Y-81230085D01*
X178895006Y-81217750D01*
X178858256Y-81207903D01*
X178858255Y-81207903D01*
X178806677Y-81207903D01*
X178739638Y-81188218D01*
X178721074Y-81172134D01*
X178720899Y-81172337D01*
X178714194Y-81166527D01*
X178597964Y-81091830D01*
X178597959Y-81091828D01*
X178465390Y-81052903D01*
X178465388Y-81052903D01*
X178327218Y-81052903D01*
X178327215Y-81052903D01*
X178194646Y-81091828D01*
X178194641Y-81091830D01*
X178078411Y-81166527D01*
X178071707Y-81172337D01*
X178070521Y-81170968D01*
X178020858Y-81202882D01*
X177985929Y-81207903D01*
X175852744Y-81207903D01*
X175769958Y-81230085D01*
X175769955Y-81230086D01*
X175732847Y-81251510D01*
X175732847Y-81251511D01*
X175695735Y-81272938D01*
X175695732Y-81272940D01*
X175635130Y-81333543D01*
X173764122Y-83204549D01*
X173702799Y-83238034D01*
X173633107Y-83233050D01*
X173577174Y-83191178D01*
X173563647Y-83168380D01*
X173517096Y-83066449D01*
X173509379Y-83049551D01*
X173418896Y-82945128D01*
X173418894Y-82945127D01*
X173413089Y-82938427D01*
X173414238Y-82937431D01*
X173398667Y-82918576D01*
X173397683Y-82916872D01*
X173363065Y-82856910D01*
X173302090Y-82795935D01*
X170412336Y-79906181D01*
X170378851Y-79844858D01*
X170383835Y-79775166D01*
X170425707Y-79719233D01*
X170491171Y-79694816D01*
X170500017Y-79694500D01*
X171461750Y-79694500D01*
X171461751Y-79694499D01*
X171476568Y-79691552D01*
X171520229Y-79682868D01*
X171520229Y-79682867D01*
X171520231Y-79682867D01*
X171586552Y-79638552D01*
X171630867Y-79572231D01*
X171630867Y-79572229D01*
X171630868Y-79572229D01*
X171642499Y-79513752D01*
X171642500Y-79513750D01*
X171642500Y-78474249D01*
X171642499Y-78474247D01*
X171630868Y-78415770D01*
X171630867Y-78415769D01*
X171582505Y-78343391D01*
X171561627Y-78276714D01*
X171580111Y-78209334D01*
X171632090Y-78162643D01*
X171685607Y-78150500D01*
X172000010Y-78150500D01*
X172067049Y-78170185D01*
G37*
%TD.AperFunction*%
%TA.AperFunction,Conductor*%
G36*
X155726703Y-91420304D02*
G01*
X155733181Y-91426336D01*
X156008910Y-91702065D01*
X156036838Y-91718189D01*
X156044985Y-91722893D01*
X156093201Y-91773460D01*
X156106423Y-91842067D01*
X156084561Y-91901402D01*
X155982900Y-92046591D01*
X155889579Y-92246720D01*
X155889575Y-92246729D01*
X155832426Y-92460013D01*
X155832424Y-92460023D01*
X155813179Y-92679999D01*
X155813179Y-92680000D01*
X155832424Y-92899976D01*
X155832426Y-92899986D01*
X155889575Y-93113270D01*
X155889580Y-93113284D01*
X155982899Y-93313407D01*
X155982905Y-93313417D01*
X156083707Y-93457376D01*
X156106035Y-93523582D01*
X156089025Y-93591349D01*
X156038078Y-93639163D01*
X155982133Y-93652500D01*
X155889017Y-93652500D01*
X155821978Y-93632815D01*
X155801336Y-93616181D01*
X155557819Y-93372664D01*
X155524334Y-93311341D01*
X155521500Y-93284983D01*
X155521500Y-91514017D01*
X155541185Y-91446978D01*
X155593989Y-91401223D01*
X155663147Y-91391279D01*
X155726703Y-91420304D01*
G37*
%TD.AperFunction*%
%TA.AperFunction,Conductor*%
G36*
X160820886Y-79341185D02*
G01*
X160866641Y-79393989D01*
X160876585Y-79463147D01*
X160863205Y-79503953D01*
X160807956Y-79607316D01*
X160807955Y-79607319D01*
X160807954Y-79607321D01*
X160807953Y-79607324D01*
X160797487Y-79641827D01*
X160752916Y-79788757D01*
X160734333Y-79977439D01*
X160752916Y-80166120D01*
X160764233Y-80203427D01*
X160807953Y-80347554D01*
X160807954Y-80347557D01*
X160807955Y-80347558D01*
X160807956Y-80347561D01*
X160897324Y-80514757D01*
X160897328Y-80514764D01*
X161017606Y-80661322D01*
X161164164Y-80781600D01*
X161164171Y-80781604D01*
X161331367Y-80870972D01*
X161331368Y-80870972D01*
X161331375Y-80870976D01*
X161512807Y-80926012D01*
X161512806Y-80926012D01*
X161529723Y-80927678D01*
X161701490Y-80944596D01*
X161890173Y-80926012D01*
X162046725Y-80878522D01*
X162116590Y-80877900D01*
X162170399Y-80909503D01*
X162488334Y-81227438D01*
X162521819Y-81288761D01*
X162516835Y-81358453D01*
X162474963Y-81414386D01*
X162409499Y-81438803D01*
X162341226Y-81423951D01*
X162338657Y-81422508D01*
X162334902Y-81420340D01*
X162134774Y-81327019D01*
X162134760Y-81327014D01*
X161921476Y-81269865D01*
X161921466Y-81269863D01*
X161701491Y-81250618D01*
X161701489Y-81250618D01*
X161481513Y-81269863D01*
X161481503Y-81269865D01*
X161268219Y-81327014D01*
X161268210Y-81327018D01*
X161068080Y-81420340D01*
X161003301Y-81465697D01*
X161674043Y-82136439D01*
X161651330Y-82136439D01*
X161554429Y-82162403D01*
X161467550Y-82212563D01*
X161396614Y-82283499D01*
X161346454Y-82370378D01*
X161320490Y-82467279D01*
X161320490Y-82489992D01*
X160649748Y-81819250D01*
X160604391Y-81884029D01*
X160511069Y-82084159D01*
X160511065Y-82084168D01*
X160453916Y-82297452D01*
X160453914Y-82297462D01*
X160434669Y-82517438D01*
X160434669Y-82517439D01*
X160453914Y-82737415D01*
X160453916Y-82737425D01*
X160511065Y-82950709D01*
X160511070Y-82950723D01*
X160604388Y-83150844D01*
X160604391Y-83150850D01*
X160649748Y-83215626D01*
X160649749Y-83215627D01*
X161320490Y-82544886D01*
X161320490Y-82567599D01*
X161346454Y-82664500D01*
X161396614Y-82751379D01*
X161467550Y-82822315D01*
X161554429Y-82872475D01*
X161651330Y-82898439D01*
X161674043Y-82898439D01*
X161003300Y-83569179D01*
X161068080Y-83614538D01*
X161068082Y-83614539D01*
X161268205Y-83707858D01*
X161268219Y-83707863D01*
X161481503Y-83765012D01*
X161481513Y-83765014D01*
X161701489Y-83784260D01*
X161701491Y-83784260D01*
X161921466Y-83765014D01*
X161921476Y-83765012D01*
X162134760Y-83707863D01*
X162134774Y-83707858D01*
X162334897Y-83614539D01*
X162334907Y-83614533D01*
X162399678Y-83569180D01*
X161728938Y-82898439D01*
X161751650Y-82898439D01*
X161848551Y-82872475D01*
X161935430Y-82822315D01*
X162006366Y-82751379D01*
X162056526Y-82664500D01*
X162082490Y-82567599D01*
X162082490Y-82544886D01*
X162704181Y-83166577D01*
X162737666Y-83227900D01*
X162740500Y-83254258D01*
X162740500Y-84464447D01*
X162720815Y-84531486D01*
X162668011Y-84577241D01*
X162598853Y-84587185D01*
X162535297Y-84558160D01*
X162507144Y-84522905D01*
X162505654Y-84520117D01*
X162505651Y-84520113D01*
X162385373Y-84373555D01*
X162238815Y-84253277D01*
X162238808Y-84253273D01*
X162071612Y-84163905D01*
X162071609Y-84163904D01*
X162071608Y-84163903D01*
X162071605Y-84163902D01*
X161890173Y-84108866D01*
X161890171Y-84108865D01*
X161890173Y-84108865D01*
X161701490Y-84090282D01*
X161512808Y-84108865D01*
X161405684Y-84141360D01*
X161331375Y-84163902D01*
X161331372Y-84163903D01*
X161331370Y-84163904D01*
X161331367Y-84163905D01*
X161164171Y-84253273D01*
X161164164Y-84253277D01*
X161017606Y-84373555D01*
X160897328Y-84520113D01*
X160897324Y-84520120D01*
X160807956Y-84687316D01*
X160807955Y-84687319D01*
X160807954Y-84687321D01*
X160807953Y-84687324D01*
X160789415Y-84748436D01*
X160752916Y-84868757D01*
X160734333Y-85057439D01*
X160752916Y-85246120D01*
X160757161Y-85260114D01*
X160807953Y-85427554D01*
X160807954Y-85427557D01*
X160807955Y-85427558D01*
X160807956Y-85427561D01*
X160897324Y-85594757D01*
X160897325Y-85594758D01*
X160897328Y-85594763D01*
X160946645Y-85654855D01*
X160973957Y-85719163D01*
X160962166Y-85788031D01*
X160938472Y-85821200D01*
X157551078Y-89208593D01*
X157489755Y-89242078D01*
X157427402Y-89239573D01*
X157353402Y-89217125D01*
X157268683Y-89191427D01*
X157268681Y-89191426D01*
X157268683Y-89191426D01*
X157080000Y-89172843D01*
X156891318Y-89191426D01*
X156795715Y-89220427D01*
X156709885Y-89246463D01*
X156709882Y-89246464D01*
X156709880Y-89246465D01*
X156709877Y-89246466D01*
X156542681Y-89335834D01*
X156542674Y-89335838D01*
X156396116Y-89456116D01*
X156275838Y-89602674D01*
X156275833Y-89602681D01*
X156262858Y-89626958D01*
X156213896Y-89676803D01*
X156145758Y-89692263D01*
X156080078Y-89668431D01*
X156037710Y-89612874D01*
X156029500Y-89568505D01*
X156029500Y-88171494D01*
X156049185Y-88104455D01*
X156101989Y-88058700D01*
X156171147Y-88048756D01*
X156234703Y-88077781D01*
X156262859Y-88113042D01*
X156275836Y-88137322D01*
X156275838Y-88137325D01*
X156396116Y-88283883D01*
X156542674Y-88404161D01*
X156542681Y-88404165D01*
X156709877Y-88493533D01*
X156709878Y-88493533D01*
X156709885Y-88493537D01*
X156891317Y-88548573D01*
X156891316Y-88548573D01*
X156908233Y-88550239D01*
X157080000Y-88567157D01*
X157268683Y-88548573D01*
X157450115Y-88493537D01*
X157617324Y-88404162D01*
X157763883Y-88283883D01*
X157884162Y-88137324D01*
X157973537Y-87970115D01*
X158028573Y-87788683D01*
X158047157Y-87600000D01*
X158028573Y-87411317D01*
X157973537Y-87229885D01*
X157972168Y-87227324D01*
X157884165Y-87062681D01*
X157884161Y-87062674D01*
X157763883Y-86916116D01*
X157617325Y-86795838D01*
X157617318Y-86795834D01*
X157450122Y-86706466D01*
X157450119Y-86706465D01*
X157450118Y-86706464D01*
X157450115Y-86706463D01*
X157268683Y-86651427D01*
X157268681Y-86651426D01*
X157268683Y-86651426D01*
X157080000Y-86632843D01*
X156891318Y-86651426D01*
X156810062Y-86676075D01*
X156709885Y-86706463D01*
X156709882Y-86706464D01*
X156709880Y-86706465D01*
X156709877Y-86706466D01*
X156542681Y-86795834D01*
X156542674Y-86795838D01*
X156396116Y-86916116D01*
X156275838Y-87062674D01*
X156275833Y-87062681D01*
X156262858Y-87086958D01*
X156213896Y-87136803D01*
X156145758Y-87152263D01*
X156080078Y-87128431D01*
X156037710Y-87072874D01*
X156029500Y-87028505D01*
X156029500Y-85631494D01*
X156049185Y-85564455D01*
X156101989Y-85518700D01*
X156171147Y-85508756D01*
X156234703Y-85537781D01*
X156262859Y-85573042D01*
X156275836Y-85597322D01*
X156275838Y-85597325D01*
X156396116Y-85743883D01*
X156542674Y-85864161D01*
X156542681Y-85864165D01*
X156709877Y-85953533D01*
X156709878Y-85953533D01*
X156709885Y-85953537D01*
X156891317Y-86008573D01*
X156891316Y-86008573D01*
X156908233Y-86010239D01*
X157080000Y-86027157D01*
X157268683Y-86008573D01*
X157450115Y-85953537D01*
X157617324Y-85864162D01*
X157763883Y-85743883D01*
X157884162Y-85597324D01*
X157973537Y-85430115D01*
X158028573Y-85248683D01*
X158047157Y-85060000D01*
X158028573Y-84871317D01*
X157973537Y-84689885D01*
X157972168Y-84687324D01*
X157884165Y-84522681D01*
X157884161Y-84522674D01*
X157763883Y-84376116D01*
X157617325Y-84255838D01*
X157617318Y-84255834D01*
X157450122Y-84166466D01*
X157450119Y-84166465D01*
X157450118Y-84166464D01*
X157450115Y-84166463D01*
X157268683Y-84111427D01*
X157268681Y-84111426D01*
X157268683Y-84111426D01*
X157080000Y-84092843D01*
X156891318Y-84111426D01*
X156784194Y-84143921D01*
X156709885Y-84166463D01*
X156709882Y-84166464D01*
X156709880Y-84166465D01*
X156709877Y-84166466D01*
X156542681Y-84255834D01*
X156542674Y-84255838D01*
X156396116Y-84376116D01*
X156275838Y-84522674D01*
X156275833Y-84522681D01*
X156262858Y-84546958D01*
X156213896Y-84596803D01*
X156145758Y-84612263D01*
X156080078Y-84588431D01*
X156037710Y-84532874D01*
X156029500Y-84488505D01*
X156029500Y-83509500D01*
X156049185Y-83442461D01*
X156101989Y-83396706D01*
X156153500Y-83385500D01*
X156585113Y-83385500D01*
X156585116Y-83385500D01*
X156585947Y-83385277D01*
X156586676Y-83385294D01*
X156593173Y-83384439D01*
X156593306Y-83385451D01*
X156655795Y-83386936D01*
X156676496Y-83395690D01*
X156698488Y-83407445D01*
X156709877Y-83413533D01*
X156709885Y-83413537D01*
X156891317Y-83468573D01*
X156891316Y-83468573D01*
X156908233Y-83470239D01*
X157080000Y-83487157D01*
X157268683Y-83468573D01*
X157450115Y-83413537D01*
X157617324Y-83324162D01*
X157763883Y-83203883D01*
X157884162Y-83057324D01*
X157973537Y-82890115D01*
X158028573Y-82708683D01*
X158047157Y-82520000D01*
X158028573Y-82331317D01*
X157973537Y-82149885D01*
X157965680Y-82135185D01*
X157884165Y-81982681D01*
X157884161Y-81982674D01*
X157763883Y-81836116D01*
X157617325Y-81715838D01*
X157617318Y-81715834D01*
X157450122Y-81626466D01*
X157450119Y-81626465D01*
X157450118Y-81626464D01*
X157450115Y-81626463D01*
X157268683Y-81571427D01*
X157268681Y-81571426D01*
X157268683Y-81571426D01*
X157080000Y-81552843D01*
X156891318Y-81571426D01*
X156784194Y-81603921D01*
X156709885Y-81626463D01*
X156709882Y-81626464D01*
X156709880Y-81626465D01*
X156709877Y-81626466D01*
X156542681Y-81715834D01*
X156542674Y-81715838D01*
X156396116Y-81836116D01*
X156275838Y-81982674D01*
X156275834Y-81982681D01*
X156186466Y-82149877D01*
X156186465Y-82149880D01*
X156186464Y-82149882D01*
X156186463Y-82149885D01*
X156165352Y-82219479D01*
X156131426Y-82331318D01*
X156116805Y-82479769D01*
X156112843Y-82520000D01*
X156120165Y-82594346D01*
X156107147Y-82662991D01*
X156059083Y-82713702D01*
X155996763Y-82730500D01*
X155912884Y-82730500D01*
X155857354Y-82745379D01*
X155829589Y-82752819D01*
X155754911Y-82795934D01*
X155754908Y-82795936D01*
X155733181Y-82817664D01*
X155671858Y-82851149D01*
X155602166Y-82846165D01*
X155546233Y-82804293D01*
X155521816Y-82738829D01*
X155521500Y-82729983D01*
X155521500Y-82053016D01*
X155541185Y-81985977D01*
X155557814Y-81965339D01*
X156611092Y-80912061D01*
X156672413Y-80878578D01*
X156734764Y-80881083D01*
X156891314Y-80928572D01*
X156891316Y-80928573D01*
X156908233Y-80930239D01*
X157080000Y-80947157D01*
X157268683Y-80928573D01*
X157450115Y-80873537D01*
X157617324Y-80784162D01*
X157763883Y-80663883D01*
X157884162Y-80517324D01*
X157973537Y-80350115D01*
X158028573Y-80168683D01*
X158047157Y-79980000D01*
X158028573Y-79791317D01*
X157973537Y-79609885D01*
X157972168Y-79607324D01*
X157916916Y-79503953D01*
X157902674Y-79435550D01*
X157927674Y-79370306D01*
X157983979Y-79328936D01*
X158026274Y-79321500D01*
X160753847Y-79321500D01*
X160820886Y-79341185D01*
G37*
%TD.AperFunction*%
%TA.AperFunction,Conductor*%
G36*
X168155022Y-79341185D02*
G01*
X168175664Y-79357819D01*
X172064552Y-83246707D01*
X172098037Y-83308030D01*
X172093053Y-83377722D01*
X172070584Y-83415590D01*
X172057623Y-83430547D01*
X172057620Y-83430552D01*
X172000222Y-83556234D01*
X171980559Y-83693000D01*
X172000222Y-83829765D01*
X172053628Y-83946705D01*
X172057621Y-83955449D01*
X172076187Y-83976875D01*
X172105212Y-84040431D01*
X172095268Y-84109589D01*
X172053040Y-84158323D01*
X172053209Y-84158518D01*
X172051859Y-84159687D01*
X172049516Y-84162392D01*
X172046505Y-84164326D01*
X171956021Y-84268751D01*
X171956020Y-84268752D01*
X171898622Y-84394434D01*
X171878959Y-84531200D01*
X171898622Y-84667965D01*
X171949687Y-84779780D01*
X171956021Y-84793649D01*
X172046504Y-84898072D01*
X172046506Y-84898073D01*
X172046508Y-84898075D01*
X172162738Y-84972772D01*
X172162743Y-84972774D01*
X172295312Y-85011699D01*
X172295314Y-85011700D01*
X172295315Y-85011700D01*
X172433485Y-85011700D01*
X172535807Y-84981656D01*
X172605677Y-84981656D01*
X172664455Y-85019430D01*
X172693480Y-85082986D01*
X172693480Y-85118279D01*
X172687994Y-85156435D01*
X172687779Y-85157933D01*
X172700459Y-85246122D01*
X172701858Y-85255853D01*
X172691914Y-85325011D01*
X172646160Y-85377815D01*
X172579120Y-85397500D01*
X171891017Y-85397500D01*
X171823978Y-85377815D01*
X171803336Y-85361181D01*
X165975336Y-79533181D01*
X165941851Y-79471858D01*
X165946835Y-79402166D01*
X165988707Y-79346233D01*
X166054171Y-79321816D01*
X166063017Y-79321500D01*
X168087983Y-79321500D01*
X168155022Y-79341185D01*
G37*
%TD.AperFunction*%
%TD*%
%TA.AperFunction,Conductor*%
%TO.N,/CAN LISTEN L*%
G36*
X154075293Y-82429322D02*
G01*
X154076137Y-82430963D01*
X154178086Y-82674815D01*
X154178991Y-82679370D01*
X154178043Y-82944750D01*
X154174587Y-82953011D01*
X154166301Y-82956408D01*
X154165765Y-82956394D01*
X153663699Y-82931550D01*
X153655605Y-82927718D01*
X153652577Y-82919864D01*
X153652577Y-82683521D01*
X153656004Y-82675248D01*
X153658123Y-82673570D01*
X154059189Y-82425524D01*
X154068027Y-82424088D01*
X154075293Y-82429322D01*
G37*
%TD.AperFunction*%
%TD*%
%TA.AperFunction,Conductor*%
%TO.N,+12V*%
G36*
X203131795Y-89484677D02*
G01*
X203195046Y-89511121D01*
X203201357Y-89517474D01*
X203201768Y-89525183D01*
X203075452Y-89959567D01*
X203069851Y-89966554D01*
X203064217Y-89968000D01*
X202827783Y-89968000D01*
X202819510Y-89964573D01*
X202816548Y-89959567D01*
X202690231Y-89525183D01*
X202691212Y-89516282D01*
X202696953Y-89511121D01*
X202941488Y-89408885D01*
X202950442Y-89408857D01*
X203131795Y-89484677D01*
G37*
%TD.AperFunction*%
%TD*%
%TA.AperFunction,Conductor*%
%TO.N,/CAN LISTEN H*%
G36*
X153930206Y-81812343D02*
G01*
X154174490Y-81913139D01*
X154180830Y-81919462D01*
X154180851Y-81919512D01*
X154280992Y-82163551D01*
X154280963Y-82172506D01*
X154275312Y-82178502D01*
X153792659Y-82414755D01*
X153783722Y-82415314D01*
X153777006Y-82409390D01*
X153775815Y-82404246D01*
X153775815Y-82171238D01*
X153776642Y-82166918D01*
X153777980Y-82163551D01*
X153914937Y-81818863D01*
X153921175Y-81812442D01*
X153930129Y-81812312D01*
X153930206Y-81812343D01*
G37*
%TD.AperFunction*%
%TD*%
%TA.AperFunction,Conductor*%
%TO.N,+3.3V*%
G36*
X176789551Y-79344914D02*
G01*
X176683107Y-79604307D01*
X176423714Y-79710751D01*
X176198032Y-79296009D01*
X176374809Y-79119232D01*
X176789551Y-79344914D01*
G37*
%TD.AperFunction*%
%TD*%
%TA.AperFunction,Conductor*%
%TO.N,Net-(D8-K)*%
G36*
X137296156Y-88789046D02*
G01*
X137301509Y-88794890D01*
X137403668Y-89039243D01*
X137403697Y-89048198D01*
X137403668Y-89048269D01*
X137301366Y-89292963D01*
X137295013Y-89299274D01*
X137287492Y-89299738D01*
X136854895Y-89181751D01*
X136847815Y-89176268D01*
X136846274Y-89170463D01*
X136846274Y-88934013D01*
X136849701Y-88925740D01*
X136854497Y-88922842D01*
X137287241Y-88788231D01*
X137296156Y-88789046D01*
G37*
%TD.AperFunction*%
%TD*%
%TA.AperFunction,Conductor*%
%TO.N,Net-(D7-K)*%
G36*
X136484498Y-87756180D02*
G01*
X136484542Y-87756224D01*
X136671728Y-87942469D01*
X136675176Y-87950734D01*
X136675176Y-87950805D01*
X136674231Y-88215555D01*
X136670775Y-88223816D01*
X136663902Y-88227132D01*
X136213786Y-88280257D01*
X136205169Y-88277824D01*
X136200796Y-88270009D01*
X136200715Y-88268638D01*
X136200715Y-88032592D01*
X136204076Y-88024384D01*
X136467954Y-87756309D01*
X136476198Y-87752818D01*
X136484498Y-87756180D01*
G37*
%TD.AperFunction*%
%TD*%
%TA.AperFunction,Conductor*%
%TO.N,+12V*%
G36*
X131448975Y-94003844D02*
G01*
X131454716Y-94009005D01*
X131507165Y-94104465D01*
X131672553Y-94405480D01*
X131673534Y-94414380D01*
X131670572Y-94419386D01*
X131503386Y-94586572D01*
X131495113Y-94589999D01*
X131489480Y-94588553D01*
X131303941Y-94486612D01*
X131093005Y-94370716D01*
X131087404Y-94363729D01*
X131087814Y-94356021D01*
X131188436Y-94110817D01*
X131194746Y-94104465D01*
X131440021Y-94003815D01*
X131448975Y-94003844D01*
G37*
%TD.AperFunction*%
%TD*%
%TA.AperFunction,Conductor*%
%TO.N,Net-(D12-A2)*%
G36*
X212722528Y-89715027D02*
G01*
X212725476Y-89719987D01*
X212853715Y-90154387D01*
X212852771Y-90163292D01*
X212847007Y-90168495D01*
X212602513Y-90270713D01*
X212593558Y-90270742D01*
X212593487Y-90270713D01*
X212348992Y-90168495D01*
X212342681Y-90162142D01*
X212342284Y-90154387D01*
X212470524Y-89719987D01*
X212476153Y-89713023D01*
X212481745Y-89711600D01*
X212714255Y-89711600D01*
X212722528Y-89715027D01*
G37*
%TD.AperFunction*%
%TD*%
%TA.AperFunction,Conductor*%
%TO.N,GND*%
G36*
X168293717Y-93979212D02*
G01*
X168298878Y-93984953D01*
X168401113Y-94229487D01*
X168401142Y-94238442D01*
X168401113Y-94238513D01*
X168298878Y-94483046D01*
X168292525Y-94489357D01*
X168284816Y-94489768D01*
X167850433Y-94363452D01*
X167843446Y-94357851D01*
X167842000Y-94352217D01*
X167842000Y-94115782D01*
X167845427Y-94107509D01*
X167850430Y-94104548D01*
X168284817Y-93978231D01*
X168293717Y-93979212D01*
G37*
%TD.AperFunction*%
%TD*%
M02*
