%TF.GenerationSoftware,KiCad,Pcbnew,8.0.3*%
%TF.CreationDate,2024-06-20T21:51:27+02:00*%
%TF.ProjectId,KIA-OBD2-DISPLAY,4b49412d-4f42-4443-922d-444953504c41,rev?*%
%TF.SameCoordinates,Original*%
%TF.FileFunction,Soldermask,Bot*%
%TF.FilePolarity,Negative*%
%FSLAX46Y46*%
G04 Gerber Fmt 4.6, Leading zero omitted, Abs format (unit mm)*
G04 Created by KiCad (PCBNEW 8.0.3) date 2024-06-20 21:51:27*
%MOMM*%
%LPD*%
G01*
G04 APERTURE LIST*
G04 APERTURE END LIST*
G36*
X126914323Y-94708656D02*
G01*
X126956595Y-94708656D01*
X127004282Y-94718792D01*
X127051017Y-94724058D01*
X127085000Y-94735949D01*
X127120129Y-94743416D01*
X127170754Y-94765955D01*
X127220107Y-94783225D01*
X127245795Y-94799366D01*
X127272860Y-94811416D01*
X127323322Y-94848079D01*
X127371792Y-94878535D01*
X127389199Y-94895942D01*
X127408121Y-94909690D01*
X127454901Y-94961644D01*
X127498465Y-95005208D01*
X127508484Y-95021153D01*
X127519992Y-95033934D01*
X127559365Y-95102130D01*
X127593775Y-95156893D01*
X127598070Y-95169170D01*
X127603584Y-95178719D01*
X127631809Y-95265590D01*
X127652942Y-95325983D01*
X127653743Y-95333096D01*
X127655248Y-95337727D01*
X127668892Y-95467542D01*
X127673000Y-95504000D01*
X127668891Y-95540460D01*
X127655248Y-95670272D01*
X127653743Y-95674901D01*
X127652942Y-95682017D01*
X127631805Y-95742422D01*
X127603584Y-95829280D01*
X127598071Y-95838827D01*
X127593775Y-95851107D01*
X127559358Y-95905881D01*
X127519992Y-95974065D01*
X127508486Y-95986843D01*
X127498465Y-96002792D01*
X127454892Y-96046364D01*
X127408121Y-96098309D01*
X127389203Y-96112053D01*
X127371792Y-96129465D01*
X127323312Y-96159926D01*
X127272860Y-96196583D01*
X127245800Y-96208630D01*
X127220107Y-96224775D01*
X127170744Y-96242047D01*
X127120129Y-96264583D01*
X127085005Y-96272048D01*
X127051017Y-96283942D01*
X127004279Y-96289208D01*
X126956595Y-96299344D01*
X126914323Y-96299344D01*
X126873000Y-96304000D01*
X126831677Y-96299344D01*
X126789405Y-96299344D01*
X126741719Y-96289208D01*
X126694983Y-96283942D01*
X126660995Y-96272049D01*
X126625870Y-96264583D01*
X126575251Y-96242046D01*
X126525893Y-96224775D01*
X126500201Y-96208631D01*
X126473139Y-96196583D01*
X126422680Y-96159922D01*
X126374208Y-96129465D01*
X126356799Y-96112056D01*
X126337878Y-96098309D01*
X126291097Y-96046354D01*
X126247535Y-96002792D01*
X126237516Y-95986847D01*
X126226007Y-95974065D01*
X126186629Y-95905861D01*
X126152225Y-95851107D01*
X126147929Y-95838831D01*
X126142415Y-95829280D01*
X126114180Y-95742382D01*
X126093058Y-95682017D01*
X126092256Y-95674906D01*
X126090751Y-95670272D01*
X126077093Y-95540328D01*
X126073000Y-95504000D01*
X126077092Y-95467674D01*
X126090751Y-95337727D01*
X126092257Y-95333091D01*
X126093058Y-95325983D01*
X126114176Y-95265630D01*
X126142415Y-95178719D01*
X126147930Y-95169165D01*
X126152225Y-95156893D01*
X126186622Y-95102149D01*
X126226007Y-95033934D01*
X126237518Y-95021149D01*
X126247535Y-95005208D01*
X126291088Y-94961654D01*
X126337878Y-94909690D01*
X126356802Y-94895940D01*
X126374208Y-94878535D01*
X126422674Y-94848081D01*
X126473140Y-94811416D01*
X126500204Y-94799365D01*
X126525893Y-94783225D01*
X126575242Y-94765956D01*
X126625870Y-94743416D01*
X126661001Y-94735948D01*
X126694983Y-94724058D01*
X126741717Y-94718792D01*
X126789405Y-94708656D01*
X126831677Y-94708656D01*
X126873000Y-94704000D01*
X126914323Y-94708656D01*
G37*
G36*
X157121323Y-94424656D02*
G01*
X157163595Y-94424656D01*
X157211282Y-94434792D01*
X157258017Y-94440058D01*
X157292000Y-94451949D01*
X157327129Y-94459416D01*
X157377754Y-94481955D01*
X157427107Y-94499225D01*
X157452795Y-94515366D01*
X157479860Y-94527416D01*
X157530322Y-94564079D01*
X157578792Y-94594535D01*
X157596199Y-94611942D01*
X157615121Y-94625690D01*
X157661901Y-94677644D01*
X157705465Y-94721208D01*
X157715484Y-94737153D01*
X157726992Y-94749934D01*
X157766365Y-94818130D01*
X157800775Y-94872893D01*
X157805070Y-94885170D01*
X157810584Y-94894719D01*
X157838809Y-94981590D01*
X157859942Y-95041983D01*
X157860743Y-95049096D01*
X157862248Y-95053727D01*
X157875892Y-95183542D01*
X157880000Y-95220000D01*
X157875891Y-95256460D01*
X157862248Y-95386272D01*
X157860743Y-95390901D01*
X157859942Y-95398017D01*
X157838805Y-95458422D01*
X157810584Y-95545280D01*
X157805071Y-95554827D01*
X157800775Y-95567107D01*
X157766358Y-95621881D01*
X157726992Y-95690065D01*
X157715486Y-95702843D01*
X157705465Y-95718792D01*
X157661892Y-95762364D01*
X157615121Y-95814309D01*
X157596203Y-95828053D01*
X157578792Y-95845465D01*
X157530312Y-95875926D01*
X157479860Y-95912583D01*
X157452800Y-95924630D01*
X157427107Y-95940775D01*
X157377744Y-95958047D01*
X157327129Y-95980583D01*
X157292005Y-95988048D01*
X157258017Y-95999942D01*
X157211279Y-96005208D01*
X157163595Y-96015344D01*
X157121323Y-96015344D01*
X157080000Y-96020000D01*
X157038677Y-96015344D01*
X156996405Y-96015344D01*
X156948719Y-96005208D01*
X156901983Y-95999942D01*
X156867995Y-95988049D01*
X156832870Y-95980583D01*
X156782251Y-95958046D01*
X156732893Y-95940775D01*
X156707201Y-95924631D01*
X156680139Y-95912583D01*
X156629680Y-95875922D01*
X156581208Y-95845465D01*
X156563799Y-95828056D01*
X156544878Y-95814309D01*
X156498097Y-95762354D01*
X156454535Y-95718792D01*
X156444516Y-95702847D01*
X156433007Y-95690065D01*
X156393629Y-95621861D01*
X156359225Y-95567107D01*
X156354929Y-95554831D01*
X156349415Y-95545280D01*
X156321180Y-95458382D01*
X156300058Y-95398017D01*
X156299256Y-95390906D01*
X156297751Y-95386272D01*
X156284093Y-95256328D01*
X156280000Y-95220000D01*
X156284092Y-95183674D01*
X156297751Y-95053727D01*
X156299257Y-95049091D01*
X156300058Y-95041983D01*
X156321176Y-94981630D01*
X156349415Y-94894719D01*
X156354930Y-94885165D01*
X156359225Y-94872893D01*
X156393622Y-94818149D01*
X156433007Y-94749934D01*
X156444518Y-94737149D01*
X156454535Y-94721208D01*
X156498088Y-94677654D01*
X156544878Y-94625690D01*
X156563802Y-94611940D01*
X156581208Y-94594535D01*
X156629674Y-94564081D01*
X156680140Y-94527416D01*
X156707204Y-94515365D01*
X156732893Y-94499225D01*
X156782242Y-94481956D01*
X156832870Y-94459416D01*
X156868001Y-94451948D01*
X156901983Y-94440058D01*
X156948717Y-94434792D01*
X156996405Y-94424656D01*
X157038677Y-94424656D01*
X157080000Y-94420000D01*
X157121323Y-94424656D01*
G37*
G36*
X161742813Y-94422095D02*
G01*
X161785085Y-94422095D01*
X161832772Y-94432231D01*
X161879507Y-94437497D01*
X161913490Y-94449388D01*
X161948619Y-94456855D01*
X161999244Y-94479394D01*
X162048597Y-94496664D01*
X162074285Y-94512805D01*
X162101350Y-94524855D01*
X162151812Y-94561518D01*
X162200282Y-94591974D01*
X162217689Y-94609381D01*
X162236611Y-94623129D01*
X162283391Y-94675083D01*
X162326955Y-94718647D01*
X162336974Y-94734592D01*
X162348482Y-94747373D01*
X162387855Y-94815569D01*
X162422265Y-94870332D01*
X162426560Y-94882609D01*
X162432074Y-94892158D01*
X162460299Y-94979029D01*
X162481432Y-95039422D01*
X162482233Y-95046535D01*
X162483738Y-95051166D01*
X162497382Y-95180981D01*
X162501490Y-95217439D01*
X162497381Y-95253899D01*
X162483738Y-95383711D01*
X162482233Y-95388340D01*
X162481432Y-95395456D01*
X162460295Y-95455861D01*
X162432074Y-95542719D01*
X162426561Y-95552266D01*
X162422265Y-95564546D01*
X162387848Y-95619320D01*
X162348482Y-95687504D01*
X162336976Y-95700282D01*
X162326955Y-95716231D01*
X162283382Y-95759803D01*
X162236611Y-95811748D01*
X162217693Y-95825492D01*
X162200282Y-95842904D01*
X162151802Y-95873365D01*
X162101350Y-95910022D01*
X162074290Y-95922069D01*
X162048597Y-95938214D01*
X161999234Y-95955486D01*
X161948619Y-95978022D01*
X161913495Y-95985487D01*
X161879507Y-95997381D01*
X161832769Y-96002647D01*
X161785085Y-96012783D01*
X161742813Y-96012783D01*
X161701490Y-96017439D01*
X161660167Y-96012783D01*
X161617895Y-96012783D01*
X161570209Y-96002647D01*
X161523473Y-95997381D01*
X161489485Y-95985488D01*
X161454360Y-95978022D01*
X161403741Y-95955485D01*
X161354383Y-95938214D01*
X161328691Y-95922070D01*
X161301629Y-95910022D01*
X161251170Y-95873361D01*
X161202698Y-95842904D01*
X161185289Y-95825495D01*
X161166368Y-95811748D01*
X161119587Y-95759793D01*
X161076025Y-95716231D01*
X161066006Y-95700286D01*
X161054497Y-95687504D01*
X161015119Y-95619300D01*
X160980715Y-95564546D01*
X160976419Y-95552270D01*
X160970905Y-95542719D01*
X160942670Y-95455821D01*
X160921548Y-95395456D01*
X160920746Y-95388345D01*
X160919241Y-95383711D01*
X160905583Y-95253767D01*
X160901490Y-95217439D01*
X160905582Y-95181113D01*
X160919241Y-95051166D01*
X160920747Y-95046530D01*
X160921548Y-95039422D01*
X160942666Y-94979069D01*
X160970905Y-94892158D01*
X160976420Y-94882604D01*
X160980715Y-94870332D01*
X161015112Y-94815588D01*
X161054497Y-94747373D01*
X161066008Y-94734588D01*
X161076025Y-94718647D01*
X161119578Y-94675093D01*
X161166368Y-94623129D01*
X161185292Y-94609379D01*
X161202698Y-94591974D01*
X161251164Y-94561520D01*
X161301630Y-94524855D01*
X161328694Y-94512804D01*
X161354383Y-94496664D01*
X161403732Y-94479395D01*
X161454360Y-94456855D01*
X161489491Y-94449387D01*
X161523473Y-94437497D01*
X161570207Y-94432231D01*
X161617895Y-94422095D01*
X161660167Y-94422095D01*
X161701490Y-94417439D01*
X161742813Y-94422095D01*
G37*
G36*
X126914323Y-92168656D02*
G01*
X126956595Y-92168656D01*
X127004282Y-92178792D01*
X127051017Y-92184058D01*
X127085000Y-92195949D01*
X127120129Y-92203416D01*
X127170754Y-92225955D01*
X127220107Y-92243225D01*
X127245795Y-92259366D01*
X127272860Y-92271416D01*
X127323322Y-92308079D01*
X127371792Y-92338535D01*
X127389199Y-92355942D01*
X127408121Y-92369690D01*
X127454901Y-92421644D01*
X127498465Y-92465208D01*
X127508484Y-92481153D01*
X127519992Y-92493934D01*
X127559365Y-92562130D01*
X127593775Y-92616893D01*
X127598070Y-92629170D01*
X127603584Y-92638719D01*
X127631809Y-92725590D01*
X127652942Y-92785983D01*
X127653743Y-92793096D01*
X127655248Y-92797727D01*
X127668892Y-92927542D01*
X127673000Y-92964000D01*
X127668891Y-93000460D01*
X127655248Y-93130272D01*
X127653743Y-93134901D01*
X127652942Y-93142017D01*
X127631805Y-93202422D01*
X127603584Y-93289280D01*
X127598071Y-93298827D01*
X127593775Y-93311107D01*
X127559358Y-93365881D01*
X127519992Y-93434065D01*
X127508486Y-93446843D01*
X127498465Y-93462792D01*
X127454892Y-93506364D01*
X127408121Y-93558309D01*
X127389203Y-93572053D01*
X127371792Y-93589465D01*
X127323312Y-93619926D01*
X127272860Y-93656583D01*
X127245800Y-93668630D01*
X127220107Y-93684775D01*
X127170744Y-93702047D01*
X127120129Y-93724583D01*
X127085005Y-93732048D01*
X127051017Y-93743942D01*
X127004279Y-93749208D01*
X126956595Y-93759344D01*
X126914323Y-93759344D01*
X126873000Y-93764000D01*
X126831677Y-93759344D01*
X126789405Y-93759344D01*
X126741719Y-93749208D01*
X126694983Y-93743942D01*
X126660995Y-93732049D01*
X126625870Y-93724583D01*
X126575251Y-93702046D01*
X126525893Y-93684775D01*
X126500201Y-93668631D01*
X126473139Y-93656583D01*
X126422680Y-93619922D01*
X126374208Y-93589465D01*
X126356799Y-93572056D01*
X126337878Y-93558309D01*
X126291097Y-93506354D01*
X126247535Y-93462792D01*
X126237516Y-93446847D01*
X126226007Y-93434065D01*
X126186629Y-93365861D01*
X126152225Y-93311107D01*
X126147929Y-93298831D01*
X126142415Y-93289280D01*
X126114180Y-93202382D01*
X126093058Y-93142017D01*
X126092256Y-93134906D01*
X126090751Y-93130272D01*
X126077093Y-93000328D01*
X126073000Y-92964000D01*
X126077092Y-92927674D01*
X126090751Y-92797727D01*
X126092257Y-92793091D01*
X126093058Y-92785983D01*
X126114176Y-92725630D01*
X126142415Y-92638719D01*
X126147930Y-92629165D01*
X126152225Y-92616893D01*
X126186622Y-92562149D01*
X126226007Y-92493934D01*
X126237518Y-92481149D01*
X126247535Y-92465208D01*
X126291088Y-92421654D01*
X126337878Y-92369690D01*
X126356802Y-92355940D01*
X126374208Y-92338535D01*
X126422674Y-92308081D01*
X126473140Y-92271416D01*
X126500204Y-92259365D01*
X126525893Y-92243225D01*
X126575242Y-92225956D01*
X126625870Y-92203416D01*
X126661001Y-92195948D01*
X126694983Y-92184058D01*
X126741717Y-92178792D01*
X126789405Y-92168656D01*
X126831677Y-92168656D01*
X126873000Y-92164000D01*
X126914323Y-92168656D01*
G37*
G36*
X157121323Y-91884656D02*
G01*
X157163595Y-91884656D01*
X157211282Y-91894792D01*
X157258017Y-91900058D01*
X157292000Y-91911949D01*
X157327129Y-91919416D01*
X157377754Y-91941955D01*
X157427107Y-91959225D01*
X157452795Y-91975366D01*
X157479860Y-91987416D01*
X157530322Y-92024079D01*
X157578792Y-92054535D01*
X157596199Y-92071942D01*
X157615121Y-92085690D01*
X157661901Y-92137644D01*
X157705465Y-92181208D01*
X157715484Y-92197153D01*
X157726992Y-92209934D01*
X157766365Y-92278130D01*
X157800775Y-92332893D01*
X157805070Y-92345170D01*
X157810584Y-92354719D01*
X157838809Y-92441590D01*
X157859942Y-92501983D01*
X157860743Y-92509096D01*
X157862248Y-92513727D01*
X157875892Y-92643542D01*
X157880000Y-92680000D01*
X157875891Y-92716460D01*
X157862248Y-92846272D01*
X157860743Y-92850901D01*
X157859942Y-92858017D01*
X157838805Y-92918422D01*
X157810584Y-93005280D01*
X157805071Y-93014827D01*
X157800775Y-93027107D01*
X157766358Y-93081881D01*
X157726992Y-93150065D01*
X157715486Y-93162843D01*
X157705465Y-93178792D01*
X157661892Y-93222364D01*
X157615121Y-93274309D01*
X157596203Y-93288053D01*
X157578792Y-93305465D01*
X157530312Y-93335926D01*
X157479860Y-93372583D01*
X157452800Y-93384630D01*
X157427107Y-93400775D01*
X157377744Y-93418047D01*
X157327129Y-93440583D01*
X157292005Y-93448048D01*
X157258017Y-93459942D01*
X157211279Y-93465208D01*
X157163595Y-93475344D01*
X157121323Y-93475344D01*
X157080000Y-93480000D01*
X157038677Y-93475344D01*
X156996405Y-93475344D01*
X156948719Y-93465208D01*
X156901983Y-93459942D01*
X156867995Y-93448049D01*
X156832870Y-93440583D01*
X156782251Y-93418046D01*
X156732893Y-93400775D01*
X156707201Y-93384631D01*
X156680139Y-93372583D01*
X156629680Y-93335922D01*
X156581208Y-93305465D01*
X156563799Y-93288056D01*
X156544878Y-93274309D01*
X156498097Y-93222354D01*
X156454535Y-93178792D01*
X156444516Y-93162847D01*
X156433007Y-93150065D01*
X156393629Y-93081861D01*
X156359225Y-93027107D01*
X156354929Y-93014831D01*
X156349415Y-93005280D01*
X156321180Y-92918382D01*
X156300058Y-92858017D01*
X156299256Y-92850906D01*
X156297751Y-92846272D01*
X156284093Y-92716328D01*
X156280000Y-92680000D01*
X156284092Y-92643674D01*
X156297751Y-92513727D01*
X156299257Y-92509091D01*
X156300058Y-92501983D01*
X156321176Y-92441630D01*
X156349415Y-92354719D01*
X156354930Y-92345165D01*
X156359225Y-92332893D01*
X156393622Y-92278149D01*
X156433007Y-92209934D01*
X156444518Y-92197149D01*
X156454535Y-92181208D01*
X156498088Y-92137654D01*
X156544878Y-92085690D01*
X156563802Y-92071940D01*
X156581208Y-92054535D01*
X156629674Y-92024081D01*
X156680140Y-91987416D01*
X156707204Y-91975365D01*
X156732893Y-91959225D01*
X156782242Y-91941956D01*
X156832870Y-91919416D01*
X156868001Y-91911948D01*
X156901983Y-91900058D01*
X156948717Y-91894792D01*
X156996405Y-91884656D01*
X157038677Y-91884656D01*
X157080000Y-91880000D01*
X157121323Y-91884656D01*
G37*
G36*
X161742813Y-91882095D02*
G01*
X161785085Y-91882095D01*
X161832772Y-91892231D01*
X161879507Y-91897497D01*
X161913490Y-91909388D01*
X161948619Y-91916855D01*
X161999244Y-91939394D01*
X162048597Y-91956664D01*
X162074285Y-91972805D01*
X162101350Y-91984855D01*
X162151812Y-92021518D01*
X162200282Y-92051974D01*
X162217689Y-92069381D01*
X162236611Y-92083129D01*
X162283391Y-92135083D01*
X162326955Y-92178647D01*
X162336974Y-92194592D01*
X162348482Y-92207373D01*
X162387855Y-92275569D01*
X162422265Y-92330332D01*
X162426560Y-92342609D01*
X162432074Y-92352158D01*
X162460299Y-92439029D01*
X162481432Y-92499422D01*
X162482233Y-92506535D01*
X162483738Y-92511166D01*
X162497382Y-92640981D01*
X162501490Y-92677439D01*
X162497381Y-92713899D01*
X162483738Y-92843711D01*
X162482233Y-92848340D01*
X162481432Y-92855456D01*
X162460295Y-92915861D01*
X162432074Y-93002719D01*
X162426561Y-93012266D01*
X162422265Y-93024546D01*
X162387848Y-93079320D01*
X162348482Y-93147504D01*
X162336976Y-93160282D01*
X162326955Y-93176231D01*
X162283382Y-93219803D01*
X162236611Y-93271748D01*
X162217693Y-93285492D01*
X162200282Y-93302904D01*
X162151802Y-93333365D01*
X162101350Y-93370022D01*
X162074290Y-93382069D01*
X162048597Y-93398214D01*
X161999234Y-93415486D01*
X161948619Y-93438022D01*
X161913495Y-93445487D01*
X161879507Y-93457381D01*
X161832769Y-93462647D01*
X161785085Y-93472783D01*
X161742813Y-93472783D01*
X161701490Y-93477439D01*
X161660167Y-93472783D01*
X161617895Y-93472783D01*
X161570209Y-93462647D01*
X161523473Y-93457381D01*
X161489485Y-93445488D01*
X161454360Y-93438022D01*
X161403741Y-93415485D01*
X161354383Y-93398214D01*
X161328691Y-93382070D01*
X161301629Y-93370022D01*
X161251170Y-93333361D01*
X161202698Y-93302904D01*
X161185289Y-93285495D01*
X161166368Y-93271748D01*
X161119587Y-93219793D01*
X161076025Y-93176231D01*
X161066006Y-93160286D01*
X161054497Y-93147504D01*
X161015119Y-93079300D01*
X160980715Y-93024546D01*
X160976419Y-93012270D01*
X160970905Y-93002719D01*
X160942670Y-92915821D01*
X160921548Y-92855456D01*
X160920746Y-92848345D01*
X160919241Y-92843711D01*
X160905583Y-92713767D01*
X160901490Y-92677439D01*
X160905582Y-92641113D01*
X160919241Y-92511166D01*
X160920747Y-92506530D01*
X160921548Y-92499422D01*
X160942666Y-92439069D01*
X160970905Y-92352158D01*
X160976420Y-92342604D01*
X160980715Y-92330332D01*
X161015112Y-92275588D01*
X161054497Y-92207373D01*
X161066008Y-92194588D01*
X161076025Y-92178647D01*
X161119578Y-92135093D01*
X161166368Y-92083129D01*
X161185292Y-92069379D01*
X161202698Y-92051974D01*
X161251164Y-92021520D01*
X161301630Y-91984855D01*
X161328694Y-91972804D01*
X161354383Y-91956664D01*
X161403732Y-91939395D01*
X161454360Y-91916855D01*
X161489491Y-91909387D01*
X161523473Y-91897497D01*
X161570207Y-91892231D01*
X161617895Y-91882095D01*
X161660167Y-91882095D01*
X161701490Y-91877439D01*
X161742813Y-91882095D01*
G37*
G36*
X135005034Y-90458164D02*
G01*
X135038125Y-90480275D01*
X135060236Y-90513366D01*
X135068000Y-90552400D01*
X135068000Y-91752400D01*
X135060236Y-91791434D01*
X135038125Y-91824525D01*
X135005034Y-91846636D01*
X134966000Y-91854400D01*
X133766000Y-91854400D01*
X133726966Y-91846636D01*
X133693875Y-91824525D01*
X133671764Y-91791434D01*
X133664000Y-91752400D01*
X133664000Y-90552400D01*
X133671764Y-90513366D01*
X133693875Y-90480275D01*
X133726966Y-90458164D01*
X133766000Y-90450400D01*
X134966000Y-90450400D01*
X135005034Y-90458164D01*
G37*
G36*
X126914323Y-89628656D02*
G01*
X126956595Y-89628656D01*
X127004282Y-89638792D01*
X127051017Y-89644058D01*
X127085000Y-89655949D01*
X127120129Y-89663416D01*
X127170754Y-89685955D01*
X127220107Y-89703225D01*
X127245795Y-89719366D01*
X127272860Y-89731416D01*
X127323322Y-89768079D01*
X127371792Y-89798535D01*
X127389199Y-89815942D01*
X127408121Y-89829690D01*
X127454901Y-89881644D01*
X127498465Y-89925208D01*
X127508484Y-89941153D01*
X127519992Y-89953934D01*
X127559365Y-90022130D01*
X127593775Y-90076893D01*
X127598070Y-90089170D01*
X127603584Y-90098719D01*
X127631809Y-90185590D01*
X127652942Y-90245983D01*
X127653743Y-90253096D01*
X127655248Y-90257727D01*
X127668892Y-90387542D01*
X127673000Y-90424000D01*
X127668891Y-90460460D01*
X127655248Y-90590272D01*
X127653743Y-90594901D01*
X127652942Y-90602017D01*
X127631805Y-90662422D01*
X127603584Y-90749280D01*
X127598071Y-90758827D01*
X127593775Y-90771107D01*
X127559358Y-90825881D01*
X127519992Y-90894065D01*
X127508486Y-90906843D01*
X127498465Y-90922792D01*
X127454892Y-90966364D01*
X127408121Y-91018309D01*
X127389203Y-91032053D01*
X127371792Y-91049465D01*
X127323312Y-91079926D01*
X127272860Y-91116583D01*
X127245800Y-91128630D01*
X127220107Y-91144775D01*
X127170744Y-91162047D01*
X127120129Y-91184583D01*
X127085005Y-91192048D01*
X127051017Y-91203942D01*
X127004279Y-91209208D01*
X126956595Y-91219344D01*
X126914323Y-91219344D01*
X126873000Y-91224000D01*
X126831677Y-91219344D01*
X126789405Y-91219344D01*
X126741719Y-91209208D01*
X126694983Y-91203942D01*
X126660995Y-91192049D01*
X126625870Y-91184583D01*
X126575251Y-91162046D01*
X126525893Y-91144775D01*
X126500201Y-91128631D01*
X126473139Y-91116583D01*
X126422680Y-91079922D01*
X126374208Y-91049465D01*
X126356799Y-91032056D01*
X126337878Y-91018309D01*
X126291097Y-90966354D01*
X126247535Y-90922792D01*
X126237516Y-90906847D01*
X126226007Y-90894065D01*
X126186629Y-90825861D01*
X126152225Y-90771107D01*
X126147929Y-90758831D01*
X126142415Y-90749280D01*
X126114180Y-90662382D01*
X126093058Y-90602017D01*
X126092256Y-90594906D01*
X126090751Y-90590272D01*
X126077093Y-90460328D01*
X126073000Y-90424000D01*
X126077092Y-90387674D01*
X126090751Y-90257727D01*
X126092257Y-90253091D01*
X126093058Y-90245983D01*
X126114176Y-90185630D01*
X126142415Y-90098719D01*
X126147930Y-90089165D01*
X126152225Y-90076893D01*
X126186622Y-90022149D01*
X126226007Y-89953934D01*
X126237518Y-89941149D01*
X126247535Y-89925208D01*
X126291088Y-89881654D01*
X126337878Y-89829690D01*
X126356802Y-89815940D01*
X126374208Y-89798535D01*
X126422674Y-89768081D01*
X126473140Y-89731416D01*
X126500204Y-89719365D01*
X126525893Y-89703225D01*
X126575242Y-89685956D01*
X126625870Y-89663416D01*
X126661001Y-89655948D01*
X126694983Y-89644058D01*
X126741717Y-89638792D01*
X126789405Y-89628656D01*
X126831677Y-89628656D01*
X126873000Y-89624000D01*
X126914323Y-89628656D01*
G37*
G36*
X133227034Y-89560564D02*
G01*
X133260125Y-89582675D01*
X133282236Y-89615766D01*
X133290000Y-89654800D01*
X133290000Y-90854800D01*
X133282236Y-90893834D01*
X133260125Y-90926925D01*
X133227034Y-90949036D01*
X133188000Y-90956800D01*
X131988000Y-90956800D01*
X131948966Y-90949036D01*
X131915875Y-90926925D01*
X131893764Y-90893834D01*
X131886000Y-90854800D01*
X131886000Y-89654800D01*
X131893764Y-89615766D01*
X131915875Y-89582675D01*
X131948966Y-89560564D01*
X131988000Y-89552800D01*
X133188000Y-89552800D01*
X133227034Y-89560564D01*
G37*
G36*
X157121323Y-89344656D02*
G01*
X157163595Y-89344656D01*
X157211282Y-89354792D01*
X157258017Y-89360058D01*
X157292000Y-89371949D01*
X157327129Y-89379416D01*
X157377754Y-89401955D01*
X157427107Y-89419225D01*
X157452795Y-89435366D01*
X157479860Y-89447416D01*
X157530322Y-89484079D01*
X157578792Y-89514535D01*
X157596199Y-89531942D01*
X157615121Y-89545690D01*
X157661901Y-89597644D01*
X157705465Y-89641208D01*
X157715484Y-89657153D01*
X157726992Y-89669934D01*
X157766365Y-89738130D01*
X157800775Y-89792893D01*
X157805070Y-89805170D01*
X157810584Y-89814719D01*
X157838809Y-89901590D01*
X157859942Y-89961983D01*
X157860743Y-89969096D01*
X157862248Y-89973727D01*
X157875892Y-90103542D01*
X157880000Y-90140000D01*
X157875891Y-90176460D01*
X157862248Y-90306272D01*
X157860743Y-90310901D01*
X157859942Y-90318017D01*
X157838805Y-90378422D01*
X157810584Y-90465280D01*
X157805071Y-90474827D01*
X157800775Y-90487107D01*
X157766358Y-90541881D01*
X157726992Y-90610065D01*
X157715486Y-90622843D01*
X157705465Y-90638792D01*
X157661892Y-90682364D01*
X157615121Y-90734309D01*
X157596203Y-90748053D01*
X157578792Y-90765465D01*
X157530312Y-90795926D01*
X157479860Y-90832583D01*
X157452800Y-90844630D01*
X157427107Y-90860775D01*
X157377744Y-90878047D01*
X157327129Y-90900583D01*
X157292005Y-90908048D01*
X157258017Y-90919942D01*
X157211279Y-90925208D01*
X157163595Y-90935344D01*
X157121323Y-90935344D01*
X157080000Y-90940000D01*
X157038677Y-90935344D01*
X156996405Y-90935344D01*
X156948719Y-90925208D01*
X156901983Y-90919942D01*
X156867995Y-90908049D01*
X156832870Y-90900583D01*
X156782251Y-90878046D01*
X156732893Y-90860775D01*
X156707201Y-90844631D01*
X156680139Y-90832583D01*
X156629680Y-90795922D01*
X156581208Y-90765465D01*
X156563799Y-90748056D01*
X156544878Y-90734309D01*
X156498097Y-90682354D01*
X156454535Y-90638792D01*
X156444516Y-90622847D01*
X156433007Y-90610065D01*
X156393629Y-90541861D01*
X156359225Y-90487107D01*
X156354929Y-90474831D01*
X156349415Y-90465280D01*
X156321180Y-90378382D01*
X156300058Y-90318017D01*
X156299256Y-90310906D01*
X156297751Y-90306272D01*
X156284093Y-90176328D01*
X156280000Y-90140000D01*
X156284092Y-90103674D01*
X156297751Y-89973727D01*
X156299257Y-89969091D01*
X156300058Y-89961983D01*
X156321176Y-89901630D01*
X156349415Y-89814719D01*
X156354930Y-89805165D01*
X156359225Y-89792893D01*
X156393622Y-89738149D01*
X156433007Y-89669934D01*
X156444518Y-89657149D01*
X156454535Y-89641208D01*
X156498088Y-89597654D01*
X156544878Y-89545690D01*
X156563802Y-89531940D01*
X156581208Y-89514535D01*
X156629674Y-89484081D01*
X156680140Y-89447416D01*
X156707204Y-89435365D01*
X156732893Y-89419225D01*
X156782242Y-89401956D01*
X156832870Y-89379416D01*
X156868001Y-89371948D01*
X156901983Y-89360058D01*
X156948717Y-89354792D01*
X156996405Y-89344656D01*
X157038677Y-89344656D01*
X157080000Y-89340000D01*
X157121323Y-89344656D01*
G37*
G36*
X161742813Y-89342095D02*
G01*
X161785085Y-89342095D01*
X161832772Y-89352231D01*
X161879507Y-89357497D01*
X161913490Y-89369388D01*
X161948619Y-89376855D01*
X161999244Y-89399394D01*
X162048597Y-89416664D01*
X162074285Y-89432805D01*
X162101350Y-89444855D01*
X162151812Y-89481518D01*
X162200282Y-89511974D01*
X162217689Y-89529381D01*
X162236611Y-89543129D01*
X162283391Y-89595083D01*
X162326955Y-89638647D01*
X162336974Y-89654592D01*
X162348482Y-89667373D01*
X162387855Y-89735569D01*
X162422265Y-89790332D01*
X162426560Y-89802609D01*
X162432074Y-89812158D01*
X162460299Y-89899029D01*
X162481432Y-89959422D01*
X162482233Y-89966535D01*
X162483738Y-89971166D01*
X162497382Y-90100981D01*
X162501490Y-90137439D01*
X162497381Y-90173899D01*
X162483738Y-90303711D01*
X162482233Y-90308340D01*
X162481432Y-90315456D01*
X162460295Y-90375861D01*
X162432074Y-90462719D01*
X162426561Y-90472266D01*
X162422265Y-90484546D01*
X162387848Y-90539320D01*
X162348482Y-90607504D01*
X162336976Y-90620282D01*
X162326955Y-90636231D01*
X162283382Y-90679803D01*
X162236611Y-90731748D01*
X162217693Y-90745492D01*
X162200282Y-90762904D01*
X162151802Y-90793365D01*
X162101350Y-90830022D01*
X162074290Y-90842069D01*
X162048597Y-90858214D01*
X161999234Y-90875486D01*
X161948619Y-90898022D01*
X161913495Y-90905487D01*
X161879507Y-90917381D01*
X161832769Y-90922647D01*
X161785085Y-90932783D01*
X161742813Y-90932783D01*
X161701490Y-90937439D01*
X161660167Y-90932783D01*
X161617895Y-90932783D01*
X161570209Y-90922647D01*
X161523473Y-90917381D01*
X161489485Y-90905488D01*
X161454360Y-90898022D01*
X161403741Y-90875485D01*
X161354383Y-90858214D01*
X161328691Y-90842070D01*
X161301629Y-90830022D01*
X161251170Y-90793361D01*
X161202698Y-90762904D01*
X161185289Y-90745495D01*
X161166368Y-90731748D01*
X161119587Y-90679793D01*
X161076025Y-90636231D01*
X161066006Y-90620286D01*
X161054497Y-90607504D01*
X161015119Y-90539300D01*
X160980715Y-90484546D01*
X160976419Y-90472270D01*
X160970905Y-90462719D01*
X160942670Y-90375821D01*
X160921548Y-90315456D01*
X160920746Y-90308345D01*
X160919241Y-90303711D01*
X160905583Y-90173767D01*
X160901490Y-90137439D01*
X160905582Y-90101113D01*
X160919241Y-89971166D01*
X160920747Y-89966530D01*
X160921548Y-89959422D01*
X160942666Y-89899069D01*
X160970905Y-89812158D01*
X160976420Y-89802604D01*
X160980715Y-89790332D01*
X161015112Y-89735588D01*
X161054497Y-89667373D01*
X161066008Y-89654588D01*
X161076025Y-89638647D01*
X161119578Y-89595093D01*
X161166368Y-89543129D01*
X161185292Y-89529379D01*
X161202698Y-89511974D01*
X161251164Y-89481520D01*
X161301630Y-89444855D01*
X161328694Y-89432804D01*
X161354383Y-89416664D01*
X161403732Y-89399395D01*
X161454360Y-89376855D01*
X161489491Y-89369387D01*
X161523473Y-89357497D01*
X161570207Y-89352231D01*
X161617895Y-89342095D01*
X161660167Y-89342095D01*
X161701490Y-89337439D01*
X161742813Y-89342095D01*
G37*
G36*
X135005034Y-88358164D02*
G01*
X135038125Y-88380275D01*
X135060236Y-88413366D01*
X135068000Y-88452400D01*
X135068000Y-89652400D01*
X135060236Y-89691434D01*
X135038125Y-89724525D01*
X135005034Y-89746636D01*
X134966000Y-89754400D01*
X133766000Y-89754400D01*
X133726966Y-89746636D01*
X133693875Y-89724525D01*
X133671764Y-89691434D01*
X133664000Y-89652400D01*
X133664000Y-88452400D01*
X133671764Y-88413366D01*
X133693875Y-88380275D01*
X133726966Y-88358164D01*
X133766000Y-88350400D01*
X134966000Y-88350400D01*
X135005034Y-88358164D01*
G37*
G36*
X133227034Y-87460564D02*
G01*
X133260125Y-87482675D01*
X133282236Y-87515766D01*
X133290000Y-87554800D01*
X133290000Y-88754800D01*
X133282236Y-88793834D01*
X133260125Y-88826925D01*
X133227034Y-88849036D01*
X133188000Y-88856800D01*
X131988000Y-88856800D01*
X131948966Y-88849036D01*
X131915875Y-88826925D01*
X131893764Y-88793834D01*
X131886000Y-88754800D01*
X131886000Y-87554800D01*
X131893764Y-87515766D01*
X131915875Y-87482675D01*
X131948966Y-87460564D01*
X131988000Y-87452800D01*
X133188000Y-87452800D01*
X133227034Y-87460564D01*
G37*
G36*
X126914323Y-87088656D02*
G01*
X126956595Y-87088656D01*
X127004282Y-87098792D01*
X127051017Y-87104058D01*
X127085000Y-87115949D01*
X127120129Y-87123416D01*
X127170754Y-87145955D01*
X127220107Y-87163225D01*
X127245795Y-87179366D01*
X127272860Y-87191416D01*
X127323322Y-87228079D01*
X127371792Y-87258535D01*
X127389199Y-87275942D01*
X127408121Y-87289690D01*
X127454901Y-87341644D01*
X127498465Y-87385208D01*
X127508484Y-87401153D01*
X127519992Y-87413934D01*
X127559365Y-87482130D01*
X127593775Y-87536893D01*
X127598070Y-87549170D01*
X127603584Y-87558719D01*
X127631809Y-87645590D01*
X127652942Y-87705983D01*
X127653743Y-87713096D01*
X127655248Y-87717727D01*
X127668892Y-87847542D01*
X127673000Y-87884000D01*
X127668891Y-87920460D01*
X127655248Y-88050272D01*
X127653743Y-88054901D01*
X127652942Y-88062017D01*
X127631805Y-88122422D01*
X127603584Y-88209280D01*
X127598071Y-88218827D01*
X127593775Y-88231107D01*
X127559358Y-88285881D01*
X127519992Y-88354065D01*
X127508486Y-88366843D01*
X127498465Y-88382792D01*
X127454892Y-88426364D01*
X127408121Y-88478309D01*
X127389203Y-88492053D01*
X127371792Y-88509465D01*
X127323312Y-88539926D01*
X127272860Y-88576583D01*
X127245800Y-88588630D01*
X127220107Y-88604775D01*
X127170744Y-88622047D01*
X127120129Y-88644583D01*
X127085005Y-88652048D01*
X127051017Y-88663942D01*
X127004279Y-88669208D01*
X126956595Y-88679344D01*
X126914323Y-88679344D01*
X126873000Y-88684000D01*
X126831677Y-88679344D01*
X126789405Y-88679344D01*
X126741719Y-88669208D01*
X126694983Y-88663942D01*
X126660995Y-88652049D01*
X126625870Y-88644583D01*
X126575251Y-88622046D01*
X126525893Y-88604775D01*
X126500201Y-88588631D01*
X126473139Y-88576583D01*
X126422680Y-88539922D01*
X126374208Y-88509465D01*
X126356799Y-88492056D01*
X126337878Y-88478309D01*
X126291097Y-88426354D01*
X126247535Y-88382792D01*
X126237516Y-88366847D01*
X126226007Y-88354065D01*
X126186629Y-88285861D01*
X126152225Y-88231107D01*
X126147929Y-88218831D01*
X126142415Y-88209280D01*
X126114180Y-88122382D01*
X126093058Y-88062017D01*
X126092256Y-88054906D01*
X126090751Y-88050272D01*
X126077093Y-87920328D01*
X126073000Y-87884000D01*
X126077092Y-87847674D01*
X126090751Y-87717727D01*
X126092257Y-87713091D01*
X126093058Y-87705983D01*
X126114176Y-87645630D01*
X126142415Y-87558719D01*
X126147930Y-87549165D01*
X126152225Y-87536893D01*
X126186622Y-87482149D01*
X126226007Y-87413934D01*
X126237518Y-87401149D01*
X126247535Y-87385208D01*
X126291088Y-87341654D01*
X126337878Y-87289690D01*
X126356802Y-87275940D01*
X126374208Y-87258535D01*
X126422674Y-87228081D01*
X126473140Y-87191416D01*
X126500204Y-87179365D01*
X126525893Y-87163225D01*
X126575242Y-87145956D01*
X126625870Y-87123416D01*
X126661001Y-87115948D01*
X126694983Y-87104058D01*
X126741717Y-87098792D01*
X126789405Y-87088656D01*
X126831677Y-87088656D01*
X126873000Y-87084000D01*
X126914323Y-87088656D01*
G37*
G36*
X157121323Y-86804656D02*
G01*
X157163595Y-86804656D01*
X157211282Y-86814792D01*
X157258017Y-86820058D01*
X157292000Y-86831949D01*
X157327129Y-86839416D01*
X157377754Y-86861955D01*
X157427107Y-86879225D01*
X157452795Y-86895366D01*
X157479860Y-86907416D01*
X157530322Y-86944079D01*
X157578792Y-86974535D01*
X157596199Y-86991942D01*
X157615121Y-87005690D01*
X157661901Y-87057644D01*
X157705465Y-87101208D01*
X157715484Y-87117153D01*
X157726992Y-87129934D01*
X157766365Y-87198130D01*
X157800775Y-87252893D01*
X157805070Y-87265170D01*
X157810584Y-87274719D01*
X157838809Y-87361590D01*
X157859942Y-87421983D01*
X157860743Y-87429096D01*
X157862248Y-87433727D01*
X157875892Y-87563542D01*
X157880000Y-87600000D01*
X157875891Y-87636460D01*
X157862248Y-87766272D01*
X157860743Y-87770901D01*
X157859942Y-87778017D01*
X157838805Y-87838422D01*
X157810584Y-87925280D01*
X157805071Y-87934827D01*
X157800775Y-87947107D01*
X157766358Y-88001881D01*
X157726992Y-88070065D01*
X157715486Y-88082843D01*
X157705465Y-88098792D01*
X157661892Y-88142364D01*
X157615121Y-88194309D01*
X157596203Y-88208053D01*
X157578792Y-88225465D01*
X157530312Y-88255926D01*
X157479860Y-88292583D01*
X157452800Y-88304630D01*
X157427107Y-88320775D01*
X157377744Y-88338047D01*
X157327129Y-88360583D01*
X157292005Y-88368048D01*
X157258017Y-88379942D01*
X157211279Y-88385208D01*
X157163595Y-88395344D01*
X157121323Y-88395344D01*
X157080000Y-88400000D01*
X157038677Y-88395344D01*
X156996405Y-88395344D01*
X156948719Y-88385208D01*
X156901983Y-88379942D01*
X156867995Y-88368049D01*
X156832870Y-88360583D01*
X156782251Y-88338046D01*
X156732893Y-88320775D01*
X156707201Y-88304631D01*
X156680139Y-88292583D01*
X156629680Y-88255922D01*
X156581208Y-88225465D01*
X156563799Y-88208056D01*
X156544878Y-88194309D01*
X156498097Y-88142354D01*
X156454535Y-88098792D01*
X156444516Y-88082847D01*
X156433007Y-88070065D01*
X156393629Y-88001861D01*
X156359225Y-87947107D01*
X156354929Y-87934831D01*
X156349415Y-87925280D01*
X156321180Y-87838382D01*
X156300058Y-87778017D01*
X156299256Y-87770906D01*
X156297751Y-87766272D01*
X156284093Y-87636328D01*
X156280000Y-87600000D01*
X156284092Y-87563674D01*
X156297751Y-87433727D01*
X156299257Y-87429091D01*
X156300058Y-87421983D01*
X156321176Y-87361630D01*
X156349415Y-87274719D01*
X156354930Y-87265165D01*
X156359225Y-87252893D01*
X156393622Y-87198149D01*
X156433007Y-87129934D01*
X156444518Y-87117149D01*
X156454535Y-87101208D01*
X156498088Y-87057654D01*
X156544878Y-87005690D01*
X156563802Y-86991940D01*
X156581208Y-86974535D01*
X156629674Y-86944081D01*
X156680140Y-86907416D01*
X156707204Y-86895365D01*
X156732893Y-86879225D01*
X156782242Y-86861956D01*
X156832870Y-86839416D01*
X156868001Y-86831948D01*
X156901983Y-86820058D01*
X156948717Y-86814792D01*
X156996405Y-86804656D01*
X157038677Y-86804656D01*
X157080000Y-86800000D01*
X157121323Y-86804656D01*
G37*
G36*
X161742813Y-86802095D02*
G01*
X161785085Y-86802095D01*
X161832772Y-86812231D01*
X161879507Y-86817497D01*
X161913490Y-86829388D01*
X161948619Y-86836855D01*
X161999244Y-86859394D01*
X162048597Y-86876664D01*
X162074285Y-86892805D01*
X162101350Y-86904855D01*
X162151812Y-86941518D01*
X162200282Y-86971974D01*
X162217689Y-86989381D01*
X162236611Y-87003129D01*
X162283391Y-87055083D01*
X162326955Y-87098647D01*
X162336974Y-87114592D01*
X162348482Y-87127373D01*
X162387855Y-87195569D01*
X162422265Y-87250332D01*
X162426560Y-87262609D01*
X162432074Y-87272158D01*
X162460299Y-87359029D01*
X162481432Y-87419422D01*
X162482233Y-87426535D01*
X162483738Y-87431166D01*
X162497382Y-87560981D01*
X162501490Y-87597439D01*
X162497381Y-87633899D01*
X162483738Y-87763711D01*
X162482233Y-87768340D01*
X162481432Y-87775456D01*
X162460295Y-87835861D01*
X162432074Y-87922719D01*
X162426561Y-87932266D01*
X162422265Y-87944546D01*
X162387848Y-87999320D01*
X162348482Y-88067504D01*
X162336976Y-88080282D01*
X162326955Y-88096231D01*
X162283382Y-88139803D01*
X162236611Y-88191748D01*
X162217693Y-88205492D01*
X162200282Y-88222904D01*
X162151802Y-88253365D01*
X162101350Y-88290022D01*
X162074290Y-88302069D01*
X162048597Y-88318214D01*
X161999234Y-88335486D01*
X161948619Y-88358022D01*
X161913495Y-88365487D01*
X161879507Y-88377381D01*
X161832769Y-88382647D01*
X161785085Y-88392783D01*
X161742813Y-88392783D01*
X161701490Y-88397439D01*
X161660167Y-88392783D01*
X161617895Y-88392783D01*
X161570209Y-88382647D01*
X161523473Y-88377381D01*
X161489485Y-88365488D01*
X161454360Y-88358022D01*
X161403741Y-88335485D01*
X161354383Y-88318214D01*
X161328691Y-88302070D01*
X161301629Y-88290022D01*
X161251170Y-88253361D01*
X161202698Y-88222904D01*
X161185289Y-88205495D01*
X161166368Y-88191748D01*
X161119587Y-88139793D01*
X161076025Y-88096231D01*
X161066006Y-88080286D01*
X161054497Y-88067504D01*
X161015119Y-87999300D01*
X160980715Y-87944546D01*
X160976419Y-87932270D01*
X160970905Y-87922719D01*
X160942670Y-87835821D01*
X160921548Y-87775456D01*
X160920746Y-87768345D01*
X160919241Y-87763711D01*
X160905583Y-87633767D01*
X160901490Y-87597439D01*
X160905582Y-87561113D01*
X160919241Y-87431166D01*
X160920747Y-87426530D01*
X160921548Y-87419422D01*
X160942666Y-87359069D01*
X160970905Y-87272158D01*
X160976420Y-87262604D01*
X160980715Y-87250332D01*
X161015112Y-87195588D01*
X161054497Y-87127373D01*
X161066008Y-87114588D01*
X161076025Y-87098647D01*
X161119578Y-87055093D01*
X161166368Y-87003129D01*
X161185292Y-86989379D01*
X161202698Y-86971974D01*
X161251164Y-86941520D01*
X161301630Y-86904855D01*
X161328694Y-86892804D01*
X161354383Y-86876664D01*
X161403732Y-86859395D01*
X161454360Y-86836855D01*
X161489491Y-86829387D01*
X161523473Y-86817497D01*
X161570207Y-86812231D01*
X161617895Y-86802095D01*
X161660167Y-86802095D01*
X161701490Y-86797439D01*
X161742813Y-86802095D01*
G37*
G36*
X211163147Y-86653458D02*
G01*
X211190144Y-86653458D01*
X211221761Y-86662741D01*
X211254899Y-86667990D01*
X211275655Y-86678565D01*
X211295968Y-86684530D01*
X211328905Y-86705698D01*
X211363061Y-86723101D01*
X211375787Y-86735827D01*
X211388748Y-86744157D01*
X211418809Y-86778849D01*
X211448899Y-86808939D01*
X211454631Y-86820189D01*
X211460972Y-86827507D01*
X211483550Y-86876946D01*
X211504010Y-86917101D01*
X211505136Y-86924213D01*
X211506790Y-86927834D01*
X211517417Y-87001753D01*
X211523000Y-87037000D01*
X211517417Y-87072249D01*
X211506790Y-87146165D01*
X211505136Y-87149785D01*
X211504010Y-87156899D01*
X211483545Y-87197062D01*
X211460972Y-87246492D01*
X211454632Y-87253807D01*
X211448899Y-87265061D01*
X211418803Y-87295156D01*
X211388748Y-87329842D01*
X211375790Y-87338169D01*
X211363061Y-87350899D01*
X211328898Y-87368305D01*
X211295968Y-87389469D01*
X211275658Y-87395432D01*
X211254899Y-87406010D01*
X211221759Y-87411258D01*
X211190144Y-87420542D01*
X211163147Y-87420542D01*
X211135000Y-87425000D01*
X211106853Y-87420542D01*
X211079856Y-87420542D01*
X211048239Y-87411258D01*
X211015101Y-87406010D01*
X210994342Y-87395432D01*
X210974031Y-87389469D01*
X210941096Y-87368303D01*
X210906939Y-87350899D01*
X210894211Y-87338171D01*
X210881251Y-87329842D01*
X210851189Y-87295149D01*
X210821101Y-87265061D01*
X210815368Y-87253810D01*
X210809027Y-87246492D01*
X210786444Y-87197043D01*
X210765990Y-87156899D01*
X210764863Y-87149788D01*
X210763209Y-87146165D01*
X210753325Y-87077411D01*
X210666675Y-87077411D01*
X210656790Y-87146165D01*
X210655136Y-87149785D01*
X210654010Y-87156899D01*
X210633545Y-87197062D01*
X210610972Y-87246492D01*
X210604632Y-87253807D01*
X210598899Y-87265061D01*
X210568803Y-87295156D01*
X210538748Y-87329842D01*
X210525790Y-87338169D01*
X210513061Y-87350899D01*
X210478898Y-87368305D01*
X210445968Y-87389469D01*
X210425658Y-87395432D01*
X210404899Y-87406010D01*
X210371759Y-87411258D01*
X210340144Y-87420542D01*
X210313147Y-87420542D01*
X210285000Y-87425000D01*
X210256853Y-87420542D01*
X210229856Y-87420542D01*
X210198239Y-87411258D01*
X210165101Y-87406010D01*
X210144342Y-87395432D01*
X210124031Y-87389469D01*
X210091096Y-87368303D01*
X210056939Y-87350899D01*
X210044211Y-87338171D01*
X210031251Y-87329842D01*
X210001189Y-87295149D01*
X209971101Y-87265061D01*
X209965368Y-87253810D01*
X209959027Y-87246492D01*
X209936444Y-87197043D01*
X209915990Y-87156899D01*
X209914863Y-87149788D01*
X209913209Y-87146165D01*
X209903325Y-87077411D01*
X209816675Y-87077411D01*
X209806790Y-87146165D01*
X209805136Y-87149785D01*
X209804010Y-87156899D01*
X209783545Y-87197062D01*
X209760972Y-87246492D01*
X209754632Y-87253807D01*
X209748899Y-87265061D01*
X209718803Y-87295156D01*
X209688748Y-87329842D01*
X209675790Y-87338169D01*
X209663061Y-87350899D01*
X209628898Y-87368305D01*
X209595968Y-87389469D01*
X209575658Y-87395432D01*
X209554899Y-87406010D01*
X209521759Y-87411258D01*
X209490144Y-87420542D01*
X209463147Y-87420542D01*
X209435000Y-87425000D01*
X209406853Y-87420542D01*
X209379856Y-87420542D01*
X209348239Y-87411258D01*
X209315101Y-87406010D01*
X209294342Y-87395432D01*
X209274031Y-87389469D01*
X209241096Y-87368303D01*
X209206939Y-87350899D01*
X209194211Y-87338171D01*
X209181251Y-87329842D01*
X209151189Y-87295149D01*
X209121101Y-87265061D01*
X209115368Y-87253810D01*
X209109027Y-87246492D01*
X209086444Y-87197043D01*
X209065990Y-87156899D01*
X209064863Y-87149788D01*
X209063209Y-87146165D01*
X209053325Y-87077411D01*
X208966675Y-87077411D01*
X208956790Y-87146165D01*
X208955136Y-87149785D01*
X208954010Y-87156899D01*
X208933545Y-87197062D01*
X208910972Y-87246492D01*
X208904632Y-87253807D01*
X208898899Y-87265061D01*
X208868803Y-87295156D01*
X208838748Y-87329842D01*
X208825790Y-87338169D01*
X208813061Y-87350899D01*
X208778898Y-87368305D01*
X208745968Y-87389469D01*
X208725658Y-87395432D01*
X208704899Y-87406010D01*
X208671759Y-87411258D01*
X208640144Y-87420542D01*
X208613147Y-87420542D01*
X208585000Y-87425000D01*
X208556853Y-87420542D01*
X208529856Y-87420542D01*
X208498239Y-87411258D01*
X208465101Y-87406010D01*
X208444342Y-87395432D01*
X208424031Y-87389469D01*
X208391096Y-87368303D01*
X208356939Y-87350899D01*
X208344211Y-87338171D01*
X208331251Y-87329842D01*
X208301189Y-87295149D01*
X208271101Y-87265061D01*
X208265368Y-87253810D01*
X208259027Y-87246492D01*
X208236444Y-87197043D01*
X208215990Y-87156899D01*
X208214863Y-87149788D01*
X208213209Y-87146165D01*
X208203325Y-87077411D01*
X208116675Y-87077411D01*
X208106790Y-87146165D01*
X208105136Y-87149785D01*
X208104010Y-87156899D01*
X208083545Y-87197062D01*
X208060972Y-87246492D01*
X208054632Y-87253807D01*
X208048899Y-87265061D01*
X208018803Y-87295156D01*
X207988748Y-87329842D01*
X207975790Y-87338169D01*
X207963061Y-87350899D01*
X207928898Y-87368305D01*
X207895968Y-87389469D01*
X207875658Y-87395432D01*
X207854899Y-87406010D01*
X207821759Y-87411258D01*
X207790144Y-87420542D01*
X207763147Y-87420542D01*
X207735000Y-87425000D01*
X207706853Y-87420542D01*
X207679856Y-87420542D01*
X207648239Y-87411258D01*
X207615101Y-87406010D01*
X207594342Y-87395432D01*
X207574031Y-87389469D01*
X207541096Y-87368303D01*
X207506939Y-87350899D01*
X207494211Y-87338171D01*
X207481251Y-87329842D01*
X207451189Y-87295149D01*
X207421101Y-87265061D01*
X207415368Y-87253810D01*
X207409027Y-87246492D01*
X207386444Y-87197043D01*
X207365990Y-87156899D01*
X207364863Y-87149788D01*
X207363209Y-87146165D01*
X207353325Y-87077411D01*
X207266675Y-87077411D01*
X207256790Y-87146165D01*
X207255136Y-87149785D01*
X207254010Y-87156899D01*
X207233545Y-87197062D01*
X207210972Y-87246492D01*
X207204632Y-87253807D01*
X207198899Y-87265061D01*
X207168803Y-87295156D01*
X207138748Y-87329842D01*
X207125790Y-87338169D01*
X207113061Y-87350899D01*
X207078898Y-87368305D01*
X207045968Y-87389469D01*
X207025658Y-87395432D01*
X207004899Y-87406010D01*
X206971759Y-87411258D01*
X206940144Y-87420542D01*
X206913147Y-87420542D01*
X206885000Y-87425000D01*
X206856853Y-87420542D01*
X206829856Y-87420542D01*
X206798239Y-87411258D01*
X206765101Y-87406010D01*
X206744342Y-87395432D01*
X206724031Y-87389469D01*
X206691096Y-87368303D01*
X206656939Y-87350899D01*
X206644211Y-87338171D01*
X206631251Y-87329842D01*
X206601189Y-87295149D01*
X206571101Y-87265061D01*
X206565368Y-87253810D01*
X206559027Y-87246492D01*
X206536444Y-87197043D01*
X206515990Y-87156899D01*
X206514863Y-87149788D01*
X206513209Y-87146165D01*
X206503325Y-87077411D01*
X206416675Y-87077411D01*
X206406790Y-87146165D01*
X206405136Y-87149785D01*
X206404010Y-87156899D01*
X206383545Y-87197062D01*
X206360972Y-87246492D01*
X206354632Y-87253807D01*
X206348899Y-87265061D01*
X206318803Y-87295156D01*
X206288748Y-87329842D01*
X206275790Y-87338169D01*
X206263061Y-87350899D01*
X206228898Y-87368305D01*
X206195968Y-87389469D01*
X206175658Y-87395432D01*
X206154899Y-87406010D01*
X206121759Y-87411258D01*
X206090144Y-87420542D01*
X206063147Y-87420542D01*
X206035000Y-87425000D01*
X206006853Y-87420542D01*
X205979856Y-87420542D01*
X205948239Y-87411258D01*
X205915101Y-87406010D01*
X205894342Y-87395432D01*
X205874031Y-87389469D01*
X205841096Y-87368303D01*
X205806939Y-87350899D01*
X205794211Y-87338171D01*
X205781251Y-87329842D01*
X205751189Y-87295149D01*
X205721101Y-87265061D01*
X205715368Y-87253810D01*
X205709027Y-87246492D01*
X205686444Y-87197043D01*
X205665990Y-87156899D01*
X205664863Y-87149788D01*
X205663209Y-87146165D01*
X205653325Y-87077411D01*
X205566675Y-87077411D01*
X205556790Y-87146165D01*
X205555136Y-87149785D01*
X205554010Y-87156899D01*
X205533545Y-87197062D01*
X205510972Y-87246492D01*
X205504632Y-87253807D01*
X205498899Y-87265061D01*
X205468803Y-87295156D01*
X205438748Y-87329842D01*
X205425790Y-87338169D01*
X205413061Y-87350899D01*
X205378898Y-87368305D01*
X205345968Y-87389469D01*
X205325658Y-87395432D01*
X205304899Y-87406010D01*
X205271759Y-87411258D01*
X205240144Y-87420542D01*
X205213147Y-87420542D01*
X205185000Y-87425000D01*
X205156853Y-87420542D01*
X205129856Y-87420542D01*
X205098239Y-87411258D01*
X205065101Y-87406010D01*
X205044342Y-87395432D01*
X205024031Y-87389469D01*
X204991096Y-87368303D01*
X204956939Y-87350899D01*
X204944211Y-87338171D01*
X204931251Y-87329842D01*
X204901189Y-87295149D01*
X204871101Y-87265061D01*
X204865368Y-87253810D01*
X204859027Y-87246492D01*
X204836444Y-87197043D01*
X204815990Y-87156899D01*
X204814863Y-87149788D01*
X204813209Y-87146165D01*
X204802572Y-87072181D01*
X204797000Y-87037000D01*
X204802571Y-87001822D01*
X204813209Y-86927834D01*
X204814864Y-86924209D01*
X204815990Y-86917101D01*
X204836440Y-86876965D01*
X204859027Y-86827507D01*
X204865369Y-86820186D01*
X204871101Y-86808939D01*
X204901182Y-86778857D01*
X204931251Y-86744157D01*
X204944213Y-86735826D01*
X204956939Y-86723101D01*
X204991089Y-86705700D01*
X205024031Y-86684530D01*
X205044345Y-86678565D01*
X205065101Y-86667990D01*
X205098237Y-86662741D01*
X205129856Y-86653458D01*
X205156853Y-86653458D01*
X205185000Y-86649000D01*
X205213147Y-86653458D01*
X205240144Y-86653458D01*
X205271761Y-86662741D01*
X205304899Y-86667990D01*
X205325655Y-86678565D01*
X205345968Y-86684530D01*
X205378905Y-86705698D01*
X205413061Y-86723101D01*
X205425787Y-86735827D01*
X205438748Y-86744157D01*
X205468809Y-86778849D01*
X205498899Y-86808939D01*
X205504631Y-86820189D01*
X205510972Y-86827507D01*
X205533550Y-86876946D01*
X205554010Y-86917101D01*
X205555136Y-86924213D01*
X205556790Y-86927834D01*
X205566676Y-86996588D01*
X205653324Y-86996588D01*
X205663209Y-86927834D01*
X205664864Y-86924209D01*
X205665990Y-86917101D01*
X205686440Y-86876965D01*
X205709027Y-86827507D01*
X205715369Y-86820186D01*
X205721101Y-86808939D01*
X205751182Y-86778857D01*
X205781251Y-86744157D01*
X205794213Y-86735826D01*
X205806939Y-86723101D01*
X205841089Y-86705700D01*
X205874031Y-86684530D01*
X205894345Y-86678565D01*
X205915101Y-86667990D01*
X205948237Y-86662741D01*
X205979856Y-86653458D01*
X206006853Y-86653458D01*
X206035000Y-86649000D01*
X206063147Y-86653458D01*
X206090144Y-86653458D01*
X206121761Y-86662741D01*
X206154899Y-86667990D01*
X206175655Y-86678565D01*
X206195968Y-86684530D01*
X206228905Y-86705698D01*
X206263061Y-86723101D01*
X206275787Y-86735827D01*
X206288748Y-86744157D01*
X206318809Y-86778849D01*
X206348899Y-86808939D01*
X206354631Y-86820189D01*
X206360972Y-86827507D01*
X206383550Y-86876946D01*
X206404010Y-86917101D01*
X206405136Y-86924213D01*
X206406790Y-86927834D01*
X206416676Y-86996588D01*
X206503324Y-86996588D01*
X206513209Y-86927834D01*
X206514864Y-86924209D01*
X206515990Y-86917101D01*
X206536440Y-86876965D01*
X206559027Y-86827507D01*
X206565369Y-86820186D01*
X206571101Y-86808939D01*
X206601182Y-86778857D01*
X206631251Y-86744157D01*
X206644213Y-86735826D01*
X206656939Y-86723101D01*
X206691089Y-86705700D01*
X206724031Y-86684530D01*
X206744345Y-86678565D01*
X206765101Y-86667990D01*
X206798237Y-86662741D01*
X206829856Y-86653458D01*
X206856853Y-86653458D01*
X206885000Y-86649000D01*
X206913147Y-86653458D01*
X206940144Y-86653458D01*
X206971761Y-86662741D01*
X207004899Y-86667990D01*
X207025655Y-86678565D01*
X207045968Y-86684530D01*
X207078905Y-86705698D01*
X207113061Y-86723101D01*
X207125787Y-86735827D01*
X207138748Y-86744157D01*
X207168809Y-86778849D01*
X207198899Y-86808939D01*
X207204631Y-86820189D01*
X207210972Y-86827507D01*
X207233550Y-86876946D01*
X207254010Y-86917101D01*
X207255136Y-86924213D01*
X207256790Y-86927834D01*
X207266676Y-86996588D01*
X207353324Y-86996588D01*
X207363209Y-86927834D01*
X207364864Y-86924209D01*
X207365990Y-86917101D01*
X207386440Y-86876965D01*
X207409027Y-86827507D01*
X207415369Y-86820186D01*
X207421101Y-86808939D01*
X207451182Y-86778857D01*
X207481251Y-86744157D01*
X207494213Y-86735826D01*
X207506939Y-86723101D01*
X207541089Y-86705700D01*
X207574031Y-86684530D01*
X207594345Y-86678565D01*
X207615101Y-86667990D01*
X207648237Y-86662741D01*
X207679856Y-86653458D01*
X207706853Y-86653458D01*
X207735000Y-86649000D01*
X207763147Y-86653458D01*
X207790144Y-86653458D01*
X207821761Y-86662741D01*
X207854899Y-86667990D01*
X207875655Y-86678565D01*
X207895968Y-86684530D01*
X207928905Y-86705698D01*
X207963061Y-86723101D01*
X207975787Y-86735827D01*
X207988748Y-86744157D01*
X208018809Y-86778849D01*
X208048899Y-86808939D01*
X208054631Y-86820189D01*
X208060972Y-86827507D01*
X208083550Y-86876946D01*
X208104010Y-86917101D01*
X208105136Y-86924213D01*
X208106790Y-86927834D01*
X208116676Y-86996588D01*
X208203324Y-86996588D01*
X208213209Y-86927834D01*
X208214864Y-86924209D01*
X208215990Y-86917101D01*
X208236440Y-86876965D01*
X208259027Y-86827507D01*
X208265369Y-86820186D01*
X208271101Y-86808939D01*
X208301182Y-86778857D01*
X208331251Y-86744157D01*
X208344213Y-86735826D01*
X208356939Y-86723101D01*
X208391089Y-86705700D01*
X208424031Y-86684530D01*
X208444345Y-86678565D01*
X208465101Y-86667990D01*
X208498237Y-86662741D01*
X208529856Y-86653458D01*
X208556853Y-86653458D01*
X208585000Y-86649000D01*
X208613147Y-86653458D01*
X208640144Y-86653458D01*
X208671761Y-86662741D01*
X208704899Y-86667990D01*
X208725655Y-86678565D01*
X208745968Y-86684530D01*
X208778905Y-86705698D01*
X208813061Y-86723101D01*
X208825787Y-86735827D01*
X208838748Y-86744157D01*
X208868809Y-86778849D01*
X208898899Y-86808939D01*
X208904631Y-86820189D01*
X208910972Y-86827507D01*
X208933550Y-86876946D01*
X208954010Y-86917101D01*
X208955136Y-86924213D01*
X208956790Y-86927834D01*
X208966676Y-86996588D01*
X209053324Y-86996588D01*
X209063209Y-86927834D01*
X209064864Y-86924209D01*
X209065990Y-86917101D01*
X209086440Y-86876965D01*
X209109027Y-86827507D01*
X209115369Y-86820186D01*
X209121101Y-86808939D01*
X209151182Y-86778857D01*
X209181251Y-86744157D01*
X209194213Y-86735826D01*
X209206939Y-86723101D01*
X209241089Y-86705700D01*
X209274031Y-86684530D01*
X209294345Y-86678565D01*
X209315101Y-86667990D01*
X209348237Y-86662741D01*
X209379856Y-86653458D01*
X209406853Y-86653458D01*
X209435000Y-86649000D01*
X209463147Y-86653458D01*
X209490144Y-86653458D01*
X209521761Y-86662741D01*
X209554899Y-86667990D01*
X209575655Y-86678565D01*
X209595968Y-86684530D01*
X209628905Y-86705698D01*
X209663061Y-86723101D01*
X209675787Y-86735827D01*
X209688748Y-86744157D01*
X209718809Y-86778849D01*
X209748899Y-86808939D01*
X209754631Y-86820189D01*
X209760972Y-86827507D01*
X209783550Y-86876946D01*
X209804010Y-86917101D01*
X209805136Y-86924213D01*
X209806790Y-86927834D01*
X209816676Y-86996588D01*
X209903324Y-86996588D01*
X209913209Y-86927834D01*
X209914864Y-86924209D01*
X209915990Y-86917101D01*
X209936440Y-86876965D01*
X209959027Y-86827507D01*
X209965369Y-86820186D01*
X209971101Y-86808939D01*
X210001182Y-86778857D01*
X210031251Y-86744157D01*
X210044213Y-86735826D01*
X210056939Y-86723101D01*
X210091089Y-86705700D01*
X210124031Y-86684530D01*
X210144345Y-86678565D01*
X210165101Y-86667990D01*
X210198237Y-86662741D01*
X210229856Y-86653458D01*
X210256853Y-86653458D01*
X210285000Y-86649000D01*
X210313147Y-86653458D01*
X210340144Y-86653458D01*
X210371761Y-86662741D01*
X210404899Y-86667990D01*
X210425655Y-86678565D01*
X210445968Y-86684530D01*
X210478905Y-86705698D01*
X210513061Y-86723101D01*
X210525787Y-86735827D01*
X210538748Y-86744157D01*
X210568809Y-86778849D01*
X210598899Y-86808939D01*
X210604631Y-86820189D01*
X210610972Y-86827507D01*
X210633550Y-86876946D01*
X210654010Y-86917101D01*
X210655136Y-86924213D01*
X210656790Y-86927834D01*
X210666676Y-86996588D01*
X210753324Y-86996588D01*
X210763209Y-86927834D01*
X210764864Y-86924209D01*
X210765990Y-86917101D01*
X210786440Y-86876965D01*
X210809027Y-86827507D01*
X210815369Y-86820186D01*
X210821101Y-86808939D01*
X210851182Y-86778857D01*
X210881251Y-86744157D01*
X210894213Y-86735826D01*
X210906939Y-86723101D01*
X210941089Y-86705700D01*
X210974031Y-86684530D01*
X210994345Y-86678565D01*
X211015101Y-86667990D01*
X211048237Y-86662741D01*
X211079856Y-86653458D01*
X211106853Y-86653458D01*
X211135000Y-86649000D01*
X211163147Y-86653458D01*
G37*
G36*
X204021750Y-84856147D02*
G01*
X204132076Y-84919844D01*
X204222156Y-85009924D01*
X204285853Y-85120250D01*
X204318825Y-85243303D01*
X204323000Y-86807000D01*
X204318825Y-86870697D01*
X204285853Y-86993750D01*
X204222156Y-87104076D01*
X204132076Y-87194156D01*
X204021750Y-87257853D01*
X203898697Y-87290825D01*
X203771303Y-87290825D01*
X203648250Y-87257853D01*
X203537924Y-87194156D01*
X203447844Y-87104076D01*
X203384147Y-86993750D01*
X203351175Y-86870697D01*
X203347000Y-85307000D01*
X203351175Y-85243303D01*
X203384147Y-85120250D01*
X203447844Y-85009924D01*
X203537924Y-84919844D01*
X203648250Y-84856147D01*
X203771303Y-84823175D01*
X203898697Y-84823175D01*
X204021750Y-84856147D01*
G37*
G36*
X212671750Y-84856147D02*
G01*
X212782076Y-84919844D01*
X212872156Y-85009924D01*
X212935853Y-85120250D01*
X212968825Y-85243303D01*
X212973000Y-86807000D01*
X212968825Y-86870697D01*
X212935853Y-86993750D01*
X212872156Y-87104076D01*
X212782076Y-87194156D01*
X212671750Y-87257853D01*
X212548697Y-87290825D01*
X212421303Y-87290825D01*
X212298250Y-87257853D01*
X212187924Y-87194156D01*
X212097844Y-87104076D01*
X212034147Y-86993750D01*
X212001175Y-86870697D01*
X211997000Y-85307000D01*
X212001175Y-85243303D01*
X212034147Y-85120250D01*
X212097844Y-85009924D01*
X212187924Y-84919844D01*
X212298250Y-84856147D01*
X212421303Y-84823175D01*
X212548697Y-84823175D01*
X212671750Y-84856147D01*
G37*
G36*
X129673542Y-85697893D02*
G01*
X129685870Y-85706130D01*
X129694107Y-85718458D01*
X129697000Y-85733000D01*
X129697000Y-86733000D01*
X129694107Y-86747542D01*
X129685870Y-86759870D01*
X129673542Y-86768107D01*
X129659000Y-86771000D01*
X128659000Y-86771000D01*
X128644458Y-86768107D01*
X128632130Y-86759870D01*
X128623893Y-86747542D01*
X128621000Y-86733000D01*
X128621000Y-85733000D01*
X128623893Y-85718458D01*
X128632130Y-85706130D01*
X128644458Y-85697893D01*
X128659000Y-85695000D01*
X129659000Y-85695000D01*
X129673542Y-85697893D01*
G37*
G36*
X131705542Y-85697893D02*
G01*
X131717870Y-85706130D01*
X131726107Y-85718458D01*
X131729000Y-85733000D01*
X131729000Y-86733000D01*
X131726107Y-86747542D01*
X131717870Y-86759870D01*
X131705542Y-86768107D01*
X131691000Y-86771000D01*
X130691000Y-86771000D01*
X130676458Y-86768107D01*
X130664130Y-86759870D01*
X130655893Y-86747542D01*
X130653000Y-86733000D01*
X130653000Y-85733000D01*
X130655893Y-85718458D01*
X130664130Y-85706130D01*
X130676458Y-85697893D01*
X130691000Y-85695000D01*
X131691000Y-85695000D01*
X131705542Y-85697893D01*
G37*
G36*
X133737542Y-85697893D02*
G01*
X133749870Y-85706130D01*
X133758107Y-85718458D01*
X133761000Y-85733000D01*
X133761000Y-86733000D01*
X133758107Y-86747542D01*
X133749870Y-86759870D01*
X133737542Y-86768107D01*
X133723000Y-86771000D01*
X132723000Y-86771000D01*
X132708458Y-86768107D01*
X132696130Y-86759870D01*
X132687893Y-86747542D01*
X132685000Y-86733000D01*
X132685000Y-85733000D01*
X132687893Y-85718458D01*
X132696130Y-85706130D01*
X132708458Y-85697893D01*
X132723000Y-85695000D01*
X133723000Y-85695000D01*
X133737542Y-85697893D01*
G37*
G36*
X126914323Y-84548656D02*
G01*
X126956595Y-84548656D01*
X127004282Y-84558792D01*
X127051017Y-84564058D01*
X127085000Y-84575949D01*
X127120129Y-84583416D01*
X127170754Y-84605955D01*
X127220107Y-84623225D01*
X127245795Y-84639366D01*
X127272860Y-84651416D01*
X127323322Y-84688079D01*
X127371792Y-84718535D01*
X127389199Y-84735942D01*
X127408121Y-84749690D01*
X127454901Y-84801644D01*
X127498465Y-84845208D01*
X127508484Y-84861153D01*
X127519992Y-84873934D01*
X127559365Y-84942130D01*
X127593775Y-84996893D01*
X127598070Y-85009170D01*
X127603584Y-85018719D01*
X127631809Y-85105590D01*
X127652942Y-85165983D01*
X127653743Y-85173096D01*
X127655248Y-85177727D01*
X127668892Y-85307542D01*
X127673000Y-85344000D01*
X127668891Y-85380460D01*
X127655248Y-85510272D01*
X127653743Y-85514901D01*
X127652942Y-85522017D01*
X127631805Y-85582422D01*
X127603584Y-85669280D01*
X127598071Y-85678827D01*
X127593775Y-85691107D01*
X127559358Y-85745881D01*
X127519992Y-85814065D01*
X127508486Y-85826843D01*
X127498465Y-85842792D01*
X127454892Y-85886364D01*
X127408121Y-85938309D01*
X127389203Y-85952053D01*
X127371792Y-85969465D01*
X127323312Y-85999926D01*
X127272860Y-86036583D01*
X127245800Y-86048630D01*
X127220107Y-86064775D01*
X127170744Y-86082047D01*
X127120129Y-86104583D01*
X127085005Y-86112048D01*
X127051017Y-86123942D01*
X127004279Y-86129208D01*
X126956595Y-86139344D01*
X126914323Y-86139344D01*
X126873000Y-86144000D01*
X126831677Y-86139344D01*
X126789405Y-86139344D01*
X126741719Y-86129208D01*
X126694983Y-86123942D01*
X126660995Y-86112049D01*
X126625870Y-86104583D01*
X126575251Y-86082046D01*
X126525893Y-86064775D01*
X126500201Y-86048631D01*
X126473139Y-86036583D01*
X126422680Y-85999922D01*
X126374208Y-85969465D01*
X126356799Y-85952056D01*
X126337878Y-85938309D01*
X126291097Y-85886354D01*
X126247535Y-85842792D01*
X126237516Y-85826847D01*
X126226007Y-85814065D01*
X126186629Y-85745861D01*
X126152225Y-85691107D01*
X126147929Y-85678831D01*
X126142415Y-85669280D01*
X126114180Y-85582382D01*
X126093058Y-85522017D01*
X126092256Y-85514906D01*
X126090751Y-85510272D01*
X126077093Y-85380328D01*
X126073000Y-85344000D01*
X126077092Y-85307674D01*
X126090751Y-85177727D01*
X126092257Y-85173091D01*
X126093058Y-85165983D01*
X126114176Y-85105630D01*
X126142415Y-85018719D01*
X126147930Y-85009165D01*
X126152225Y-84996893D01*
X126186622Y-84942149D01*
X126226007Y-84873934D01*
X126237518Y-84861149D01*
X126247535Y-84845208D01*
X126291088Y-84801654D01*
X126337878Y-84749690D01*
X126356802Y-84735940D01*
X126374208Y-84718535D01*
X126422674Y-84688081D01*
X126473140Y-84651416D01*
X126500204Y-84639365D01*
X126525893Y-84623225D01*
X126575242Y-84605956D01*
X126625870Y-84583416D01*
X126661001Y-84575948D01*
X126694983Y-84564058D01*
X126741717Y-84558792D01*
X126789405Y-84548656D01*
X126831677Y-84548656D01*
X126873000Y-84544000D01*
X126914323Y-84548656D01*
G37*
G36*
X211163147Y-85303458D02*
G01*
X211190144Y-85303458D01*
X211221761Y-85312741D01*
X211254899Y-85317990D01*
X211275655Y-85328565D01*
X211295968Y-85334530D01*
X211328905Y-85355698D01*
X211363061Y-85373101D01*
X211375787Y-85385827D01*
X211388748Y-85394157D01*
X211418809Y-85428849D01*
X211448899Y-85458939D01*
X211454631Y-85470189D01*
X211460972Y-85477507D01*
X211483550Y-85526946D01*
X211504010Y-85567101D01*
X211505136Y-85574213D01*
X211506790Y-85577834D01*
X211517417Y-85651748D01*
X211523000Y-85687000D01*
X211517417Y-85722249D01*
X211506790Y-85796165D01*
X211505136Y-85799785D01*
X211504010Y-85806899D01*
X211483545Y-85847062D01*
X211460972Y-85896492D01*
X211454632Y-85903807D01*
X211448899Y-85915061D01*
X211418803Y-85945156D01*
X211388748Y-85979842D01*
X211375790Y-85988169D01*
X211363061Y-86000899D01*
X211328898Y-86018305D01*
X211295968Y-86039469D01*
X211275658Y-86045432D01*
X211254899Y-86056010D01*
X211221759Y-86061258D01*
X211190144Y-86070542D01*
X211163147Y-86070542D01*
X211135000Y-86075000D01*
X211106853Y-86070542D01*
X211079856Y-86070542D01*
X211048239Y-86061258D01*
X211015101Y-86056010D01*
X210994342Y-86045432D01*
X210974031Y-86039469D01*
X210941096Y-86018303D01*
X210906939Y-86000899D01*
X210894211Y-85988171D01*
X210881251Y-85979842D01*
X210851189Y-85945149D01*
X210821101Y-85915061D01*
X210815368Y-85903810D01*
X210809027Y-85896492D01*
X210786444Y-85847043D01*
X210765990Y-85806899D01*
X210764863Y-85799788D01*
X210763209Y-85796165D01*
X210753325Y-85727411D01*
X210666675Y-85727411D01*
X210656790Y-85796165D01*
X210655136Y-85799785D01*
X210654010Y-85806899D01*
X210633545Y-85847062D01*
X210610972Y-85896492D01*
X210604632Y-85903807D01*
X210598899Y-85915061D01*
X210568803Y-85945156D01*
X210538748Y-85979842D01*
X210525790Y-85988169D01*
X210513061Y-86000899D01*
X210478898Y-86018305D01*
X210445968Y-86039469D01*
X210425658Y-86045432D01*
X210404899Y-86056010D01*
X210371759Y-86061258D01*
X210340144Y-86070542D01*
X210313147Y-86070542D01*
X210285000Y-86075000D01*
X210256853Y-86070542D01*
X210229856Y-86070542D01*
X210198239Y-86061258D01*
X210165101Y-86056010D01*
X210144342Y-86045432D01*
X210124031Y-86039469D01*
X210091096Y-86018303D01*
X210056939Y-86000899D01*
X210044211Y-85988171D01*
X210031251Y-85979842D01*
X210001189Y-85945149D01*
X209971101Y-85915061D01*
X209965368Y-85903810D01*
X209959027Y-85896492D01*
X209936444Y-85847043D01*
X209915990Y-85806899D01*
X209914863Y-85799788D01*
X209913209Y-85796165D01*
X209903325Y-85727411D01*
X209816675Y-85727411D01*
X209806790Y-85796165D01*
X209805136Y-85799785D01*
X209804010Y-85806899D01*
X209783545Y-85847062D01*
X209760972Y-85896492D01*
X209754632Y-85903807D01*
X209748899Y-85915061D01*
X209718803Y-85945156D01*
X209688748Y-85979842D01*
X209675790Y-85988169D01*
X209663061Y-86000899D01*
X209628898Y-86018305D01*
X209595968Y-86039469D01*
X209575658Y-86045432D01*
X209554899Y-86056010D01*
X209521759Y-86061258D01*
X209490144Y-86070542D01*
X209463147Y-86070542D01*
X209435000Y-86075000D01*
X209406853Y-86070542D01*
X209379856Y-86070542D01*
X209348239Y-86061258D01*
X209315101Y-86056010D01*
X209294342Y-86045432D01*
X209274031Y-86039469D01*
X209241096Y-86018303D01*
X209206939Y-86000899D01*
X209194211Y-85988171D01*
X209181251Y-85979842D01*
X209151189Y-85945149D01*
X209121101Y-85915061D01*
X209115368Y-85903810D01*
X209109027Y-85896492D01*
X209086444Y-85847043D01*
X209065990Y-85806899D01*
X209064863Y-85799788D01*
X209063209Y-85796165D01*
X209053325Y-85727411D01*
X208966675Y-85727411D01*
X208956790Y-85796165D01*
X208955136Y-85799785D01*
X208954010Y-85806899D01*
X208933545Y-85847062D01*
X208910972Y-85896492D01*
X208904632Y-85903807D01*
X208898899Y-85915061D01*
X208868803Y-85945156D01*
X208838748Y-85979842D01*
X208825790Y-85988169D01*
X208813061Y-86000899D01*
X208778898Y-86018305D01*
X208745968Y-86039469D01*
X208725658Y-86045432D01*
X208704899Y-86056010D01*
X208671759Y-86061258D01*
X208640144Y-86070542D01*
X208613147Y-86070542D01*
X208585000Y-86075000D01*
X208556853Y-86070542D01*
X208529856Y-86070542D01*
X208498239Y-86061258D01*
X208465101Y-86056010D01*
X208444342Y-86045432D01*
X208424031Y-86039469D01*
X208391096Y-86018303D01*
X208356939Y-86000899D01*
X208344211Y-85988171D01*
X208331251Y-85979842D01*
X208301189Y-85945149D01*
X208271101Y-85915061D01*
X208265368Y-85903810D01*
X208259027Y-85896492D01*
X208236444Y-85847043D01*
X208215990Y-85806899D01*
X208214863Y-85799788D01*
X208213209Y-85796165D01*
X208203325Y-85727411D01*
X208116675Y-85727411D01*
X208106790Y-85796165D01*
X208105136Y-85799785D01*
X208104010Y-85806899D01*
X208083545Y-85847062D01*
X208060972Y-85896492D01*
X208054632Y-85903807D01*
X208048899Y-85915061D01*
X208018803Y-85945156D01*
X207988748Y-85979842D01*
X207975790Y-85988169D01*
X207963061Y-86000899D01*
X207928898Y-86018305D01*
X207895968Y-86039469D01*
X207875658Y-86045432D01*
X207854899Y-86056010D01*
X207821759Y-86061258D01*
X207790144Y-86070542D01*
X207763147Y-86070542D01*
X207735000Y-86075000D01*
X207706853Y-86070542D01*
X207679856Y-86070542D01*
X207648239Y-86061258D01*
X207615101Y-86056010D01*
X207594342Y-86045432D01*
X207574031Y-86039469D01*
X207541096Y-86018303D01*
X207506939Y-86000899D01*
X207494211Y-85988171D01*
X207481251Y-85979842D01*
X207451189Y-85945149D01*
X207421101Y-85915061D01*
X207415368Y-85903810D01*
X207409027Y-85896492D01*
X207386444Y-85847043D01*
X207365990Y-85806899D01*
X207364863Y-85799788D01*
X207363209Y-85796165D01*
X207353325Y-85727411D01*
X207266675Y-85727411D01*
X207256790Y-85796165D01*
X207255136Y-85799785D01*
X207254010Y-85806899D01*
X207233545Y-85847062D01*
X207210972Y-85896492D01*
X207204632Y-85903807D01*
X207198899Y-85915061D01*
X207168803Y-85945156D01*
X207138748Y-85979842D01*
X207125790Y-85988169D01*
X207113061Y-86000899D01*
X207078898Y-86018305D01*
X207045968Y-86039469D01*
X207025658Y-86045432D01*
X207004899Y-86056010D01*
X206971759Y-86061258D01*
X206940144Y-86070542D01*
X206913147Y-86070542D01*
X206885000Y-86075000D01*
X206856853Y-86070542D01*
X206829856Y-86070542D01*
X206798239Y-86061258D01*
X206765101Y-86056010D01*
X206744342Y-86045432D01*
X206724031Y-86039469D01*
X206691096Y-86018303D01*
X206656939Y-86000899D01*
X206644211Y-85988171D01*
X206631251Y-85979842D01*
X206601189Y-85945149D01*
X206571101Y-85915061D01*
X206565368Y-85903810D01*
X206559027Y-85896492D01*
X206536444Y-85847043D01*
X206515990Y-85806899D01*
X206514863Y-85799788D01*
X206513209Y-85796165D01*
X206503325Y-85727411D01*
X206416675Y-85727411D01*
X206406790Y-85796165D01*
X206405136Y-85799785D01*
X206404010Y-85806899D01*
X206383545Y-85847062D01*
X206360972Y-85896492D01*
X206354632Y-85903807D01*
X206348899Y-85915061D01*
X206318803Y-85945156D01*
X206288748Y-85979842D01*
X206275790Y-85988169D01*
X206263061Y-86000899D01*
X206228898Y-86018305D01*
X206195968Y-86039469D01*
X206175658Y-86045432D01*
X206154899Y-86056010D01*
X206121759Y-86061258D01*
X206090144Y-86070542D01*
X206063147Y-86070542D01*
X206035000Y-86075000D01*
X206006853Y-86070542D01*
X205979856Y-86070542D01*
X205948239Y-86061258D01*
X205915101Y-86056010D01*
X205894342Y-86045432D01*
X205874031Y-86039469D01*
X205841096Y-86018303D01*
X205806939Y-86000899D01*
X205794211Y-85988171D01*
X205781251Y-85979842D01*
X205751189Y-85945149D01*
X205721101Y-85915061D01*
X205715368Y-85903810D01*
X205709027Y-85896492D01*
X205686444Y-85847043D01*
X205665990Y-85806899D01*
X205664863Y-85799788D01*
X205663209Y-85796165D01*
X205653325Y-85727411D01*
X205566675Y-85727411D01*
X205556790Y-85796165D01*
X205555136Y-85799785D01*
X205554010Y-85806899D01*
X205533545Y-85847062D01*
X205510972Y-85896492D01*
X205504632Y-85903807D01*
X205498899Y-85915061D01*
X205468803Y-85945156D01*
X205438748Y-85979842D01*
X205425790Y-85988169D01*
X205413061Y-86000899D01*
X205378898Y-86018305D01*
X205345968Y-86039469D01*
X205325658Y-86045432D01*
X205304899Y-86056010D01*
X205271759Y-86061258D01*
X205240144Y-86070542D01*
X205213147Y-86070542D01*
X205185000Y-86075000D01*
X205156853Y-86070542D01*
X205129856Y-86070542D01*
X205098239Y-86061258D01*
X205065101Y-86056010D01*
X205044342Y-86045432D01*
X205024031Y-86039469D01*
X204991096Y-86018303D01*
X204956939Y-86000899D01*
X204944211Y-85988171D01*
X204931251Y-85979842D01*
X204901189Y-85945149D01*
X204871101Y-85915061D01*
X204865368Y-85903810D01*
X204859027Y-85896492D01*
X204836444Y-85847043D01*
X204815990Y-85806899D01*
X204814863Y-85799788D01*
X204813209Y-85796165D01*
X204802572Y-85722181D01*
X204797000Y-85687000D01*
X204802571Y-85651822D01*
X204813209Y-85577834D01*
X204814864Y-85574209D01*
X204815990Y-85567101D01*
X204836440Y-85526965D01*
X204859027Y-85477507D01*
X204865369Y-85470186D01*
X204871101Y-85458939D01*
X204901182Y-85428857D01*
X204931251Y-85394157D01*
X204944213Y-85385826D01*
X204956939Y-85373101D01*
X204991089Y-85355700D01*
X205024031Y-85334530D01*
X205044345Y-85328565D01*
X205065101Y-85317990D01*
X205098237Y-85312741D01*
X205129856Y-85303458D01*
X205156853Y-85303458D01*
X205185000Y-85299000D01*
X205213147Y-85303458D01*
X205240144Y-85303458D01*
X205271761Y-85312741D01*
X205304899Y-85317990D01*
X205325655Y-85328565D01*
X205345968Y-85334530D01*
X205378905Y-85355698D01*
X205413061Y-85373101D01*
X205425787Y-85385827D01*
X205438748Y-85394157D01*
X205468809Y-85428849D01*
X205498899Y-85458939D01*
X205504631Y-85470189D01*
X205510972Y-85477507D01*
X205533550Y-85526946D01*
X205554010Y-85567101D01*
X205555136Y-85574213D01*
X205556790Y-85577834D01*
X205566676Y-85646588D01*
X205653324Y-85646588D01*
X205663209Y-85577834D01*
X205664864Y-85574209D01*
X205665990Y-85567101D01*
X205686440Y-85526965D01*
X205709027Y-85477507D01*
X205715369Y-85470186D01*
X205721101Y-85458939D01*
X205751182Y-85428857D01*
X205781251Y-85394157D01*
X205794213Y-85385826D01*
X205806939Y-85373101D01*
X205841089Y-85355700D01*
X205874031Y-85334530D01*
X205894345Y-85328565D01*
X205915101Y-85317990D01*
X205948237Y-85312741D01*
X205979856Y-85303458D01*
X206006853Y-85303458D01*
X206035000Y-85299000D01*
X206063147Y-85303458D01*
X206090144Y-85303458D01*
X206121761Y-85312741D01*
X206154899Y-85317990D01*
X206175655Y-85328565D01*
X206195968Y-85334530D01*
X206228905Y-85355698D01*
X206263061Y-85373101D01*
X206275787Y-85385827D01*
X206288748Y-85394157D01*
X206318809Y-85428849D01*
X206348899Y-85458939D01*
X206354631Y-85470189D01*
X206360972Y-85477507D01*
X206383550Y-85526946D01*
X206404010Y-85567101D01*
X206405136Y-85574213D01*
X206406790Y-85577834D01*
X206416676Y-85646588D01*
X206503324Y-85646588D01*
X206513209Y-85577834D01*
X206514864Y-85574209D01*
X206515990Y-85567101D01*
X206536440Y-85526965D01*
X206559027Y-85477507D01*
X206565369Y-85470186D01*
X206571101Y-85458939D01*
X206601182Y-85428857D01*
X206631251Y-85394157D01*
X206644213Y-85385826D01*
X206656939Y-85373101D01*
X206691089Y-85355700D01*
X206724031Y-85334530D01*
X206744345Y-85328565D01*
X206765101Y-85317990D01*
X206798237Y-85312741D01*
X206829856Y-85303458D01*
X206856853Y-85303458D01*
X206885000Y-85299000D01*
X206913147Y-85303458D01*
X206940144Y-85303458D01*
X206971761Y-85312741D01*
X207004899Y-85317990D01*
X207025655Y-85328565D01*
X207045968Y-85334530D01*
X207078905Y-85355698D01*
X207113061Y-85373101D01*
X207125787Y-85385827D01*
X207138748Y-85394157D01*
X207168809Y-85428849D01*
X207198899Y-85458939D01*
X207204631Y-85470189D01*
X207210972Y-85477507D01*
X207233550Y-85526946D01*
X207254010Y-85567101D01*
X207255136Y-85574213D01*
X207256790Y-85577834D01*
X207266676Y-85646588D01*
X207353324Y-85646588D01*
X207363209Y-85577834D01*
X207364864Y-85574209D01*
X207365990Y-85567101D01*
X207386440Y-85526965D01*
X207409027Y-85477507D01*
X207415369Y-85470186D01*
X207421101Y-85458939D01*
X207451182Y-85428857D01*
X207481251Y-85394157D01*
X207494213Y-85385826D01*
X207506939Y-85373101D01*
X207541089Y-85355700D01*
X207574031Y-85334530D01*
X207594345Y-85328565D01*
X207615101Y-85317990D01*
X207648237Y-85312741D01*
X207679856Y-85303458D01*
X207706853Y-85303458D01*
X207735000Y-85299000D01*
X207763147Y-85303458D01*
X207790144Y-85303458D01*
X207821761Y-85312741D01*
X207854899Y-85317990D01*
X207875655Y-85328565D01*
X207895968Y-85334530D01*
X207928905Y-85355698D01*
X207963061Y-85373101D01*
X207975787Y-85385827D01*
X207988748Y-85394157D01*
X208018809Y-85428849D01*
X208048899Y-85458939D01*
X208054631Y-85470189D01*
X208060972Y-85477507D01*
X208083550Y-85526946D01*
X208104010Y-85567101D01*
X208105136Y-85574213D01*
X208106790Y-85577834D01*
X208116676Y-85646588D01*
X208203324Y-85646588D01*
X208213209Y-85577834D01*
X208214864Y-85574209D01*
X208215990Y-85567101D01*
X208236440Y-85526965D01*
X208259027Y-85477507D01*
X208265369Y-85470186D01*
X208271101Y-85458939D01*
X208301182Y-85428857D01*
X208331251Y-85394157D01*
X208344213Y-85385826D01*
X208356939Y-85373101D01*
X208391089Y-85355700D01*
X208424031Y-85334530D01*
X208444345Y-85328565D01*
X208465101Y-85317990D01*
X208498237Y-85312741D01*
X208529856Y-85303458D01*
X208556853Y-85303458D01*
X208585000Y-85299000D01*
X208613147Y-85303458D01*
X208640144Y-85303458D01*
X208671761Y-85312741D01*
X208704899Y-85317990D01*
X208725655Y-85328565D01*
X208745968Y-85334530D01*
X208778905Y-85355698D01*
X208813061Y-85373101D01*
X208825787Y-85385827D01*
X208838748Y-85394157D01*
X208868809Y-85428849D01*
X208898899Y-85458939D01*
X208904631Y-85470189D01*
X208910972Y-85477507D01*
X208933550Y-85526946D01*
X208954010Y-85567101D01*
X208955136Y-85574213D01*
X208956790Y-85577834D01*
X208966676Y-85646588D01*
X209053324Y-85646588D01*
X209063209Y-85577834D01*
X209064864Y-85574209D01*
X209065990Y-85567101D01*
X209086440Y-85526965D01*
X209109027Y-85477507D01*
X209115369Y-85470186D01*
X209121101Y-85458939D01*
X209151182Y-85428857D01*
X209181251Y-85394157D01*
X209194213Y-85385826D01*
X209206939Y-85373101D01*
X209241089Y-85355700D01*
X209274031Y-85334530D01*
X209294345Y-85328565D01*
X209315101Y-85317990D01*
X209348237Y-85312741D01*
X209379856Y-85303458D01*
X209406853Y-85303458D01*
X209435000Y-85299000D01*
X209463147Y-85303458D01*
X209490144Y-85303458D01*
X209521761Y-85312741D01*
X209554899Y-85317990D01*
X209575655Y-85328565D01*
X209595968Y-85334530D01*
X209628905Y-85355698D01*
X209663061Y-85373101D01*
X209675787Y-85385827D01*
X209688748Y-85394157D01*
X209718809Y-85428849D01*
X209748899Y-85458939D01*
X209754631Y-85470189D01*
X209760972Y-85477507D01*
X209783550Y-85526946D01*
X209804010Y-85567101D01*
X209805136Y-85574213D01*
X209806790Y-85577834D01*
X209816676Y-85646588D01*
X209903324Y-85646588D01*
X209913209Y-85577834D01*
X209914864Y-85574209D01*
X209915990Y-85567101D01*
X209936440Y-85526965D01*
X209959027Y-85477507D01*
X209965369Y-85470186D01*
X209971101Y-85458939D01*
X210001182Y-85428857D01*
X210031251Y-85394157D01*
X210044213Y-85385826D01*
X210056939Y-85373101D01*
X210091089Y-85355700D01*
X210124031Y-85334530D01*
X210144345Y-85328565D01*
X210165101Y-85317990D01*
X210198237Y-85312741D01*
X210229856Y-85303458D01*
X210256853Y-85303458D01*
X210285000Y-85299000D01*
X210313147Y-85303458D01*
X210340144Y-85303458D01*
X210371761Y-85312741D01*
X210404899Y-85317990D01*
X210425655Y-85328565D01*
X210445968Y-85334530D01*
X210478905Y-85355698D01*
X210513061Y-85373101D01*
X210525787Y-85385827D01*
X210538748Y-85394157D01*
X210568809Y-85428849D01*
X210598899Y-85458939D01*
X210604631Y-85470189D01*
X210610972Y-85477507D01*
X210633550Y-85526946D01*
X210654010Y-85567101D01*
X210655136Y-85574213D01*
X210656790Y-85577834D01*
X210666676Y-85646588D01*
X210753324Y-85646588D01*
X210763209Y-85577834D01*
X210764864Y-85574209D01*
X210765990Y-85567101D01*
X210786440Y-85526965D01*
X210809027Y-85477507D01*
X210815369Y-85470186D01*
X210821101Y-85458939D01*
X210851182Y-85428857D01*
X210881251Y-85394157D01*
X210894213Y-85385826D01*
X210906939Y-85373101D01*
X210941089Y-85355700D01*
X210974031Y-85334530D01*
X210994345Y-85328565D01*
X211015101Y-85317990D01*
X211048237Y-85312741D01*
X211079856Y-85303458D01*
X211106853Y-85303458D01*
X211135000Y-85299000D01*
X211163147Y-85303458D01*
G37*
G36*
X157121323Y-84264656D02*
G01*
X157163595Y-84264656D01*
X157211282Y-84274792D01*
X157258017Y-84280058D01*
X157292000Y-84291949D01*
X157327129Y-84299416D01*
X157377754Y-84321955D01*
X157427107Y-84339225D01*
X157452795Y-84355366D01*
X157479860Y-84367416D01*
X157530322Y-84404079D01*
X157578792Y-84434535D01*
X157596199Y-84451942D01*
X157615121Y-84465690D01*
X157661901Y-84517644D01*
X157705465Y-84561208D01*
X157715484Y-84577153D01*
X157726992Y-84589934D01*
X157766365Y-84658130D01*
X157800775Y-84712893D01*
X157805070Y-84725170D01*
X157810584Y-84734719D01*
X157838809Y-84821590D01*
X157859942Y-84881983D01*
X157860743Y-84889096D01*
X157862248Y-84893727D01*
X157875892Y-85023542D01*
X157880000Y-85060000D01*
X157875891Y-85096460D01*
X157862248Y-85226272D01*
X157860743Y-85230901D01*
X157859942Y-85238017D01*
X157838805Y-85298422D01*
X157810584Y-85385280D01*
X157805071Y-85394827D01*
X157800775Y-85407107D01*
X157766358Y-85461881D01*
X157726992Y-85530065D01*
X157715486Y-85542843D01*
X157705465Y-85558792D01*
X157661892Y-85602364D01*
X157615121Y-85654309D01*
X157596203Y-85668053D01*
X157578792Y-85685465D01*
X157530312Y-85715926D01*
X157479860Y-85752583D01*
X157452800Y-85764630D01*
X157427107Y-85780775D01*
X157377744Y-85798047D01*
X157327129Y-85820583D01*
X157292005Y-85828048D01*
X157258017Y-85839942D01*
X157211279Y-85845208D01*
X157163595Y-85855344D01*
X157121323Y-85855344D01*
X157080000Y-85860000D01*
X157038677Y-85855344D01*
X156996405Y-85855344D01*
X156948719Y-85845208D01*
X156901983Y-85839942D01*
X156867995Y-85828049D01*
X156832870Y-85820583D01*
X156782251Y-85798046D01*
X156732893Y-85780775D01*
X156707201Y-85764631D01*
X156680139Y-85752583D01*
X156629680Y-85715922D01*
X156581208Y-85685465D01*
X156563799Y-85668056D01*
X156544878Y-85654309D01*
X156498097Y-85602354D01*
X156454535Y-85558792D01*
X156444516Y-85542847D01*
X156433007Y-85530065D01*
X156393629Y-85461861D01*
X156359225Y-85407107D01*
X156354929Y-85394831D01*
X156349415Y-85385280D01*
X156321180Y-85298382D01*
X156300058Y-85238017D01*
X156299256Y-85230906D01*
X156297751Y-85226272D01*
X156284093Y-85096328D01*
X156280000Y-85060000D01*
X156284092Y-85023674D01*
X156297751Y-84893727D01*
X156299257Y-84889091D01*
X156300058Y-84881983D01*
X156321176Y-84821630D01*
X156349415Y-84734719D01*
X156354930Y-84725165D01*
X156359225Y-84712893D01*
X156393622Y-84658149D01*
X156433007Y-84589934D01*
X156444518Y-84577149D01*
X156454535Y-84561208D01*
X156498088Y-84517654D01*
X156544878Y-84465690D01*
X156563802Y-84451940D01*
X156581208Y-84434535D01*
X156629674Y-84404081D01*
X156680140Y-84367416D01*
X156707204Y-84355365D01*
X156732893Y-84339225D01*
X156782242Y-84321956D01*
X156832870Y-84299416D01*
X156868001Y-84291948D01*
X156901983Y-84280058D01*
X156948717Y-84274792D01*
X156996405Y-84264656D01*
X157038677Y-84264656D01*
X157080000Y-84260000D01*
X157121323Y-84264656D01*
G37*
G36*
X161742813Y-84262095D02*
G01*
X161785085Y-84262095D01*
X161832772Y-84272231D01*
X161879507Y-84277497D01*
X161913490Y-84289388D01*
X161948619Y-84296855D01*
X161999244Y-84319394D01*
X162048597Y-84336664D01*
X162074285Y-84352805D01*
X162101350Y-84364855D01*
X162151812Y-84401518D01*
X162200282Y-84431974D01*
X162217689Y-84449381D01*
X162236611Y-84463129D01*
X162283391Y-84515083D01*
X162326955Y-84558647D01*
X162336974Y-84574592D01*
X162348482Y-84587373D01*
X162387855Y-84655569D01*
X162422265Y-84710332D01*
X162426560Y-84722609D01*
X162432074Y-84732158D01*
X162460299Y-84819029D01*
X162481432Y-84879422D01*
X162482233Y-84886535D01*
X162483738Y-84891166D01*
X162497382Y-85020981D01*
X162501490Y-85057439D01*
X162497381Y-85093899D01*
X162483738Y-85223711D01*
X162482233Y-85228340D01*
X162481432Y-85235456D01*
X162460295Y-85295861D01*
X162432074Y-85382719D01*
X162426561Y-85392266D01*
X162422265Y-85404546D01*
X162387848Y-85459320D01*
X162348482Y-85527504D01*
X162336976Y-85540282D01*
X162326955Y-85556231D01*
X162283382Y-85599803D01*
X162236611Y-85651748D01*
X162217693Y-85665492D01*
X162200282Y-85682904D01*
X162151802Y-85713365D01*
X162101350Y-85750022D01*
X162074290Y-85762069D01*
X162048597Y-85778214D01*
X161999234Y-85795486D01*
X161948619Y-85818022D01*
X161913495Y-85825487D01*
X161879507Y-85837381D01*
X161832769Y-85842647D01*
X161785085Y-85852783D01*
X161742813Y-85852783D01*
X161701490Y-85857439D01*
X161660167Y-85852783D01*
X161617895Y-85852783D01*
X161570209Y-85842647D01*
X161523473Y-85837381D01*
X161489485Y-85825488D01*
X161454360Y-85818022D01*
X161403741Y-85795485D01*
X161354383Y-85778214D01*
X161328691Y-85762070D01*
X161301629Y-85750022D01*
X161251170Y-85713361D01*
X161202698Y-85682904D01*
X161185289Y-85665495D01*
X161166368Y-85651748D01*
X161119587Y-85599793D01*
X161076025Y-85556231D01*
X161066006Y-85540286D01*
X161054497Y-85527504D01*
X161015119Y-85459300D01*
X160980715Y-85404546D01*
X160976419Y-85392270D01*
X160970905Y-85382719D01*
X160942670Y-85295821D01*
X160921548Y-85235456D01*
X160920746Y-85228345D01*
X160919241Y-85223711D01*
X160905583Y-85093767D01*
X160901490Y-85057439D01*
X160905582Y-85021113D01*
X160919241Y-84891166D01*
X160920747Y-84886530D01*
X160921548Y-84879422D01*
X160942666Y-84819069D01*
X160970905Y-84732158D01*
X160976420Y-84722604D01*
X160980715Y-84710332D01*
X161015112Y-84655588D01*
X161054497Y-84587373D01*
X161066008Y-84574588D01*
X161076025Y-84558647D01*
X161119578Y-84515093D01*
X161166368Y-84463129D01*
X161185292Y-84449379D01*
X161202698Y-84431974D01*
X161251164Y-84401520D01*
X161301630Y-84364855D01*
X161328694Y-84352804D01*
X161354383Y-84336664D01*
X161403732Y-84319395D01*
X161454360Y-84296855D01*
X161489491Y-84289387D01*
X161523473Y-84277497D01*
X161570207Y-84272231D01*
X161617895Y-84262095D01*
X161660167Y-84262095D01*
X161701490Y-84257439D01*
X161742813Y-84262095D01*
G37*
G36*
X129673542Y-83665893D02*
G01*
X129685870Y-83674130D01*
X129694107Y-83686458D01*
X129697000Y-83701000D01*
X129697000Y-84701000D01*
X129694107Y-84715542D01*
X129685870Y-84727870D01*
X129673542Y-84736107D01*
X129659000Y-84739000D01*
X128659000Y-84739000D01*
X128644458Y-84736107D01*
X128632130Y-84727870D01*
X128623893Y-84715542D01*
X128621000Y-84701000D01*
X128621000Y-83701000D01*
X128623893Y-83686458D01*
X128632130Y-83674130D01*
X128644458Y-83665893D01*
X128659000Y-83663000D01*
X129659000Y-83663000D01*
X129673542Y-83665893D01*
G37*
G36*
X131705542Y-83665893D02*
G01*
X131717870Y-83674130D01*
X131726107Y-83686458D01*
X131729000Y-83701000D01*
X131729000Y-84701000D01*
X131726107Y-84715542D01*
X131717870Y-84727870D01*
X131705542Y-84736107D01*
X131691000Y-84739000D01*
X130691000Y-84739000D01*
X130676458Y-84736107D01*
X130664130Y-84727870D01*
X130655893Y-84715542D01*
X130653000Y-84701000D01*
X130653000Y-83701000D01*
X130655893Y-83686458D01*
X130664130Y-83674130D01*
X130676458Y-83665893D01*
X130691000Y-83663000D01*
X131691000Y-83663000D01*
X131705542Y-83665893D01*
G37*
G36*
X133737542Y-83665893D02*
G01*
X133749870Y-83674130D01*
X133758107Y-83686458D01*
X133761000Y-83701000D01*
X133761000Y-84701000D01*
X133758107Y-84715542D01*
X133749870Y-84727870D01*
X133737542Y-84736107D01*
X133723000Y-84739000D01*
X132723000Y-84739000D01*
X132708458Y-84736107D01*
X132696130Y-84727870D01*
X132687893Y-84715542D01*
X132685000Y-84701000D01*
X132685000Y-83701000D01*
X132687893Y-83686458D01*
X132696130Y-83674130D01*
X132708458Y-83665893D01*
X132723000Y-83663000D01*
X133723000Y-83663000D01*
X133737542Y-83665893D01*
G37*
G36*
X127641542Y-82522893D02*
G01*
X127653870Y-82531130D01*
X127662107Y-82543458D01*
X127665000Y-82558000D01*
X127665000Y-83558000D01*
X127662107Y-83572542D01*
X127653870Y-83584870D01*
X127641542Y-83593107D01*
X127627000Y-83596000D01*
X126627000Y-83596000D01*
X126612458Y-83593107D01*
X126600130Y-83584870D01*
X126591893Y-83572542D01*
X126589000Y-83558000D01*
X126589000Y-82558000D01*
X126591893Y-82543458D01*
X126600130Y-82531130D01*
X126612458Y-82522893D01*
X126627000Y-82520000D01*
X127627000Y-82520000D01*
X127641542Y-82522893D01*
G37*
G36*
X204021750Y-81826147D02*
G01*
X204132076Y-81889844D01*
X204222156Y-81979924D01*
X204285853Y-82090250D01*
X204318825Y-82213303D01*
X204323000Y-83077000D01*
X204318825Y-83140697D01*
X204285853Y-83263750D01*
X204222156Y-83374076D01*
X204132076Y-83464156D01*
X204021750Y-83527853D01*
X203898697Y-83560825D01*
X203771303Y-83560825D01*
X203648250Y-83527853D01*
X203537924Y-83464156D01*
X203447844Y-83374076D01*
X203384147Y-83263750D01*
X203351175Y-83140697D01*
X203347000Y-82277000D01*
X203351175Y-82213303D01*
X203384147Y-82090250D01*
X203447844Y-81979924D01*
X203537924Y-81889844D01*
X203648250Y-81826147D01*
X203771303Y-81793175D01*
X203898697Y-81793175D01*
X204021750Y-81826147D01*
G37*
G36*
X212671750Y-81826147D02*
G01*
X212782076Y-81889844D01*
X212872156Y-81979924D01*
X212935853Y-82090250D01*
X212968825Y-82213303D01*
X212973000Y-83077000D01*
X212968825Y-83140697D01*
X212935853Y-83263750D01*
X212872156Y-83374076D01*
X212782076Y-83464156D01*
X212671750Y-83527853D01*
X212548697Y-83560825D01*
X212421303Y-83560825D01*
X212298250Y-83527853D01*
X212187924Y-83464156D01*
X212097844Y-83374076D01*
X212034147Y-83263750D01*
X212001175Y-83140697D01*
X211997000Y-82277000D01*
X212001175Y-82213303D01*
X212034147Y-82090250D01*
X212097844Y-81979924D01*
X212187924Y-81889844D01*
X212298250Y-81826147D01*
X212421303Y-81793175D01*
X212548697Y-81793175D01*
X212671750Y-81826147D01*
G37*
G36*
X157121323Y-81724656D02*
G01*
X157163595Y-81724656D01*
X157211282Y-81734792D01*
X157258017Y-81740058D01*
X157292000Y-81751949D01*
X157327129Y-81759416D01*
X157377754Y-81781955D01*
X157427107Y-81799225D01*
X157452795Y-81815366D01*
X157479860Y-81827416D01*
X157530322Y-81864079D01*
X157578792Y-81894535D01*
X157596199Y-81911942D01*
X157615121Y-81925690D01*
X157661901Y-81977644D01*
X157705465Y-82021208D01*
X157715484Y-82037153D01*
X157726992Y-82049934D01*
X157766365Y-82118130D01*
X157800775Y-82172893D01*
X157805070Y-82185170D01*
X157810584Y-82194719D01*
X157838809Y-82281590D01*
X157859942Y-82341983D01*
X157860743Y-82349096D01*
X157862248Y-82353727D01*
X157875892Y-82483542D01*
X157880000Y-82520000D01*
X157875891Y-82556460D01*
X157862248Y-82686272D01*
X157860743Y-82690901D01*
X157859942Y-82698017D01*
X157838805Y-82758422D01*
X157810584Y-82845280D01*
X157805071Y-82854827D01*
X157800775Y-82867107D01*
X157766358Y-82921881D01*
X157726992Y-82990065D01*
X157715486Y-83002843D01*
X157705465Y-83018792D01*
X157661892Y-83062364D01*
X157615121Y-83114309D01*
X157596203Y-83128053D01*
X157578792Y-83145465D01*
X157530312Y-83175926D01*
X157479860Y-83212583D01*
X157452800Y-83224630D01*
X157427107Y-83240775D01*
X157377744Y-83258047D01*
X157327129Y-83280583D01*
X157292005Y-83288048D01*
X157258017Y-83299942D01*
X157211279Y-83305208D01*
X157163595Y-83315344D01*
X157121323Y-83315344D01*
X157080000Y-83320000D01*
X157038677Y-83315344D01*
X156996405Y-83315344D01*
X156948719Y-83305208D01*
X156901983Y-83299942D01*
X156867995Y-83288049D01*
X156832870Y-83280583D01*
X156782251Y-83258046D01*
X156732893Y-83240775D01*
X156707201Y-83224631D01*
X156680139Y-83212583D01*
X156629680Y-83175922D01*
X156581208Y-83145465D01*
X156563799Y-83128056D01*
X156544878Y-83114309D01*
X156498097Y-83062354D01*
X156454535Y-83018792D01*
X156444516Y-83002847D01*
X156433007Y-82990065D01*
X156393629Y-82921861D01*
X156359225Y-82867107D01*
X156354929Y-82854831D01*
X156349415Y-82845280D01*
X156321180Y-82758382D01*
X156300058Y-82698017D01*
X156299256Y-82690906D01*
X156297751Y-82686272D01*
X156284093Y-82556328D01*
X156280000Y-82520000D01*
X156284092Y-82483674D01*
X156297751Y-82353727D01*
X156299257Y-82349091D01*
X156300058Y-82341983D01*
X156321176Y-82281630D01*
X156349415Y-82194719D01*
X156354930Y-82185165D01*
X156359225Y-82172893D01*
X156393622Y-82118149D01*
X156433007Y-82049934D01*
X156444518Y-82037149D01*
X156454535Y-82021208D01*
X156498088Y-81977654D01*
X156544878Y-81925690D01*
X156563802Y-81911940D01*
X156581208Y-81894535D01*
X156629674Y-81864081D01*
X156680140Y-81827416D01*
X156707204Y-81815365D01*
X156732893Y-81799225D01*
X156782242Y-81781956D01*
X156832870Y-81759416D01*
X156868001Y-81751948D01*
X156901983Y-81740058D01*
X156948717Y-81734792D01*
X156996405Y-81724656D01*
X157038677Y-81724656D01*
X157080000Y-81720000D01*
X157121323Y-81724656D01*
G37*
G36*
X161742813Y-81722095D02*
G01*
X161785085Y-81722095D01*
X161832772Y-81732231D01*
X161879507Y-81737497D01*
X161913490Y-81749388D01*
X161948619Y-81756855D01*
X161999244Y-81779394D01*
X162048597Y-81796664D01*
X162074285Y-81812805D01*
X162101350Y-81824855D01*
X162151812Y-81861518D01*
X162200282Y-81891974D01*
X162217689Y-81909381D01*
X162236611Y-81923129D01*
X162283391Y-81975083D01*
X162326955Y-82018647D01*
X162336974Y-82034592D01*
X162348482Y-82047373D01*
X162387855Y-82115569D01*
X162422265Y-82170332D01*
X162426560Y-82182609D01*
X162432074Y-82192158D01*
X162460299Y-82279029D01*
X162481432Y-82339422D01*
X162482233Y-82346535D01*
X162483738Y-82351166D01*
X162497382Y-82480981D01*
X162501490Y-82517439D01*
X162497381Y-82553899D01*
X162483738Y-82683711D01*
X162482233Y-82688340D01*
X162481432Y-82695456D01*
X162460295Y-82755861D01*
X162432074Y-82842719D01*
X162426561Y-82852266D01*
X162422265Y-82864546D01*
X162387848Y-82919320D01*
X162348482Y-82987504D01*
X162336976Y-83000282D01*
X162326955Y-83016231D01*
X162283382Y-83059803D01*
X162236611Y-83111748D01*
X162217693Y-83125492D01*
X162200282Y-83142904D01*
X162151802Y-83173365D01*
X162101350Y-83210022D01*
X162074290Y-83222069D01*
X162048597Y-83238214D01*
X161999234Y-83255486D01*
X161948619Y-83278022D01*
X161913495Y-83285487D01*
X161879507Y-83297381D01*
X161832769Y-83302647D01*
X161785085Y-83312783D01*
X161742813Y-83312783D01*
X161701490Y-83317439D01*
X161660167Y-83312783D01*
X161617895Y-83312783D01*
X161570209Y-83302647D01*
X161523473Y-83297381D01*
X161489485Y-83285488D01*
X161454360Y-83278022D01*
X161403741Y-83255485D01*
X161354383Y-83238214D01*
X161328691Y-83222070D01*
X161301629Y-83210022D01*
X161251170Y-83173361D01*
X161202698Y-83142904D01*
X161185289Y-83125495D01*
X161166368Y-83111748D01*
X161119587Y-83059793D01*
X161076025Y-83016231D01*
X161066006Y-83000286D01*
X161054497Y-82987504D01*
X161015119Y-82919300D01*
X160980715Y-82864546D01*
X160976419Y-82852270D01*
X160970905Y-82842719D01*
X160942670Y-82755821D01*
X160921548Y-82695456D01*
X160920746Y-82688345D01*
X160919241Y-82683711D01*
X160905583Y-82553767D01*
X160901490Y-82517439D01*
X160905582Y-82481113D01*
X160919241Y-82351166D01*
X160920747Y-82346530D01*
X160921548Y-82339422D01*
X160942666Y-82279069D01*
X160970905Y-82192158D01*
X160976420Y-82182604D01*
X160980715Y-82170332D01*
X161015112Y-82115588D01*
X161054497Y-82047373D01*
X161066008Y-82034588D01*
X161076025Y-82018647D01*
X161119578Y-81975093D01*
X161166368Y-81923129D01*
X161185292Y-81909379D01*
X161202698Y-81891974D01*
X161251164Y-81861520D01*
X161301630Y-81824855D01*
X161328694Y-81812804D01*
X161354383Y-81796664D01*
X161403732Y-81779395D01*
X161454360Y-81756855D01*
X161489491Y-81749387D01*
X161523473Y-81737497D01*
X161570207Y-81732231D01*
X161617895Y-81722095D01*
X161660167Y-81722095D01*
X161701490Y-81717439D01*
X161742813Y-81722095D01*
G37*
G36*
X157121323Y-79184656D02*
G01*
X157163595Y-79184656D01*
X157211282Y-79194792D01*
X157258017Y-79200058D01*
X157292000Y-79211949D01*
X157327129Y-79219416D01*
X157377754Y-79241955D01*
X157427107Y-79259225D01*
X157452795Y-79275366D01*
X157479860Y-79287416D01*
X157530322Y-79324079D01*
X157578792Y-79354535D01*
X157596199Y-79371942D01*
X157615121Y-79385690D01*
X157661901Y-79437644D01*
X157705465Y-79481208D01*
X157715484Y-79497153D01*
X157726992Y-79509934D01*
X157766365Y-79578130D01*
X157800775Y-79632893D01*
X157805070Y-79645170D01*
X157810584Y-79654719D01*
X157838809Y-79741590D01*
X157859942Y-79801983D01*
X157860743Y-79809096D01*
X157862248Y-79813727D01*
X157875892Y-79943542D01*
X157880000Y-79980000D01*
X157875891Y-80016460D01*
X157862248Y-80146272D01*
X157860743Y-80150901D01*
X157859942Y-80158017D01*
X157838805Y-80218422D01*
X157810584Y-80305280D01*
X157805071Y-80314827D01*
X157800775Y-80327107D01*
X157766358Y-80381881D01*
X157726992Y-80450065D01*
X157715486Y-80462843D01*
X157705465Y-80478792D01*
X157661892Y-80522364D01*
X157615121Y-80574309D01*
X157596203Y-80588053D01*
X157578792Y-80605465D01*
X157530312Y-80635926D01*
X157479860Y-80672583D01*
X157452800Y-80684630D01*
X157427107Y-80700775D01*
X157377744Y-80718047D01*
X157327129Y-80740583D01*
X157292005Y-80748048D01*
X157258017Y-80759942D01*
X157211279Y-80765208D01*
X157163595Y-80775344D01*
X157121323Y-80775344D01*
X157080000Y-80780000D01*
X157038677Y-80775344D01*
X156996405Y-80775344D01*
X156948719Y-80765208D01*
X156901983Y-80759942D01*
X156867995Y-80748049D01*
X156832870Y-80740583D01*
X156782251Y-80718046D01*
X156732893Y-80700775D01*
X156707201Y-80684631D01*
X156680139Y-80672583D01*
X156629680Y-80635922D01*
X156581208Y-80605465D01*
X156563799Y-80588056D01*
X156544878Y-80574309D01*
X156498097Y-80522354D01*
X156454535Y-80478792D01*
X156444516Y-80462847D01*
X156433007Y-80450065D01*
X156393629Y-80381861D01*
X156359225Y-80327107D01*
X156354929Y-80314831D01*
X156349415Y-80305280D01*
X156321180Y-80218382D01*
X156300058Y-80158017D01*
X156299256Y-80150906D01*
X156297751Y-80146272D01*
X156284093Y-80016328D01*
X156280000Y-79980000D01*
X156284092Y-79943674D01*
X156297751Y-79813727D01*
X156299257Y-79809091D01*
X156300058Y-79801983D01*
X156321176Y-79741630D01*
X156349415Y-79654719D01*
X156354930Y-79645165D01*
X156359225Y-79632893D01*
X156393622Y-79578149D01*
X156433007Y-79509934D01*
X156444518Y-79497149D01*
X156454535Y-79481208D01*
X156498088Y-79437654D01*
X156544878Y-79385690D01*
X156563802Y-79371940D01*
X156581208Y-79354535D01*
X156629674Y-79324081D01*
X156680140Y-79287416D01*
X156707204Y-79275365D01*
X156732893Y-79259225D01*
X156782242Y-79241956D01*
X156832870Y-79219416D01*
X156868001Y-79211948D01*
X156901983Y-79200058D01*
X156948717Y-79194792D01*
X156996405Y-79184656D01*
X157038677Y-79184656D01*
X157080000Y-79180000D01*
X157121323Y-79184656D01*
G37*
G36*
X161742813Y-79182095D02*
G01*
X161785085Y-79182095D01*
X161832772Y-79192231D01*
X161879507Y-79197497D01*
X161913490Y-79209388D01*
X161948619Y-79216855D01*
X161999244Y-79239394D01*
X162048597Y-79256664D01*
X162074285Y-79272805D01*
X162101350Y-79284855D01*
X162151812Y-79321518D01*
X162200282Y-79351974D01*
X162217689Y-79369381D01*
X162236611Y-79383129D01*
X162283391Y-79435083D01*
X162326955Y-79478647D01*
X162336974Y-79494592D01*
X162348482Y-79507373D01*
X162387855Y-79575569D01*
X162422265Y-79630332D01*
X162426560Y-79642609D01*
X162432074Y-79652158D01*
X162460299Y-79739029D01*
X162481432Y-79799422D01*
X162482233Y-79806535D01*
X162483738Y-79811166D01*
X162497382Y-79940981D01*
X162501490Y-79977439D01*
X162497381Y-80013899D01*
X162483738Y-80143711D01*
X162482233Y-80148340D01*
X162481432Y-80155456D01*
X162460295Y-80215861D01*
X162432074Y-80302719D01*
X162426561Y-80312266D01*
X162422265Y-80324546D01*
X162387848Y-80379320D01*
X162348482Y-80447504D01*
X162336976Y-80460282D01*
X162326955Y-80476231D01*
X162283382Y-80519803D01*
X162236611Y-80571748D01*
X162217693Y-80585492D01*
X162200282Y-80602904D01*
X162151802Y-80633365D01*
X162101350Y-80670022D01*
X162074290Y-80682069D01*
X162048597Y-80698214D01*
X161999234Y-80715486D01*
X161948619Y-80738022D01*
X161913495Y-80745487D01*
X161879507Y-80757381D01*
X161832769Y-80762647D01*
X161785085Y-80772783D01*
X161742813Y-80772783D01*
X161701490Y-80777439D01*
X161660167Y-80772783D01*
X161617895Y-80772783D01*
X161570209Y-80762647D01*
X161523473Y-80757381D01*
X161489485Y-80745488D01*
X161454360Y-80738022D01*
X161403741Y-80715485D01*
X161354383Y-80698214D01*
X161328691Y-80682070D01*
X161301629Y-80670022D01*
X161251170Y-80633361D01*
X161202698Y-80602904D01*
X161185289Y-80585495D01*
X161166368Y-80571748D01*
X161119587Y-80519793D01*
X161076025Y-80476231D01*
X161066006Y-80460286D01*
X161054497Y-80447504D01*
X161015119Y-80379300D01*
X160980715Y-80324546D01*
X160976419Y-80312270D01*
X160970905Y-80302719D01*
X160942670Y-80215821D01*
X160921548Y-80155456D01*
X160920746Y-80148345D01*
X160919241Y-80143711D01*
X160905583Y-80013767D01*
X160901490Y-79977439D01*
X160905582Y-79941113D01*
X160919241Y-79811166D01*
X160920747Y-79806530D01*
X160921548Y-79799422D01*
X160942666Y-79739069D01*
X160970905Y-79652158D01*
X160976420Y-79642604D01*
X160980715Y-79630332D01*
X161015112Y-79575588D01*
X161054497Y-79507373D01*
X161066008Y-79494588D01*
X161076025Y-79478647D01*
X161119578Y-79435093D01*
X161166368Y-79383129D01*
X161185292Y-79369379D01*
X161202698Y-79351974D01*
X161251164Y-79321520D01*
X161301630Y-79284855D01*
X161328694Y-79272804D01*
X161354383Y-79256664D01*
X161403732Y-79239395D01*
X161454360Y-79216855D01*
X161489491Y-79209387D01*
X161523473Y-79197497D01*
X161570207Y-79192231D01*
X161617895Y-79182095D01*
X161660167Y-79182095D01*
X161701490Y-79177439D01*
X161742813Y-79182095D01*
G37*
G36*
X137257034Y-78299764D02*
G01*
X137290125Y-78321875D01*
X137312236Y-78354966D01*
X137320000Y-78394000D01*
X137320000Y-79594000D01*
X137312236Y-79633034D01*
X137290125Y-79666125D01*
X137257034Y-79688236D01*
X137218000Y-79696000D01*
X136018000Y-79696000D01*
X135978966Y-79688236D01*
X135945875Y-79666125D01*
X135923764Y-79633034D01*
X135916000Y-79594000D01*
X135916000Y-78394000D01*
X135923764Y-78354966D01*
X135945875Y-78321875D01*
X135978966Y-78299764D01*
X136018000Y-78292000D01*
X137218000Y-78292000D01*
X137257034Y-78299764D01*
G37*
G36*
X139357034Y-78299764D02*
G01*
X139390125Y-78321875D01*
X139412236Y-78354966D01*
X139420000Y-78394000D01*
X139420000Y-79594000D01*
X139412236Y-79633034D01*
X139390125Y-79666125D01*
X139357034Y-79688236D01*
X139318000Y-79696000D01*
X138118000Y-79696000D01*
X138078966Y-79688236D01*
X138045875Y-79666125D01*
X138023764Y-79633034D01*
X138016000Y-79594000D01*
X138016000Y-78394000D01*
X138023764Y-78354966D01*
X138045875Y-78321875D01*
X138078966Y-78299764D01*
X138118000Y-78292000D01*
X139318000Y-78292000D01*
X139357034Y-78299764D01*
G37*
G36*
X151481034Y-78299764D02*
G01*
X151514125Y-78321875D01*
X151536236Y-78354966D01*
X151544000Y-78394000D01*
X151544000Y-79594000D01*
X151536236Y-79633034D01*
X151514125Y-79666125D01*
X151481034Y-79688236D01*
X151442000Y-79696000D01*
X150242000Y-79696000D01*
X150202966Y-79688236D01*
X150169875Y-79666125D01*
X150147764Y-79633034D01*
X150140000Y-79594000D01*
X150140000Y-78394000D01*
X150147764Y-78354966D01*
X150169875Y-78321875D01*
X150202966Y-78299764D01*
X150242000Y-78292000D01*
X151442000Y-78292000D01*
X151481034Y-78299764D01*
G37*
G36*
X153581034Y-78299764D02*
G01*
X153614125Y-78321875D01*
X153636236Y-78354966D01*
X153644000Y-78394000D01*
X153644000Y-79594000D01*
X153636236Y-79633034D01*
X153614125Y-79666125D01*
X153581034Y-79688236D01*
X153542000Y-79696000D01*
X152342000Y-79696000D01*
X152302966Y-79688236D01*
X152269875Y-79666125D01*
X152247764Y-79633034D01*
X152240000Y-79594000D01*
X152240000Y-78394000D01*
X152247764Y-78354966D01*
X152269875Y-78321875D01*
X152302966Y-78299764D01*
X152342000Y-78292000D01*
X153542000Y-78292000D01*
X153581034Y-78299764D01*
G37*
G36*
X173545034Y-78299764D02*
G01*
X173578125Y-78321875D01*
X173600236Y-78354966D01*
X173608000Y-78394000D01*
X173608000Y-79594000D01*
X173600236Y-79633034D01*
X173578125Y-79666125D01*
X173545034Y-79688236D01*
X173506000Y-79696000D01*
X172306000Y-79696000D01*
X172266966Y-79688236D01*
X172233875Y-79666125D01*
X172211764Y-79633034D01*
X172204000Y-79594000D01*
X172204000Y-78394000D01*
X172211764Y-78354966D01*
X172233875Y-78321875D01*
X172266966Y-78299764D01*
X172306000Y-78292000D01*
X173506000Y-78292000D01*
X173545034Y-78299764D01*
G37*
G36*
X175645034Y-78299764D02*
G01*
X175678125Y-78321875D01*
X175700236Y-78354966D01*
X175708000Y-78394000D01*
X175708000Y-79594000D01*
X175700236Y-79633034D01*
X175678125Y-79666125D01*
X175645034Y-79688236D01*
X175606000Y-79696000D01*
X174406000Y-79696000D01*
X174366966Y-79688236D01*
X174333875Y-79666125D01*
X174311764Y-79633034D01*
X174304000Y-79594000D01*
X174304000Y-78394000D01*
X174311764Y-78354966D01*
X174333875Y-78321875D01*
X174366966Y-78299764D01*
X174406000Y-78292000D01*
X175606000Y-78292000D01*
X175645034Y-78299764D01*
G37*
G36*
X190055504Y-78299764D02*
G01*
X190088595Y-78321875D01*
X190110706Y-78354966D01*
X190118470Y-78394000D01*
X190118470Y-79594000D01*
X190110706Y-79633034D01*
X190088595Y-79666125D01*
X190055504Y-79688236D01*
X190016470Y-79696000D01*
X188816470Y-79696000D01*
X188777436Y-79688236D01*
X188744345Y-79666125D01*
X188722234Y-79633034D01*
X188714470Y-79594000D01*
X188714470Y-78394000D01*
X188722234Y-78354966D01*
X188744345Y-78321875D01*
X188777436Y-78299764D01*
X188816470Y-78292000D01*
X190016470Y-78292000D01*
X190055504Y-78299764D01*
G37*
G36*
X192155504Y-78299764D02*
G01*
X192188595Y-78321875D01*
X192210706Y-78354966D01*
X192218470Y-78394000D01*
X192218470Y-79594000D01*
X192210706Y-79633034D01*
X192188595Y-79666125D01*
X192155504Y-79688236D01*
X192116470Y-79696000D01*
X190916470Y-79696000D01*
X190877436Y-79688236D01*
X190844345Y-79666125D01*
X190822234Y-79633034D01*
X190814470Y-79594000D01*
X190814470Y-78394000D01*
X190822234Y-78354966D01*
X190844345Y-78321875D01*
X190877436Y-78299764D01*
X190916470Y-78292000D01*
X192116470Y-78292000D01*
X192155504Y-78299764D01*
G37*
G36*
X203538664Y-78299764D02*
G01*
X203571755Y-78321875D01*
X203593866Y-78354966D01*
X203601630Y-78394000D01*
X203601630Y-79594000D01*
X203593866Y-79633034D01*
X203571755Y-79666125D01*
X203538664Y-79688236D01*
X203499630Y-79696000D01*
X202299630Y-79696000D01*
X202260596Y-79688236D01*
X202227505Y-79666125D01*
X202205394Y-79633034D01*
X202197630Y-79594000D01*
X202197630Y-78394000D01*
X202205394Y-78354966D01*
X202227505Y-78321875D01*
X202260596Y-78299764D01*
X202299630Y-78292000D01*
X203499630Y-78292000D01*
X203538664Y-78299764D01*
G37*
G36*
X205638664Y-78299764D02*
G01*
X205671755Y-78321875D01*
X205693866Y-78354966D01*
X205701630Y-78394000D01*
X205701630Y-79594000D01*
X205693866Y-79633034D01*
X205671755Y-79666125D01*
X205638664Y-79688236D01*
X205599630Y-79696000D01*
X204399630Y-79696000D01*
X204360596Y-79688236D01*
X204327505Y-79666125D01*
X204305394Y-79633034D01*
X204297630Y-79594000D01*
X204297630Y-78394000D01*
X204305394Y-78354966D01*
X204327505Y-78321875D01*
X204360596Y-78299764D01*
X204399630Y-78292000D01*
X205599630Y-78292000D01*
X205638664Y-78299764D01*
G37*
G36*
X217127778Y-78299764D02*
G01*
X217160869Y-78321875D01*
X217182980Y-78354966D01*
X217190744Y-78394000D01*
X217190744Y-79594000D01*
X217182980Y-79633034D01*
X217160869Y-79666125D01*
X217127778Y-79688236D01*
X217088744Y-79696000D01*
X215888744Y-79696000D01*
X215849710Y-79688236D01*
X215816619Y-79666125D01*
X215794508Y-79633034D01*
X215786744Y-79594000D01*
X215786744Y-78394000D01*
X215794508Y-78354966D01*
X215816619Y-78321875D01*
X215849710Y-78299764D01*
X215888744Y-78292000D01*
X217088744Y-78292000D01*
X217127778Y-78299764D01*
G37*
G36*
X219227778Y-78299764D02*
G01*
X219260869Y-78321875D01*
X219282980Y-78354966D01*
X219290744Y-78394000D01*
X219290744Y-79594000D01*
X219282980Y-79633034D01*
X219260869Y-79666125D01*
X219227778Y-79688236D01*
X219188744Y-79696000D01*
X217988744Y-79696000D01*
X217949710Y-79688236D01*
X217916619Y-79666125D01*
X217894508Y-79633034D01*
X217886744Y-79594000D01*
X217886744Y-78394000D01*
X217894508Y-78354966D01*
X217916619Y-78321875D01*
X217949710Y-78299764D01*
X217988744Y-78292000D01*
X219188744Y-78292000D01*
X219227778Y-78299764D01*
G37*
G36*
X131070542Y-78458893D02*
G01*
X131082870Y-78467130D01*
X131091107Y-78479458D01*
X131094000Y-78494000D01*
X131094000Y-79494000D01*
X131091107Y-79508542D01*
X131082870Y-79520870D01*
X131070542Y-79529107D01*
X131056000Y-79532000D01*
X130056000Y-79532000D01*
X130041458Y-79529107D01*
X130029130Y-79520870D01*
X130020893Y-79508542D01*
X130018000Y-79494000D01*
X130018000Y-78494000D01*
X130020893Y-78479458D01*
X130029130Y-78467130D01*
X130041458Y-78458893D01*
X130056000Y-78456000D01*
X131056000Y-78456000D01*
X131070542Y-78458893D01*
G37*
G36*
X133102542Y-78458893D02*
G01*
X133114870Y-78467130D01*
X133123107Y-78479458D01*
X133126000Y-78494000D01*
X133126000Y-79494000D01*
X133123107Y-79508542D01*
X133114870Y-79520870D01*
X133102542Y-79529107D01*
X133088000Y-79532000D01*
X132088000Y-79532000D01*
X132073458Y-79529107D01*
X132061130Y-79520870D01*
X132052893Y-79508542D01*
X132050000Y-79494000D01*
X132050000Y-78494000D01*
X132052893Y-78479458D01*
X132061130Y-78467130D01*
X132073458Y-78458893D01*
X132088000Y-78456000D01*
X133088000Y-78456000D01*
X133102542Y-78458893D01*
G37*
G36*
X135134542Y-78458893D02*
G01*
X135146870Y-78467130D01*
X135155107Y-78479458D01*
X135158000Y-78494000D01*
X135158000Y-79494000D01*
X135155107Y-79508542D01*
X135146870Y-79520870D01*
X135134542Y-79529107D01*
X135120000Y-79532000D01*
X134120000Y-79532000D01*
X134105458Y-79529107D01*
X134093130Y-79520870D01*
X134084893Y-79508542D01*
X134082000Y-79494000D01*
X134082000Y-78494000D01*
X134084893Y-78479458D01*
X134093130Y-78467130D01*
X134105458Y-78458893D01*
X134120000Y-78456000D01*
X135120000Y-78456000D01*
X135134542Y-78458893D01*
G37*
G36*
X149358542Y-78458893D02*
G01*
X149370870Y-78467130D01*
X149379107Y-78479458D01*
X149382000Y-78494000D01*
X149382000Y-79494000D01*
X149379107Y-79508542D01*
X149370870Y-79520870D01*
X149358542Y-79529107D01*
X149344000Y-79532000D01*
X148344000Y-79532000D01*
X148329458Y-79529107D01*
X148317130Y-79520870D01*
X148308893Y-79508542D01*
X148306000Y-79494000D01*
X148306000Y-78494000D01*
X148308893Y-78479458D01*
X148317130Y-78467130D01*
X148329458Y-78458893D01*
X148344000Y-78456000D01*
X149344000Y-78456000D01*
X149358542Y-78458893D01*
G37*
G36*
X171456542Y-78458893D02*
G01*
X171468870Y-78467130D01*
X171477107Y-78479458D01*
X171480000Y-78494000D01*
X171480000Y-79494000D01*
X171477107Y-79508542D01*
X171468870Y-79520870D01*
X171456542Y-79529107D01*
X171442000Y-79532000D01*
X170442000Y-79532000D01*
X170427458Y-79529107D01*
X170415130Y-79520870D01*
X170406893Y-79508542D01*
X170404000Y-79494000D01*
X170404000Y-78494000D01*
X170406893Y-78479458D01*
X170415130Y-78467130D01*
X170427458Y-78458893D01*
X170442000Y-78456000D01*
X171442000Y-78456000D01*
X171456542Y-78458893D01*
G37*
G36*
X188053601Y-78458893D02*
G01*
X188065929Y-78467130D01*
X188074166Y-78479458D01*
X188077059Y-78494000D01*
X188077059Y-79494000D01*
X188074166Y-79508542D01*
X188065929Y-79520870D01*
X188053601Y-79529107D01*
X188039059Y-79532000D01*
X187039059Y-79532000D01*
X187024517Y-79529107D01*
X187012189Y-79520870D01*
X187003952Y-79508542D01*
X187001059Y-79494000D01*
X187001059Y-78494000D01*
X187003952Y-78479458D01*
X187012189Y-78467130D01*
X187024517Y-78458893D01*
X187039059Y-78456000D01*
X188039059Y-78456000D01*
X188053601Y-78458893D01*
G37*
G36*
X201514542Y-78458893D02*
G01*
X201526870Y-78467130D01*
X201535107Y-78479458D01*
X201538000Y-78494000D01*
X201538000Y-79494000D01*
X201535107Y-79508542D01*
X201526870Y-79520870D01*
X201514542Y-79529107D01*
X201500000Y-79532000D01*
X200500000Y-79532000D01*
X200485458Y-79529107D01*
X200473130Y-79520870D01*
X200464893Y-79508542D01*
X200462000Y-79494000D01*
X200462000Y-78494000D01*
X200464893Y-78479458D01*
X200473130Y-78467130D01*
X200485458Y-78458893D01*
X200500000Y-78456000D01*
X201500000Y-78456000D01*
X201514542Y-78458893D01*
G37*
G36*
X215114542Y-78458893D02*
G01*
X215126870Y-78467130D01*
X215135107Y-78479458D01*
X215138000Y-78494000D01*
X215138000Y-79494000D01*
X215135107Y-79508542D01*
X215126870Y-79520870D01*
X215114542Y-79529107D01*
X215100000Y-79532000D01*
X214100000Y-79532000D01*
X214085458Y-79529107D01*
X214073130Y-79520870D01*
X214064893Y-79508542D01*
X214062000Y-79494000D01*
X214062000Y-78494000D01*
X214064893Y-78479458D01*
X214073130Y-78467130D01*
X214085458Y-78458893D01*
X214100000Y-78456000D01*
X215100000Y-78456000D01*
X215114542Y-78458893D01*
G37*
M02*
