%TF.GenerationSoftware,KiCad,Pcbnew,8.0.3*%
%TF.CreationDate,2024-06-20T21:51:27+02:00*%
%TF.ProjectId,KIA-OBD2-DISPLAY,4b49412d-4f42-4443-922d-444953504c41,rev?*%
%TF.SameCoordinates,Original*%
%TF.FileFunction,Legend,Top*%
%TF.FilePolarity,Positive*%
%FSLAX46Y46*%
G04 Gerber Fmt 4.6, Leading zero omitted, Abs format (unit mm)*
G04 Created by KiCad (PCBNEW 8.0.3) date 2024-06-20 21:51:27*
%MOMM*%
%LPD*%
G01*
G04 APERTURE LIST*
G04 Aperture macros list*
%AMRoundRect*
0 Rectangle with rounded corners*
0 $1 Rounding radius*
0 $2 $3 $4 $5 $6 $7 $8 $9 X,Y pos of 4 corners*
0 Add a 4 corners polygon primitive as box body*
4,1,4,$2,$3,$4,$5,$6,$7,$8,$9,$2,$3,0*
0 Add four circle primitives for the rounded corners*
1,1,$1+$1,$2,$3*
1,1,$1+$1,$4,$5*
1,1,$1+$1,$6,$7*
1,1,$1+$1,$8,$9*
0 Add four rect primitives between the rounded corners*
20,1,$1+$1,$2,$3,$4,$5,0*
20,1,$1+$1,$4,$5,$6,$7,0*
20,1,$1+$1,$6,$7,$8,$9,0*
20,1,$1+$1,$8,$9,$2,$3,0*%
%AMFreePoly0*
4,1,14,0.751870,0.751870,0.763000,0.725000,0.763000,-0.725000,0.751870,-0.751870,0.725000,-0.763000,-0.725000,-0.763000,-0.751870,-0.751870,-0.763000,-0.725000,-0.763000,0.125000,-0.751870,0.151870,-0.151870,0.751870,-0.125000,0.763000,0.725000,0.763000,0.751870,0.751870,0.751870,0.751870,$1*%
%AMFreePoly1*
4,1,35,0.526870,0.776870,0.538000,0.750000,0.538000,-0.750000,0.526870,-0.776870,0.500000,-0.788000,0.000000,-0.788000,-0.012286,-0.782911,-0.071157,-0.782911,-0.081863,-0.781372,-0.218414,-0.741277,-0.228252,-0.736784,-0.347974,-0.659843,-0.356148,-0.652760,-0.449345,-0.545205,-0.455193,-0.536106,-0.514312,-0.406652,-0.517359,-0.396274,-0.537613,-0.255408,-0.538000,-0.250000,-0.538000,0.250000,
-0.537613,0.255408,-0.517359,0.396274,-0.514312,0.406652,-0.455193,0.536106,-0.449345,0.545205,-0.356148,0.652760,-0.347974,0.659843,-0.228252,0.736784,-0.218414,0.741277,-0.081863,0.781372,-0.071157,0.782911,-0.012286,0.782911,0.000000,0.788000,0.500000,0.788000,0.526870,0.776870,0.526870,0.776870,$1*%
%AMFreePoly2*
4,1,35,0.012286,0.782911,0.071157,0.782911,0.081863,0.781372,0.218414,0.741277,0.228252,0.736784,0.347974,0.659843,0.356148,0.652760,0.449345,0.545205,0.455193,0.536106,0.514312,0.406652,0.517359,0.396274,0.537613,0.255408,0.538000,0.250000,0.538000,-0.250000,0.537613,-0.255408,0.517359,-0.396274,0.514312,-0.406652,0.455193,-0.536106,0.449345,-0.545205,0.356148,-0.652760,
0.347974,-0.659843,0.228252,-0.736784,0.218414,-0.741277,0.081863,-0.781372,0.071157,-0.782911,0.012286,-0.782911,0.000000,-0.788000,-0.500000,-0.788000,-0.526870,-0.776870,-0.538000,-0.750000,-0.538000,0.750000,-0.526870,0.776870,-0.500000,0.788000,0.000000,0.788000,0.012286,0.782911,0.012286,0.782911,$1*%
G04 Aperture macros list end*
%ADD10C,0.150000*%
%ADD11C,0.100000*%
%ADD12C,0.127000*%
%ADD13C,0.200000*%
%ADD14C,0.120000*%
%ADD15C,0.203200*%
%ADD16RoundRect,0.102000X0.600000X0.600000X-0.600000X0.600000X-0.600000X-0.600000X0.600000X-0.600000X0*%
%ADD17C,1.600000*%
%ADD18RoundRect,0.268536X0.281964X0.469464X-0.281964X0.469464X-0.281964X-0.469464X0.281964X-0.469464X0*%
%ADD19RoundRect,0.119000X-0.656500X-0.119000X0.656500X-0.119000X0.656500X0.119000X-0.656500X0.119000X0*%
%ADD20RoundRect,0.268536X-0.469464X0.281964X-0.469464X-0.281964X0.469464X-0.281964X0.469464X0.281964X0*%
%ADD21RoundRect,0.038000X0.600000X-0.700000X0.600000X0.700000X-0.600000X0.700000X-0.600000X-0.700000X0*%
%ADD22RoundRect,0.262750X0.262750X0.475250X-0.262750X0.475250X-0.262750X-0.475250X0.262750X-0.475250X0*%
%ADD23RoundRect,0.269000X0.269000X0.494000X-0.269000X0.494000X-0.269000X-0.494000X0.269000X-0.494000X0*%
%ADD24RoundRect,0.244000X0.244000X0.269000X-0.244000X0.269000X-0.244000X-0.269000X0.244000X-0.269000X0*%
%ADD25RoundRect,0.269000X0.494000X-0.269000X0.494000X0.269000X-0.494000X0.269000X-0.494000X-0.269000X0*%
%ADD26RoundRect,0.038000X-0.500000X-0.500000X0.500000X-0.500000X0.500000X0.500000X-0.500000X0.500000X0*%
%ADD27RoundRect,0.102000X-0.650000X0.300000X-0.650000X-0.300000X0.650000X-0.300000X0.650000X0.300000X0*%
%ADD28RoundRect,0.244000X-0.244000X-0.269000X0.244000X-0.269000X0.244000X0.269000X-0.244000X0.269000X0*%
%ADD29RoundRect,0.014220X0.492780X0.222780X-0.492780X0.222780X-0.492780X-0.222780X0.492780X-0.222780X0*%
%ADD30RoundRect,0.014220X-0.222780X0.492780X-0.222780X-0.492780X0.222780X-0.492780X0.222780X0.492780X0*%
%ADD31RoundRect,0.014220X-0.492780X-0.222780X0.492780X-0.222780X0.492780X0.222780X-0.492780X0.222780X0*%
%ADD32RoundRect,0.014220X0.222780X-0.492780X0.222780X0.492780X-0.222780X0.492780X-0.222780X-0.492780X0*%
%ADD33RoundRect,0.102000X1.350000X-1.350000X1.350000X1.350000X-1.350000X1.350000X-1.350000X-1.350000X0*%
%ADD34RoundRect,0.038000X-0.200000X-0.400000X0.200000X-0.400000X0.200000X0.400000X-0.200000X0.400000X0*%
%ADD35RoundRect,0.038000X-0.400000X0.200000X-0.400000X-0.200000X0.400000X-0.200000X0.400000X0.200000X0*%
%ADD36FreePoly0,270.000000*%
%ADD37RoundRect,0.038000X-0.725000X-0.725000X0.725000X-0.725000X0.725000X0.725000X-0.725000X0.725000X0*%
%ADD38RoundRect,0.038000X-0.350000X-0.350000X0.350000X-0.350000X0.350000X0.350000X-0.350000X0.350000X0*%
%ADD39RoundRect,0.266521X-0.346479X-0.671479X0.346479X-0.671479X0.346479X0.671479X-0.346479X0.671479X0*%
%ADD40RoundRect,0.268536X-0.281964X-0.469464X0.281964X-0.469464X0.281964X0.469464X-0.281964X0.469464X0*%
%ADD41RoundRect,0.169000X0.169000X0.219000X-0.169000X0.219000X-0.169000X-0.219000X0.169000X-0.219000X0*%
%ADD42RoundRect,0.244000X-0.269000X0.244000X-0.269000X-0.244000X0.269000X-0.244000X0.269000X0.244000X0*%
%ADD43RoundRect,0.269000X-0.269000X-0.494000X0.269000X-0.494000X0.269000X0.494000X-0.269000X0.494000X0*%
%ADD44RoundRect,0.266521X0.346479X0.671479X-0.346479X0.671479X-0.346479X-0.671479X0.346479X-0.671479X0*%
%ADD45RoundRect,0.244000X-0.244000X-0.394000X0.244000X-0.394000X0.244000X0.394000X-0.244000X0.394000X0*%
%ADD46RoundRect,0.169000X-0.219000X0.169000X-0.219000X-0.169000X0.219000X-0.169000X0.219000X0.169000X0*%
%ADD47C,0.776000*%
%ADD48O,0.976000X2.476000*%
%ADD49O,0.976000X1.776000*%
%ADD50RoundRect,0.268536X0.469464X-0.281964X0.469464X0.281964X-0.469464X0.281964X-0.469464X-0.281964X0*%
%ADD51RoundRect,0.038000X-2.120000X-1.905000X2.120000X-1.905000X2.120000X1.905000X-2.120000X1.905000X0*%
%ADD52RoundRect,0.169000X0.219000X-0.169000X0.219000X0.169000X-0.219000X0.169000X-0.219000X-0.169000X0*%
%ADD53RoundRect,0.131500X0.256500X-0.131500X0.256500X0.131500X-0.256500X0.131500X-0.256500X-0.131500X0*%
%ADD54RoundRect,0.102000X0.225000X0.350000X-0.225000X0.350000X-0.225000X-0.350000X0.225000X-0.350000X0*%
%ADD55RoundRect,0.102000X0.475000X0.700000X-0.475000X0.700000X-0.475000X-0.700000X0.475000X-0.700000X0*%
%ADD56RoundRect,0.102000X0.650000X0.700000X-0.650000X0.700000X-0.650000X-0.700000X0.650000X-0.700000X0*%
%ADD57RoundRect,0.102000X0.200000X0.600000X-0.200000X0.600000X-0.200000X-0.600000X0.200000X-0.600000X0*%
%ADD58RoundRect,0.102000X0.650000X0.500000X-0.650000X0.500000X-0.650000X-0.500000X0.650000X-0.500000X0*%
%ADD59RoundRect,0.102000X0.700000X0.200000X-0.700000X0.200000X-0.700000X-0.200000X0.700000X-0.200000X0*%
%ADD60FreePoly1,0.000000*%
%ADD61FreePoly2,0.000000*%
%ADD62RoundRect,0.038000X0.500000X0.500000X-0.500000X0.500000X-0.500000X-0.500000X0.500000X-0.500000X0*%
G04 APERTURE END LIST*
D10*
X169613238Y-59429657D02*
X170232285Y-59428748D01*
X170232285Y-59428748D02*
X169899511Y-59810190D01*
X169899511Y-59810190D02*
X170042368Y-59809980D01*
X170042368Y-59809980D02*
X170137676Y-59857459D01*
X170137676Y-59857459D02*
X170185365Y-59905008D01*
X170185365Y-59905008D02*
X170233123Y-60000176D01*
X170233123Y-60000176D02*
X170233473Y-60238271D01*
X170233473Y-60238271D02*
X170185994Y-60333579D01*
X170185994Y-60333579D02*
X170138445Y-60381268D01*
X170138445Y-60381268D02*
X170043276Y-60429027D01*
X170043276Y-60429027D02*
X169757562Y-60429446D01*
X169757562Y-60429446D02*
X169662255Y-60381967D01*
X169662255Y-60381967D02*
X169614566Y-60334418D01*
X170709942Y-60428048D02*
X170900418Y-60427769D01*
X170900418Y-60427769D02*
X170995586Y-60380010D01*
X170995586Y-60380010D02*
X171043136Y-60332321D01*
X171043136Y-60332321D02*
X171138164Y-60189325D01*
X171138164Y-60189325D02*
X171185503Y-59998779D01*
X171185503Y-59998779D02*
X171184944Y-59617827D01*
X171184944Y-59617827D02*
X171137186Y-59522659D01*
X171137186Y-59522659D02*
X171089497Y-59475109D01*
X171089497Y-59475109D02*
X170994189Y-59427630D01*
X170994189Y-59427630D02*
X170803713Y-59427910D01*
X170803713Y-59427910D02*
X170708545Y-59475669D01*
X170708545Y-59475669D02*
X170660996Y-59523357D01*
X170660996Y-59523357D02*
X170613516Y-59618665D01*
X170613516Y-59618665D02*
X170613866Y-59856760D01*
X170613866Y-59856760D02*
X170661625Y-59951928D01*
X170661625Y-59951928D02*
X170709313Y-59999477D01*
X170709313Y-59999477D02*
X170804621Y-60046957D01*
X170804621Y-60046957D02*
X170995097Y-60046677D01*
X170995097Y-60046677D02*
X171090265Y-59998918D01*
X171090265Y-59998918D02*
X171137815Y-59951230D01*
X171137815Y-59951230D02*
X171185294Y-59855922D01*
X171517998Y-59426862D02*
X172137045Y-59425953D01*
X172137045Y-59425953D02*
X171804271Y-59807394D01*
X171804271Y-59807394D02*
X171947128Y-59807185D01*
X171947128Y-59807185D02*
X172042436Y-59854664D01*
X172042436Y-59854664D02*
X172090125Y-59902213D01*
X172090125Y-59902213D02*
X172137883Y-59997381D01*
X172137883Y-59997381D02*
X172138233Y-60235476D01*
X172138233Y-60235476D02*
X172090754Y-60330784D01*
X172090754Y-60330784D02*
X172043204Y-60378473D01*
X172043204Y-60378473D02*
X171948036Y-60426231D01*
X171948036Y-60426231D02*
X171662322Y-60426651D01*
X171662322Y-60426651D02*
X171567014Y-60379172D01*
X171567014Y-60379172D02*
X171519326Y-60331622D01*
X173090892Y-60424554D02*
X172519464Y-60425393D01*
X172805178Y-60424974D02*
X172803711Y-59424975D01*
X172803711Y-59424975D02*
X172708682Y-59567971D01*
X172708682Y-59567971D02*
X172613584Y-59663349D01*
X172613584Y-59663349D02*
X172518416Y-59711108D01*
X173519324Y-60328687D02*
X173567012Y-60376236D01*
X173567012Y-60376236D02*
X173519463Y-60423925D01*
X173519463Y-60423925D02*
X173471774Y-60376376D01*
X173471774Y-60376376D02*
X173519324Y-60328687D01*
X173519324Y-60328687D02*
X173519463Y-60423925D01*
X173898947Y-59423367D02*
X174565613Y-59422389D01*
X174565613Y-59422389D02*
X174138510Y-60423017D01*
X174995652Y-60421759D02*
X175186128Y-60421479D01*
X175186128Y-60421479D02*
X175281296Y-60373721D01*
X175281296Y-60373721D02*
X175328845Y-60326032D01*
X175328845Y-60326032D02*
X175423873Y-60183035D01*
X175423873Y-60183035D02*
X175471213Y-59992489D01*
X175471213Y-59992489D02*
X175470654Y-59611537D01*
X175470654Y-59611537D02*
X175422895Y-59516369D01*
X175422895Y-59516369D02*
X175375206Y-59468820D01*
X175375206Y-59468820D02*
X175279898Y-59421341D01*
X175279898Y-59421341D02*
X175089422Y-59421620D01*
X175089422Y-59421620D02*
X174994254Y-59469379D01*
X174994254Y-59469379D02*
X174946705Y-59517068D01*
X174946705Y-59517068D02*
X174899226Y-59612376D01*
X174899226Y-59612376D02*
X174899575Y-59850471D01*
X174899575Y-59850471D02*
X174947334Y-59945639D01*
X174947334Y-59945639D02*
X174995023Y-59993188D01*
X174995023Y-59993188D02*
X175090331Y-60040667D01*
X175090331Y-60040667D02*
X175280807Y-60040388D01*
X175280807Y-60040388D02*
X175375975Y-59992629D01*
X175375975Y-59992629D02*
X175423524Y-59944940D01*
X175423524Y-59944940D02*
X175471003Y-59849632D01*
X176375135Y-59419733D02*
X175898945Y-59420432D01*
X175898945Y-59420432D02*
X175852025Y-59896692D01*
X175852025Y-59896692D02*
X175899574Y-59849003D01*
X175899574Y-59849003D02*
X175994742Y-59801244D01*
X175994742Y-59801244D02*
X176232837Y-59800895D01*
X176232837Y-59800895D02*
X176328145Y-59848374D01*
X176328145Y-59848374D02*
X176375834Y-59895923D01*
X176375834Y-59895923D02*
X176423593Y-59991091D01*
X176423593Y-59991091D02*
X176423942Y-60229186D01*
X176423942Y-60229186D02*
X176376463Y-60324494D01*
X176376463Y-60324494D02*
X176328914Y-60372183D01*
X176328914Y-60372183D02*
X176233746Y-60419942D01*
X176233746Y-60419942D02*
X175995651Y-60420291D01*
X175995651Y-60420291D02*
X175900343Y-60372812D01*
X175900343Y-60372812D02*
X175852654Y-60325263D01*
X176803846Y-59514342D02*
X176851395Y-59466653D01*
X176851395Y-59466653D02*
X176946563Y-59418895D01*
X176946563Y-59418895D02*
X177184658Y-59418545D01*
X177184658Y-59418545D02*
X177279966Y-59466025D01*
X177279966Y-59466025D02*
X177327655Y-59513574D01*
X177327655Y-59513574D02*
X177375414Y-59608742D01*
X177375414Y-59608742D02*
X177375553Y-59703980D01*
X177375553Y-59703980D02*
X177328144Y-59846907D01*
X177328144Y-59846907D02*
X176757555Y-60419173D01*
X176757555Y-60419173D02*
X177376602Y-60418265D01*
X178567077Y-60416518D02*
X178566099Y-59749852D01*
X178566238Y-59845090D02*
X178613787Y-59797401D01*
X178613787Y-59797401D02*
X178708955Y-59749642D01*
X178708955Y-59749642D02*
X178851812Y-59749432D01*
X178851812Y-59749432D02*
X178947120Y-59796912D01*
X178947120Y-59796912D02*
X178994879Y-59892080D01*
X178994879Y-59892080D02*
X178995648Y-60415889D01*
X178994879Y-59892080D02*
X179042358Y-59796772D01*
X179042358Y-59796772D02*
X179137526Y-59749013D01*
X179137526Y-59749013D02*
X179280383Y-59748803D01*
X179280383Y-59748803D02*
X179375691Y-59796283D01*
X179375691Y-59796283D02*
X179423450Y-59891451D01*
X179423450Y-59891451D02*
X179424219Y-60415260D01*
X179900408Y-60414561D02*
X179899430Y-59747895D01*
X179898941Y-59414562D02*
X179851392Y-59462251D01*
X179851392Y-59462251D02*
X179899081Y-59509800D01*
X179899081Y-59509800D02*
X179946630Y-59462111D01*
X179946630Y-59462111D02*
X179898941Y-59414562D01*
X179898941Y-59414562D02*
X179899081Y-59509800D01*
X180519455Y-60413652D02*
X180424147Y-60366173D01*
X180424147Y-60366173D02*
X180376388Y-60271005D01*
X180376388Y-60271005D02*
X180375130Y-59413863D01*
X180852718Y-60365544D02*
X180948026Y-60413023D01*
X180948026Y-60413023D02*
X181138502Y-60412744D01*
X181138502Y-60412744D02*
X181233670Y-60364985D01*
X181233670Y-60364985D02*
X181281150Y-60269677D01*
X181281150Y-60269677D02*
X181281080Y-60222058D01*
X181281080Y-60222058D02*
X181233321Y-60126890D01*
X181233321Y-60126890D02*
X181138013Y-60079411D01*
X181138013Y-60079411D02*
X180995156Y-60079621D01*
X180995156Y-60079621D02*
X180899848Y-60032141D01*
X180899848Y-60032141D02*
X180852090Y-59936973D01*
X180852090Y-59936973D02*
X180852020Y-59889354D01*
X180852020Y-59889354D02*
X180899499Y-59794046D01*
X180899499Y-59794046D02*
X180994667Y-59746288D01*
X180994667Y-59746288D02*
X181137524Y-59746078D01*
X181137524Y-59746078D02*
X181232832Y-59793557D01*
X225430756Y-77497440D02*
X225405748Y-60456541D01*
X125563266Y-77644001D02*
X125538258Y-60603102D01*
X225406608Y-61042960D02*
X125539118Y-61189521D01*
X225406608Y-61042960D02*
X125539118Y-61189521D01*
X225406608Y-61042960D02*
X224280966Y-61631033D01*
X225406608Y-61042960D02*
X224279245Y-60458193D01*
X125539118Y-61189521D02*
X126664760Y-60601448D01*
X125539118Y-61189521D02*
X126666481Y-61774288D01*
X203819856Y-97062276D02*
X203819856Y-96422276D01*
X203819856Y-96422276D02*
X203972237Y-96422276D01*
X203972237Y-96422276D02*
X204063666Y-96452752D01*
X204063666Y-96452752D02*
X204124618Y-96513704D01*
X204124618Y-96513704D02*
X204155095Y-96574657D01*
X204155095Y-96574657D02*
X204185571Y-96696561D01*
X204185571Y-96696561D02*
X204185571Y-96787990D01*
X204185571Y-96787990D02*
X204155095Y-96909895D01*
X204155095Y-96909895D02*
X204124618Y-96970847D01*
X204124618Y-96970847D02*
X204063666Y-97031800D01*
X204063666Y-97031800D02*
X203972237Y-97062276D01*
X203972237Y-97062276D02*
X203819856Y-97062276D01*
X204795095Y-97062276D02*
X204429380Y-97062276D01*
X204612237Y-97062276D02*
X204612237Y-96422276D01*
X204612237Y-96422276D02*
X204551285Y-96513704D01*
X204551285Y-96513704D02*
X204490333Y-96574657D01*
X204490333Y-96574657D02*
X204429380Y-96605133D01*
X205343666Y-96635609D02*
X205343666Y-97062276D01*
X205191285Y-96391800D02*
X205038904Y-96848942D01*
X205038904Y-96848942D02*
X205435095Y-96848942D01*
X152092819Y-84494666D02*
X151616628Y-84827999D01*
X152092819Y-85066094D02*
X151092819Y-85066094D01*
X151092819Y-85066094D02*
X151092819Y-84685142D01*
X151092819Y-84685142D02*
X151140438Y-84589904D01*
X151140438Y-84589904D02*
X151188057Y-84542285D01*
X151188057Y-84542285D02*
X151283295Y-84494666D01*
X151283295Y-84494666D02*
X151426152Y-84494666D01*
X151426152Y-84494666D02*
X151521390Y-84542285D01*
X151521390Y-84542285D02*
X151569009Y-84589904D01*
X151569009Y-84589904D02*
X151616628Y-84685142D01*
X151616628Y-84685142D02*
X151616628Y-85066094D01*
X151092819Y-83637523D02*
X151092819Y-83827999D01*
X151092819Y-83827999D02*
X151140438Y-83923237D01*
X151140438Y-83923237D02*
X151188057Y-83970856D01*
X151188057Y-83970856D02*
X151330914Y-84066094D01*
X151330914Y-84066094D02*
X151521390Y-84113713D01*
X151521390Y-84113713D02*
X151902342Y-84113713D01*
X151902342Y-84113713D02*
X151997580Y-84066094D01*
X151997580Y-84066094D02*
X152045200Y-84018475D01*
X152045200Y-84018475D02*
X152092819Y-83923237D01*
X152092819Y-83923237D02*
X152092819Y-83732761D01*
X152092819Y-83732761D02*
X152045200Y-83637523D01*
X152045200Y-83637523D02*
X151997580Y-83589904D01*
X151997580Y-83589904D02*
X151902342Y-83542285D01*
X151902342Y-83542285D02*
X151664247Y-83542285D01*
X151664247Y-83542285D02*
X151569009Y-83589904D01*
X151569009Y-83589904D02*
X151521390Y-83637523D01*
X151521390Y-83637523D02*
X151473771Y-83732761D01*
X151473771Y-83732761D02*
X151473771Y-83923237D01*
X151473771Y-83923237D02*
X151521390Y-84018475D01*
X151521390Y-84018475D02*
X151569009Y-84066094D01*
X151569009Y-84066094D02*
X151664247Y-84113713D01*
X172751905Y-90640819D02*
X172751905Y-91450342D01*
X172751905Y-91450342D02*
X172799524Y-91545580D01*
X172799524Y-91545580D02*
X172847143Y-91593200D01*
X172847143Y-91593200D02*
X172942381Y-91640819D01*
X172942381Y-91640819D02*
X173132857Y-91640819D01*
X173132857Y-91640819D02*
X173228095Y-91593200D01*
X173228095Y-91593200D02*
X173275714Y-91545580D01*
X173275714Y-91545580D02*
X173323333Y-91450342D01*
X173323333Y-91450342D02*
X173323333Y-90640819D01*
X174323333Y-91640819D02*
X173751905Y-91640819D01*
X174037619Y-91640819D02*
X174037619Y-90640819D01*
X174037619Y-90640819D02*
X173942381Y-90783676D01*
X173942381Y-90783676D02*
X173847143Y-90878914D01*
X173847143Y-90878914D02*
X173751905Y-90926533D01*
X174942381Y-90640819D02*
X175037619Y-90640819D01*
X175037619Y-90640819D02*
X175132857Y-90688438D01*
X175132857Y-90688438D02*
X175180476Y-90736057D01*
X175180476Y-90736057D02*
X175228095Y-90831295D01*
X175228095Y-90831295D02*
X175275714Y-91021771D01*
X175275714Y-91021771D02*
X175275714Y-91259866D01*
X175275714Y-91259866D02*
X175228095Y-91450342D01*
X175228095Y-91450342D02*
X175180476Y-91545580D01*
X175180476Y-91545580D02*
X175132857Y-91593200D01*
X175132857Y-91593200D02*
X175037619Y-91640819D01*
X175037619Y-91640819D02*
X174942381Y-91640819D01*
X174942381Y-91640819D02*
X174847143Y-91593200D01*
X174847143Y-91593200D02*
X174799524Y-91545580D01*
X174799524Y-91545580D02*
X174751905Y-91450342D01*
X174751905Y-91450342D02*
X174704286Y-91259866D01*
X174704286Y-91259866D02*
X174704286Y-91021771D01*
X174704286Y-91021771D02*
X174751905Y-90831295D01*
X174751905Y-90831295D02*
X174799524Y-90736057D01*
X174799524Y-90736057D02*
X174847143Y-90688438D01*
X174847143Y-90688438D02*
X174942381Y-90640819D01*
X176815809Y-93450628D02*
X176815809Y-93926819D01*
X176482476Y-92926819D02*
X176815809Y-93450628D01*
X176815809Y-93450628D02*
X177149142Y-92926819D01*
X178006285Y-93926819D02*
X177434857Y-93926819D01*
X177720571Y-93926819D02*
X177720571Y-92926819D01*
X177720571Y-92926819D02*
X177625333Y-93069676D01*
X177625333Y-93069676D02*
X177530095Y-93164914D01*
X177530095Y-93164914D02*
X177434857Y-93212533D01*
X132021025Y-82606501D02*
X132021025Y-81606501D01*
X132021025Y-81606501D02*
X132259120Y-81606501D01*
X132259120Y-81606501D02*
X132401977Y-81654120D01*
X132401977Y-81654120D02*
X132497215Y-81749358D01*
X132497215Y-81749358D02*
X132544834Y-81844596D01*
X132544834Y-81844596D02*
X132592453Y-82035072D01*
X132592453Y-82035072D02*
X132592453Y-82177929D01*
X132592453Y-82177929D02*
X132544834Y-82368405D01*
X132544834Y-82368405D02*
X132497215Y-82463643D01*
X132497215Y-82463643D02*
X132401977Y-82558882D01*
X132401977Y-82558882D02*
X132259120Y-82606501D01*
X132259120Y-82606501D02*
X132021025Y-82606501D01*
X133068644Y-82606501D02*
X133259120Y-82606501D01*
X133259120Y-82606501D02*
X133354358Y-82558882D01*
X133354358Y-82558882D02*
X133401977Y-82511262D01*
X133401977Y-82511262D02*
X133497215Y-82368405D01*
X133497215Y-82368405D02*
X133544834Y-82177929D01*
X133544834Y-82177929D02*
X133544834Y-81796977D01*
X133544834Y-81796977D02*
X133497215Y-81701739D01*
X133497215Y-81701739D02*
X133449596Y-81654120D01*
X133449596Y-81654120D02*
X133354358Y-81606501D01*
X133354358Y-81606501D02*
X133163882Y-81606501D01*
X133163882Y-81606501D02*
X133068644Y-81654120D01*
X133068644Y-81654120D02*
X133021025Y-81701739D01*
X133021025Y-81701739D02*
X132973406Y-81796977D01*
X132973406Y-81796977D02*
X132973406Y-82035072D01*
X132973406Y-82035072D02*
X133021025Y-82130310D01*
X133021025Y-82130310D02*
X133068644Y-82177929D01*
X133068644Y-82177929D02*
X133163882Y-82225548D01*
X133163882Y-82225548D02*
X133354358Y-82225548D01*
X133354358Y-82225548D02*
X133449596Y-82177929D01*
X133449596Y-82177929D02*
X133497215Y-82130310D01*
X133497215Y-82130310D02*
X133544834Y-82035072D01*
X184308905Y-90640819D02*
X184308905Y-91450342D01*
X184308905Y-91450342D02*
X184356524Y-91545580D01*
X184356524Y-91545580D02*
X184404143Y-91593200D01*
X184404143Y-91593200D02*
X184499381Y-91640819D01*
X184499381Y-91640819D02*
X184689857Y-91640819D01*
X184689857Y-91640819D02*
X184785095Y-91593200D01*
X184785095Y-91593200D02*
X184832714Y-91545580D01*
X184832714Y-91545580D02*
X184880333Y-91450342D01*
X184880333Y-91450342D02*
X184880333Y-90640819D01*
X185880333Y-91640819D02*
X185308905Y-91640819D01*
X185594619Y-91640819D02*
X185594619Y-90640819D01*
X185594619Y-90640819D02*
X185499381Y-90783676D01*
X185499381Y-90783676D02*
X185404143Y-90878914D01*
X185404143Y-90878914D02*
X185308905Y-90926533D01*
X186832714Y-91640819D02*
X186261286Y-91640819D01*
X186547000Y-91640819D02*
X186547000Y-90640819D01*
X186547000Y-90640819D02*
X186451762Y-90783676D01*
X186451762Y-90783676D02*
X186356524Y-90878914D01*
X186356524Y-90878914D02*
X186261286Y-90926533D01*
X163808580Y-85383666D02*
X163856200Y-85431285D01*
X163856200Y-85431285D02*
X163903819Y-85574142D01*
X163903819Y-85574142D02*
X163903819Y-85669380D01*
X163903819Y-85669380D02*
X163856200Y-85812237D01*
X163856200Y-85812237D02*
X163760961Y-85907475D01*
X163760961Y-85907475D02*
X163665723Y-85955094D01*
X163665723Y-85955094D02*
X163475247Y-86002713D01*
X163475247Y-86002713D02*
X163332390Y-86002713D01*
X163332390Y-86002713D02*
X163141914Y-85955094D01*
X163141914Y-85955094D02*
X163046676Y-85907475D01*
X163046676Y-85907475D02*
X162951438Y-85812237D01*
X162951438Y-85812237D02*
X162903819Y-85669380D01*
X162903819Y-85669380D02*
X162903819Y-85574142D01*
X162903819Y-85574142D02*
X162951438Y-85431285D01*
X162951438Y-85431285D02*
X162999057Y-85383666D01*
X163903819Y-84431285D02*
X163903819Y-85002713D01*
X163903819Y-84716999D02*
X162903819Y-84716999D01*
X162903819Y-84716999D02*
X163046676Y-84812237D01*
X163046676Y-84812237D02*
X163141914Y-84907475D01*
X163141914Y-84907475D02*
X163189533Y-85002713D01*
X152092819Y-90336666D02*
X151616628Y-90669999D01*
X152092819Y-90908094D02*
X151092819Y-90908094D01*
X151092819Y-90908094D02*
X151092819Y-90527142D01*
X151092819Y-90527142D02*
X151140438Y-90431904D01*
X151140438Y-90431904D02*
X151188057Y-90384285D01*
X151188057Y-90384285D02*
X151283295Y-90336666D01*
X151283295Y-90336666D02*
X151426152Y-90336666D01*
X151426152Y-90336666D02*
X151521390Y-90384285D01*
X151521390Y-90384285D02*
X151569009Y-90431904D01*
X151569009Y-90431904D02*
X151616628Y-90527142D01*
X151616628Y-90527142D02*
X151616628Y-90908094D01*
X151092819Y-90003332D02*
X151092819Y-89384285D01*
X151092819Y-89384285D02*
X151473771Y-89717618D01*
X151473771Y-89717618D02*
X151473771Y-89574761D01*
X151473771Y-89574761D02*
X151521390Y-89479523D01*
X151521390Y-89479523D02*
X151569009Y-89431904D01*
X151569009Y-89431904D02*
X151664247Y-89384285D01*
X151664247Y-89384285D02*
X151902342Y-89384285D01*
X151902342Y-89384285D02*
X151997580Y-89431904D01*
X151997580Y-89431904D02*
X152045200Y-89479523D01*
X152045200Y-89479523D02*
X152092819Y-89574761D01*
X152092819Y-89574761D02*
X152092819Y-89860475D01*
X152092819Y-89860475D02*
X152045200Y-89955713D01*
X152045200Y-89955713D02*
X151997580Y-90003332D01*
X215085333Y-96658580D02*
X215037714Y-96706200D01*
X215037714Y-96706200D02*
X214894857Y-96753819D01*
X214894857Y-96753819D02*
X214799619Y-96753819D01*
X214799619Y-96753819D02*
X214656762Y-96706200D01*
X214656762Y-96706200D02*
X214561524Y-96610961D01*
X214561524Y-96610961D02*
X214513905Y-96515723D01*
X214513905Y-96515723D02*
X214466286Y-96325247D01*
X214466286Y-96325247D02*
X214466286Y-96182390D01*
X214466286Y-96182390D02*
X214513905Y-95991914D01*
X214513905Y-95991914D02*
X214561524Y-95896676D01*
X214561524Y-95896676D02*
X214656762Y-95801438D01*
X214656762Y-95801438D02*
X214799619Y-95753819D01*
X214799619Y-95753819D02*
X214894857Y-95753819D01*
X214894857Y-95753819D02*
X215037714Y-95801438D01*
X215037714Y-95801438D02*
X215085333Y-95849057D01*
X215990095Y-95753819D02*
X215513905Y-95753819D01*
X215513905Y-95753819D02*
X215466286Y-96230009D01*
X215466286Y-96230009D02*
X215513905Y-96182390D01*
X215513905Y-96182390D02*
X215609143Y-96134771D01*
X215609143Y-96134771D02*
X215847238Y-96134771D01*
X215847238Y-96134771D02*
X215942476Y-96182390D01*
X215942476Y-96182390D02*
X215990095Y-96230009D01*
X215990095Y-96230009D02*
X216037714Y-96325247D01*
X216037714Y-96325247D02*
X216037714Y-96563342D01*
X216037714Y-96563342D02*
X215990095Y-96658580D01*
X215990095Y-96658580D02*
X215942476Y-96706200D01*
X215942476Y-96706200D02*
X215847238Y-96753819D01*
X215847238Y-96753819D02*
X215609143Y-96753819D01*
X215609143Y-96753819D02*
X215513905Y-96706200D01*
X215513905Y-96706200D02*
X215466286Y-96658580D01*
X152092819Y-88304666D02*
X151616628Y-88637999D01*
X152092819Y-88876094D02*
X151092819Y-88876094D01*
X151092819Y-88876094D02*
X151092819Y-88495142D01*
X151092819Y-88495142D02*
X151140438Y-88399904D01*
X151140438Y-88399904D02*
X151188057Y-88352285D01*
X151188057Y-88352285D02*
X151283295Y-88304666D01*
X151283295Y-88304666D02*
X151426152Y-88304666D01*
X151426152Y-88304666D02*
X151521390Y-88352285D01*
X151521390Y-88352285D02*
X151569009Y-88399904D01*
X151569009Y-88399904D02*
X151616628Y-88495142D01*
X151616628Y-88495142D02*
X151616628Y-88876094D01*
X151426152Y-87447523D02*
X152092819Y-87447523D01*
X151045200Y-87685618D02*
X151759485Y-87923713D01*
X151759485Y-87923713D02*
X151759485Y-87304666D01*
X129645580Y-91955857D02*
X129693200Y-92003476D01*
X129693200Y-92003476D02*
X129740819Y-92146333D01*
X129740819Y-92146333D02*
X129740819Y-92241571D01*
X129740819Y-92241571D02*
X129693200Y-92384428D01*
X129693200Y-92384428D02*
X129597961Y-92479666D01*
X129597961Y-92479666D02*
X129502723Y-92527285D01*
X129502723Y-92527285D02*
X129312247Y-92574904D01*
X129312247Y-92574904D02*
X129169390Y-92574904D01*
X129169390Y-92574904D02*
X128978914Y-92527285D01*
X128978914Y-92527285D02*
X128883676Y-92479666D01*
X128883676Y-92479666D02*
X128788438Y-92384428D01*
X128788438Y-92384428D02*
X128740819Y-92241571D01*
X128740819Y-92241571D02*
X128740819Y-92146333D01*
X128740819Y-92146333D02*
X128788438Y-92003476D01*
X128788438Y-92003476D02*
X128836057Y-91955857D01*
X129740819Y-91003476D02*
X129740819Y-91574904D01*
X129740819Y-91289190D02*
X128740819Y-91289190D01*
X128740819Y-91289190D02*
X128883676Y-91384428D01*
X128883676Y-91384428D02*
X128978914Y-91479666D01*
X128978914Y-91479666D02*
X129026533Y-91574904D01*
X128740819Y-90670142D02*
X128740819Y-90051095D01*
X128740819Y-90051095D02*
X129121771Y-90384428D01*
X129121771Y-90384428D02*
X129121771Y-90241571D01*
X129121771Y-90241571D02*
X129169390Y-90146333D01*
X129169390Y-90146333D02*
X129217009Y-90098714D01*
X129217009Y-90098714D02*
X129312247Y-90051095D01*
X129312247Y-90051095D02*
X129550342Y-90051095D01*
X129550342Y-90051095D02*
X129645580Y-90098714D01*
X129645580Y-90098714D02*
X129693200Y-90146333D01*
X129693200Y-90146333D02*
X129740819Y-90241571D01*
X129740819Y-90241571D02*
X129740819Y-90527285D01*
X129740819Y-90527285D02*
X129693200Y-90622523D01*
X129693200Y-90622523D02*
X129645580Y-90670142D01*
X130645819Y-89582523D02*
X131360104Y-89582523D01*
X131360104Y-89582523D02*
X131502961Y-89630142D01*
X131502961Y-89630142D02*
X131598200Y-89725380D01*
X131598200Y-89725380D02*
X131645819Y-89868237D01*
X131645819Y-89868237D02*
X131645819Y-89963475D01*
X131645819Y-88582523D02*
X131645819Y-89153951D01*
X131645819Y-88868237D02*
X130645819Y-88868237D01*
X130645819Y-88868237D02*
X130788676Y-88963475D01*
X130788676Y-88963475D02*
X130883914Y-89058713D01*
X130883914Y-89058713D02*
X130931533Y-89153951D01*
X130979152Y-87725380D02*
X131645819Y-87725380D01*
X130598200Y-87963475D02*
X131312485Y-88201570D01*
X131312485Y-88201570D02*
X131312485Y-87582523D01*
X137868819Y-83496857D02*
X137392628Y-83830190D01*
X137868819Y-84068285D02*
X136868819Y-84068285D01*
X136868819Y-84068285D02*
X136868819Y-83687333D01*
X136868819Y-83687333D02*
X136916438Y-83592095D01*
X136916438Y-83592095D02*
X136964057Y-83544476D01*
X136964057Y-83544476D02*
X137059295Y-83496857D01*
X137059295Y-83496857D02*
X137202152Y-83496857D01*
X137202152Y-83496857D02*
X137297390Y-83544476D01*
X137297390Y-83544476D02*
X137345009Y-83592095D01*
X137345009Y-83592095D02*
X137392628Y-83687333D01*
X137392628Y-83687333D02*
X137392628Y-84068285D01*
X137868819Y-82544476D02*
X137868819Y-83115904D01*
X137868819Y-82830190D02*
X136868819Y-82830190D01*
X136868819Y-82830190D02*
X137011676Y-82925428D01*
X137011676Y-82925428D02*
X137106914Y-83020666D01*
X137106914Y-83020666D02*
X137154533Y-83115904D01*
X136868819Y-81925428D02*
X136868819Y-81830190D01*
X136868819Y-81830190D02*
X136916438Y-81734952D01*
X136916438Y-81734952D02*
X136964057Y-81687333D01*
X136964057Y-81687333D02*
X137059295Y-81639714D01*
X137059295Y-81639714D02*
X137249771Y-81592095D01*
X137249771Y-81592095D02*
X137487866Y-81592095D01*
X137487866Y-81592095D02*
X137678342Y-81639714D01*
X137678342Y-81639714D02*
X137773580Y-81687333D01*
X137773580Y-81687333D02*
X137821200Y-81734952D01*
X137821200Y-81734952D02*
X137868819Y-81830190D01*
X137868819Y-81830190D02*
X137868819Y-81925428D01*
X137868819Y-81925428D02*
X137821200Y-82020666D01*
X137821200Y-82020666D02*
X137773580Y-82068285D01*
X137773580Y-82068285D02*
X137678342Y-82115904D01*
X137678342Y-82115904D02*
X137487866Y-82163523D01*
X137487866Y-82163523D02*
X137249771Y-82163523D01*
X137249771Y-82163523D02*
X137059295Y-82115904D01*
X137059295Y-82115904D02*
X136964057Y-82068285D01*
X136964057Y-82068285D02*
X136916438Y-82020666D01*
X136916438Y-82020666D02*
X136868819Y-81925428D01*
X128740819Y-89582523D02*
X129455104Y-89582523D01*
X129455104Y-89582523D02*
X129597961Y-89630142D01*
X129597961Y-89630142D02*
X129693200Y-89725380D01*
X129693200Y-89725380D02*
X129740819Y-89868237D01*
X129740819Y-89868237D02*
X129740819Y-89963475D01*
X129740819Y-88582523D02*
X129740819Y-89153951D01*
X129740819Y-88868237D02*
X128740819Y-88868237D01*
X128740819Y-88868237D02*
X128883676Y-88963475D01*
X128883676Y-88963475D02*
X128978914Y-89058713D01*
X128978914Y-89058713D02*
X129026533Y-89153951D01*
X128836057Y-88201570D02*
X128788438Y-88153951D01*
X128788438Y-88153951D02*
X128740819Y-88058713D01*
X128740819Y-88058713D02*
X128740819Y-87820618D01*
X128740819Y-87820618D02*
X128788438Y-87725380D01*
X128788438Y-87725380D02*
X128836057Y-87677761D01*
X128836057Y-87677761D02*
X128931295Y-87630142D01*
X128931295Y-87630142D02*
X129026533Y-87630142D01*
X129026533Y-87630142D02*
X129169390Y-87677761D01*
X129169390Y-87677761D02*
X129740819Y-88249189D01*
X129740819Y-88249189D02*
X129740819Y-87630142D01*
X186979074Y-82881065D02*
X186979074Y-83518486D01*
X186979074Y-83518486D02*
X187016570Y-83593476D01*
X187016570Y-83593476D02*
X187054065Y-83630972D01*
X187054065Y-83630972D02*
X187129056Y-83668467D01*
X187129056Y-83668467D02*
X187279037Y-83668467D01*
X187279037Y-83668467D02*
X187354028Y-83630972D01*
X187354028Y-83630972D02*
X187391523Y-83593476D01*
X187391523Y-83593476D02*
X187429018Y-83518486D01*
X187429018Y-83518486D02*
X187429018Y-82881065D01*
X187728981Y-82881065D02*
X188253915Y-82881065D01*
X188253915Y-82881065D02*
X187916457Y-83668467D01*
X164285333Y-81479580D02*
X164237714Y-81527200D01*
X164237714Y-81527200D02*
X164094857Y-81574819D01*
X164094857Y-81574819D02*
X163999619Y-81574819D01*
X163999619Y-81574819D02*
X163856762Y-81527200D01*
X163856762Y-81527200D02*
X163761524Y-81431961D01*
X163761524Y-81431961D02*
X163713905Y-81336723D01*
X163713905Y-81336723D02*
X163666286Y-81146247D01*
X163666286Y-81146247D02*
X163666286Y-81003390D01*
X163666286Y-81003390D02*
X163713905Y-80812914D01*
X163713905Y-80812914D02*
X163761524Y-80717676D01*
X163761524Y-80717676D02*
X163856762Y-80622438D01*
X163856762Y-80622438D02*
X163999619Y-80574819D01*
X163999619Y-80574819D02*
X164094857Y-80574819D01*
X164094857Y-80574819D02*
X164237714Y-80622438D01*
X164237714Y-80622438D02*
X164285333Y-80670057D01*
X164856762Y-81003390D02*
X164761524Y-80955771D01*
X164761524Y-80955771D02*
X164713905Y-80908152D01*
X164713905Y-80908152D02*
X164666286Y-80812914D01*
X164666286Y-80812914D02*
X164666286Y-80765295D01*
X164666286Y-80765295D02*
X164713905Y-80670057D01*
X164713905Y-80670057D02*
X164761524Y-80622438D01*
X164761524Y-80622438D02*
X164856762Y-80574819D01*
X164856762Y-80574819D02*
X165047238Y-80574819D01*
X165047238Y-80574819D02*
X165142476Y-80622438D01*
X165142476Y-80622438D02*
X165190095Y-80670057D01*
X165190095Y-80670057D02*
X165237714Y-80765295D01*
X165237714Y-80765295D02*
X165237714Y-80812914D01*
X165237714Y-80812914D02*
X165190095Y-80908152D01*
X165190095Y-80908152D02*
X165142476Y-80955771D01*
X165142476Y-80955771D02*
X165047238Y-81003390D01*
X165047238Y-81003390D02*
X164856762Y-81003390D01*
X164856762Y-81003390D02*
X164761524Y-81051009D01*
X164761524Y-81051009D02*
X164713905Y-81098628D01*
X164713905Y-81098628D02*
X164666286Y-81193866D01*
X164666286Y-81193866D02*
X164666286Y-81384342D01*
X164666286Y-81384342D02*
X164713905Y-81479580D01*
X164713905Y-81479580D02*
X164761524Y-81527200D01*
X164761524Y-81527200D02*
X164856762Y-81574819D01*
X164856762Y-81574819D02*
X165047238Y-81574819D01*
X165047238Y-81574819D02*
X165142476Y-81527200D01*
X165142476Y-81527200D02*
X165190095Y-81479580D01*
X165190095Y-81479580D02*
X165237714Y-81384342D01*
X165237714Y-81384342D02*
X165237714Y-81193866D01*
X165237714Y-81193866D02*
X165190095Y-81098628D01*
X165190095Y-81098628D02*
X165142476Y-81051009D01*
X165142476Y-81051009D02*
X165047238Y-81003390D01*
X138806198Y-90305570D02*
X138806198Y-90931384D01*
X138806198Y-90931384D02*
X138843011Y-91005009D01*
X138843011Y-91005009D02*
X138879824Y-91041822D01*
X138879824Y-91041822D02*
X138953449Y-91078634D01*
X138953449Y-91078634D02*
X139100699Y-91078634D01*
X139100699Y-91078634D02*
X139174324Y-91041822D01*
X139174324Y-91041822D02*
X139211137Y-91005009D01*
X139211137Y-91005009D02*
X139247949Y-90931384D01*
X139247949Y-90931384D02*
X139247949Y-90305570D01*
X139947389Y-90563258D02*
X139947389Y-91078634D01*
X139763326Y-90268758D02*
X139579263Y-90820946D01*
X139579263Y-90820946D02*
X140057826Y-90820946D01*
X230854819Y-88061904D02*
X231664342Y-88061904D01*
X231664342Y-88061904D02*
X231759580Y-88014285D01*
X231759580Y-88014285D02*
X231807200Y-87966666D01*
X231807200Y-87966666D02*
X231854819Y-87871428D01*
X231854819Y-87871428D02*
X231854819Y-87680952D01*
X231854819Y-87680952D02*
X231807200Y-87585714D01*
X231807200Y-87585714D02*
X231759580Y-87538095D01*
X231759580Y-87538095D02*
X231664342Y-87490476D01*
X231664342Y-87490476D02*
X230854819Y-87490476D01*
X231854819Y-86966666D02*
X231854819Y-86776190D01*
X231854819Y-86776190D02*
X231807200Y-86680952D01*
X231807200Y-86680952D02*
X231759580Y-86633333D01*
X231759580Y-86633333D02*
X231616723Y-86538095D01*
X231616723Y-86538095D02*
X231426247Y-86490476D01*
X231426247Y-86490476D02*
X231045295Y-86490476D01*
X231045295Y-86490476D02*
X230950057Y-86538095D01*
X230950057Y-86538095D02*
X230902438Y-86585714D01*
X230902438Y-86585714D02*
X230854819Y-86680952D01*
X230854819Y-86680952D02*
X230854819Y-86871428D01*
X230854819Y-86871428D02*
X230902438Y-86966666D01*
X230902438Y-86966666D02*
X230950057Y-87014285D01*
X230950057Y-87014285D02*
X231045295Y-87061904D01*
X231045295Y-87061904D02*
X231283390Y-87061904D01*
X231283390Y-87061904D02*
X231378628Y-87014285D01*
X231378628Y-87014285D02*
X231426247Y-86966666D01*
X231426247Y-86966666D02*
X231473866Y-86871428D01*
X231473866Y-86871428D02*
X231473866Y-86680952D01*
X231473866Y-86680952D02*
X231426247Y-86585714D01*
X231426247Y-86585714D02*
X231378628Y-86538095D01*
X231378628Y-86538095D02*
X231283390Y-86490476D01*
X227919104Y-92061905D02*
X227919104Y-91585715D01*
X228204819Y-92157143D02*
X227204819Y-91823810D01*
X227204819Y-91823810D02*
X228204819Y-91490477D01*
X227538152Y-91157143D02*
X228204819Y-91157143D01*
X227633390Y-91157143D02*
X227585771Y-91109524D01*
X227585771Y-91109524D02*
X227538152Y-91014286D01*
X227538152Y-91014286D02*
X227538152Y-90871429D01*
X227538152Y-90871429D02*
X227585771Y-90776191D01*
X227585771Y-90776191D02*
X227681009Y-90728572D01*
X227681009Y-90728572D02*
X228204819Y-90728572D01*
X227538152Y-90395238D02*
X227538152Y-90014286D01*
X227204819Y-90252381D02*
X228061961Y-90252381D01*
X228061961Y-90252381D02*
X228157200Y-90204762D01*
X228157200Y-90204762D02*
X228204819Y-90109524D01*
X228204819Y-90109524D02*
X228204819Y-90014286D01*
X228157200Y-89300000D02*
X228204819Y-89395238D01*
X228204819Y-89395238D02*
X228204819Y-89585714D01*
X228204819Y-89585714D02*
X228157200Y-89680952D01*
X228157200Y-89680952D02*
X228061961Y-89728571D01*
X228061961Y-89728571D02*
X227681009Y-89728571D01*
X227681009Y-89728571D02*
X227585771Y-89680952D01*
X227585771Y-89680952D02*
X227538152Y-89585714D01*
X227538152Y-89585714D02*
X227538152Y-89395238D01*
X227538152Y-89395238D02*
X227585771Y-89300000D01*
X227585771Y-89300000D02*
X227681009Y-89252381D01*
X227681009Y-89252381D02*
X227776247Y-89252381D01*
X227776247Y-89252381D02*
X227871485Y-89728571D01*
X227538152Y-88823809D02*
X228204819Y-88823809D01*
X227633390Y-88823809D02*
X227585771Y-88776190D01*
X227585771Y-88776190D02*
X227538152Y-88680952D01*
X227538152Y-88680952D02*
X227538152Y-88538095D01*
X227538152Y-88538095D02*
X227585771Y-88442857D01*
X227585771Y-88442857D02*
X227681009Y-88395238D01*
X227681009Y-88395238D02*
X228204819Y-88395238D01*
X227538152Y-87919047D02*
X228204819Y-87919047D01*
X227633390Y-87919047D02*
X227585771Y-87871428D01*
X227585771Y-87871428D02*
X227538152Y-87776190D01*
X227538152Y-87776190D02*
X227538152Y-87633333D01*
X227538152Y-87633333D02*
X227585771Y-87538095D01*
X227585771Y-87538095D02*
X227681009Y-87490476D01*
X227681009Y-87490476D02*
X228204819Y-87490476D01*
X228204819Y-86585714D02*
X227681009Y-86585714D01*
X227681009Y-86585714D02*
X227585771Y-86633333D01*
X227585771Y-86633333D02*
X227538152Y-86728571D01*
X227538152Y-86728571D02*
X227538152Y-86919047D01*
X227538152Y-86919047D02*
X227585771Y-87014285D01*
X228157200Y-86585714D02*
X228204819Y-86680952D01*
X228204819Y-86680952D02*
X228204819Y-86919047D01*
X228204819Y-86919047D02*
X228157200Y-87014285D01*
X228157200Y-87014285D02*
X228061961Y-87061904D01*
X228061961Y-87061904D02*
X227966723Y-87061904D01*
X227966723Y-87061904D02*
X227871485Y-87014285D01*
X227871485Y-87014285D02*
X227823866Y-86919047D01*
X227823866Y-86919047D02*
X227823866Y-86680952D01*
X227823866Y-86680952D02*
X227776247Y-86585714D01*
X227919104Y-85395237D02*
X227919104Y-84919047D01*
X228204819Y-85490475D02*
X227204819Y-85157142D01*
X227204819Y-85157142D02*
X228204819Y-84823809D01*
X228204819Y-84490475D02*
X227538152Y-84490475D01*
X227728628Y-84490475D02*
X227633390Y-84442856D01*
X227633390Y-84442856D02*
X227585771Y-84395237D01*
X227585771Y-84395237D02*
X227538152Y-84299999D01*
X227538152Y-84299999D02*
X227538152Y-84204761D01*
X228157200Y-83490475D02*
X228204819Y-83585713D01*
X228204819Y-83585713D02*
X228204819Y-83776189D01*
X228204819Y-83776189D02*
X228157200Y-83871427D01*
X228157200Y-83871427D02*
X228061961Y-83919046D01*
X228061961Y-83919046D02*
X227681009Y-83919046D01*
X227681009Y-83919046D02*
X227585771Y-83871427D01*
X227585771Y-83871427D02*
X227538152Y-83776189D01*
X227538152Y-83776189D02*
X227538152Y-83585713D01*
X227538152Y-83585713D02*
X227585771Y-83490475D01*
X227585771Y-83490475D02*
X227681009Y-83442856D01*
X227681009Y-83442856D02*
X227776247Y-83442856D01*
X227776247Y-83442856D02*
X227871485Y-83919046D01*
X228204819Y-82585713D02*
X227681009Y-82585713D01*
X227681009Y-82585713D02*
X227585771Y-82633332D01*
X227585771Y-82633332D02*
X227538152Y-82728570D01*
X227538152Y-82728570D02*
X227538152Y-82919046D01*
X227538152Y-82919046D02*
X227585771Y-83014284D01*
X228157200Y-82585713D02*
X228204819Y-82680951D01*
X228204819Y-82680951D02*
X228204819Y-82919046D01*
X228204819Y-82919046D02*
X228157200Y-83014284D01*
X228157200Y-83014284D02*
X228061961Y-83061903D01*
X228061961Y-83061903D02*
X227966723Y-83061903D01*
X227966723Y-83061903D02*
X227871485Y-83014284D01*
X227871485Y-83014284D02*
X227823866Y-82919046D01*
X227823866Y-82919046D02*
X227823866Y-82680951D01*
X227823866Y-82680951D02*
X227776247Y-82585713D01*
X200606819Y-82938857D02*
X200130628Y-83272190D01*
X200606819Y-83510285D02*
X199606819Y-83510285D01*
X199606819Y-83510285D02*
X199606819Y-83129333D01*
X199606819Y-83129333D02*
X199654438Y-83034095D01*
X199654438Y-83034095D02*
X199702057Y-82986476D01*
X199702057Y-82986476D02*
X199797295Y-82938857D01*
X199797295Y-82938857D02*
X199940152Y-82938857D01*
X199940152Y-82938857D02*
X200035390Y-82986476D01*
X200035390Y-82986476D02*
X200083009Y-83034095D01*
X200083009Y-83034095D02*
X200130628Y-83129333D01*
X200130628Y-83129333D02*
X200130628Y-83510285D01*
X200606819Y-81986476D02*
X200606819Y-82557904D01*
X200606819Y-82272190D02*
X199606819Y-82272190D01*
X199606819Y-82272190D02*
X199749676Y-82367428D01*
X199749676Y-82367428D02*
X199844914Y-82462666D01*
X199844914Y-82462666D02*
X199892533Y-82557904D01*
X199606819Y-81129333D02*
X199606819Y-81319809D01*
X199606819Y-81319809D02*
X199654438Y-81415047D01*
X199654438Y-81415047D02*
X199702057Y-81462666D01*
X199702057Y-81462666D02*
X199844914Y-81557904D01*
X199844914Y-81557904D02*
X200035390Y-81605523D01*
X200035390Y-81605523D02*
X200416342Y-81605523D01*
X200416342Y-81605523D02*
X200511580Y-81557904D01*
X200511580Y-81557904D02*
X200559200Y-81510285D01*
X200559200Y-81510285D02*
X200606819Y-81415047D01*
X200606819Y-81415047D02*
X200606819Y-81224571D01*
X200606819Y-81224571D02*
X200559200Y-81129333D01*
X200559200Y-81129333D02*
X200511580Y-81081714D01*
X200511580Y-81081714D02*
X200416342Y-81034095D01*
X200416342Y-81034095D02*
X200178247Y-81034095D01*
X200178247Y-81034095D02*
X200083009Y-81081714D01*
X200083009Y-81081714D02*
X200035390Y-81129333D01*
X200035390Y-81129333D02*
X199987771Y-81224571D01*
X199987771Y-81224571D02*
X199987771Y-81415047D01*
X199987771Y-81415047D02*
X200035390Y-81510285D01*
X200035390Y-81510285D02*
X200083009Y-81557904D01*
X200083009Y-81557904D02*
X200178247Y-81605523D01*
X190238142Y-96244580D02*
X190190523Y-96292200D01*
X190190523Y-96292200D02*
X190047666Y-96339819D01*
X190047666Y-96339819D02*
X189952428Y-96339819D01*
X189952428Y-96339819D02*
X189809571Y-96292200D01*
X189809571Y-96292200D02*
X189714333Y-96196961D01*
X189714333Y-96196961D02*
X189666714Y-96101723D01*
X189666714Y-96101723D02*
X189619095Y-95911247D01*
X189619095Y-95911247D02*
X189619095Y-95768390D01*
X189619095Y-95768390D02*
X189666714Y-95577914D01*
X189666714Y-95577914D02*
X189714333Y-95482676D01*
X189714333Y-95482676D02*
X189809571Y-95387438D01*
X189809571Y-95387438D02*
X189952428Y-95339819D01*
X189952428Y-95339819D02*
X190047666Y-95339819D01*
X190047666Y-95339819D02*
X190190523Y-95387438D01*
X190190523Y-95387438D02*
X190238142Y-95435057D01*
X191190523Y-96339819D02*
X190619095Y-96339819D01*
X190904809Y-96339819D02*
X190904809Y-95339819D01*
X190904809Y-95339819D02*
X190809571Y-95482676D01*
X190809571Y-95482676D02*
X190714333Y-95577914D01*
X190714333Y-95577914D02*
X190619095Y-95625533D01*
X192095285Y-95339819D02*
X191619095Y-95339819D01*
X191619095Y-95339819D02*
X191571476Y-95816009D01*
X191571476Y-95816009D02*
X191619095Y-95768390D01*
X191619095Y-95768390D02*
X191714333Y-95720771D01*
X191714333Y-95720771D02*
X191952428Y-95720771D01*
X191952428Y-95720771D02*
X192047666Y-95768390D01*
X192047666Y-95768390D02*
X192095285Y-95816009D01*
X192095285Y-95816009D02*
X192142904Y-95911247D01*
X192142904Y-95911247D02*
X192142904Y-96149342D01*
X192142904Y-96149342D02*
X192095285Y-96244580D01*
X192095285Y-96244580D02*
X192047666Y-96292200D01*
X192047666Y-96292200D02*
X191952428Y-96339819D01*
X191952428Y-96339819D02*
X191714333Y-96339819D01*
X191714333Y-96339819D02*
X191619095Y-96292200D01*
X191619095Y-96292200D02*
X191571476Y-96244580D01*
X188065580Y-88907857D02*
X188113200Y-88955476D01*
X188113200Y-88955476D02*
X188160819Y-89098333D01*
X188160819Y-89098333D02*
X188160819Y-89193571D01*
X188160819Y-89193571D02*
X188113200Y-89336428D01*
X188113200Y-89336428D02*
X188017961Y-89431666D01*
X188017961Y-89431666D02*
X187922723Y-89479285D01*
X187922723Y-89479285D02*
X187732247Y-89526904D01*
X187732247Y-89526904D02*
X187589390Y-89526904D01*
X187589390Y-89526904D02*
X187398914Y-89479285D01*
X187398914Y-89479285D02*
X187303676Y-89431666D01*
X187303676Y-89431666D02*
X187208438Y-89336428D01*
X187208438Y-89336428D02*
X187160819Y-89193571D01*
X187160819Y-89193571D02*
X187160819Y-89098333D01*
X187160819Y-89098333D02*
X187208438Y-88955476D01*
X187208438Y-88955476D02*
X187256057Y-88907857D01*
X188160819Y-87955476D02*
X188160819Y-88526904D01*
X188160819Y-88241190D02*
X187160819Y-88241190D01*
X187160819Y-88241190D02*
X187303676Y-88336428D01*
X187303676Y-88336428D02*
X187398914Y-88431666D01*
X187398914Y-88431666D02*
X187446533Y-88526904D01*
X188160819Y-87003095D02*
X188160819Y-87574523D01*
X188160819Y-87288809D02*
X187160819Y-87288809D01*
X187160819Y-87288809D02*
X187303676Y-87384047D01*
X187303676Y-87384047D02*
X187398914Y-87479285D01*
X187398914Y-87479285D02*
X187446533Y-87574523D01*
X169518333Y-92848580D02*
X169470714Y-92896200D01*
X169470714Y-92896200D02*
X169327857Y-92943819D01*
X169327857Y-92943819D02*
X169232619Y-92943819D01*
X169232619Y-92943819D02*
X169089762Y-92896200D01*
X169089762Y-92896200D02*
X168994524Y-92800961D01*
X168994524Y-92800961D02*
X168946905Y-92705723D01*
X168946905Y-92705723D02*
X168899286Y-92515247D01*
X168899286Y-92515247D02*
X168899286Y-92372390D01*
X168899286Y-92372390D02*
X168946905Y-92181914D01*
X168946905Y-92181914D02*
X168994524Y-92086676D01*
X168994524Y-92086676D02*
X169089762Y-91991438D01*
X169089762Y-91991438D02*
X169232619Y-91943819D01*
X169232619Y-91943819D02*
X169327857Y-91943819D01*
X169327857Y-91943819D02*
X169470714Y-91991438D01*
X169470714Y-91991438D02*
X169518333Y-92039057D01*
X169994524Y-92943819D02*
X170185000Y-92943819D01*
X170185000Y-92943819D02*
X170280238Y-92896200D01*
X170280238Y-92896200D02*
X170327857Y-92848580D01*
X170327857Y-92848580D02*
X170423095Y-92705723D01*
X170423095Y-92705723D02*
X170470714Y-92515247D01*
X170470714Y-92515247D02*
X170470714Y-92134295D01*
X170470714Y-92134295D02*
X170423095Y-92039057D01*
X170423095Y-92039057D02*
X170375476Y-91991438D01*
X170375476Y-91991438D02*
X170280238Y-91943819D01*
X170280238Y-91943819D02*
X170089762Y-91943819D01*
X170089762Y-91943819D02*
X169994524Y-91991438D01*
X169994524Y-91991438D02*
X169946905Y-92039057D01*
X169946905Y-92039057D02*
X169899286Y-92134295D01*
X169899286Y-92134295D02*
X169899286Y-92372390D01*
X169899286Y-92372390D02*
X169946905Y-92467628D01*
X169946905Y-92467628D02*
X169994524Y-92515247D01*
X169994524Y-92515247D02*
X170089762Y-92562866D01*
X170089762Y-92562866D02*
X170280238Y-92562866D01*
X170280238Y-92562866D02*
X170375476Y-92515247D01*
X170375476Y-92515247D02*
X170423095Y-92467628D01*
X170423095Y-92467628D02*
X170470714Y-92372390D01*
D11*
X185801095Y-93310419D02*
X185801095Y-94119942D01*
X185801095Y-94119942D02*
X185848714Y-94215180D01*
X185848714Y-94215180D02*
X185896333Y-94262800D01*
X185896333Y-94262800D02*
X185991571Y-94310419D01*
X185991571Y-94310419D02*
X186182047Y-94310419D01*
X186182047Y-94310419D02*
X186277285Y-94262800D01*
X186277285Y-94262800D02*
X186324904Y-94215180D01*
X186324904Y-94215180D02*
X186372523Y-94119942D01*
X186372523Y-94119942D02*
X186372523Y-93310419D01*
X186801095Y-93405657D02*
X186848714Y-93358038D01*
X186848714Y-93358038D02*
X186943952Y-93310419D01*
X186943952Y-93310419D02*
X187182047Y-93310419D01*
X187182047Y-93310419D02*
X187277285Y-93358038D01*
X187277285Y-93358038D02*
X187324904Y-93405657D01*
X187324904Y-93405657D02*
X187372523Y-93500895D01*
X187372523Y-93500895D02*
X187372523Y-93596133D01*
X187372523Y-93596133D02*
X187324904Y-93738990D01*
X187324904Y-93738990D02*
X186753476Y-94310419D01*
X186753476Y-94310419D02*
X187372523Y-94310419D01*
D10*
X134758522Y-83626180D02*
X134758522Y-84340465D01*
X134758522Y-84340465D02*
X134710903Y-84483322D01*
X134710903Y-84483322D02*
X134615665Y-84578561D01*
X134615665Y-84578561D02*
X134472808Y-84626180D01*
X134472808Y-84626180D02*
X134377570Y-84626180D01*
X135758522Y-84626180D02*
X135187094Y-84626180D01*
X135472808Y-84626180D02*
X135472808Y-83626180D01*
X135472808Y-83626180D02*
X135377570Y-83769037D01*
X135377570Y-83769037D02*
X135282332Y-83864275D01*
X135282332Y-83864275D02*
X135187094Y-83911894D01*
X136663284Y-83626180D02*
X136187094Y-83626180D01*
X136187094Y-83626180D02*
X136139475Y-84102370D01*
X136139475Y-84102370D02*
X136187094Y-84054751D01*
X136187094Y-84054751D02*
X136282332Y-84007132D01*
X136282332Y-84007132D02*
X136520427Y-84007132D01*
X136520427Y-84007132D02*
X136615665Y-84054751D01*
X136615665Y-84054751D02*
X136663284Y-84102370D01*
X136663284Y-84102370D02*
X136710903Y-84197608D01*
X136710903Y-84197608D02*
X136710903Y-84435703D01*
X136710903Y-84435703D02*
X136663284Y-84530941D01*
X136663284Y-84530941D02*
X136615665Y-84578561D01*
X136615665Y-84578561D02*
X136520427Y-84626180D01*
X136520427Y-84626180D02*
X136282332Y-84626180D01*
X136282332Y-84626180D02*
X136187094Y-84578561D01*
X136187094Y-84578561D02*
X136139475Y-84530941D01*
X152092819Y-86399666D02*
X151616628Y-86732999D01*
X152092819Y-86971094D02*
X151092819Y-86971094D01*
X151092819Y-86971094D02*
X151092819Y-86590142D01*
X151092819Y-86590142D02*
X151140438Y-86494904D01*
X151140438Y-86494904D02*
X151188057Y-86447285D01*
X151188057Y-86447285D02*
X151283295Y-86399666D01*
X151283295Y-86399666D02*
X151426152Y-86399666D01*
X151426152Y-86399666D02*
X151521390Y-86447285D01*
X151521390Y-86447285D02*
X151569009Y-86494904D01*
X151569009Y-86494904D02*
X151616628Y-86590142D01*
X151616628Y-86590142D02*
X151616628Y-86971094D01*
X151092819Y-85494904D02*
X151092819Y-85971094D01*
X151092819Y-85971094D02*
X151569009Y-86018713D01*
X151569009Y-86018713D02*
X151521390Y-85971094D01*
X151521390Y-85971094D02*
X151473771Y-85875856D01*
X151473771Y-85875856D02*
X151473771Y-85637761D01*
X151473771Y-85637761D02*
X151521390Y-85542523D01*
X151521390Y-85542523D02*
X151569009Y-85494904D01*
X151569009Y-85494904D02*
X151664247Y-85447285D01*
X151664247Y-85447285D02*
X151902342Y-85447285D01*
X151902342Y-85447285D02*
X151997580Y-85494904D01*
X151997580Y-85494904D02*
X152045200Y-85542523D01*
X152045200Y-85542523D02*
X152092819Y-85637761D01*
X152092819Y-85637761D02*
X152092819Y-85875856D01*
X152092819Y-85875856D02*
X152045200Y-85971094D01*
X152045200Y-85971094D02*
X151997580Y-86018713D01*
X177114979Y-95355580D02*
X177067360Y-95403200D01*
X177067360Y-95403200D02*
X176924503Y-95450819D01*
X176924503Y-95450819D02*
X176829265Y-95450819D01*
X176829265Y-95450819D02*
X176686408Y-95403200D01*
X176686408Y-95403200D02*
X176591170Y-95307961D01*
X176591170Y-95307961D02*
X176543551Y-95212723D01*
X176543551Y-95212723D02*
X176495932Y-95022247D01*
X176495932Y-95022247D02*
X176495932Y-94879390D01*
X176495932Y-94879390D02*
X176543551Y-94688914D01*
X176543551Y-94688914D02*
X176591170Y-94593676D01*
X176591170Y-94593676D02*
X176686408Y-94498438D01*
X176686408Y-94498438D02*
X176829265Y-94450819D01*
X176829265Y-94450819D02*
X176924503Y-94450819D01*
X176924503Y-94450819D02*
X177067360Y-94498438D01*
X177067360Y-94498438D02*
X177114979Y-94546057D01*
X177972122Y-94784152D02*
X177972122Y-95450819D01*
X177734027Y-94403200D02*
X177495932Y-95117485D01*
X177495932Y-95117485D02*
X178114979Y-95117485D01*
X201920506Y-95446341D02*
X201872887Y-95493961D01*
X201872887Y-95493961D02*
X201730030Y-95541580D01*
X201730030Y-95541580D02*
X201634792Y-95541580D01*
X201634792Y-95541580D02*
X201491935Y-95493961D01*
X201491935Y-95493961D02*
X201396697Y-95398722D01*
X201396697Y-95398722D02*
X201349078Y-95303484D01*
X201349078Y-95303484D02*
X201301459Y-95113008D01*
X201301459Y-95113008D02*
X201301459Y-94970151D01*
X201301459Y-94970151D02*
X201349078Y-94779675D01*
X201349078Y-94779675D02*
X201396697Y-94684437D01*
X201396697Y-94684437D02*
X201491935Y-94589199D01*
X201491935Y-94589199D02*
X201634792Y-94541580D01*
X201634792Y-94541580D02*
X201730030Y-94541580D01*
X201730030Y-94541580D02*
X201872887Y-94589199D01*
X201872887Y-94589199D02*
X201920506Y-94636818D01*
X202872887Y-95541580D02*
X202301459Y-95541580D01*
X202587173Y-95541580D02*
X202587173Y-94541580D01*
X202587173Y-94541580D02*
X202491935Y-94684437D01*
X202491935Y-94684437D02*
X202396697Y-94779675D01*
X202396697Y-94779675D02*
X202301459Y-94827294D01*
X203206221Y-94541580D02*
X203872887Y-94541580D01*
X203872887Y-94541580D02*
X203444316Y-95541580D01*
X180345142Y-92848580D02*
X180297523Y-92896200D01*
X180297523Y-92896200D02*
X180154666Y-92943819D01*
X180154666Y-92943819D02*
X180059428Y-92943819D01*
X180059428Y-92943819D02*
X179916571Y-92896200D01*
X179916571Y-92896200D02*
X179821333Y-92800961D01*
X179821333Y-92800961D02*
X179773714Y-92705723D01*
X179773714Y-92705723D02*
X179726095Y-92515247D01*
X179726095Y-92515247D02*
X179726095Y-92372390D01*
X179726095Y-92372390D02*
X179773714Y-92181914D01*
X179773714Y-92181914D02*
X179821333Y-92086676D01*
X179821333Y-92086676D02*
X179916571Y-91991438D01*
X179916571Y-91991438D02*
X180059428Y-91943819D01*
X180059428Y-91943819D02*
X180154666Y-91943819D01*
X180154666Y-91943819D02*
X180297523Y-91991438D01*
X180297523Y-91991438D02*
X180345142Y-92039057D01*
X181297523Y-92943819D02*
X180726095Y-92943819D01*
X181011809Y-92943819D02*
X181011809Y-91943819D01*
X181011809Y-91943819D02*
X180916571Y-92086676D01*
X180916571Y-92086676D02*
X180821333Y-92181914D01*
X180821333Y-92181914D02*
X180726095Y-92229533D01*
X181916571Y-91943819D02*
X182011809Y-91943819D01*
X182011809Y-91943819D02*
X182107047Y-91991438D01*
X182107047Y-91991438D02*
X182154666Y-92039057D01*
X182154666Y-92039057D02*
X182202285Y-92134295D01*
X182202285Y-92134295D02*
X182249904Y-92324771D01*
X182249904Y-92324771D02*
X182249904Y-92562866D01*
X182249904Y-92562866D02*
X182202285Y-92753342D01*
X182202285Y-92753342D02*
X182154666Y-92848580D01*
X182154666Y-92848580D02*
X182107047Y-92896200D01*
X182107047Y-92896200D02*
X182011809Y-92943819D01*
X182011809Y-92943819D02*
X181916571Y-92943819D01*
X181916571Y-92943819D02*
X181821333Y-92896200D01*
X181821333Y-92896200D02*
X181773714Y-92848580D01*
X181773714Y-92848580D02*
X181726095Y-92753342D01*
X181726095Y-92753342D02*
X181678476Y-92562866D01*
X181678476Y-92562866D02*
X181678476Y-92324771D01*
X181678476Y-92324771D02*
X181726095Y-92134295D01*
X181726095Y-92134295D02*
X181773714Y-92039057D01*
X181773714Y-92039057D02*
X181821333Y-91991438D01*
X181821333Y-91991438D02*
X181916571Y-91943819D01*
X134699476Y-85687819D02*
X134699476Y-86402104D01*
X134699476Y-86402104D02*
X134651857Y-86544961D01*
X134651857Y-86544961D02*
X134556619Y-86640200D01*
X134556619Y-86640200D02*
X134413762Y-86687819D01*
X134413762Y-86687819D02*
X134318524Y-86687819D01*
X135699476Y-86687819D02*
X135128048Y-86687819D01*
X135413762Y-86687819D02*
X135413762Y-85687819D01*
X135413762Y-85687819D02*
X135318524Y-85830676D01*
X135318524Y-85830676D02*
X135223286Y-85925914D01*
X135223286Y-85925914D02*
X135128048Y-85973533D01*
X136556619Y-85687819D02*
X136366143Y-85687819D01*
X136366143Y-85687819D02*
X136270905Y-85735438D01*
X136270905Y-85735438D02*
X136223286Y-85783057D01*
X136223286Y-85783057D02*
X136128048Y-85925914D01*
X136128048Y-85925914D02*
X136080429Y-86116390D01*
X136080429Y-86116390D02*
X136080429Y-86497342D01*
X136080429Y-86497342D02*
X136128048Y-86592580D01*
X136128048Y-86592580D02*
X136175667Y-86640200D01*
X136175667Y-86640200D02*
X136270905Y-86687819D01*
X136270905Y-86687819D02*
X136461381Y-86687819D01*
X136461381Y-86687819D02*
X136556619Y-86640200D01*
X136556619Y-86640200D02*
X136604238Y-86592580D01*
X136604238Y-86592580D02*
X136651857Y-86497342D01*
X136651857Y-86497342D02*
X136651857Y-86259247D01*
X136651857Y-86259247D02*
X136604238Y-86164009D01*
X136604238Y-86164009D02*
X136556619Y-86116390D01*
X136556619Y-86116390D02*
X136461381Y-86068771D01*
X136461381Y-86068771D02*
X136270905Y-86068771D01*
X136270905Y-86068771D02*
X136175667Y-86116390D01*
X136175667Y-86116390D02*
X136128048Y-86164009D01*
X136128048Y-86164009D02*
X136080429Y-86259247D01*
X177106687Y-96625580D02*
X177059068Y-96673200D01*
X177059068Y-96673200D02*
X176916211Y-96720819D01*
X176916211Y-96720819D02*
X176820973Y-96720819D01*
X176820973Y-96720819D02*
X176678116Y-96673200D01*
X176678116Y-96673200D02*
X176582878Y-96577961D01*
X176582878Y-96577961D02*
X176535259Y-96482723D01*
X176535259Y-96482723D02*
X176487640Y-96292247D01*
X176487640Y-96292247D02*
X176487640Y-96149390D01*
X176487640Y-96149390D02*
X176535259Y-95958914D01*
X176535259Y-95958914D02*
X176582878Y-95863676D01*
X176582878Y-95863676D02*
X176678116Y-95768438D01*
X176678116Y-95768438D02*
X176820973Y-95720819D01*
X176820973Y-95720819D02*
X176916211Y-95720819D01*
X176916211Y-95720819D02*
X177059068Y-95768438D01*
X177059068Y-95768438D02*
X177106687Y-95816057D01*
X177440021Y-95720819D02*
X178059068Y-95720819D01*
X178059068Y-95720819D02*
X177725735Y-96101771D01*
X177725735Y-96101771D02*
X177868592Y-96101771D01*
X177868592Y-96101771D02*
X177963830Y-96149390D01*
X177963830Y-96149390D02*
X178011449Y-96197009D01*
X178011449Y-96197009D02*
X178059068Y-96292247D01*
X178059068Y-96292247D02*
X178059068Y-96530342D01*
X178059068Y-96530342D02*
X178011449Y-96625580D01*
X178011449Y-96625580D02*
X177963830Y-96673200D01*
X177963830Y-96673200D02*
X177868592Y-96720819D01*
X177868592Y-96720819D02*
X177582878Y-96720819D01*
X177582878Y-96720819D02*
X177487640Y-96673200D01*
X177487640Y-96673200D02*
X177440021Y-96625580D01*
X167082065Y-81244925D02*
X167719486Y-81244925D01*
X167719486Y-81244925D02*
X167794476Y-81207430D01*
X167794476Y-81207430D02*
X167831972Y-81169934D01*
X167831972Y-81169934D02*
X167869467Y-81094944D01*
X167869467Y-81094944D02*
X167869467Y-80944962D01*
X167869467Y-80944962D02*
X167831972Y-80869972D01*
X167831972Y-80869972D02*
X167794476Y-80832476D01*
X167794476Y-80832476D02*
X167719486Y-80794981D01*
X167719486Y-80794981D02*
X167082065Y-80794981D01*
X167082065Y-80082570D02*
X167082065Y-80232551D01*
X167082065Y-80232551D02*
X167119560Y-80307542D01*
X167119560Y-80307542D02*
X167157056Y-80345037D01*
X167157056Y-80345037D02*
X167269542Y-80420028D01*
X167269542Y-80420028D02*
X167419523Y-80457523D01*
X167419523Y-80457523D02*
X167719486Y-80457523D01*
X167719486Y-80457523D02*
X167794476Y-80420028D01*
X167794476Y-80420028D02*
X167831972Y-80382533D01*
X167831972Y-80382533D02*
X167869467Y-80307542D01*
X167869467Y-80307542D02*
X167869467Y-80157561D01*
X167869467Y-80157561D02*
X167831972Y-80082570D01*
X167831972Y-80082570D02*
X167794476Y-80045075D01*
X167794476Y-80045075D02*
X167719486Y-80007579D01*
X167719486Y-80007579D02*
X167532009Y-80007579D01*
X167532009Y-80007579D02*
X167457018Y-80045075D01*
X167457018Y-80045075D02*
X167419523Y-80082570D01*
X167419523Y-80082570D02*
X167382028Y-80157561D01*
X167382028Y-80157561D02*
X167382028Y-80307542D01*
X167382028Y-80307542D02*
X167419523Y-80382533D01*
X167419523Y-80382533D02*
X167457018Y-80420028D01*
X167457018Y-80420028D02*
X167532009Y-80457523D01*
X210748714Y-89354819D02*
X210748714Y-88354819D01*
X210748714Y-88354819D02*
X210986809Y-88354819D01*
X210986809Y-88354819D02*
X211129666Y-88402438D01*
X211129666Y-88402438D02*
X211224904Y-88497676D01*
X211224904Y-88497676D02*
X211272523Y-88592914D01*
X211272523Y-88592914D02*
X211320142Y-88783390D01*
X211320142Y-88783390D02*
X211320142Y-88926247D01*
X211320142Y-88926247D02*
X211272523Y-89116723D01*
X211272523Y-89116723D02*
X211224904Y-89211961D01*
X211224904Y-89211961D02*
X211129666Y-89307200D01*
X211129666Y-89307200D02*
X210986809Y-89354819D01*
X210986809Y-89354819D02*
X210748714Y-89354819D01*
X212272523Y-89354819D02*
X211701095Y-89354819D01*
X211986809Y-89354819D02*
X211986809Y-88354819D01*
X211986809Y-88354819D02*
X211891571Y-88497676D01*
X211891571Y-88497676D02*
X211796333Y-88592914D01*
X211796333Y-88592914D02*
X211701095Y-88640533D01*
X212653476Y-88450057D02*
X212701095Y-88402438D01*
X212701095Y-88402438D02*
X212796333Y-88354819D01*
X212796333Y-88354819D02*
X213034428Y-88354819D01*
X213034428Y-88354819D02*
X213129666Y-88402438D01*
X213129666Y-88402438D02*
X213177285Y-88450057D01*
X213177285Y-88450057D02*
X213224904Y-88545295D01*
X213224904Y-88545295D02*
X213224904Y-88640533D01*
X213224904Y-88640533D02*
X213177285Y-88783390D01*
X213177285Y-88783390D02*
X212605857Y-89354819D01*
X212605857Y-89354819D02*
X213224904Y-89354819D01*
X152092819Y-92495666D02*
X151616628Y-92828999D01*
X152092819Y-93067094D02*
X151092819Y-93067094D01*
X151092819Y-93067094D02*
X151092819Y-92686142D01*
X151092819Y-92686142D02*
X151140438Y-92590904D01*
X151140438Y-92590904D02*
X151188057Y-92543285D01*
X151188057Y-92543285D02*
X151283295Y-92495666D01*
X151283295Y-92495666D02*
X151426152Y-92495666D01*
X151426152Y-92495666D02*
X151521390Y-92543285D01*
X151521390Y-92543285D02*
X151569009Y-92590904D01*
X151569009Y-92590904D02*
X151616628Y-92686142D01*
X151616628Y-92686142D02*
X151616628Y-93067094D01*
X152092819Y-91543285D02*
X152092819Y-92114713D01*
X152092819Y-91828999D02*
X151092819Y-91828999D01*
X151092819Y-91828999D02*
X151235676Y-91924237D01*
X151235676Y-91924237D02*
X151330914Y-92019475D01*
X151330914Y-92019475D02*
X151378533Y-92114713D01*
X208226819Y-91447857D02*
X207750628Y-91781190D01*
X208226819Y-92019285D02*
X207226819Y-92019285D01*
X207226819Y-92019285D02*
X207226819Y-91638333D01*
X207226819Y-91638333D02*
X207274438Y-91543095D01*
X207274438Y-91543095D02*
X207322057Y-91495476D01*
X207322057Y-91495476D02*
X207417295Y-91447857D01*
X207417295Y-91447857D02*
X207560152Y-91447857D01*
X207560152Y-91447857D02*
X207655390Y-91495476D01*
X207655390Y-91495476D02*
X207703009Y-91543095D01*
X207703009Y-91543095D02*
X207750628Y-91638333D01*
X207750628Y-91638333D02*
X207750628Y-92019285D01*
X208226819Y-90495476D02*
X208226819Y-91066904D01*
X208226819Y-90781190D02*
X207226819Y-90781190D01*
X207226819Y-90781190D02*
X207369676Y-90876428D01*
X207369676Y-90876428D02*
X207464914Y-90971666D01*
X207464914Y-90971666D02*
X207512533Y-91066904D01*
X207226819Y-90162142D02*
X207226819Y-89495476D01*
X207226819Y-89495476D02*
X208226819Y-89924047D01*
X135419666Y-90538009D02*
X135086333Y-90538009D01*
X135086333Y-91061819D02*
X135086333Y-90061819D01*
X135086333Y-90061819D02*
X135562523Y-90061819D01*
X136467285Y-91061819D02*
X135895857Y-91061819D01*
X136181571Y-91061819D02*
X136181571Y-90061819D01*
X136181571Y-90061819D02*
X136086333Y-90204676D01*
X136086333Y-90204676D02*
X135991095Y-90299914D01*
X135991095Y-90299914D02*
X135895857Y-90347533D01*
X218037580Y-96273857D02*
X218085200Y-96321476D01*
X218085200Y-96321476D02*
X218132819Y-96464333D01*
X218132819Y-96464333D02*
X218132819Y-96559571D01*
X218132819Y-96559571D02*
X218085200Y-96702428D01*
X218085200Y-96702428D02*
X217989961Y-96797666D01*
X217989961Y-96797666D02*
X217894723Y-96845285D01*
X217894723Y-96845285D02*
X217704247Y-96892904D01*
X217704247Y-96892904D02*
X217561390Y-96892904D01*
X217561390Y-96892904D02*
X217370914Y-96845285D01*
X217370914Y-96845285D02*
X217275676Y-96797666D01*
X217275676Y-96797666D02*
X217180438Y-96702428D01*
X217180438Y-96702428D02*
X217132819Y-96559571D01*
X217132819Y-96559571D02*
X217132819Y-96464333D01*
X217132819Y-96464333D02*
X217180438Y-96321476D01*
X217180438Y-96321476D02*
X217228057Y-96273857D01*
X218132819Y-95321476D02*
X218132819Y-95892904D01*
X218132819Y-95607190D02*
X217132819Y-95607190D01*
X217132819Y-95607190D02*
X217275676Y-95702428D01*
X217275676Y-95702428D02*
X217370914Y-95797666D01*
X217370914Y-95797666D02*
X217418533Y-95892904D01*
X217228057Y-94940523D02*
X217180438Y-94892904D01*
X217180438Y-94892904D02*
X217132819Y-94797666D01*
X217132819Y-94797666D02*
X217132819Y-94559571D01*
X217132819Y-94559571D02*
X217180438Y-94464333D01*
X217180438Y-94464333D02*
X217228057Y-94416714D01*
X217228057Y-94416714D02*
X217323295Y-94369095D01*
X217323295Y-94369095D02*
X217418533Y-94369095D01*
X217418533Y-94369095D02*
X217561390Y-94416714D01*
X217561390Y-94416714D02*
X218132819Y-94988142D01*
X218132819Y-94988142D02*
X218132819Y-94369095D01*
X219194142Y-79861580D02*
X219146523Y-79909200D01*
X219146523Y-79909200D02*
X219003666Y-79956819D01*
X219003666Y-79956819D02*
X218908428Y-79956819D01*
X218908428Y-79956819D02*
X218765571Y-79909200D01*
X218765571Y-79909200D02*
X218670333Y-79813961D01*
X218670333Y-79813961D02*
X218622714Y-79718723D01*
X218622714Y-79718723D02*
X218575095Y-79528247D01*
X218575095Y-79528247D02*
X218575095Y-79385390D01*
X218575095Y-79385390D02*
X218622714Y-79194914D01*
X218622714Y-79194914D02*
X218670333Y-79099676D01*
X218670333Y-79099676D02*
X218765571Y-79004438D01*
X218765571Y-79004438D02*
X218908428Y-78956819D01*
X218908428Y-78956819D02*
X219003666Y-78956819D01*
X219003666Y-78956819D02*
X219146523Y-79004438D01*
X219146523Y-79004438D02*
X219194142Y-79052057D01*
X220146523Y-79956819D02*
X219575095Y-79956819D01*
X219860809Y-79956819D02*
X219860809Y-78956819D01*
X219860809Y-78956819D02*
X219765571Y-79099676D01*
X219765571Y-79099676D02*
X219670333Y-79194914D01*
X219670333Y-79194914D02*
X219575095Y-79242533D01*
X221003666Y-79290152D02*
X221003666Y-79956819D01*
X220765571Y-78909200D02*
X220527476Y-79623485D01*
X220527476Y-79623485D02*
X221146523Y-79623485D01*
X152188057Y-94837238D02*
X152140438Y-94932476D01*
X152140438Y-94932476D02*
X152045200Y-95027714D01*
X152045200Y-95027714D02*
X151902342Y-95170571D01*
X151902342Y-95170571D02*
X151854723Y-95265809D01*
X151854723Y-95265809D02*
X151854723Y-95361047D01*
X152092819Y-95313428D02*
X152045200Y-95408666D01*
X152045200Y-95408666D02*
X151949961Y-95503904D01*
X151949961Y-95503904D02*
X151759485Y-95551523D01*
X151759485Y-95551523D02*
X151426152Y-95551523D01*
X151426152Y-95551523D02*
X151235676Y-95503904D01*
X151235676Y-95503904D02*
X151140438Y-95408666D01*
X151140438Y-95408666D02*
X151092819Y-95313428D01*
X151092819Y-95313428D02*
X151092819Y-95122952D01*
X151092819Y-95122952D02*
X151140438Y-95027714D01*
X151140438Y-95027714D02*
X151235676Y-94932476D01*
X151235676Y-94932476D02*
X151426152Y-94884857D01*
X151426152Y-94884857D02*
X151759485Y-94884857D01*
X151759485Y-94884857D02*
X151949961Y-94932476D01*
X151949961Y-94932476D02*
X152045200Y-95027714D01*
X152045200Y-95027714D02*
X152092819Y-95122952D01*
X152092819Y-95122952D02*
X152092819Y-95313428D01*
X152092819Y-93932476D02*
X152092819Y-94503904D01*
X152092819Y-94218190D02*
X151092819Y-94218190D01*
X151092819Y-94218190D02*
X151235676Y-94313428D01*
X151235676Y-94313428D02*
X151330914Y-94408666D01*
X151330914Y-94408666D02*
X151378533Y-94503904D01*
X132638493Y-80763819D02*
X132305160Y-80287628D01*
X132067065Y-80763819D02*
X132067065Y-79763819D01*
X132067065Y-79763819D02*
X132448017Y-79763819D01*
X132448017Y-79763819D02*
X132543255Y-79811438D01*
X132543255Y-79811438D02*
X132590874Y-79859057D01*
X132590874Y-79859057D02*
X132638493Y-79954295D01*
X132638493Y-79954295D02*
X132638493Y-80097152D01*
X132638493Y-80097152D02*
X132590874Y-80192390D01*
X132590874Y-80192390D02*
X132543255Y-80240009D01*
X132543255Y-80240009D02*
X132448017Y-80287628D01*
X132448017Y-80287628D02*
X132067065Y-80287628D01*
X133590874Y-80763819D02*
X133019446Y-80763819D01*
X133305160Y-80763819D02*
X133305160Y-79763819D01*
X133305160Y-79763819D02*
X133209922Y-79906676D01*
X133209922Y-79906676D02*
X133114684Y-80001914D01*
X133114684Y-80001914D02*
X133019446Y-80049533D01*
X133971827Y-79859057D02*
X134019446Y-79811438D01*
X134019446Y-79811438D02*
X134114684Y-79763819D01*
X134114684Y-79763819D02*
X134352779Y-79763819D01*
X134352779Y-79763819D02*
X134448017Y-79811438D01*
X134448017Y-79811438D02*
X134495636Y-79859057D01*
X134495636Y-79859057D02*
X134543255Y-79954295D01*
X134543255Y-79954295D02*
X134543255Y-80049533D01*
X134543255Y-80049533D02*
X134495636Y-80192390D01*
X134495636Y-80192390D02*
X133924208Y-80763819D01*
X133924208Y-80763819D02*
X134543255Y-80763819D01*
X189616335Y-81443998D02*
X189140144Y-81777331D01*
X189616335Y-82015426D02*
X188616335Y-82015426D01*
X188616335Y-82015426D02*
X188616335Y-81634474D01*
X188616335Y-81634474D02*
X188663954Y-81539236D01*
X188663954Y-81539236D02*
X188711573Y-81491617D01*
X188711573Y-81491617D02*
X188806811Y-81443998D01*
X188806811Y-81443998D02*
X188949668Y-81443998D01*
X188949668Y-81443998D02*
X189044906Y-81491617D01*
X189044906Y-81491617D02*
X189092525Y-81539236D01*
X189092525Y-81539236D02*
X189140144Y-81634474D01*
X189140144Y-81634474D02*
X189140144Y-82015426D01*
X189616335Y-80491617D02*
X189616335Y-81063045D01*
X189616335Y-80777331D02*
X188616335Y-80777331D01*
X188616335Y-80777331D02*
X188759192Y-80872569D01*
X188759192Y-80872569D02*
X188854430Y-80967807D01*
X188854430Y-80967807D02*
X188902049Y-81063045D01*
X188949668Y-79634474D02*
X189616335Y-79634474D01*
X188568716Y-79872569D02*
X189283001Y-80110664D01*
X189283001Y-80110664D02*
X189283001Y-79491617D01*
X196857278Y-94313580D02*
X196857278Y-95027865D01*
X196857278Y-95027865D02*
X196809659Y-95170722D01*
X196809659Y-95170722D02*
X196714421Y-95265961D01*
X196714421Y-95265961D02*
X196571564Y-95313580D01*
X196571564Y-95313580D02*
X196476326Y-95313580D01*
X197857278Y-95313580D02*
X197285850Y-95313580D01*
X197571564Y-95313580D02*
X197571564Y-94313580D01*
X197571564Y-94313580D02*
X197476326Y-94456437D01*
X197476326Y-94456437D02*
X197381088Y-94551675D01*
X197381088Y-94551675D02*
X197285850Y-94599294D01*
X198809659Y-95313580D02*
X198238231Y-95313580D01*
X198523945Y-95313580D02*
X198523945Y-94313580D01*
X198523945Y-94313580D02*
X198428707Y-94456437D01*
X198428707Y-94456437D02*
X198333469Y-94551675D01*
X198333469Y-94551675D02*
X198238231Y-94599294D01*
X163478628Y-88826190D02*
X163954819Y-88826190D01*
X162954819Y-89159523D02*
X163478628Y-88826190D01*
X163478628Y-88826190D02*
X162954819Y-88492857D01*
X163288152Y-87730952D02*
X163954819Y-87730952D01*
X162907200Y-87969047D02*
X163621485Y-88207142D01*
X163621485Y-88207142D02*
X163621485Y-87588095D01*
X154951580Y-92863666D02*
X154999200Y-92911285D01*
X154999200Y-92911285D02*
X155046819Y-93054142D01*
X155046819Y-93054142D02*
X155046819Y-93149380D01*
X155046819Y-93149380D02*
X154999200Y-93292237D01*
X154999200Y-93292237D02*
X154903961Y-93387475D01*
X154903961Y-93387475D02*
X154808723Y-93435094D01*
X154808723Y-93435094D02*
X154618247Y-93482713D01*
X154618247Y-93482713D02*
X154475390Y-93482713D01*
X154475390Y-93482713D02*
X154284914Y-93435094D01*
X154284914Y-93435094D02*
X154189676Y-93387475D01*
X154189676Y-93387475D02*
X154094438Y-93292237D01*
X154094438Y-93292237D02*
X154046819Y-93149380D01*
X154046819Y-93149380D02*
X154046819Y-93054142D01*
X154046819Y-93054142D02*
X154094438Y-92911285D01*
X154094438Y-92911285D02*
X154142057Y-92863666D01*
X154046819Y-92530332D02*
X154046819Y-91863666D01*
X154046819Y-91863666D02*
X155046819Y-92292237D01*
X145320833Y-93804819D02*
X144987500Y-93328628D01*
X144749405Y-93804819D02*
X144749405Y-92804819D01*
X144749405Y-92804819D02*
X145130357Y-92804819D01*
X145130357Y-92804819D02*
X145225595Y-92852438D01*
X145225595Y-92852438D02*
X145273214Y-92900057D01*
X145273214Y-92900057D02*
X145320833Y-92995295D01*
X145320833Y-92995295D02*
X145320833Y-93138152D01*
X145320833Y-93138152D02*
X145273214Y-93233390D01*
X145273214Y-93233390D02*
X145225595Y-93281009D01*
X145225595Y-93281009D02*
X145130357Y-93328628D01*
X145130357Y-93328628D02*
X144749405Y-93328628D01*
X145701786Y-92900057D02*
X145749405Y-92852438D01*
X145749405Y-92852438D02*
X145844643Y-92804819D01*
X145844643Y-92804819D02*
X146082738Y-92804819D01*
X146082738Y-92804819D02*
X146177976Y-92852438D01*
X146177976Y-92852438D02*
X146225595Y-92900057D01*
X146225595Y-92900057D02*
X146273214Y-92995295D01*
X146273214Y-92995295D02*
X146273214Y-93090533D01*
X146273214Y-93090533D02*
X146225595Y-93233390D01*
X146225595Y-93233390D02*
X145654167Y-93804819D01*
X145654167Y-93804819D02*
X146273214Y-93804819D01*
X142835333Y-93577580D02*
X142787714Y-93625200D01*
X142787714Y-93625200D02*
X142644857Y-93672819D01*
X142644857Y-93672819D02*
X142549619Y-93672819D01*
X142549619Y-93672819D02*
X142406762Y-93625200D01*
X142406762Y-93625200D02*
X142311524Y-93529961D01*
X142311524Y-93529961D02*
X142263905Y-93434723D01*
X142263905Y-93434723D02*
X142216286Y-93244247D01*
X142216286Y-93244247D02*
X142216286Y-93101390D01*
X142216286Y-93101390D02*
X142263905Y-92910914D01*
X142263905Y-92910914D02*
X142311524Y-92815676D01*
X142311524Y-92815676D02*
X142406762Y-92720438D01*
X142406762Y-92720438D02*
X142549619Y-92672819D01*
X142549619Y-92672819D02*
X142644857Y-92672819D01*
X142644857Y-92672819D02*
X142787714Y-92720438D01*
X142787714Y-92720438D02*
X142835333Y-92768057D01*
X143692476Y-92672819D02*
X143502000Y-92672819D01*
X143502000Y-92672819D02*
X143406762Y-92720438D01*
X143406762Y-92720438D02*
X143359143Y-92768057D01*
X143359143Y-92768057D02*
X143263905Y-92910914D01*
X143263905Y-92910914D02*
X143216286Y-93101390D01*
X143216286Y-93101390D02*
X143216286Y-93482342D01*
X143216286Y-93482342D02*
X143263905Y-93577580D01*
X143263905Y-93577580D02*
X143311524Y-93625200D01*
X143311524Y-93625200D02*
X143406762Y-93672819D01*
X143406762Y-93672819D02*
X143597238Y-93672819D01*
X143597238Y-93672819D02*
X143692476Y-93625200D01*
X143692476Y-93625200D02*
X143740095Y-93577580D01*
X143740095Y-93577580D02*
X143787714Y-93482342D01*
X143787714Y-93482342D02*
X143787714Y-93244247D01*
X143787714Y-93244247D02*
X143740095Y-93149009D01*
X143740095Y-93149009D02*
X143692476Y-93101390D01*
X143692476Y-93101390D02*
X143597238Y-93053771D01*
X143597238Y-93053771D02*
X143406762Y-93053771D01*
X143406762Y-93053771D02*
X143311524Y-93101390D01*
X143311524Y-93101390D02*
X143263905Y-93149009D01*
X143263905Y-93149009D02*
X143216286Y-93244247D01*
X147344319Y-83020666D02*
X146868128Y-83353999D01*
X147344319Y-83592094D02*
X146344319Y-83592094D01*
X146344319Y-83592094D02*
X146344319Y-83211142D01*
X146344319Y-83211142D02*
X146391938Y-83115904D01*
X146391938Y-83115904D02*
X146439557Y-83068285D01*
X146439557Y-83068285D02*
X146534795Y-83020666D01*
X146534795Y-83020666D02*
X146677652Y-83020666D01*
X146677652Y-83020666D02*
X146772890Y-83068285D01*
X146772890Y-83068285D02*
X146820509Y-83115904D01*
X146820509Y-83115904D02*
X146868128Y-83211142D01*
X146868128Y-83211142D02*
X146868128Y-83592094D01*
X146344319Y-82687332D02*
X146344319Y-82020666D01*
X146344319Y-82020666D02*
X147344319Y-82449237D01*
X163808580Y-91606666D02*
X163856200Y-91654285D01*
X163856200Y-91654285D02*
X163903819Y-91797142D01*
X163903819Y-91797142D02*
X163903819Y-91892380D01*
X163903819Y-91892380D02*
X163856200Y-92035237D01*
X163856200Y-92035237D02*
X163760961Y-92130475D01*
X163760961Y-92130475D02*
X163665723Y-92178094D01*
X163665723Y-92178094D02*
X163475247Y-92225713D01*
X163475247Y-92225713D02*
X163332390Y-92225713D01*
X163332390Y-92225713D02*
X163141914Y-92178094D01*
X163141914Y-92178094D02*
X163046676Y-92130475D01*
X163046676Y-92130475D02*
X162951438Y-92035237D01*
X162951438Y-92035237D02*
X162903819Y-91892380D01*
X162903819Y-91892380D02*
X162903819Y-91797142D01*
X162903819Y-91797142D02*
X162951438Y-91654285D01*
X162951438Y-91654285D02*
X162999057Y-91606666D01*
X162999057Y-91225713D02*
X162951438Y-91178094D01*
X162951438Y-91178094D02*
X162903819Y-91082856D01*
X162903819Y-91082856D02*
X162903819Y-90844761D01*
X162903819Y-90844761D02*
X162951438Y-90749523D01*
X162951438Y-90749523D02*
X162999057Y-90701904D01*
X162999057Y-90701904D02*
X163094295Y-90654285D01*
X163094295Y-90654285D02*
X163189533Y-90654285D01*
X163189533Y-90654285D02*
X163332390Y-90701904D01*
X163332390Y-90701904D02*
X163903819Y-91273332D01*
X163903819Y-91273332D02*
X163903819Y-90654285D01*
X176130295Y-82556285D02*
X175749342Y-82822952D01*
X176130295Y-83013428D02*
X175330295Y-83013428D01*
X175330295Y-83013428D02*
X175330295Y-82708666D01*
X175330295Y-82708666D02*
X175368390Y-82632476D01*
X175368390Y-82632476D02*
X175406485Y-82594381D01*
X175406485Y-82594381D02*
X175482676Y-82556285D01*
X175482676Y-82556285D02*
X175596961Y-82556285D01*
X175596961Y-82556285D02*
X175673152Y-82594381D01*
X175673152Y-82594381D02*
X175711247Y-82632476D01*
X175711247Y-82632476D02*
X175749342Y-82708666D01*
X175749342Y-82708666D02*
X175749342Y-83013428D01*
X176130295Y-81794381D02*
X176130295Y-82251524D01*
X176130295Y-82022952D02*
X175330295Y-82022952D01*
X175330295Y-82022952D02*
X175444580Y-82099143D01*
X175444580Y-82099143D02*
X175520771Y-82175333D01*
X175520771Y-82175333D02*
X175558866Y-82251524D01*
X175330295Y-81070571D02*
X175330295Y-81451523D01*
X175330295Y-81451523D02*
X175711247Y-81489619D01*
X175711247Y-81489619D02*
X175673152Y-81451523D01*
X175673152Y-81451523D02*
X175635057Y-81375333D01*
X175635057Y-81375333D02*
X175635057Y-81184857D01*
X175635057Y-81184857D02*
X175673152Y-81108666D01*
X175673152Y-81108666D02*
X175711247Y-81070571D01*
X175711247Y-81070571D02*
X175787438Y-81032476D01*
X175787438Y-81032476D02*
X175977914Y-81032476D01*
X175977914Y-81032476D02*
X176054104Y-81070571D01*
X176054104Y-81070571D02*
X176092200Y-81108666D01*
X176092200Y-81108666D02*
X176130295Y-81184857D01*
X176130295Y-81184857D02*
X176130295Y-81375333D01*
X176130295Y-81375333D02*
X176092200Y-81451523D01*
X176092200Y-81451523D02*
X176054104Y-81489619D01*
D12*
%TO.C,D14*%
X206344000Y-95077000D02*
X206084000Y-95077000D01*
X206344000Y-95677000D02*
X206084000Y-95677000D01*
D13*
X208564000Y-95377000D02*
G75*
G02*
X208364000Y-95377000I-100000J0D01*
G01*
X208364000Y-95377000D02*
G75*
G02*
X208564000Y-95377000I100000J0D01*
G01*
%TO.C,U8*%
D11*
X128143000Y-96774000D02*
X110363000Y-96774000D01*
X110363000Y-84074000D01*
X128143000Y-84074000D01*
X128143000Y-96774000D01*
D14*
%TO.C,R6*%
X149176199Y-83522908D02*
X148722071Y-83522908D01*
X149176199Y-84992908D02*
X148722071Y-84992908D01*
%TO.C,U10*%
X171662500Y-83390000D02*
X169462500Y-83390000D01*
X171662500Y-83390000D02*
X173862500Y-83390000D01*
X171662500Y-90160000D02*
X169462500Y-90160000D01*
X171662500Y-90160000D02*
X173862500Y-90160000D01*
X167802500Y-83850000D02*
X167472500Y-84090000D01*
X167472500Y-83610000D01*
X167802500Y-83850000D01*
G36*
X167802500Y-83850000D02*
G01*
X167472500Y-84090000D01*
X167472500Y-83610000D01*
X167802500Y-83850000D01*
G37*
%TO.C,R8*%
X142504500Y-82626936D02*
X142504500Y-83081064D01*
X143974500Y-82626936D02*
X143974500Y-83081064D01*
%TO.C,Y1*%
X175625000Y-90450000D02*
X178925000Y-90450000D01*
X178925000Y-90450000D02*
X178925000Y-86450000D01*
%TO.C,D9*%
X128872500Y-83129000D02*
X131557500Y-83129000D01*
X131557500Y-81209000D02*
X128872500Y-81209000D01*
X131557500Y-83129000D02*
X131557500Y-81209000D01*
%TO.C,U11*%
X183012500Y-83390000D02*
X180812500Y-83390000D01*
X183012500Y-83390000D02*
X185212500Y-83390000D01*
X183012500Y-90160000D02*
X180812500Y-90160000D01*
X183012500Y-90160000D02*
X185212500Y-90160000D01*
X179152500Y-83850000D02*
X178822500Y-84090000D01*
X178822500Y-83610000D01*
X179152500Y-83850000D01*
G36*
X179152500Y-83850000D02*
G01*
X178822500Y-84090000D01*
X178822500Y-83610000D01*
X179152500Y-83850000D01*
G37*
%TO.C,C1*%
X166210534Y-84484940D02*
X165688030Y-84484940D01*
X166210534Y-85954940D02*
X165688030Y-85954940D01*
%TO.C,R3*%
X149170259Y-89419639D02*
X148716131Y-89419639D01*
X149170259Y-90889639D02*
X148716131Y-90889639D01*
%TO.C,C5*%
X215392580Y-94359000D02*
X215111420Y-94359000D01*
X215392580Y-95379000D02*
X215111420Y-95379000D01*
%TO.C,R4*%
X149173064Y-87453000D02*
X148718936Y-87453000D01*
X149173064Y-88923000D02*
X148718936Y-88923000D01*
%TO.C,C13*%
X128424000Y-94556252D02*
X128424000Y-94033748D01*
X129894000Y-94556252D02*
X129894000Y-94033748D01*
%TO.C,J14*%
X130491000Y-85533000D02*
X131891000Y-85533000D01*
X130491000Y-86933000D02*
X130491000Y-85533000D01*
X131891000Y-85533000D02*
X131891000Y-86933000D01*
X131891000Y-86933000D02*
X130491000Y-86933000D01*
%TO.C,R10*%
X138504500Y-82626936D02*
X138504500Y-83081064D01*
X139974500Y-82626936D02*
X139974500Y-83081064D01*
%TO.C,J12*%
X128459000Y-85533000D02*
X129859000Y-85533000D01*
X128459000Y-86933000D02*
X128459000Y-85533000D01*
X129859000Y-85533000D02*
X129859000Y-86933000D01*
X129859000Y-86933000D02*
X128459000Y-86933000D01*
D15*
%TO.C,U7*%
X180850000Y-79303000D02*
X180850000Y-79557000D01*
X180850000Y-80573000D02*
X180850000Y-80827000D01*
X180850000Y-81843000D02*
X180850000Y-82097000D01*
X181350000Y-78300000D02*
X180950000Y-78300000D01*
X181350000Y-78300000D02*
X184550000Y-78300000D01*
X181350000Y-83100000D02*
X180950000Y-83100000D01*
X181350000Y-83100000D02*
X181350000Y-78300000D01*
X184550000Y-83100000D02*
X181350000Y-83100000D01*
X184660000Y-79303000D02*
X184660000Y-79557000D01*
X184660000Y-80573000D02*
X184660000Y-80827000D01*
X184660000Y-81843000D02*
X184660000Y-82097000D01*
D13*
X181961000Y-78795000D02*
G75*
G02*
X181761000Y-78795000I-100000J0D01*
G01*
X181761000Y-78795000D02*
G75*
G02*
X181961000Y-78795000I100000J0D01*
G01*
D14*
%TO.C,C8*%
X164311420Y-82040000D02*
X164592580Y-82040000D01*
X164311420Y-83060000D02*
X164592580Y-83060000D01*
D12*
%TO.C,U4*%
X140826500Y-86315000D02*
X141246500Y-86315000D01*
X140826500Y-86725000D02*
X140826500Y-86315000D01*
X140826500Y-90315000D02*
X140826500Y-89945000D01*
X141186500Y-90315000D02*
X140826500Y-90315000D01*
X144436500Y-90315000D02*
X144826500Y-90315000D01*
X144826500Y-86315000D02*
X144396500Y-86315000D01*
X144826500Y-86735000D02*
X144826500Y-86315000D01*
X144826500Y-90315000D02*
X144826500Y-89945000D01*
D13*
X145886500Y-89575000D02*
G75*
G02*
X145686500Y-89575000I-100000J0D01*
G01*
X145686500Y-89575000D02*
G75*
G02*
X145886500Y-89575000I100000J0D01*
G01*
D14*
%TO.C,U9*%
X213400000Y-80500000D02*
X213400000Y-81300000D01*
X213400000Y-94100000D02*
X213400000Y-93300000D01*
X213600000Y-80700000D02*
X230200000Y-80700000D01*
X213600000Y-93900000D02*
X213600000Y-80700000D01*
X214200000Y-80500000D02*
X213400000Y-80500000D01*
X214200000Y-94100000D02*
X213400000Y-94100000D01*
X224800000Y-80700000D02*
X224800000Y-93900000D01*
X230200000Y-80700000D02*
X230200000Y-93900000D01*
X230200000Y-93900000D02*
X213600000Y-93900000D01*
X230400000Y-81375000D02*
X230400000Y-80525000D01*
X230400000Y-93350000D02*
X230400000Y-94100000D01*
X230400000Y-94100000D02*
X229800000Y-94100000D01*
%TO.C,R16*%
X201094804Y-83038064D02*
X201094804Y-83492192D01*
X202564804Y-83038064D02*
X202564804Y-83492192D01*
%TO.C,C15*%
X190042748Y-93070000D02*
X191465252Y-93070000D01*
X190042748Y-94890000D02*
X191465252Y-94890000D01*
%TO.C,R11*%
X223331163Y-94398997D02*
X223785291Y-94398997D01*
X223331163Y-95868997D02*
X223785291Y-95868997D01*
%TO.C,D11*%
X207840000Y-92600000D02*
X207840000Y-93800000D01*
X209800000Y-92600000D02*
X207840000Y-92600000D01*
X209800000Y-93800000D02*
X207840000Y-93800000D01*
%TO.C,C11*%
X187196000Y-85317420D02*
X187196000Y-85598580D01*
X188216000Y-85317420D02*
X188216000Y-85598580D01*
%TO.C,C9*%
X169825580Y-90549000D02*
X169544420Y-90549000D01*
X169825580Y-91569000D02*
X169544420Y-91569000D01*
%TO.C,U2*%
D11*
X159431490Y-77997439D02*
X225431490Y-77997439D01*
X225431490Y-97197439D01*
X159431490Y-97197439D01*
X159431490Y-77997439D01*
D14*
%TO.C,R18*%
X205766936Y-92737000D02*
X206221064Y-92737000D01*
X205766936Y-94207000D02*
X206221064Y-94207000D01*
%TO.C,J15*%
X132523000Y-83501000D02*
X133923000Y-83501000D01*
X132523000Y-84901000D02*
X132523000Y-83501000D01*
X133923000Y-83501000D02*
X133923000Y-84901000D01*
X133923000Y-84901000D02*
X132523000Y-84901000D01*
%TO.C,R5*%
X149170226Y-85484460D02*
X148716098Y-85484460D01*
X149170226Y-86954460D02*
X148716098Y-86954460D01*
%TO.C,C4*%
X177020394Y-90843373D02*
X177542898Y-90843373D01*
X177020394Y-92313373D02*
X177542898Y-92313373D01*
%TO.C,C17*%
X202824616Y-92671761D02*
X202302112Y-92671761D01*
X202824616Y-94141761D02*
X202302112Y-94141761D01*
%TO.C,C10*%
X181128580Y-90549000D02*
X180847420Y-90549000D01*
X181128580Y-91569000D02*
X180847420Y-91569000D01*
%TO.C,J16*%
X132523000Y-85533000D02*
X133923000Y-85533000D01*
X132523000Y-86933000D02*
X132523000Y-85533000D01*
X133923000Y-85533000D02*
X133923000Y-86933000D01*
X133923000Y-86933000D02*
X132523000Y-86933000D01*
%TO.C,C3*%
X177534606Y-84581402D02*
X177012102Y-84581402D01*
X177534606Y-86051402D02*
X177012102Y-86051402D01*
D15*
%TO.C,U6*%
X169697975Y-79253000D02*
X169697975Y-79507000D01*
X169697975Y-80523000D02*
X169697975Y-80777000D01*
X169697975Y-81793000D02*
X169697975Y-82047000D01*
X170197975Y-78250000D02*
X169797975Y-78250000D01*
X170197975Y-78250000D02*
X173397975Y-78250000D01*
X170197975Y-83050000D02*
X169797975Y-83050000D01*
X170197975Y-83050000D02*
X170197975Y-78250000D01*
X173397975Y-83050000D02*
X170197975Y-83050000D01*
X173507975Y-79253000D02*
X173507975Y-79507000D01*
X173507975Y-80523000D02*
X173507975Y-80777000D01*
X173507975Y-81793000D02*
X173507975Y-82047000D01*
D13*
X170808975Y-78745000D02*
G75*
G02*
X170608975Y-78745000I-100000J0D01*
G01*
X170608975Y-78745000D02*
G75*
G02*
X170808975Y-78745000I100000J0D01*
G01*
D14*
%TO.C,C16*%
X211785252Y-94213000D02*
X210362748Y-94213000D01*
X211785252Y-96033000D02*
X210362748Y-96033000D01*
%TO.C,D10*%
X201982451Y-88361586D02*
X201982451Y-90361586D01*
X201982451Y-88361586D02*
X205992451Y-88361586D01*
X201982451Y-90361586D02*
X205992451Y-90361586D01*
%TO.C,D12*%
X212000000Y-90300000D02*
X212000000Y-92260000D01*
X212000000Y-92260000D02*
X213200000Y-92260000D01*
X213200000Y-90300000D02*
X213200000Y-92260000D01*
%TO.C,J10*%
X203565000Y-81037000D02*
X203565000Y-78307000D01*
X203565000Y-84637000D02*
X203565000Y-83737000D01*
X212635000Y-87717000D02*
X203685000Y-87717000D01*
X212755000Y-78307000D02*
X203565000Y-78307000D01*
X212755000Y-81037000D02*
X212755000Y-78307000D01*
X212755000Y-84637000D02*
X212755000Y-83737000D01*
%TO.C,R1*%
X148772936Y-91665000D02*
X149227064Y-91665000D01*
X148772936Y-93135000D02*
X149227064Y-93135000D01*
%TO.C,R17*%
X208665000Y-91027064D02*
X208665000Y-90572936D01*
X210135000Y-91027064D02*
X210135000Y-90572936D01*
%TO.C,F1*%
X130778000Y-91482000D02*
X130778000Y-91942000D01*
X130778000Y-91482000D02*
X140728000Y-91482000D01*
X130778000Y-96272000D02*
X130778000Y-96732000D01*
X130778000Y-96732000D02*
X140728000Y-96732000D01*
X140728000Y-91482000D02*
X140728000Y-91942000D01*
X140728000Y-96732000D02*
X140728000Y-96272000D01*
%TO.C,C12*%
X220418252Y-94388000D02*
X219895748Y-94388000D01*
X220418252Y-95858000D02*
X219895748Y-95858000D01*
%TO.C,D13*%
X210550000Y-92750000D02*
X210550000Y-90790000D01*
X211750000Y-90790000D02*
X210550000Y-90790000D01*
X211750000Y-92750000D02*
X211750000Y-90790000D01*
%TO.C,C14*%
X222877748Y-78767000D02*
X223400252Y-78767000D01*
X222877748Y-80237000D02*
X223400252Y-80237000D01*
%TO.C,Q1*%
X148267687Y-94204240D02*
X148267687Y-93544240D01*
X148267687Y-95864240D02*
X148267687Y-95204240D01*
X149677687Y-93544240D02*
X148267687Y-93544240D01*
X149677687Y-95864240D02*
X148267687Y-95864240D01*
X150287687Y-96174240D02*
X149807687Y-96174240D01*
X150047687Y-95844240D01*
X150287687Y-96174240D01*
G36*
X150287687Y-96174240D02*
G01*
X149807687Y-96174240D01*
X150047687Y-95844240D01*
X150287687Y-96174240D01*
G37*
%TO.C,R12*%
X130124564Y-79529000D02*
X129670436Y-79529000D01*
X130124564Y-80999000D02*
X129670436Y-80999000D01*
%TO.C,R13*%
X126392000Y-80036936D02*
X126392000Y-80491064D01*
X127862000Y-80036936D02*
X127862000Y-80491064D01*
%TO.C,R14*%
X186776516Y-80574077D02*
X186776516Y-81028205D01*
X188246516Y-80574077D02*
X188246516Y-81028205D01*
D13*
%TO.C,J11*%
X191441802Y-92103761D02*
X190391802Y-92103761D01*
X195691802Y-92103761D02*
X193591802Y-92103761D01*
X198891802Y-92103761D02*
X197841802Y-92103761D01*
X199241802Y-84043761D02*
X190391802Y-84043761D01*
D14*
%TO.C,R9*%
X140504500Y-82626936D02*
X140504500Y-83081064D01*
X141974500Y-82626936D02*
X141974500Y-83081064D01*
%TO.C,Y4*%
X164300000Y-90350000D02*
X167600000Y-90350000D01*
X167600000Y-90350000D02*
X167600000Y-86350000D01*
%TO.C,JP2*%
X175900000Y-79900000D02*
X175900000Y-79300000D01*
X176600000Y-78600000D02*
X178000000Y-78600000D01*
X178000000Y-80600000D02*
X176600000Y-80600000D01*
X178700000Y-79300000D02*
X178700000Y-79900000D01*
X175900000Y-79300000D02*
G75*
G02*
X176600000Y-78600000I699999J1D01*
G01*
X176600000Y-80600000D02*
G75*
G02*
X175900000Y-79900000I-1J699999D01*
G01*
X178000000Y-78600000D02*
G75*
G02*
X178700000Y-79300000I0J-700000D01*
G01*
X178700000Y-79900000D02*
G75*
G02*
X178000000Y-80600000I-700000J0D01*
G01*
%TO.C,C7*%
X152652000Y-92556420D02*
X152652000Y-92837580D01*
X153672000Y-92556420D02*
X153672000Y-92837580D01*
%TO.C,R2*%
X145260436Y-94265000D02*
X145714564Y-94265000D01*
X145260436Y-95735000D02*
X145714564Y-95735000D01*
%TO.C,C6*%
X142492000Y-95160220D02*
X142492000Y-95441380D01*
X143512000Y-95160220D02*
X143512000Y-95441380D01*
%TO.C,U1*%
D11*
X159350000Y-97200000D02*
X93350000Y-97200000D01*
X93350000Y-78000000D01*
X159350000Y-78000000D01*
X159350000Y-97200000D01*
D14*
%TO.C,R19*%
X204349429Y-90736692D02*
X203895301Y-90736692D01*
X204349429Y-92206692D02*
X203895301Y-92206692D01*
%TO.C,R7*%
X144504500Y-82626936D02*
X144504500Y-83081064D01*
X145974500Y-82626936D02*
X145974500Y-83081064D01*
%TO.C,C2*%
X165686723Y-90715000D02*
X166209227Y-90715000D01*
X165686723Y-92185000D02*
X166209227Y-92185000D01*
%TO.C,R15*%
X176561434Y-82357347D02*
X176561434Y-82811475D01*
X178031434Y-82357347D02*
X178031434Y-82811475D01*
%TD*%
%LPC*%
D16*
%TO.C,D14*%
X205164000Y-95377000D03*
X207264000Y-95377000D03*
%TD*%
D17*
%TO.C,U8*%
X126873000Y-95504000D03*
X126873000Y-92964000D03*
X126873000Y-90424000D03*
X126873000Y-87884000D03*
X126873000Y-85344000D03*
%TD*%
D18*
%TO.C,R6*%
X149861635Y-84257908D03*
X148036635Y-84257908D03*
%TD*%
D19*
%TO.C,U10*%
X168800000Y-83850000D03*
X168800000Y-84500000D03*
X168800000Y-85150000D03*
X168800000Y-85800000D03*
X168800000Y-86450000D03*
X168800000Y-87100000D03*
X168800000Y-87750000D03*
X168800000Y-88400000D03*
X168800000Y-89050000D03*
X168800000Y-89700000D03*
X174525000Y-89700000D03*
X174525000Y-89050000D03*
X174525000Y-88400000D03*
X174525000Y-87750000D03*
X174525000Y-87100000D03*
X174525000Y-86450000D03*
X174525000Y-85800000D03*
X174525000Y-85150000D03*
X174525000Y-84500000D03*
X174525000Y-83850000D03*
%TD*%
D20*
%TO.C,R8*%
X143239500Y-81941500D03*
X143239500Y-83766500D03*
%TD*%
D21*
%TO.C,Y1*%
X178125000Y-89550000D03*
X178125000Y-87350000D03*
X176425000Y-87350000D03*
X176425000Y-89550000D03*
%TD*%
D22*
%TO.C,D9*%
X130810000Y-82169000D03*
X128935000Y-82169000D03*
%TD*%
D19*
%TO.C,U11*%
X180150000Y-83850000D03*
X180150000Y-84500000D03*
X180150000Y-85150000D03*
X180150000Y-85800000D03*
X180150000Y-86450000D03*
X180150000Y-87100000D03*
X180150000Y-87750000D03*
X180150000Y-88400000D03*
X180150000Y-89050000D03*
X180150000Y-89700000D03*
X185875000Y-89700000D03*
X185875000Y-89050000D03*
X185875000Y-88400000D03*
X185875000Y-87750000D03*
X185875000Y-87100000D03*
X185875000Y-86450000D03*
X185875000Y-85800000D03*
X185875000Y-85150000D03*
X185875000Y-84500000D03*
X185875000Y-83850000D03*
%TD*%
D23*
%TO.C,C1*%
X166899282Y-85219940D03*
X164999282Y-85219940D03*
%TD*%
D18*
%TO.C,R3*%
X149855695Y-90154639D03*
X148030695Y-90154639D03*
%TD*%
D24*
%TO.C,C5*%
X216027000Y-94869000D03*
X214477000Y-94869000D03*
%TD*%
D18*
%TO.C,R4*%
X149858500Y-88188000D03*
X148033500Y-88188000D03*
%TD*%
D25*
%TO.C,C13*%
X129159000Y-95245000D03*
X129159000Y-93345000D03*
%TD*%
D26*
%TO.C,J14*%
X131191000Y-86233000D03*
%TD*%
D20*
%TO.C,R10*%
X139239500Y-81941500D03*
X139239500Y-83766500D03*
%TD*%
D26*
%TO.C,J12*%
X129159000Y-86233000D03*
%TD*%
D27*
%TO.C,U7*%
X180100000Y-78795000D03*
X180100000Y-80065000D03*
X180100000Y-81335000D03*
X180100000Y-82605000D03*
X185400000Y-82605000D03*
X185400000Y-81335000D03*
X185400000Y-80065000D03*
X185400000Y-78795000D03*
%TD*%
D28*
%TO.C,C8*%
X163677000Y-82550000D03*
X165227000Y-82550000D03*
%TD*%
D29*
%TO.C,U4*%
X144781500Y-89565000D03*
X144781500Y-89065000D03*
X144781500Y-88565000D03*
X144781500Y-88065000D03*
X144781500Y-87565000D03*
X144781500Y-87065000D03*
D30*
X144076500Y-86360000D03*
X143576500Y-86360000D03*
X143076500Y-86360000D03*
X142576500Y-86360000D03*
X142076500Y-86360000D03*
X141576500Y-86360000D03*
D31*
X140871500Y-87065000D03*
X140871500Y-87565000D03*
X140871500Y-88065000D03*
X140871500Y-88565000D03*
X140871500Y-89065000D03*
X140871500Y-89565000D03*
D32*
X141576500Y-90270000D03*
X142076500Y-90270000D03*
X142576500Y-90270000D03*
X143076500Y-90270000D03*
X143576500Y-90270000D03*
X144076500Y-90270000D03*
D33*
X142826500Y-88315000D03*
%TD*%
D34*
%TO.C,U9*%
X223200000Y-81400000D03*
X222400000Y-81400000D03*
X221600000Y-81400000D03*
X220800000Y-81400000D03*
X220000000Y-81400000D03*
X219200000Y-81400000D03*
X218400000Y-81400000D03*
X217600000Y-81400000D03*
X216800000Y-81400000D03*
X216000000Y-81400000D03*
X215200000Y-81400000D03*
D35*
X214300000Y-82500000D03*
X214300000Y-83300000D03*
X214300000Y-84100000D03*
X214300000Y-84900000D03*
X214300000Y-85700000D03*
X214300000Y-86500000D03*
X214300000Y-87300000D03*
X214300000Y-88100000D03*
X214300000Y-88900000D03*
X214300000Y-89700000D03*
X214300000Y-90500000D03*
X214300000Y-91300000D03*
X214300000Y-92100000D03*
D34*
X215200000Y-93200000D03*
X216000000Y-93200000D03*
X216800000Y-93200000D03*
X217600000Y-93200000D03*
X218400000Y-93200000D03*
X219200000Y-93200000D03*
X220000000Y-93200000D03*
X220800000Y-93200000D03*
X221600000Y-93200000D03*
X222400000Y-93200000D03*
X223200000Y-93200000D03*
D35*
X224100000Y-92100000D03*
X224100000Y-91300000D03*
X224100000Y-90500000D03*
X224100000Y-89700000D03*
X224100000Y-88900000D03*
X224100000Y-88100000D03*
X224100000Y-87300000D03*
X224100000Y-86500000D03*
X224100000Y-85700000D03*
X224100000Y-84900000D03*
X224100000Y-84100000D03*
X224100000Y-83300000D03*
X224100000Y-82500000D03*
D36*
X221175000Y-85325000D03*
D37*
X219200000Y-85325000D03*
X217225000Y-85325000D03*
X221175000Y-87300000D03*
X219200000Y-87300000D03*
X217225000Y-87300000D03*
X221175000Y-89275000D03*
X219200000Y-89275000D03*
X217225000Y-89275000D03*
D38*
X224150000Y-93250000D03*
X214250000Y-93250000D03*
X214250000Y-81350000D03*
X224150000Y-81350000D03*
%TD*%
D20*
%TO.C,R16*%
X201829804Y-82352628D03*
X201829804Y-84177628D03*
%TD*%
D39*
%TO.C,C15*%
X189279000Y-93980000D03*
X192229000Y-93980000D03*
%TD*%
D40*
%TO.C,R11*%
X222645727Y-95133997D03*
X224470727Y-95133997D03*
%TD*%
D41*
%TO.C,D11*%
X208400000Y-93200000D03*
X209800000Y-93200000D03*
%TD*%
D42*
%TO.C,C11*%
X187706000Y-84683000D03*
X187706000Y-86233000D03*
%TD*%
D24*
%TO.C,C9*%
X170460000Y-91059000D03*
X168910000Y-91059000D03*
%TD*%
D17*
%TO.C,U2*%
X161701490Y-79977439D03*
X161701490Y-82517439D03*
X161701490Y-85057439D03*
X161701490Y-87597439D03*
X161701490Y-90137439D03*
X161701490Y-92677439D03*
X161701490Y-95217439D03*
%TD*%
D40*
%TO.C,R18*%
X205081500Y-93472000D03*
X206906500Y-93472000D03*
%TD*%
D26*
%TO.C,J15*%
X133223000Y-84201000D03*
%TD*%
D18*
%TO.C,R5*%
X149855662Y-86219460D03*
X148030662Y-86219460D03*
%TD*%
D43*
%TO.C,C4*%
X176331646Y-91578373D03*
X178231646Y-91578373D03*
%TD*%
D23*
%TO.C,C17*%
X203513364Y-93406761D03*
X201613364Y-93406761D03*
%TD*%
D24*
%TO.C,C10*%
X181763000Y-91059000D03*
X180213000Y-91059000D03*
%TD*%
D26*
%TO.C,J16*%
X133223000Y-86233000D03*
%TD*%
D23*
%TO.C,C3*%
X178223354Y-85316402D03*
X176323354Y-85316402D03*
%TD*%
D27*
%TO.C,U6*%
X168947975Y-78745000D03*
X168947975Y-80015000D03*
X168947975Y-81285000D03*
X168947975Y-82555000D03*
X174247975Y-82555000D03*
X174247975Y-81285000D03*
X174247975Y-80015000D03*
X174247975Y-78745000D03*
%TD*%
D44*
%TO.C,C16*%
X212549000Y-95123000D03*
X209599000Y-95123000D03*
%TD*%
D45*
%TO.C,D10*%
X202692451Y-89361586D03*
X205992451Y-89361586D03*
%TD*%
D46*
%TO.C,D12*%
X212600000Y-91700000D03*
X212600000Y-90300000D03*
%TD*%
D47*
%TO.C,J10*%
X211135000Y-87037000D03*
X210285000Y-87037000D03*
X209435000Y-87037000D03*
X208585000Y-87037000D03*
X207735000Y-87037000D03*
X206885000Y-87037000D03*
X206035000Y-87037000D03*
X205185000Y-87037000D03*
X205185000Y-85687000D03*
X206035000Y-85687000D03*
X206885000Y-85687000D03*
X207735000Y-85687000D03*
X208585000Y-85687000D03*
X209435000Y-85687000D03*
X210285000Y-85687000D03*
X211135000Y-85687000D03*
D48*
X212485000Y-86057000D03*
D49*
X212485000Y-82677000D03*
D48*
X203835000Y-86057000D03*
D49*
X203835000Y-82677000D03*
%TD*%
D40*
%TO.C,R1*%
X148087500Y-92400000D03*
X149912500Y-92400000D03*
%TD*%
D50*
%TO.C,R17*%
X209400000Y-91712500D03*
X209400000Y-89887500D03*
%TD*%
D51*
%TO.C,F1*%
X132568000Y-94107000D03*
X138938000Y-94107000D03*
%TD*%
D23*
%TO.C,C12*%
X221107000Y-95123000D03*
X219207000Y-95123000D03*
%TD*%
D52*
%TO.C,D13*%
X211150000Y-91350000D03*
X211150000Y-92750000D03*
%TD*%
D43*
%TO.C,C14*%
X222189000Y-79502000D03*
X224089000Y-79502000D03*
%TD*%
D53*
%TO.C,Q1*%
X149997687Y-95354240D03*
X149997687Y-94054240D03*
X147997687Y-94704240D03*
%TD*%
D18*
%TO.C,R12*%
X130810000Y-80264000D03*
X128985000Y-80264000D03*
%TD*%
D20*
%TO.C,R13*%
X127127000Y-79351500D03*
X127127000Y-81176500D03*
%TD*%
%TO.C,R14*%
X187511516Y-79888641D03*
X187511516Y-81713641D03*
%TD*%
D54*
%TO.C,J11*%
X196661802Y-85083761D03*
D55*
X200116802Y-84543761D03*
D56*
X189341802Y-84543761D03*
D57*
X188891802Y-86843761D03*
X188891802Y-89443761D03*
D58*
X189341802Y-91803761D03*
D59*
X192531802Y-92103761D03*
X196781802Y-92103761D03*
D58*
X199941802Y-91803761D03*
D57*
X200391802Y-89443761D03*
X200391802Y-86843761D03*
D54*
X191461802Y-85083761D03*
X192161802Y-85083761D03*
X192861802Y-85083761D03*
X193561802Y-85083761D03*
X195261802Y-85083761D03*
X195961802Y-85083761D03*
X197361802Y-85083761D03*
X198061802Y-85083761D03*
%TD*%
D20*
%TO.C,R9*%
X141239500Y-81941500D03*
X141239500Y-83766500D03*
%TD*%
D21*
%TO.C,Y4*%
X166800000Y-89450000D03*
X166800000Y-87250000D03*
X165100000Y-87250000D03*
X165100000Y-89450000D03*
%TD*%
D60*
%TO.C,JP2*%
X176650000Y-79600000D03*
D61*
X177950000Y-79600000D03*
%TD*%
D42*
%TO.C,C7*%
X153162000Y-91922000D03*
X153162000Y-93472000D03*
%TD*%
D40*
%TO.C,R2*%
X144575000Y-95000000D03*
X146400000Y-95000000D03*
%TD*%
D42*
%TO.C,C6*%
X143002000Y-94525800D03*
X143002000Y-96075800D03*
%TD*%
D17*
%TO.C,U1*%
X157080000Y-95220000D03*
X157080000Y-92680000D03*
X157080000Y-90140000D03*
X157080000Y-87600000D03*
X157080000Y-85060000D03*
X157080000Y-82520000D03*
X157080000Y-79980000D03*
%TD*%
D18*
%TO.C,R19*%
X205034865Y-91471692D03*
X203209865Y-91471692D03*
%TD*%
D20*
%TO.C,R7*%
X145239500Y-81941500D03*
X145239500Y-83766500D03*
%TD*%
D43*
%TO.C,C2*%
X164997975Y-91450000D03*
X166897975Y-91450000D03*
%TD*%
D20*
%TO.C,R15*%
X177296434Y-81671911D03*
X177296434Y-83496911D03*
%TD*%
D62*
%TO.C,J17*%
X129159000Y-84201000D03*
%TD*%
%TO.C,J18*%
X127127000Y-83058000D03*
%TD*%
%TO.C,J13*%
X131191000Y-84201000D03*
%TD*%
%LPD*%
M02*
