%TF.GenerationSoftware,KiCad,Pcbnew,8.0.3*%
%TF.CreationDate,2024-06-20T21:51:27+02:00*%
%TF.ProjectId,KIA-OBD2-DISPLAY,4b49412d-4f42-4443-922d-444953504c41,rev?*%
%TF.SameCoordinates,Original*%
%TF.FileFunction,Paste,Top*%
%TF.FilePolarity,Positive*%
%FSLAX46Y46*%
G04 Gerber Fmt 4.6, Leading zero omitted, Abs format (unit mm)*
G04 Created by KiCad (PCBNEW 8.0.3) date 2024-06-20 21:51:27*
%MOMM*%
%LPD*%
G01*
G04 APERTURE LIST*
G04 Aperture macros list*
%AMRoundRect*
0 Rectangle with rounded corners*
0 $1 Rounding radius*
0 $2 $3 $4 $5 $6 $7 $8 $9 X,Y pos of 4 corners*
0 Add a 4 corners polygon primitive as box body*
4,1,4,$2,$3,$4,$5,$6,$7,$8,$9,$2,$3,0*
0 Add four circle primitives for the rounded corners*
1,1,$1+$1,$2,$3*
1,1,$1+$1,$4,$5*
1,1,$1+$1,$6,$7*
1,1,$1+$1,$8,$9*
0 Add four rect primitives between the rounded corners*
20,1,$1+$1,$2,$3,$4,$5,0*
20,1,$1+$1,$4,$5,$6,$7,0*
20,1,$1+$1,$6,$7,$8,$9,0*
20,1,$1+$1,$8,$9,$2,$3,0*%
%AMFreePoly0*
4,1,6,0.725000,-0.725000,-0.725000,-0.725000,-0.725000,0.125000,-0.125000,0.725000,0.725000,0.725000,0.725000,-0.725000,0.725000,-0.725000,$1*%
G04 Aperture macros list end*
%ADD10C,0.010000*%
%ADD11R,1.200000X1.200000*%
%ADD12RoundRect,0.250000X0.262500X0.450000X-0.262500X0.450000X-0.262500X-0.450000X0.262500X-0.450000X0*%
%ADD13RoundRect,0.100000X-0.637500X-0.100000X0.637500X-0.100000X0.637500X0.100000X-0.637500X0.100000X0*%
%ADD14RoundRect,0.250000X-0.450000X0.262500X-0.450000X-0.262500X0.450000X-0.262500X0.450000X0.262500X0*%
%ADD15R,1.200000X1.400000*%
%ADD16RoundRect,0.243750X0.243750X0.456250X-0.243750X0.456250X-0.243750X-0.456250X0.243750X-0.456250X0*%
%ADD17RoundRect,0.250000X0.250000X0.475000X-0.250000X0.475000X-0.250000X-0.475000X0.250000X-0.475000X0*%
%ADD18RoundRect,0.225000X0.225000X0.250000X-0.225000X0.250000X-0.225000X-0.250000X0.225000X-0.250000X0*%
%ADD19RoundRect,0.250000X0.475000X-0.250000X0.475000X0.250000X-0.475000X0.250000X-0.475000X-0.250000X0*%
%ADD20R,1.300000X0.600000*%
%ADD21RoundRect,0.225000X-0.225000X-0.250000X0.225000X-0.250000X0.225000X0.250000X-0.225000X0.250000X0*%
%ADD22RoundRect,0.008100X0.396900X0.126900X-0.396900X0.126900X-0.396900X-0.126900X0.396900X-0.126900X0*%
%ADD23RoundRect,0.008100X-0.126900X0.396900X-0.126900X-0.396900X0.126900X-0.396900X0.126900X0.396900X0*%
%ADD24RoundRect,0.008100X-0.396900X-0.126900X0.396900X-0.126900X0.396900X0.126900X-0.396900X0.126900X0*%
%ADD25RoundRect,0.008100X0.126900X-0.396900X0.126900X0.396900X-0.126900X0.396900X-0.126900X-0.396900X0*%
%ADD26R,0.400000X0.800000*%
%ADD27R,0.800000X0.400000*%
%ADD28FreePoly0,270.000000*%
%ADD29R,1.450000X1.450000*%
%ADD30R,0.700000X0.700000*%
%ADD31RoundRect,0.250000X-0.325000X-0.650000X0.325000X-0.650000X0.325000X0.650000X-0.325000X0.650000X0*%
%ADD32RoundRect,0.250000X-0.262500X-0.450000X0.262500X-0.450000X0.262500X0.450000X-0.262500X0.450000X0*%
%ADD33RoundRect,0.150000X0.150000X0.200000X-0.150000X0.200000X-0.150000X-0.200000X0.150000X-0.200000X0*%
%ADD34RoundRect,0.225000X-0.250000X0.225000X-0.250000X-0.225000X0.250000X-0.225000X0.250000X0.225000X0*%
%ADD35RoundRect,0.250000X-0.250000X-0.475000X0.250000X-0.475000X0.250000X0.475000X-0.250000X0.475000X0*%
%ADD36RoundRect,0.250000X0.325000X0.650000X-0.325000X0.650000X-0.325000X-0.650000X0.325000X-0.650000X0*%
%ADD37RoundRect,0.225000X-0.225000X-0.375000X0.225000X-0.375000X0.225000X0.375000X-0.225000X0.375000X0*%
%ADD38RoundRect,0.150000X-0.200000X0.150000X-0.200000X-0.150000X0.200000X-0.150000X0.200000X0.150000X0*%
%ADD39RoundRect,0.250000X0.450000X-0.262500X0.450000X0.262500X-0.450000X0.262500X-0.450000X-0.262500X0*%
%ADD40R,4.240000X3.810000*%
%ADD41RoundRect,0.150000X0.200000X-0.150000X0.200000X0.150000X-0.200000X0.150000X-0.200000X-0.150000X0*%
%ADD42RoundRect,0.112500X0.237500X-0.112500X0.237500X0.112500X-0.237500X0.112500X-0.237500X-0.112500X0*%
%ADD43R,0.450000X0.700000*%
%ADD44R,0.950000X1.400000*%
%ADD45R,1.300000X1.400000*%
%ADD46R,0.400000X1.200000*%
%ADD47R,1.300000X1.000000*%
%ADD48R,1.400000X0.400000*%
G04 APERTURE END LIST*
D10*
%TO.C,U4*%
X143682801Y-89170000D02*
X141971500Y-89170000D01*
X141971500Y-87458699D01*
X143682801Y-87458699D01*
X143682801Y-89170000D01*
G36*
X143682801Y-89170000D02*
G01*
X141971500Y-89170000D01*
X141971500Y-87458699D01*
X143682801Y-87458699D01*
X143682801Y-89170000D01*
G37*
%TD*%
D11*
%TO.C,D14*%
X205164000Y-95377000D03*
X207264000Y-95377000D03*
%TD*%
D12*
%TO.C,R6*%
X149861635Y-84257908D03*
X148036635Y-84257908D03*
%TD*%
D13*
%TO.C,U10*%
X168800000Y-83850000D03*
X168800000Y-84500000D03*
X168800000Y-85150000D03*
X168800000Y-85800000D03*
X168800000Y-86450000D03*
X168800000Y-87100000D03*
X168800000Y-87750000D03*
X168800000Y-88400000D03*
X168800000Y-89050000D03*
X168800000Y-89700000D03*
X174525000Y-89700000D03*
X174525000Y-89050000D03*
X174525000Y-88400000D03*
X174525000Y-87750000D03*
X174525000Y-87100000D03*
X174525000Y-86450000D03*
X174525000Y-85800000D03*
X174525000Y-85150000D03*
X174525000Y-84500000D03*
X174525000Y-83850000D03*
%TD*%
D14*
%TO.C,R8*%
X143239500Y-81941500D03*
X143239500Y-83766500D03*
%TD*%
D15*
%TO.C,Y1*%
X178125000Y-89550000D03*
X178125000Y-87350000D03*
X176425000Y-87350000D03*
X176425000Y-89550000D03*
%TD*%
D16*
%TO.C,D9*%
X130810000Y-82169000D03*
X128935000Y-82169000D03*
%TD*%
D13*
%TO.C,U11*%
X180150000Y-83850000D03*
X180150000Y-84500000D03*
X180150000Y-85150000D03*
X180150000Y-85800000D03*
X180150000Y-86450000D03*
X180150000Y-87100000D03*
X180150000Y-87750000D03*
X180150000Y-88400000D03*
X180150000Y-89050000D03*
X180150000Y-89700000D03*
X185875000Y-89700000D03*
X185875000Y-89050000D03*
X185875000Y-88400000D03*
X185875000Y-87750000D03*
X185875000Y-87100000D03*
X185875000Y-86450000D03*
X185875000Y-85800000D03*
X185875000Y-85150000D03*
X185875000Y-84500000D03*
X185875000Y-83850000D03*
%TD*%
D17*
%TO.C,C1*%
X166899282Y-85219940D03*
X164999282Y-85219940D03*
%TD*%
D12*
%TO.C,R3*%
X149855695Y-90154639D03*
X148030695Y-90154639D03*
%TD*%
D18*
%TO.C,C5*%
X216027000Y-94869000D03*
X214477000Y-94869000D03*
%TD*%
D12*
%TO.C,R4*%
X149858500Y-88188000D03*
X148033500Y-88188000D03*
%TD*%
D19*
%TO.C,C13*%
X129159000Y-95245000D03*
X129159000Y-93345000D03*
%TD*%
D14*
%TO.C,R10*%
X139239500Y-81941500D03*
X139239500Y-83766500D03*
%TD*%
D20*
%TO.C,U7*%
X180100000Y-78795000D03*
X180100000Y-80065000D03*
X180100000Y-81335000D03*
X180100000Y-82605000D03*
X185400000Y-82605000D03*
X185400000Y-81335000D03*
X185400000Y-80065000D03*
X185400000Y-78795000D03*
%TD*%
D21*
%TO.C,C8*%
X163677000Y-82550000D03*
X165227000Y-82550000D03*
%TD*%
D22*
%TO.C,U4*%
X144781500Y-89565000D03*
X144781500Y-89065000D03*
X144781500Y-88565000D03*
X144781500Y-88065000D03*
X144781500Y-87565000D03*
X144781500Y-87065000D03*
D23*
X144076500Y-86360000D03*
X143576500Y-86360000D03*
X143076500Y-86360000D03*
X142576500Y-86360000D03*
X142076500Y-86360000D03*
X141576500Y-86360000D03*
D24*
X140871500Y-87065000D03*
X140871500Y-87565000D03*
X140871500Y-88065000D03*
X140871500Y-88565000D03*
X140871500Y-89065000D03*
X140871500Y-89565000D03*
D25*
X141576500Y-90270000D03*
X142076500Y-90270000D03*
X142576500Y-90270000D03*
X143076500Y-90270000D03*
X143576500Y-90270000D03*
X144076500Y-90270000D03*
%TD*%
D26*
%TO.C,U9*%
X223200000Y-81400000D03*
X222400000Y-81400000D03*
X221600000Y-81400000D03*
X220800000Y-81400000D03*
X220000000Y-81400000D03*
X219200000Y-81400000D03*
X218400000Y-81400000D03*
X217600000Y-81400000D03*
X216800000Y-81400000D03*
X216000000Y-81400000D03*
X215200000Y-81400000D03*
D27*
X214300000Y-82500000D03*
X214300000Y-83300000D03*
X214300000Y-84100000D03*
X214300000Y-84900000D03*
X214300000Y-85700000D03*
X214300000Y-86500000D03*
X214300000Y-87300000D03*
X214300000Y-88100000D03*
X214300000Y-88900000D03*
X214300000Y-89700000D03*
X214300000Y-90500000D03*
X214300000Y-91300000D03*
X214300000Y-92100000D03*
D26*
X215200000Y-93200000D03*
X216000000Y-93200000D03*
X216800000Y-93200000D03*
X217600000Y-93200000D03*
X218400000Y-93200000D03*
X219200000Y-93200000D03*
X220000000Y-93200000D03*
X220800000Y-93200000D03*
X221600000Y-93200000D03*
X222400000Y-93200000D03*
X223200000Y-93200000D03*
D27*
X224100000Y-92100000D03*
X224100000Y-91300000D03*
X224100000Y-90500000D03*
X224100000Y-89700000D03*
X224100000Y-88900000D03*
X224100000Y-88100000D03*
X224100000Y-87300000D03*
X224100000Y-86500000D03*
X224100000Y-85700000D03*
X224100000Y-84900000D03*
X224100000Y-84100000D03*
X224100000Y-83300000D03*
X224100000Y-82500000D03*
D28*
X221175000Y-85325000D03*
D29*
X219200000Y-85325000D03*
X217225000Y-85325000D03*
X221175000Y-87300000D03*
X219200000Y-87300000D03*
X217225000Y-87300000D03*
X221175000Y-89275000D03*
X219200000Y-89275000D03*
X217225000Y-89275000D03*
D30*
X224150000Y-93250000D03*
X214250000Y-93250000D03*
X214250000Y-81350000D03*
X224150000Y-81350000D03*
%TD*%
D14*
%TO.C,R16*%
X201829804Y-82352628D03*
X201829804Y-84177628D03*
%TD*%
D31*
%TO.C,C15*%
X189279000Y-93980000D03*
X192229000Y-93980000D03*
%TD*%
D32*
%TO.C,R11*%
X222645727Y-95133997D03*
X224470727Y-95133997D03*
%TD*%
D33*
%TO.C,D11*%
X208400000Y-93200000D03*
X209800000Y-93200000D03*
%TD*%
D34*
%TO.C,C11*%
X187706000Y-84683000D03*
X187706000Y-86233000D03*
%TD*%
D18*
%TO.C,C9*%
X170460000Y-91059000D03*
X168910000Y-91059000D03*
%TD*%
D32*
%TO.C,R18*%
X205081500Y-93472000D03*
X206906500Y-93472000D03*
%TD*%
D12*
%TO.C,R5*%
X149855662Y-86219460D03*
X148030662Y-86219460D03*
%TD*%
D35*
%TO.C,C4*%
X176331646Y-91578373D03*
X178231646Y-91578373D03*
%TD*%
D17*
%TO.C,C17*%
X203513364Y-93406761D03*
X201613364Y-93406761D03*
%TD*%
D18*
%TO.C,C10*%
X181763000Y-91059000D03*
X180213000Y-91059000D03*
%TD*%
D17*
%TO.C,C3*%
X178223354Y-85316402D03*
X176323354Y-85316402D03*
%TD*%
D20*
%TO.C,U6*%
X168947975Y-78745000D03*
X168947975Y-80015000D03*
X168947975Y-81285000D03*
X168947975Y-82555000D03*
X174247975Y-82555000D03*
X174247975Y-81285000D03*
X174247975Y-80015000D03*
X174247975Y-78745000D03*
%TD*%
D36*
%TO.C,C16*%
X212549000Y-95123000D03*
X209599000Y-95123000D03*
%TD*%
D37*
%TO.C,D10*%
X202692451Y-89361586D03*
X205992451Y-89361586D03*
%TD*%
D38*
%TO.C,D12*%
X212600000Y-91700000D03*
X212600000Y-90300000D03*
%TD*%
D32*
%TO.C,R1*%
X148087500Y-92400000D03*
X149912500Y-92400000D03*
%TD*%
D39*
%TO.C,R17*%
X209400000Y-91712500D03*
X209400000Y-89887500D03*
%TD*%
D40*
%TO.C,F1*%
X132568000Y-94107000D03*
X138938000Y-94107000D03*
%TD*%
D17*
%TO.C,C12*%
X221107000Y-95123000D03*
X219207000Y-95123000D03*
%TD*%
D41*
%TO.C,D13*%
X211150000Y-91350000D03*
X211150000Y-92750000D03*
%TD*%
D35*
%TO.C,C14*%
X222189000Y-79502000D03*
X224089000Y-79502000D03*
%TD*%
D42*
%TO.C,Q1*%
X149997687Y-95354240D03*
X149997687Y-94054240D03*
X147997687Y-94704240D03*
%TD*%
D12*
%TO.C,R12*%
X130810000Y-80264000D03*
X128985000Y-80264000D03*
%TD*%
D14*
%TO.C,R13*%
X127127000Y-79351500D03*
X127127000Y-81176500D03*
%TD*%
%TO.C,R14*%
X187511516Y-79888641D03*
X187511516Y-81713641D03*
%TD*%
D43*
%TO.C,J11*%
X196661802Y-85083761D03*
D44*
X200116802Y-84543761D03*
D45*
X189341802Y-84543761D03*
D46*
X188891802Y-86843761D03*
X188891802Y-89443761D03*
D47*
X189341802Y-91803761D03*
D48*
X192531802Y-92103761D03*
X196781802Y-92103761D03*
D47*
X199941802Y-91803761D03*
D46*
X200391802Y-89443761D03*
X200391802Y-86843761D03*
D43*
X191461802Y-85083761D03*
X192161802Y-85083761D03*
X192861802Y-85083761D03*
X193561802Y-85083761D03*
X195261802Y-85083761D03*
X195961802Y-85083761D03*
X197361802Y-85083761D03*
X198061802Y-85083761D03*
%TD*%
D14*
%TO.C,R9*%
X141239500Y-81941500D03*
X141239500Y-83766500D03*
%TD*%
D15*
%TO.C,Y4*%
X166800000Y-89450000D03*
X166800000Y-87250000D03*
X165100000Y-87250000D03*
X165100000Y-89450000D03*
%TD*%
D34*
%TO.C,C7*%
X153162000Y-91922000D03*
X153162000Y-93472000D03*
%TD*%
D32*
%TO.C,R2*%
X144575000Y-95000000D03*
X146400000Y-95000000D03*
%TD*%
D34*
%TO.C,C6*%
X143002000Y-94525800D03*
X143002000Y-96075800D03*
%TD*%
D12*
%TO.C,R19*%
X205034865Y-91471692D03*
X203209865Y-91471692D03*
%TD*%
D14*
%TO.C,R7*%
X145239500Y-81941500D03*
X145239500Y-83766500D03*
%TD*%
D35*
%TO.C,C2*%
X164997975Y-91450000D03*
X166897975Y-91450000D03*
%TD*%
D14*
%TO.C,R15*%
X177296434Y-81671911D03*
X177296434Y-83496911D03*
%TD*%
M02*
