M48
; DRILL file {KiCad 8.0.3} date 2024-06-20T21:51:27+0200
; FORMAT={-:-/ absolute / inch / decimal}
; #@! TF.CreationDate,2024-06-20T21:51:27+02:00
; #@! TF.GenerationSoftware,Kicad,Pcbnew,8.0.3
; #@! TF.FileFunction,Plated,1,4,PTH
FMAT,2
INCH
; #@! TA.AperFunction,Plated,PTH,ViaDrill
T1C0.0118
; #@! TA.AperFunction,Plated,PTH,ComponentDrill
T2C0.0157
; #@! TA.AperFunction,Plated,PTH,ComponentDrill
T3C0.0197
; #@! TA.AperFunction,Plated,PTH,ComponentDrill
T4C0.0236
; #@! TA.AperFunction,Plated,PTH,ComponentDrill
T5C0.0300
%
G90
G05
T1
X5.004Y-3.196
X5.005Y-3.125
X5.14Y-3.108
X5.165Y-3.705
X5.22Y-3.11
X5.3Y-3.11
X5.365Y-3.418
X5.378Y-3.108
X5.3809Y-3.4624
X5.4096Y-3.5057
X5.4627Y-3.1063
X5.475Y-3.53
X5.495Y-3.465
X5.495Y-3.5083
X5.5132Y-3.4874
X5.546Y-3.41
X5.565Y-3.59
X5.586Y-3.496
X5.595Y-3.59
X5.625Y-3.59
X5.648Y-3.612
X5.6797Y-3.5858
X5.692Y-3.742
X5.7491Y-3.4687
X5.75Y-3.536
X5.77Y-3.49
X5.86Y-3.11
X5.9Y-3.394
X5.9Y-3.55
X5.938Y-3.106
X5.9427Y-3.5959
X5.945Y-3.46
X5.97Y-3.175
X6.022Y-3.108
X6.03Y-3.62
X6.07Y-3.225
X6.07Y-3.255
X6.092Y-3.7
X6.096Y-3.802
X6.1332Y-3.6585
X6.42Y-3.73
X6.4375Y-3.1525
X6.44Y-3.69
X6.475Y-3.15
X6.4963Y-3.1765
X6.603Y-3.739
X6.63Y-3.71
X6.652Y-3.204
X6.67Y-3.735
X6.715Y-3.69
X6.72Y-3.58
X6.7299Y-3.088
X6.754Y-3.76
X6.7801Y-3.8098
X6.786Y-3.328
X6.79Y-3.295
X6.802Y-3.784
X6.804Y-3.102
X6.8145Y-3.3068
X6.815Y-3.28
X6.8178Y-3.3527
X6.8714Y-3.301
X6.872Y-3.482
X6.956Y-3.134
X6.98Y-3.35
X7.0157Y-3.3544
X7.0235Y-3.21
X7.09Y-3.202
X7.16Y-3.58
X7.214Y-3.3
X7.218Y-3.76
X7.244Y-3.8098
X7.245Y-3.3
X7.255Y-3.3267
X7.255Y-3.355
X7.266Y-3.784
X7.3Y-3.26
X7.3182Y-3.3015
X7.32Y-3.48
X7.3839Y-3.0887
X7.395Y-3.34
X7.45Y-3.7
X7.458Y-3.106
X7.54Y-3.104
X7.62Y-3.35
X7.67Y-3.8098
X7.743Y-3.351
X7.8Y-3.69
X7.855Y-3.69
X7.875Y-3.25
X7.9131Y-3.088
X7.9223Y-3.7282
X7.945Y-3.3665
X7.97Y-3.4079
X7.988Y-3.104
X7.99Y-3.52
X8.0124Y-3.6781
X8.02Y-3.75
X8.055Y-3.52
X8.072Y-3.108
X8.105Y-3.26
X8.135Y-3.69
X8.16Y-3.52
X8.17Y-3.745
X8.244Y-3.612
X8.265Y-3.26
X8.3034Y-3.1351
X8.31Y-3.5
X8.36Y-3.725
X8.37Y-3.554
X8.37Y-3.61
X8.404Y-3.274
X8.438Y-3.342
X8.438Y-3.374
X8.438Y-3.406
X8.45Y-3.09
X8.465Y-3.5945
X8.465Y-3.626
X8.5Y-3.635
X8.5042Y-3.7352
X8.505Y-3.7
X8.522Y-3.104
X8.535Y-3.185
X8.535Y-3.25
X8.55Y-3.476
X8.552Y-3.398
X8.5669Y-3.1802
X8.59Y-3.358
X8.59Y-3.436
X8.59Y-3.516
X8.598Y-3.635
X8.605Y-3.25
X8.606Y-3.104
X8.63Y-3.206
X8.63Y-3.398
X8.63Y-3.474
X8.63Y-3.635
X8.63Y-3.76
X8.662Y-3.206
X8.662Y-3.635
X8.668Y-3.358
X8.668Y-3.436
X8.668Y-3.516
X8.705Y-3.745
X8.706Y-3.476
X8.708Y-3.398
X8.724Y-3.204
X8.7476Y-3.1307
X8.76Y-3.265
X8.76Y-3.62
X8.84Y-3.746
T2
X8.0781Y-3.3735
X8.0781Y-3.4267
X8.1116Y-3.3735
X8.1116Y-3.4267
X8.1451Y-3.3735
X8.1451Y-3.4267
X8.1785Y-3.3735
X8.1785Y-3.4267
X8.212Y-3.3735
X8.212Y-3.4267
X8.2455Y-3.3735
X8.2455Y-3.4267
X8.2789Y-3.3735
X8.2789Y-3.4267
X8.3124Y-3.3735
X8.3124Y-3.4267
T3
X5.005Y-3.27
X5.085Y-3.315
X5.085Y-3.395
X5.165Y-3.315
X5.165Y-3.395
X5.245Y-3.315
X5.245Y-3.395
T5
X4.995Y-3.36
X4.995Y-3.46
X4.995Y-3.56
X4.995Y-3.66
X4.995Y-3.76
X6.1843Y-3.1488
X6.1843Y-3.2488
X6.1843Y-3.3488
X6.1843Y-3.4488
X6.1843Y-3.5488
X6.1843Y-3.6488
X6.1843Y-3.7488
X6.3662Y-3.1487
X6.3662Y-3.2487
X6.3662Y-3.3487
X6.3662Y-3.4487
X6.3662Y-3.5487
X6.3662Y-3.6487
X6.3662Y-3.7487
T4
G00X8.025Y-3.2707
M15
G01X8.025Y-3.2393
M16
G05
G00X8.025Y-3.4176
M15
G01X8.025Y-3.3585
M16
G05
G00X8.3656Y-3.2707
M15
G01X8.3656Y-3.2393
M16
G05
G00X8.3656Y-3.4176
M15
G01X8.3656Y-3.3585
M16
G05
M30
