%TF.GenerationSoftware,KiCad,Pcbnew,8.0.3*%
%TF.CreationDate,2024-06-20T21:51:27+02:00*%
%TF.ProjectId,KIA-OBD2-DISPLAY,4b49412d-4f42-4443-922d-444953504c41,rev?*%
%TF.SameCoordinates,Original*%
%TF.FileFunction,Legend,Bot*%
%TF.FilePolarity,Positive*%
%FSLAX46Y46*%
G04 Gerber Fmt 4.6, Leading zero omitted, Abs format (unit mm)*
G04 Created by KiCad (PCBNEW 8.0.3) date 2024-06-20 21:51:27*
%MOMM*%
%LPD*%
G01*
G04 APERTURE LIST*
G04 Aperture macros list*
%AMRoundRect*
0 Rectangle with rounded corners*
0 $1 Rounding radius*
0 $2 $3 $4 $5 $6 $7 $8 $9 X,Y pos of 4 corners*
0 Add a 4 corners polygon primitive as box body*
4,1,4,$2,$3,$4,$5,$6,$7,$8,$9,$2,$3,0*
0 Add four circle primitives for the rounded corners*
1,1,$1+$1,$2,$3*
1,1,$1+$1,$4,$5*
1,1,$1+$1,$6,$7*
1,1,$1+$1,$8,$9*
0 Add four rect primitives between the rounded corners*
20,1,$1+$1,$2,$3,$4,$5,0*
20,1,$1+$1,$4,$5,$6,$7,0*
20,1,$1+$1,$6,$7,$8,$9,0*
20,1,$1+$1,$8,$9,$2,$3,0*%
G04 Aperture macros list end*
%ADD10C,0.150000*%
%ADD11C,0.120000*%
%ADD12C,0.127000*%
%ADD13C,0.200000*%
%ADD14C,1.600000*%
%ADD15RoundRect,0.038000X-0.500000X-0.500000X0.500000X-0.500000X0.500000X0.500000X-0.500000X0.500000X0*%
%ADD16C,0.776000*%
%ADD17O,0.976000X2.476000*%
%ADD18O,0.976000X1.776000*%
%ADD19RoundRect,0.038000X0.500000X0.500000X-0.500000X0.500000X-0.500000X-0.500000X0.500000X-0.500000X0*%
%ADD20RoundRect,0.102000X0.600000X0.600000X-0.600000X0.600000X-0.600000X-0.600000X0.600000X-0.600000X0*%
%ADD21RoundRect,0.102000X0.600000X-0.600000X0.600000X0.600000X-0.600000X0.600000X-0.600000X-0.600000X0*%
G04 APERTURE END LIST*
D10*
X134953333Y-77000819D02*
X134953333Y-77715104D01*
X134953333Y-77715104D02*
X135000952Y-77857961D01*
X135000952Y-77857961D02*
X135096190Y-77953200D01*
X135096190Y-77953200D02*
X135239047Y-78000819D01*
X135239047Y-78000819D02*
X135334285Y-78000819D01*
X134334285Y-77429390D02*
X134429523Y-77381771D01*
X134429523Y-77381771D02*
X134477142Y-77334152D01*
X134477142Y-77334152D02*
X134524761Y-77238914D01*
X134524761Y-77238914D02*
X134524761Y-77191295D01*
X134524761Y-77191295D02*
X134477142Y-77096057D01*
X134477142Y-77096057D02*
X134429523Y-77048438D01*
X134429523Y-77048438D02*
X134334285Y-77000819D01*
X134334285Y-77000819D02*
X134143809Y-77000819D01*
X134143809Y-77000819D02*
X134048571Y-77048438D01*
X134048571Y-77048438D02*
X134000952Y-77096057D01*
X134000952Y-77096057D02*
X133953333Y-77191295D01*
X133953333Y-77191295D02*
X133953333Y-77238914D01*
X133953333Y-77238914D02*
X134000952Y-77334152D01*
X134000952Y-77334152D02*
X134048571Y-77381771D01*
X134048571Y-77381771D02*
X134143809Y-77429390D01*
X134143809Y-77429390D02*
X134334285Y-77429390D01*
X134334285Y-77429390D02*
X134429523Y-77477009D01*
X134429523Y-77477009D02*
X134477142Y-77524628D01*
X134477142Y-77524628D02*
X134524761Y-77619866D01*
X134524761Y-77619866D02*
X134524761Y-77810342D01*
X134524761Y-77810342D02*
X134477142Y-77905580D01*
X134477142Y-77905580D02*
X134429523Y-77953200D01*
X134429523Y-77953200D02*
X134334285Y-78000819D01*
X134334285Y-78000819D02*
X134143809Y-78000819D01*
X134143809Y-78000819D02*
X134048571Y-77953200D01*
X134048571Y-77953200D02*
X134000952Y-77905580D01*
X134000952Y-77905580D02*
X133953333Y-77810342D01*
X133953333Y-77810342D02*
X133953333Y-77619866D01*
X133953333Y-77619866D02*
X134000952Y-77524628D01*
X134000952Y-77524628D02*
X134048571Y-77477009D01*
X134048571Y-77477009D02*
X134143809Y-77429390D01*
X155539381Y-79282276D02*
X155539381Y-78642276D01*
X155539381Y-78642276D02*
X155387000Y-78642276D01*
X155387000Y-78642276D02*
X155295571Y-78672752D01*
X155295571Y-78672752D02*
X155234619Y-78733704D01*
X155234619Y-78733704D02*
X155204142Y-78794657D01*
X155204142Y-78794657D02*
X155173666Y-78916561D01*
X155173666Y-78916561D02*
X155173666Y-79007990D01*
X155173666Y-79007990D02*
X155204142Y-79129895D01*
X155204142Y-79129895D02*
X155234619Y-79190847D01*
X155234619Y-79190847D02*
X155295571Y-79251800D01*
X155295571Y-79251800D02*
X155387000Y-79282276D01*
X155387000Y-79282276D02*
X155539381Y-79282276D01*
X154594619Y-78642276D02*
X154899381Y-78642276D01*
X154899381Y-78642276D02*
X154929857Y-78947038D01*
X154929857Y-78947038D02*
X154899381Y-78916561D01*
X154899381Y-78916561D02*
X154838428Y-78886085D01*
X154838428Y-78886085D02*
X154686047Y-78886085D01*
X154686047Y-78886085D02*
X154625095Y-78916561D01*
X154625095Y-78916561D02*
X154594619Y-78947038D01*
X154594619Y-78947038D02*
X154564142Y-79007990D01*
X154564142Y-79007990D02*
X154564142Y-79160371D01*
X154564142Y-79160371D02*
X154594619Y-79221323D01*
X154594619Y-79221323D02*
X154625095Y-79251800D01*
X154625095Y-79251800D02*
X154686047Y-79282276D01*
X154686047Y-79282276D02*
X154838428Y-79282276D01*
X154838428Y-79282276D02*
X154899381Y-79251800D01*
X154899381Y-79251800D02*
X154929857Y-79221323D01*
X194020381Y-79282276D02*
X194020381Y-78642276D01*
X194020381Y-78642276D02*
X193868000Y-78642276D01*
X193868000Y-78642276D02*
X193776571Y-78672752D01*
X193776571Y-78672752D02*
X193715619Y-78733704D01*
X193715619Y-78733704D02*
X193685142Y-78794657D01*
X193685142Y-78794657D02*
X193654666Y-78916561D01*
X193654666Y-78916561D02*
X193654666Y-79007990D01*
X193654666Y-79007990D02*
X193685142Y-79129895D01*
X193685142Y-79129895D02*
X193715619Y-79190847D01*
X193715619Y-79190847D02*
X193776571Y-79251800D01*
X193776571Y-79251800D02*
X193868000Y-79282276D01*
X193868000Y-79282276D02*
X194020381Y-79282276D01*
X193441333Y-78642276D02*
X193045142Y-78642276D01*
X193045142Y-78642276D02*
X193258476Y-78886085D01*
X193258476Y-78886085D02*
X193167047Y-78886085D01*
X193167047Y-78886085D02*
X193106095Y-78916561D01*
X193106095Y-78916561D02*
X193075619Y-78947038D01*
X193075619Y-78947038D02*
X193045142Y-79007990D01*
X193045142Y-79007990D02*
X193045142Y-79160371D01*
X193045142Y-79160371D02*
X193075619Y-79221323D01*
X193075619Y-79221323D02*
X193106095Y-79251800D01*
X193106095Y-79251800D02*
X193167047Y-79282276D01*
X193167047Y-79282276D02*
X193349904Y-79282276D01*
X193349904Y-79282276D02*
X193410857Y-79251800D01*
X193410857Y-79251800D02*
X193441333Y-79221323D01*
X141442381Y-79282276D02*
X141442381Y-78642276D01*
X141442381Y-78642276D02*
X141290000Y-78642276D01*
X141290000Y-78642276D02*
X141198571Y-78672752D01*
X141198571Y-78672752D02*
X141137619Y-78733704D01*
X141137619Y-78733704D02*
X141107142Y-78794657D01*
X141107142Y-78794657D02*
X141076666Y-78916561D01*
X141076666Y-78916561D02*
X141076666Y-79007990D01*
X141076666Y-79007990D02*
X141107142Y-79129895D01*
X141107142Y-79129895D02*
X141137619Y-79190847D01*
X141137619Y-79190847D02*
X141198571Y-79251800D01*
X141198571Y-79251800D02*
X141290000Y-79282276D01*
X141290000Y-79282276D02*
X141442381Y-79282276D01*
X140528095Y-78642276D02*
X140650000Y-78642276D01*
X140650000Y-78642276D02*
X140710952Y-78672752D01*
X140710952Y-78672752D02*
X140741428Y-78703228D01*
X140741428Y-78703228D02*
X140802381Y-78794657D01*
X140802381Y-78794657D02*
X140832857Y-78916561D01*
X140832857Y-78916561D02*
X140832857Y-79160371D01*
X140832857Y-79160371D02*
X140802381Y-79221323D01*
X140802381Y-79221323D02*
X140771904Y-79251800D01*
X140771904Y-79251800D02*
X140710952Y-79282276D01*
X140710952Y-79282276D02*
X140589047Y-79282276D01*
X140589047Y-79282276D02*
X140528095Y-79251800D01*
X140528095Y-79251800D02*
X140497619Y-79221323D01*
X140497619Y-79221323D02*
X140467142Y-79160371D01*
X140467142Y-79160371D02*
X140467142Y-79007990D01*
X140467142Y-79007990D02*
X140497619Y-78947038D01*
X140497619Y-78947038D02*
X140528095Y-78916561D01*
X140528095Y-78916561D02*
X140589047Y-78886085D01*
X140589047Y-78886085D02*
X140710952Y-78886085D01*
X140710952Y-78886085D02*
X140771904Y-78916561D01*
X140771904Y-78916561D02*
X140802381Y-78947038D01*
X140802381Y-78947038D02*
X140832857Y-79007990D01*
X128613819Y-81232476D02*
X129328104Y-81232476D01*
X129328104Y-81232476D02*
X129470961Y-81184857D01*
X129470961Y-81184857D02*
X129566200Y-81089619D01*
X129566200Y-81089619D02*
X129613819Y-80946762D01*
X129613819Y-80946762D02*
X129613819Y-80851524D01*
X129613819Y-82232476D02*
X129613819Y-81661048D01*
X129613819Y-81946762D02*
X128613819Y-81946762D01*
X128613819Y-81946762D02*
X128756676Y-81851524D01*
X128756676Y-81851524D02*
X128851914Y-81756286D01*
X128851914Y-81756286D02*
X128899533Y-81661048D01*
X128613819Y-82565810D02*
X128613819Y-83232476D01*
X128613819Y-83232476D02*
X129613819Y-82803905D01*
X132921333Y-77000819D02*
X132921333Y-77715104D01*
X132921333Y-77715104D02*
X132968952Y-77857961D01*
X132968952Y-77857961D02*
X133064190Y-77953200D01*
X133064190Y-77953200D02*
X133207047Y-78000819D01*
X133207047Y-78000819D02*
X133302285Y-78000819D01*
X132540380Y-77000819D02*
X131873714Y-77000819D01*
X131873714Y-77000819D02*
X132302285Y-78000819D01*
X201333333Y-77000819D02*
X201333333Y-77715104D01*
X201333333Y-77715104D02*
X201380952Y-77857961D01*
X201380952Y-77857961D02*
X201476190Y-77953200D01*
X201476190Y-77953200D02*
X201619047Y-78000819D01*
X201619047Y-78000819D02*
X201714285Y-78000819D01*
X200428571Y-77334152D02*
X200428571Y-78000819D01*
X200666666Y-76953200D02*
X200904761Y-77667485D01*
X200904761Y-77667485D02*
X200285714Y-77667485D01*
X149177333Y-77000819D02*
X149177333Y-77715104D01*
X149177333Y-77715104D02*
X149224952Y-77857961D01*
X149224952Y-77857961D02*
X149320190Y-77953200D01*
X149320190Y-77953200D02*
X149463047Y-78000819D01*
X149463047Y-78000819D02*
X149558285Y-78000819D01*
X148653523Y-78000819D02*
X148463047Y-78000819D01*
X148463047Y-78000819D02*
X148367809Y-77953200D01*
X148367809Y-77953200D02*
X148320190Y-77905580D01*
X148320190Y-77905580D02*
X148224952Y-77762723D01*
X148224952Y-77762723D02*
X148177333Y-77572247D01*
X148177333Y-77572247D02*
X148177333Y-77191295D01*
X148177333Y-77191295D02*
X148224952Y-77096057D01*
X148224952Y-77096057D02*
X148272571Y-77048438D01*
X148272571Y-77048438D02*
X148367809Y-77000819D01*
X148367809Y-77000819D02*
X148558285Y-77000819D01*
X148558285Y-77000819D02*
X148653523Y-77048438D01*
X148653523Y-77048438D02*
X148701142Y-77096057D01*
X148701142Y-77096057D02*
X148748761Y-77191295D01*
X148748761Y-77191295D02*
X148748761Y-77429390D01*
X148748761Y-77429390D02*
X148701142Y-77524628D01*
X148701142Y-77524628D02*
X148653523Y-77572247D01*
X148653523Y-77572247D02*
X148558285Y-77619866D01*
X148558285Y-77619866D02*
X148367809Y-77619866D01*
X148367809Y-77619866D02*
X148272571Y-77572247D01*
X148272571Y-77572247D02*
X148224952Y-77524628D01*
X148224952Y-77524628D02*
X148177333Y-77429390D01*
X187872392Y-77000819D02*
X187872392Y-77715104D01*
X187872392Y-77715104D02*
X187920011Y-77857961D01*
X187920011Y-77857961D02*
X188015249Y-77953200D01*
X188015249Y-77953200D02*
X188158106Y-78000819D01*
X188158106Y-78000819D02*
X188253344Y-78000819D01*
X187491439Y-77000819D02*
X186872392Y-77000819D01*
X186872392Y-77000819D02*
X187205725Y-77381771D01*
X187205725Y-77381771D02*
X187062868Y-77381771D01*
X187062868Y-77381771D02*
X186967630Y-77429390D01*
X186967630Y-77429390D02*
X186920011Y-77477009D01*
X186920011Y-77477009D02*
X186872392Y-77572247D01*
X186872392Y-77572247D02*
X186872392Y-77810342D01*
X186872392Y-77810342D02*
X186920011Y-77905580D01*
X186920011Y-77905580D02*
X186967630Y-77953200D01*
X186967630Y-77953200D02*
X187062868Y-78000819D01*
X187062868Y-78000819D02*
X187348582Y-78000819D01*
X187348582Y-78000819D02*
X187443820Y-77953200D01*
X187443820Y-77953200D02*
X187491439Y-77905580D01*
X127936523Y-81064819D02*
X127936523Y-81779104D01*
X127936523Y-81779104D02*
X127984142Y-81921961D01*
X127984142Y-81921961D02*
X128079380Y-82017200D01*
X128079380Y-82017200D02*
X128222237Y-82064819D01*
X128222237Y-82064819D02*
X128317475Y-82064819D01*
X126936523Y-82064819D02*
X127507951Y-82064819D01*
X127222237Y-82064819D02*
X127222237Y-81064819D01*
X127222237Y-81064819D02*
X127317475Y-81207676D01*
X127317475Y-81207676D02*
X127412713Y-81302914D01*
X127412713Y-81302914D02*
X127507951Y-81350533D01*
X126365094Y-81493390D02*
X126460332Y-81445771D01*
X126460332Y-81445771D02*
X126507951Y-81398152D01*
X126507951Y-81398152D02*
X126555570Y-81302914D01*
X126555570Y-81302914D02*
X126555570Y-81255295D01*
X126555570Y-81255295D02*
X126507951Y-81160057D01*
X126507951Y-81160057D02*
X126460332Y-81112438D01*
X126460332Y-81112438D02*
X126365094Y-81064819D01*
X126365094Y-81064819D02*
X126174618Y-81064819D01*
X126174618Y-81064819D02*
X126079380Y-81112438D01*
X126079380Y-81112438D02*
X126031761Y-81160057D01*
X126031761Y-81160057D02*
X125984142Y-81255295D01*
X125984142Y-81255295D02*
X125984142Y-81302914D01*
X125984142Y-81302914D02*
X126031761Y-81398152D01*
X126031761Y-81398152D02*
X126079380Y-81445771D01*
X126079380Y-81445771D02*
X126174618Y-81493390D01*
X126174618Y-81493390D02*
X126365094Y-81493390D01*
X126365094Y-81493390D02*
X126460332Y-81541009D01*
X126460332Y-81541009D02*
X126507951Y-81588628D01*
X126507951Y-81588628D02*
X126555570Y-81683866D01*
X126555570Y-81683866D02*
X126555570Y-81874342D01*
X126555570Y-81874342D02*
X126507951Y-81969580D01*
X126507951Y-81969580D02*
X126460332Y-82017200D01*
X126460332Y-82017200D02*
X126365094Y-82064819D01*
X126365094Y-82064819D02*
X126174618Y-82064819D01*
X126174618Y-82064819D02*
X126079380Y-82017200D01*
X126079380Y-82017200D02*
X126031761Y-81969580D01*
X126031761Y-81969580D02*
X125984142Y-81874342D01*
X125984142Y-81874342D02*
X125984142Y-81683866D01*
X125984142Y-81683866D02*
X126031761Y-81588628D01*
X126031761Y-81588628D02*
X126079380Y-81541009D01*
X126079380Y-81541009D02*
X126174618Y-81493390D01*
X130889333Y-77000819D02*
X130889333Y-77715104D01*
X130889333Y-77715104D02*
X130936952Y-77857961D01*
X130936952Y-77857961D02*
X131032190Y-77953200D01*
X131032190Y-77953200D02*
X131175047Y-78000819D01*
X131175047Y-78000819D02*
X131270285Y-78000819D01*
X129984571Y-77000819D02*
X130175047Y-77000819D01*
X130175047Y-77000819D02*
X130270285Y-77048438D01*
X130270285Y-77048438D02*
X130317904Y-77096057D01*
X130317904Y-77096057D02*
X130413142Y-77238914D01*
X130413142Y-77238914D02*
X130460761Y-77429390D01*
X130460761Y-77429390D02*
X130460761Y-77810342D01*
X130460761Y-77810342D02*
X130413142Y-77905580D01*
X130413142Y-77905580D02*
X130365523Y-77953200D01*
X130365523Y-77953200D02*
X130270285Y-78000819D01*
X130270285Y-78000819D02*
X130079809Y-78000819D01*
X130079809Y-78000819D02*
X129984571Y-77953200D01*
X129984571Y-77953200D02*
X129936952Y-77905580D01*
X129936952Y-77905580D02*
X129889333Y-77810342D01*
X129889333Y-77810342D02*
X129889333Y-77572247D01*
X129889333Y-77572247D02*
X129936952Y-77477009D01*
X129936952Y-77477009D02*
X129984571Y-77429390D01*
X129984571Y-77429390D02*
X130079809Y-77381771D01*
X130079809Y-77381771D02*
X130270285Y-77381771D01*
X130270285Y-77381771D02*
X130365523Y-77429390D01*
X130365523Y-77429390D02*
X130413142Y-77477009D01*
X130413142Y-77477009D02*
X130460761Y-77572247D01*
X171275333Y-77000819D02*
X171275333Y-77715104D01*
X171275333Y-77715104D02*
X171322952Y-77857961D01*
X171322952Y-77857961D02*
X171418190Y-77953200D01*
X171418190Y-77953200D02*
X171561047Y-78000819D01*
X171561047Y-78000819D02*
X171656285Y-78000819D01*
X170846761Y-77096057D02*
X170799142Y-77048438D01*
X170799142Y-77048438D02*
X170703904Y-77000819D01*
X170703904Y-77000819D02*
X170465809Y-77000819D01*
X170465809Y-77000819D02*
X170370571Y-77048438D01*
X170370571Y-77048438D02*
X170322952Y-77096057D01*
X170322952Y-77096057D02*
X170275333Y-77191295D01*
X170275333Y-77191295D02*
X170275333Y-77286533D01*
X170275333Y-77286533D02*
X170322952Y-77429390D01*
X170322952Y-77429390D02*
X170894380Y-78000819D01*
X170894380Y-78000819D02*
X170275333Y-78000819D01*
X214933333Y-77000819D02*
X214933333Y-77715104D01*
X214933333Y-77715104D02*
X214980952Y-77857961D01*
X214980952Y-77857961D02*
X215076190Y-77953200D01*
X215076190Y-77953200D02*
X215219047Y-78000819D01*
X215219047Y-78000819D02*
X215314285Y-78000819D01*
X213980952Y-77000819D02*
X214457142Y-77000819D01*
X214457142Y-77000819D02*
X214504761Y-77477009D01*
X214504761Y-77477009D02*
X214457142Y-77429390D01*
X214457142Y-77429390D02*
X214361904Y-77381771D01*
X214361904Y-77381771D02*
X214123809Y-77381771D01*
X214123809Y-77381771D02*
X214028571Y-77429390D01*
X214028571Y-77429390D02*
X213980952Y-77477009D01*
X213980952Y-77477009D02*
X213933333Y-77572247D01*
X213933333Y-77572247D02*
X213933333Y-77810342D01*
X213933333Y-77810342D02*
X213980952Y-77905580D01*
X213980952Y-77905580D02*
X214028571Y-77953200D01*
X214028571Y-77953200D02*
X214123809Y-78000819D01*
X214123809Y-78000819D02*
X214361904Y-78000819D01*
X214361904Y-78000819D02*
X214457142Y-77953200D01*
X214457142Y-77953200D02*
X214504761Y-77905580D01*
X177764381Y-79155276D02*
X177764381Y-78515276D01*
X177764381Y-78515276D02*
X177612000Y-78515276D01*
X177612000Y-78515276D02*
X177520571Y-78545752D01*
X177520571Y-78545752D02*
X177459619Y-78606704D01*
X177459619Y-78606704D02*
X177429142Y-78667657D01*
X177429142Y-78667657D02*
X177398666Y-78789561D01*
X177398666Y-78789561D02*
X177398666Y-78880990D01*
X177398666Y-78880990D02*
X177429142Y-79002895D01*
X177429142Y-79002895D02*
X177459619Y-79063847D01*
X177459619Y-79063847D02*
X177520571Y-79124800D01*
X177520571Y-79124800D02*
X177612000Y-79155276D01*
X177612000Y-79155276D02*
X177764381Y-79155276D01*
X176850095Y-78728609D02*
X176850095Y-79155276D01*
X177002476Y-78484800D02*
X177154857Y-78941942D01*
X177154857Y-78941942D02*
X176758666Y-78941942D01*
X207609381Y-79282276D02*
X207609381Y-78642276D01*
X207609381Y-78642276D02*
X207457000Y-78642276D01*
X207457000Y-78642276D02*
X207365571Y-78672752D01*
X207365571Y-78672752D02*
X207304619Y-78733704D01*
X207304619Y-78733704D02*
X207274142Y-78794657D01*
X207274142Y-78794657D02*
X207243666Y-78916561D01*
X207243666Y-78916561D02*
X207243666Y-79007990D01*
X207243666Y-79007990D02*
X207274142Y-79129895D01*
X207274142Y-79129895D02*
X207304619Y-79190847D01*
X207304619Y-79190847D02*
X207365571Y-79251800D01*
X207365571Y-79251800D02*
X207457000Y-79282276D01*
X207457000Y-79282276D02*
X207609381Y-79282276D01*
X206999857Y-78703228D02*
X206969381Y-78672752D01*
X206969381Y-78672752D02*
X206908428Y-78642276D01*
X206908428Y-78642276D02*
X206756047Y-78642276D01*
X206756047Y-78642276D02*
X206695095Y-78672752D01*
X206695095Y-78672752D02*
X206664619Y-78703228D01*
X206664619Y-78703228D02*
X206634142Y-78764180D01*
X206634142Y-78764180D02*
X206634142Y-78825133D01*
X206634142Y-78825133D02*
X206664619Y-78916561D01*
X206664619Y-78916561D02*
X207030333Y-79282276D01*
X207030333Y-79282276D02*
X206634142Y-79282276D01*
X134654276Y-92805018D02*
X134014276Y-92805018D01*
X134014276Y-92805018D02*
X134014276Y-92957399D01*
X134014276Y-92957399D02*
X134044752Y-93048828D01*
X134044752Y-93048828D02*
X134105704Y-93109780D01*
X134105704Y-93109780D02*
X134166657Y-93140257D01*
X134166657Y-93140257D02*
X134288561Y-93170733D01*
X134288561Y-93170733D02*
X134379990Y-93170733D01*
X134379990Y-93170733D02*
X134501895Y-93140257D01*
X134501895Y-93140257D02*
X134562847Y-93109780D01*
X134562847Y-93109780D02*
X134623800Y-93048828D01*
X134623800Y-93048828D02*
X134654276Y-92957399D01*
X134654276Y-92957399D02*
X134654276Y-92805018D01*
X134288561Y-93536447D02*
X134258085Y-93475495D01*
X134258085Y-93475495D02*
X134227609Y-93445018D01*
X134227609Y-93445018D02*
X134166657Y-93414542D01*
X134166657Y-93414542D02*
X134136180Y-93414542D01*
X134136180Y-93414542D02*
X134075228Y-93445018D01*
X134075228Y-93445018D02*
X134044752Y-93475495D01*
X134044752Y-93475495D02*
X134014276Y-93536447D01*
X134014276Y-93536447D02*
X134014276Y-93658352D01*
X134014276Y-93658352D02*
X134044752Y-93719304D01*
X134044752Y-93719304D02*
X134075228Y-93749780D01*
X134075228Y-93749780D02*
X134136180Y-93780257D01*
X134136180Y-93780257D02*
X134166657Y-93780257D01*
X134166657Y-93780257D02*
X134227609Y-93749780D01*
X134227609Y-93749780D02*
X134258085Y-93719304D01*
X134258085Y-93719304D02*
X134288561Y-93658352D01*
X134288561Y-93658352D02*
X134288561Y-93536447D01*
X134288561Y-93536447D02*
X134319038Y-93475495D01*
X134319038Y-93475495D02*
X134349514Y-93445018D01*
X134349514Y-93445018D02*
X134410466Y-93414542D01*
X134410466Y-93414542D02*
X134532371Y-93414542D01*
X134532371Y-93414542D02*
X134593323Y-93445018D01*
X134593323Y-93445018D02*
X134623800Y-93475495D01*
X134623800Y-93475495D02*
X134654276Y-93536447D01*
X134654276Y-93536447D02*
X134654276Y-93658352D01*
X134654276Y-93658352D02*
X134623800Y-93719304D01*
X134623800Y-93719304D02*
X134593323Y-93749780D01*
X134593323Y-93749780D02*
X134532371Y-93780257D01*
X134532371Y-93780257D02*
X134410466Y-93780257D01*
X134410466Y-93780257D02*
X134349514Y-93749780D01*
X134349514Y-93749780D02*
X134319038Y-93719304D01*
X134319038Y-93719304D02*
X134288561Y-93658352D01*
X132876276Y-91941418D02*
X132236276Y-91941418D01*
X132236276Y-91941418D02*
X132236276Y-92093799D01*
X132236276Y-92093799D02*
X132266752Y-92185228D01*
X132266752Y-92185228D02*
X132327704Y-92246180D01*
X132327704Y-92246180D02*
X132388657Y-92276657D01*
X132388657Y-92276657D02*
X132510561Y-92307133D01*
X132510561Y-92307133D02*
X132601990Y-92307133D01*
X132601990Y-92307133D02*
X132723895Y-92276657D01*
X132723895Y-92276657D02*
X132784847Y-92246180D01*
X132784847Y-92246180D02*
X132845800Y-92185228D01*
X132845800Y-92185228D02*
X132876276Y-92093799D01*
X132876276Y-92093799D02*
X132876276Y-91941418D01*
X132236276Y-92520466D02*
X132236276Y-92947133D01*
X132236276Y-92947133D02*
X132876276Y-92672847D01*
X221071381Y-79282276D02*
X221071381Y-78642276D01*
X221071381Y-78642276D02*
X220919000Y-78642276D01*
X220919000Y-78642276D02*
X220827571Y-78672752D01*
X220827571Y-78672752D02*
X220766619Y-78733704D01*
X220766619Y-78733704D02*
X220736142Y-78794657D01*
X220736142Y-78794657D02*
X220705666Y-78916561D01*
X220705666Y-78916561D02*
X220705666Y-79007990D01*
X220705666Y-79007990D02*
X220736142Y-79129895D01*
X220736142Y-79129895D02*
X220766619Y-79190847D01*
X220766619Y-79190847D02*
X220827571Y-79251800D01*
X220827571Y-79251800D02*
X220919000Y-79282276D01*
X220919000Y-79282276D02*
X221071381Y-79282276D01*
X220096142Y-79282276D02*
X220461857Y-79282276D01*
X220279000Y-79282276D02*
X220279000Y-78642276D01*
X220279000Y-78642276D02*
X220339952Y-78733704D01*
X220339952Y-78733704D02*
X220400904Y-78794657D01*
X220400904Y-78794657D02*
X220461857Y-78825133D01*
X130772819Y-81232476D02*
X131487104Y-81232476D01*
X131487104Y-81232476D02*
X131629961Y-81184857D01*
X131629961Y-81184857D02*
X131725200Y-81089619D01*
X131725200Y-81089619D02*
X131772819Y-80946762D01*
X131772819Y-80946762D02*
X131772819Y-80851524D01*
X131772819Y-82232476D02*
X131772819Y-81661048D01*
X131772819Y-81946762D02*
X130772819Y-81946762D01*
X130772819Y-81946762D02*
X130915676Y-81851524D01*
X130915676Y-81851524D02*
X131010914Y-81756286D01*
X131010914Y-81756286D02*
X131058533Y-81661048D01*
X130772819Y-82565810D02*
X130772819Y-83184857D01*
X130772819Y-83184857D02*
X131153771Y-82851524D01*
X131153771Y-82851524D02*
X131153771Y-82994381D01*
X131153771Y-82994381D02*
X131201390Y-83089619D01*
X131201390Y-83089619D02*
X131249009Y-83137238D01*
X131249009Y-83137238D02*
X131344247Y-83184857D01*
X131344247Y-83184857D02*
X131582342Y-83184857D01*
X131582342Y-83184857D02*
X131677580Y-83137238D01*
X131677580Y-83137238D02*
X131725200Y-83089619D01*
X131725200Y-83089619D02*
X131772819Y-82994381D01*
X131772819Y-82994381D02*
X131772819Y-82708667D01*
X131772819Y-82708667D02*
X131725200Y-82613429D01*
X131725200Y-82613429D02*
X131677580Y-82565810D01*
D11*
%TO.C,J8*%
X133920000Y-78294000D02*
X135320000Y-78294000D01*
X133920000Y-79694000D02*
X133920000Y-78294000D01*
X135320000Y-78294000D02*
X135320000Y-79694000D01*
X135320000Y-79694000D02*
X133920000Y-79694000D01*
D12*
%TO.C,D5*%
X151762000Y-78694000D02*
X152022000Y-78694000D01*
X151762000Y-79294000D02*
X152022000Y-79294000D01*
D13*
X154242000Y-78994000D02*
G75*
G02*
X154042000Y-78994000I-100000J0D01*
G01*
X154042000Y-78994000D02*
G75*
G02*
X154242000Y-78994000I100000J0D01*
G01*
D12*
%TO.C,D3*%
X190336470Y-78694000D02*
X190596470Y-78694000D01*
X190336470Y-79294000D02*
X190596470Y-79294000D01*
D13*
X192816470Y-78994000D02*
G75*
G02*
X192616470Y-78994000I-100000J0D01*
G01*
X192616470Y-78994000D02*
G75*
G02*
X192816470Y-78994000I100000J0D01*
G01*
D12*
%TO.C,D6*%
X137538000Y-78694000D02*
X137798000Y-78694000D01*
X137538000Y-79294000D02*
X137798000Y-79294000D01*
D13*
X140018000Y-78994000D02*
G75*
G02*
X139818000Y-78994000I-100000J0D01*
G01*
X139818000Y-78994000D02*
G75*
G02*
X140018000Y-78994000I100000J0D01*
G01*
D11*
%TO.C,J17*%
X128459000Y-83501000D02*
X129859000Y-83501000D01*
X128459000Y-84901000D02*
X128459000Y-83501000D01*
X129859000Y-83501000D02*
X129859000Y-84901000D01*
X129859000Y-84901000D02*
X128459000Y-84901000D01*
%TO.C,J7*%
X131888000Y-78294000D02*
X133288000Y-78294000D01*
X131888000Y-79694000D02*
X131888000Y-78294000D01*
X133288000Y-78294000D02*
X133288000Y-79694000D01*
X133288000Y-79694000D02*
X131888000Y-79694000D01*
%TO.C,J4*%
X200300000Y-78294000D02*
X201700000Y-78294000D01*
X200300000Y-79694000D02*
X200300000Y-78294000D01*
X201700000Y-78294000D02*
X201700000Y-79694000D01*
X201700000Y-79694000D02*
X200300000Y-79694000D01*
%TO.C,J9*%
X148144000Y-78294000D02*
X149544000Y-78294000D01*
X148144000Y-79694000D02*
X148144000Y-78294000D01*
X149544000Y-78294000D02*
X149544000Y-79694000D01*
X149544000Y-79694000D02*
X148144000Y-79694000D01*
%TO.C,J3*%
X186839059Y-78294000D02*
X188239059Y-78294000D01*
X186839059Y-79694000D02*
X186839059Y-78294000D01*
X188239059Y-78294000D02*
X188239059Y-79694000D01*
X188239059Y-79694000D02*
X186839059Y-79694000D01*
%TO.C,J18*%
X126427000Y-82358000D02*
X127827000Y-82358000D01*
X126427000Y-83758000D02*
X126427000Y-82358000D01*
X127827000Y-82358000D02*
X127827000Y-83758000D01*
X127827000Y-83758000D02*
X126427000Y-83758000D01*
%TO.C,J6*%
X129856000Y-78294000D02*
X131256000Y-78294000D01*
X129856000Y-79694000D02*
X129856000Y-78294000D01*
X131256000Y-78294000D02*
X131256000Y-79694000D01*
X131256000Y-79694000D02*
X129856000Y-79694000D01*
%TO.C,J2*%
X170242000Y-78294000D02*
X171642000Y-78294000D01*
X170242000Y-79694000D02*
X170242000Y-78294000D01*
X171642000Y-78294000D02*
X171642000Y-79694000D01*
X171642000Y-79694000D02*
X170242000Y-79694000D01*
%TO.C,J5*%
X213900000Y-78294000D02*
X215300000Y-78294000D01*
X213900000Y-79694000D02*
X213900000Y-78294000D01*
X215300000Y-78294000D02*
X215300000Y-79694000D01*
X215300000Y-79694000D02*
X213900000Y-79694000D01*
D12*
%TO.C,D4*%
X173826000Y-78694000D02*
X174086000Y-78694000D01*
X173826000Y-79294000D02*
X174086000Y-79294000D01*
D13*
X176306000Y-78994000D02*
G75*
G02*
X176106000Y-78994000I-100000J0D01*
G01*
X176106000Y-78994000D02*
G75*
G02*
X176306000Y-78994000I100000J0D01*
G01*
D12*
%TO.C,D2*%
X203819630Y-78694000D02*
X204079630Y-78694000D01*
X203819630Y-79294000D02*
X204079630Y-79294000D01*
D13*
X206299630Y-78994000D02*
G75*
G02*
X206099630Y-78994000I-100000J0D01*
G01*
X206099630Y-78994000D02*
G75*
G02*
X206299630Y-78994000I100000J0D01*
G01*
D12*
%TO.C,D8*%
X134066000Y-89972400D02*
X134066000Y-90232400D01*
X134666000Y-89972400D02*
X134666000Y-90232400D01*
D13*
X134466000Y-92352400D02*
G75*
G02*
X134266000Y-92352400I-100000J0D01*
G01*
X134266000Y-92352400D02*
G75*
G02*
X134466000Y-92352400I100000J0D01*
G01*
D12*
%TO.C,D7*%
X132288000Y-89074800D02*
X132288000Y-89334800D01*
X132888000Y-89074800D02*
X132888000Y-89334800D01*
D13*
X132688000Y-91454800D02*
G75*
G02*
X132488000Y-91454800I-100000J0D01*
G01*
X132488000Y-91454800D02*
G75*
G02*
X132688000Y-91454800I100000J0D01*
G01*
D12*
%TO.C,D1*%
X217408744Y-78694000D02*
X217668744Y-78694000D01*
X217408744Y-79294000D02*
X217668744Y-79294000D01*
D13*
X219888744Y-78994000D02*
G75*
G02*
X219688744Y-78994000I-100000J0D01*
G01*
X219688744Y-78994000D02*
G75*
G02*
X219888744Y-78994000I100000J0D01*
G01*
D11*
%TO.C,J13*%
X130491000Y-83501000D02*
X131891000Y-83501000D01*
X130491000Y-84901000D02*
X130491000Y-83501000D01*
X131891000Y-83501000D02*
X131891000Y-84901000D01*
X131891000Y-84901000D02*
X130491000Y-84901000D01*
%TD*%
%LPC*%
D14*
%TO.C,U8*%
X126873000Y-95504000D03*
X126873000Y-92964000D03*
X126873000Y-90424000D03*
X126873000Y-87884000D03*
X126873000Y-85344000D03*
%TD*%
D15*
%TO.C,J14*%
X131191000Y-86233000D03*
%TD*%
%TO.C,J12*%
X129159000Y-86233000D03*
%TD*%
D14*
%TO.C,U2*%
X161701490Y-79977439D03*
X161701490Y-82517439D03*
X161701490Y-85057439D03*
X161701490Y-87597439D03*
X161701490Y-90137439D03*
X161701490Y-92677439D03*
X161701490Y-95217439D03*
%TD*%
D15*
%TO.C,J15*%
X133223000Y-84201000D03*
%TD*%
%TO.C,J16*%
X133223000Y-86233000D03*
%TD*%
D16*
%TO.C,J10*%
X211135000Y-87037000D03*
X210285000Y-87037000D03*
X209435000Y-87037000D03*
X208585000Y-87037000D03*
X207735000Y-87037000D03*
X206885000Y-87037000D03*
X206035000Y-87037000D03*
X205185000Y-87037000D03*
X205185000Y-85687000D03*
X206035000Y-85687000D03*
X206885000Y-85687000D03*
X207735000Y-85687000D03*
X208585000Y-85687000D03*
X209435000Y-85687000D03*
X210285000Y-85687000D03*
X211135000Y-85687000D03*
D17*
X212485000Y-86057000D03*
D18*
X212485000Y-82677000D03*
D17*
X203835000Y-86057000D03*
D18*
X203835000Y-82677000D03*
%TD*%
D14*
%TO.C,U1*%
X157080000Y-95220000D03*
X157080000Y-92680000D03*
X157080000Y-90140000D03*
X157080000Y-87600000D03*
X157080000Y-85060000D03*
X157080000Y-82520000D03*
X157080000Y-79980000D03*
%TD*%
D19*
%TO.C,J8*%
X134620000Y-78994000D03*
%TD*%
D20*
%TO.C,D5*%
X150842000Y-78994000D03*
X152942000Y-78994000D03*
%TD*%
%TO.C,D3*%
X189416470Y-78994000D03*
X191516470Y-78994000D03*
%TD*%
%TO.C,D6*%
X136618000Y-78994000D03*
X138718000Y-78994000D03*
%TD*%
D19*
%TO.C,J17*%
X129159000Y-84201000D03*
%TD*%
%TO.C,J7*%
X132588000Y-78994000D03*
%TD*%
%TO.C,J4*%
X201000000Y-78994000D03*
%TD*%
%TO.C,J9*%
X148844000Y-78994000D03*
%TD*%
%TO.C,J3*%
X187539059Y-78994000D03*
%TD*%
%TO.C,J18*%
X127127000Y-83058000D03*
%TD*%
%TO.C,J6*%
X130556000Y-78994000D03*
%TD*%
%TO.C,J2*%
X170942000Y-78994000D03*
%TD*%
%TO.C,J5*%
X214600000Y-78994000D03*
%TD*%
D20*
%TO.C,D4*%
X172906000Y-78994000D03*
X175006000Y-78994000D03*
%TD*%
%TO.C,D2*%
X202899630Y-78994000D03*
X204999630Y-78994000D03*
%TD*%
D21*
%TO.C,D8*%
X134366000Y-89052400D03*
X134366000Y-91152400D03*
%TD*%
%TO.C,D7*%
X132588000Y-88154800D03*
X132588000Y-90254800D03*
%TD*%
D20*
%TO.C,D1*%
X216488744Y-78994000D03*
X218588744Y-78994000D03*
%TD*%
D19*
%TO.C,J13*%
X131191000Y-84201000D03*
%TD*%
%LPD*%
M02*
