%TF.GenerationSoftware,KiCad,Pcbnew,8.0.6*%
%TF.CreationDate,2024-11-11T18:01:30+01:00*%
%TF.ProjectId,TOUCH-PCB,544f5543-482d-4504-9342-2e6b69636164,rev?*%
%TF.SameCoordinates,Original*%
%TF.FileFunction,Copper,L1,Top*%
%TF.FilePolarity,Positive*%
%FSLAX46Y46*%
G04 Gerber Fmt 4.6, Leading zero omitted, Abs format (unit mm)*
G04 Created by KiCad (PCBNEW 8.0.6) date 2024-11-11 18:01:30*
%MOMM*%
%LPD*%
G01*
G04 APERTURE LIST*
G04 Aperture macros list*
%AMRoundRect*
0 Rectangle with rounded corners*
0 $1 Rounding radius*
0 $2 $3 $4 $5 $6 $7 $8 $9 X,Y pos of 4 corners*
0 Add a 4 corners polygon primitive as box body*
4,1,4,$2,$3,$4,$5,$6,$7,$8,$9,$2,$3,0*
0 Add four circle primitives for the rounded corners*
1,1,$1+$1,$2,$3*
1,1,$1+$1,$4,$5*
1,1,$1+$1,$6,$7*
1,1,$1+$1,$8,$9*
0 Add four rect primitives between the rounded corners*
20,1,$1+$1,$2,$3,$4,$5,0*
20,1,$1+$1,$4,$5,$6,$7,0*
20,1,$1+$1,$6,$7,$8,$9,0*
20,1,$1+$1,$8,$9,$2,$3,0*%
G04 Aperture macros list end*
%TA.AperFunction,Conductor*%
%ADD10C,0.400000*%
%TD*%
%TA.AperFunction,ComponentPad*%
%ADD11C,3.800000*%
%TD*%
%TA.AperFunction,SMDPad,CuDef*%
%ADD12RoundRect,0.250000X-0.250000X-0.750000X0.250000X-0.750000X0.250000X0.750000X-0.250000X0.750000X0*%
%TD*%
%TA.AperFunction,SMDPad,CuDef*%
%ADD13C,4.000000*%
%TD*%
%TA.AperFunction,Conductor*%
%ADD14C,1.000000*%
%TD*%
G04 APERTURE END LIST*
D10*
%TO.N,Net-(J1-Pin_1)*%
X63104800Y-128143000D02*
X63104800Y-131394200D01*
%TO.N,Net-(J4-Pin_1)*%
X75104800Y-128143000D02*
X75104800Y-131394200D01*
%TO.N,Net-(J2-Pin_1)*%
X99104800Y-128143000D02*
X99104800Y-131394200D01*
%TO.N,Net-(J3-Pin_1)*%
X87104800Y-128143000D02*
X87104800Y-131394200D01*
%TD*%
D11*
%TO.P,J15,1,Pin_1*%
%TO.N,GND*%
X108051600Y-133096000D03*
%TD*%
D12*
%TO.P,J14,1,Pin_1*%
%TO.N,GND*%
X109931200Y-128143000D03*
%TD*%
%TO.P,J8,1,Pin_1*%
%TO.N,Net-(J4-Pin_1)*%
X75104800Y-128143000D03*
%TD*%
%TO.P,J7,1,Pin_1*%
%TO.N,Net-(J3-Pin_1)*%
X87104800Y-128143000D03*
%TD*%
%TO.P,J6,1,Pin_1*%
%TO.N,Net-(J2-Pin_1)*%
X99104800Y-128143000D03*
%TD*%
%TO.P,J5,1,Pin_1*%
%TO.N,Net-(J1-Pin_1)*%
X63104800Y-128143000D03*
%TD*%
D13*
%TO.P,J4,1,Pin_1*%
%TO.N,Net-(J4-Pin_1)*%
X75104800Y-131394200D03*
%TD*%
%TO.P,J3,1,Pin_1*%
%TO.N,Net-(J3-Pin_1)*%
X87104800Y-131394200D03*
%TD*%
%TO.P,J2,1,Pin_1*%
%TO.N,Net-(J2-Pin_1)*%
X99104800Y-131394200D03*
%TD*%
%TO.P,J1,1,Pin_1*%
%TO.N,Net-(J1-Pin_1)*%
X63104800Y-131394200D03*
%TD*%
D11*
%TO.P,J16,1,Pin_1*%
%TO.N,GND*%
X56235600Y-131572000D03*
%TD*%
D14*
%TO.N,Net-(J1-Pin_1)*%
X63104800Y-128143000D02*
X63104800Y-131394200D01*
%TD*%
%TA.AperFunction,Conductor*%
%TO.N,GND*%
G36*
X62054263Y-127164585D02*
G01*
X62100018Y-127217389D01*
X62110582Y-127281503D01*
X62104300Y-127342983D01*
X62104300Y-129017442D01*
X62084615Y-129084481D01*
X62040038Y-129126104D01*
X61762316Y-129278783D01*
X61762304Y-129278791D01*
X61507778Y-129463715D01*
X61507768Y-129463723D01*
X61278408Y-129679107D01*
X61278406Y-129679109D01*
X61077854Y-129921534D01*
X61077851Y-129921538D01*
X60909264Y-130187190D01*
X60909261Y-130187196D01*
X60775299Y-130471878D01*
X60775297Y-130471883D01*
X60678070Y-130771116D01*
X60619111Y-131080188D01*
X60619110Y-131080195D01*
X60599356Y-131394194D01*
X60599356Y-131394200D01*
X60619110Y-131708204D01*
X60619111Y-131708211D01*
X60626567Y-131747295D01*
X60666956Y-131959025D01*
X60678070Y-132017283D01*
X60775297Y-132316516D01*
X60775299Y-132316521D01*
X60909261Y-132601203D01*
X60909264Y-132601209D01*
X61077851Y-132866861D01*
X61077854Y-132866865D01*
X61278406Y-133109290D01*
X61278408Y-133109292D01*
X61278410Y-133109294D01*
X61325221Y-133153252D01*
X61507768Y-133324676D01*
X61507778Y-133324684D01*
X61762304Y-133509608D01*
X61762309Y-133509610D01*
X61762316Y-133509616D01*
X62038034Y-133661194D01*
X62038039Y-133661196D01*
X62038041Y-133661197D01*
X62038042Y-133661198D01*
X62330571Y-133777018D01*
X62330574Y-133777019D01*
X62635323Y-133855265D01*
X62635327Y-133855266D01*
X62665265Y-133859048D01*
X62947470Y-133894699D01*
X62947479Y-133894699D01*
X62947482Y-133894700D01*
X62947484Y-133894700D01*
X63262116Y-133894700D01*
X63262118Y-133894700D01*
X63262121Y-133894699D01*
X63262129Y-133894699D01*
X63476179Y-133867658D01*
X63574273Y-133855266D01*
X63879025Y-133777019D01*
X63952617Y-133747882D01*
X63969302Y-133741276D01*
X64975679Y-133741276D01*
X65458445Y-134224042D01*
X66166967Y-133515520D01*
X66871244Y-133515520D01*
X67579766Y-134224042D01*
X68288287Y-133515520D01*
X68992565Y-133515520D01*
X69701086Y-134224042D01*
X70409608Y-133515520D01*
X71113885Y-133515520D01*
X71822406Y-134224042D01*
X72530928Y-133515520D01*
X71822406Y-132806999D01*
X71113885Y-133515520D01*
X70409608Y-133515520D01*
X69701086Y-132806999D01*
X68992565Y-133515520D01*
X68288287Y-133515520D01*
X67579766Y-132806999D01*
X66871244Y-133515520D01*
X66166967Y-133515520D01*
X65642654Y-132991207D01*
X65548030Y-133140312D01*
X65545891Y-133143567D01*
X65541475Y-133150065D01*
X65539235Y-133153252D01*
X65530037Y-133165912D01*
X65527699Y-133169027D01*
X65522886Y-133175232D01*
X65520449Y-133178273D01*
X65309917Y-133432761D01*
X65307383Y-133435728D01*
X65302187Y-133441621D01*
X65299574Y-133444493D01*
X65288863Y-133455900D01*
X65286140Y-133458709D01*
X65280587Y-133464261D01*
X65277798Y-133466964D01*
X65037032Y-133693059D01*
X65034153Y-133695679D01*
X65028263Y-133700872D01*
X65025301Y-133703401D01*
X65013244Y-133713376D01*
X65010207Y-133715810D01*
X65003999Y-133720626D01*
X65000878Y-133722969D01*
X64975679Y-133741276D01*
X63969302Y-133741276D01*
X64171557Y-133661198D01*
X64171558Y-133661197D01*
X64171556Y-133661197D01*
X64171566Y-133661194D01*
X64447284Y-133509616D01*
X64701830Y-133324678D01*
X64931190Y-133109294D01*
X65131747Y-132866863D01*
X65300337Y-132601207D01*
X65334324Y-132528981D01*
X65884706Y-132528981D01*
X66519106Y-133163381D01*
X67227627Y-132454860D01*
X67931904Y-132454860D01*
X68640426Y-133163381D01*
X69348947Y-132454860D01*
X70053225Y-132454860D01*
X70761746Y-133163381D01*
X71470268Y-132454860D01*
X70761746Y-131746338D01*
X70053225Y-132454860D01*
X69348947Y-132454860D01*
X68640426Y-131746338D01*
X67931904Y-132454860D01*
X67227627Y-132454860D01*
X66519105Y-131746338D01*
X65962262Y-132303181D01*
X65905512Y-132477844D01*
X65904253Y-132481523D01*
X65901594Y-132488910D01*
X65900216Y-132492555D01*
X65894456Y-132507105D01*
X65892966Y-132510705D01*
X65889845Y-132517918D01*
X65888239Y-132521474D01*
X65884706Y-132528981D01*
X65334324Y-132528981D01*
X65434303Y-132316515D01*
X65531531Y-132017279D01*
X65590488Y-131708215D01*
X65590725Y-131704460D01*
X65610244Y-131394200D01*
X66871244Y-131394200D01*
X67579766Y-132102721D01*
X68288287Y-131394200D01*
X68992565Y-131394200D01*
X69701086Y-132102721D01*
X70409608Y-131394200D01*
X71113885Y-131394200D01*
X71822406Y-132102721D01*
X72128917Y-131796210D01*
X72128467Y-131793847D01*
X72127799Y-131790021D01*
X72126570Y-131782266D01*
X72126020Y-131778396D01*
X72124059Y-131762871D01*
X72123632Y-131759009D01*
X72122892Y-131751186D01*
X72122586Y-131747295D01*
X72101848Y-131417661D01*
X72101664Y-131413774D01*
X72101417Y-131405923D01*
X72101356Y-131402024D01*
X72101356Y-131386376D01*
X72101417Y-131382477D01*
X72101664Y-131374626D01*
X72101848Y-131370739D01*
X72122586Y-131041105D01*
X72122892Y-131037214D01*
X72123632Y-131029391D01*
X72124059Y-131025529D01*
X72126020Y-131010004D01*
X72126570Y-131006134D01*
X72127799Y-130998379D01*
X72128467Y-130994553D01*
X72128917Y-130992189D01*
X71822406Y-130685678D01*
X71113885Y-131394200D01*
X70409608Y-131394200D01*
X69701086Y-130685678D01*
X68992565Y-131394200D01*
X68288287Y-131394200D01*
X67579766Y-130685678D01*
X66871244Y-131394200D01*
X65610244Y-131394200D01*
X65610244Y-131394194D01*
X65590489Y-131080195D01*
X65590488Y-131080188D01*
X65590488Y-131080185D01*
X65531531Y-130771121D01*
X65434303Y-130471885D01*
X65431625Y-130466195D01*
X65337857Y-130266927D01*
X65334324Y-130259418D01*
X65884705Y-130259418D01*
X65888239Y-130266927D01*
X65889845Y-130270482D01*
X65892966Y-130277695D01*
X65894456Y-130281295D01*
X65900216Y-130295845D01*
X65901594Y-130299490D01*
X65904253Y-130306877D01*
X65905512Y-130310556D01*
X65962262Y-130485217D01*
X66519106Y-131042061D01*
X67227627Y-130333540D01*
X67931904Y-130333540D01*
X68640426Y-131042061D01*
X69348947Y-130333540D01*
X70053225Y-130333540D01*
X70761746Y-131042061D01*
X71470268Y-130333540D01*
X70761746Y-129625018D01*
X70053225Y-130333540D01*
X69348947Y-130333540D01*
X68640426Y-129625018D01*
X67931904Y-130333540D01*
X67227627Y-130333540D01*
X66519105Y-129625018D01*
X65884705Y-130259418D01*
X65334324Y-130259418D01*
X65300337Y-130187193D01*
X65251033Y-130109502D01*
X65131748Y-129921538D01*
X65131745Y-129921534D01*
X64931193Y-129679109D01*
X64931191Y-129679107D01*
X64822837Y-129577355D01*
X64701830Y-129463722D01*
X64701827Y-129463720D01*
X64701821Y-129463715D01*
X64447295Y-129278791D01*
X64447283Y-129278783D01*
X64169562Y-129126104D01*
X64120298Y-129076557D01*
X64112830Y-129047123D01*
X64975679Y-129047123D01*
X65000878Y-129065431D01*
X65003999Y-129067774D01*
X65010207Y-129072590D01*
X65013244Y-129075024D01*
X65025301Y-129084999D01*
X65028263Y-129087528D01*
X65034153Y-129092721D01*
X65037032Y-129095341D01*
X65277798Y-129321436D01*
X65280587Y-129324139D01*
X65286140Y-129329691D01*
X65288863Y-129332500D01*
X65299574Y-129343907D01*
X65302187Y-129346779D01*
X65307383Y-129352672D01*
X65309917Y-129355639D01*
X65520449Y-129610127D01*
X65522886Y-129613168D01*
X65527699Y-129619373D01*
X65530037Y-129622488D01*
X65539235Y-129635148D01*
X65541475Y-129638335D01*
X65545891Y-129644833D01*
X65548030Y-129648088D01*
X65642654Y-129797191D01*
X66166966Y-129272879D01*
X66871244Y-129272879D01*
X67579766Y-129981401D01*
X68288287Y-129272879D01*
X68992565Y-129272879D01*
X69701086Y-129981401D01*
X70409608Y-129272879D01*
X71113885Y-129272879D01*
X71822406Y-129981401D01*
X72530928Y-129272879D01*
X71822406Y-128564358D01*
X71113885Y-129272879D01*
X70409608Y-129272879D01*
X69701086Y-128564358D01*
X68992565Y-129272879D01*
X68288287Y-129272879D01*
X67579766Y-128564358D01*
X66871244Y-129272879D01*
X66166966Y-129272879D01*
X65458445Y-128564357D01*
X64975679Y-129047123D01*
X64112830Y-129047123D01*
X64105300Y-129017442D01*
X64105300Y-128034470D01*
X64105299Y-128034456D01*
X64105299Y-128025576D01*
X64603299Y-128025576D01*
X64603300Y-128025591D01*
X64603300Y-128715226D01*
X65106307Y-128212219D01*
X65810584Y-128212219D01*
X66519106Y-128920741D01*
X67227627Y-128212219D01*
X67931904Y-128212219D01*
X68640426Y-128920741D01*
X69348947Y-128212219D01*
X70053225Y-128212219D01*
X70761746Y-128920741D01*
X71470268Y-128212219D01*
X72174545Y-128212219D01*
X72883067Y-128920741D01*
X73591588Y-128212219D01*
X73022269Y-127642900D01*
X72743865Y-127642900D01*
X72174545Y-128212219D01*
X71470268Y-128212219D01*
X70900949Y-127642900D01*
X70622545Y-127642900D01*
X70053225Y-128212219D01*
X69348947Y-128212219D01*
X68779628Y-127642900D01*
X68501224Y-127642900D01*
X67931904Y-128212219D01*
X67227627Y-128212219D01*
X66658308Y-127642900D01*
X66379904Y-127642900D01*
X65810584Y-128212219D01*
X65106307Y-128212219D01*
X64603299Y-127709211D01*
X64603299Y-128025576D01*
X64105299Y-128025576D01*
X64105299Y-127342998D01*
X64105298Y-127342980D01*
X64099018Y-127281501D01*
X64111788Y-127212808D01*
X64159669Y-127161924D01*
X64222376Y-127144900D01*
X73987224Y-127144900D01*
X74054263Y-127164585D01*
X74100018Y-127217389D01*
X74110582Y-127281503D01*
X74104300Y-127342983D01*
X74104300Y-128943001D01*
X74104301Y-128943019D01*
X74110287Y-129001610D01*
X74097517Y-129070303D01*
X74049636Y-129121187D01*
X74039736Y-129126405D01*
X74038038Y-129127204D01*
X74038035Y-129127205D01*
X74038034Y-129127206D01*
X73773057Y-129272879D01*
X73762316Y-129278784D01*
X73762304Y-129278791D01*
X73507778Y-129463715D01*
X73507768Y-129463723D01*
X73278408Y-129679107D01*
X73278406Y-129679109D01*
X73077854Y-129921534D01*
X73077851Y-129921538D01*
X72909264Y-130187190D01*
X72909261Y-130187196D01*
X72775299Y-130471878D01*
X72775297Y-130471883D01*
X72678070Y-130771116D01*
X72619111Y-131080188D01*
X72619110Y-131080195D01*
X72599356Y-131394194D01*
X72599356Y-131394200D01*
X72619110Y-131708204D01*
X72619111Y-131708211D01*
X72626567Y-131747295D01*
X72666956Y-131959025D01*
X72678070Y-132017283D01*
X72775297Y-132316516D01*
X72775299Y-132316521D01*
X72909261Y-132601203D01*
X72909264Y-132601209D01*
X73077851Y-132866861D01*
X73077854Y-132866865D01*
X73278406Y-133109290D01*
X73278408Y-133109292D01*
X73278410Y-133109294D01*
X73325221Y-133153252D01*
X73507768Y-133324676D01*
X73507778Y-133324684D01*
X73762304Y-133509608D01*
X73762309Y-133509610D01*
X73762316Y-133509616D01*
X74038034Y-133661194D01*
X74038039Y-133661196D01*
X74038041Y-133661197D01*
X74038042Y-133661198D01*
X74330571Y-133777018D01*
X74330574Y-133777019D01*
X74635323Y-133855265D01*
X74635327Y-133855266D01*
X74665265Y-133859048D01*
X74947470Y-133894699D01*
X74947479Y-133894699D01*
X74947482Y-133894700D01*
X74947484Y-133894700D01*
X75262116Y-133894700D01*
X75262118Y-133894700D01*
X75262121Y-133894699D01*
X75262129Y-133894699D01*
X75476179Y-133867658D01*
X75574273Y-133855266D01*
X75879025Y-133777019D01*
X75952617Y-133747882D01*
X76171557Y-133661198D01*
X76171558Y-133661197D01*
X76171556Y-133661197D01*
X76171566Y-133661194D01*
X76436545Y-133515520D01*
X77477846Y-133515520D01*
X78186368Y-134224042D01*
X78894889Y-133515520D01*
X79599166Y-133515520D01*
X80307688Y-134224042D01*
X81016209Y-133515520D01*
X81720487Y-133515520D01*
X82429008Y-134224042D01*
X83137530Y-133515520D01*
X83841807Y-133515520D01*
X84550328Y-134224041D01*
X85125505Y-133648864D01*
X84931802Y-133466964D01*
X84929013Y-133464261D01*
X84923460Y-133458709D01*
X84920737Y-133455900D01*
X84910026Y-133444493D01*
X84907413Y-133441621D01*
X84902217Y-133435728D01*
X84899683Y-133432761D01*
X84689151Y-133178273D01*
X84686714Y-133175232D01*
X84681901Y-133169027D01*
X84679563Y-133165912D01*
X84670365Y-133153252D01*
X84668125Y-133150065D01*
X84663709Y-133143567D01*
X84661570Y-133140312D01*
X84488977Y-132868349D01*
X83841807Y-133515520D01*
X83137530Y-133515520D01*
X82429008Y-132806999D01*
X81720487Y-133515520D01*
X81016209Y-133515520D01*
X80307688Y-132806999D01*
X79599166Y-133515520D01*
X78894889Y-133515520D01*
X78186368Y-132806999D01*
X77477846Y-133515520D01*
X76436545Y-133515520D01*
X76447284Y-133509616D01*
X76701830Y-133324678D01*
X76931190Y-133109294D01*
X77131747Y-132866863D01*
X77300337Y-132601207D01*
X77369203Y-132454860D01*
X78538506Y-132454860D01*
X79247028Y-133163381D01*
X79955549Y-132454860D01*
X80659827Y-132454860D01*
X81368348Y-133163381D01*
X82076870Y-132454860D01*
X82781147Y-132454860D01*
X83489668Y-133163381D01*
X84198190Y-132454860D01*
X83489668Y-131746338D01*
X82781147Y-132454860D01*
X82076870Y-132454860D01*
X81368348Y-131746338D01*
X80659827Y-132454860D01*
X79955549Y-132454860D01*
X79247028Y-131746338D01*
X78538506Y-132454860D01*
X77369203Y-132454860D01*
X77434303Y-132316515D01*
X77531531Y-132017279D01*
X77590488Y-131708215D01*
X77590725Y-131704460D01*
X77610244Y-131394200D01*
X77610244Y-131394194D01*
X77590489Y-131080195D01*
X77590488Y-131080188D01*
X77590488Y-131080185D01*
X77541530Y-130823536D01*
X78048509Y-130823536D01*
X78081133Y-130994552D01*
X78081801Y-130998379D01*
X78083030Y-131006134D01*
X78083580Y-131010004D01*
X78085541Y-131025529D01*
X78085968Y-131029391D01*
X78086708Y-131037214D01*
X78087014Y-131041105D01*
X78107752Y-131370739D01*
X78107936Y-131374626D01*
X78108183Y-131382477D01*
X78108244Y-131386376D01*
X78108244Y-131402024D01*
X78108183Y-131405923D01*
X78107936Y-131413774D01*
X78107752Y-131417661D01*
X78087014Y-131747295D01*
X78086708Y-131751186D01*
X78085968Y-131759009D01*
X78085541Y-131762871D01*
X78083580Y-131778396D01*
X78083030Y-131782266D01*
X78081801Y-131790021D01*
X78081133Y-131793848D01*
X78048509Y-131964862D01*
X78186368Y-132102721D01*
X78894889Y-131394200D01*
X79599166Y-131394200D01*
X80307688Y-132102721D01*
X81016209Y-131394200D01*
X81720487Y-131394200D01*
X82429008Y-132102721D01*
X83137530Y-131394200D01*
X82429008Y-130685678D01*
X81720487Y-131394200D01*
X81016209Y-131394200D01*
X80307688Y-130685678D01*
X79599166Y-131394200D01*
X78894889Y-131394200D01*
X78186367Y-130685678D01*
X78048509Y-130823536D01*
X77541530Y-130823536D01*
X77531531Y-130771121D01*
X77434303Y-130471885D01*
X77431625Y-130466195D01*
X77369203Y-130333540D01*
X78538506Y-130333540D01*
X79247028Y-131042061D01*
X79955549Y-130333540D01*
X80659827Y-130333540D01*
X81368348Y-131042061D01*
X82076870Y-130333540D01*
X82781147Y-130333540D01*
X83489668Y-131042061D01*
X84198190Y-130333540D01*
X83489668Y-129625018D01*
X82781147Y-130333540D01*
X82076870Y-130333540D01*
X81368348Y-129625018D01*
X80659827Y-130333540D01*
X79955549Y-130333540D01*
X79247028Y-129625018D01*
X78538506Y-130333540D01*
X77369203Y-130333540D01*
X77337857Y-130266927D01*
X77300337Y-130187193D01*
X77251033Y-130109502D01*
X77131748Y-129921538D01*
X77131745Y-129921534D01*
X76931193Y-129679109D01*
X76931191Y-129679107D01*
X76822837Y-129577355D01*
X76701830Y-129463722D01*
X76701827Y-129463720D01*
X76701821Y-129463715D01*
X76447295Y-129278791D01*
X76447288Y-129278786D01*
X76447284Y-129278784D01*
X76436543Y-129272879D01*
X77477846Y-129272879D01*
X78186368Y-129981401D01*
X78894889Y-129272879D01*
X79599166Y-129272879D01*
X80307688Y-129981401D01*
X81016209Y-129272879D01*
X81720487Y-129272879D01*
X82429008Y-129981401D01*
X83137530Y-129272879D01*
X83841807Y-129272879D01*
X84488977Y-129920049D01*
X84661570Y-129648088D01*
X84663709Y-129644833D01*
X84668125Y-129638335D01*
X84670365Y-129635148D01*
X84679563Y-129622488D01*
X84681901Y-129619373D01*
X84686714Y-129613168D01*
X84689151Y-129610127D01*
X84899683Y-129355639D01*
X84902217Y-129352672D01*
X84907413Y-129346779D01*
X84910026Y-129343907D01*
X84920737Y-129332500D01*
X84923460Y-129329691D01*
X84929013Y-129324139D01*
X84931802Y-129321436D01*
X85125505Y-129139535D01*
X84550328Y-128564358D01*
X83841807Y-129272879D01*
X83137530Y-129272879D01*
X82429008Y-128564358D01*
X81720487Y-129272879D01*
X81016209Y-129272879D01*
X80307688Y-128564358D01*
X79599166Y-129272879D01*
X78894889Y-129272879D01*
X78186368Y-128564358D01*
X77477846Y-129272879D01*
X76436543Y-129272879D01*
X76171566Y-129127206D01*
X76171561Y-129127204D01*
X76169864Y-129126405D01*
X76169465Y-129126051D01*
X76168151Y-129125329D01*
X76168314Y-129125031D01*
X76117590Y-129080045D01*
X76098679Y-129012783D01*
X76099313Y-129001610D01*
X76105300Y-128943009D01*
X76105299Y-128026107D01*
X76603299Y-128026107D01*
X76603299Y-128398332D01*
X77125708Y-128920741D01*
X77834229Y-128212219D01*
X78538506Y-128212219D01*
X79247028Y-128920741D01*
X79955549Y-128212219D01*
X80659827Y-128212219D01*
X81368348Y-128920741D01*
X82076870Y-128212219D01*
X82781147Y-128212219D01*
X83489668Y-128920741D01*
X84198190Y-128212219D01*
X84902467Y-128212219D01*
X85529002Y-128838754D01*
X85606300Y-128796258D01*
X85606300Y-127642900D01*
X85471787Y-127642900D01*
X84902467Y-128212219D01*
X84198190Y-128212219D01*
X83628871Y-127642900D01*
X83350467Y-127642900D01*
X82781147Y-128212219D01*
X82076870Y-128212219D01*
X81507551Y-127642900D01*
X81229147Y-127642900D01*
X80659827Y-128212219D01*
X79955549Y-128212219D01*
X79386230Y-127642900D01*
X79107826Y-127642900D01*
X78538506Y-128212219D01*
X77834229Y-128212219D01*
X77264910Y-127642900D01*
X76986506Y-127642900D01*
X76603299Y-128026107D01*
X76105299Y-128026107D01*
X76105299Y-127342992D01*
X76099018Y-127281501D01*
X76111788Y-127212808D01*
X76159669Y-127161924D01*
X76222376Y-127144900D01*
X85987224Y-127144900D01*
X86054263Y-127164585D01*
X86100018Y-127217389D01*
X86110582Y-127281503D01*
X86104300Y-127342983D01*
X86104300Y-128943001D01*
X86104301Y-128943019D01*
X86110287Y-129001610D01*
X86097517Y-129070303D01*
X86049636Y-129121187D01*
X86039736Y-129126405D01*
X86038038Y-129127204D01*
X86038035Y-129127205D01*
X86038034Y-129127206D01*
X85773057Y-129272879D01*
X85762316Y-129278784D01*
X85762304Y-129278791D01*
X85507778Y-129463715D01*
X85507768Y-129463723D01*
X85278408Y-129679107D01*
X85278406Y-129679109D01*
X85077854Y-129921534D01*
X85077851Y-129921538D01*
X84909264Y-130187190D01*
X84909261Y-130187196D01*
X84775299Y-130471878D01*
X84775297Y-130471883D01*
X84678070Y-130771116D01*
X84619111Y-131080188D01*
X84619110Y-131080195D01*
X84599356Y-131394194D01*
X84599356Y-131394200D01*
X84619110Y-131708204D01*
X84619111Y-131708211D01*
X84626567Y-131747295D01*
X84666956Y-131959025D01*
X84678070Y-132017283D01*
X84775297Y-132316516D01*
X84775299Y-132316521D01*
X84909261Y-132601203D01*
X84909264Y-132601209D01*
X85077851Y-132866861D01*
X85077854Y-132866865D01*
X85278406Y-133109290D01*
X85278408Y-133109292D01*
X85278410Y-133109294D01*
X85325221Y-133153252D01*
X85507768Y-133324676D01*
X85507778Y-133324684D01*
X85762304Y-133509608D01*
X85762309Y-133509610D01*
X85762316Y-133509616D01*
X86038034Y-133661194D01*
X86038039Y-133661196D01*
X86038041Y-133661197D01*
X86038042Y-133661198D01*
X86330571Y-133777018D01*
X86330574Y-133777019D01*
X86635323Y-133855265D01*
X86635327Y-133855266D01*
X86665265Y-133859048D01*
X86947470Y-133894699D01*
X86947479Y-133894699D01*
X86947482Y-133894700D01*
X86947484Y-133894700D01*
X87262116Y-133894700D01*
X87262118Y-133894700D01*
X87262121Y-133894699D01*
X87262129Y-133894699D01*
X87476179Y-133867658D01*
X87574273Y-133855266D01*
X87879025Y-133777019D01*
X87952617Y-133747882D01*
X88171557Y-133661198D01*
X88171558Y-133661197D01*
X88171556Y-133661197D01*
X88171566Y-133661194D01*
X88447284Y-133509616D01*
X88701830Y-133324678D01*
X88931190Y-133109294D01*
X89048517Y-132967470D01*
X89657718Y-132967470D01*
X89853629Y-133163381D01*
X90562151Y-132454860D01*
X91266428Y-132454860D01*
X91974950Y-133163381D01*
X92683471Y-132454860D01*
X93387749Y-132454860D01*
X94096270Y-133163381D01*
X94804792Y-132454860D01*
X95509069Y-132454860D01*
X96217590Y-133163381D01*
X96498157Y-132882814D01*
X96484593Y-132861440D01*
X96482556Y-132858117D01*
X96478556Y-132851353D01*
X96476624Y-132847964D01*
X96469087Y-132834252D01*
X96467267Y-132830815D01*
X96463703Y-132823820D01*
X96461991Y-132820324D01*
X96321361Y-132521473D01*
X96319755Y-132517918D01*
X96316634Y-132510705D01*
X96315144Y-132507105D01*
X96309384Y-132492555D01*
X96308006Y-132488910D01*
X96305347Y-132481523D01*
X96304088Y-132477844D01*
X96202025Y-132163726D01*
X96200882Y-132160013D01*
X96198689Y-132152467D01*
X96197657Y-132148695D01*
X96193766Y-132133538D01*
X96192856Y-132129745D01*
X96191144Y-132122083D01*
X96190356Y-132118278D01*
X96135133Y-131828795D01*
X95509069Y-132454860D01*
X94804792Y-132454860D01*
X94096270Y-131746338D01*
X93387749Y-132454860D01*
X92683471Y-132454860D01*
X91974950Y-131746338D01*
X91266428Y-132454860D01*
X90562151Y-132454860D01*
X90052297Y-131945006D01*
X90019244Y-132118278D01*
X90018456Y-132122083D01*
X90016744Y-132129745D01*
X90015834Y-132133538D01*
X90011943Y-132148695D01*
X90010911Y-132152467D01*
X90008718Y-132160013D01*
X90007575Y-132163726D01*
X89905512Y-132477844D01*
X89904253Y-132481523D01*
X89901594Y-132488910D01*
X89900216Y-132492555D01*
X89894456Y-132507105D01*
X89892966Y-132510705D01*
X89889845Y-132517918D01*
X89888239Y-132521473D01*
X89747609Y-132820324D01*
X89745897Y-132823820D01*
X89742333Y-132830815D01*
X89740513Y-132834252D01*
X89732976Y-132847964D01*
X89731044Y-132851353D01*
X89727044Y-132858117D01*
X89725007Y-132861441D01*
X89657718Y-132967470D01*
X89048517Y-132967470D01*
X89131747Y-132866863D01*
X89300337Y-132601207D01*
X89434303Y-132316515D01*
X89531531Y-132017279D01*
X89590488Y-131708215D01*
X89590725Y-131704460D01*
X89610244Y-131394200D01*
X90205768Y-131394200D01*
X90914290Y-132102721D01*
X91622811Y-131394200D01*
X92327088Y-131394200D01*
X93035610Y-132102721D01*
X93744131Y-131394200D01*
X94448409Y-131394200D01*
X95156930Y-132102721D01*
X95865452Y-131394200D01*
X95156930Y-130685678D01*
X94448409Y-131394200D01*
X93744131Y-131394200D01*
X93035610Y-130685678D01*
X92327088Y-131394200D01*
X91622811Y-131394200D01*
X90914290Y-130685678D01*
X90205768Y-131394200D01*
X89610244Y-131394200D01*
X89610244Y-131394194D01*
X89590489Y-131080195D01*
X89590488Y-131080188D01*
X89590488Y-131080185D01*
X89531531Y-130771121D01*
X89434303Y-130471885D01*
X89431625Y-130466195D01*
X89337857Y-130266927D01*
X89300337Y-130187193D01*
X89251033Y-130109502D01*
X89131748Y-129921538D01*
X89131745Y-129921534D01*
X89048517Y-129820929D01*
X89657718Y-129820929D01*
X89725007Y-129926959D01*
X89727044Y-129930283D01*
X89731044Y-129937047D01*
X89732976Y-129940436D01*
X89740513Y-129954148D01*
X89742333Y-129957585D01*
X89745897Y-129964580D01*
X89747609Y-129968076D01*
X89888239Y-130266927D01*
X89889845Y-130270482D01*
X89892966Y-130277695D01*
X89894456Y-130281295D01*
X89900216Y-130295845D01*
X89901594Y-130299490D01*
X89904253Y-130306877D01*
X89905512Y-130310556D01*
X90007575Y-130624674D01*
X90008718Y-130628387D01*
X90010911Y-130635933D01*
X90011943Y-130639705D01*
X90015834Y-130654862D01*
X90016744Y-130658655D01*
X90018456Y-130666317D01*
X90019244Y-130670122D01*
X90052297Y-130843393D01*
X90562151Y-130333540D01*
X91266428Y-130333540D01*
X91974950Y-131042061D01*
X92683471Y-130333540D01*
X93387749Y-130333540D01*
X94096270Y-131042061D01*
X94804792Y-130333540D01*
X95509069Y-130333540D01*
X96135133Y-130959604D01*
X96190356Y-130670122D01*
X96191144Y-130666317D01*
X96192856Y-130658655D01*
X96193766Y-130654862D01*
X96197657Y-130639705D01*
X96198689Y-130635933D01*
X96200882Y-130628387D01*
X96202025Y-130624674D01*
X96304088Y-130310556D01*
X96305347Y-130306877D01*
X96308006Y-130299490D01*
X96309384Y-130295845D01*
X96315144Y-130281295D01*
X96316634Y-130277695D01*
X96319755Y-130270482D01*
X96321361Y-130266927D01*
X96461991Y-129968076D01*
X96463703Y-129964580D01*
X96467267Y-129957585D01*
X96469087Y-129954148D01*
X96476624Y-129940436D01*
X96478556Y-129937047D01*
X96482556Y-129930283D01*
X96484593Y-129926960D01*
X96498157Y-129905585D01*
X96217590Y-129625018D01*
X95509069Y-130333540D01*
X94804792Y-130333540D01*
X94096270Y-129625018D01*
X93387749Y-130333540D01*
X92683471Y-130333540D01*
X91974950Y-129625018D01*
X91266428Y-130333540D01*
X90562151Y-130333540D01*
X89853629Y-129625018D01*
X89657718Y-129820929D01*
X89048517Y-129820929D01*
X88931193Y-129679109D01*
X88931191Y-129679107D01*
X88822837Y-129577355D01*
X88701830Y-129463722D01*
X88701827Y-129463720D01*
X88701821Y-129463715D01*
X88447295Y-129278791D01*
X88447288Y-129278786D01*
X88447284Y-129278784D01*
X88171566Y-129127206D01*
X88171561Y-129127204D01*
X88169864Y-129126405D01*
X88169465Y-129126051D01*
X88168151Y-129125329D01*
X88168314Y-129125031D01*
X88117590Y-129080045D01*
X88098679Y-129012783D01*
X88099313Y-129001610D01*
X88105300Y-128943009D01*
X88105300Y-128754029D01*
X88603299Y-128754029D01*
X88603299Y-128796259D01*
X88694051Y-128846151D01*
X88697436Y-128848082D01*
X88704191Y-128852077D01*
X88707510Y-128854111D01*
X88720723Y-128862496D01*
X88723972Y-128864629D01*
X88730474Y-128869047D01*
X88733669Y-128871293D01*
X89000878Y-129065431D01*
X89003999Y-129067774D01*
X89010207Y-129072590D01*
X89013244Y-129075024D01*
X89025301Y-129084999D01*
X89028263Y-129087528D01*
X89034153Y-129092721D01*
X89037032Y-129095341D01*
X89277798Y-129321436D01*
X89280587Y-129324139D01*
X89286140Y-129329691D01*
X89288863Y-129332500D01*
X89299574Y-129343907D01*
X89302187Y-129346779D01*
X89307383Y-129352672D01*
X89309918Y-129355639D01*
X89359181Y-129415188D01*
X89501490Y-129272879D01*
X90205768Y-129272879D01*
X90914290Y-129981401D01*
X91622811Y-129272879D01*
X92327088Y-129272879D01*
X93035610Y-129981401D01*
X93744131Y-129272879D01*
X94448409Y-129272879D01*
X95156930Y-129981401D01*
X95865452Y-129272879D01*
X96569729Y-129272879D01*
X96787768Y-129490918D01*
X96899683Y-129355639D01*
X96902217Y-129352672D01*
X96907413Y-129346779D01*
X96910026Y-129343907D01*
X96920737Y-129332500D01*
X96923460Y-129329691D01*
X96929013Y-129324139D01*
X96931802Y-129321436D01*
X97172568Y-129095341D01*
X97175447Y-129092721D01*
X97181337Y-129087528D01*
X97184299Y-129084999D01*
X97196356Y-129075024D01*
X97199393Y-129072590D01*
X97205601Y-129067774D01*
X97208722Y-129065431D01*
X97475931Y-128871293D01*
X97479126Y-128869047D01*
X97485628Y-128864629D01*
X97488877Y-128862496D01*
X97502090Y-128854111D01*
X97505409Y-128852077D01*
X97512164Y-128848082D01*
X97515548Y-128846151D01*
X97544259Y-128830366D01*
X97278251Y-128564358D01*
X96569729Y-129272879D01*
X95865452Y-129272879D01*
X95156930Y-128564358D01*
X94448409Y-129272879D01*
X93744131Y-129272879D01*
X93035610Y-128564358D01*
X92327088Y-129272879D01*
X91622811Y-129272879D01*
X90914290Y-128564358D01*
X90205768Y-129272879D01*
X89501490Y-129272879D01*
X88792969Y-128564358D01*
X88603299Y-128754029D01*
X88105300Y-128754029D01*
X88105300Y-128212219D01*
X89145108Y-128212219D01*
X89853629Y-128920741D01*
X90562151Y-128212219D01*
X91266428Y-128212219D01*
X91974950Y-128920741D01*
X92683471Y-128212219D01*
X93387749Y-128212219D01*
X94096270Y-128920741D01*
X94804792Y-128212219D01*
X95509069Y-128212219D01*
X96217590Y-128920741D01*
X96926112Y-128212219D01*
X96356793Y-127642900D01*
X96078389Y-127642900D01*
X95509069Y-128212219D01*
X94804792Y-128212219D01*
X94235473Y-127642900D01*
X93957069Y-127642900D01*
X93387749Y-128212219D01*
X92683471Y-128212219D01*
X92114152Y-127642900D01*
X91835748Y-127642900D01*
X91266428Y-128212219D01*
X90562151Y-128212219D01*
X89992832Y-127642900D01*
X89714428Y-127642900D01*
X89145108Y-128212219D01*
X88105300Y-128212219D01*
X88105299Y-127342992D01*
X88099018Y-127281501D01*
X88111788Y-127212808D01*
X88159669Y-127161924D01*
X88222376Y-127144900D01*
X97987224Y-127144900D01*
X98054263Y-127164585D01*
X98100018Y-127217389D01*
X98110582Y-127281503D01*
X98104300Y-127342983D01*
X98104300Y-128943001D01*
X98104301Y-128943019D01*
X98110287Y-129001610D01*
X98097517Y-129070303D01*
X98049636Y-129121187D01*
X98039736Y-129126405D01*
X98038038Y-129127204D01*
X98038035Y-129127205D01*
X98038034Y-129127206D01*
X97773057Y-129272879D01*
X97762316Y-129278784D01*
X97762304Y-129278791D01*
X97507778Y-129463715D01*
X97507768Y-129463723D01*
X97278408Y-129679107D01*
X97278406Y-129679109D01*
X97077854Y-129921534D01*
X97077851Y-129921538D01*
X96909264Y-130187190D01*
X96909261Y-130187196D01*
X96775299Y-130471878D01*
X96775297Y-130471883D01*
X96678070Y-130771116D01*
X96619111Y-131080188D01*
X96619110Y-131080195D01*
X96599356Y-131394194D01*
X96599356Y-131394200D01*
X96619110Y-131708204D01*
X96619111Y-131708211D01*
X96626567Y-131747295D01*
X96666956Y-131959025D01*
X96678070Y-132017283D01*
X96775297Y-132316516D01*
X96775299Y-132316521D01*
X96909261Y-132601203D01*
X96909264Y-132601209D01*
X97077851Y-132866861D01*
X97077854Y-132866865D01*
X97278406Y-133109290D01*
X97278408Y-133109292D01*
X97278410Y-133109294D01*
X97325221Y-133153252D01*
X97507768Y-133324676D01*
X97507778Y-133324684D01*
X97762304Y-133509608D01*
X97762309Y-133509610D01*
X97762316Y-133509616D01*
X98038034Y-133661194D01*
X98038039Y-133661196D01*
X98038041Y-133661197D01*
X98038042Y-133661198D01*
X98330571Y-133777018D01*
X98330574Y-133777019D01*
X98635323Y-133855265D01*
X98635327Y-133855266D01*
X98665265Y-133859048D01*
X98947470Y-133894699D01*
X98947479Y-133894699D01*
X98947482Y-133894700D01*
X98947484Y-133894700D01*
X99262116Y-133894700D01*
X99262118Y-133894700D01*
X99262121Y-133894699D01*
X99262129Y-133894699D01*
X99476179Y-133867658D01*
X99574273Y-133855266D01*
X99879025Y-133777019D01*
X99952617Y-133747882D01*
X100036378Y-133714719D01*
X101011568Y-133714719D01*
X101520891Y-134224042D01*
X102229413Y-133515520D01*
X102933690Y-133515520D01*
X103642212Y-134224042D01*
X104350733Y-133515520D01*
X103642212Y-132806999D01*
X102933690Y-133515520D01*
X102229413Y-133515520D01*
X101666898Y-132953005D01*
X101548030Y-133140312D01*
X101545891Y-133143567D01*
X101541475Y-133150065D01*
X101539235Y-133153252D01*
X101530037Y-133165912D01*
X101527699Y-133169027D01*
X101522886Y-133175232D01*
X101520449Y-133178273D01*
X101309917Y-133432761D01*
X101307383Y-133435728D01*
X101302187Y-133441621D01*
X101299574Y-133444493D01*
X101288863Y-133455900D01*
X101286140Y-133458709D01*
X101280587Y-133464261D01*
X101277798Y-133466964D01*
X101037032Y-133693059D01*
X101034153Y-133695679D01*
X101028263Y-133700872D01*
X101025301Y-133703401D01*
X101013244Y-133713376D01*
X101011568Y-133714719D01*
X100036378Y-133714719D01*
X100171557Y-133661198D01*
X100171558Y-133661197D01*
X100171556Y-133661197D01*
X100171566Y-133661194D01*
X100447284Y-133509616D01*
X100701830Y-133324678D01*
X100931190Y-133109294D01*
X101131747Y-132866863D01*
X101300337Y-132601207D01*
X101355078Y-132484876D01*
X101903046Y-132484876D01*
X102581551Y-133163381D01*
X103290073Y-132454860D01*
X103994350Y-132454860D01*
X104702871Y-133163381D01*
X105179390Y-132686862D01*
X105234691Y-132396965D01*
X105235479Y-132393160D01*
X105237191Y-132385498D01*
X105238101Y-132381705D01*
X105241992Y-132366548D01*
X105243023Y-132362780D01*
X105245216Y-132355233D01*
X105246360Y-132351517D01*
X105261488Y-132304955D01*
X104702872Y-131746339D01*
X103994350Y-132454860D01*
X103290073Y-132454860D01*
X102581551Y-131746338D01*
X101932207Y-132395682D01*
X101905512Y-132477844D01*
X101904253Y-132481523D01*
X101903046Y-132484876D01*
X101355078Y-132484876D01*
X101434303Y-132316515D01*
X101531531Y-132017279D01*
X101590488Y-131708215D01*
X101590725Y-131704460D01*
X101610244Y-131394200D01*
X102933690Y-131394200D01*
X103642212Y-132102721D01*
X104350733Y-131394200D01*
X105055010Y-131394200D01*
X105459327Y-131798517D01*
X105497034Y-131718388D01*
X105498746Y-131714892D01*
X105502310Y-131707897D01*
X105504130Y-131704460D01*
X105511667Y-131690748D01*
X105513606Y-131687348D01*
X105517607Y-131680584D01*
X105519637Y-131677272D01*
X105689837Y-131409079D01*
X105691976Y-131405823D01*
X105696392Y-131399325D01*
X105698635Y-131396134D01*
X105707833Y-131383475D01*
X105710166Y-131380367D01*
X105714978Y-131374163D01*
X105717415Y-131371121D01*
X105871789Y-131184510D01*
X105911909Y-131152625D01*
X106006369Y-131105426D01*
X106049230Y-131094241D01*
X106050488Y-131078267D01*
X106065916Y-131027407D01*
X106080039Y-131002186D01*
X105763532Y-130685679D01*
X105055010Y-131394200D01*
X104350733Y-131394200D01*
X103642212Y-130685678D01*
X102933690Y-131394200D01*
X101610244Y-131394200D01*
X101610244Y-131394194D01*
X101590489Y-131080195D01*
X101590488Y-131080188D01*
X101590488Y-131080185D01*
X101531531Y-130771121D01*
X101434303Y-130471885D01*
X101431625Y-130466195D01*
X101355078Y-130303523D01*
X101903045Y-130303523D01*
X101904253Y-130306877D01*
X101905512Y-130310556D01*
X101932207Y-130392717D01*
X102581551Y-131042061D01*
X103290073Y-130333540D01*
X103994350Y-130333540D01*
X104702872Y-131042061D01*
X105411393Y-130333540D01*
X106115671Y-130333540D01*
X106455582Y-130673451D01*
X106476688Y-130658117D01*
X106479870Y-130655881D01*
X106486363Y-130651468D01*
X106489620Y-130649328D01*
X106502832Y-130640943D01*
X106506152Y-130638909D01*
X106512915Y-130634909D01*
X106516302Y-130632976D01*
X106794647Y-130479954D01*
X106798091Y-130478131D01*
X106805082Y-130474569D01*
X106808571Y-130472859D01*
X106822730Y-130466195D01*
X106826290Y-130464588D01*
X106833507Y-130461465D01*
X106837105Y-130459975D01*
X107132445Y-130343042D01*
X107136089Y-130341665D01*
X107143483Y-130339003D01*
X107147173Y-130337739D01*
X107162056Y-130332904D01*
X107165774Y-130331761D01*
X107173312Y-130329571D01*
X107177070Y-130328543D01*
X107456079Y-130256905D01*
X107412719Y-130213545D01*
X108356984Y-130213545D01*
X108572389Y-130240758D01*
X108576254Y-130241308D01*
X108584023Y-130242539D01*
X108587868Y-130243210D01*
X108603238Y-130246144D01*
X108607039Y-130246932D01*
X108614693Y-130248643D01*
X108618478Y-130249552D01*
X108926130Y-130328543D01*
X108929888Y-130329571D01*
X108937426Y-130331761D01*
X108941144Y-130332904D01*
X108956027Y-130337739D01*
X108959717Y-130339003D01*
X108967111Y-130341665D01*
X108970755Y-130343042D01*
X109266095Y-130459975D01*
X109269693Y-130461465D01*
X109276910Y-130464588D01*
X109280470Y-130466195D01*
X109294629Y-130472859D01*
X109298118Y-130474569D01*
X109305109Y-130478131D01*
X109308553Y-130479954D01*
X109437003Y-130550570D01*
X109654034Y-130333540D01*
X109444012Y-130123518D01*
X109437527Y-130122314D01*
X109410951Y-130116623D01*
X109404391Y-130115030D01*
X109391235Y-130111454D01*
X109384756Y-130109502D01*
X109191675Y-130045521D01*
X109184897Y-130043054D01*
X109171380Y-130037684D01*
X109164761Y-130034829D01*
X109138484Y-130022577D01*
X109132035Y-130019338D01*
X109119227Y-130012432D01*
X109112980Y-130008826D01*
X108939079Y-129901563D01*
X108933050Y-129897597D01*
X108921130Y-129889250D01*
X108915347Y-129884945D01*
X108892605Y-129866963D01*
X108887074Y-129862322D01*
X108876208Y-129852651D01*
X108870967Y-129847705D01*
X108796896Y-129773634D01*
X108356984Y-130213545D01*
X107412719Y-130213545D01*
X106824192Y-129625018D01*
X106115671Y-130333540D01*
X105411393Y-130333540D01*
X104702872Y-129625018D01*
X103994350Y-130333540D01*
X103290073Y-130333540D01*
X102581551Y-129625018D01*
X101903045Y-130303523D01*
X101355078Y-130303523D01*
X101337857Y-130266927D01*
X101300337Y-130187193D01*
X101251033Y-130109502D01*
X101131748Y-129921538D01*
X101131745Y-129921534D01*
X100931193Y-129679109D01*
X100931191Y-129679107D01*
X100822837Y-129577355D01*
X100701830Y-129463722D01*
X100701827Y-129463720D01*
X100701821Y-129463715D01*
X100447295Y-129278791D01*
X100447288Y-129278786D01*
X100447284Y-129278784D01*
X100171566Y-129127206D01*
X100171561Y-129127204D01*
X100169864Y-129126405D01*
X100169465Y-129126051D01*
X100168151Y-129125329D01*
X100168314Y-129125031D01*
X100117590Y-129080045D01*
X100115800Y-129073680D01*
X101011568Y-129073680D01*
X101013244Y-129075024D01*
X101025301Y-129084999D01*
X101028263Y-129087528D01*
X101034153Y-129092721D01*
X101037032Y-129095341D01*
X101277798Y-129321436D01*
X101280587Y-129324139D01*
X101286140Y-129329691D01*
X101288863Y-129332500D01*
X101299574Y-129343907D01*
X101302187Y-129346779D01*
X101307383Y-129352672D01*
X101309917Y-129355639D01*
X101520449Y-129610127D01*
X101522886Y-129613168D01*
X101527699Y-129619373D01*
X101530037Y-129622488D01*
X101539235Y-129635148D01*
X101541475Y-129638335D01*
X101545891Y-129644833D01*
X101548030Y-129648088D01*
X101666898Y-129835394D01*
X102229412Y-129272879D01*
X102933690Y-129272879D01*
X103642212Y-129981401D01*
X104350733Y-129272879D01*
X105055010Y-129272879D01*
X105763532Y-129981401D01*
X106472053Y-129272879D01*
X107176331Y-129272879D01*
X107884852Y-129981400D01*
X108517490Y-129348762D01*
X108464696Y-129189439D01*
X108462745Y-129182965D01*
X108459166Y-129169800D01*
X108457570Y-129163225D01*
X108451881Y-129136648D01*
X108450681Y-129130187D01*
X108263480Y-128942986D01*
X108931201Y-128942986D01*
X108941694Y-129045697D01*
X108996841Y-129212119D01*
X108996843Y-129212124D01*
X109088884Y-129361345D01*
X109212854Y-129485315D01*
X109362075Y-129577356D01*
X109362080Y-129577358D01*
X109528502Y-129632505D01*
X109528509Y-129632506D01*
X109631219Y-129642999D01*
X109681199Y-129642998D01*
X109681200Y-129642998D01*
X109681200Y-128393000D01*
X108931201Y-128393000D01*
X108931201Y-128942986D01*
X108263480Y-128942986D01*
X107884852Y-128564358D01*
X107176331Y-129272879D01*
X106472053Y-129272879D01*
X105763532Y-128564358D01*
X105055010Y-129272879D01*
X104350733Y-129272879D01*
X103642212Y-128564358D01*
X102933690Y-129272879D01*
X102229412Y-129272879D01*
X101520891Y-128564357D01*
X101011568Y-129073680D01*
X100115800Y-129073680D01*
X100098679Y-129012783D01*
X100099313Y-129001610D01*
X100105300Y-128943009D01*
X100105300Y-128777673D01*
X100603299Y-128777673D01*
X101168753Y-128212219D01*
X101873030Y-128212219D01*
X102581551Y-128920741D01*
X103290073Y-128212219D01*
X103994350Y-128212219D01*
X104702872Y-128920741D01*
X105411393Y-128212219D01*
X106115671Y-128212219D01*
X106824192Y-128920741D01*
X107532714Y-128212219D01*
X106963395Y-127642900D01*
X106684991Y-127642900D01*
X106115671Y-128212219D01*
X105411393Y-128212219D01*
X104842074Y-127642900D01*
X104563670Y-127642900D01*
X103994350Y-128212219D01*
X103290073Y-128212219D01*
X102720754Y-127642900D01*
X102442350Y-127642900D01*
X101873030Y-128212219D01*
X101168753Y-128212219D01*
X100603299Y-127646765D01*
X100603299Y-128777673D01*
X100105300Y-128777673D01*
X100105299Y-127342992D01*
X100099018Y-127281501D01*
X100111788Y-127212808D01*
X100159669Y-127161924D01*
X100222376Y-127144900D01*
X108814127Y-127144900D01*
X108881166Y-127164585D01*
X108926921Y-127217389D01*
X108937485Y-127281503D01*
X108931200Y-127343013D01*
X108931200Y-127893000D01*
X110057200Y-127893000D01*
X110124239Y-127912685D01*
X110169994Y-127965489D01*
X110181200Y-128017000D01*
X110181200Y-129642999D01*
X110231172Y-129642999D01*
X110231186Y-129642998D01*
X110333897Y-129632505D01*
X110500319Y-129577358D01*
X110500326Y-129577355D01*
X110511602Y-129570400D01*
X110578994Y-129551959D01*
X110645658Y-129572881D01*
X110690428Y-129626522D01*
X110700700Y-129675938D01*
X110700700Y-133034166D01*
X110681129Y-133100814D01*
X110697636Y-133130438D01*
X110700700Y-133157833D01*
X110700700Y-135519500D01*
X110681015Y-135586539D01*
X110628211Y-135632294D01*
X110576700Y-135643500D01*
X108761874Y-135643500D01*
X108694835Y-135623815D01*
X108649080Y-135571011D01*
X108639136Y-135501853D01*
X108668161Y-135438297D01*
X108726939Y-135400523D01*
X108731036Y-135399396D01*
X108794711Y-135383046D01*
X109075482Y-135271882D01*
X109075490Y-135271878D01*
X109340120Y-135126397D01*
X109340130Y-135126390D01*
X109565033Y-134962987D01*
X109565034Y-134962987D01*
X108634337Y-134032290D01*
X108768202Y-133935033D01*
X108890633Y-133812602D01*
X108987890Y-133678737D01*
X109916287Y-134607134D01*
X109997086Y-134509464D01*
X110158892Y-134254497D01*
X110158895Y-134254491D01*
X110287472Y-133981252D01*
X110287474Y-133981247D01*
X110380794Y-133694040D01*
X110437383Y-133397390D01*
X110437384Y-133397383D01*
X110452945Y-133150047D01*
X110473455Y-133093582D01*
X110457723Y-133069101D01*
X110452945Y-133041952D01*
X110437384Y-132794616D01*
X110437383Y-132794609D01*
X110380794Y-132497959D01*
X110287474Y-132210752D01*
X110287472Y-132210747D01*
X110158895Y-131937508D01*
X110158892Y-131937502D01*
X109997083Y-131682530D01*
X109916286Y-131584864D01*
X108987889Y-132513261D01*
X108890633Y-132379398D01*
X108768202Y-132256967D01*
X108634336Y-132159709D01*
X109565034Y-131229011D01*
X109565033Y-131229009D01*
X109340138Y-131065614D01*
X109340120Y-131065602D01*
X109075490Y-130920121D01*
X109075482Y-130920117D01*
X108794710Y-130808952D01*
X108794707Y-130808951D01*
X108502200Y-130733849D01*
X108202604Y-130696000D01*
X107900595Y-130696000D01*
X107600999Y-130733849D01*
X107308492Y-130808951D01*
X107308489Y-130808952D01*
X107027717Y-130920117D01*
X107027709Y-130920121D01*
X106763076Y-131065604D01*
X106763071Y-131065607D01*
X106538165Y-131229010D01*
X106538164Y-131229011D01*
X107468862Y-132159709D01*
X107334998Y-132256967D01*
X107212567Y-132379398D01*
X107115309Y-132513262D01*
X106186911Y-131584864D01*
X106106120Y-131682525D01*
X106106118Y-131682528D01*
X105944307Y-131937502D01*
X105944304Y-131937508D01*
X105815727Y-132210747D01*
X105815725Y-132210752D01*
X105722405Y-132497959D01*
X105665816Y-132794609D01*
X105665815Y-132794616D01*
X105646855Y-133095994D01*
X105646855Y-133096005D01*
X105665815Y-133397383D01*
X105665816Y-133397390D01*
X105722405Y-133694040D01*
X105815725Y-133981247D01*
X105815727Y-133981252D01*
X105944304Y-134254491D01*
X105944307Y-134254497D01*
X106106116Y-134509469D01*
X106186911Y-134607133D01*
X107115308Y-133678736D01*
X107212567Y-133812602D01*
X107334998Y-133935033D01*
X107468862Y-134032290D01*
X106538164Y-134962987D01*
X106538165Y-134962989D01*
X106763061Y-135126385D01*
X106763079Y-135126397D01*
X107027709Y-135271878D01*
X107027717Y-135271882D01*
X107308488Y-135383046D01*
X107372164Y-135399396D01*
X107432202Y-135435134D01*
X107463387Y-135497658D01*
X107455819Y-135567116D01*
X107411900Y-135621457D01*
X107345575Y-135643427D01*
X107341326Y-135643500D01*
X51729300Y-135643500D01*
X51662261Y-135623815D01*
X51616506Y-135571011D01*
X51605300Y-135519500D01*
X51605300Y-134576180D01*
X53082662Y-134576180D01*
X53651982Y-135145500D01*
X53930386Y-135145500D01*
X54499705Y-134576180D01*
X55203982Y-134576180D01*
X55773302Y-135145500D01*
X56051706Y-135145500D01*
X56621025Y-134576180D01*
X57325303Y-134576180D01*
X57894623Y-135145500D01*
X58173027Y-135145500D01*
X58742346Y-134576180D01*
X59446623Y-134576180D01*
X60015943Y-135145500D01*
X60294347Y-135145500D01*
X60863666Y-134576180D01*
X61567943Y-134576180D01*
X62137263Y-135145500D01*
X62415667Y-135145500D01*
X62984986Y-134576180D01*
X63689263Y-134576180D01*
X64258584Y-135145500D01*
X64536988Y-135145500D01*
X65106307Y-134576180D01*
X65810584Y-134576180D01*
X66379904Y-135145500D01*
X66658308Y-135145500D01*
X67227627Y-134576180D01*
X67931904Y-134576180D01*
X68501224Y-135145500D01*
X68779628Y-135145500D01*
X69348947Y-134576180D01*
X70053225Y-134576180D01*
X70622545Y-135145500D01*
X70900949Y-135145500D01*
X71470268Y-134576180D01*
X72174545Y-134576180D01*
X72743865Y-135145500D01*
X73022269Y-135145500D01*
X73591588Y-134576180D01*
X74295865Y-134576180D01*
X74865185Y-135145500D01*
X75143589Y-135145500D01*
X75712908Y-134576180D01*
X76417186Y-134576180D01*
X76986506Y-135145500D01*
X77264910Y-135145500D01*
X77834229Y-134576180D01*
X78538506Y-134576180D01*
X79107826Y-135145500D01*
X79386230Y-135145500D01*
X79955549Y-134576180D01*
X80659827Y-134576180D01*
X81229147Y-135145500D01*
X81507551Y-135145500D01*
X82076870Y-134576180D01*
X82781147Y-134576180D01*
X83350467Y-135145500D01*
X83628871Y-135145500D01*
X84198190Y-134576180D01*
X84902467Y-134576180D01*
X85471787Y-135145500D01*
X85750191Y-135145500D01*
X86319510Y-134576180D01*
X87023788Y-134576180D01*
X87593108Y-135145500D01*
X87871512Y-135145500D01*
X88440831Y-134576181D01*
X88440830Y-134576180D01*
X89145108Y-134576180D01*
X89714428Y-135145500D01*
X89992832Y-135145500D01*
X90562151Y-134576180D01*
X91266428Y-134576180D01*
X91835748Y-135145500D01*
X92114152Y-135145500D01*
X92683471Y-134576180D01*
X93387749Y-134576180D01*
X93957069Y-135145500D01*
X94235473Y-135145500D01*
X94804792Y-134576180D01*
X95509069Y-134576180D01*
X96078389Y-135145500D01*
X96356793Y-135145500D01*
X96926112Y-134576180D01*
X97630389Y-134576180D01*
X98199709Y-135145500D01*
X98478113Y-135145500D01*
X99047432Y-134576180D01*
X99751709Y-134576180D01*
X100321030Y-135145500D01*
X100599434Y-135145500D01*
X101168753Y-134576180D01*
X101873030Y-134576180D01*
X102442350Y-135145500D01*
X102720754Y-135145500D01*
X103290073Y-134576180D01*
X103994350Y-134576180D01*
X104563670Y-135145500D01*
X104842074Y-135145500D01*
X105411393Y-134576180D01*
X104702872Y-133867659D01*
X103994350Y-134576180D01*
X103290073Y-134576180D01*
X102581551Y-133867659D01*
X101873030Y-134576180D01*
X101168753Y-134576180D01*
X100591306Y-133998733D01*
X100404628Y-134101362D01*
X100401184Y-134103185D01*
X100394193Y-134106747D01*
X100390704Y-134108457D01*
X100376545Y-134115121D01*
X100372985Y-134116728D01*
X100365768Y-134119851D01*
X100362170Y-134121341D01*
X100104551Y-134223338D01*
X99751709Y-134576180D01*
X99047432Y-134576180D01*
X98856404Y-134385152D01*
X98565145Y-134348358D01*
X98561288Y-134347809D01*
X98553522Y-134346579D01*
X98549672Y-134345907D01*
X98534300Y-134342973D01*
X98530491Y-134342184D01*
X98522834Y-134340472D01*
X98519054Y-134339564D01*
X98199152Y-134257428D01*
X98195394Y-134256400D01*
X98187856Y-134254210D01*
X98184138Y-134253067D01*
X98169255Y-134248232D01*
X98165565Y-134246968D01*
X98158171Y-134244306D01*
X98154527Y-134242929D01*
X98017781Y-134188787D01*
X97630389Y-134576180D01*
X96926112Y-134576180D01*
X96217590Y-133867659D01*
X95509069Y-134576180D01*
X94804792Y-134576180D01*
X94096270Y-133867659D01*
X93387749Y-134576180D01*
X92683471Y-134576180D01*
X91974950Y-133867659D01*
X91266428Y-134576180D01*
X90562151Y-134576180D01*
X89853629Y-133867659D01*
X89145108Y-134576180D01*
X88440830Y-134576180D01*
X88092686Y-134228036D01*
X88055074Y-134242929D01*
X88051429Y-134244306D01*
X88044035Y-134246968D01*
X88040345Y-134248232D01*
X88025462Y-134253067D01*
X88021744Y-134254210D01*
X88014206Y-134256400D01*
X88010448Y-134257428D01*
X87690546Y-134339564D01*
X87686766Y-134340472D01*
X87679109Y-134342184D01*
X87675300Y-134342973D01*
X87659928Y-134345907D01*
X87656078Y-134346579D01*
X87648312Y-134347809D01*
X87644455Y-134348358D01*
X87316768Y-134389754D01*
X87312901Y-134390181D01*
X87305076Y-134390921D01*
X87301184Y-134391228D01*
X87285567Y-134392210D01*
X87281671Y-134392393D01*
X87273826Y-134392639D01*
X87269940Y-134392700D01*
X87207269Y-134392700D01*
X87023788Y-134576180D01*
X86319510Y-134576180D01*
X85875972Y-134132642D01*
X85847430Y-134121342D01*
X85843832Y-134119851D01*
X85836615Y-134116728D01*
X85833055Y-134115121D01*
X85818896Y-134108457D01*
X85815407Y-134106747D01*
X85808416Y-134103185D01*
X85804972Y-134101362D01*
X85633549Y-134007121D01*
X88576049Y-134007121D01*
X88792970Y-134224042D01*
X89501491Y-133515521D01*
X89501490Y-133515520D01*
X90205768Y-133515520D01*
X90914290Y-134224042D01*
X91622811Y-133515520D01*
X92327088Y-133515520D01*
X93035610Y-134224042D01*
X93744131Y-133515520D01*
X94448409Y-133515520D01*
X95156930Y-134224042D01*
X95865452Y-133515520D01*
X96569729Y-133515520D01*
X97278251Y-134224042D01*
X97544259Y-133958033D01*
X97515548Y-133942249D01*
X97512164Y-133940318D01*
X97505409Y-133936323D01*
X97502090Y-133934289D01*
X97488877Y-133925904D01*
X97485628Y-133923771D01*
X97479126Y-133919353D01*
X97475931Y-133917107D01*
X97208722Y-133722969D01*
X97205601Y-133720626D01*
X97199393Y-133715810D01*
X97196356Y-133713376D01*
X97184299Y-133703401D01*
X97181337Y-133700872D01*
X97175447Y-133695679D01*
X97172568Y-133693059D01*
X96931802Y-133466964D01*
X96929013Y-133464261D01*
X96923460Y-133458709D01*
X96920737Y-133455900D01*
X96910026Y-133444493D01*
X96907413Y-133441621D01*
X96902217Y-133435728D01*
X96899683Y-133432761D01*
X96787769Y-133297481D01*
X96569729Y-133515520D01*
X95865452Y-133515520D01*
X95156930Y-132806999D01*
X94448409Y-133515520D01*
X93744131Y-133515520D01*
X93035610Y-132806999D01*
X92327088Y-133515520D01*
X91622811Y-133515520D01*
X90914290Y-132806999D01*
X90205768Y-133515520D01*
X89501490Y-133515520D01*
X89359181Y-133373211D01*
X89309918Y-133432761D01*
X89307383Y-133435728D01*
X89302187Y-133441621D01*
X89299574Y-133444493D01*
X89288863Y-133455900D01*
X89286140Y-133458709D01*
X89280587Y-133464261D01*
X89277798Y-133466964D01*
X89037032Y-133693059D01*
X89034153Y-133695679D01*
X89028263Y-133700872D01*
X89025301Y-133703401D01*
X89013244Y-133713376D01*
X89010207Y-133715810D01*
X89003999Y-133720626D01*
X89000878Y-133722969D01*
X88733669Y-133917107D01*
X88730474Y-133919353D01*
X88723972Y-133923771D01*
X88720723Y-133925904D01*
X88707510Y-133934289D01*
X88704191Y-133936323D01*
X88697436Y-133940318D01*
X88694052Y-133942249D01*
X88576049Y-134007121D01*
X85633549Y-134007121D01*
X85529001Y-133949645D01*
X84902467Y-134576180D01*
X84198190Y-134576180D01*
X83489668Y-133867659D01*
X82781147Y-134576180D01*
X82076870Y-134576180D01*
X81368348Y-133867659D01*
X80659827Y-134576180D01*
X79955549Y-134576180D01*
X79247028Y-133867659D01*
X78538506Y-134576180D01*
X77834229Y-134576180D01*
X77125707Y-133867659D01*
X76417186Y-134576180D01*
X75712908Y-134576180D01*
X75502960Y-134366232D01*
X75316768Y-134389754D01*
X75312901Y-134390181D01*
X75305076Y-134390921D01*
X75301184Y-134391228D01*
X75285567Y-134392210D01*
X75281671Y-134392393D01*
X75273826Y-134392639D01*
X75269940Y-134392700D01*
X74939660Y-134392700D01*
X74935774Y-134392639D01*
X74927929Y-134392393D01*
X74924033Y-134392210D01*
X74908416Y-134391228D01*
X74904524Y-134390921D01*
X74896699Y-134390181D01*
X74892832Y-134389754D01*
X74565145Y-134348358D01*
X74561288Y-134347809D01*
X74553522Y-134346579D01*
X74549672Y-134345907D01*
X74534300Y-134342973D01*
X74530491Y-134342184D01*
X74529977Y-134342069D01*
X74295865Y-134576180D01*
X73591588Y-134576180D01*
X72883067Y-133867659D01*
X72174545Y-134576180D01*
X71470268Y-134576180D01*
X70761746Y-133867659D01*
X70053225Y-134576180D01*
X69348947Y-134576180D01*
X68640426Y-133867659D01*
X67931904Y-134576180D01*
X67227627Y-134576180D01*
X66519106Y-133867659D01*
X65810584Y-134576180D01*
X65106307Y-134576180D01*
X64551012Y-134020885D01*
X64404628Y-134101362D01*
X64401184Y-134103185D01*
X64394193Y-134106747D01*
X64390704Y-134108457D01*
X64376545Y-134115121D01*
X64372985Y-134116728D01*
X64365768Y-134119851D01*
X64362170Y-134121341D01*
X64055073Y-134242929D01*
X64051429Y-134244306D01*
X64044035Y-134246968D01*
X64040345Y-134248232D01*
X64025462Y-134253067D01*
X64021744Y-134254210D01*
X64014206Y-134256400D01*
X64010445Y-134257429D01*
X64007175Y-134258268D01*
X63689263Y-134576180D01*
X62984986Y-134576180D01*
X62784928Y-134376122D01*
X62565145Y-134348358D01*
X62561288Y-134347809D01*
X62553522Y-134346579D01*
X62549672Y-134345907D01*
X62534300Y-134342973D01*
X62530491Y-134342184D01*
X62522834Y-134340472D01*
X62519054Y-134339564D01*
X62199152Y-134257428D01*
X62195394Y-134256400D01*
X62187856Y-134254210D01*
X62184138Y-134253067D01*
X62169255Y-134248232D01*
X62165565Y-134246968D01*
X62158171Y-134244306D01*
X62154526Y-134242929D01*
X61973047Y-134171076D01*
X61567943Y-134576180D01*
X60863666Y-134576180D01*
X60155145Y-133867659D01*
X59446623Y-134576180D01*
X58742346Y-134576180D01*
X58033824Y-133867658D01*
X57325303Y-134576180D01*
X56621025Y-134576180D01*
X56503974Y-134459129D01*
X56441247Y-134467054D01*
X56437378Y-134467481D01*
X56429552Y-134468221D01*
X56425661Y-134468528D01*
X56410044Y-134469510D01*
X56406148Y-134469693D01*
X56398303Y-134469939D01*
X56394417Y-134470000D01*
X56076783Y-134470000D01*
X56072897Y-134469939D01*
X56065052Y-134469693D01*
X56061156Y-134469510D01*
X56045539Y-134468528D01*
X56041648Y-134468221D01*
X56033822Y-134467481D01*
X56029954Y-134467054D01*
X55714811Y-134427242D01*
X55710946Y-134426692D01*
X55703177Y-134425461D01*
X55699332Y-134424790D01*
X55683962Y-134421856D01*
X55680161Y-134421068D01*
X55672507Y-134419357D01*
X55668722Y-134418448D01*
X55424436Y-134355726D01*
X55203982Y-134576180D01*
X54499705Y-134576180D01*
X53791184Y-133867659D01*
X53082662Y-134576180D01*
X51605300Y-134576180D01*
X51605300Y-133434223D01*
X52103300Y-133434223D01*
X52103300Y-133596818D01*
X52730524Y-134224042D01*
X53439045Y-133515520D01*
X52730523Y-132806999D01*
X52103300Y-133434223D01*
X51605300Y-133434223D01*
X51605300Y-132454859D01*
X53082662Y-132454859D01*
X53791183Y-133163381D01*
X53804655Y-133149910D01*
X53703636Y-132990728D01*
X53701599Y-132987405D01*
X53697599Y-132980641D01*
X53695667Y-132977252D01*
X53688130Y-132963540D01*
X53686310Y-132960103D01*
X53682746Y-132953108D01*
X53681034Y-132949612D01*
X53545789Y-132662204D01*
X53544183Y-132658649D01*
X53541062Y-132651436D01*
X53539572Y-132647836D01*
X53533812Y-132633286D01*
X53532436Y-132629646D01*
X53529777Y-132622260D01*
X53528516Y-132618576D01*
X53430360Y-132316484D01*
X53429216Y-132312767D01*
X53427023Y-132305220D01*
X53425992Y-132301452D01*
X53422101Y-132286295D01*
X53421191Y-132282502D01*
X53419479Y-132274840D01*
X53418691Y-132271035D01*
X53394307Y-132143214D01*
X53082662Y-132454859D01*
X51605300Y-132454859D01*
X51605300Y-131312902D01*
X52103300Y-131312902D01*
X52103300Y-131475498D01*
X52730523Y-132102721D01*
X53261249Y-131571994D01*
X53830855Y-131571994D01*
X53830855Y-131572005D01*
X53849815Y-131873383D01*
X53849816Y-131873390D01*
X53906405Y-132170040D01*
X53999725Y-132457247D01*
X53999727Y-132457252D01*
X54128304Y-132730491D01*
X54128307Y-132730497D01*
X54290116Y-132985469D01*
X54370911Y-133083133D01*
X55299308Y-132154736D01*
X55396567Y-132288602D01*
X55518998Y-132411033D01*
X55652862Y-132508290D01*
X54722164Y-133438987D01*
X54722165Y-133438989D01*
X54947061Y-133602385D01*
X54947079Y-133602397D01*
X55211709Y-133747878D01*
X55211717Y-133747882D01*
X55492489Y-133859047D01*
X55492492Y-133859048D01*
X55784999Y-133934150D01*
X56084595Y-133971999D01*
X56084607Y-133972000D01*
X56386593Y-133972000D01*
X56386604Y-133971999D01*
X56686200Y-133934150D01*
X56978707Y-133859048D01*
X56978710Y-133859047D01*
X57259482Y-133747882D01*
X57259490Y-133747878D01*
X57524120Y-133602397D01*
X57524130Y-133602390D01*
X57643695Y-133515520D01*
X58385963Y-133515520D01*
X59094484Y-134224042D01*
X59803006Y-133515520D01*
X60507283Y-133515520D01*
X61215805Y-134224042D01*
X61504240Y-133935606D01*
X61502090Y-133934289D01*
X61488877Y-133925904D01*
X61485628Y-133923771D01*
X61479126Y-133919353D01*
X61475931Y-133917107D01*
X61208722Y-133722969D01*
X61205601Y-133720626D01*
X61199393Y-133715810D01*
X61196356Y-133713376D01*
X61184299Y-133703401D01*
X61181337Y-133700872D01*
X61175447Y-133695679D01*
X61172568Y-133693059D01*
X60931802Y-133466964D01*
X60929013Y-133464261D01*
X60923460Y-133458709D01*
X60920737Y-133455900D01*
X60910026Y-133444493D01*
X60907413Y-133441621D01*
X60902217Y-133435728D01*
X60899683Y-133432761D01*
X60759497Y-133263306D01*
X60507283Y-133515520D01*
X59803006Y-133515520D01*
X59094484Y-132806999D01*
X58385963Y-133515520D01*
X57643695Y-133515520D01*
X57749033Y-133438987D01*
X57749034Y-133438987D01*
X56818337Y-132508290D01*
X56952202Y-132411033D01*
X57074633Y-132288602D01*
X57171890Y-132154737D01*
X58100287Y-133083134D01*
X58181086Y-132985464D01*
X58342892Y-132730497D01*
X58342895Y-132730491D01*
X58471472Y-132457252D01*
X58471474Y-132457247D01*
X58472250Y-132454860D01*
X59446623Y-132454860D01*
X60155144Y-133163381D01*
X60474473Y-132844052D01*
X60469087Y-132834252D01*
X60467267Y-132830815D01*
X60463703Y-132823820D01*
X60461991Y-132820324D01*
X60321361Y-132521473D01*
X60319755Y-132517918D01*
X60316634Y-132510705D01*
X60315144Y-132507105D01*
X60309384Y-132492555D01*
X60308006Y-132488910D01*
X60305347Y-132481523D01*
X60304088Y-132477844D01*
X60202025Y-132163726D01*
X60200882Y-132160013D01*
X60198689Y-132152467D01*
X60197657Y-132148695D01*
X60193766Y-132133538D01*
X60192856Y-132129745D01*
X60191144Y-132122083D01*
X60190356Y-132118278D01*
X60128467Y-131793847D01*
X60127799Y-131790021D01*
X60126570Y-131782266D01*
X60126020Y-131778396D01*
X60125691Y-131775792D01*
X59446623Y-132454860D01*
X58472250Y-132454860D01*
X58564794Y-132170040D01*
X58621383Y-131873390D01*
X58621384Y-131873383D01*
X58640345Y-131572005D01*
X58640345Y-131571994D01*
X58621384Y-131270616D01*
X58621383Y-131270609D01*
X58564794Y-130973959D01*
X58495583Y-130760951D01*
X59019211Y-130760951D01*
X59040840Y-130827515D01*
X59041984Y-130831233D01*
X59044177Y-130838780D01*
X59045208Y-130842548D01*
X59049099Y-130857705D01*
X59050009Y-130861498D01*
X59051721Y-130869160D01*
X59052509Y-130872965D01*
X59112028Y-131184975D01*
X59112695Y-131188798D01*
X59113924Y-131196552D01*
X59114475Y-131200425D01*
X59116436Y-131215950D01*
X59116863Y-131219812D01*
X59117603Y-131227635D01*
X59117909Y-131231526D01*
X59137853Y-131548539D01*
X59138037Y-131552426D01*
X59138284Y-131560277D01*
X59138345Y-131564176D01*
X59138345Y-131579824D01*
X59138284Y-131583723D01*
X59138037Y-131591574D01*
X59137853Y-131595461D01*
X59117909Y-131912474D01*
X59117603Y-131916365D01*
X59116863Y-131924188D01*
X59116436Y-131928050D01*
X59114475Y-131943575D01*
X59113924Y-131947448D01*
X59112695Y-131955202D01*
X59112028Y-131959025D01*
X59086197Y-132094434D01*
X59094484Y-132102721D01*
X59803006Y-131394200D01*
X59094484Y-130685678D01*
X59019211Y-130760951D01*
X58495583Y-130760951D01*
X58471474Y-130686752D01*
X58471472Y-130686747D01*
X58342895Y-130413508D01*
X58342892Y-130413502D01*
X58292147Y-130333540D01*
X59446623Y-130333540D01*
X60125691Y-131012607D01*
X60126020Y-131010004D01*
X60126570Y-131006134D01*
X60127799Y-130998379D01*
X60128467Y-130994553D01*
X60190356Y-130670122D01*
X60191144Y-130666317D01*
X60192856Y-130658655D01*
X60193766Y-130654862D01*
X60197657Y-130639705D01*
X60198689Y-130635933D01*
X60200882Y-130628387D01*
X60202025Y-130624674D01*
X60304088Y-130310556D01*
X60305347Y-130306877D01*
X60308006Y-130299490D01*
X60309384Y-130295845D01*
X60315144Y-130281295D01*
X60316634Y-130277695D01*
X60319755Y-130270482D01*
X60321361Y-130266927D01*
X60461991Y-129968076D01*
X60463703Y-129964580D01*
X60467267Y-129957585D01*
X60469087Y-129954148D01*
X60474473Y-129944347D01*
X60155145Y-129625019D01*
X59446623Y-130333540D01*
X58292147Y-130333540D01*
X58181083Y-130158530D01*
X58100286Y-130060864D01*
X57171889Y-130989261D01*
X57074633Y-130855398D01*
X56952202Y-130732967D01*
X56818336Y-130635709D01*
X57749034Y-129705011D01*
X57749033Y-129705009D01*
X57524138Y-129541614D01*
X57524120Y-129541602D01*
X57259490Y-129396121D01*
X57259482Y-129396117D01*
X56978710Y-129284952D01*
X56978707Y-129284951D01*
X56931689Y-129272879D01*
X58385963Y-129272879D01*
X59094484Y-129981401D01*
X59803006Y-129272879D01*
X60507283Y-129272879D01*
X60759497Y-129525093D01*
X60899683Y-129355639D01*
X60902217Y-129352672D01*
X60907413Y-129346779D01*
X60910026Y-129343907D01*
X60920737Y-129332500D01*
X60923460Y-129329691D01*
X60929013Y-129324139D01*
X60931802Y-129321436D01*
X61172568Y-129095341D01*
X61175447Y-129092721D01*
X61181337Y-129087528D01*
X61184299Y-129084999D01*
X61196356Y-129075024D01*
X61199393Y-129072590D01*
X61205601Y-129067774D01*
X61208722Y-129065431D01*
X61475931Y-128871293D01*
X61479126Y-128869047D01*
X61485628Y-128864629D01*
X61488877Y-128862496D01*
X61502090Y-128854111D01*
X61504240Y-128852793D01*
X61215805Y-128564358D01*
X60507283Y-129272879D01*
X59803006Y-129272879D01*
X59094484Y-128564358D01*
X58385963Y-129272879D01*
X56931689Y-129272879D01*
X56686200Y-129209849D01*
X56386604Y-129172000D01*
X56084595Y-129172000D01*
X55784999Y-129209849D01*
X55492492Y-129284951D01*
X55492489Y-129284952D01*
X55211717Y-129396117D01*
X55211709Y-129396121D01*
X54947076Y-129541604D01*
X54947071Y-129541607D01*
X54722165Y-129705010D01*
X54722164Y-129705011D01*
X55652862Y-130635709D01*
X55518998Y-130732967D01*
X55396567Y-130855398D01*
X55299309Y-130989262D01*
X54370911Y-130060864D01*
X54290120Y-130158525D01*
X54290118Y-130158528D01*
X54128307Y-130413502D01*
X54128304Y-130413508D01*
X53999727Y-130686747D01*
X53999725Y-130686752D01*
X53906405Y-130973959D01*
X53849816Y-131270609D01*
X53849815Y-131270616D01*
X53830855Y-131571994D01*
X53261249Y-131571994D01*
X53336611Y-131496632D01*
X53348737Y-131303892D01*
X52730523Y-130685678D01*
X52103300Y-131312902D01*
X51605300Y-131312902D01*
X51605300Y-130333540D01*
X53082662Y-130333540D01*
X53466232Y-130717110D01*
X53528516Y-130525424D01*
X53529777Y-130521740D01*
X53532436Y-130514354D01*
X53533812Y-130510714D01*
X53539572Y-130496164D01*
X53541062Y-130492564D01*
X53544183Y-130485351D01*
X53545789Y-130481796D01*
X53681034Y-130194388D01*
X53682746Y-130190892D01*
X53686310Y-130183897D01*
X53688130Y-130180460D01*
X53695667Y-130166748D01*
X53697606Y-130163348D01*
X53701607Y-130156584D01*
X53703637Y-130153272D01*
X53873837Y-129885079D01*
X53875976Y-129881823D01*
X53880392Y-129875325D01*
X53882635Y-129872134D01*
X53891833Y-129859475D01*
X53894166Y-129856367D01*
X53898978Y-129850163D01*
X53901415Y-129847121D01*
X53952062Y-129785896D01*
X53791184Y-129625018D01*
X53082662Y-130333540D01*
X51605300Y-130333540D01*
X51605300Y-129191582D01*
X52103300Y-129191582D01*
X52103300Y-129354177D01*
X52730524Y-129981401D01*
X53439045Y-129272879D01*
X54143322Y-129272879D01*
X54294406Y-129423963D01*
X54303520Y-129407690D01*
X54338825Y-129367960D01*
X54660687Y-129134117D01*
X54663870Y-129131881D01*
X54670363Y-129127468D01*
X54673620Y-129125328D01*
X54686832Y-129116943D01*
X54690152Y-129114909D01*
X54696915Y-129110909D01*
X54700302Y-129108976D01*
X54978647Y-128955954D01*
X54982091Y-128954131D01*
X54989082Y-128950569D01*
X54992571Y-128948859D01*
X55006730Y-128942195D01*
X55010290Y-128940588D01*
X55017507Y-128937465D01*
X55021105Y-128935975D01*
X55166066Y-128878580D01*
X54851844Y-128564358D01*
X54143322Y-129272879D01*
X53439045Y-129272879D01*
X52730523Y-128564358D01*
X52103300Y-129191582D01*
X51605300Y-129191582D01*
X51605300Y-128212219D01*
X53082662Y-128212219D01*
X53791184Y-128920741D01*
X54499705Y-128212219D01*
X55203982Y-128212219D01*
X55709327Y-128717564D01*
X55710946Y-128717308D01*
X55714811Y-128716758D01*
X56029954Y-128676946D01*
X56033822Y-128676519D01*
X56041648Y-128675779D01*
X56045539Y-128675472D01*
X56061156Y-128674490D01*
X56065052Y-128674307D01*
X56072897Y-128674061D01*
X56076783Y-128674000D01*
X56159245Y-128674000D01*
X56621025Y-128212219D01*
X57325303Y-128212219D01*
X58033824Y-128920741D01*
X58742346Y-128212219D01*
X59446623Y-128212219D01*
X60155145Y-128920741D01*
X60863666Y-128212219D01*
X60294347Y-127642900D01*
X60015943Y-127642900D01*
X59446623Y-128212219D01*
X58742346Y-128212219D01*
X58173027Y-127642900D01*
X57894623Y-127642900D01*
X57325303Y-128212219D01*
X56621025Y-128212219D01*
X56051706Y-127642900D01*
X55773302Y-127642900D01*
X55203982Y-128212219D01*
X54499705Y-128212219D01*
X53930386Y-127642900D01*
X53651982Y-127642900D01*
X53082662Y-128212219D01*
X51605300Y-128212219D01*
X51605300Y-127268900D01*
X51624985Y-127201861D01*
X51677789Y-127156106D01*
X51729300Y-127144900D01*
X61987224Y-127144900D01*
X62054263Y-127164585D01*
G37*
%TD.AperFunction*%
%TD*%
M02*
