%TF.GenerationSoftware,KiCad,Pcbnew,8.0.6*%
%TF.CreationDate,2024-11-11T18:01:30+01:00*%
%TF.ProjectId,TOUCH-PCB,544f5543-482d-4504-9342-2e6b69636164,rev?*%
%TF.SameCoordinates,Original*%
%TF.FileFunction,Copper,L2,Bot*%
%TF.FilePolarity,Positive*%
%FSLAX46Y46*%
G04 Gerber Fmt 4.6, Leading zero omitted, Abs format (unit mm)*
G04 Created by KiCad (PCBNEW 8.0.6) date 2024-11-11 18:01:30*
%MOMM*%
%LPD*%
G01*
G04 APERTURE LIST*
G04 Aperture macros list*
%AMRoundRect*
0 Rectangle with rounded corners*
0 $1 Rounding radius*
0 $2 $3 $4 $5 $6 $7 $8 $9 X,Y pos of 4 corners*
0 Add a 4 corners polygon primitive as box body*
4,1,4,$2,$3,$4,$5,$6,$7,$8,$9,$2,$3,0*
0 Add four circle primitives for the rounded corners*
1,1,$1+$1,$2,$3*
1,1,$1+$1,$4,$5*
1,1,$1+$1,$6,$7*
1,1,$1+$1,$8,$9*
0 Add four rect primitives between the rounded corners*
20,1,$1+$1,$2,$3,$4,$5,0*
20,1,$1+$1,$4,$5,$6,$7,0*
20,1,$1+$1,$6,$7,$8,$9,0*
20,1,$1+$1,$8,$9,$2,$3,0*%
G04 Aperture macros list end*
%TA.AperFunction,ComponentPad*%
%ADD10C,3.800000*%
%TD*%
%TA.AperFunction,SMDPad,CuDef*%
%ADD11RoundRect,0.250000X0.250000X0.750000X-0.250000X0.750000X-0.250000X-0.750000X0.250000X-0.750000X0*%
%TD*%
%TA.AperFunction,SMDPad,CuDef*%
%ADD12RoundRect,0.250000X-0.250000X-0.750000X0.250000X-0.750000X0.250000X0.750000X-0.250000X0.750000X0*%
%TD*%
%TA.AperFunction,SMDPad,CuDef*%
%ADD13R,1.200000X1.200000*%
%TD*%
%TA.AperFunction,Conductor*%
%ADD14C,0.500000*%
%TD*%
G04 APERTURE END LIST*
D10*
%TO.P,J15,1,Pin_1*%
%TO.N,GND*%
X108051600Y-133096000D03*
%TD*%
D11*
%TO.P,J13,1,Pin_1*%
%TO.N,Net-(D1-K)*%
X108356400Y-128143000D03*
%TD*%
D12*
%TO.P,J12,1,Pin_1*%
%TO.N,Net-(D4-A)*%
X96274218Y-134401227D03*
%TD*%
D11*
%TO.P,J11,1,Pin_1*%
%TO.N,Net-(D3-A)*%
X84459970Y-134387540D03*
%TD*%
%TO.P,J10,1,Pin_1*%
%TO.N,Net-(D2-A)*%
X72321503Y-134369798D03*
%TD*%
%TO.P,J9,1,Pin_1*%
%TO.N,Net-(D1-A)*%
X60359803Y-134364729D03*
%TD*%
D13*
%TO.P,D4,2,A*%
%TO.N,Net-(D4-A)*%
X98054800Y-134797800D03*
%TO.P,D4,1,K*%
%TO.N,Net-(D1-K)*%
X100154800Y-134797800D03*
%TD*%
%TO.P,D3,2,A*%
%TO.N,Net-(D3-A)*%
X86114200Y-134823200D03*
%TO.P,D3,1,K*%
%TO.N,Net-(D1-K)*%
X88214200Y-134823200D03*
%TD*%
%TO.P,D2,2,A*%
%TO.N,Net-(D2-A)*%
X74054800Y-134797800D03*
%TO.P,D2,1,K*%
%TO.N,Net-(D1-K)*%
X76154800Y-134797800D03*
%TD*%
%TO.P,D1,1,K*%
%TO.N,Net-(D1-K)*%
X64154800Y-134797800D03*
%TO.P,D1,2,A*%
%TO.N,Net-(D1-A)*%
X62054800Y-134797800D03*
%TD*%
D10*
%TO.P,J16,1,Pin_1*%
%TO.N,GND*%
X56235600Y-131572000D03*
%TD*%
D14*
%TO.N,Net-(D1-A)*%
X62054800Y-134797800D02*
X60792874Y-134797800D01*
X60792874Y-134797800D02*
X60359803Y-134364729D01*
%TO.N,Net-(D2-A)*%
X74054800Y-134797800D02*
X72749505Y-134797800D01*
X72749505Y-134797800D02*
X72321503Y-134369798D01*
%TO.N,Net-(D3-A)*%
X86114200Y-134823200D02*
X84895630Y-134823200D01*
X84895630Y-134823200D02*
X84459970Y-134387540D01*
%TO.N,Net-(D4-A)*%
X98054800Y-134797800D02*
X96670791Y-134797800D01*
X96670791Y-134797800D02*
X96274218Y-134401227D01*
%TO.N,Net-(D1-K)*%
X103911400Y-132588000D02*
X100431600Y-132588000D01*
X100431600Y-132588000D02*
X88239600Y-132588000D01*
X100154800Y-134797800D02*
X100154800Y-132864800D01*
X100154800Y-132864800D02*
X100431600Y-132588000D01*
X88239600Y-132588000D02*
X76047600Y-132588000D01*
X88214200Y-134823200D02*
X88214200Y-132613400D01*
X88214200Y-132613400D02*
X88239600Y-132588000D01*
X76047600Y-132588000D02*
X66364600Y-132588000D01*
X76154800Y-134797800D02*
X76154800Y-132695200D01*
X76154800Y-132695200D02*
X76047600Y-132588000D01*
X108356400Y-128143000D02*
X103911400Y-132588000D01*
X66364600Y-132588000D02*
X64154800Y-134797800D01*
%TD*%
M02*
